G04*
G04 #@! TF.GenerationSoftware,Altium Limited,Altium Designer,20.2.7 (254)*
G04*
G04 Layer_Color=8421504*
%FSLAX24Y24*%
%MOIN*%
G70*
G04*
G04 #@! TF.SameCoordinates,5986AE49-7A84-4E6F-8F63-06B94A686D52*
G04*
G04*
G04 #@! TF.FilePolarity,Positive*
G04*
G01*
G75*
%ADD19R,0.0374X0.0315*%
%ADD20R,0.0315X0.0315*%
%ADD21R,0.0550X0.0500*%
%ADD22R,0.0630X0.1240*%
%ADD23R,0.1697X0.3252*%
%ADD24O,0.0551X0.0157*%
%ADD25R,0.0315X0.0374*%
%ADD26R,0.0945X0.0394*%
%ADD27R,0.0945X0.1299*%
D19*
X31050Y25000D02*
D03*
Y24449D02*
D03*
X34050Y25000D02*
D03*
Y24449D02*
D03*
X35604Y25249D02*
D03*
Y25801D02*
D03*
X28750Y27949D02*
D03*
Y28500D02*
D03*
X29400Y27949D02*
D03*
Y28500D02*
D03*
X32846Y23381D02*
D03*
Y22829D02*
D03*
X34046Y23381D02*
D03*
Y22829D02*
D03*
X38146Y28025D02*
D03*
Y27474D02*
D03*
X36346Y27826D02*
D03*
Y27274D02*
D03*
X30050Y28500D02*
D03*
Y27949D02*
D03*
X38146Y29076D02*
D03*
Y28525D02*
D03*
X30096Y30599D02*
D03*
Y31151D02*
D03*
X36346Y30124D02*
D03*
Y30676D02*
D03*
X31050Y31674D02*
D03*
Y32226D02*
D03*
X34050Y31674D02*
D03*
Y32226D02*
D03*
X35604Y30650D02*
D03*
Y31201D02*
D03*
X36346Y28724D02*
D03*
Y29276D02*
D03*
Y26426D02*
D03*
Y25874D02*
D03*
X30446Y23381D02*
D03*
Y22829D02*
D03*
X29496Y21301D02*
D03*
Y20749D02*
D03*
X28846Y21301D02*
D03*
Y20749D02*
D03*
X31646Y23381D02*
D03*
Y22829D02*
D03*
D20*
X33446Y22760D02*
D03*
Y23390D02*
D03*
X34646Y22760D02*
D03*
Y23390D02*
D03*
X31046Y22760D02*
D03*
Y23390D02*
D03*
X32246Y22760D02*
D03*
Y23390D02*
D03*
D21*
X45146Y30275D02*
D03*
Y31175D02*
D03*
Y33375D02*
D03*
Y34275D02*
D03*
Y25275D02*
D03*
Y26175D02*
D03*
Y22425D02*
D03*
Y23325D02*
D03*
D22*
X28496Y36090D02*
D03*
Y34160D02*
D03*
D23*
X32546Y28275D02*
D03*
D24*
X34042Y25650D02*
D03*
Y25900D02*
D03*
Y26150D02*
D03*
Y26400D02*
D03*
Y26650D02*
D03*
Y26900D02*
D03*
Y27150D02*
D03*
Y27400D02*
D03*
Y27650D02*
D03*
Y27900D02*
D03*
Y28150D02*
D03*
Y28400D02*
D03*
Y28650D02*
D03*
Y28900D02*
D03*
Y29150D02*
D03*
Y29400D02*
D03*
Y29650D02*
D03*
Y29900D02*
D03*
Y30150D02*
D03*
Y30400D02*
D03*
Y30650D02*
D03*
Y30900D02*
D03*
X31050Y25650D02*
D03*
Y25900D02*
D03*
Y26150D02*
D03*
Y26400D02*
D03*
Y26650D02*
D03*
Y26900D02*
D03*
Y27150D02*
D03*
Y27400D02*
D03*
Y27650D02*
D03*
Y27900D02*
D03*
Y28150D02*
D03*
Y28400D02*
D03*
Y28650D02*
D03*
Y28900D02*
D03*
Y29150D02*
D03*
Y29400D02*
D03*
Y29650D02*
D03*
Y29900D02*
D03*
Y30150D02*
D03*
Y30400D02*
D03*
Y30650D02*
D03*
Y30900D02*
D03*
D25*
X31001Y22175D02*
D03*
X30450D02*
D03*
X32201D02*
D03*
X31650D02*
D03*
D26*
X27787Y20119D02*
D03*
Y21025D02*
D03*
Y21931D02*
D03*
D27*
X25504Y21025D02*
D03*
M02*
