G04*
G04 #@! TF.GenerationSoftware,Altium Limited,Altium Designer,20.2.7 (254)*
G04*
G04 Layer_Color=8388736*
%FSLAX25Y25*%
%MOIN*%
G70*
G04*
G04 #@! TF.SameCoordinates,93ECAAD2-9D94-4F50-94FD-CC643B8307E9*
G04*
G04*
G04 #@! TF.FilePolarity,Negative*
G04*
G01*
G75*
%ADD28R,0.04540X0.03950*%
%ADD29R,0.03950X0.04540*%
%ADD30R,0.06300X0.05800*%
%ADD31R,0.03950X0.03950*%
%ADD32O,0.08871X0.02769*%
%ADD33R,0.13792X0.10249*%
%ADD34R,0.04737X0.10249*%
%ADD35R,0.07099X0.13202*%
%ADD36R,0.10642X0.08674*%
%ADD37R,0.09800X0.09800*%
%ADD38C,0.09800*%
%ADD39C,0.07099*%
%ADD40R,0.07099X0.07099*%
%ADD41R,0.07099X0.07099*%
%ADD42C,0.06706*%
%ADD43R,0.06706X0.06706*%
%ADD44C,0.14600*%
D28*
X175700Y69544D02*
D03*
Y75056D02*
D03*
X175570Y115578D02*
D03*
Y121090D02*
D03*
X212300Y84544D02*
D03*
Y90056D02*
D03*
Y100544D02*
D03*
Y106056D02*
D03*
X97844Y128544D02*
D03*
Y134056D02*
D03*
X97844Y66356D02*
D03*
Y60844D02*
D03*
X91444D02*
D03*
Y66356D02*
D03*
X63806Y25787D02*
D03*
Y20275D02*
D03*
X70346Y25787D02*
D03*
Y20275D02*
D03*
D29*
X182812Y134800D02*
D03*
X177300D02*
D03*
X176812Y127800D02*
D03*
X171300D02*
D03*
X204544Y125300D02*
D03*
X210056D02*
D03*
X204544Y65300D02*
D03*
X210056D02*
D03*
X177338Y55763D02*
D03*
X182850D02*
D03*
X176850Y62763D02*
D03*
X171338D02*
D03*
X88656Y85600D02*
D03*
X83144D02*
D03*
X88756Y93800D02*
D03*
X83244D02*
D03*
X88756Y100300D02*
D03*
X83244D02*
D03*
D30*
X271000Y24000D02*
D03*
Y33000D02*
D03*
Y62300D02*
D03*
Y53300D02*
D03*
Y166200D02*
D03*
Y157200D02*
D03*
Y128000D02*
D03*
Y137000D02*
D03*
D31*
X99099Y151100D02*
D03*
X92800D02*
D03*
X99049Y144097D02*
D03*
X92750D02*
D03*
X145849Y39400D02*
D03*
X139550D02*
D03*
X118899D02*
D03*
X112600D02*
D03*
D32*
X158786Y73548D02*
D03*
Y76107D02*
D03*
Y78666D02*
D03*
Y81225D02*
D03*
Y83784D02*
D03*
Y86343D02*
D03*
Y88902D02*
D03*
Y91461D02*
D03*
Y94020D02*
D03*
Y96579D02*
D03*
Y99139D02*
D03*
Y101698D02*
D03*
Y104257D02*
D03*
Y106816D02*
D03*
Y109375D02*
D03*
Y111934D02*
D03*
Y114493D02*
D03*
Y117052D02*
D03*
X107014Y73548D02*
D03*
Y76107D02*
D03*
Y78666D02*
D03*
Y81225D02*
D03*
Y83784D02*
D03*
Y86343D02*
D03*
Y88902D02*
D03*
Y91461D02*
D03*
Y94020D02*
D03*
Y96579D02*
D03*
Y99139D02*
D03*
Y101698D02*
D03*
Y104257D02*
D03*
Y106816D02*
D03*
Y109375D02*
D03*
Y111934D02*
D03*
Y114493D02*
D03*
Y117052D02*
D03*
D33*
X45500Y34117D02*
D03*
D34*
X54555Y11283D02*
D03*
X45500D02*
D03*
X36445D02*
D03*
D35*
X50200Y156154D02*
D03*
Y175446D02*
D03*
D36*
X297900Y33600D02*
D03*
Y53600D02*
D03*
Y85300D02*
D03*
Y105300D02*
D03*
Y137000D02*
D03*
Y157000D02*
D03*
X17000Y175900D02*
D03*
Y155900D02*
D03*
D37*
X244200Y104400D02*
D03*
D38*
Y84400D02*
D03*
D39*
X69300Y100500D02*
D03*
Y90500D02*
D03*
Y57200D02*
D03*
Y67200D02*
D03*
Y133900D02*
D03*
Y123900D02*
D03*
X93200Y163100D02*
D03*
D40*
X69300Y80500D02*
D03*
Y47200D02*
D03*
Y113900D02*
D03*
D41*
X83200Y163100D02*
D03*
D42*
X17100Y21600D02*
D03*
X17000Y103400D02*
D03*
Y83400D02*
D03*
Y63400D02*
D03*
Y53400D02*
D03*
Y73400D02*
D03*
Y93400D02*
D03*
Y113400D02*
D03*
Y123400D02*
D03*
Y133400D02*
D03*
D43*
X17100Y11600D02*
D03*
X17000Y43400D02*
D03*
D44*
X114500Y9700D02*
D03*
Y178300D02*
D03*
X290900D02*
D03*
X292200Y9700D02*
D03*
M02*
