G04*
G04 #@! TF.GenerationSoftware,Altium Limited,Altium Designer,20.2.7 (254)*
G04*
G04 Layer_Color=32896*
%FSLAX25Y25*%
%MOIN*%
G70*
G04*
G04 #@! TF.SameCoordinates,93ECAAD2-9D94-4F50-94FD-CC643B8307E9*
G04*
G04*
G04 #@! TF.FilePolarity,Positive*
G04*
G01*
G75*
%ADD15C,0.00600*%
G36*
X181269Y28370D02*
X176576Y23483D01*
X176437Y22150D01*
X176131Y18957D01*
X175909Y16652D01*
X180935Y11459D01*
X180602Y11125D01*
X175854Y15985D01*
X175576Y13014D01*
X175437D01*
Y11875D01*
X174382D01*
Y13014D01*
X171105D01*
X170994Y12791D01*
X170827Y12569D01*
X170605Y12319D01*
X170299Y12097D01*
X169939Y11986D01*
X169605Y11958D01*
X169272D01*
X169022Y12042D01*
X168717Y12153D01*
X168467Y12319D01*
X168272Y12514D01*
X168078Y12791D01*
X167939Y13097D01*
X167856Y13375D01*
X167828Y13625D01*
X167856Y13902D01*
X167911Y14124D01*
X167995Y14347D01*
X168106Y14569D01*
X168245Y14763D01*
X168439Y14958D01*
X168661Y15096D01*
X168856Y15180D01*
X168828Y15430D01*
X164662Y11125D01*
X164329Y11486D01*
X168772Y16096D01*
X168411Y20123D01*
X168161Y23039D01*
X166828D01*
Y24899D01*
X167189D01*
X163801Y28370D01*
X164162Y28704D01*
X167328Y25427D01*
Y25677D01*
X167273Y25732D01*
X167189Y25788D01*
X167106Y25871D01*
X167023Y25954D01*
X166967Y26093D01*
X166939Y26204D01*
X166912Y26343D01*
X166939Y26510D01*
X166995Y26621D01*
X167106Y26815D01*
X167245Y26926D01*
X167439Y27010D01*
X167634Y27038D01*
X167828Y27010D01*
X167995Y26954D01*
X168133Y26871D01*
X168189Y26788D01*
X168328Y26899D01*
X168522Y27038D01*
X168772Y27149D01*
X169133Y27288D01*
X169522Y27399D01*
X169911Y27482D01*
X170327Y27565D01*
X170660Y27593D01*
Y28010D01*
X173326D01*
Y27648D01*
X173549D01*
X173882Y27621D01*
X174243Y27565D01*
X174604Y27510D01*
Y27732D01*
X175742D01*
Y27204D01*
X175881Y27121D01*
X176076Y27038D01*
X176270Y26926D01*
X176437Y26815D01*
X176603Y26676D01*
X176714Y26566D01*
X176770Y26482D01*
X176825Y26371D01*
X176798Y26177D01*
X177464D01*
Y25316D01*
X176742D01*
X176631Y24233D01*
X180935Y28704D01*
X181269Y28370D01*
D02*
G37*
G36*
X245223Y26871D02*
X245417Y26843D01*
X245584Y26788D01*
X245695Y26732D01*
X245806Y26676D01*
X245862Y26649D01*
X245889Y26621D01*
X246001Y26566D01*
X246056Y26538D01*
X246306Y26316D01*
X246528Y26066D01*
X246639Y25899D01*
X246695Y25844D01*
Y25816D01*
X255053Y11320D01*
X255081D01*
Y11292D01*
Y11264D01*
X255137Y11153D01*
X255192Y11070D01*
X255220Y11014D01*
Y10987D01*
X255248Y10903D01*
X255276Y10792D01*
X255304Y10709D01*
Y10681D01*
X255331Y10376D01*
Y10098D01*
X255304Y9848D01*
X255248Y9626D01*
X255165Y9431D01*
X255109Y9292D01*
X255081Y9209D01*
X255053Y9181D01*
X254942Y8987D01*
X254915Y8931D01*
X254887Y8904D01*
X254748Y8765D01*
X254693Y8709D01*
X254665Y8682D01*
X254415Y8487D01*
X254165Y8348D01*
X253915Y8237D01*
X253665Y8182D01*
X253471Y8126D01*
X253304Y8098D01*
X236392D01*
X236253Y8126D01*
X236142D01*
X236114Y8154D01*
X236003D01*
X235892Y8182D01*
X235809Y8209D01*
X235781D01*
X235504Y8321D01*
X235254Y8459D01*
X235059Y8626D01*
X234893Y8793D01*
X234754Y8931D01*
X234670Y9070D01*
X234615Y9154D01*
X234587Y9181D01*
X234559D01*
X234504Y9320D01*
X234448Y9404D01*
X234420Y9459D01*
Y9487D01*
X234393Y9598D01*
X234365Y9709D01*
X234337Y9765D01*
Y9792D01*
X234309Y10098D01*
Y10376D01*
X234337Y10653D01*
X234393Y10875D01*
X234476Y11070D01*
X234531Y11236D01*
X234559Y11320D01*
X234587Y11348D01*
X242974Y25871D01*
X243085Y26038D01*
X243112Y26093D01*
X243140Y26121D01*
X243279Y26260D01*
X243335Y26316D01*
X243362Y26343D01*
X243612Y26538D01*
X243834Y26676D01*
X244084Y26788D01*
X244307Y26843D01*
X244501Y26899D01*
X244668Y26926D01*
X245029D01*
X245223Y26871D01*
D02*
G37*
G36*
X219397Y26871D02*
X219591Y26843D01*
X219758Y26788D01*
X219869Y26732D01*
X219980Y26676D01*
X220036Y26649D01*
X220063Y26621D01*
X220174Y26566D01*
X220230Y26538D01*
X220480Y26316D01*
X220702Y26066D01*
X220813Y25899D01*
X220869Y25843D01*
Y25816D01*
X229227Y11320D01*
X229255D01*
Y11292D01*
Y11264D01*
X229311Y11153D01*
X229366Y11070D01*
X229394Y11014D01*
Y10987D01*
X229422Y10903D01*
X229450Y10792D01*
X229477Y10709D01*
Y10681D01*
X229505Y10376D01*
Y10098D01*
X229477Y9848D01*
X229422Y9626D01*
X229339Y9431D01*
X229283Y9292D01*
X229255Y9209D01*
X229227Y9181D01*
X229116Y8987D01*
X229089Y8931D01*
X229061Y8904D01*
X228922Y8765D01*
X228866Y8709D01*
X228839Y8682D01*
X228589Y8487D01*
X228339Y8348D01*
X228089Y8237D01*
X227839Y8182D01*
X227645Y8126D01*
X227478Y8098D01*
X210566Y8098D01*
X210427Y8126D01*
X210316D01*
X210288Y8154D01*
X210177D01*
X210066Y8182D01*
X209983Y8209D01*
X209955D01*
X209677Y8321D01*
X209427Y8459D01*
X209233Y8626D01*
X209066Y8793D01*
X208928Y8931D01*
X208844Y9070D01*
X208789Y9154D01*
X208761Y9181D01*
X208733D01*
X208678Y9320D01*
X208622Y9404D01*
X208594Y9459D01*
Y9487D01*
X208567Y9598D01*
X208539Y9709D01*
X208511Y9765D01*
Y9792D01*
X208483Y10098D01*
Y10375D01*
X208511Y10653D01*
X208567Y10875D01*
X208650Y11070D01*
X208705Y11236D01*
X208733Y11320D01*
X208761Y11348D01*
X217147Y25871D01*
X217259Y26038D01*
X217286Y26093D01*
X217314Y26121D01*
X217453Y26260D01*
X217509Y26316D01*
X217536Y26343D01*
X217786Y26538D01*
X218008Y26676D01*
X218258Y26788D01*
X218480Y26843D01*
X218675Y26899D01*
X218842Y26926D01*
X219202D01*
X219397Y26871D01*
D02*
G37*
G36*
X193571D02*
X193765Y26843D01*
X193932Y26788D01*
X194043Y26732D01*
X194154Y26676D01*
X194210Y26649D01*
X194237Y26621D01*
X194348Y26566D01*
X194404Y26538D01*
X194654Y26316D01*
X194876Y26066D01*
X194987Y25899D01*
X195043Y25843D01*
Y25816D01*
X203401Y11320D01*
X203429D01*
Y11292D01*
Y11264D01*
X203485Y11153D01*
X203540Y11070D01*
X203568Y11014D01*
Y10987D01*
X203596Y10903D01*
X203624Y10792D01*
X203651Y10709D01*
Y10681D01*
X203679Y10375D01*
Y10098D01*
X203651Y9848D01*
X203596Y9626D01*
X203512Y9431D01*
X203457Y9292D01*
X203429Y9209D01*
X203401Y9181D01*
X203290Y8987D01*
X203262Y8931D01*
X203235Y8904D01*
X203096Y8765D01*
X203040Y8709D01*
X203013Y8682D01*
X202763Y8487D01*
X202513Y8348D01*
X202263Y8237D01*
X202013Y8182D01*
X201818Y8126D01*
X201652Y8098D01*
X184740D01*
X184601Y8126D01*
X184490D01*
X184462Y8154D01*
X184351D01*
X184240Y8182D01*
X184157Y8209D01*
X184129D01*
X183851Y8321D01*
X183601Y8459D01*
X183407Y8626D01*
X183240Y8793D01*
X183101Y8931D01*
X183018Y9070D01*
X182963Y9154D01*
X182935Y9181D01*
X182907D01*
X182852Y9320D01*
X182796Y9404D01*
X182768Y9459D01*
Y9487D01*
X182740Y9598D01*
X182713Y9709D01*
X182685Y9765D01*
Y9792D01*
X182657Y10098D01*
Y10375D01*
X182685Y10653D01*
X182740Y10875D01*
X182824Y11070D01*
X182879Y11236D01*
X182907Y11320D01*
X182935Y11348D01*
X191321Y25871D01*
X191432Y26038D01*
X191460Y26093D01*
X191488Y26121D01*
X191627Y26260D01*
X191682Y26316D01*
X191710Y26343D01*
X191960Y26538D01*
X192182Y26676D01*
X192432Y26788D01*
X192654Y26843D01*
X192849Y26899D01*
X193015Y26926D01*
X193376D01*
X193571Y26871D01*
D02*
G37*
G36*
X149416Y26871D02*
X149611Y26843D01*
X149777Y26788D01*
X149889Y26732D01*
X150000Y26676D01*
X150055Y26649D01*
X150083Y26621D01*
X150194Y26565D01*
X150250Y26538D01*
X150499Y26316D01*
X150722Y26066D01*
X150833Y25899D01*
X150888Y25843D01*
Y25816D01*
X159247Y11320D01*
X159275D01*
Y11292D01*
Y11264D01*
X159330Y11153D01*
X159386Y11070D01*
X159414Y11014D01*
Y10987D01*
X159441Y10903D01*
X159469Y10792D01*
X159497Y10709D01*
Y10681D01*
X159525Y10375D01*
Y10098D01*
X159497Y9848D01*
X159441Y9626D01*
X159358Y9431D01*
X159303Y9292D01*
X159275Y9209D01*
X159247Y9181D01*
X159136Y8987D01*
X159108Y8931D01*
X159080Y8904D01*
X158942Y8765D01*
X158886Y8709D01*
X158858Y8682D01*
X158608Y8487D01*
X158358Y8348D01*
X158108Y8237D01*
X157859Y8182D01*
X157664Y8126D01*
X157498Y8098D01*
X140586D01*
X140447Y8126D01*
X140336D01*
X140308Y8154D01*
X140197D01*
X140086Y8182D01*
X140002Y8209D01*
X139975D01*
X139697Y8321D01*
X139447Y8459D01*
X139253Y8626D01*
X139086Y8793D01*
X138947Y8931D01*
X138864Y9070D01*
X138808Y9154D01*
X138781Y9181D01*
X138753D01*
X138697Y9320D01*
X138642Y9404D01*
X138614Y9459D01*
Y9487D01*
X138586Y9598D01*
X138558Y9709D01*
X138531Y9765D01*
Y9792D01*
X138503Y10098D01*
Y10375D01*
X138531Y10653D01*
X138586Y10875D01*
X138670Y11070D01*
X138725Y11236D01*
X138753Y11320D01*
X138781Y11348D01*
X147167Y25871D01*
X147278Y26038D01*
X147306Y26093D01*
X147334Y26121D01*
X147473Y26260D01*
X147528Y26316D01*
X147556Y26343D01*
X147806Y26538D01*
X148028Y26676D01*
X148278Y26788D01*
X148500Y26843D01*
X148695Y26899D01*
X148861Y26926D01*
X149222D01*
X149416Y26871D01*
D02*
G37*
G36*
X245556Y5099D02*
X245223D01*
Y7210D01*
X243807Y5099D01*
X243446D01*
Y7765D01*
X243779D01*
Y5682D01*
X245195Y7765D01*
X245556D01*
Y5099D01*
D02*
G37*
G36*
X236670D02*
X236337D01*
Y7210D01*
X234948Y5099D01*
X234587D01*
Y7765D01*
X234920D01*
Y5682D01*
X236309Y7765D01*
X236670D01*
Y5099D01*
D02*
G37*
G36*
X193904Y5099D02*
X193571D01*
Y7210D01*
X192155Y5099D01*
X191794D01*
Y7765D01*
X192127D01*
Y5682D01*
X193543Y7765D01*
X193904D01*
Y5099D01*
D02*
G37*
G36*
X185018D02*
X184684D01*
Y7210D01*
X183296Y5099D01*
X182935D01*
Y7765D01*
X183268D01*
Y5682D01*
X184657Y7765D01*
X185018D01*
Y5099D01*
D02*
G37*
G36*
X149750Y5099D02*
X149416D01*
Y7210D01*
X148000Y5099D01*
X147639D01*
Y7765D01*
X147972D01*
Y5682D01*
X149389Y7765D01*
X149750D01*
Y5099D01*
D02*
G37*
G36*
X140863D02*
X140530D01*
Y7210D01*
X139142Y5099D01*
X138781D01*
Y7765D01*
X139114D01*
Y5682D01*
X140502Y7765D01*
X140863D01*
Y5099D01*
D02*
G37*
G36*
X255053Y5099D02*
X254693D01*
X254387Y5905D01*
X253276D01*
X252971Y5099D01*
X252582D01*
X253665Y7765D01*
X254054D01*
X255053Y5099D01*
D02*
G37*
G36*
X252776Y7460D02*
X251888D01*
Y5099D01*
X251527D01*
Y7460D01*
X250666D01*
Y7765D01*
X252776D01*
Y7460D01*
D02*
G37*
G36*
X250499D02*
X249611D01*
Y5099D01*
X249277D01*
Y7460D01*
X248389D01*
Y7765D01*
X250499D01*
Y7460D01*
D02*
G37*
G36*
X248028Y5099D02*
X246028D01*
Y5405D01*
X247667D01*
Y6321D01*
X246195D01*
Y6627D01*
X247667D01*
Y7460D01*
X246084D01*
Y7765D01*
X248028D01*
Y5099D01*
D02*
G37*
G36*
X243057Y7460D02*
X242196D01*
Y5099D01*
X241835D01*
Y7460D01*
X240946D01*
Y7765D01*
X243057D01*
Y7460D01*
D02*
G37*
G36*
X240530Y5099D02*
X240169D01*
Y7765D01*
X240530D01*
Y5099D01*
D02*
G37*
G36*
X203401Y5099D02*
X203040D01*
X202735Y5905D01*
X201624D01*
X201319Y5099D01*
X200930D01*
X202013Y7765D01*
X202402D01*
X203401Y5099D01*
D02*
G37*
G36*
X201124Y7460D02*
X200236D01*
Y5099D01*
X199875D01*
Y7460D01*
X199014D01*
Y7765D01*
X201124D01*
Y7460D01*
D02*
G37*
G36*
X198847D02*
X197958D01*
Y5099D01*
X197625D01*
Y7460D01*
X196737D01*
Y7765D01*
X198847D01*
Y7460D01*
D02*
G37*
G36*
X196376Y5099D02*
X194376D01*
Y5405D01*
X196014D01*
Y6321D01*
X194543D01*
Y6627D01*
X196014D01*
Y7460D01*
X194432D01*
Y7765D01*
X196376D01*
Y5099D01*
D02*
G37*
G36*
X191405Y7460D02*
X190544D01*
Y5099D01*
X190183D01*
Y7460D01*
X189294D01*
Y7765D01*
X191405D01*
Y7460D01*
D02*
G37*
G36*
X188878Y5099D02*
X188517D01*
Y7765D01*
X188878D01*
Y5099D01*
D02*
G37*
G36*
X159247Y5099D02*
X158886D01*
X158581Y5905D01*
X157470D01*
X157164Y5099D01*
X156775D01*
X157859Y7765D01*
X158247D01*
X159247Y5099D01*
D02*
G37*
G36*
X156970Y7460D02*
X156081D01*
Y5099D01*
X155720D01*
Y7460D01*
X154859D01*
Y7765D01*
X156970D01*
Y7460D01*
D02*
G37*
G36*
X154693D02*
X153804D01*
Y5099D01*
X153471D01*
Y7460D01*
X152582D01*
Y7765D01*
X154693D01*
Y7460D01*
D02*
G37*
G36*
X152221Y5099D02*
X150222D01*
Y5405D01*
X151860D01*
Y6321D01*
X150388D01*
Y6627D01*
X151860D01*
Y7460D01*
X150277D01*
Y7765D01*
X152221D01*
Y5099D01*
D02*
G37*
G36*
X147250Y7460D02*
X146389D01*
Y5099D01*
X146028D01*
Y7460D01*
X145140D01*
Y7765D01*
X147250D01*
Y7460D01*
D02*
G37*
G36*
X144723Y5099D02*
X144362D01*
Y7765D01*
X144723D01*
Y5099D01*
D02*
G37*
G36*
X238586Y7793D02*
X238780Y7765D01*
X239058Y7626D01*
X239169Y7543D01*
X239252Y7487D01*
X239280Y7460D01*
X239308Y7432D01*
X239419Y7293D01*
X239502Y7126D01*
X239613Y6793D01*
X239641Y6627D01*
X239669Y6515D01*
Y6432D01*
Y6404D01*
X239641Y6154D01*
X239586Y5932D01*
X239558Y5793D01*
X239530Y5766D01*
Y5738D01*
X239391Y5516D01*
X239225Y5377D01*
X239114Y5266D01*
X239058Y5238D01*
X238836Y5155D01*
X238614Y5099D01*
X238447Y5071D01*
X238392D01*
X238142Y5099D01*
X237947Y5155D01*
X237808Y5210D01*
X237753Y5238D01*
X237558Y5377D01*
X237392Y5516D01*
X237309Y5655D01*
X237281Y5710D01*
X237170Y5960D01*
X237142Y6182D01*
X237114Y6377D01*
Y6404D01*
Y6432D01*
X237142Y6710D01*
X237197Y6932D01*
X237253Y7099D01*
X237281Y7126D01*
Y7154D01*
X237420Y7349D01*
X237558Y7515D01*
X237669Y7599D01*
X237725Y7626D01*
X237947Y7737D01*
X238169Y7793D01*
X238336Y7821D01*
X238392D01*
X238586Y7793D01*
D02*
G37*
G36*
X186934Y7793D02*
X187128Y7765D01*
X187406Y7626D01*
X187517Y7543D01*
X187600Y7487D01*
X187628Y7460D01*
X187656Y7432D01*
X187767Y7293D01*
X187850Y7126D01*
X187961Y6793D01*
X187989Y6627D01*
X188017Y6515D01*
Y6432D01*
Y6404D01*
X187989Y6154D01*
X187934Y5932D01*
X187906Y5793D01*
X187878Y5766D01*
Y5738D01*
X187739Y5516D01*
X187573Y5377D01*
X187461Y5266D01*
X187406Y5238D01*
X187184Y5155D01*
X186961Y5099D01*
X186795Y5071D01*
X186739D01*
X186489Y5099D01*
X186295Y5155D01*
X186156Y5210D01*
X186101Y5238D01*
X185906Y5377D01*
X185740Y5516D01*
X185656Y5655D01*
X185628Y5710D01*
X185518Y5960D01*
X185490Y6182D01*
X185462Y6377D01*
Y6404D01*
Y6432D01*
X185490Y6710D01*
X185545Y6932D01*
X185601Y7099D01*
X185628Y7126D01*
Y7154D01*
X185767Y7349D01*
X185906Y7515D01*
X186017Y7599D01*
X186073Y7626D01*
X186295Y7737D01*
X186517Y7793D01*
X186684Y7821D01*
X186739D01*
X186934Y7793D01*
D02*
G37*
G36*
X142779Y7793D02*
X142974Y7765D01*
X143252Y7626D01*
X143363Y7543D01*
X143446Y7487D01*
X143474Y7460D01*
X143501Y7432D01*
X143613Y7293D01*
X143696Y7126D01*
X143807Y6793D01*
X143835Y6627D01*
X143862Y6515D01*
Y6432D01*
Y6404D01*
X143835Y6154D01*
X143779Y5932D01*
X143751Y5793D01*
X143724Y5766D01*
Y5738D01*
X143585Y5516D01*
X143418Y5377D01*
X143307Y5266D01*
X143252Y5238D01*
X143029Y5155D01*
X142807Y5099D01*
X142641Y5071D01*
X142585D01*
X142335Y5099D01*
X142141Y5155D01*
X142002Y5210D01*
X141946Y5238D01*
X141752Y5377D01*
X141585Y5516D01*
X141502Y5655D01*
X141474Y5710D01*
X141363Y5960D01*
X141335Y6182D01*
X141308Y6377D01*
Y6404D01*
Y6432D01*
X141335Y6710D01*
X141391Y6932D01*
X141446Y7099D01*
X141474Y7126D01*
Y7154D01*
X141613Y7349D01*
X141752Y7515D01*
X141863Y7598D01*
X141919Y7626D01*
X142141Y7737D01*
X142363Y7793D01*
X142529Y7821D01*
X142585D01*
X142779Y7793D01*
D02*
G37*
G36*
X155332Y3378D02*
X155165D01*
Y3988D01*
X154471D01*
Y3378D01*
X154276D01*
Y4683D01*
X154471D01*
Y4127D01*
X155165D01*
Y4683D01*
X155332D01*
Y3378D01*
D02*
G37*
G36*
X196598Y4683D02*
X196653Y4655D01*
X196681Y4627D01*
X196764Y4544D01*
X196848Y4461D01*
X196875Y4405D01*
X196903Y4377D01*
X196959Y4266D01*
X196986Y4155D01*
Y4044D01*
Y4016D01*
Y3877D01*
X196959Y3766D01*
X196931Y3683D01*
Y3655D01*
X196848Y3572D01*
X196792Y3516D01*
X196737Y3461D01*
X196709D01*
X196598Y3405D01*
X196487Y3378D01*
X196376Y3350D01*
X196348D01*
X196237Y3378D01*
X196126Y3433D01*
X196042Y3461D01*
X196014Y3489D01*
X195931Y3544D01*
X195876Y3655D01*
X195820Y3739D01*
Y3766D01*
X195987Y3822D01*
X196042Y3711D01*
X196070Y3627D01*
X196098Y3572D01*
X196126D01*
X196209Y3544D01*
X196292Y3516D01*
X196376D01*
X196514Y3544D01*
X196598D01*
X196681Y3600D01*
X196709Y3655D01*
X196764Y3711D01*
Y3739D01*
X196820Y3933D01*
Y3988D01*
Y4016D01*
X196792Y4183D01*
X196764Y4238D01*
Y4266D01*
X196681Y4433D01*
X196625Y4461D01*
Y4488D01*
X196431Y4544D01*
X196348D01*
X196209Y4516D01*
X196153Y4488D01*
X196070Y4433D01*
X196042Y4349D01*
X196014Y4294D01*
Y4266D01*
X195848Y4322D01*
X195903Y4433D01*
X195959Y4516D01*
X195987Y4572D01*
X196014Y4599D01*
X196126Y4655D01*
X196237Y4710D01*
X196487D01*
X196598Y4683D01*
D02*
G37*
G36*
X186323D02*
X186406Y4655D01*
X186434Y4627D01*
X186517Y4544D01*
X186600Y4461D01*
X186628Y4405D01*
X186656Y4377D01*
X186712Y4266D01*
X186739Y4155D01*
Y4044D01*
Y4016D01*
X186712Y3877D01*
X186684Y3766D01*
X186656Y3683D01*
Y3655D01*
X186600Y3572D01*
X186545Y3516D01*
X186489Y3461D01*
X186462D01*
X186351Y3405D01*
X186240Y3378D01*
X186128Y3350D01*
X186101D01*
X185962Y3378D01*
X185851Y3433D01*
X185795Y3461D01*
X185767Y3489D01*
X185656Y3544D01*
X185601Y3655D01*
X185545Y3739D01*
Y3766D01*
X185740Y3822D01*
X185767Y3711D01*
X185823Y3627D01*
X185851Y3600D01*
X185879Y3572D01*
X185962Y3544D01*
X186045Y3516D01*
X186128D01*
X186267Y3544D01*
X186351D01*
X186434Y3600D01*
X186462Y3655D01*
X186517Y3711D01*
Y3739D01*
X186545Y3933D01*
Y3988D01*
Y4016D01*
X186517Y4183D01*
Y4238D01*
Y4266D01*
X186434Y4433D01*
X186378Y4461D01*
Y4488D01*
X186184Y4544D01*
X186101D01*
X185934Y4516D01*
X185906Y4488D01*
X185879D01*
X185823Y4433D01*
X185767Y4349D01*
X185740Y4294D01*
Y4266D01*
X185573Y4322D01*
X185628Y4433D01*
X185684Y4516D01*
X185740Y4572D01*
X185767Y4599D01*
X185879Y4655D01*
X185990Y4710D01*
X186212D01*
X186323Y4683D01*
D02*
G37*
G36*
X180269Y7293D02*
Y7237D01*
Y7126D01*
Y7015D01*
Y6904D01*
Y6793D01*
Y6738D01*
Y6710D01*
Y6266D01*
Y5849D01*
Y5655D01*
Y5516D01*
Y5432D01*
Y5405D01*
Y4905D01*
Y4683D01*
Y4488D01*
Y4322D01*
Y4211D01*
Y4127D01*
Y4100D01*
Y3905D01*
Y3766D01*
Y3655D01*
Y3600D01*
Y3516D01*
X165079Y3516D01*
Y3544D01*
Y3600D01*
Y3822D01*
Y4016D01*
Y4072D01*
Y4100D01*
Y4544D01*
Y4960D01*
Y5155D01*
Y5294D01*
Y5377D01*
Y5405D01*
Y5905D01*
Y6127D01*
Y6321D01*
Y6488D01*
Y6599D01*
Y6682D01*
Y6710D01*
Y6904D01*
Y7071D01*
Y7182D01*
Y7237D01*
Y7293D01*
Y7321D01*
X180269Y7321D01*
Y7293D01*
D02*
G37*
G36*
X149694Y3905D02*
Y3766D01*
X149666Y3655D01*
X149639Y3600D01*
Y3572D01*
X149528Y3461D01*
X149500Y3433D01*
X149472D01*
X149389Y3378D01*
X149278Y3350D01*
X149167D01*
X149028Y3378D01*
X148944Y3405D01*
X148889Y3433D01*
X148861D01*
X148778Y3489D01*
X148722Y3544D01*
X148695Y3600D01*
X148667Y3683D01*
X148639Y3794D01*
Y3877D01*
Y3905D01*
Y4683D01*
X148805D01*
Y3905D01*
Y3739D01*
X148833Y3655D01*
X148861Y3600D01*
X148889Y3572D01*
X148972Y3544D01*
X149056Y3516D01*
X149361D01*
X149444Y3600D01*
X149472Y3655D01*
X149500Y3711D01*
Y3794D01*
Y3877D01*
Y3905D01*
Y4683D01*
X149694D01*
Y3905D01*
D02*
G37*
G36*
X144390Y4683D02*
X144446Y4655D01*
X144473Y4627D01*
X144585Y4544D01*
X144640Y4461D01*
X144696Y4405D01*
Y4377D01*
X144751Y4266D01*
X144779Y4155D01*
Y4044D01*
Y4016D01*
Y3877D01*
X144751Y3766D01*
X144723Y3683D01*
Y3655D01*
X144640Y3572D01*
X144585Y3516D01*
X144529Y3461D01*
X144501D01*
X144390Y3405D01*
X144279Y3378D01*
X144168Y3350D01*
X144140D01*
X144001Y3378D01*
X143890Y3433D01*
X143835Y3461D01*
X143807Y3489D01*
X143724Y3544D01*
X143668Y3655D01*
X143613Y3739D01*
Y3766D01*
X143779Y3822D01*
X143807Y3711D01*
X143862Y3627D01*
X143890Y3600D01*
X143918Y3572D01*
X144085Y3516D01*
X144168D01*
X144307Y3544D01*
X144390D01*
X144473Y3600D01*
X144501Y3655D01*
X144557Y3711D01*
Y3739D01*
X144612Y3933D01*
Y3988D01*
Y4016D01*
X144585Y4183D01*
X144557Y4238D01*
Y4266D01*
X144473Y4433D01*
X144418Y4461D01*
Y4488D01*
X144223Y4544D01*
X144140D01*
X144001Y4516D01*
X143946Y4488D01*
X143835Y4349D01*
X143807Y4294D01*
Y4266D01*
X143640Y4322D01*
X143696Y4433D01*
X143751Y4516D01*
X143779Y4572D01*
X143807Y4599D01*
X143918Y4655D01*
X144029Y4710D01*
X144279D01*
X144390Y4683D01*
D02*
G37*
G36*
X200458Y3378D02*
X199458D01*
Y3516D01*
X200263D01*
Y3961D01*
X199541D01*
Y4127D01*
X200263D01*
Y4516D01*
X199486D01*
Y4683D01*
X200458D01*
Y3378D01*
D02*
G37*
G36*
X199208D02*
X198375D01*
Y3516D01*
X199041D01*
Y4683D01*
X199208D01*
Y3378D01*
D02*
G37*
G36*
X198181D02*
X197181D01*
Y3516D01*
X197986D01*
Y3961D01*
X197264D01*
Y4127D01*
X197986D01*
Y4516D01*
X197209D01*
Y4683D01*
X198181D01*
Y3378D01*
D02*
G37*
G36*
X195681Y4516D02*
X195265D01*
Y3378D01*
X195070D01*
Y4516D01*
X194626D01*
Y4683D01*
X195681D01*
Y4516D01*
D02*
G37*
G36*
X194459Y3378D02*
X194265D01*
Y3933D01*
X193987D01*
X193932Y3905D01*
X193904D01*
X193849Y3850D01*
X193821Y3822D01*
X193765Y3766D01*
X193737Y3711D01*
X193682Y3655D01*
Y3627D01*
X193515Y3378D01*
X193293D01*
X193515Y3711D01*
X193626Y3850D01*
X193654Y3877D01*
X193737Y3933D01*
X193765Y3961D01*
X193626Y3988D01*
X193543Y4016D01*
X193515Y4072D01*
X193488D01*
X193432Y4155D01*
X193404Y4238D01*
Y4294D01*
Y4322D01*
X193432Y4461D01*
X193460Y4488D01*
Y4516D01*
X193488Y4572D01*
X193543Y4627D01*
X193571Y4655D01*
X193598D01*
X193765Y4683D01*
X194459D01*
Y3378D01*
D02*
G37*
G36*
X190544Y4516D02*
X190100D01*
Y3378D01*
X189933D01*
Y4516D01*
X189489D01*
Y4683D01*
X190544D01*
Y4516D01*
D02*
G37*
G36*
X189572Y3378D02*
X189405D01*
X189239Y3739D01*
X188683D01*
X188544Y3378D01*
X188322D01*
X188878Y4683D01*
X189072D01*
X189572Y3378D01*
D02*
G37*
G36*
X188433Y4516D02*
X187989D01*
Y3378D01*
X187822D01*
Y4516D01*
X187378D01*
Y4683D01*
X188433D01*
Y4516D01*
D02*
G37*
G36*
X187184Y3378D02*
X186989D01*
Y4683D01*
X187184D01*
Y3378D01*
D02*
G37*
G36*
X152638Y4516D02*
X152193D01*
Y3378D01*
X152027D01*
Y4516D01*
X151583D01*
Y4683D01*
X152638D01*
Y4516D01*
D02*
G37*
G36*
X148333Y3378D02*
X148167D01*
Y3933D01*
X147861D01*
X147806Y3905D01*
X147778D01*
X147722Y3850D01*
X147695Y3822D01*
X147667Y3766D01*
X147611Y3711D01*
X147584Y3655D01*
X147556Y3627D01*
X147389Y3378D01*
X147167D01*
X147389Y3711D01*
X147500Y3850D01*
X147556Y3877D01*
X147611Y3933D01*
X147639Y3961D01*
X147528Y3988D01*
X147445Y4016D01*
X147389Y4072D01*
X147362D01*
X147306Y4155D01*
X147278Y4238D01*
Y4294D01*
Y4322D01*
X147306Y4461D01*
X147334Y4488D01*
Y4516D01*
X147417Y4627D01*
X147445Y4655D01*
X147473D01*
X147639Y4683D01*
X148333D01*
Y3378D01*
D02*
G37*
G36*
X147001D02*
X146834D01*
Y3961D01*
X146195D01*
Y4100D01*
X146834D01*
Y4516D01*
X146112D01*
Y4683D01*
X147001D01*
Y3378D01*
D02*
G37*
G36*
X146112D02*
X145917D01*
X145779Y3739D01*
X145223D01*
X145084Y3378D01*
X144862D01*
X145418Y4683D01*
X145612D01*
X146112Y3378D01*
D02*
G37*
G36*
X143390D02*
X142391D01*
Y3516D01*
X143196D01*
Y3961D01*
X142474D01*
Y4127D01*
X143196D01*
Y4516D01*
X142418D01*
Y4683D01*
X143390D01*
Y3378D01*
D02*
G37*
G36*
X192738Y4683D02*
X192877Y4627D01*
X192960Y4544D01*
X192988Y4516D01*
X193071Y4349D01*
X193126Y4183D01*
X193154Y4044D01*
Y4016D01*
Y3988D01*
Y3850D01*
X193126Y3739D01*
X193099Y3683D01*
Y3655D01*
X193043Y3572D01*
X192960Y3516D01*
X192904Y3461D01*
X192877D01*
X192765Y3405D01*
X192654Y3378D01*
X192571Y3350D01*
X192543D01*
X192404Y3378D01*
X192293Y3405D01*
X192238Y3433D01*
X192210D01*
X192043Y3572D01*
X192016Y3627D01*
X191988Y3655D01*
X191932Y3766D01*
X191905Y3877D01*
Y3988D01*
Y4016D01*
Y4155D01*
X191932Y4266D01*
X191960Y4349D01*
X191988Y4377D01*
X192043Y4488D01*
X192127Y4544D01*
X192182Y4599D01*
X192210D01*
X192321Y4655D01*
X192432Y4710D01*
X192543D01*
X192738Y4683D01*
D02*
G37*
G36*
X191377D02*
X191432Y4655D01*
X191460D01*
X191571Y4572D01*
X191627Y4544D01*
Y4516D01*
X191682Y4377D01*
Y4349D01*
Y4322D01*
X191655Y4211D01*
X191627Y4183D01*
X191599Y4127D01*
X191544Y4072D01*
X191516Y4044D01*
X191488D01*
X191432Y4016D01*
X191349Y3988D01*
X191266Y3961D01*
X191238D01*
X191127Y3933D01*
X191044Y3905D01*
X190988D01*
X190905Y3850D01*
X190877Y3822D01*
X190849Y3739D01*
Y3711D01*
Y3627D01*
X190877Y3600D01*
X190960Y3544D01*
X190988Y3516D01*
X191377D01*
X191432Y3572D01*
X191488Y3600D01*
X191516Y3627D01*
X191571Y3739D01*
Y3794D01*
X191738Y3766D01*
X191710Y3683D01*
X191682Y3600D01*
X191655Y3572D01*
Y3544D01*
X191516Y3433D01*
X191488Y3405D01*
X191460D01*
X191377Y3378D01*
X191266Y3350D01*
X191155D01*
X190988Y3378D01*
X190933Y3405D01*
X190905D01*
X190794Y3489D01*
X190738Y3516D01*
X190683Y3655D01*
Y3711D01*
X190710Y3850D01*
X190738Y3905D01*
X190849Y4016D01*
X190877Y4044D01*
X190905D01*
X190988Y4072D01*
X191071Y4100D01*
X191155Y4127D01*
X191182D01*
X191321Y4155D01*
X191405Y4183D01*
X191460Y4211D01*
X191516Y4294D01*
Y4349D01*
X191488Y4405D01*
X191460Y4461D01*
X191432Y4488D01*
X191377Y4516D01*
X191294Y4544D01*
X191099D01*
X191044Y4516D01*
X190988Y4488D01*
X190933Y4433D01*
X190905Y4377D01*
X190877Y4322D01*
Y4294D01*
X190710D01*
X190738Y4461D01*
X190766Y4488D01*
Y4516D01*
X190905Y4627D01*
X190933Y4655D01*
X190960D01*
X191127Y4710D01*
X191210D01*
X191377Y4683D01*
D02*
G37*
G36*
X153610Y4683D02*
X153749Y4627D01*
X153832Y4544D01*
X153860Y4516D01*
X153971Y4349D01*
X154026Y4183D01*
X154054Y4044D01*
Y4016D01*
Y3988D01*
X154026Y3877D01*
X153998Y3766D01*
X153971Y3683D01*
Y3655D01*
X153887Y3572D01*
X153832Y3516D01*
X153776Y3461D01*
X153749D01*
X153638Y3405D01*
X153526Y3378D01*
X153443Y3350D01*
X153415D01*
X153304Y3378D01*
X153193Y3405D01*
X153110Y3433D01*
X153082D01*
X152916Y3572D01*
X152888Y3627D01*
X152860Y3655D01*
X152804Y3766D01*
X152777Y3877D01*
Y3988D01*
Y4016D01*
Y4155D01*
X152804Y4266D01*
X152832Y4349D01*
Y4377D01*
X152916Y4488D01*
X152999Y4544D01*
X153054Y4599D01*
X153082D01*
X153193Y4655D01*
X153304Y4710D01*
X153415D01*
X153610Y4683D01*
D02*
G37*
G36*
X150638D02*
X150694Y4655D01*
X150722D01*
X150833Y4572D01*
X150888Y4544D01*
Y4516D01*
X150944Y4377D01*
Y4349D01*
Y4322D01*
X150916Y4211D01*
X150888Y4183D01*
X150805Y4072D01*
X150749Y4044D01*
X150666Y4016D01*
X150583Y3988D01*
X150527Y3961D01*
X150499D01*
X150361Y3933D01*
X150277Y3905D01*
X150250D01*
X150166Y3850D01*
X150138Y3822D01*
X150083Y3739D01*
Y3711D01*
X150111Y3627D01*
X150138Y3600D01*
X150194Y3544D01*
X150222Y3516D01*
X150638D01*
X150722Y3600D01*
X150749Y3627D01*
X150805Y3739D01*
Y3794D01*
X150999Y3766D01*
X150944Y3600D01*
X150916Y3572D01*
Y3544D01*
X150777Y3433D01*
X150749Y3405D01*
X150722D01*
X150527Y3350D01*
X150416D01*
X150250Y3378D01*
X150194Y3405D01*
X150166D01*
X150027Y3489D01*
X150000Y3516D01*
X149944Y3572D01*
X149916Y3655D01*
Y3683D01*
Y3711D01*
X149944Y3850D01*
X149972Y3905D01*
X150027Y3961D01*
X150083Y4016D01*
X150138Y4044D01*
X150166D01*
X150222Y4072D01*
X150333Y4100D01*
X150416Y4127D01*
X150444D01*
X150583Y4155D01*
X150666Y4183D01*
X150722Y4211D01*
X150749Y4294D01*
Y4349D01*
X150722Y4461D01*
X150694Y4488D01*
X150611Y4516D01*
X150527Y4544D01*
X150444D01*
X150277Y4516D01*
X150250Y4488D01*
X150222D01*
X150166Y4433D01*
X150138Y4377D01*
Y4322D01*
Y4294D01*
X149972D01*
X150000Y4461D01*
X150027Y4488D01*
Y4516D01*
X150138Y4627D01*
X150166Y4655D01*
X150194D01*
X150361Y4710D01*
X150472D01*
X150638Y4683D01*
D02*
G37*
G36*
X198986Y1572D02*
X198819D01*
Y2628D01*
X198125Y1572D01*
X197931D01*
Y2905D01*
X198097D01*
Y1850D01*
X198819Y2905D01*
X198986D01*
Y1572D01*
D02*
G37*
G36*
X193849D02*
X193682D01*
X193154Y2905D01*
X193349D01*
X193682Y1933D01*
X193737Y1795D01*
X193765Y1739D01*
Y1711D01*
X193793Y1822D01*
X193821Y1906D01*
X193849Y1933D01*
X194182Y2905D01*
X194376D01*
X193849Y1572D01*
D02*
G37*
G36*
X188267D02*
X188100D01*
X187573Y2905D01*
X187767D01*
X188128Y1933D01*
X188183Y1795D01*
Y1739D01*
Y1711D01*
X188239Y1850D01*
X188267Y1906D01*
Y1933D01*
X188600Y2905D01*
X188794D01*
X188267Y1572D01*
D02*
G37*
G36*
X186573Y2905D02*
X186628Y2878D01*
X186656Y2850D01*
X186739Y2767D01*
X186823Y2683D01*
X186850Y2628D01*
X186878Y2600D01*
X186934Y2489D01*
X186961Y2378D01*
Y2267D01*
Y2239D01*
X186934Y2100D01*
X186906Y1989D01*
X186878Y1933D01*
Y1906D01*
X186823Y1795D01*
X186767Y1711D01*
X186712Y1656D01*
X186684Y1628D01*
X186573Y1572D01*
X186462Y1545D01*
X186323D01*
X186184Y1572D01*
X186073Y1600D01*
X186017Y1628D01*
X185990Y1656D01*
X185906Y1767D01*
X185851Y1878D01*
X185795Y1961D01*
Y1989D01*
X185962Y2045D01*
X185990Y1933D01*
X186045Y1850D01*
X186073Y1822D01*
X186101Y1795D01*
X186184Y1739D01*
X186267Y1711D01*
X186351D01*
X186489Y1739D01*
X186545Y1767D01*
X186573D01*
X186628Y1822D01*
X186684Y1878D01*
X186712Y1933D01*
Y1961D01*
X186767Y2156D01*
Y2211D01*
Y2239D01*
X186739Y2433D01*
Y2489D01*
Y2517D01*
X186712Y2600D01*
X186656Y2655D01*
X186600Y2711D01*
X186573D01*
X186489Y2767D01*
X186406Y2794D01*
X186240D01*
X186156Y2767D01*
X186128Y2739D01*
X186101Y2711D01*
X186045Y2655D01*
X185990Y2572D01*
X185962Y2517D01*
Y2489D01*
X185795Y2544D01*
X185851Y2683D01*
X185906Y2767D01*
X185962Y2794D01*
X185990Y2822D01*
X186101Y2878D01*
X186212Y2933D01*
X186462D01*
X186573Y2905D01*
D02*
G37*
G36*
X200208Y1572D02*
X199236D01*
Y1739D01*
X200041D01*
Y2183D01*
X199319D01*
Y2350D01*
X200041D01*
Y2739D01*
X199264D01*
Y2905D01*
X200208D01*
Y1572D01*
D02*
G37*
G36*
X196376D02*
X196209D01*
Y2905D01*
X196376D01*
Y1572D01*
D02*
G37*
G36*
X195987Y2739D02*
X195542D01*
Y1572D01*
X195376D01*
Y2739D01*
X194931D01*
Y2905D01*
X195987D01*
Y2739D01*
D02*
G37*
G36*
X194737Y1572D02*
X194543D01*
Y2905D01*
X194737D01*
Y1572D01*
D02*
G37*
G36*
X192988D02*
X192016D01*
Y1739D01*
X192821D01*
Y2183D01*
X192099D01*
Y2350D01*
X192821D01*
Y2739D01*
X192043D01*
Y2905D01*
X192988D01*
Y1572D01*
D02*
G37*
G36*
X191238D02*
X190766D01*
X190599Y1600D01*
X190544D01*
X190433Y1628D01*
X190377Y1656D01*
X190322Y1739D01*
X190266Y1795D01*
X190211Y1933D01*
X190183Y1961D01*
Y1989D01*
X190155Y2072D01*
Y2156D01*
Y2211D01*
Y2239D01*
Y2378D01*
Y2489D01*
X190183Y2544D01*
Y2572D01*
X190294Y2739D01*
X190322Y2767D01*
X190349Y2794D01*
X190488Y2850D01*
X190516Y2878D01*
X190544D01*
X190710Y2905D01*
X191238D01*
Y1572D01*
D02*
G37*
G36*
X189905D02*
X188905D01*
Y1739D01*
X189711D01*
Y2183D01*
X188989D01*
Y2350D01*
X189711D01*
Y2739D01*
X188933D01*
Y2905D01*
X189905D01*
Y1572D01*
D02*
G37*
G36*
X187378D02*
X187211D01*
Y2905D01*
X187378D01*
Y1572D01*
D02*
G37*
G36*
X185545D02*
X184573D01*
Y1739D01*
X185379D01*
Y2183D01*
X184657D01*
Y2350D01*
X185379D01*
Y2739D01*
X184601D01*
Y2905D01*
X185545D01*
Y1572D01*
D02*
G37*
G36*
X201152Y2905D02*
X201207Y2878D01*
X201235D01*
X201319Y2850D01*
X201374Y2794D01*
X201402Y2767D01*
X201430Y2739D01*
X201485Y2628D01*
Y2600D01*
Y2572D01*
X201457Y2461D01*
X201430Y2406D01*
X201346Y2294D01*
X201291Y2267D01*
X201207Y2239D01*
X201124Y2211D01*
X201069Y2183D01*
X201041D01*
X200874Y2156D01*
X200819Y2128D01*
X200791D01*
X200708Y2072D01*
X200680Y2045D01*
X200624Y1961D01*
Y1933D01*
X200652Y1850D01*
X200680Y1822D01*
X200735Y1767D01*
X200763Y1739D01*
X200791D01*
X200902Y1711D01*
X200958D01*
X201096Y1739D01*
X201180D01*
X201263Y1822D01*
X201291Y1850D01*
X201346Y1961D01*
Y1989D01*
Y2017D01*
X201513D01*
X201485Y1850D01*
X201457Y1795D01*
Y1767D01*
X201319Y1656D01*
X201291Y1600D01*
X201263D01*
X201069Y1545D01*
X200958D01*
X200791Y1572D01*
X200735Y1600D01*
X200708D01*
X200569Y1684D01*
X200513Y1739D01*
X200458Y1906D01*
Y1933D01*
Y1961D01*
X200485Y2100D01*
X200513Y2128D01*
X200569Y2211D01*
X200652Y2239D01*
X200680Y2267D01*
X200708D01*
X200874Y2322D01*
X200958Y2350D01*
X200985D01*
X201124Y2406D01*
X201207Y2433D01*
X201263Y2461D01*
X201319Y2544D01*
Y2572D01*
X201291Y2628D01*
X201263Y2683D01*
X201235Y2711D01*
X201180Y2739D01*
X201096Y2767D01*
X200902D01*
X200819Y2739D01*
X200791Y2711D01*
X200763D01*
X200708Y2655D01*
X200680Y2600D01*
Y2544D01*
Y2517D01*
X200513D01*
X200541Y2683D01*
X200569Y2711D01*
Y2739D01*
X200680Y2850D01*
X200708Y2878D01*
X200735D01*
X200930Y2933D01*
X201013D01*
X201152Y2905D01*
D02*
G37*
G36*
X197347D02*
X197403Y2878D01*
X197431D01*
X197514Y2850D01*
X197542Y2794D01*
X197597Y2767D01*
Y2739D01*
X197653Y2628D01*
Y2600D01*
Y2572D01*
X197625Y2461D01*
X197597Y2406D01*
X197570Y2350D01*
X197514Y2294D01*
X197486Y2267D01*
X197459D01*
X197403Y2239D01*
X197320Y2211D01*
X197236Y2183D01*
X197209D01*
X197042Y2156D01*
X197014Y2128D01*
X196986D01*
X196875Y2072D01*
X196848Y2045D01*
X196820Y1989D01*
Y1961D01*
Y1933D01*
Y1850D01*
X196848Y1822D01*
X196931Y1767D01*
X196959Y1739D01*
X197098Y1711D01*
X197153D01*
X197292Y1739D01*
X197347D01*
X197403Y1795D01*
X197459Y1822D01*
X197486Y1850D01*
X197542Y1961D01*
Y2017D01*
X197708D01*
X197681Y1933D01*
X197653Y1850D01*
X197625Y1795D01*
Y1767D01*
X197570Y1684D01*
X197514Y1656D01*
X197459Y1600D01*
X197431D01*
X197347Y1572D01*
X197236Y1545D01*
X197125D01*
X196959Y1572D01*
X196903Y1600D01*
X196875D01*
X196737Y1684D01*
X196709Y1739D01*
X196653Y1906D01*
Y1933D01*
Y1961D01*
X196681Y2100D01*
X196709Y2128D01*
X196764Y2211D01*
X196820Y2239D01*
X196848Y2267D01*
X196875D01*
X197070Y2322D01*
X197125Y2350D01*
X197153D01*
X197292Y2406D01*
X197375Y2433D01*
X197431Y2461D01*
X197486Y2517D01*
Y2572D01*
X197459Y2628D01*
X197431Y2683D01*
X197403Y2711D01*
X197347Y2739D01*
X197264Y2767D01*
X197181D01*
X197014Y2739D01*
X196986Y2711D01*
X196959D01*
X196903Y2655D01*
X196875Y2600D01*
X196848Y2544D01*
Y2517D01*
X196681D01*
X196709Y2683D01*
X196737Y2711D01*
Y2739D01*
X196875Y2850D01*
X196903Y2878D01*
X196931D01*
X197098Y2933D01*
X197181D01*
X197347Y2905D01*
D02*
G37*
%LPC*%
G36*
X172827Y27537D02*
X171133D01*
Y27260D01*
X172827D01*
Y27537D01*
D02*
G37*
G36*
X173326Y27149D02*
Y26788D01*
X170660D01*
Y27093D01*
X170105Y27010D01*
X169605Y26899D01*
X169189Y26788D01*
X168856Y26621D01*
X168605Y26482D01*
X168411Y26288D01*
Y26177D01*
X174604Y26177D01*
Y26982D01*
X174215Y27065D01*
X173799Y27121D01*
X173326Y27149D01*
D02*
G37*
G36*
X175270Y27260D02*
X175076D01*
Y26621D01*
X175270D01*
Y27260D01*
D02*
G37*
G36*
X175742Y26649D02*
Y26177D01*
X176326D01*
Y26260D01*
X176187Y26399D01*
X176020Y26510D01*
X175742Y26649D01*
D02*
G37*
G36*
X167689Y26565D02*
X167661D01*
X167523Y26538D01*
X167439Y26454D01*
X167411Y26343D01*
Y26316D01*
X167439Y26177D01*
X167523Y26121D01*
X167634Y26093D01*
X167661D01*
X167800Y26121D01*
X167856Y26204D01*
X167884Y26288D01*
Y26316D01*
X167856Y26454D01*
X167772Y26538D01*
X167689Y26565D01*
D02*
G37*
G36*
X168245Y24427D02*
X167328D01*
Y23511D01*
X168245D01*
Y24427D01*
D02*
G37*
G36*
X172910Y22344D02*
X170411D01*
Y22178D01*
X172910D01*
Y22344D01*
D02*
G37*
G36*
X176242Y25316D02*
X168467Y25316D01*
X168522Y24899D01*
X168717D01*
Y24011D01*
X169883Y22817D01*
X173382D01*
Y21706D01*
X170966D01*
X172577Y20040D01*
X176103Y23705D01*
X176242Y25316D01*
D02*
G37*
G36*
X176020Y22928D02*
X172910Y19706D01*
X175465Y17068D01*
X176020Y22928D01*
D02*
G37*
G36*
X168717Y23316D02*
Y23039D01*
X168661D01*
X169217Y16568D01*
X172243Y19706D01*
X170299Y21706D01*
X169883D01*
Y22122D01*
X168717Y23316D01*
D02*
G37*
G36*
X172577Y19345D02*
X169272Y15929D01*
X169328Y15319D01*
X169550Y15346D01*
X169800Y15319D01*
X170105Y15235D01*
X170411Y15096D01*
X170633Y14930D01*
X170827Y14735D01*
X171021Y14458D01*
X171160Y14124D01*
X171244Y13763D01*
X171216Y13514D01*
X175131D01*
X175409Y16429D01*
X172577Y19345D01*
D02*
G37*
G36*
X169689Y14485D02*
X169550Y14485D01*
X169272Y14458D01*
X169078Y14347D01*
X168911Y14236D01*
X168828Y14069D01*
X168772Y13930D01*
X168717Y13791D01*
Y13680D01*
Y13652D01*
X168744Y13375D01*
X168856Y13180D01*
X168967Y13014D01*
X169133Y12930D01*
X169272Y12875D01*
X169411Y12847D01*
X169522Y12819D01*
X169550D01*
X169827Y12847D01*
X170022Y12958D01*
X170188Y13097D01*
X170272Y13236D01*
X170327Y13402D01*
X170355Y13514D01*
X170383Y13625D01*
Y13652D01*
X170355Y13930D01*
X170244Y14124D01*
X170105Y14291D01*
X169966Y14374D01*
X169800Y14430D01*
X169689Y14485D01*
D02*
G37*
G36*
X174965Y13014D02*
X174854D01*
Y12347D01*
X174965D01*
Y13014D01*
D02*
G37*
%LPD*%
G36*
X169744Y14180D02*
X169883Y14124D01*
X169966Y14041D01*
X170022Y13930D01*
X170105Y13736D01*
Y13680D01*
Y13652D01*
X170077Y13458D01*
X170022Y13319D01*
X169939Y13236D01*
X169827Y13180D01*
X169633Y13097D01*
X169550D01*
X169355Y13125D01*
X169217Y13180D01*
X169133Y13264D01*
X169050Y13375D01*
X168994Y13569D01*
Y13625D01*
Y13652D01*
X169022Y13847D01*
X169078Y13986D01*
X169161Y14069D01*
X169272Y14152D01*
X169466Y14208D01*
X169550D01*
X169744Y14180D01*
D02*
G37*
%LPC*%
G36*
X169578Y13736D02*
X169494D01*
X169466Y13708D01*
Y13680D01*
Y13652D01*
Y13597D01*
X169494Y13569D01*
X169550D01*
X169605Y13597D01*
X169633Y13625D01*
Y13652D01*
X169605Y13708D01*
X169578Y13736D01*
D02*
G37*
G36*
X244862Y25510D02*
X244806D01*
Y25482D01*
X244640D01*
X244501Y25427D01*
X244251Y25344D01*
X244084Y25232D01*
X244057Y25205D01*
X244029Y25177D01*
X243973Y25121D01*
X243918Y25094D01*
Y25066D01*
X243862Y24955D01*
X243834Y24927D01*
X243807D01*
X235864Y11153D01*
Y11125D01*
X235781Y10959D01*
X235726Y10820D01*
X235698Y10709D01*
Y10653D01*
Y10570D01*
Y10542D01*
X235726Y10320D01*
X235753Y10126D01*
X235809Y10014D01*
X235837Y9959D01*
X236059Y9709D01*
X236253Y9543D01*
X236420Y9459D01*
X236475Y9431D01*
X236586D01*
X236642Y9404D01*
X236836D01*
Y9376D01*
X252776D01*
X252943Y9404D01*
X253110Y9431D01*
X253360Y9543D01*
X253526Y9626D01*
X253554Y9681D01*
X253582D01*
X253665Y9792D01*
X253693Y9820D01*
X253748Y9904D01*
X253776Y9959D01*
X253804D01*
X253915Y10237D01*
X253943Y10487D01*
Y10598D01*
X253915Y10681D01*
Y10737D01*
Y10764D01*
X253887Y10903D01*
X253859Y10931D01*
X253832Y11042D01*
X253804Y11070D01*
Y11098D01*
Y11125D01*
X245834Y24899D01*
X245723Y25066D01*
X245612Y25177D01*
X245528Y25260D01*
X245501Y25288D01*
X245473D01*
X245445Y25316D01*
X245417Y25344D01*
X245195Y25455D01*
X245001Y25482D01*
X244862Y25510D01*
D02*
G37*
%LPD*%
G36*
X245945Y22178D02*
Y21928D01*
Y21734D01*
Y21539D01*
Y21400D01*
Y21317D01*
Y21289D01*
X245917Y20789D01*
Y20539D01*
Y20345D01*
Y20151D01*
Y20012D01*
Y19928D01*
Y19901D01*
X245889Y19679D01*
Y19540D01*
Y19456D01*
Y19429D01*
X245862Y19290D01*
Y19123D01*
X245834Y18984D01*
Y18957D01*
Y18929D01*
Y18901D01*
X245806Y18845D01*
Y18734D01*
X245778Y18623D01*
X245751Y18318D01*
X245723Y17985D01*
X245667Y17651D01*
X245639Y17346D01*
Y17235D01*
X245612Y17151D01*
Y17096D01*
Y17068D01*
X245584Y16763D01*
X245528Y16457D01*
X245501Y16235D01*
X245473Y16013D01*
X245445Y15819D01*
Y15680D01*
X245390Y15430D01*
Y15291D01*
X245362Y15207D01*
Y15152D01*
X244334D01*
X244307Y15207D01*
X244279Y15263D01*
X244223Y15485D01*
X244196Y15680D01*
Y15735D01*
Y15763D01*
X244168Y15957D01*
Y16096D01*
X244140Y16207D01*
Y16318D01*
Y16402D01*
Y16429D01*
X244084Y16846D01*
X244029Y17235D01*
X244001Y17596D01*
X243946Y17901D01*
X243918Y18151D01*
X243890Y18401D01*
X243862Y18596D01*
X243834Y18790D01*
Y18929D01*
X243807Y19040D01*
X243779Y19234D01*
Y19318D01*
Y19345D01*
X243751Y19540D01*
Y19679D01*
X243723Y19790D01*
Y19873D01*
X243696Y19928D01*
Y19956D01*
Y20456D01*
Y20678D01*
Y20873D01*
Y21039D01*
Y21178D01*
Y21261D01*
Y21289D01*
Y21789D01*
Y22039D01*
Y22233D01*
Y22428D01*
Y22567D01*
Y22650D01*
Y22678D01*
X245945D01*
Y22178D01*
D02*
G37*
G36*
Y13875D02*
Y13541D01*
Y13402D01*
Y13291D01*
Y13236D01*
Y13208D01*
Y12847D01*
Y12514D01*
Y12403D01*
Y12292D01*
Y12236D01*
Y12208D01*
X243834D01*
Y12569D01*
Y12903D01*
Y13014D01*
Y13125D01*
Y13180D01*
Y13208D01*
Y13597D01*
Y13930D01*
Y14069D01*
Y14180D01*
Y14236D01*
Y14263D01*
X245945D01*
Y13875D01*
D02*
G37*
%LPC*%
G36*
X219036Y25510D02*
X218980D01*
Y25482D01*
X218814D01*
X218675Y25427D01*
X218425Y25344D01*
X218258Y25232D01*
X218231Y25205D01*
X218203Y25177D01*
X218120Y25094D01*
X218092Y25066D01*
X218036Y24983D01*
X218008Y24955D01*
Y24927D01*
X210038Y11153D01*
Y11125D01*
X209955Y10959D01*
X209899Y10820D01*
X209872Y10709D01*
Y10653D01*
Y10570D01*
Y10542D01*
X209899Y10320D01*
X209927Y10126D01*
X209983Y10014D01*
X210011Y9959D01*
X210233Y9709D01*
X210427Y9542D01*
X210594Y9459D01*
X210649Y9431D01*
X210677D01*
X210649Y9459D01*
X210705Y9431D01*
X210788Y9404D01*
X211010D01*
Y9376D01*
X226950Y9376D01*
X227117Y9404D01*
X227284Y9431D01*
X227534Y9543D01*
X227700Y9626D01*
X227728Y9681D01*
X227756D01*
X227839Y9792D01*
X227867Y9820D01*
X227950Y9904D01*
X227978Y9959D01*
X228033Y10098D01*
X228089Y10237D01*
X228117Y10514D01*
Y10626D01*
X228089Y10681D01*
Y10737D01*
Y10764D01*
X228061Y10875D01*
X228033Y10903D01*
Y10931D01*
X228006Y11042D01*
X227978Y11070D01*
Y11098D01*
Y11125D01*
X220008Y24899D01*
X219897Y25066D01*
X219786Y25177D01*
X219702Y25260D01*
X219675Y25288D01*
X219619D01*
X219591Y25316D01*
Y25344D01*
X219369Y25455D01*
X219175Y25482D01*
X219036Y25510D01*
D02*
G37*
%LPD*%
G36*
X219758Y23872D02*
X222340Y14958D01*
X218314Y16929D01*
X219564Y12181D01*
X220424Y12847D01*
X220008Y10181D01*
X218092Y12403D01*
X219258Y12125D01*
X216065Y18734D01*
X221285Y16041D01*
X217869Y23927D01*
X219758Y23872D01*
D02*
G37*
%LPC*%
G36*
X193210Y25510D02*
X193154D01*
Y25482D01*
X192988D01*
X192849Y25427D01*
X192599Y25344D01*
X192432Y25232D01*
X192404Y25205D01*
X192377Y25177D01*
X192321Y25121D01*
X192266Y25094D01*
Y25066D01*
X192210Y24955D01*
X192182Y24927D01*
X192155D01*
X189433Y20206D01*
X190377Y19817D01*
X190683Y19734D01*
X190933Y19679D01*
X191044Y19651D01*
X191544D01*
X191794Y19679D01*
X192293D01*
X192432Y19706D01*
X192765D01*
X193043Y19679D01*
X193293Y19651D01*
X193488Y19623D01*
X193654Y19595D01*
X193793Y19540D01*
X193876Y19512D01*
X193904D01*
X194126Y19429D01*
X194348Y19318D01*
X194765Y19068D01*
X194959Y18957D01*
X195098Y18873D01*
X195181Y18818D01*
X195209Y18790D01*
X195292Y18734D01*
X195431Y18651D01*
X195542Y18568D01*
X195570Y18540D01*
X195598D01*
X195681Y18484D01*
X195709Y18457D01*
X195737D01*
X195820Y18401D01*
X195848Y18373D01*
X196042Y18262D01*
X196181Y18151D01*
X196292Y18096D01*
X196320Y18068D01*
X196487Y17929D01*
X196625Y17818D01*
X196681Y17735D01*
X196709Y17707D01*
X197931Y18401D01*
X194182Y24899D01*
X194071Y25066D01*
X193959Y25177D01*
X193876Y25260D01*
X193849Y25288D01*
X193821D01*
X193793Y25316D01*
X193765Y25344D01*
X193543Y25455D01*
X193349Y25482D01*
X193210Y25510D01*
D02*
G37*
G36*
X189294Y19928D02*
X187683Y17151D01*
X187822Y17040D01*
X187878Y17013D01*
X187906Y16985D01*
X188045Y16818D01*
X188156Y16679D01*
X188239Y16568D01*
X188267Y16513D01*
X188350Y16318D01*
X188406Y16152D01*
X188461Y15985D01*
X188489Y15957D01*
Y15930D01*
X188600Y15680D01*
X188683Y15513D01*
X188711Y15430D01*
X188739Y15402D01*
X188850Y15263D01*
X188878Y15235D01*
X188905Y15207D01*
X189044Y15041D01*
X189072Y15013D01*
X189100Y14985D01*
X189377Y14735D01*
X189627Y14513D01*
X189850Y14347D01*
X190044Y14236D01*
X190211Y14152D01*
X190322Y14097D01*
X190405Y14069D01*
X190433D01*
X196431Y17540D01*
X196320Y17651D01*
X196237Y17735D01*
X196153Y17790D01*
X196126Y17818D01*
X195959Y17929D01*
X195820Y18040D01*
X195709Y18096D01*
X195681Y18123D01*
X195570Y18207D01*
X195487Y18235D01*
X195431Y18262D01*
X195237Y18401D01*
X195126Y18484D01*
X195043Y18512D01*
X195015Y18540D01*
X194765Y18707D01*
X194543Y18873D01*
X194321Y18984D01*
X194154Y19068D01*
X193987Y19151D01*
X193876Y19206D01*
X193821Y19234D01*
X193793D01*
X193376Y19318D01*
X192960Y19373D01*
X192099D01*
X191738Y19345D01*
X191460Y19318D01*
X191155D01*
X190822Y19373D01*
X190544Y19429D01*
X190433Y19484D01*
X190349Y19512D01*
X190294Y19540D01*
X190266D01*
X189294Y19928D01*
D02*
G37*
G36*
X193598Y14819D02*
X192849Y14402D01*
X193015Y14263D01*
X193182Y14124D01*
X193321Y14041D01*
X193349Y13986D01*
X193376D01*
X193432Y14069D01*
X193488Y14180D01*
X193515Y14263D01*
X193543Y14291D01*
X193571Y14347D01*
Y14374D01*
X193626Y14541D01*
Y14597D01*
Y14624D01*
Y14680D01*
X193598Y14735D01*
Y14791D01*
Y14819D01*
D02*
G37*
G36*
X194404Y15291D02*
X193876Y14985D01*
X193904Y14846D01*
X193932Y14708D01*
Y14624D01*
Y14597D01*
X193904Y14458D01*
X193876Y14347D01*
X193849Y14263D01*
Y14236D01*
X193821Y14180D01*
X193737Y14013D01*
X193654Y13875D01*
X193626Y13819D01*
X193598Y13791D01*
X193793Y13625D01*
X193959Y13458D01*
X194071Y13347D01*
X194126Y13291D01*
X194154Y13264D01*
X194182Y13236D01*
X194210Y13208D01*
Y13180D01*
X194321Y13347D01*
X194376Y13486D01*
X194432Y13569D01*
Y13597D01*
X194459Y13652D01*
X194487Y13708D01*
X194515Y13791D01*
Y13819D01*
X194543Y13958D01*
X194571Y14097D01*
Y14208D01*
Y14263D01*
Y14291D01*
Y14347D01*
Y14513D01*
Y14680D01*
Y14735D01*
Y14763D01*
Y14874D01*
X194543Y14985D01*
Y15041D01*
Y15069D01*
X194459Y15235D01*
X194404Y15263D01*
Y15291D01*
D02*
G37*
G36*
X195154Y15707D02*
X194682Y15458D01*
X194793Y15263D01*
X194848Y15180D01*
Y15152D01*
X194876Y15013D01*
Y14902D01*
Y14791D01*
Y14763D01*
Y14569D01*
Y14513D01*
Y14485D01*
Y14347D01*
Y14291D01*
Y14263D01*
Y14041D01*
X194848Y13875D01*
X194820Y13791D01*
Y13763D01*
Y13736D01*
X194793Y13652D01*
Y13625D01*
Y13597D01*
X194765D01*
X194737Y13541D01*
X194709Y13486D01*
Y13458D01*
X194626Y13264D01*
X194515Y13097D01*
X194459Y12986D01*
X194432Y12930D01*
X194571Y12708D01*
X194654Y12542D01*
X194709Y12431D01*
X194737Y12375D01*
X194848Y12431D01*
X194876Y12486D01*
X194904D01*
X195015Y12542D01*
X195070Y12597D01*
X195098Y12625D01*
X195154Y12680D01*
X195181Y12708D01*
X195209D01*
X195265Y12764D01*
X195320Y12791D01*
X195348Y12819D01*
X195376D01*
X195404Y12847D01*
Y12903D01*
Y13125D01*
X195376Y13319D01*
X195348Y13430D01*
Y13486D01*
Y13569D01*
Y13652D01*
X195404Y13902D01*
X195431Y14013D01*
X195459Y14097D01*
X195487Y14152D01*
Y14180D01*
X195542Y14347D01*
X195570Y14485D01*
X195598Y14652D01*
Y14763D01*
Y14791D01*
X195570Y14902D01*
X195487Y15041D01*
X195431Y15152D01*
X195404Y15180D01*
X195265Y15402D01*
X195181Y15568D01*
X195154Y15680D01*
Y15707D01*
D02*
G37*
G36*
X191710Y12958D02*
X191682D01*
X191627Y12903D01*
X191488Y12791D01*
X191405Y12680D01*
X191349Y12653D01*
Y12625D01*
Y12597D01*
X191321D01*
Y12569D01*
X191266Y12514D01*
Y12458D01*
Y12431D01*
Y12403D01*
Y12347D01*
X191294Y12264D01*
X191321Y12181D01*
Y12153D01*
Y12125D01*
X191405Y12070D01*
X191516Y12042D01*
X191655D01*
X191877Y12070D01*
X192043Y12097D01*
X192155Y12125D01*
X192210D01*
X192349Y12208D01*
X192377Y12236D01*
X192404D01*
Y12264D01*
X192377Y12292D01*
Y12319D01*
X192266Y12486D01*
X192155Y12625D01*
X192071Y12708D01*
X192043Y12736D01*
X191960Y12791D01*
X191849Y12875D01*
X191738Y12930D01*
X191710Y12958D01*
D02*
G37*
G36*
X197014Y16818D02*
X195431Y15902D01*
X195459Y15735D01*
X195542Y15541D01*
X195626Y15402D01*
X195653Y15374D01*
Y15346D01*
X195792Y15152D01*
X195876Y14985D01*
X195931Y14874D01*
Y14846D01*
Y14763D01*
X195903Y14624D01*
X195848Y14374D01*
X195820Y14263D01*
X195792Y14152D01*
X195765Y14097D01*
Y14069D01*
X195709Y13930D01*
X195681Y13819D01*
X195653Y13652D01*
Y13597D01*
Y13569D01*
X195709Y13319D01*
Y13125D01*
Y12958D01*
Y12930D01*
Y12903D01*
Y12819D01*
Y12791D01*
X195681Y12736D01*
Y12708D01*
X195653Y12625D01*
Y12569D01*
X195626Y12542D01*
X195598Y12431D01*
Y12375D01*
X195570Y12347D01*
X195487Y12070D01*
X195431Y11847D01*
X195376Y11653D01*
Y11514D01*
X195348Y11431D01*
Y11375D01*
Y11320D01*
X195404Y11125D01*
X195487Y10987D01*
X195570Y10875D01*
X195598Y10848D01*
X195653Y10820D01*
X195681Y10792D01*
Y10820D01*
Y10875D01*
Y10903D01*
Y10931D01*
Y11042D01*
Y11098D01*
X195765Y11292D01*
X195792Y11348D01*
X195820Y11375D01*
X195876Y11431D01*
X195903Y11486D01*
X196014Y11625D01*
X196098Y11736D01*
X196209Y11792D01*
X196320Y11847D01*
X196487Y11903D01*
X196653D01*
X196681Y11875D01*
X196737D01*
X196792Y11986D01*
X196820Y12097D01*
X196848Y12208D01*
X196875Y12236D01*
X196959Y12431D01*
X197042Y12597D01*
X197070Y12708D01*
X197098Y12764D01*
X197153Y12986D01*
X197181Y13180D01*
X197209Y13375D01*
Y13402D01*
Y13430D01*
X197264Y13791D01*
X197320Y14041D01*
X197347Y14180D01*
Y14236D01*
Y14263D01*
X197375Y14347D01*
X197403Y14430D01*
X197431Y14513D01*
Y14541D01*
X197486Y14763D01*
X197542Y14958D01*
Y15096D01*
X197570Y15235D01*
Y15319D01*
X197542Y15374D01*
Y15430D01*
X197486Y15568D01*
X197431Y15763D01*
X197347Y15930D01*
X197320Y15957D01*
Y15985D01*
X197153Y16318D01*
X197070Y16596D01*
X197014Y16763D01*
Y16790D01*
Y16818D01*
D02*
G37*
G36*
X192543Y14236D02*
X191405Y13569D01*
X191544Y13458D01*
X191682Y13347D01*
X191821Y13236D01*
X191849Y13208D01*
X191877D01*
X192043Y13097D01*
X192155Y13014D01*
X192210Y12958D01*
X192238D01*
X192404Y12791D01*
X192543Y12625D01*
X192627Y12514D01*
X192654Y12486D01*
Y12458D01*
X192710Y12347D01*
X192738Y12236D01*
X192765Y12208D01*
Y12181D01*
X192793Y12097D01*
X192821Y12070D01*
Y12042D01*
X192988Y12097D01*
X193071D01*
X193182Y12125D01*
X193210Y12153D01*
X193598D01*
X193765Y12125D01*
X193821D01*
X193876Y12097D01*
X193904D01*
X193932Y12070D01*
X194015D01*
X194043Y12042D01*
X194071D01*
X194237Y11958D01*
X194376Y11875D01*
X194459Y11820D01*
X194487Y11792D01*
X194515Y11764D01*
X194543Y11709D01*
X194567Y11684D01*
X194571Y11653D01*
Y11681D01*
X194567Y11684D01*
X194543Y11903D01*
X194459Y12153D01*
X194348Y12403D01*
X194210Y12625D01*
X194098Y12819D01*
X193987Y12958D01*
X193904Y13069D01*
X193876Y13097D01*
X193654Y13347D01*
X193432Y13541D01*
X193265Y13680D01*
X193237Y13736D01*
X193210D01*
X192932Y13930D01*
X192738Y14097D01*
X192599Y14208D01*
X192543Y14236D01*
D02*
G37*
G36*
X192516Y11931D02*
X192460Y11903D01*
X192377Y11875D01*
X192321Y11847D01*
X192293D01*
X192266Y11820D01*
X192210D01*
X192182Y11792D01*
X192155D01*
X192071Y11653D01*
Y11542D01*
Y11459D01*
Y11431D01*
Y11375D01*
X192099Y11348D01*
Y11292D01*
X192127Y11264D01*
X192155D01*
X192238Y11209D01*
X192321Y11181D01*
X192432D01*
X192571Y11209D01*
X192682Y11236D01*
X192738Y11264D01*
X192765Y11292D01*
X192654Y11486D01*
X192599Y11653D01*
X192543Y11764D01*
Y11792D01*
X192516Y11903D01*
Y11931D01*
D02*
G37*
G36*
X193321Y12014D02*
X193237D01*
X193071Y11958D01*
X192932Y11931D01*
X192877Y11903D01*
X192849Y11875D01*
X192904Y11709D01*
X192988Y11542D01*
X193099Y11403D01*
X193126Y11375D01*
Y11348D01*
X193293Y11125D01*
X193404Y11014D01*
X193488Y10931D01*
X193515Y10903D01*
X193598Y10848D01*
X193654Y10820D01*
X193710Y10792D01*
X193821Y10737D01*
X194154D01*
X194265Y10764D01*
X194321Y10792D01*
X194376Y10820D01*
X194459Y10931D01*
X194515Y11070D01*
X194571Y11181D01*
Y11236D01*
X194543Y11375D01*
X194515Y11403D01*
X194459Y11542D01*
X194404Y11625D01*
X194376Y11681D01*
X194265Y11764D01*
X194154Y11847D01*
X194071Y11875D01*
X194043Y11903D01*
X193987D01*
X193959Y11931D01*
X193849D01*
X193737Y11958D01*
X193598Y11986D01*
X193488D01*
X193321Y12014D01*
D02*
G37*
G36*
X196570Y11764D02*
X196431D01*
X196348Y11709D01*
X196181Y11597D01*
X196070Y11486D01*
X196042Y11459D01*
Y11431D01*
X196014Y11375D01*
X195987Y11348D01*
X195959Y11320D01*
Y11292D01*
X195876Y11125D01*
X195848Y11070D01*
Y11042D01*
X195820Y11014D01*
Y10987D01*
Y10959D01*
Y10931D01*
Y10848D01*
X195848Y10820D01*
Y10792D01*
Y10737D01*
Y10709D01*
X195876Y10681D01*
X195987D01*
X196126Y10737D01*
X196237Y10792D01*
X196292Y10848D01*
X196320Y10875D01*
X196376Y10959D01*
X196431Y11070D01*
X196542Y11320D01*
X196570Y11431D01*
X196625Y11542D01*
X196653Y11597D01*
Y11625D01*
X196681Y11736D01*
X196653D01*
X196570Y11764D01*
D02*
G37*
G36*
X198403Y17596D02*
X197320Y16985D01*
X197375Y16707D01*
X197459Y16402D01*
X197514Y16291D01*
X197570Y16180D01*
X197597Y16124D01*
Y16096D01*
X197708Y15846D01*
X197792Y15652D01*
X197847Y15541D01*
Y15513D01*
X197875Y15374D01*
Y15207D01*
X197820Y14874D01*
X197792Y14708D01*
X197764Y14569D01*
X197736Y14485D01*
Y14458D01*
X197708Y14347D01*
X197681Y14236D01*
X197653Y14208D01*
Y14180D01*
Y14152D01*
X197597Y13930D01*
X197570Y13680D01*
X197542Y13569D01*
X197514Y13486D01*
Y13430D01*
Y13402D01*
X197486Y13208D01*
X197459Y13041D01*
Y12930D01*
X197431Y12819D01*
X197375Y12680D01*
Y12653D01*
X197320Y12486D01*
X197264Y12319D01*
X197209Y12153D01*
X197181Y12125D01*
Y12097D01*
X197125Y11958D01*
X197070Y11875D01*
X197014Y11736D01*
X196986Y11681D01*
Y11653D01*
Y11625D01*
X196959Y11597D01*
Y11570D01*
Y11542D01*
X196875Y11320D01*
X196792Y11125D01*
X196737Y10987D01*
X196653Y10875D01*
X196625Y10792D01*
X196570Y10737D01*
X196542Y10681D01*
X196376Y10514D01*
X196181Y10431D01*
X196070Y10375D01*
X195903D01*
X195792Y10403D01*
X195709Y10431D01*
X195681D01*
X195487Y10542D01*
X195431Y10570D01*
X195404Y10598D01*
X195292Y10709D01*
X195209Y10820D01*
X195098Y11042D01*
X195043Y11236D01*
Y11264D01*
Y11292D01*
Y11403D01*
X195070Y11570D01*
X195126Y11903D01*
X195154Y12070D01*
X195209Y12208D01*
X195237Y12292D01*
Y12319D01*
X195126Y12264D01*
X195098Y12236D01*
X195070Y12208D01*
X194931Y12125D01*
X194876Y12070D01*
X194848Y12042D01*
X194876Y11875D01*
X194904Y11736D01*
Y11625D01*
Y11597D01*
Y11570D01*
Y11542D01*
Y11514D01*
X194876Y11292D01*
X194848Y11125D01*
X194793Y10959D01*
X194737Y10820D01*
X194682Y10737D01*
X194626Y10653D01*
X194571Y10626D01*
Y10598D01*
X194459Y10514D01*
X194321Y10459D01*
X194210Y10431D01*
X193849D01*
X193654Y10487D01*
X193598Y10514D01*
X193571D01*
X193460Y10570D01*
X193376Y10598D01*
X193349Y10653D01*
X193321D01*
X193182Y10764D01*
X193071Y10903D01*
X192988Y11014D01*
X192960Y11042D01*
X192793Y10931D01*
X192627Y10875D01*
X192516Y10848D01*
X192460D01*
X192238Y10875D01*
X192071Y10931D01*
X191960Y11014D01*
X191932Y11042D01*
X191905Y11070D01*
X191877Y11098D01*
X191821Y11153D01*
X191794Y11209D01*
X191766Y11292D01*
Y11320D01*
Y11348D01*
X191738Y11486D01*
Y11625D01*
X191766Y11709D01*
Y11736D01*
X191627D01*
X191377Y11764D01*
X191210Y11847D01*
X191099Y11903D01*
X191071Y11931D01*
X191044Y12014D01*
X191016Y12042D01*
X190988Y12181D01*
X190960Y12292D01*
X190933Y12375D01*
Y12403D01*
X190960Y12542D01*
X190988Y12680D01*
X191044Y12764D01*
X191071Y12791D01*
X191099Y12819D01*
X191238Y12958D01*
X191349Y13069D01*
X191405Y13097D01*
X191432Y13125D01*
X191321Y13236D01*
X191210Y13319D01*
X191155Y13375D01*
X191127Y13402D01*
X184546Y9598D01*
X184740Y9487D01*
X184823Y9431D01*
X184934D01*
X184990Y9404D01*
X185184D01*
Y9376D01*
X201124D01*
X201291Y9404D01*
X201457Y9431D01*
X201707Y9542D01*
X201874Y9626D01*
X201902Y9681D01*
X201929D01*
X202013Y9792D01*
X202041Y9820D01*
X202096Y9904D01*
X202124Y9959D01*
X202152D01*
X202263Y10237D01*
X202291Y10487D01*
Y10598D01*
X202263Y10681D01*
Y10737D01*
Y10764D01*
X202235Y10903D01*
X202207Y10931D01*
X202180Y11042D01*
X202152Y11070D01*
Y11098D01*
Y11125D01*
X198403Y17596D01*
D02*
G37*
G36*
X187545Y16902D02*
X187517D01*
X184212Y11153D01*
Y11125D01*
X184129Y10959D01*
X184073Y10820D01*
X184046Y10709D01*
Y10653D01*
Y10570D01*
Y10542D01*
Y10431D01*
Y10375D01*
X190072Y13875D01*
X189877Y13986D01*
X189655Y14124D01*
X189266Y14402D01*
X189128Y14541D01*
X188989Y14652D01*
X188905Y14735D01*
X188878Y14763D01*
X188739Y14930D01*
X188683Y14985D01*
X188655Y15013D01*
X188544Y15152D01*
X188489Y15207D01*
Y15235D01*
X188378Y15402D01*
X188294Y15596D01*
X188239Y15763D01*
X188211Y15791D01*
Y15819D01*
X188128Y16068D01*
X188045Y16235D01*
X188017Y16318D01*
X187989Y16346D01*
X187878Y16541D01*
X187767Y16652D01*
X187711Y16735D01*
X187683Y16763D01*
X187573Y16846D01*
X187545Y16902D01*
D02*
G37*
G36*
X149056Y25510D02*
X149000D01*
Y25482D01*
X148833D01*
X148695Y25427D01*
X148444Y25344D01*
X148278Y25232D01*
X148250Y25205D01*
X148222Y25177D01*
X148167Y25121D01*
X148111Y25094D01*
Y25066D01*
X148056Y24955D01*
X148028Y24927D01*
X148000D01*
X140058Y11153D01*
Y11125D01*
X139975Y10959D01*
X139919Y10820D01*
X139891Y10709D01*
Y10653D01*
Y10570D01*
Y10542D01*
X139919Y10320D01*
X139947Y10126D01*
X140002Y10014D01*
X140030Y9959D01*
X140252Y9709D01*
X140447Y9542D01*
X140613Y9459D01*
X140669Y9431D01*
X140780D01*
X140835Y9404D01*
X141030D01*
Y9376D01*
X156970D01*
X157136Y9404D01*
X157303Y9431D01*
X157553Y9542D01*
X157720Y9626D01*
X157747Y9681D01*
X157775D01*
X157859Y9792D01*
X157886Y9820D01*
X157942Y9903D01*
X157970Y9959D01*
X157997D01*
X158108Y10237D01*
X158136Y10487D01*
Y10598D01*
X158108Y10681D01*
Y10736D01*
Y10764D01*
X158081Y10903D01*
X158053Y10931D01*
X158025Y11042D01*
X157997Y11070D01*
Y11098D01*
Y11125D01*
X150027Y24899D01*
X149916Y25066D01*
X149805Y25177D01*
X149722Y25260D01*
X149694Y25288D01*
X149666D01*
X149639Y25316D01*
X149611Y25344D01*
X149389Y25455D01*
X149194Y25482D01*
X149056Y25510D01*
D02*
G37*
%LPD*%
G36*
X150555Y21039D02*
X150722Y20900D01*
X150805Y20817D01*
X150861Y20762D01*
X150999Y20595D01*
X151110Y20456D01*
X151194Y20345D01*
X151222Y20289D01*
X151360Y20040D01*
X151471Y19762D01*
X151583Y19512D01*
X151638Y19290D01*
X151694Y19095D01*
X151721Y18929D01*
X151749Y18818D01*
Y18790D01*
X151777Y18484D01*
X151749Y18179D01*
X151694Y17901D01*
X151638Y17651D01*
X151583Y17429D01*
X151499Y17263D01*
X151471Y17151D01*
X151444Y17124D01*
X151333Y16902D01*
X151194Y16679D01*
X151083Y16513D01*
X151027Y16485D01*
Y16457D01*
X150888Y16235D01*
X150749Y16041D01*
X150666Y15846D01*
X150611Y15680D01*
X150555Y15541D01*
Y15430D01*
X150527Y15374D01*
Y15346D01*
Y15180D01*
Y15152D01*
Y15124D01*
Y14985D01*
X150555Y14930D01*
Y14902D01*
X150611Y14652D01*
X150666Y14485D01*
X150722Y14319D01*
X150777Y14236D01*
X150861Y14152D01*
X150888Y14124D01*
X150944Y14097D01*
X150749Y13514D01*
X150527Y13625D01*
X150361Y13791D01*
X150222Y14013D01*
X150111Y14236D01*
X150027Y14458D01*
X149972Y14652D01*
X149944Y14763D01*
Y14819D01*
X149916Y14902D01*
Y15013D01*
Y15096D01*
Y15124D01*
Y15207D01*
Y15291D01*
Y15374D01*
Y15402D01*
X149972Y15763D01*
X150055Y16013D01*
X150138Y16180D01*
X150166Y16235D01*
X150305Y16457D01*
X150416Y16652D01*
X150499Y16790D01*
X150527Y16846D01*
X150694Y17096D01*
X150805Y17263D01*
X150861Y17374D01*
X150888Y17401D01*
X150999Y17651D01*
X151055Y17873D01*
X151138Y18346D01*
X151110Y18762D01*
X151027Y19151D01*
X150916Y19456D01*
X150805Y19706D01*
X150722Y19873D01*
X150694Y19928D01*
X150583Y20095D01*
X150499Y20234D01*
X150416Y20317D01*
X150388Y20345D01*
X150277Y20456D01*
X150166Y20567D01*
X150083Y20623D01*
X150055Y20650D01*
X150027D01*
X150250Y20928D01*
X150416Y21150D01*
X150555Y21039D01*
D02*
G37*
G36*
X149028Y21011D02*
X149167Y20900D01*
X149278Y20789D01*
X149305Y20762D01*
X149444Y20595D01*
X149555Y20456D01*
X149639Y20345D01*
X149666Y20289D01*
X149916Y19762D01*
X150027Y19512D01*
X150111Y19290D01*
X150166Y19095D01*
X150194Y18929D01*
X150222Y18818D01*
Y18790D01*
X150250Y18484D01*
X150222Y18179D01*
X150166Y17901D01*
X150083Y17651D01*
X150027Y17429D01*
X149944Y17263D01*
X149916Y17151D01*
X149889Y17124D01*
X149777Y16929D01*
X149639Y16707D01*
X149528Y16541D01*
X149472Y16485D01*
Y16457D01*
X149333Y16235D01*
X149222Y16041D01*
X149139Y15846D01*
X149056Y15680D01*
X149028Y15541D01*
X149000Y15430D01*
Y15374D01*
Y15346D01*
Y15207D01*
Y15152D01*
Y15124D01*
Y14985D01*
Y14930D01*
Y14902D01*
X149056Y14652D01*
X149111Y14485D01*
X149167Y14319D01*
X149222Y14236D01*
X149305Y14152D01*
X149333Y14124D01*
X149389Y14097D01*
X149194Y13514D01*
X148972Y13625D01*
X148805Y13791D01*
X148667Y14013D01*
X148556Y14236D01*
X148472Y14458D01*
X148417Y14652D01*
X148389Y14763D01*
Y14819D01*
Y14902D01*
X148361Y15013D01*
Y15096D01*
Y15124D01*
Y15263D01*
Y15346D01*
Y15374D01*
Y15402D01*
X148417Y15763D01*
X148500Y16013D01*
X148583Y16180D01*
X148611Y16235D01*
X148750Y16457D01*
X148861Y16652D01*
X148944Y16790D01*
X148972Y16846D01*
X149139Y17068D01*
X149250Y17263D01*
X149305Y17374D01*
X149333Y17401D01*
X149444Y17651D01*
X149500Y17873D01*
X149583Y18346D01*
X149555Y18762D01*
X149472Y19151D01*
X149361Y19456D01*
X149250Y19706D01*
X149167Y19873D01*
X149139Y19928D01*
X149028Y20095D01*
X148944Y20234D01*
X148889Y20317D01*
X148861Y20345D01*
X148722Y20456D01*
X148611Y20567D01*
X148528Y20623D01*
X148500Y20650D01*
X148695Y20928D01*
X148861Y21150D01*
X149028Y21011D01*
D02*
G37*
G36*
X147473D02*
X147611Y20873D01*
X147722Y20789D01*
X147750Y20762D01*
X147889Y20595D01*
X148000Y20456D01*
X148083Y20345D01*
X148111Y20289D01*
X148250Y20040D01*
X148389Y19762D01*
X148472Y19512D01*
X148556Y19290D01*
X148611Y19095D01*
X148639Y18929D01*
X148667Y18818D01*
Y18790D01*
X148695Y18484D01*
X148667Y18179D01*
X148611Y17901D01*
X148556Y17651D01*
X148500Y17429D01*
X148417Y17263D01*
X148389Y17151D01*
X148361Y17124D01*
X148250Y16902D01*
X148111Y16679D01*
X148000Y16513D01*
X147945Y16485D01*
Y16457D01*
X147806Y16235D01*
X147667Y16041D01*
X147584Y15846D01*
X147528Y15680D01*
X147473Y15541D01*
Y15430D01*
X147445Y15374D01*
Y15346D01*
Y15291D01*
Y15207D01*
Y15152D01*
Y15124D01*
Y15069D01*
Y14985D01*
Y14930D01*
Y14902D01*
X147500Y14652D01*
X147556Y14485D01*
X147639Y14319D01*
X147695Y14236D01*
X147750Y14152D01*
X147778Y14124D01*
X147834Y14097D01*
X147639Y13514D01*
X147417Y13625D01*
X147250Y13791D01*
X147112Y14013D01*
X147001Y14236D01*
X146945Y14458D01*
X146889Y14652D01*
X146862Y14763D01*
Y14819D01*
X146834Y14902D01*
Y15013D01*
Y15096D01*
Y15124D01*
Y15319D01*
Y15374D01*
Y15402D01*
X146889Y15763D01*
X146945Y16013D01*
X147028Y16180D01*
X147056Y16235D01*
X147195Y16457D01*
X147306Y16652D01*
X147417Y16790D01*
X147445Y16846D01*
X147611Y17096D01*
X147722Y17263D01*
X147778Y17374D01*
X147806Y17401D01*
X147917Y17651D01*
X147972Y17873D01*
X148056Y18346D01*
X148028Y18762D01*
X147945Y19151D01*
X147834Y19456D01*
X147722Y19706D01*
X147639Y19873D01*
X147611Y19928D01*
X147500Y20095D01*
X147389Y20234D01*
X147334Y20317D01*
X147306Y20345D01*
X147167Y20484D01*
X147056Y20567D01*
X146973Y20623D01*
X146945Y20650D01*
X147167Y20928D01*
X147306Y21150D01*
X147473Y21011D01*
D02*
G37*
G36*
X153665Y12014D02*
X144362D01*
Y12791D01*
X153665D01*
Y12014D01*
D02*
G37*
%LPC*%
G36*
X253859Y7487D02*
X253804Y7293D01*
X253748Y7126D01*
X253693Y6988D01*
X253665Y6960D01*
Y6932D01*
X253387Y6210D01*
X254304D01*
X253998Y6988D01*
X253943Y7182D01*
X253887Y7321D01*
X253859Y7432D01*
Y7487D01*
D02*
G37*
G36*
X202207Y7487D02*
X202152Y7293D01*
X202096Y7126D01*
X202041Y6988D01*
X202013Y6960D01*
Y6932D01*
X201735Y6210D01*
X202652D01*
X202346Y6988D01*
X202291Y7182D01*
X202235Y7321D01*
X202207Y7432D01*
Y7487D01*
D02*
G37*
G36*
X158053Y7487D02*
X157997Y7293D01*
X157942Y7126D01*
X157886Y6988D01*
X157859Y6960D01*
Y6932D01*
X157581Y6210D01*
X158497D01*
X158192Y6988D01*
X158136Y7182D01*
X158081Y7321D01*
X158053Y7432D01*
Y7487D01*
D02*
G37*
G36*
X238447Y7515D02*
X238392D01*
X238225Y7487D01*
X238058Y7460D01*
X237947Y7404D01*
X237919Y7376D01*
X237781Y7265D01*
X237669Y7126D01*
X237614Y7043D01*
X237586Y6988D01*
X237531Y6793D01*
X237475Y6627D01*
Y6488D01*
Y6460D01*
Y6432D01*
X237531Y6099D01*
X237614Y5849D01*
X237697Y5682D01*
X237753Y5655D01*
Y5627D01*
X237947Y5460D01*
X238169Y5377D01*
X238336Y5349D01*
X238392D01*
X238669Y5405D01*
X238864Y5488D01*
X239002Y5571D01*
X239058Y5627D01*
X239197Y5877D01*
X239280Y6127D01*
Y6238D01*
X239308Y6321D01*
Y6377D01*
Y6404D01*
Y6599D01*
X239252Y6793D01*
X239225Y6932D01*
X239169Y7043D01*
X239086Y7210D01*
X239030Y7265D01*
X238836Y7404D01*
X238614Y7487D01*
X238447Y7515D01*
D02*
G37*
G36*
X186795Y7515D02*
X186739D01*
X186573Y7487D01*
X186406Y7460D01*
X186295Y7404D01*
X186267Y7376D01*
X186128Y7265D01*
X186017Y7126D01*
X185962Y7043D01*
X185934Y6988D01*
X185879Y6793D01*
X185823Y6627D01*
Y6488D01*
Y6460D01*
Y6432D01*
X185879Y6099D01*
X185962Y5849D01*
X186045Y5682D01*
X186101Y5655D01*
Y5627D01*
X186295Y5460D01*
X186517Y5377D01*
X186684Y5349D01*
X186739D01*
X187017Y5405D01*
X187211Y5488D01*
X187350Y5571D01*
X187406Y5627D01*
X187545Y5877D01*
X187628Y6127D01*
Y6238D01*
X187656Y6321D01*
Y6377D01*
Y6404D01*
Y6599D01*
X187600Y6793D01*
X187573Y6932D01*
X187517Y7043D01*
X187434Y7210D01*
X187378Y7265D01*
X187184Y7404D01*
X186961Y7487D01*
X186795Y7515D01*
D02*
G37*
G36*
X142641Y7515D02*
X142585D01*
X142418Y7487D01*
X142252Y7460D01*
X142141Y7404D01*
X142113Y7376D01*
X141974Y7265D01*
X141863Y7126D01*
X141807Y7043D01*
X141780Y6988D01*
X141724Y6793D01*
X141669Y6627D01*
Y6488D01*
Y6460D01*
Y6432D01*
X141724Y6099D01*
X141807Y5849D01*
X141891Y5682D01*
X141946Y5655D01*
Y5627D01*
X142141Y5460D01*
X142363Y5377D01*
X142529Y5349D01*
X142585D01*
X142863Y5405D01*
X143057Y5488D01*
X143196Y5571D01*
X143252Y5627D01*
X143390Y5877D01*
X143474Y6127D01*
Y6238D01*
X143501Y6321D01*
Y6377D01*
Y6404D01*
Y6599D01*
X143446Y6793D01*
X143418Y6932D01*
X143363Y7043D01*
X143279Y7210D01*
X143224Y7265D01*
X143029Y7404D01*
X142807Y7487D01*
X142641Y7515D01*
D02*
G37*
G36*
X194265Y4544D02*
X193765D01*
X193710Y4516D01*
X193654Y4488D01*
Y4461D01*
X193598Y4405D01*
X193571Y4377D01*
Y4349D01*
Y4322D01*
Y4238D01*
X193598Y4211D01*
X193682Y4155D01*
X193710Y4127D01*
X193849Y4100D01*
X194265D01*
Y4544D01*
D02*
G37*
G36*
X188989D02*
X188933Y4377D01*
X188878Y4294D01*
Y4266D01*
X188739Y3905D01*
X189211D01*
X189044Y4294D01*
X188989Y4461D01*
Y4516D01*
Y4544D01*
D02*
G37*
G36*
X148167Y4544D02*
X147667D01*
X147584Y4516D01*
X147556Y4488D01*
X147528Y4461D01*
X147473Y4377D01*
Y4349D01*
Y4322D01*
Y4238D01*
X147500Y4211D01*
X147556Y4155D01*
X147584Y4127D01*
X147611D01*
X147722Y4100D01*
X148167D01*
Y4544D01*
D02*
G37*
G36*
X145529D02*
X145473Y4377D01*
X145418Y4294D01*
Y4266D01*
X145279Y3905D01*
X145723D01*
X145584Y4294D01*
X145529Y4461D01*
Y4516D01*
Y4544D01*
D02*
G37*
G36*
X192654Y4544D02*
X192543D01*
X192377Y4516D01*
X192321Y4488D01*
X192293D01*
X192210Y4433D01*
X192155Y4377D01*
X192127Y4322D01*
Y4294D01*
X192071Y4100D01*
Y4044D01*
Y4016D01*
X192099Y3850D01*
X192127Y3739D01*
X192182Y3655D01*
X192210Y3627D01*
X192321Y3572D01*
X192432Y3544D01*
X192516Y3516D01*
X192543D01*
X192682Y3544D01*
X192765Y3572D01*
X192821Y3600D01*
X192849D01*
X192932Y3711D01*
X192960Y3850D01*
X192988Y3961D01*
Y3988D01*
X192960Y4183D01*
X192904Y4322D01*
X192877Y4405D01*
X192849Y4433D01*
X192765Y4488D01*
X192654Y4544D01*
D02*
G37*
G36*
X153526Y4544D02*
X153415D01*
X153249Y4516D01*
X153193Y4488D01*
X153165D01*
X153027Y4349D01*
X152999Y4322D01*
Y4294D01*
X152943Y4127D01*
Y4044D01*
Y4016D01*
X152971Y3850D01*
X152999Y3739D01*
X153054Y3655D01*
X153082Y3627D01*
X153193Y3572D01*
X153277Y3544D01*
X153388Y3516D01*
X153415D01*
X153554Y3544D01*
X153638Y3572D01*
X153693Y3600D01*
X153721D01*
X153804Y3711D01*
X153832Y3850D01*
X153860Y3961D01*
Y3988D01*
X153832Y4183D01*
X153776Y4322D01*
X153749Y4405D01*
X153721Y4433D01*
X153610Y4488D01*
X153526Y4544D01*
D02*
G37*
G36*
X191071Y2739D02*
X190627D01*
X190572Y2711D01*
X190488Y2683D01*
X190433Y2628D01*
X190377Y2600D01*
Y2572D01*
X190349Y2461D01*
X190322Y2378D01*
Y2267D01*
Y2239D01*
X190349Y2072D01*
X190377Y2017D01*
Y1989D01*
X190433Y1878D01*
X190461Y1850D01*
Y1822D01*
X190516Y1795D01*
X190544Y1767D01*
X190572D01*
X190710Y1739D01*
X191071D01*
Y2739D01*
D02*
G37*
%LPD*%
D15*
X91250Y148700D02*
X101050D01*
Y153900D01*
X90850D02*
X101050D01*
X90850Y148700D02*
Y153900D01*
Y148700D02*
X91250D01*
X91199Y141597D02*
X100999D01*
Y146797D01*
X90799D02*
X100999D01*
X90799Y141597D02*
Y146797D01*
Y141597D02*
X91199D01*
X109950Y41300D02*
Y41700D01*
X115150D01*
Y31500D02*
Y41700D01*
X109950Y31500D02*
X115150D01*
X109950D02*
Y41300D01*
X143099D02*
Y41700D01*
X148299D01*
Y31500D02*
Y41700D01*
X143099Y31500D02*
X148299D01*
X143099D02*
Y41300D01*
X136799D02*
Y41700D01*
X141999D01*
Y31500D02*
Y41700D01*
X136799Y31500D02*
X141999D01*
X136799D02*
Y41300D01*
X116350D02*
Y41700D01*
X121550D01*
Y31500D02*
Y41700D01*
X116350Y31500D02*
X121550D01*
X116350D02*
Y41300D01*
X46100Y82778D02*
Y85777D01*
X44600D01*
X44101Y85277D01*
Y84277D01*
X44600Y83777D01*
X46100D01*
X45100D02*
X44101Y82778D01*
X41102Y85777D02*
X43101D01*
Y82778D01*
X41102D01*
X43101Y84277D02*
X42101D01*
X38103Y85277D02*
X38602Y85777D01*
X39602D01*
X40102Y85277D01*
Y84777D01*
X39602Y84277D01*
X38602D01*
X38103Y83777D01*
Y83277D01*
X38602Y82778D01*
X39602D01*
X40102Y83277D01*
X35104Y85777D02*
X37103D01*
Y82778D01*
X35104D01*
X37103Y84277D02*
X36103D01*
X34104Y85777D02*
X32105D01*
X33104D01*
Y82778D01*
X31105Y82278D02*
X29105D01*
X28106Y82778D02*
Y84777D01*
X27106Y85777D01*
X26107Y84777D01*
Y82778D01*
Y84277D01*
X28106D01*
X25107Y85777D02*
Y82778D01*
X23607D01*
X23107Y83277D01*
Y83777D01*
X23607Y84277D01*
X25107D01*
X23607D01*
X23107Y84777D01*
Y85277D01*
X23607Y85777D01*
X25107D01*
X46100Y52644D02*
Y55643D01*
X44600D01*
X44101Y55143D01*
Y54144D01*
X44600Y53644D01*
X46100D01*
X45100D02*
X44101Y52644D01*
X41102Y55643D02*
X43101D01*
Y52644D01*
X41102D01*
X43101Y54144D02*
X42101D01*
X38103Y55143D02*
X38602Y55643D01*
X39602D01*
X40102Y55143D01*
Y54644D01*
X39602Y54144D01*
X38602D01*
X38103Y53644D01*
Y53144D01*
X38602Y52644D01*
X39602D01*
X40102Y53144D01*
X35104Y55643D02*
X37103D01*
Y52644D01*
X35104D01*
X37103Y54144D02*
X36103D01*
X34104Y55643D02*
X32105D01*
X33104D01*
Y52644D01*
X31105Y52144D02*
X29105D01*
X26107Y55143D02*
X26606Y55643D01*
X27606D01*
X28106Y55143D01*
Y53144D01*
X27606Y52644D01*
X26606D01*
X26107Y53144D01*
X25107Y55643D02*
Y52644D01*
X23607D01*
X23107Y53144D01*
Y55143D01*
X23607Y55643D01*
X25107D01*
X40102Y72733D02*
Y75732D01*
X38602D01*
X38103Y75232D01*
Y74233D01*
X38602Y73733D01*
X40102D01*
X37103Y75732D02*
Y72733D01*
X36103Y73733D01*
X35104Y72733D01*
Y75732D01*
X34104Y72733D02*
Y75732D01*
X33104Y74733D01*
X32105Y75732D01*
Y72733D01*
X31105Y72233D02*
X29105D01*
X28106Y75732D02*
Y72733D01*
X26606D01*
X26107Y73233D01*
Y73733D01*
X26606Y74233D01*
X28106D01*
X26606D01*
X26107Y74733D01*
Y75232D01*
X26606Y75732D01*
X28106D01*
X40102Y62689D02*
Y65688D01*
X38602D01*
X38103Y65188D01*
Y64188D01*
X38602Y63688D01*
X40102D01*
X37103Y65688D02*
Y62689D01*
X36103Y63688D01*
X35104Y62689D01*
Y65688D01*
X34104Y62689D02*
Y65688D01*
X33104Y64688D01*
X32105Y65688D01*
Y62689D01*
X31105Y62189D02*
X29105D01*
X26107Y65188D02*
X26606Y65688D01*
X27606D01*
X28106Y65188D01*
Y63189D01*
X27606Y62689D01*
X26606D01*
X26107Y63189D01*
X38103Y105366D02*
X40102D01*
Y103866D01*
X39102D01*
X40102D01*
Y102367D01*
X37103D02*
Y104366D01*
X36103Y105366D01*
X35104Y104366D01*
Y102367D01*
Y103866D01*
X37103D01*
X34104Y105366D02*
Y102866D01*
X33604Y102367D01*
X32604D01*
X32105Y102866D01*
Y105366D01*
X31105D02*
Y102367D01*
X29105D01*
X28106Y105366D02*
X26107D01*
X27106D01*
Y102367D01*
X40102Y92822D02*
Y95821D01*
X38602D01*
X38103Y95321D01*
Y94322D01*
X38602Y93822D01*
X40102D01*
X37103Y95821D02*
Y92822D01*
X36103Y93822D01*
X35104Y92822D01*
Y95821D01*
X34104Y92822D02*
Y95821D01*
X33104Y94821D01*
X32105Y95821D01*
Y92822D01*
X31105Y92322D02*
X29105D01*
X28106Y92822D02*
Y94821D01*
X27106Y95821D01*
X26107Y94821D01*
Y92822D01*
Y94322D01*
X28106D01*
X40102Y42600D02*
Y45599D01*
X38602D01*
X38103Y45099D01*
Y44099D01*
X38602Y43600D01*
X40102D01*
X37103Y45599D02*
Y42600D01*
X36103Y43600D01*
X35104Y42600D01*
Y45599D01*
X34104Y42600D02*
Y45599D01*
X33104Y44599D01*
X32105Y45599D01*
Y42600D01*
X31105Y42100D02*
X29105D01*
X28106Y45599D02*
Y42600D01*
X26606D01*
X26107Y43100D01*
Y45099D01*
X26606Y45599D01*
X28106D01*
X34604Y115410D02*
X35603D01*
X36103Y114910D01*
Y112911D01*
X35603Y112411D01*
X34604D01*
X34104Y112911D01*
Y114910D01*
X34604Y115410D01*
X33104D02*
X31105D01*
X32105D01*
Y112411D01*
X30105Y115410D02*
Y112411D01*
X29105Y113411D01*
X28106Y112411D01*
Y115410D01*
X34104Y134999D02*
X34604Y135499D01*
X35603D01*
X36103Y134999D01*
Y133000D01*
X35603Y132500D01*
X34604D01*
X34104Y133000D01*
Y134000D01*
X35104D01*
X33104Y132500D02*
Y135499D01*
X31105Y132500D01*
Y135499D01*
X30105D02*
Y132500D01*
X28606D01*
X28106Y133000D01*
Y134999D01*
X28606Y135499D01*
X30105D01*
X34104Y124955D02*
X34604Y125454D01*
X35603D01*
X36103Y124955D01*
Y122955D01*
X35603Y122456D01*
X34604D01*
X34104Y122955D01*
Y123955D01*
X35104D01*
X33104Y122456D02*
Y125454D01*
X31105Y122456D01*
Y125454D01*
X30105D02*
Y122456D01*
X28606D01*
X28106Y122955D01*
Y124955D01*
X28606Y125454D01*
X30105D01*
X88499Y149900D02*
Y152900D01*
X87000D01*
X86500Y152400D01*
Y151400D01*
X87000Y150900D01*
X88499D01*
X87499D02*
X86500Y149900D01*
X84001D02*
Y152900D01*
X85500Y151400D01*
X83501D01*
X88499Y142500D02*
Y145500D01*
X87000D01*
X86500Y145000D01*
Y144000D01*
X87000Y143500D01*
X88499D01*
X87499D02*
X86500Y142500D01*
X85500Y145000D02*
X85000Y145500D01*
X84001D01*
X83501Y145000D01*
Y144500D01*
X84001Y144000D01*
X84500D01*
X84001D01*
X83501Y143500D01*
Y143000D01*
X84001Y142500D01*
X85000D01*
X85500Y143000D01*
X110601Y44000D02*
X113600D01*
Y45500D01*
X113101Y46000D01*
X112101D01*
X111601Y45500D01*
Y44000D01*
Y45000D02*
X110601Y46000D01*
X113600Y48999D02*
X113101Y47999D01*
X112101Y46999D01*
X111101D01*
X110601Y47499D01*
Y48499D01*
X111101Y48999D01*
X111601D01*
X112101Y48499D01*
Y46999D01*
X144000Y43701D02*
X147000D01*
Y45200D01*
X146500Y45700D01*
X145500D01*
X145000Y45200D01*
Y43701D01*
Y44701D02*
X144000Y45700D01*
X147000Y46700D02*
Y48699D01*
X146500D01*
X144500Y46700D01*
X144000D01*
X137601Y43801D02*
X140600D01*
Y45300D01*
X140100Y45800D01*
X139100D01*
X138600Y45300D01*
Y43801D01*
Y44800D02*
X137601Y45800D01*
X140100Y46800D02*
X140600Y47300D01*
Y48299D01*
X140100Y48799D01*
X139600D01*
X139100Y48299D01*
X138600Y48799D01*
X138100D01*
X137601Y48299D01*
Y47300D01*
X138100Y46800D01*
X138600D01*
X139100Y47300D01*
X139600Y46800D01*
X140100D01*
X139100Y47300D02*
Y48299D01*
X117500Y43801D02*
X120500D01*
Y45300D01*
X120000Y45800D01*
X119000D01*
X118500Y45300D01*
Y43801D01*
Y44800D02*
X117500Y45800D01*
X120500Y48799D02*
Y46800D01*
X119000D01*
X119500Y47800D01*
Y48299D01*
X119000Y48799D01*
X118000D01*
X117500Y48299D01*
Y47300D01*
X118000Y46800D01*
M02*
