M48
;Layer_Color=9474304
;FILE_FORMAT=2:5
INCH,LZ
;TYPE=PLATED
T1F00S00C0.00787
T2F00S00C0.03500
T3F00S00C0.03937
T4F00S00C0.04331
T5F00S00C0.04724
T6F00S00C0.11810
%
T01
X0625Y0165
X063
X0635
X064
X0645
X065
X0655
X066
X06575Y017
X06525
X06475
X06425
X06375
X06325
X06275
X063Y0175
X0635
X064
X0645
X065
X0655
X066
X06625Y018
X06675
X06725
X06775
X06825
X06875
X0685Y0185
X068
X0675
X067
X0665
X066
X0655
Y019
X066
X0665
X06675Y0195
X06625
X06575
X06525
X0655Y02
X066
X0665
X067
X0675
Y0205
X067
X0665
X066
X0655
X065
Y02
X0645
X064
X0635
X063
X0625
Y0205
X063
X0635
X064
X0645
X06425Y021
X06375
X06325
X06275
X063Y0215
X0635
X064
X06425Y022
X06375
X06325
X06275
X063Y0225
X0635
X064
X06425Y023
X06475
X06525
X06575
X06625
X06675
X06725
X06775
X06825
X06875
X0685Y0235
X06875Y024
X06825
X0685Y0245
X06875Y025
X0685Y0255
X06875Y026
X0685Y0265
X06875Y027
X06775
X06725
X06675
X06625
X06575
X06525
X06475
X06425
X06375
X06325
X06275
X063Y0275
X0635
X064
X0645
X065
X0655
X066
X0665
X067
X0675
X06775Y028
X06825
Y029
X06775
X06725
X06675
X06625
X06575
X06525
X0655Y0285
X066
X0665
X067
X0675
X06725Y028
X06675
X06625
X06575
X06525
X06475
X06425
X06375
X06325
X06275
X063Y0285
X0635
X064
X06425Y029
X06375
X06325
X06275
X0625Y0285
Y0275
X063Y0265
X0635
X064
X0645
X065
X0655
X066
X0665
X06675Y026
X06625
X06575
X06525
X06475
X06425
X06375
X06325
X06275
X063Y0255
X0635
X064
X0645
X065
X0655
X066
X0665
X067
X0675
Y0235
X067
X0665
X066
X0655
X065
X0645
X064
X0635
X063
X0625
X06275Y024
X06325
X06375
X06425
X06475
X06525
X06575
X06625
X06675
X0665Y0245
X066
X0655
X065
X0645
X064
X0635
X063
X0625Y0255
X06275Y023
X06325
X06375
X0625Y0225
Y0215
X06275Y0195
X06325
X06375
X06425
X064Y019
Y0185
X0635
X063
X0625
Y019
X063
X0635
X06375Y018
X06425
X06525
X06575
X0675Y0175
X068
X0685
X06875Y017
X06825
X06775
X068Y0165
X0685
X06875Y019
X06825
X0685Y0195
X06875Y02
X06825
X0685Y0205
X06875Y021
X06825
X0685Y0215
X06875Y022
X06825
X06775
X06725
X06675
X06625
X06575
X06525
X0655Y0225
X066
X0665
X067
X0675
X0685
X0665Y0215
X066
X0655
X06575Y021
X06625
X06675
X06525
X06325Y018
X06275
X0625Y0175
Y0295
X063
X0635
X064
X06425Y03
X06375
X06325
X06275
X063Y031
X0635
X064
X0645
X065
X0655
X066
X0665
X067
X0675
X06825
Y03
X06675
X06625
X06575
X06525
X0655Y0295
X066
X0665
X0625Y031
X062
X0615
X061
X0605
X06
X0595
X059
X0585
X058
X0575
X057
X0565
X056
X05525
X05475
X05425
X05375
X05325
X05275
X05225
X05175
X05125
X05075
X05025
X04975
X04925
X04875
X04825
X047905Y03104
X0479499Y0303297
X04825Y03
X04875
X04925
X04975
X05025
X05075
X05125
X05175
X05225
X05275
X05325
X05375
X05425
X05475
X05525
X0555Y0305
X055
X0545
X054
X0535
X053
X0525
X052
X0515
X051
X0505
X05
X0495
X049
X0485
Y0295
X049
X0495
X05
X0505
X051
X0515
X05131Y02921
X052Y0295
X0525
X05225Y028
X05175
X05125
X05075
X05025
X04975
X04925
X04875
X04825
X04775
X048Y0295
X047
Y0255
X04773Y02505
X04756Y02455
X049Y0245
X04925Y025
X049Y0255
X04925Y026
X049Y0265
X04919Y02673
X0497Y0271
X05025Y027
X05075
X05125
X0515Y0275
X052
X0515Y0265
X051
X0505
X05
X05025Y026
X05075
X05125
X05175
X052Y0255
X0515
X051
X0505
X05
X05025Y025
X05075
X05125
X05175
X052Y0245
X0515
X051
X0505
X05
X05025Y024
X05075
X05125
X05175
X052Y0235
X0515
X051
X0505
X05
X05025Y023
X05075
X05125
X05175
X052Y0225
X0525
X0535
X05375Y022
X05325
X0542263Y0221963
X0550093Y0217651
X05525Y021
X05475
X055Y0205
X0555
X05525Y02
X05475
X05425
X05375
X05325
X05268Y01986
X053Y0195
X0535
X054
X0545
X055
X0555
X05575Y019
X05625
Y0195
X05675
X05725
X05775
X05825
X05875
X05925
X05975
X06025
X06075
X06125
X06175
X06225
X062Y02
X0615
X061
X0605
X06
X0595
X059
X0585
X058
X0575
X057
X0565
X056
X05625Y0205
X05675
X05725
Y021
X05775
X05825
X05875
X05925
X05975
X06025
X06075
X06125
X06175
X06225
X062Y0215
X0615
X061
X0605
X06
X0595
X059
X0585
X058
X0575
X05675
X05625
X0565Y022
X056
X05625Y0225
X05675
X0565Y023
X056
X05556Y02325
X0552314Y0237113
X0555Y024
X056
X0565
Y0245
X057
X0575
X058
X05775Y024
X05725
X0575Y0235
X058
X05775Y023
X05725
X0575Y0225
X05775Y022
X05725
X05869Y02198
X05925Y022
X05975
X06025
X06075
X06125
X06175
X06225
X062Y0225
X0615
X061
X0605
X06
X0595
X059
X05925Y023
X05975
X06025
X06075
X06125
X06175
X06225
X062Y0235
X0615
X061
X0605
X06
X0595
X059
X05925Y024
X05975
X06025
X06075
X06125
Y025
X06075
X06025
X05975
X05925
X0595Y0255
X06
X0605
X061
X0615
X062
X06125Y026
X06075
X06025
X05975
X05925
X05928Y02668
X05925Y027
X05867Y02696
X059Y0275
X0595
X06
X0605
X061
X06104Y0279
X06125Y028
X06142Y02768
X06175Y028
X06225
X062Y0285
X0615
X061
X0605
X06
X0595
X059
X05925Y029
X05975
X06025
X06075
X06125
X06175
X06225
X062Y0295
X0615
X061
X0605
X06
X0595
X059
X0585
X058
X0575
X05775Y03
X05825
X05875
X05925
X05975
X06025
X06075
X06125
X06175
X06225
X062Y0275
X06225Y027
X06175
X06125
X06075
X06025
X0605Y0265
X061
X06
X06025Y028
X06075
X05975
X05925
X05775
X05725
X0575Y0285
X05775Y029
X05725
X0565
X056
X05625Y0295
X05675
X0565Y03
X056
X05625Y0305
X05675
X05725
X05675Y0285
X05625
X0565Y028
X056
X05625Y0275
X05675
X0575
X058
X05775Y027
X05725
X0575Y0265
X058
X057
X0565
Y027
X056
X0552176Y0271706
X05557Y02753
X0549Y02665
X05489Y0263
X05466Y02612
X05439Y0263
X0544Y02665
X05417Y02683
X05467
X05416Y02612
X05434Y02558
Y02532
X05418Y02478
X05441Y0246
X0544Y02425
X05417Y02407
X05467
X0549Y02425
X05491Y0246
X05468Y02478
X05625Y0235
X05675
X05867Y02394
X0585Y0255
X059
X05864Y02891
X05423Y0291613
X054Y0285
X05359Y02876
X05375Y028
X05425
X05325
X0525Y0215
X052
X0515
X051
X0505
X05
X05025Y022
X05075
X05125
X05175
X0515Y0225
X051
X0505
X05
X049
X0485
X048
X04789Y02289
X04825Y023
X04875
X04925
X049Y0235
X04925Y024
Y022
X04875
X04825
X0485Y0215
X049
X048
X0475
X04725Y02164
Y02
X04775
X04825
X04847Y01985
X04825Y019
X04775
X04725
X0475Y0185
X048
X0485
X049
X0495
X05
X0505
X051
X0515
X052
X0525
X053
X0535
X054
X0545
X05474Y0183
X05475Y018
X05525
X05575
X05625
X05675
X05725
X05775
X05825
X05875
X05925
X05975
X06025
X06075
X06125
X06175
X06225
X062Y0185
X0615
X061
X0605
X06
X0595
X059
X0585
X058
X0575
X057
X0565
X056
X0555
X055
X05525Y019
X05475
X05425
X05375
X05325
X05275
Y018
X05325
X05375
X05425
X0545Y0175
X055
X0555
X056
X0565
X057
X0575
X058
X0585
X059
X0595
X06
X0605
X061
X0615
X062
X06225Y017
X06175
X06125
X06075
X06025
X05975
X05925
X05875
X05825
X05775
X05725
X05675
X05625
X05575
X05525
X05475
X05425
X05375
X05325
X05275
X05225
X05175
X05125
X05075
X05025
X0505Y0175
X051
X0515
X052
X0525
X053
X0535
X054
Y0165
X0545
X055
X0555
X056
X0565
X057
X0575
X058
X0585
X059
X0595
X06
X0605
X061
X0615
X062
Y019
X0615
X061
X0605
X06
X0595
X059
X0585
X058
X0575
X057
X0565Y021
X056
X0545Y0205
X058
X0585
X059
X0595
X06
X0605
X061
X0615
X062
X05122Y01985
X05075Y02
X05025
X04998Y01985
X05025Y019
X05075
X05125
Y018
X05175
X05225
X05075
X05025
X04975
X04925
X04875
X04825
X04775
X04725
X0475Y0175
X048
X04825Y017
X04775
X04725
X0475Y0165
X048
X047
Y0175
Y0185
X05Y0175
Y0165
X0505
X051
X0515
X052
X0525
X053
X0535
X0465
X046
X0455
X045
X0445
X044
X0435
X04375Y017
X04425
X04475
X04525
X04575
X04625
X04675
X0465Y0175
X046
X0455
X045
X0445
X044
X0435
Y0185
X043
X0425
X04275Y018
X04175
X04125
X04075
X04025
X0405Y0185
X041
X0415
X04125Y019
X04075
X04025
X03975
X03925
X03875
X03825
X0385Y0195
X039
X0395
X04
X0405
X041
X04125Y02
X04175
X04225
X04275
X04325
X04375
X04425
X04475
X04525
X04625
X04675
Y019
X04625
X0465Y0185
X04675Y018
X04625
X0455Y0185
X04525Y019
X04475
X04425
X04375
X04325
X04322Y01932
X043Y0205
X0435
X044
X04375Y021
X04325
X04275
X04225
X04175
X04125
X04075
X041Y0215
X0415
X042
X0425
X043
X0435
X044
X0441Y02241
X0435Y0225
X043
X0425
X042
X0415
X041
X04075Y022
X03975
X04Y0225
X03975Y023
X04001Y02328
X04025Y024
X04075
X04125
X04175
X04225
X04275
X04325
X04375
X0435Y0245
X043
X0425
X042
X0415
X041
X0405
X04075Y025
X04125
X04175
X04225
X04275
X04325
X04375
X0435Y0255
X043
X0425
X042
X0415
X04175Y026
X04225
X04275
X04325
X04368Y02619
X0435Y0275
X043
X0425
X042
X0415
X041
X0405
X04
X03975Y027
X04Y0265
X04032Y02659
X04075Y026
X04116Y02635
X03975Y026
X04Y0255
X03975Y025
Y024
X03875
X03825
X0385Y0245
X038
X03825Y025
X03875
X0385Y0255
X038
X03825Y026
X03875
X0385Y0265
X038
X03825Y027
X03875
X0385Y0275
X038
X03825Y028
X03875
X0385Y0285
X038
X03825Y029
X03875
X0385Y0295
X038
X03825Y03
X03875
X03925
X03975
X04025
X04075
X04125
X04175
X04225
X04275
X04325
X04375
X04425
X04475
X04525
X0455Y0305
X045
X0445
X044
X0435
X043
X0425
X042
X0415
X041
X0405
X04
X0395
X039
X0385
X038
X03825Y031
X04025
X04075
X04125
X04175
X04325
X04375
X04425
X04475
X04525
X0455Y0295
X04525Y029
X04598Y02877
X0465Y0295
X04684Y02832
X04661Y02806
X0455Y02793
X0455554Y0262349
X045Y0255
X045531Y0236408
X04646Y02387
X0468514Y02454
X04641Y02188
X04596Y02199
X04598Y02113
X0455Y0225
X0425Y0205
X042
X0415
X041
X0405
X04
X04025Y02
X04075
X03975Y021
X04Y0215
X0385
X038
X03825Y022
X03875
X0385Y0225
X038
X03825Y023
X03875
X0385Y0235
X038
X03825Y021
X03875
X0385Y0205
X038
X03825Y02
X03875
X038Y0195
Y0185
X0385
X039
X03875Y018
X03825
X0385Y0175
X038
X03825Y017
X03875
X039Y0165
X0395
X0385
X038
X04025Y017
X04075
X0405Y0175
X04
Y0185
X04175Y017
X04079Y02305
X041Y0285
X0415
X042
X0425
X043
X0435
X04375Y029
X04325
X04275
X04225
X04175
X04125
X04075
X04025
X0405Y0295
X041
X0415
X042
X0425
X043
X0435
X044
X04
Y0285
X0405
Y0315
X041
X0415
X042
X04175Y032
X04125
X04075
X04025
X0405Y0325
X041
X0415
X042
X0425
X043
X0435
X044
X0445
X045
X04525Y032
X04475
X04425
X04375
X04325
X0435Y0315
X044
X0445
X045
X0455
X0465
Y0325
X04675Y033
X04625
X0465Y0335
X046
X0455
X04575Y034
X04625
X04675
X04525
X04475
X04425
X04375
X04325
Y033
X04375
X04425
X04175
X04125
X04075
X04025
X04Y0325
X0395
X039
X0385
X038
X03825Y033
X0385Y0335
X038
X03825Y034
X04025
X04075
X04125
X04175
X04Y0315
X0385
X038
X03825Y032
X0475Y0325
X048
X0485
X049
X0495
X05
X0505
X051
X0515
X052
X0525
X053
X0535
X054
X0545
X055
X0555
X056
X0565
X057
X0575
X058
X0585
X059
X0595
X06
X0605
X061
X0615
X062
X06225Y033
X06175
X06125
X06075
X06025
X05975
X05925
X05875
X05825
X05775
X05725
X05675
X05625
X05575
X05525
X05475
X05425
X05375
X05325
X05275
X05225
X05175
X05125
X05075
X05025
X04975
X05Y0335
X0505
X051
X0515
X052
X0525
X053
X0535
X054
X0545
X055
X0555
X056
X0565
X057
X0575
X058
X0585
X059
X0595
X06
X0605
X061
X0615
X062
X06225Y034
X06175
X06125
X06075
X06025
X05975
X05925
X05875
X05825
X05775
X05725
X05675
X05625
X05575
X05525
X05475
X05425
X05375
X05325
X05275
X05225
X05175
X05125
X05075
X05025
X04825
X04775
X04725
X0475Y0335
X048
X04825Y033
X04775
X04725
X047Y0335
X0475Y0315
X048
X0485
X049
X0495
X05
X0505
X051
X0515
X052
X0525
X053
X0535
X054
X0545
X055
X0555
X05625
X05675
X05725
X05775
X05825
X05875
X05925
X05975
X06025
X06075
X06125
X06175
X06225
X06275
X06325
X06375
X06425
X06525
X06575
X06625
X06675
X067Y0325
X0675
X068
X0685
X06875Y033
X06825
X06775
X06725
X06625
X06575
X06525
X06475
X06425
X06375
X06325
X06275
X063Y0335
X0635
X064
X0645
X065
X0655
X06575Y034
X06525
X06475
X06425
X06375
X06325
X06275
X0625Y0335
Y0325
X063
X0635
X064
X0655
X066
X0665
X0682Y03183
X068Y0335
X0685
X06875Y034
X06825
X06775
T02
X06208Y02436
Y02636
T03
X03937Y01708
Y01808
X03936Y02026
Y02126
Y02226
Y02326
Y02426
Y02526
Y02626
Y02726
Y02826
Y02926
T04
X04459Y02064
Y02164
Y02264
Y02397
Y02497
Y02597
Y02731
Y02831
Y02931
X04598Y03223
X04698
T05
X06745Y01928
Y02128
Y02445
Y02645
Y02962
X03936Y03151
Y03351
X06745Y03162
T06
X06688Y01689
X04911
Y03375
X06675
M30
