M48
;Layer_Color=9474304
;FILE_FORMAT=2:4
INCH,LZ
;TYPE=PLATED
T1F00S00C0.0079
T2F00S00C0.0350
T3F00S00C0.0394
T4F00S00C0.0433
T5F00S00C0.0472
T6F00S00C0.1181
%
T01
X047Y02
X0475Y021
X0485
X048Y022
X047
X0485Y023
X048Y024
X0485Y025
X048Y026
X047
X0485Y027
X048Y03
X047
X0485Y031
X046Y03
X044696Y030325
X0445Y027
X0455
X0465
X046Y026
X044
X043
X042
X041
X04
X039346Y023975
Y023725
Y023475
X039096
X038846
X038596
X038346
X038096
Y023725
X038346
Y023975
X038096
X038596
Y023725
X038846
X039096
Y023975
X038846
X037Y024
X036796Y024525
X036546
X036296
X036046
Y024825
X036296
X036546
X036796
Y025125
X036546
X036296
X036046
Y025425
X036296
X036546
X036796
X036196Y026925
X035846Y027075
X035596
X035346
X035096
X034869Y027083
X034646Y027075
X034887Y027333
X035072Y027484
X035386Y027487
X03563Y027487
X035857
X035716Y026877
X035474
X035246Y026875
X034946
X03524Y027331
X03471Y02759
X034472Y027636
Y028914
X03471Y02896
X034887Y029217
X034869Y029467
X034646Y029475
X035096
X035346
X035596
X035846
X035716Y029673
X035474
X035246Y029675
X034946
X035072Y029066
X035386Y029063
X03563Y029063
X035857
X03524Y029219
X036196Y029625
X036296Y031125
X036046
X036546
X036796
X0335Y031
X0325
X0315
X031896Y029574
Y029141
Y028708
Y028275
Y027842
Y027409
Y026976
X0315Y027
X03233Y026976
X032763
X033196
Y027409
X032763
X03233
Y027842
X032763
X033196
Y028275
X032763
X03233
Y028708
X032763
X033196
Y029141
X032763
X03233
Y029574
X032763
X033196
X0315Y029
X032Y026
X033
X033446Y024225
X032Y024
X031346Y024325
X0315Y021
X0325
X0335
X0345
X0355
X0365
X0375
X0385
X0395
X0405
X0415
X0425
X0435
X0445
X0455
X0465
X046Y022
Y02
X045
X044
X043
X042
X041
X04
X039
X038
X037
X036
X035
X034
X033
X032
X033Y022
X034
X035
X036
X037
X038
X039
X04
X041
X042
X043
X044
X0435Y027
X0425
X038593Y027476
Y029074
X0375Y023
X0365
X036Y024
X035196Y023375
X0345Y025
X030481Y02499
X0295Y025
X029497Y025274
X029069Y025101
X0285Y025
X0275
X027Y024
X0275Y023
X0285
X0295
X03Y022
X0305Y021
X031Y02
X03
X029
X027
X026
X025
X024
X023
X022
X0225Y021
X0235
X024Y022
X025
X026
X027
X029Y024
X030446Y023725
X0295Y027
X029396Y028775
X029146Y028875
Y029275
X030046Y028775
X028446Y027925
X028Y028
X027
X024
X023
X022
X021
X0215Y029
X0225
X0235
X0245
X024996Y029025
X0245Y031
X0255
X0265
X0285
X0295
X0235
X0225
X0215
X022Y03
X021
X0215Y027
X021Y026
X0215Y025
X0225
X0235
X0245
X0255
X024996Y025725
X025Y024
X024
X023
Y022
X022
X021
X0215Y023
X021Y024
X0215Y021
X0235Y027
X0245
X025Y032
X024
X023
X022
X021
Y034
X022
X023
X024
X025
X026
X027
X0275Y035
X0285
X0295
X03Y034
X031
X031046Y032625
X03Y032
X029
X028
X027
X0275Y033
X0285
X0295
X0265
X0255
X0245
X0235
X0225
Y035
X0215
X022Y036
X023
X025
X0245Y035
X0265
X031Y036
X032
X033
X034
X035
X036
X037
X038
X039
X04
X041
X042
X043
X044
X045
X046
X044696Y034125
X044Y034
X043
X042
X041
X04
X039
X038
X037
X036
X035
X034
X033
X032
X0325Y033
X0335
X0345
X0355
X0365
X0375
X038096Y033075
X038346
X038596
X038846
X039096
X039346
Y032825
X039096
X038846
X038596
X038346
X038096
Y032575
X038346
X038596
X038846
X039096
X039346
X036796Y032025
X036546
X036296
X036046
Y031725
X036296
X036546
X036796
Y031425
X036546
X036296
X036046
X035Y032
X033
X032
X0315Y033
X0485
X047Y036
T02
X041446Y027075
Y029075
T03
X023064Y021018
X024064
X021718Y0236
Y0246
Y0256
Y0266
Y0276
Y0286
Y0296
Y0306
Y0316
Y0326
T04
X026Y0237
Y0247
Y0257
Y027
Y028
Y029
Y0303
Y0313
Y0323
X030496Y034775
X031496
T05
X047396Y022875
Y024875
Y027075
Y029075
X025896Y035575
X023896
X047396Y033275
Y031275
T06
X048146Y020025
X020946
Y035875
X048146
M30
