M48
;Layer_Color=9474304
;FILE_FORMAT=2:4
INCH,LZ
;TYPE=PLATED
T1F00S00C0.0079
T2F00S00C0.0350
T3F00S00C0.0360
T4F00S00C0.0394
T5F00S00C0.0450
T6F00S00C0.1181
%
T01
X0485Y022
Y024
X048Y025
X0485Y026
Y028
X048Y029
X047
X0475Y03
X0485
X0465
X0455
X0445
X0435
X0425
X0415
X0405
X04015Y0308
X03985
X03955
X03925
X03895
X03865
Y0311
X03895
X03925
X03955
X03985
X04015
X038Y031
X037
X036
X03486Y03108
X03465Y0312
Y0309
X03435
X03405
Y0312
X03435
X03425Y029
X03455
X03485
Y02845
X03455
X03425
X03395
X03365
X03335
Y029
X03365
X03395
X032
X031646Y029024
Y028591
Y028158
Y027725
Y027292
Y026859
Y026426
X032Y027
X03335
X03365
X03395
X03425
X03455
X03485
Y02645
X03455
X03425
X03395
X03365
X03335
X034Y02455
X0343
X0346
Y02425
X0343
X034
Y02395
X0343
X0346
X034Y023
X033
X032
X0325Y022
X0335
X0345
X035Y021
X036
X037
X038
X039
X04
X041
X042
X043
X044
X045
X046
Y029
X0425Y028
X042Y027
X041
X0405Y028
X0395
X0385
X038372Y028578
X0384Y02685
X038Y025
X0377Y02475
X037Y025
X036
X0365Y024
X0375
X03865Y02405
Y02375
X03895
X03925
X03955
X03985
X04015
Y02405
X03985
X03955
X03925
X03895
Y02435
Y02465
X03865
Y02435
X03925
Y02465
X03955
X03985
X04015
Y02435
X03985
X03955
X0366Y0264
Y02905
X0365Y03
X03715Y03005
X0375Y03
X03565Y0295
X0315Y03
X032Y025
X0315Y022
X032Y021
X033
X034
X031
X03
X029
X028
X027
X026
X025
X024
X023
X0235Y022
X0245
X0255
X0265
X0275
X0285
X0295
X0305
X031Y023
X03
X029
X028
X027
X026
X025
X024
X0245Y024
X0255
X0265
X0275
X027Y025
X026
X0245Y026
Y028
X0255
X0265
Y03
X0275
X0285
X029Y031
X031
X0305Y03
X030346Y029024
X03Y029
X030346Y028591
Y028158
Y027725
Y027292
Y026859
Y026426
X03078
X031213
Y026859
X03078
Y027292
X031213
Y027725
X03078
Y028158
X031213
Y028591
X03078
Y029024
X031213
X03Y027
Y025
X031
X029
X0295Y02385
X0225Y022
X0215
X021Y023
Y025
Y027
Y029
Y031
X023
X0235Y03
X0245
X0255
X025Y031
X0235Y028
X0225
Y032
X0235
X0245
X025Y033
X024
X023
X022
X021
X0225Y034
X0235
X024Y035
X025
X026
X0265Y034
X0275
X027Y033
X0275Y032
X0265
X0305Y034
X031Y035
X023
X032
X033
X034
X035
X036
X037
X038
X039
X04
X041
X042
X043
X044
X045
X046
X0465Y034
X0455
X0445
X0435
X0425
X0415
X0405
X0395
X0385
X0375
X0365
X0355
X0345
X0335
X0325
X0315
X0325Y032
X0335
X03405Y0315
X03435
X03465
X0365Y032
X0375
X0385
X03865Y0317
X03895
X03925
X03955
X03985
X04015
Y0314
X03985
X03955
X03925
X03895
X03865
X0485Y032
Y034
T02
X0418Y02765
X0438
T03
X02815Y03195
Y03296
T04
X0219Y02315
Y02415
Y02515
Y02615
Y02715
Y02815
Y02915
Y03015
Y03115
Y03215
T05
X0473Y02285
Y024228
Y0271
Y028478
X02575Y0341
X024372
X0473Y032728
Y03135
T06
X04765Y021
X0214
Y0346
X04765
M30
