G04*
G04 #@! TF.GenerationSoftware,Altium Limited,Altium Designer,20.2.7 (254)*
G04*
G04 Layer_Color=8421504*
%FSLAX24Y24*%
%MOIN*%
G70*
G04*
G04 #@! TF.SameCoordinates,B82089B9-CC88-4195-9CAB-00499EC45045*
G04*
G04*
G04 #@! TF.FilePolarity,Positive*
G04*
G01*
G75*
%ADD18R,0.0374X0.0315*%
%ADD19R,0.0315X0.0374*%
%ADD20R,0.0315X0.0315*%
%ADD21R,0.1240X0.0630*%
%ADD22R,0.1697X0.3252*%
%ADD23O,0.0551X0.0157*%
D18*
X36000Y26699D02*
D03*
Y27250D02*
D03*
Y28776D02*
D03*
Y28224D02*
D03*
Y25374D02*
D03*
Y25926D02*
D03*
Y30076D02*
D03*
Y29524D02*
D03*
X38000Y27401D02*
D03*
Y26850D02*
D03*
Y28551D02*
D03*
Y28000D02*
D03*
X33300Y23924D02*
D03*
Y24476D02*
D03*
X28450Y27657D02*
D03*
Y28208D02*
D03*
X27750Y28206D02*
D03*
Y27654D02*
D03*
X27050Y28206D02*
D03*
Y27654D02*
D03*
X33300Y30974D02*
D03*
Y31526D02*
D03*
X27200Y30976D02*
D03*
Y30424D02*
D03*
D19*
X29474Y24450D02*
D03*
X30026D02*
D03*
X28149Y34900D02*
D03*
X28700D02*
D03*
X28149Y34250D02*
D03*
X28700D02*
D03*
X32500Y31000D02*
D03*
X31949D02*
D03*
X29474D02*
D03*
X30026D02*
D03*
X32526Y24450D02*
D03*
X31974D02*
D03*
D20*
X30015Y34900D02*
D03*
X29385D02*
D03*
X30015Y34250D02*
D03*
X29385D02*
D03*
D21*
X26000Y31000D02*
D03*
X24071D02*
D03*
D22*
X30996Y27725D02*
D03*
D23*
X32492Y25100D02*
D03*
Y25350D02*
D03*
Y25600D02*
D03*
Y25850D02*
D03*
Y26100D02*
D03*
Y26350D02*
D03*
Y26600D02*
D03*
Y26850D02*
D03*
Y27100D02*
D03*
Y27350D02*
D03*
Y27600D02*
D03*
Y27850D02*
D03*
Y28100D02*
D03*
Y28350D02*
D03*
Y28600D02*
D03*
Y28850D02*
D03*
Y29100D02*
D03*
Y29350D02*
D03*
Y29600D02*
D03*
Y29850D02*
D03*
Y30100D02*
D03*
Y30350D02*
D03*
X29500Y25100D02*
D03*
Y25350D02*
D03*
Y25600D02*
D03*
Y25850D02*
D03*
Y26100D02*
D03*
Y26350D02*
D03*
Y26600D02*
D03*
Y26850D02*
D03*
Y27100D02*
D03*
Y27350D02*
D03*
Y27600D02*
D03*
Y27850D02*
D03*
Y28100D02*
D03*
Y28350D02*
D03*
Y28600D02*
D03*
Y28850D02*
D03*
Y29100D02*
D03*
Y29350D02*
D03*
Y29600D02*
D03*
Y29850D02*
D03*
Y30100D02*
D03*
Y30350D02*
D03*
M02*
