G04*
G04 #@! TF.GenerationSoftware,Altium Limited,Altium Designer,20.2.7 (254)*
G04*
G04 Layer_Color=32896*
%FSLAX24Y24*%
%MOIN*%
G70*
G04*
G04 #@! TF.SameCoordinates,1EA883F8-83C0-4C25-9ED1-4D81CC3EECC2*
G04*
G04*
G04 #@! TF.FilePolarity,Positive*
G04*
G01*
G75*
%ADD15C,0.0100*%
%ADD16C,0.0050*%
G36*
X38560Y31720D02*
Y31640D01*
X38480D01*
Y31720D01*
Y31800D01*
X38560D01*
Y31720D01*
D02*
G37*
G36*
X38960Y32120D02*
X39040D01*
Y32040D01*
Y31960D01*
X39120D01*
Y31880D01*
Y31800D01*
Y31720D01*
X39200D01*
Y31640D01*
Y31560D01*
Y31480D01*
X39280D01*
Y31400D01*
Y31320D01*
Y31240D01*
Y31160D01*
X39200D01*
Y31240D01*
Y31320D01*
Y31400D01*
Y31480D01*
X39120D01*
Y31560D01*
Y31640D01*
Y31720D01*
X39040D01*
Y31800D01*
Y31880D01*
X38960D01*
Y31960D01*
Y32040D01*
X38800D01*
Y31960D01*
X38720D01*
Y31880D01*
X38640D01*
Y31960D01*
Y32040D01*
X38720D01*
Y32120D01*
X38800D01*
Y32200D01*
X38960D01*
Y32120D01*
D02*
G37*
G36*
X39360Y30920D02*
Y30840D01*
Y30760D01*
X39280D01*
Y30840D01*
Y30920D01*
Y31000D01*
X39360D01*
Y30920D01*
D02*
G37*
G36*
X33360Y30840D02*
Y30760D01*
X33280D01*
Y30840D01*
Y30920D01*
X33360D01*
Y30840D01*
D02*
G37*
G36*
X38640Y30920D02*
Y30840D01*
X38560D01*
Y30760D01*
Y30680D01*
Y30600D01*
X38400D01*
Y30680D01*
Y30760D01*
Y30840D01*
X38480D01*
Y30920D01*
X38560D01*
Y31000D01*
X38640D01*
Y30920D01*
D02*
G37*
G36*
X38480Y31560D02*
Y31480D01*
Y31400D01*
X38400D01*
Y31320D01*
Y31240D01*
X38320D01*
Y31160D01*
Y31080D01*
Y31000D01*
X38240D01*
Y30920D01*
Y30840D01*
Y30760D01*
X38160D01*
Y30680D01*
Y30600D01*
Y30520D01*
X38000D01*
Y30600D01*
X37840D01*
Y30680D01*
X38080D01*
Y30760D01*
Y30840D01*
Y30920D01*
X38160D01*
Y31000D01*
Y31080D01*
X38240D01*
Y31160D01*
Y31240D01*
Y31320D01*
X38320D01*
Y31400D01*
Y31480D01*
X38400D01*
Y31560D01*
Y31640D01*
X38480D01*
Y31560D01*
D02*
G37*
G36*
X37920Y30360D02*
Y30280D01*
Y30200D01*
X37440D01*
Y30280D01*
X36880D01*
Y30200D01*
X36560D01*
Y30280D01*
X36800D01*
Y30360D01*
X37120D01*
Y30440D01*
X37920D01*
Y30360D01*
D02*
G37*
G36*
X37120Y30040D02*
X37600D01*
Y29960D01*
X37840D01*
Y29880D01*
X37600D01*
Y29960D01*
X37360D01*
Y29880D01*
X37520D01*
Y29800D01*
X37600D01*
Y29720D01*
X37680D01*
Y29640D01*
X37600D01*
Y29720D01*
X37440D01*
Y29800D01*
X37280D01*
Y29880D01*
X37120D01*
Y29960D01*
X36880D01*
Y30040D01*
Y30120D01*
X37120D01*
Y30040D01*
D02*
G37*
G36*
X35840D02*
X36080D01*
Y29960D01*
X36240D01*
Y29880D01*
X35840D01*
Y29960D01*
X35760D01*
Y30040D01*
X35680D01*
Y30120D01*
X35840D01*
Y30040D01*
D02*
G37*
G36*
X33280Y30680D02*
Y30600D01*
Y30520D01*
Y30440D01*
Y30360D01*
Y30280D01*
Y30200D01*
Y30120D01*
Y30040D01*
Y29960D01*
Y29880D01*
X33200D01*
Y29960D01*
Y30040D01*
Y30120D01*
Y30200D01*
Y30280D01*
Y30360D01*
Y30440D01*
Y30520D01*
Y30600D01*
Y30680D01*
Y30760D01*
X33280D01*
Y30680D01*
D02*
G37*
G36*
X38800Y30280D02*
X38960D01*
Y30200D01*
X39120D01*
Y30120D01*
X39200D01*
Y30040D01*
X39280D01*
Y29960D01*
X39360D01*
Y29880D01*
X39440D01*
Y29800D01*
X39360D01*
Y29880D01*
X39280D01*
Y29960D01*
X39200D01*
Y30040D01*
X39040D01*
Y30120D01*
X38960D01*
Y30040D01*
Y29960D01*
Y29880D01*
Y29800D01*
Y29720D01*
X38880D01*
Y29800D01*
Y29880D01*
Y29960D01*
X38800D01*
Y30040D01*
Y30120D01*
X38720D01*
Y30200D01*
X38640D01*
Y30280D01*
X38560D01*
Y30360D01*
X38800D01*
Y30280D01*
D02*
G37*
G36*
X38320D02*
X38400D01*
Y30200D01*
X38480D01*
Y30120D01*
X38560D01*
Y30040D01*
Y29960D01*
X38640D01*
Y29880D01*
Y29800D01*
X38720D01*
Y29720D01*
X38640D01*
Y29800D01*
X38560D01*
Y29880D01*
Y29960D01*
X38480D01*
Y30040D01*
X38400D01*
Y30120D01*
X38320D01*
Y30040D01*
Y29960D01*
Y29880D01*
Y29800D01*
Y29720D01*
Y29640D01*
X38240D01*
Y29720D01*
X38080D01*
Y29800D01*
X37920D01*
Y29880D01*
X38160D01*
Y29960D01*
Y30040D01*
Y30120D01*
Y30200D01*
Y30280D01*
Y30360D01*
X38320D01*
Y30280D01*
D02*
G37*
G36*
X36880Y29720D02*
X37120D01*
Y29640D01*
X37280D01*
Y29560D01*
X37120D01*
Y29640D01*
X36800D01*
Y29720D01*
X36640D01*
Y29640D01*
X36720D01*
Y29560D01*
X36800D01*
Y29480D01*
X36880D01*
Y29400D01*
X36800D01*
Y29320D01*
X36640D01*
Y29240D01*
X36480D01*
Y29160D01*
X36320D01*
Y29080D01*
X36240D01*
Y29000D01*
X36080D01*
Y28920D01*
X36000D01*
Y28840D01*
X35920D01*
Y28760D01*
X35840D01*
Y28680D01*
X35760D01*
Y28600D01*
X35680D01*
Y28520D01*
X35600D01*
Y28440D01*
X35520D01*
Y28360D01*
Y28280D01*
X35440D01*
Y28360D01*
Y28440D01*
Y28520D01*
Y28600D01*
X35520D01*
Y28680D01*
Y28760D01*
X35600D01*
Y28840D01*
X35680D01*
Y28920D01*
Y29000D01*
X35760D01*
Y29080D01*
X35840D01*
Y29160D01*
X35920D01*
Y29240D01*
X36080D01*
Y29320D01*
X36160D01*
Y29400D01*
X36400D01*
Y29480D01*
X36560D01*
Y29560D01*
X36400D01*
Y29640D01*
X36320D01*
Y29720D01*
X35920D01*
Y29800D01*
X36880D01*
Y29720D01*
D02*
G37*
G36*
X33360Y29640D02*
Y29560D01*
X33280D01*
Y29640D01*
Y29720D01*
X33360D01*
Y29640D01*
D02*
G37*
G36*
X39520Y29560D02*
X39600D01*
Y29480D01*
X39200D01*
Y29560D01*
X39280D01*
Y29640D01*
X39520D01*
Y29560D01*
D02*
G37*
G36*
X34880Y29800D02*
X35040D01*
Y29720D01*
X35200D01*
Y29640D01*
X35280D01*
Y29560D01*
X35360D01*
Y29480D01*
Y29400D01*
X34800D01*
Y29480D01*
X35120D01*
Y29560D01*
X35040D01*
Y29640D01*
X34960D01*
Y29720D01*
X34880D01*
Y29800D01*
X34720D01*
Y29880D01*
X34880D01*
Y29800D01*
D02*
G37*
G36*
X39120Y29320D02*
Y29240D01*
X39040D01*
Y29320D01*
Y29400D01*
X39120D01*
Y29320D01*
D02*
G37*
G36*
X39760Y29160D02*
Y29080D01*
Y29000D01*
X39680D01*
Y29080D01*
Y29160D01*
Y29240D01*
X39760D01*
Y29160D01*
D02*
G37*
G36*
X39440Y29240D02*
Y29160D01*
Y29080D01*
Y29000D01*
X39280D01*
Y29080D01*
X39200D01*
Y29160D01*
Y29240D01*
Y29320D01*
X39440D01*
Y29240D01*
D02*
G37*
G36*
X33600Y31000D02*
X33840D01*
Y30920D01*
X34080D01*
Y30840D01*
X34240D01*
Y30760D01*
X34400D01*
Y30680D01*
X34560D01*
Y30600D01*
X34640D01*
Y30520D01*
X34800D01*
Y30440D01*
X34960D01*
Y30360D01*
X35040D01*
Y30280D01*
X35200D01*
Y30200D01*
X35280D01*
Y30120D01*
X35440D01*
Y30040D01*
X35520D01*
Y29960D01*
X35600D01*
Y29880D01*
Y29800D01*
X35680D01*
Y29720D01*
Y29640D01*
Y29560D01*
Y29480D01*
Y29400D01*
Y29320D01*
X35600D01*
Y29240D01*
Y29160D01*
Y29080D01*
X35520D01*
Y29000D01*
Y28920D01*
X35440D01*
Y29000D01*
Y29080D01*
Y29160D01*
X35520D01*
Y29240D01*
Y29320D01*
Y29400D01*
Y29480D01*
Y29560D01*
Y29640D01*
X35440D01*
Y29720D01*
Y29800D01*
X35360D01*
Y29880D01*
X35280D01*
Y29960D01*
X35200D01*
Y30040D01*
X35120D01*
Y30120D01*
X35040D01*
Y30200D01*
X34960D01*
Y30280D01*
X34800D01*
Y30360D01*
X34720D01*
Y30440D01*
X34560D01*
Y30520D01*
X34480D01*
Y30600D01*
X34320D01*
Y30680D01*
X34160D01*
Y30760D01*
X34000D01*
Y30840D01*
X33760D01*
Y30920D01*
X33360D01*
Y31000D01*
Y31080D01*
X33600D01*
Y31000D01*
D02*
G37*
G36*
X39120Y28920D02*
X39280D01*
Y28840D01*
Y28760D01*
X39200D01*
Y28840D01*
X39120D01*
Y28920D01*
X39040D01*
Y29000D01*
X39120D01*
Y28920D01*
D02*
G37*
G36*
X35360Y29080D02*
X35280D01*
Y29000D01*
X35200D01*
Y28920D01*
X35120D01*
Y28840D01*
X35040D01*
Y28760D01*
X34960D01*
Y28840D01*
Y28920D01*
X35040D01*
Y29000D01*
X35120D01*
Y29080D01*
X34720D01*
Y29160D01*
X35360D01*
Y29080D01*
D02*
G37*
G36*
X35440Y28840D02*
Y28760D01*
X35360D01*
Y28680D01*
X35280D01*
Y28760D01*
Y28840D01*
X35360D01*
Y28920D01*
X35440D01*
Y28840D01*
D02*
G37*
G36*
X36480Y28680D02*
Y28600D01*
X36400D01*
Y28680D01*
Y28760D01*
X36480D01*
Y28680D01*
D02*
G37*
G36*
X37280Y29080D02*
X37440D01*
Y29000D01*
X37600D01*
Y28920D01*
Y28840D01*
X37680D01*
Y28760D01*
X37760D01*
Y28680D01*
X37840D01*
Y28600D01*
X37920D01*
Y28520D01*
X37680D01*
Y28600D01*
X37600D01*
Y28520D01*
X37520D01*
Y28600D01*
Y28680D01*
Y28760D01*
Y28840D01*
X37440D01*
Y28920D01*
X37360D01*
Y29000D01*
X37200D01*
Y29080D01*
X36880D01*
Y29160D01*
X37280D01*
Y29080D01*
D02*
G37*
G36*
X37120Y28840D02*
X37200D01*
Y28760D01*
Y28680D01*
Y28600D01*
Y28520D01*
X36960D01*
Y28600D01*
Y28680D01*
Y28760D01*
Y28840D01*
Y28920D01*
X37120D01*
Y28840D01*
D02*
G37*
G36*
X38000Y29240D02*
X38080D01*
Y29160D01*
X38240D01*
Y29080D01*
X38320D01*
Y29000D01*
X38400D01*
Y28920D01*
Y28840D01*
X38480D01*
Y28760D01*
Y28680D01*
Y28600D01*
Y28520D01*
X38400D01*
Y28440D01*
X38160D01*
Y28520D01*
Y28600D01*
X38240D01*
Y28680D01*
Y28760D01*
Y28840D01*
Y28920D01*
Y29000D01*
X38160D01*
Y29080D01*
X38080D01*
Y29160D01*
X38000D01*
Y29240D01*
X37920D01*
Y29320D01*
X38000D01*
Y29240D01*
D02*
G37*
G36*
X39920Y29560D02*
Y29480D01*
X40000D01*
Y29400D01*
X40080D01*
Y29320D01*
X40160D01*
Y29240D01*
Y29160D01*
X40240D01*
Y29080D01*
Y29000D01*
Y28920D01*
X40320D01*
Y28840D01*
X40080D01*
Y28760D01*
X40160D01*
Y28680D01*
X40240D01*
Y28600D01*
X40320D01*
Y28520D01*
Y28440D01*
X40400D01*
Y28360D01*
X40320D01*
Y28440D01*
X40240D01*
Y28520D01*
X40160D01*
Y28600D01*
X40000D01*
Y28680D01*
X39920D01*
Y28760D01*
X39680D01*
Y28840D01*
X39760D01*
Y28920D01*
X39840D01*
Y29000D01*
X39920D01*
Y29080D01*
X40000D01*
Y29160D01*
Y29240D01*
X39920D01*
Y29320D01*
Y29400D01*
X39840D01*
Y29480D01*
Y29560D01*
X39760D01*
Y29640D01*
X39920D01*
Y29560D01*
D02*
G37*
G36*
X39040Y28200D02*
Y28120D01*
X38800D01*
Y28200D01*
X38720D01*
Y28280D01*
X38800D01*
Y28200D01*
X38960D01*
Y28280D01*
X39040D01*
Y28200D01*
D02*
G37*
G36*
X35440D02*
Y28120D01*
X35360D01*
Y28200D01*
Y28280D01*
X35440D01*
Y28200D01*
D02*
G37*
G36*
X39920Y28520D02*
X40080D01*
Y28440D01*
X40160D01*
Y28360D01*
X40240D01*
Y28280D01*
X40320D01*
Y28200D01*
X40400D01*
Y28120D01*
Y28040D01*
X40480D01*
Y27960D01*
X40560D01*
Y27880D01*
Y27800D01*
X40480D01*
Y27880D01*
X40400D01*
Y27800D01*
Y27720D01*
Y27640D01*
Y27560D01*
Y27480D01*
Y27400D01*
X40320D01*
Y27320D01*
Y27240D01*
X40240D01*
Y27160D01*
X40160D01*
Y27080D01*
X40080D01*
Y27160D01*
Y27240D01*
X40160D01*
Y27320D01*
Y27400D01*
Y27480D01*
X40240D01*
Y27560D01*
Y27640D01*
Y27720D01*
Y27800D01*
Y27880D01*
X40160D01*
Y27960D01*
Y28040D01*
Y28120D01*
X40080D01*
Y28200D01*
Y28280D01*
X40000D01*
Y28360D01*
Y28440D01*
X39920D01*
Y28520D01*
X39840D01*
Y28600D01*
X39920D01*
Y28520D01*
D02*
G37*
G36*
X39360Y27880D02*
Y27800D01*
X39280D01*
Y27880D01*
X39200D01*
Y27960D01*
X39360D01*
Y27880D01*
D02*
G37*
G36*
X39440Y27480D02*
X39520D01*
Y27400D01*
X39600D01*
Y27320D01*
X39520D01*
Y27400D01*
X39200D01*
Y27480D01*
X39280D01*
Y27560D01*
X39440D01*
Y27480D01*
D02*
G37*
G36*
X36240Y28520D02*
Y28440D01*
X36160D01*
Y28360D01*
Y28280D01*
X36960D01*
Y28200D01*
X36720D01*
Y28120D01*
X36560D01*
Y28040D01*
X36320D01*
Y27960D01*
X36240D01*
Y27880D01*
X36080D01*
Y27800D01*
X36000D01*
Y27720D01*
X35920D01*
Y27640D01*
X35760D01*
Y27560D01*
Y27480D01*
X35680D01*
Y27400D01*
X35600D01*
Y27320D01*
X35520D01*
Y27400D01*
Y27480D01*
X35600D01*
Y27560D01*
Y27640D01*
Y27720D01*
X35680D01*
Y27800D01*
Y27880D01*
X35760D01*
Y27960D01*
Y28040D01*
Y28120D01*
X35840D01*
Y28200D01*
X35920D01*
Y28280D01*
Y28360D01*
X36000D01*
Y28440D01*
X36080D01*
Y28520D01*
X36160D01*
Y28600D01*
X36240D01*
Y28520D01*
D02*
G37*
G36*
X37600Y28200D02*
X37520D01*
Y28120D01*
Y28040D01*
X37440D01*
Y27960D01*
X37360D01*
Y27880D01*
X37280D01*
Y27800D01*
Y27720D01*
X37200D01*
Y27640D01*
X37120D01*
Y27560D01*
X37040D01*
Y27480D01*
X36880D01*
Y27400D01*
X36800D01*
Y27320D01*
X36720D01*
Y27240D01*
X36560D01*
Y27160D01*
X36320D01*
Y27240D01*
X36480D01*
Y27320D01*
X36560D01*
Y27400D01*
X36720D01*
Y27480D01*
X36800D01*
Y27560D01*
Y27640D01*
X36880D01*
Y27720D01*
X36560D01*
Y27640D01*
X36400D01*
Y27560D01*
X36320D01*
Y27480D01*
X36240D01*
Y27400D01*
X36080D01*
Y27320D01*
X36000D01*
Y27240D01*
X35920D01*
Y27320D01*
Y27400D01*
X36000D01*
Y27480D01*
X36080D01*
Y27560D01*
X36160D01*
Y27640D01*
X36240D01*
Y27720D01*
X36320D01*
Y27800D01*
X36400D01*
Y27880D01*
X36560D01*
Y27960D01*
X36640D01*
Y28040D01*
X36800D01*
Y28120D01*
X37040D01*
Y28200D01*
X37280D01*
Y28280D01*
X37600D01*
Y28200D01*
D02*
G37*
G36*
X34880Y27480D02*
X34800D01*
Y27400D01*
X34720D01*
Y27320D01*
X34640D01*
Y27240D01*
X34560D01*
Y27160D01*
X34480D01*
Y27240D01*
Y27320D01*
X34560D01*
Y27400D01*
X34480D01*
Y27480D01*
X34320D01*
Y27560D01*
X34880D01*
Y27480D01*
D02*
G37*
G36*
X35360D02*
Y27400D01*
Y27320D01*
Y27240D01*
X35280D01*
Y27160D01*
Y27080D01*
Y27000D01*
Y26920D01*
Y26840D01*
X35200D01*
Y26760D01*
Y26680D01*
X35680D01*
Y26760D01*
X35920D01*
Y26840D01*
X36160D01*
Y26760D01*
X36080D01*
Y26680D01*
X35920D01*
Y26600D01*
X35680D01*
Y26520D01*
X35360D01*
Y26440D01*
X34800D01*
Y26520D01*
X34880D01*
Y26600D01*
X34960D01*
Y26680D01*
Y26760D01*
X35040D01*
Y26840D01*
Y26920D01*
X35120D01*
Y27000D01*
Y27080D01*
Y27160D01*
X35200D01*
Y27240D01*
Y27320D01*
X35280D01*
Y27400D01*
Y27480D01*
Y27560D01*
X35360D01*
Y27480D01*
D02*
G37*
G36*
X39680Y26520D02*
Y26440D01*
Y26360D01*
X39600D01*
Y26440D01*
Y26520D01*
Y26600D01*
X39680D01*
Y26520D01*
D02*
G37*
G36*
X37680Y27720D02*
Y27640D01*
X37600D01*
Y27560D01*
Y27480D01*
X37520D01*
Y27400D01*
Y27320D01*
X37440D01*
Y27240D01*
Y27160D01*
X37360D01*
Y27080D01*
X37280D01*
Y27000D01*
X37200D01*
Y26920D01*
X37120D01*
Y26840D01*
X37040D01*
Y26760D01*
Y26680D01*
X37280D01*
Y26600D01*
X37440D01*
Y26520D01*
X37200D01*
Y26440D01*
X36800D01*
Y26360D01*
X36160D01*
Y26280D01*
X35760D01*
Y26360D01*
X35920D01*
Y26440D01*
X36080D01*
Y26520D01*
X36240D01*
Y26600D01*
X36400D01*
Y26680D01*
X36480D01*
Y26760D01*
X36640D01*
Y26840D01*
X36720D01*
Y26920D01*
X36800D01*
Y27000D01*
X36960D01*
Y27080D01*
X37040D01*
Y27160D01*
X37120D01*
Y27240D01*
X37200D01*
Y27320D01*
X37280D01*
Y27400D01*
X37360D01*
Y27480D01*
X37440D01*
Y27560D01*
X37520D01*
Y27640D01*
Y27720D01*
X37600D01*
Y27800D01*
X37680D01*
Y27720D01*
D02*
G37*
G36*
X39600Y26280D02*
Y26200D01*
X39520D01*
Y26280D01*
Y26360D01*
X39600D01*
Y26280D01*
D02*
G37*
G36*
X40640Y27080D02*
Y27000D01*
Y26920D01*
Y26840D01*
Y26760D01*
Y26680D01*
Y26600D01*
X40560D01*
Y26520D01*
Y26440D01*
X40480D01*
Y26360D01*
X40400D01*
Y26280D01*
X40320D01*
Y26200D01*
X40560D01*
Y26120D01*
X40800D01*
Y26040D01*
X40000D01*
Y25960D01*
X39760D01*
Y25880D01*
X39600D01*
Y25960D01*
X39680D01*
Y26040D01*
X39760D01*
Y26120D01*
X39840D01*
Y26200D01*
X40000D01*
Y26280D01*
X40080D01*
Y26360D01*
X40240D01*
Y26440D01*
X40320D01*
Y26520D01*
X40400D01*
Y26600D01*
Y26680D01*
X40480D01*
Y26760D01*
Y26840D01*
X40560D01*
Y26920D01*
Y27000D01*
Y27080D01*
Y27160D01*
X40640D01*
Y27080D01*
D02*
G37*
G36*
X39440Y26040D02*
Y25960D01*
X39360D01*
Y25880D01*
X38320D01*
Y25960D01*
X39280D01*
Y26040D01*
X39360D01*
Y26120D01*
X39440D01*
Y26040D01*
D02*
G37*
G36*
X34880Y27000D02*
X34800D01*
Y26920D01*
Y26840D01*
Y26760D01*
X34720D01*
Y26680D01*
Y26600D01*
Y26520D01*
X34640D01*
Y26440D01*
Y26360D01*
Y26280D01*
X34560D01*
Y26200D01*
Y26120D01*
Y26040D01*
Y25960D01*
Y25880D01*
Y25800D01*
X34480D01*
Y25880D01*
Y25960D01*
Y26040D01*
Y26120D01*
Y26200D01*
Y26280D01*
Y26360D01*
Y26440D01*
Y26520D01*
Y26600D01*
X34400D01*
Y26680D01*
Y26760D01*
X34480D01*
Y26840D01*
X34560D01*
Y26920D01*
X34640D01*
Y27000D01*
X34720D01*
Y27080D01*
X34880D01*
Y27000D01*
D02*
G37*
G36*
X35520Y26040D02*
X36160D01*
Y25960D01*
X37360D01*
Y25880D01*
X37200D01*
Y25800D01*
X36960D01*
Y25720D01*
X36560D01*
Y25640D01*
X36080D01*
Y25720D01*
X36240D01*
Y25800D01*
X36320D01*
Y25880D01*
X35840D01*
Y25960D01*
X35520D01*
Y26040D01*
X35360D01*
Y26120D01*
X35520D01*
Y26040D01*
D02*
G37*
G36*
X34880Y26120D02*
X34960D01*
Y26040D01*
X35040D01*
Y25960D01*
X35120D01*
Y25880D01*
X35280D01*
Y25800D01*
X35440D01*
Y25720D01*
X35520D01*
Y25640D01*
X35440D01*
Y25720D01*
X34960D01*
Y25800D01*
X34880D01*
Y25720D01*
Y25640D01*
Y25560D01*
X34960D01*
Y25480D01*
Y25400D01*
Y25320D01*
X35040D01*
Y25240D01*
X34960D01*
Y25320D01*
X34880D01*
Y25400D01*
X34800D01*
Y25480D01*
Y25560D01*
Y25640D01*
Y25720D01*
Y25800D01*
X34720D01*
Y25880D01*
Y25960D01*
Y26040D01*
Y26120D01*
X34800D01*
Y26200D01*
X34880D01*
Y26120D01*
D02*
G37*
G36*
X41200Y25160D02*
X41120D01*
Y25080D01*
X40960D01*
Y25160D01*
X41040D01*
Y25240D01*
X41200D01*
Y25160D01*
D02*
G37*
G36*
X35360Y25400D02*
X35440D01*
Y25320D01*
X35680D01*
Y25240D01*
X35920D01*
Y25160D01*
X36240D01*
Y25080D01*
X35680D01*
Y25160D01*
X35520D01*
Y25080D01*
X35600D01*
Y25000D01*
X35680D01*
Y24920D01*
Y24840D01*
X35840D01*
Y24760D01*
X35920D01*
Y24680D01*
X36000D01*
Y24600D01*
X36160D01*
Y24520D01*
X36400D01*
Y24440D01*
X36640D01*
Y24360D01*
X37200D01*
Y24280D01*
X36320D01*
Y24360D01*
X36080D01*
Y24440D01*
X35920D01*
Y24520D01*
X35760D01*
Y24600D01*
X35680D01*
Y24680D01*
X35600D01*
Y24760D01*
X35520D01*
Y24840D01*
X35440D01*
Y24920D01*
X35360D01*
Y25000D01*
Y25080D01*
Y25160D01*
X35280D01*
Y25240D01*
Y25320D01*
Y25400D01*
Y25480D01*
X35360D01*
Y25400D01*
D02*
G37*
G36*
X38320D02*
X38240D01*
Y25320D01*
X38160D01*
Y25240D01*
X38080D01*
Y25160D01*
X37920D01*
Y25080D01*
X37760D01*
Y25000D01*
X37520D01*
Y24920D01*
X37120D01*
Y24840D01*
X36320D01*
Y24920D01*
X36960D01*
Y25000D01*
X37280D01*
Y25080D01*
X37440D01*
Y25160D01*
X37520D01*
Y25240D01*
X37360D01*
Y25320D01*
X36480D01*
Y25400D01*
X36800D01*
Y25480D01*
X38320D01*
Y25400D01*
D02*
G37*
G36*
X40320Y25640D02*
X40160D01*
Y25560D01*
X40000D01*
Y25480D01*
X39920D01*
Y25400D01*
X39840D01*
Y25320D01*
X39760D01*
Y25240D01*
X39680D01*
Y25160D01*
X40000D01*
Y25080D01*
X39840D01*
Y25000D01*
X39680D01*
Y24920D01*
X39520D01*
Y24840D01*
X39360D01*
Y24760D01*
X39280D01*
Y24840D01*
Y24920D01*
Y25000D01*
X39360D01*
Y25080D01*
Y25160D01*
Y25240D01*
X39440D01*
Y25320D01*
X39520D01*
Y25400D01*
Y25480D01*
X39680D01*
Y25560D01*
X39760D01*
Y25640D01*
X39920D01*
Y25720D01*
X40320D01*
Y25640D01*
D02*
G37*
G36*
X41120Y25960D02*
Y25880D01*
Y25800D01*
Y25720D01*
Y25640D01*
X41040D01*
Y25560D01*
Y25480D01*
X40960D01*
Y25400D01*
Y25320D01*
X40880D01*
Y25240D01*
X40800D01*
Y25160D01*
X40720D01*
Y25080D01*
X40960D01*
Y25000D01*
X40800D01*
Y24920D01*
X40640D01*
Y24840D01*
X40400D01*
Y24760D01*
X40080D01*
Y24680D01*
X39680D01*
Y24760D01*
X39840D01*
Y24840D01*
X40000D01*
Y24920D01*
X40080D01*
Y25000D01*
X40240D01*
Y25080D01*
X40320D01*
Y25160D01*
X40480D01*
Y25240D01*
X40560D01*
Y25320D01*
X40640D01*
Y25400D01*
X40720D01*
Y25480D01*
X40800D01*
Y25560D01*
Y25640D01*
X40880D01*
Y25720D01*
X40960D01*
Y25800D01*
Y25880D01*
X41040D01*
Y25960D01*
Y26040D01*
X41120D01*
Y25960D01*
D02*
G37*
G36*
X34880Y24920D02*
Y24840D01*
X34960D01*
Y24760D01*
X35040D01*
Y24680D01*
X35120D01*
Y24600D01*
X35280D01*
Y24520D01*
X35360D01*
Y24440D01*
X35440D01*
Y24360D01*
X35600D01*
Y24280D01*
X35760D01*
Y24200D01*
X35200D01*
Y24280D01*
X34800D01*
Y24360D01*
X34560D01*
Y24440D01*
X34480D01*
Y24520D01*
X34720D01*
Y24440D01*
X35040D01*
Y24520D01*
X34960D01*
Y24600D01*
X34880D01*
Y24680D01*
X34800D01*
Y24760D01*
Y24840D01*
Y24920D01*
Y25000D01*
X34880D01*
Y24920D01*
D02*
G37*
G36*
X39040Y25240D02*
Y25160D01*
Y25080D01*
Y25000D01*
Y24920D01*
X38960D01*
Y24840D01*
Y24760D01*
Y24680D01*
Y24600D01*
Y24520D01*
X38880D01*
Y24440D01*
Y24360D01*
X38800D01*
Y24280D01*
X38720D01*
Y24200D01*
X38480D01*
Y24280D01*
X38560D01*
Y24360D01*
X38640D01*
Y24440D01*
Y24520D01*
X38720D01*
Y24600D01*
Y24680D01*
Y24760D01*
Y24840D01*
X38800D01*
Y24920D01*
X38640D01*
Y24840D01*
X38480D01*
Y24760D01*
X38160D01*
Y24680D01*
X37840D01*
Y24760D01*
X38080D01*
Y24840D01*
X38240D01*
Y24920D01*
X38400D01*
Y25000D01*
X38560D01*
Y25080D01*
X38720D01*
Y25160D01*
X38800D01*
Y25240D01*
X38880D01*
Y25320D01*
X39040D01*
Y25240D01*
D02*
G37*
G36*
X39600Y24280D02*
X39520D01*
Y24200D01*
X39360D01*
Y24120D01*
X39280D01*
Y24040D01*
X39200D01*
Y23960D01*
X39120D01*
Y23880D01*
X39040D01*
Y23800D01*
X38960D01*
Y23720D01*
Y23640D01*
X38880D01*
Y23560D01*
X38800D01*
Y23480D01*
X38720D01*
Y23400D01*
Y23320D01*
X38640D01*
Y23240D01*
X38560D01*
Y23160D01*
Y23080D01*
X38400D01*
Y23160D01*
X38240D01*
Y23240D01*
X38160D01*
Y23320D01*
X38000D01*
Y23400D01*
X37840D01*
Y23480D01*
X37680D01*
Y23560D01*
X37520D01*
Y23640D01*
X37280D01*
Y23720D01*
X37120D01*
Y23800D01*
X36800D01*
Y23880D01*
X37600D01*
Y23800D01*
X37840D01*
Y23720D01*
X38000D01*
Y23640D01*
X38160D01*
Y23560D01*
X38320D01*
Y23480D01*
X38400D01*
Y23560D01*
X38480D01*
Y23640D01*
X38560D01*
Y23720D01*
X38640D01*
Y23800D01*
X38720D01*
Y23880D01*
X38800D01*
Y23960D01*
X38880D01*
Y24040D01*
X39040D01*
Y24120D01*
X39120D01*
Y24200D01*
X39280D01*
Y24280D01*
X39440D01*
Y24360D01*
X39600D01*
Y24280D01*
D02*
G37*
G36*
X40431Y22335D02*
X40040Y21928D01*
X40028Y21817D01*
X40002Y21551D01*
X39984Y21359D01*
X40403Y20926D01*
X40375Y20898D01*
X39979Y21303D01*
X39956Y21056D01*
X39945D01*
Y20961D01*
X39857D01*
Y21056D01*
X39584D01*
X39574Y21037D01*
X39561Y21019D01*
X39542Y20998D01*
X39517Y20979D01*
X39486Y20970D01*
X39459Y20968D01*
X39431D01*
X39410Y20975D01*
X39385Y20984D01*
X39364Y20998D01*
X39348Y21014D01*
X39331Y21037D01*
X39320Y21063D01*
X39313Y21086D01*
X39311Y21107D01*
X39313Y21130D01*
X39318Y21148D01*
X39324Y21167D01*
X39334Y21185D01*
X39345Y21201D01*
X39362Y21218D01*
X39380Y21229D01*
X39396Y21236D01*
X39394Y21257D01*
X39047Y20898D01*
X39019Y20928D01*
X39389Y21313D01*
X39359Y21648D01*
X39338Y21891D01*
X39227D01*
Y22046D01*
X39257D01*
X38975Y22335D01*
X39005Y22363D01*
X39269Y22090D01*
Y22111D01*
X39264Y22115D01*
X39257Y22120D01*
X39250Y22127D01*
X39244Y22134D01*
X39239Y22146D01*
X39237Y22155D01*
X39234Y22166D01*
X39237Y22180D01*
X39241Y22190D01*
X39250Y22206D01*
X39262Y22215D01*
X39278Y22222D01*
X39294Y22224D01*
X39311Y22222D01*
X39324Y22217D01*
X39336Y22210D01*
X39341Y22203D01*
X39352Y22213D01*
X39368Y22224D01*
X39389Y22234D01*
X39419Y22245D01*
X39452Y22254D01*
X39484Y22261D01*
X39519Y22268D01*
X39547Y22271D01*
Y22305D01*
X39769D01*
Y22275D01*
X39787D01*
X39815Y22273D01*
X39845Y22268D01*
X39875Y22264D01*
Y22282D01*
X39970D01*
Y22238D01*
X39982Y22231D01*
X39998Y22224D01*
X40014Y22215D01*
X40028Y22206D01*
X40042Y22194D01*
X40051Y22185D01*
X40056Y22178D01*
X40060Y22169D01*
X40058Y22153D01*
X40114D01*
Y22081D01*
X40053D01*
X40044Y21991D01*
X40403Y22363D01*
X40431Y22335D01*
D02*
G37*
G36*
X43608Y22210D02*
X43624Y22208D01*
X43638Y22203D01*
X43647Y22199D01*
X43656Y22194D01*
X43661Y22192D01*
X43663Y22190D01*
X43672Y22185D01*
X43677Y22183D01*
X43698Y22164D01*
X43716Y22143D01*
X43726Y22129D01*
X43730Y22125D01*
Y22122D01*
X44427Y20915D01*
X44429D01*
Y20912D01*
Y20910D01*
X44434Y20901D01*
X44438Y20894D01*
X44441Y20889D01*
Y20887D01*
X44443Y20880D01*
X44445Y20871D01*
X44448Y20864D01*
Y20861D01*
X44450Y20836D01*
Y20813D01*
X44448Y20792D01*
X44443Y20773D01*
X44436Y20757D01*
X44431Y20746D01*
X44429Y20739D01*
X44427Y20736D01*
X44418Y20720D01*
X44415Y20716D01*
X44413Y20713D01*
X44401Y20702D01*
X44397Y20697D01*
X44394Y20695D01*
X44374Y20679D01*
X44353Y20667D01*
X44332Y20658D01*
X44311Y20653D01*
X44295Y20648D01*
X44281Y20646D01*
X42872D01*
X42860Y20648D01*
X42851D01*
X42849Y20651D01*
X42839D01*
X42830Y20653D01*
X42823Y20655D01*
X42821D01*
X42798Y20665D01*
X42777Y20676D01*
X42761Y20690D01*
X42747Y20704D01*
X42735Y20716D01*
X42728Y20727D01*
X42724Y20734D01*
X42721Y20736D01*
X42719D01*
X42715Y20748D01*
X42710Y20755D01*
X42708Y20759D01*
Y20762D01*
X42705Y20771D01*
X42703Y20780D01*
X42701Y20785D01*
Y20787D01*
X42698Y20813D01*
Y20836D01*
X42701Y20859D01*
X42705Y20877D01*
X42712Y20894D01*
X42717Y20908D01*
X42719Y20915D01*
X42721Y20917D01*
X43420Y22127D01*
X43430Y22141D01*
X43432Y22146D01*
X43434Y22148D01*
X43446Y22159D01*
X43450Y22164D01*
X43453Y22166D01*
X43473Y22183D01*
X43492Y22194D01*
X43513Y22203D01*
X43531Y22208D01*
X43548Y22213D01*
X43561Y22215D01*
X43592D01*
X43608Y22210D01*
D02*
G37*
G36*
X41456Y22210D02*
X41472Y22208D01*
X41486Y22203D01*
X41495Y22199D01*
X41504Y22194D01*
X41509Y22192D01*
X41511Y22190D01*
X41520Y22185D01*
X41525Y22183D01*
X41546Y22164D01*
X41564Y22143D01*
X41574Y22129D01*
X41578Y22125D01*
Y22122D01*
X42275Y20915D01*
X42277D01*
Y20912D01*
Y20910D01*
X42282Y20901D01*
X42286Y20894D01*
X42289Y20889D01*
Y20887D01*
X42291Y20880D01*
X42293Y20871D01*
X42296Y20864D01*
Y20861D01*
X42298Y20836D01*
Y20813D01*
X42296Y20792D01*
X42291Y20773D01*
X42284Y20757D01*
X42279Y20746D01*
X42277Y20739D01*
X42275Y20736D01*
X42266Y20720D01*
X42263Y20716D01*
X42261Y20713D01*
X42249Y20702D01*
X42245Y20697D01*
X42242Y20695D01*
X42222Y20679D01*
X42201Y20667D01*
X42180Y20658D01*
X42159Y20653D01*
X42143Y20648D01*
X42129Y20646D01*
X40720Y20646D01*
X40708Y20648D01*
X40699D01*
X40697Y20651D01*
X40687D01*
X40678Y20653D01*
X40671Y20655D01*
X40669D01*
X40646Y20665D01*
X40625Y20676D01*
X40609Y20690D01*
X40595Y20704D01*
X40583Y20716D01*
X40576Y20727D01*
X40572Y20734D01*
X40569Y20736D01*
X40567D01*
X40562Y20748D01*
X40558Y20755D01*
X40556Y20759D01*
Y20762D01*
X40553Y20771D01*
X40551Y20780D01*
X40549Y20785D01*
Y20787D01*
X40546Y20813D01*
Y20836D01*
X40549Y20859D01*
X40553Y20877D01*
X40560Y20894D01*
X40565Y20908D01*
X40567Y20915D01*
X40569Y20917D01*
X41268Y22127D01*
X41278Y22141D01*
X41280Y22146D01*
X41282Y22148D01*
X41294Y22159D01*
X41298Y22164D01*
X41301Y22166D01*
X41321Y22183D01*
X41340Y22194D01*
X41361Y22203D01*
X41379Y22208D01*
X41396Y22213D01*
X41409Y22215D01*
X41439D01*
X41456Y22210D01*
D02*
G37*
G36*
X37776D02*
X37793Y22208D01*
X37807Y22203D01*
X37816Y22199D01*
X37825Y22194D01*
X37830Y22192D01*
X37832Y22190D01*
X37841Y22185D01*
X37846Y22183D01*
X37867Y22164D01*
X37885Y22143D01*
X37894Y22129D01*
X37899Y22125D01*
Y22122D01*
X38596Y20915D01*
X38598D01*
Y20912D01*
Y20910D01*
X38603Y20901D01*
X38607Y20894D01*
X38609Y20889D01*
Y20887D01*
X38612Y20880D01*
X38614Y20871D01*
X38616Y20864D01*
Y20861D01*
X38619Y20836D01*
Y20813D01*
X38616Y20792D01*
X38612Y20773D01*
X38605Y20757D01*
X38600Y20746D01*
X38598Y20739D01*
X38596Y20736D01*
X38586Y20720D01*
X38584Y20716D01*
X38582Y20713D01*
X38570Y20702D01*
X38565Y20697D01*
X38563Y20695D01*
X38542Y20679D01*
X38522Y20667D01*
X38501Y20658D01*
X38480Y20653D01*
X38464Y20648D01*
X38450Y20646D01*
X37041D01*
X37029Y20648D01*
X37020D01*
X37017Y20651D01*
X37008D01*
X36999Y20653D01*
X36992Y20655D01*
X36990D01*
X36967Y20665D01*
X36946Y20676D01*
X36930Y20690D01*
X36916Y20704D01*
X36904Y20716D01*
X36897Y20727D01*
X36892Y20734D01*
X36890Y20736D01*
X36888D01*
X36883Y20748D01*
X36879Y20755D01*
X36876Y20759D01*
Y20762D01*
X36874Y20771D01*
X36872Y20780D01*
X36869Y20785D01*
Y20787D01*
X36867Y20813D01*
Y20836D01*
X36869Y20859D01*
X36874Y20877D01*
X36881Y20894D01*
X36886Y20908D01*
X36888Y20915D01*
X36890Y20917D01*
X37589Y22127D01*
X37598Y22141D01*
X37601Y22146D01*
X37603Y22148D01*
X37614Y22159D01*
X37619Y22164D01*
X37621Y22166D01*
X37642Y22183D01*
X37661Y22194D01*
X37682Y22203D01*
X37700Y22208D01*
X37716Y22213D01*
X37730Y22215D01*
X37760D01*
X37776Y22210D01*
D02*
G37*
G36*
X41483Y20396D02*
X41456D01*
Y20572D01*
X41338Y20396D01*
X41308D01*
Y20618D01*
X41335D01*
Y20445D01*
X41453Y20618D01*
X41483D01*
Y20396D01*
D02*
G37*
G36*
X40743D02*
X40715D01*
Y20572D01*
X40599Y20396D01*
X40569D01*
Y20618D01*
X40597D01*
Y20445D01*
X40713Y20618D01*
X40743D01*
Y20396D01*
D02*
G37*
G36*
X37804D02*
X37776D01*
Y20572D01*
X37658Y20396D01*
X37628D01*
Y20618D01*
X37656D01*
Y20445D01*
X37774Y20618D01*
X37804D01*
Y20396D01*
D02*
G37*
G36*
X37064D02*
X37036D01*
Y20572D01*
X36920Y20396D01*
X36890D01*
Y20618D01*
X36918D01*
Y20445D01*
X37034Y20618D01*
X37064D01*
Y20396D01*
D02*
G37*
G36*
X42275Y20396D02*
X42245D01*
X42219Y20463D01*
X42127D01*
X42101Y20396D01*
X42069D01*
X42159Y20618D01*
X42192D01*
X42275Y20396D01*
D02*
G37*
G36*
X42085Y20593D02*
X42011D01*
Y20396D01*
X41981D01*
Y20593D01*
X41909D01*
Y20618D01*
X42085D01*
Y20593D01*
D02*
G37*
G36*
X41895D02*
X41821D01*
Y20396D01*
X41794D01*
Y20593D01*
X41719D01*
Y20618D01*
X41895D01*
Y20593D01*
D02*
G37*
G36*
X41689Y20396D02*
X41523Y20396D01*
Y20422D01*
X41659Y20422D01*
Y20498D01*
X41537Y20498D01*
Y20523D01*
X41659Y20523D01*
Y20593D01*
X41527Y20593D01*
Y20618D01*
X41689Y20618D01*
Y20396D01*
D02*
G37*
G36*
X41275Y20593D02*
X41203D01*
Y20396D01*
X41173D01*
Y20593D01*
X41099D01*
Y20618D01*
X41275D01*
Y20593D01*
D02*
G37*
G36*
X41065Y20396D02*
X41035D01*
Y20618D01*
X41065D01*
Y20396D01*
D02*
G37*
G36*
X38596D02*
X38565D01*
X38540Y20463D01*
X38447D01*
X38422Y20396D01*
X38390D01*
X38480Y20618D01*
X38512D01*
X38596Y20396D01*
D02*
G37*
G36*
X38406Y20593D02*
X38332D01*
Y20396D01*
X38302D01*
Y20593D01*
X38230D01*
Y20618D01*
X38406D01*
Y20593D01*
D02*
G37*
G36*
X38216D02*
X38142D01*
Y20396D01*
X38114D01*
Y20593D01*
X38040D01*
Y20618D01*
X38216D01*
Y20593D01*
D02*
G37*
G36*
X38010Y20396D02*
X37844D01*
Y20422D01*
X37980D01*
Y20498D01*
X37857D01*
Y20523D01*
X37980D01*
Y20593D01*
X37848D01*
Y20618D01*
X38010D01*
Y20396D01*
D02*
G37*
G36*
X37596Y20593D02*
X37524D01*
Y20396D01*
X37494D01*
Y20593D01*
X37420D01*
Y20618D01*
X37596D01*
Y20593D01*
D02*
G37*
G36*
X37385Y20396D02*
X37355D01*
Y20618D01*
X37385D01*
Y20396D01*
D02*
G37*
G36*
X40903Y20621D02*
X40919Y20618D01*
X40942Y20607D01*
X40951Y20600D01*
X40958Y20595D01*
X40960Y20593D01*
X40963Y20591D01*
X40972Y20579D01*
X40979Y20565D01*
X40988Y20537D01*
X40991Y20523D01*
X40993Y20514D01*
Y20507D01*
Y20505D01*
X40991Y20484D01*
X40986Y20466D01*
X40984Y20454D01*
X40981Y20452D01*
Y20449D01*
X40970Y20431D01*
X40956Y20419D01*
X40947Y20410D01*
X40942Y20408D01*
X40923Y20401D01*
X40905Y20396D01*
X40891Y20394D01*
X40886D01*
X40866Y20396D01*
X40849Y20401D01*
X40838Y20405D01*
X40833Y20408D01*
X40817Y20419D01*
X40803Y20431D01*
X40796Y20442D01*
X40794Y20447D01*
X40785Y20468D01*
X40782Y20486D01*
X40780Y20503D01*
Y20505D01*
Y20507D01*
X40782Y20530D01*
X40787Y20549D01*
X40792Y20563D01*
X40794Y20565D01*
Y20567D01*
X40805Y20584D01*
X40817Y20598D01*
X40826Y20604D01*
X40831Y20607D01*
X40849Y20616D01*
X40868Y20621D01*
X40882Y20623D01*
X40886D01*
X40903Y20621D01*
D02*
G37*
G36*
X37223D02*
X37240Y20618D01*
X37263Y20607D01*
X37272Y20600D01*
X37279Y20595D01*
X37281Y20593D01*
X37284Y20591D01*
X37293Y20579D01*
X37300Y20565D01*
X37309Y20537D01*
X37311Y20523D01*
X37314Y20514D01*
Y20507D01*
Y20505D01*
X37311Y20484D01*
X37307Y20466D01*
X37304Y20454D01*
X37302Y20452D01*
Y20449D01*
X37290Y20431D01*
X37277Y20419D01*
X37267Y20410D01*
X37263Y20408D01*
X37244Y20401D01*
X37226Y20396D01*
X37212Y20394D01*
X37207D01*
X37186Y20396D01*
X37170Y20401D01*
X37159Y20405D01*
X37154Y20408D01*
X37138Y20419D01*
X37124Y20431D01*
X37117Y20442D01*
X37115Y20447D01*
X37105Y20468D01*
X37103Y20486D01*
X37101Y20503D01*
Y20505D01*
Y20507D01*
X37103Y20530D01*
X37108Y20549D01*
X37112Y20563D01*
X37115Y20565D01*
Y20567D01*
X37126Y20584D01*
X37138Y20598D01*
X37147Y20604D01*
X37152Y20607D01*
X37170Y20616D01*
X37189Y20621D01*
X37203Y20623D01*
X37207D01*
X37223Y20621D01*
D02*
G37*
G36*
X40347Y20579D02*
Y20574D01*
Y20565D01*
Y20556D01*
Y20547D01*
Y20537D01*
Y20533D01*
Y20530D01*
Y20493D01*
Y20459D01*
Y20442D01*
Y20431D01*
Y20424D01*
Y20422D01*
Y20380D01*
Y20361D01*
Y20345D01*
Y20331D01*
Y20322D01*
Y20315D01*
Y20313D01*
Y20297D01*
Y20285D01*
Y20276D01*
Y20271D01*
Y20264D01*
X39082D01*
Y20267D01*
Y20271D01*
Y20290D01*
Y20306D01*
Y20311D01*
Y20313D01*
Y20350D01*
Y20385D01*
Y20401D01*
Y20412D01*
Y20419D01*
Y20422D01*
Y20463D01*
Y20482D01*
Y20498D01*
Y20512D01*
Y20521D01*
Y20528D01*
Y20530D01*
Y20547D01*
Y20560D01*
Y20570D01*
Y20574D01*
Y20579D01*
Y20581D01*
X40347D01*
Y20579D01*
D02*
G37*
G36*
X38029Y20361D02*
X38033Y20359D01*
X38036Y20357D01*
X38043Y20350D01*
X38049Y20343D01*
X38052Y20338D01*
X38054Y20336D01*
X38059Y20327D01*
X38061Y20318D01*
Y20308D01*
Y20306D01*
Y20294D01*
X38059Y20285D01*
X38056Y20278D01*
Y20276D01*
X38049Y20269D01*
X38045Y20264D01*
X38040Y20260D01*
X38038D01*
X38029Y20255D01*
X38019Y20253D01*
X38010Y20250D01*
X38008D01*
X37999Y20253D01*
X37989Y20257D01*
X37982Y20260D01*
X37980Y20262D01*
X37973Y20267D01*
X37968Y20276D01*
X37964Y20283D01*
Y20285D01*
X37978Y20290D01*
X37982Y20280D01*
X37985Y20274D01*
X37987Y20269D01*
X37989D01*
X37996Y20267D01*
X38003Y20264D01*
X38010D01*
X38022Y20267D01*
X38029D01*
X38036Y20271D01*
X38038Y20276D01*
X38043Y20280D01*
Y20283D01*
X38047Y20299D01*
Y20304D01*
Y20306D01*
X38045Y20320D01*
X38043Y20324D01*
Y20327D01*
X38036Y20341D01*
X38031Y20343D01*
Y20345D01*
X38015Y20350D01*
X38008D01*
X37996Y20348D01*
X37992Y20345D01*
X37985Y20341D01*
X37982Y20334D01*
X37980Y20329D01*
Y20327D01*
X37966Y20331D01*
X37971Y20341D01*
X37975Y20348D01*
X37978Y20352D01*
X37980Y20355D01*
X37989Y20359D01*
X37999Y20364D01*
X38019D01*
X38029Y20361D01*
D02*
G37*
G36*
X37172D02*
X37179Y20359D01*
X37182Y20357D01*
X37189Y20350D01*
X37196Y20343D01*
X37198Y20338D01*
X37200Y20336D01*
X37205Y20327D01*
X37207Y20318D01*
Y20308D01*
Y20306D01*
X37205Y20294D01*
X37203Y20285D01*
X37200Y20278D01*
Y20276D01*
X37196Y20269D01*
X37191Y20264D01*
X37186Y20260D01*
X37184D01*
X37175Y20255D01*
X37166Y20253D01*
X37156Y20250D01*
X37154D01*
X37142Y20253D01*
X37133Y20257D01*
X37129Y20260D01*
X37126Y20262D01*
X37117Y20267D01*
X37112Y20276D01*
X37108Y20283D01*
Y20285D01*
X37124Y20290D01*
X37126Y20280D01*
X37131Y20274D01*
X37133Y20271D01*
X37135Y20269D01*
X37142Y20267D01*
X37149Y20264D01*
X37156D01*
X37168Y20267D01*
X37175D01*
X37182Y20271D01*
X37184Y20276D01*
X37189Y20280D01*
Y20283D01*
X37191Y20299D01*
Y20304D01*
Y20306D01*
X37189Y20320D01*
Y20324D01*
Y20327D01*
X37182Y20341D01*
X37177Y20343D01*
Y20345D01*
X37161Y20350D01*
X37154D01*
X37140Y20348D01*
X37138Y20345D01*
X37135D01*
X37131Y20341D01*
X37126Y20334D01*
X37124Y20329D01*
Y20327D01*
X37110Y20331D01*
X37115Y20341D01*
X37119Y20348D01*
X37124Y20352D01*
X37126Y20355D01*
X37135Y20359D01*
X37145Y20364D01*
X37163D01*
X37172Y20361D01*
D02*
G37*
G36*
X38350Y20253D02*
X38267D01*
Y20264D01*
X38334D01*
Y20301D01*
X38274D01*
Y20315D01*
X38334D01*
Y20348D01*
X38269D01*
Y20361D01*
X38350D01*
Y20253D01*
D02*
G37*
G36*
X38246D02*
X38177D01*
Y20264D01*
X38232D01*
Y20361D01*
X38246D01*
Y20253D01*
D02*
G37*
G36*
X38161D02*
X38077D01*
Y20264D01*
X38144D01*
Y20301D01*
X38084D01*
Y20315D01*
X38144D01*
Y20348D01*
X38080D01*
Y20361D01*
X38161D01*
Y20253D01*
D02*
G37*
G36*
X37952Y20348D02*
X37918D01*
Y20253D01*
X37901D01*
Y20348D01*
X37864D01*
Y20361D01*
X37952D01*
Y20348D01*
D02*
G37*
G36*
X37850Y20253D02*
X37834D01*
Y20299D01*
X37811D01*
X37807Y20297D01*
X37804D01*
X37800Y20292D01*
X37797Y20290D01*
X37793Y20285D01*
X37790Y20280D01*
X37786Y20276D01*
Y20274D01*
X37772Y20253D01*
X37753D01*
X37772Y20280D01*
X37781Y20292D01*
X37783Y20294D01*
X37790Y20299D01*
X37793Y20301D01*
X37781Y20304D01*
X37774Y20306D01*
X37772Y20311D01*
X37769D01*
X37765Y20318D01*
X37763Y20324D01*
Y20329D01*
Y20331D01*
X37765Y20343D01*
X37767Y20345D01*
Y20348D01*
X37769Y20352D01*
X37774Y20357D01*
X37776Y20359D01*
X37779D01*
X37793Y20361D01*
X37850D01*
Y20253D01*
D02*
G37*
G36*
X37524Y20348D02*
X37487D01*
Y20253D01*
X37473D01*
Y20348D01*
X37436D01*
Y20361D01*
X37524D01*
Y20348D01*
D02*
G37*
G36*
X37443Y20253D02*
X37429D01*
X37415Y20283D01*
X37369D01*
X37358Y20253D01*
X37339D01*
X37385Y20361D01*
X37402D01*
X37443Y20253D01*
D02*
G37*
G36*
X37348Y20348D02*
X37311D01*
Y20253D01*
X37297D01*
Y20348D01*
X37260D01*
Y20361D01*
X37348D01*
Y20348D01*
D02*
G37*
G36*
X37244Y20253D02*
X37228D01*
Y20361D01*
X37244D01*
Y20253D01*
D02*
G37*
G36*
X37707Y20361D02*
X37719Y20357D01*
X37726Y20350D01*
X37728Y20348D01*
X37735Y20334D01*
X37739Y20320D01*
X37742Y20308D01*
Y20306D01*
Y20304D01*
Y20292D01*
X37739Y20283D01*
X37737Y20278D01*
Y20276D01*
X37732Y20269D01*
X37726Y20264D01*
X37721Y20260D01*
X37719D01*
X37709Y20255D01*
X37700Y20253D01*
X37693Y20250D01*
X37691D01*
X37679Y20253D01*
X37670Y20255D01*
X37665Y20257D01*
X37663D01*
X37649Y20269D01*
X37647Y20274D01*
X37645Y20276D01*
X37640Y20285D01*
X37638Y20294D01*
Y20304D01*
Y20306D01*
Y20318D01*
X37640Y20327D01*
X37642Y20334D01*
X37645Y20336D01*
X37649Y20345D01*
X37656Y20350D01*
X37661Y20355D01*
X37663D01*
X37672Y20359D01*
X37682Y20364D01*
X37691D01*
X37707Y20361D01*
D02*
G37*
G36*
X37594D02*
X37598Y20359D01*
X37601D01*
X37610Y20352D01*
X37614Y20350D01*
Y20348D01*
X37619Y20336D01*
Y20334D01*
Y20331D01*
X37617Y20322D01*
X37614Y20320D01*
X37612Y20315D01*
X37608Y20311D01*
X37605Y20308D01*
X37603D01*
X37598Y20306D01*
X37591Y20304D01*
X37584Y20301D01*
X37582D01*
X37573Y20299D01*
X37566Y20297D01*
X37561D01*
X37554Y20292D01*
X37552Y20290D01*
X37550Y20283D01*
Y20280D01*
Y20274D01*
X37552Y20271D01*
X37559Y20267D01*
X37561Y20264D01*
X37594D01*
X37598Y20269D01*
X37603Y20271D01*
X37605Y20274D01*
X37610Y20283D01*
Y20287D01*
X37624Y20285D01*
X37621Y20278D01*
X37619Y20271D01*
X37617Y20269D01*
Y20267D01*
X37605Y20257D01*
X37603Y20255D01*
X37601D01*
X37594Y20253D01*
X37584Y20250D01*
X37575D01*
X37561Y20253D01*
X37557Y20255D01*
X37554D01*
X37545Y20262D01*
X37540Y20264D01*
X37536Y20276D01*
Y20280D01*
X37538Y20292D01*
X37540Y20297D01*
X37550Y20306D01*
X37552Y20308D01*
X37554D01*
X37561Y20311D01*
X37568Y20313D01*
X37575Y20315D01*
X37577D01*
X37589Y20318D01*
X37596Y20320D01*
X37601Y20322D01*
X37605Y20329D01*
Y20334D01*
X37603Y20338D01*
X37601Y20343D01*
X37598Y20345D01*
X37594Y20348D01*
X37587Y20350D01*
X37570D01*
X37566Y20348D01*
X37561Y20345D01*
X37557Y20341D01*
X37554Y20336D01*
X37552Y20331D01*
Y20329D01*
X37538D01*
X37540Y20343D01*
X37543Y20345D01*
Y20348D01*
X37554Y20357D01*
X37557Y20359D01*
X37559D01*
X37573Y20364D01*
X37580D01*
X37594Y20361D01*
D02*
G37*
G36*
X38228Y20102D02*
X38214D01*
Y20190D01*
X38156Y20102D01*
X38140D01*
Y20213D01*
X38154D01*
Y20125D01*
X38214Y20213D01*
X38228D01*
Y20102D01*
D02*
G37*
G36*
X37800D02*
X37786D01*
X37742Y20213D01*
X37758D01*
X37786Y20132D01*
X37790Y20121D01*
X37793Y20116D01*
Y20114D01*
X37795Y20123D01*
X37797Y20130D01*
X37800Y20132D01*
X37827Y20213D01*
X37844D01*
X37800Y20102D01*
D02*
G37*
G36*
X37334D02*
X37321D01*
X37277Y20213D01*
X37293D01*
X37323Y20132D01*
X37328Y20121D01*
Y20116D01*
Y20114D01*
X37332Y20125D01*
X37334Y20130D01*
Y20132D01*
X37362Y20213D01*
X37378D01*
X37334Y20102D01*
D02*
G37*
G36*
X37193Y20213D02*
X37198Y20211D01*
X37200Y20209D01*
X37207Y20202D01*
X37214Y20195D01*
X37216Y20190D01*
X37219Y20188D01*
X37223Y20179D01*
X37226Y20169D01*
Y20160D01*
Y20158D01*
X37223Y20146D01*
X37221Y20137D01*
X37219Y20132D01*
Y20130D01*
X37214Y20121D01*
X37209Y20114D01*
X37205Y20109D01*
X37203Y20107D01*
X37193Y20102D01*
X37184Y20100D01*
X37172D01*
X37161Y20102D01*
X37152Y20105D01*
X37147Y20107D01*
X37145Y20109D01*
X37138Y20119D01*
X37133Y20128D01*
X37129Y20135D01*
Y20137D01*
X37142Y20142D01*
X37145Y20132D01*
X37149Y20125D01*
X37152Y20123D01*
X37154Y20121D01*
X37161Y20116D01*
X37168Y20114D01*
X37175D01*
X37186Y20116D01*
X37191Y20119D01*
X37193D01*
X37198Y20123D01*
X37203Y20128D01*
X37205Y20132D01*
Y20135D01*
X37209Y20151D01*
Y20156D01*
Y20158D01*
X37207Y20174D01*
Y20179D01*
Y20181D01*
X37205Y20188D01*
X37200Y20193D01*
X37196Y20197D01*
X37193D01*
X37186Y20202D01*
X37179Y20204D01*
X37166D01*
X37159Y20202D01*
X37156Y20199D01*
X37154Y20197D01*
X37149Y20193D01*
X37145Y20186D01*
X37142Y20181D01*
Y20179D01*
X37129Y20183D01*
X37133Y20195D01*
X37138Y20202D01*
X37142Y20204D01*
X37145Y20206D01*
X37154Y20211D01*
X37163Y20216D01*
X37184D01*
X37193Y20213D01*
D02*
G37*
G36*
X38329Y20102D02*
X38248D01*
Y20116D01*
X38316D01*
Y20153D01*
X38255D01*
Y20167D01*
X38316D01*
Y20199D01*
X38251D01*
Y20213D01*
X38329D01*
Y20102D01*
D02*
G37*
G36*
X38010D02*
X37996D01*
Y20213D01*
X38010D01*
Y20102D01*
D02*
G37*
G36*
X37978Y20199D02*
X37941D01*
Y20102D01*
X37927D01*
Y20199D01*
X37890D01*
Y20213D01*
X37978D01*
Y20199D01*
D02*
G37*
G36*
X37874Y20102D02*
X37857D01*
Y20213D01*
X37874D01*
Y20102D01*
D02*
G37*
G36*
X37728D02*
X37647D01*
Y20116D01*
X37714D01*
Y20153D01*
X37654D01*
Y20167D01*
X37714D01*
Y20199D01*
X37649D01*
Y20213D01*
X37728D01*
Y20102D01*
D02*
G37*
G36*
X37582D02*
X37543D01*
X37529Y20105D01*
X37524D01*
X37515Y20107D01*
X37510Y20109D01*
X37506Y20116D01*
X37501Y20121D01*
X37496Y20132D01*
X37494Y20135D01*
Y20137D01*
X37492Y20144D01*
Y20151D01*
Y20156D01*
Y20158D01*
Y20169D01*
Y20179D01*
X37494Y20183D01*
Y20186D01*
X37503Y20199D01*
X37506Y20202D01*
X37508Y20204D01*
X37520Y20209D01*
X37522Y20211D01*
X37524D01*
X37538Y20213D01*
X37582D01*
Y20102D01*
D02*
G37*
G36*
X37471D02*
X37388D01*
Y20116D01*
X37455D01*
Y20153D01*
X37395D01*
Y20167D01*
X37455D01*
Y20199D01*
X37390D01*
Y20213D01*
X37471D01*
Y20102D01*
D02*
G37*
G36*
X37260D02*
X37247D01*
Y20213D01*
X37260D01*
Y20102D01*
D02*
G37*
G36*
X37108D02*
X37027D01*
Y20116D01*
X37094D01*
Y20153D01*
X37034D01*
Y20167D01*
X37094D01*
Y20199D01*
X37029D01*
Y20213D01*
X37108D01*
Y20102D01*
D02*
G37*
G36*
X38408Y20213D02*
X38413Y20211D01*
X38415D01*
X38422Y20209D01*
X38427Y20204D01*
X38429Y20202D01*
X38431Y20199D01*
X38436Y20190D01*
Y20188D01*
Y20186D01*
X38434Y20176D01*
X38431Y20172D01*
X38424Y20162D01*
X38420Y20160D01*
X38413Y20158D01*
X38406Y20156D01*
X38401Y20153D01*
X38399D01*
X38385Y20151D01*
X38380Y20149D01*
X38378D01*
X38371Y20144D01*
X38369Y20142D01*
X38364Y20135D01*
Y20132D01*
X38366Y20125D01*
X38369Y20123D01*
X38373Y20119D01*
X38376Y20116D01*
X38378D01*
X38387Y20114D01*
X38392D01*
X38404Y20116D01*
X38410D01*
X38417Y20123D01*
X38420Y20125D01*
X38424Y20135D01*
Y20137D01*
Y20139D01*
X38438D01*
X38436Y20125D01*
X38434Y20121D01*
Y20119D01*
X38422Y20109D01*
X38420Y20105D01*
X38417D01*
X38401Y20100D01*
X38392D01*
X38378Y20102D01*
X38373Y20105D01*
X38371D01*
X38360Y20112D01*
X38355Y20116D01*
X38350Y20130D01*
Y20132D01*
Y20135D01*
X38353Y20146D01*
X38355Y20149D01*
X38360Y20156D01*
X38366Y20158D01*
X38369Y20160D01*
X38371D01*
X38385Y20165D01*
X38392Y20167D01*
X38394D01*
X38406Y20172D01*
X38413Y20174D01*
X38417Y20176D01*
X38422Y20183D01*
Y20186D01*
X38420Y20190D01*
X38417Y20195D01*
X38415Y20197D01*
X38410Y20199D01*
X38404Y20202D01*
X38387D01*
X38380Y20199D01*
X38378Y20197D01*
X38376D01*
X38371Y20193D01*
X38369Y20188D01*
Y20183D01*
Y20181D01*
X38355D01*
X38357Y20195D01*
X38360Y20197D01*
Y20199D01*
X38369Y20209D01*
X38371Y20211D01*
X38373D01*
X38390Y20216D01*
X38397D01*
X38408Y20213D01*
D02*
G37*
G36*
X38091D02*
X38096Y20211D01*
X38098D01*
X38105Y20209D01*
X38107Y20204D01*
X38112Y20202D01*
Y20199D01*
X38117Y20190D01*
Y20188D01*
Y20186D01*
X38114Y20176D01*
X38112Y20172D01*
X38110Y20167D01*
X38105Y20162D01*
X38103Y20160D01*
X38100D01*
X38096Y20158D01*
X38089Y20156D01*
X38082Y20153D01*
X38080D01*
X38066Y20151D01*
X38063Y20149D01*
X38061D01*
X38052Y20144D01*
X38049Y20142D01*
X38047Y20137D01*
Y20135D01*
Y20132D01*
Y20125D01*
X38049Y20123D01*
X38056Y20119D01*
X38059Y20116D01*
X38070Y20114D01*
X38075D01*
X38087Y20116D01*
X38091D01*
X38096Y20121D01*
X38100Y20123D01*
X38103Y20125D01*
X38107Y20135D01*
Y20139D01*
X38121D01*
X38119Y20132D01*
X38117Y20125D01*
X38114Y20121D01*
Y20119D01*
X38110Y20112D01*
X38105Y20109D01*
X38100Y20105D01*
X38098D01*
X38091Y20102D01*
X38082Y20100D01*
X38073D01*
X38059Y20102D01*
X38054Y20105D01*
X38052D01*
X38040Y20112D01*
X38038Y20116D01*
X38033Y20130D01*
Y20132D01*
Y20135D01*
X38036Y20146D01*
X38038Y20149D01*
X38043Y20156D01*
X38047Y20158D01*
X38049Y20160D01*
X38052D01*
X38068Y20165D01*
X38073Y20167D01*
X38075D01*
X38087Y20172D01*
X38093Y20174D01*
X38098Y20176D01*
X38103Y20181D01*
Y20186D01*
X38100Y20190D01*
X38098Y20195D01*
X38096Y20197D01*
X38091Y20199D01*
X38084Y20202D01*
X38077D01*
X38063Y20199D01*
X38061Y20197D01*
X38059D01*
X38054Y20193D01*
X38052Y20188D01*
X38049Y20183D01*
Y20181D01*
X38036D01*
X38038Y20195D01*
X38040Y20197D01*
Y20199D01*
X38052Y20209D01*
X38054Y20211D01*
X38056D01*
X38070Y20216D01*
X38077D01*
X38091Y20213D01*
D02*
G37*
%LPC*%
G36*
X39680Y25160D02*
X39600D01*
Y25080D01*
X39680D01*
Y25160D01*
D02*
G37*
G36*
X40720Y25080D02*
X40640D01*
Y25000D01*
X40720D01*
Y25080D01*
D02*
G37*
G36*
X39727Y22266D02*
X39586D01*
Y22243D01*
X39727D01*
Y22266D01*
D02*
G37*
G36*
X39769Y22234D02*
Y22203D01*
X39547D01*
Y22229D01*
X39500Y22222D01*
X39459Y22213D01*
X39424Y22203D01*
X39396Y22190D01*
X39375Y22178D01*
X39359Y22162D01*
Y22153D01*
X39875D01*
Y22220D01*
X39843Y22227D01*
X39808Y22231D01*
X39769Y22234D01*
D02*
G37*
G36*
X39931Y22243D02*
X39915D01*
Y22190D01*
X39931D01*
Y22243D01*
D02*
G37*
G36*
X39970Y22192D02*
Y22153D01*
X40019D01*
Y22159D01*
X40007Y22171D01*
X39993Y22180D01*
X39970Y22192D01*
D02*
G37*
G36*
X39299Y22185D02*
X39297D01*
X39285Y22183D01*
X39278Y22176D01*
X39276Y22166D01*
Y22164D01*
X39278Y22153D01*
X39285Y22148D01*
X39294Y22146D01*
X39297D01*
X39308Y22148D01*
X39313Y22155D01*
X39315Y22162D01*
Y22164D01*
X39313Y22176D01*
X39306Y22183D01*
X39299Y22185D01*
D02*
G37*
G36*
X39345Y22007D02*
X39269D01*
Y21930D01*
X39345D01*
Y22007D01*
D02*
G37*
G36*
X39734Y21833D02*
X39526D01*
Y21819D01*
X39734D01*
Y21833D01*
D02*
G37*
G36*
X40012Y22081D02*
X39364D01*
X39368Y22046D01*
X39385D01*
Y21972D01*
X39482Y21873D01*
X39773D01*
Y21780D01*
X39572D01*
X39706Y21641D01*
X40000Y21947D01*
X40012Y22081D01*
D02*
G37*
G36*
X39993Y21882D02*
X39734Y21613D01*
X39947Y21394D01*
X39993Y21882D01*
D02*
G37*
G36*
X39385Y21914D02*
Y21891D01*
X39380D01*
X39426Y21352D01*
X39679Y21613D01*
X39517Y21780D01*
X39482D01*
Y21815D01*
X39385Y21914D01*
D02*
G37*
G36*
X39706Y21583D02*
X39431Y21299D01*
X39436Y21248D01*
X39454Y21250D01*
X39475Y21248D01*
X39500Y21241D01*
X39526Y21229D01*
X39544Y21215D01*
X39561Y21199D01*
X39577Y21176D01*
X39588Y21148D01*
X39595Y21118D01*
X39593Y21097D01*
X39919D01*
X39942Y21340D01*
X39706Y21583D01*
D02*
G37*
G36*
X39466Y21178D02*
X39454D01*
X39431Y21176D01*
X39415Y21167D01*
X39401Y21158D01*
X39394Y21144D01*
X39389Y21132D01*
X39385Y21120D01*
Y21111D01*
Y21109D01*
X39387Y21086D01*
X39396Y21070D01*
X39405Y21056D01*
X39419Y21049D01*
X39431Y21044D01*
X39443Y21042D01*
X39452Y21039D01*
X39454D01*
X39477Y21042D01*
X39493Y21051D01*
X39507Y21063D01*
X39514Y21074D01*
X39519Y21088D01*
X39521Y21097D01*
X39523Y21107D01*
Y21109D01*
X39521Y21132D01*
X39512Y21148D01*
X39500Y21162D01*
X39489Y21169D01*
X39475Y21174D01*
X39466Y21178D01*
D02*
G37*
G36*
X39905Y21056D02*
X39896D01*
Y21000D01*
X39905D01*
Y21056D01*
D02*
G37*
%LPD*%
G36*
X39470Y21153D02*
X39482Y21148D01*
X39489Y21141D01*
X39493Y21132D01*
X39500Y21116D01*
Y21111D01*
Y21109D01*
X39498Y21093D01*
X39493Y21081D01*
X39486Y21074D01*
X39477Y21070D01*
X39461Y21063D01*
X39454D01*
X39438Y21065D01*
X39426Y21070D01*
X39419Y21077D01*
X39412Y21086D01*
X39408Y21102D01*
Y21107D01*
Y21109D01*
X39410Y21125D01*
X39415Y21137D01*
X39422Y21144D01*
X39431Y21151D01*
X39447Y21155D01*
X39454D01*
X39470Y21153D01*
D02*
G37*
%LPC*%
G36*
X39456Y21116D02*
X39449D01*
X39447Y21114D01*
Y21111D01*
Y21109D01*
Y21104D01*
X39449Y21102D01*
X39454D01*
X39459Y21104D01*
X39461Y21107D01*
Y21109D01*
X39459Y21114D01*
X39456Y21116D01*
D02*
G37*
G36*
X43578Y22097D02*
X43573D01*
Y22095D01*
X43559D01*
X43548Y22090D01*
X43527Y22083D01*
X43513Y22074D01*
X43511Y22072D01*
X43508Y22069D01*
X43501Y22062D01*
X43499Y22060D01*
X43494Y22053D01*
X43492Y22051D01*
Y22048D01*
X42828Y20901D01*
Y20898D01*
X42821Y20884D01*
X42816Y20873D01*
X42814Y20864D01*
Y20859D01*
Y20852D01*
Y20850D01*
X42816Y20831D01*
X42819Y20815D01*
X42823Y20806D01*
X42826Y20801D01*
X42844Y20780D01*
X42860Y20766D01*
X42874Y20759D01*
X42879Y20757D01*
X42881D01*
X42879Y20759D01*
X42883Y20757D01*
X42890Y20755D01*
X42909D01*
Y20753D01*
X44237D01*
X44251Y20755D01*
X44265Y20757D01*
X44286Y20766D01*
X44300Y20773D01*
X44302Y20778D01*
X44304D01*
X44311Y20787D01*
X44313Y20790D01*
X44320Y20797D01*
X44323Y20801D01*
X44327Y20813D01*
X44332Y20824D01*
X44334Y20847D01*
Y20857D01*
X44332Y20861D01*
Y20866D01*
Y20868D01*
X44330Y20877D01*
X44327Y20880D01*
Y20882D01*
X44325Y20891D01*
X44323Y20894D01*
Y20896D01*
Y20898D01*
X43659Y22046D01*
X43649Y22060D01*
X43640Y22069D01*
X43633Y22076D01*
X43631Y22078D01*
X43626D01*
X43624Y22081D01*
Y22083D01*
X43605Y22092D01*
X43589Y22095D01*
X43578Y22097D01*
D02*
G37*
%LPD*%
G36*
X43638Y21960D02*
X43853Y21218D01*
X43517Y21382D01*
X43622Y20986D01*
X43693Y21042D01*
X43659Y20820D01*
X43499Y21005D01*
X43596Y20982D01*
X43330Y21532D01*
X43765Y21308D01*
X43480Y21965D01*
X43638Y21960D01*
D02*
G37*
%LPC*%
G36*
X41426Y22097D02*
X41421D01*
Y22095D01*
X41407D01*
X41396Y22090D01*
X41375Y22083D01*
X41361Y22074D01*
X41358Y22072D01*
X41356Y22069D01*
X41352Y22065D01*
X41347Y22062D01*
Y22060D01*
X41342Y22051D01*
X41340Y22048D01*
X41338D01*
X40676Y20901D01*
Y20898D01*
X40669Y20884D01*
X40664Y20873D01*
X40662Y20864D01*
Y20859D01*
Y20852D01*
Y20850D01*
X40664Y20831D01*
X40667Y20815D01*
X40671Y20806D01*
X40674Y20801D01*
X40692Y20780D01*
X40708Y20766D01*
X40722Y20759D01*
X40727Y20757D01*
X40736D01*
X40741Y20755D01*
X40757D01*
Y20753D01*
X42085Y20753D01*
X42099Y20755D01*
X42113Y20757D01*
X42134Y20766D01*
X42148Y20773D01*
X42150Y20778D01*
X42152D01*
X42159Y20787D01*
X42161Y20790D01*
X42166Y20797D01*
X42168Y20801D01*
X42171D01*
X42180Y20824D01*
X42182Y20845D01*
Y20854D01*
X42180Y20861D01*
Y20866D01*
Y20868D01*
X42178Y20880D01*
X42175Y20882D01*
X42173Y20891D01*
X42171Y20894D01*
Y20896D01*
Y20898D01*
X41507Y22046D01*
X41497Y22060D01*
X41488Y22069D01*
X41481Y22076D01*
X41479Y22078D01*
X41477D01*
X41474Y22081D01*
X41472Y22083D01*
X41453Y22092D01*
X41437Y22095D01*
X41426Y22097D01*
D02*
G37*
%LPD*%
G36*
X41516Y21819D02*
Y21798D01*
Y21782D01*
Y21766D01*
Y21755D01*
Y21748D01*
Y21745D01*
X41514Y21704D01*
Y21683D01*
Y21667D01*
Y21650D01*
Y21639D01*
Y21632D01*
Y21630D01*
X41511Y21611D01*
Y21599D01*
Y21593D01*
Y21590D01*
X41509Y21579D01*
Y21565D01*
X41507Y21553D01*
Y21551D01*
Y21549D01*
Y21546D01*
X41504Y21542D01*
Y21532D01*
X41502Y21523D01*
X41500Y21498D01*
X41497Y21470D01*
X41493Y21442D01*
X41490Y21417D01*
Y21407D01*
X41488Y21400D01*
Y21396D01*
Y21394D01*
X41486Y21368D01*
X41481Y21343D01*
X41479Y21324D01*
X41477Y21306D01*
X41474Y21289D01*
Y21278D01*
X41470Y21257D01*
Y21245D01*
X41467Y21238D01*
Y21234D01*
X41382D01*
X41379Y21238D01*
X41377Y21243D01*
X41372Y21262D01*
X41370Y21278D01*
Y21282D01*
Y21285D01*
X41368Y21301D01*
Y21313D01*
X41365Y21322D01*
Y21331D01*
Y21338D01*
Y21340D01*
X41361Y21375D01*
X41356Y21407D01*
X41354Y21437D01*
X41349Y21463D01*
X41347Y21484D01*
X41345Y21505D01*
X41342Y21521D01*
X41340Y21537D01*
Y21549D01*
X41338Y21558D01*
X41335Y21574D01*
Y21581D01*
Y21583D01*
X41333Y21599D01*
Y21611D01*
X41331Y21620D01*
Y21627D01*
X41328Y21632D01*
Y21634D01*
Y21676D01*
Y21694D01*
Y21711D01*
Y21724D01*
Y21736D01*
Y21743D01*
Y21745D01*
Y21787D01*
Y21808D01*
Y21824D01*
Y21840D01*
Y21852D01*
Y21859D01*
Y21861D01*
X41516D01*
Y21819D01*
D02*
G37*
G36*
Y21127D02*
Y21100D01*
Y21088D01*
Y21079D01*
Y21074D01*
Y21072D01*
Y21042D01*
Y21014D01*
Y21005D01*
Y20996D01*
Y20991D01*
Y20989D01*
X41340D01*
Y21019D01*
Y21046D01*
Y21056D01*
Y21065D01*
Y21070D01*
Y21072D01*
Y21104D01*
Y21132D01*
Y21144D01*
Y21153D01*
Y21158D01*
Y21160D01*
X41516D01*
Y21127D01*
D02*
G37*
%LPC*%
G36*
X37746Y22097D02*
X37742D01*
Y22095D01*
X37728D01*
X37716Y22090D01*
X37695Y22083D01*
X37682Y22074D01*
X37679Y22072D01*
X37677Y22069D01*
X37672Y22065D01*
X37668Y22062D01*
Y22060D01*
X37663Y22051D01*
X37661Y22048D01*
X37658D01*
X37432Y21655D01*
X37510Y21623D01*
X37536Y21616D01*
X37557Y21611D01*
X37566Y21609D01*
X37608D01*
X37628Y21611D01*
X37670D01*
X37682Y21613D01*
X37709D01*
X37732Y21611D01*
X37753Y21609D01*
X37769Y21606D01*
X37783Y21604D01*
X37795Y21599D01*
X37802Y21597D01*
X37804D01*
X37823Y21590D01*
X37841Y21581D01*
X37876Y21560D01*
X37892Y21551D01*
X37904Y21544D01*
X37911Y21539D01*
X37913Y21537D01*
X37920Y21532D01*
X37931Y21525D01*
X37941Y21518D01*
X37943Y21516D01*
X37945D01*
X37952Y21512D01*
X37955Y21509D01*
X37957D01*
X37964Y21505D01*
X37966Y21502D01*
X37982Y21493D01*
X37994Y21484D01*
X38003Y21479D01*
X38006Y21477D01*
X38019Y21465D01*
X38031Y21456D01*
X38036Y21449D01*
X38038Y21447D01*
X38140Y21505D01*
X37827Y22046D01*
X37818Y22060D01*
X37809Y22069D01*
X37802Y22076D01*
X37800Y22078D01*
X37797D01*
X37795Y22081D01*
X37793Y22083D01*
X37774Y22092D01*
X37758Y22095D01*
X37746Y22097D01*
D02*
G37*
G36*
X37420Y21632D02*
X37286Y21400D01*
X37297Y21391D01*
X37302Y21389D01*
X37304Y21387D01*
X37316Y21373D01*
X37325Y21361D01*
X37332Y21352D01*
X37334Y21347D01*
X37341Y21331D01*
X37346Y21317D01*
X37351Y21303D01*
X37353Y21301D01*
Y21299D01*
X37362Y21278D01*
X37369Y21264D01*
X37371Y21257D01*
X37374Y21255D01*
X37383Y21243D01*
X37385Y21241D01*
X37388Y21238D01*
X37399Y21225D01*
X37402Y21222D01*
X37404Y21220D01*
X37427Y21199D01*
X37448Y21181D01*
X37466Y21167D01*
X37483Y21158D01*
X37496Y21151D01*
X37506Y21146D01*
X37513Y21144D01*
X37515D01*
X38015Y21433D01*
X38006Y21442D01*
X37999Y21449D01*
X37992Y21454D01*
X37989Y21456D01*
X37975Y21465D01*
X37964Y21475D01*
X37955Y21479D01*
X37952Y21481D01*
X37943Y21488D01*
X37936Y21491D01*
X37931Y21493D01*
X37915Y21505D01*
X37906Y21512D01*
X37899Y21514D01*
X37897Y21516D01*
X37876Y21530D01*
X37857Y21544D01*
X37839Y21553D01*
X37825Y21560D01*
X37811Y21567D01*
X37802Y21572D01*
X37797Y21574D01*
X37795D01*
X37760Y21581D01*
X37726Y21586D01*
X37654D01*
X37624Y21583D01*
X37601Y21581D01*
X37575D01*
X37547Y21586D01*
X37524Y21590D01*
X37515Y21595D01*
X37508Y21597D01*
X37503Y21599D01*
X37501D01*
X37420Y21632D01*
D02*
G37*
G36*
X37779Y21206D02*
X37716Y21171D01*
X37730Y21160D01*
X37744Y21148D01*
X37756Y21141D01*
X37758Y21137D01*
X37760D01*
X37765Y21144D01*
X37769Y21153D01*
X37772Y21160D01*
X37774Y21162D01*
X37776Y21167D01*
Y21169D01*
X37781Y21183D01*
Y21188D01*
Y21190D01*
Y21195D01*
X37779Y21199D01*
Y21204D01*
Y21206D01*
D02*
G37*
G36*
X37846Y21245D02*
X37802Y21220D01*
X37804Y21208D01*
X37807Y21197D01*
Y21190D01*
Y21188D01*
X37804Y21176D01*
X37802Y21167D01*
X37800Y21160D01*
Y21158D01*
X37797Y21153D01*
X37790Y21139D01*
X37783Y21127D01*
X37781Y21123D01*
X37779Y21120D01*
X37795Y21107D01*
X37809Y21093D01*
X37818Y21083D01*
X37823Y21079D01*
X37825Y21077D01*
X37827Y21074D01*
X37830Y21072D01*
Y21070D01*
X37839Y21083D01*
X37844Y21095D01*
X37848Y21102D01*
Y21104D01*
X37850Y21109D01*
X37853Y21114D01*
X37855Y21120D01*
Y21123D01*
X37857Y21134D01*
X37860Y21146D01*
Y21155D01*
Y21160D01*
Y21162D01*
Y21167D01*
Y21181D01*
Y21195D01*
Y21199D01*
Y21201D01*
Y21211D01*
X37857Y21220D01*
Y21225D01*
Y21227D01*
X37850Y21241D01*
X37846Y21243D01*
Y21245D01*
D02*
G37*
G36*
X37908Y21280D02*
X37869Y21259D01*
X37878Y21243D01*
X37883Y21236D01*
Y21234D01*
X37885Y21222D01*
Y21213D01*
Y21204D01*
Y21201D01*
Y21185D01*
Y21181D01*
Y21178D01*
Y21167D01*
Y21162D01*
Y21160D01*
Y21141D01*
X37883Y21127D01*
X37881Y21120D01*
Y21118D01*
Y21116D01*
X37878Y21109D01*
Y21107D01*
Y21104D01*
X37876D01*
X37874Y21100D01*
X37871Y21095D01*
Y21093D01*
X37864Y21077D01*
X37855Y21063D01*
X37850Y21053D01*
X37848Y21049D01*
X37860Y21030D01*
X37867Y21016D01*
X37871Y21007D01*
X37874Y21002D01*
X37883Y21007D01*
X37885Y21012D01*
X37887D01*
X37897Y21016D01*
X37901Y21021D01*
X37904Y21023D01*
X37908Y21028D01*
X37911Y21030D01*
X37913D01*
X37918Y21035D01*
X37922Y21037D01*
X37925Y21039D01*
X37927D01*
X37929Y21042D01*
Y21046D01*
Y21065D01*
X37927Y21081D01*
X37925Y21090D01*
Y21095D01*
Y21102D01*
Y21109D01*
X37929Y21130D01*
X37931Y21139D01*
X37934Y21146D01*
X37936Y21151D01*
Y21153D01*
X37941Y21167D01*
X37943Y21178D01*
X37945Y21192D01*
Y21201D01*
Y21204D01*
X37943Y21213D01*
X37936Y21225D01*
X37931Y21234D01*
X37929Y21236D01*
X37918Y21255D01*
X37911Y21269D01*
X37908Y21278D01*
Y21280D01*
D02*
G37*
G36*
X37621Y21051D02*
X37619D01*
X37614Y21046D01*
X37603Y21037D01*
X37596Y21028D01*
X37591Y21026D01*
Y21023D01*
Y21021D01*
X37589D01*
Y21019D01*
X37584Y21014D01*
Y21009D01*
Y21007D01*
Y21005D01*
Y21000D01*
X37587Y20993D01*
X37589Y20986D01*
Y20984D01*
Y20982D01*
X37596Y20977D01*
X37605Y20975D01*
X37617D01*
X37635Y20977D01*
X37649Y20979D01*
X37658Y20982D01*
X37663D01*
X37675Y20989D01*
X37677Y20991D01*
X37679D01*
Y20993D01*
X37677Y20996D01*
Y20998D01*
X37668Y21012D01*
X37658Y21023D01*
X37651Y21030D01*
X37649Y21033D01*
X37642Y21037D01*
X37633Y21044D01*
X37624Y21049D01*
X37621Y21051D01*
D02*
G37*
G36*
X38063Y21373D02*
X37931Y21296D01*
X37934Y21282D01*
X37941Y21266D01*
X37948Y21255D01*
X37950Y21252D01*
Y21250D01*
X37962Y21234D01*
X37968Y21220D01*
X37973Y21211D01*
Y21208D01*
Y21201D01*
X37971Y21190D01*
X37966Y21169D01*
X37964Y21160D01*
X37962Y21151D01*
X37959Y21146D01*
Y21144D01*
X37955Y21132D01*
X37952Y21123D01*
X37950Y21109D01*
Y21104D01*
Y21102D01*
X37955Y21081D01*
Y21065D01*
Y21051D01*
Y21049D01*
Y21046D01*
Y21039D01*
Y21037D01*
X37952Y21033D01*
Y21030D01*
X37950Y21023D01*
Y21019D01*
X37948Y21016D01*
X37945Y21007D01*
Y21002D01*
X37943Y21000D01*
X37936Y20977D01*
X37931Y20958D01*
X37927Y20942D01*
Y20931D01*
X37925Y20924D01*
Y20919D01*
Y20915D01*
X37929Y20898D01*
X37936Y20887D01*
X37943Y20877D01*
X37945Y20875D01*
X37950Y20873D01*
X37952Y20871D01*
Y20873D01*
Y20877D01*
Y20880D01*
Y20882D01*
Y20891D01*
Y20896D01*
X37959Y20912D01*
X37962Y20917D01*
X37964Y20919D01*
X37968Y20924D01*
X37971Y20928D01*
X37980Y20940D01*
X37987Y20949D01*
X37996Y20954D01*
X38006Y20958D01*
X38019Y20963D01*
X38033D01*
X38036Y20961D01*
X38040D01*
X38045Y20970D01*
X38047Y20979D01*
X38049Y20989D01*
X38052Y20991D01*
X38059Y21007D01*
X38066Y21021D01*
X38068Y21030D01*
X38070Y21035D01*
X38075Y21053D01*
X38077Y21070D01*
X38080Y21086D01*
Y21088D01*
Y21090D01*
X38084Y21120D01*
X38089Y21141D01*
X38091Y21153D01*
Y21158D01*
Y21160D01*
X38093Y21167D01*
X38096Y21174D01*
X38098Y21181D01*
Y21183D01*
X38103Y21201D01*
X38107Y21218D01*
Y21229D01*
X38110Y21241D01*
Y21248D01*
X38107Y21252D01*
Y21257D01*
X38103Y21269D01*
X38098Y21285D01*
X38091Y21299D01*
X38089Y21301D01*
Y21303D01*
X38075Y21331D01*
X38068Y21354D01*
X38063Y21368D01*
Y21370D01*
Y21373D01*
D02*
G37*
G36*
X37691Y21158D02*
X37596Y21102D01*
X37608Y21093D01*
X37619Y21083D01*
X37631Y21074D01*
X37633Y21072D01*
X37635D01*
X37649Y21063D01*
X37658Y21056D01*
X37663Y21051D01*
X37665D01*
X37679Y21037D01*
X37691Y21023D01*
X37698Y21014D01*
X37700Y21012D01*
Y21009D01*
X37705Y21000D01*
X37707Y20991D01*
X37709Y20989D01*
Y20986D01*
X37712Y20979D01*
X37714Y20977D01*
Y20975D01*
X37728Y20979D01*
X37735D01*
X37744Y20982D01*
X37746Y20984D01*
X37779D01*
X37793Y20982D01*
X37797D01*
X37802Y20979D01*
X37804D01*
X37807Y20977D01*
X37813D01*
X37816Y20975D01*
X37818D01*
X37832Y20968D01*
X37844Y20961D01*
X37850Y20956D01*
X37853Y20954D01*
X37855Y20952D01*
X37857Y20947D01*
X37859Y20945D01*
X37857Y20963D01*
X37850Y20984D01*
X37841Y21005D01*
X37830Y21023D01*
X37820Y21039D01*
X37811Y21051D01*
X37804Y21060D01*
X37802Y21063D01*
X37783Y21083D01*
X37765Y21100D01*
X37751Y21111D01*
X37749Y21116D01*
X37746D01*
X37723Y21132D01*
X37707Y21146D01*
X37695Y21155D01*
X37691Y21158D01*
D02*
G37*
G36*
X37859Y20945D02*
X37860Y20942D01*
Y20945D01*
X37859Y20945D01*
D02*
G37*
G36*
X37688Y20965D02*
X37684Y20963D01*
X37677Y20961D01*
X37672Y20958D01*
X37670D01*
X37668Y20956D01*
X37663D01*
X37661Y20954D01*
X37658D01*
X37651Y20942D01*
Y20933D01*
Y20926D01*
Y20924D01*
Y20919D01*
X37654Y20917D01*
Y20912D01*
X37656Y20910D01*
X37658D01*
X37665Y20905D01*
X37672Y20903D01*
X37682D01*
X37693Y20905D01*
X37702Y20908D01*
X37707Y20910D01*
X37709Y20912D01*
X37700Y20928D01*
X37695Y20942D01*
X37691Y20952D01*
Y20954D01*
X37688Y20963D01*
Y20965D01*
D02*
G37*
G36*
X37756Y20972D02*
X37749D01*
X37735Y20968D01*
X37723Y20965D01*
X37719Y20963D01*
X37716Y20961D01*
X37721Y20947D01*
X37728Y20933D01*
X37737Y20921D01*
X37739Y20919D01*
Y20917D01*
X37753Y20898D01*
X37763Y20889D01*
X37769Y20882D01*
X37772Y20880D01*
X37779Y20875D01*
X37783Y20873D01*
X37788Y20871D01*
X37797Y20866D01*
X37825D01*
X37834Y20868D01*
X37839Y20871D01*
X37844Y20873D01*
X37850Y20882D01*
X37855Y20894D01*
X37860Y20903D01*
Y20908D01*
X37857Y20919D01*
X37855Y20921D01*
X37850Y20933D01*
X37846Y20940D01*
X37844Y20945D01*
X37834Y20952D01*
X37825Y20958D01*
X37818Y20961D01*
X37816Y20963D01*
X37811D01*
X37809Y20965D01*
X37800D01*
X37790Y20968D01*
X37779Y20970D01*
X37769D01*
X37756Y20972D01*
D02*
G37*
G36*
X38026Y20952D02*
X38015D01*
X38008Y20947D01*
X37994Y20938D01*
X37985Y20928D01*
X37982Y20926D01*
Y20924D01*
X37980Y20919D01*
X37978Y20917D01*
X37975Y20915D01*
Y20912D01*
X37968Y20898D01*
X37966Y20894D01*
Y20891D01*
X37964Y20889D01*
Y20887D01*
Y20884D01*
Y20882D01*
Y20875D01*
X37966Y20873D01*
Y20871D01*
Y20866D01*
Y20864D01*
X37968Y20861D01*
X37978D01*
X37989Y20866D01*
X37999Y20871D01*
X38003Y20875D01*
X38006Y20877D01*
X38010Y20884D01*
X38015Y20894D01*
X38024Y20915D01*
X38026Y20924D01*
X38031Y20933D01*
X38033Y20938D01*
Y20940D01*
X38036Y20949D01*
X38033D01*
X38026Y20952D01*
D02*
G37*
G36*
X38179Y21437D02*
X38089Y21387D01*
X38093Y21363D01*
X38100Y21338D01*
X38105Y21329D01*
X38110Y21319D01*
X38112Y21315D01*
Y21313D01*
X38121Y21292D01*
X38128Y21276D01*
X38133Y21266D01*
Y21264D01*
X38135Y21252D01*
Y21238D01*
X38130Y21211D01*
X38128Y21197D01*
X38126Y21185D01*
X38124Y21178D01*
Y21176D01*
X38121Y21167D01*
X38119Y21158D01*
X38117Y21155D01*
Y21153D01*
Y21151D01*
X38112Y21132D01*
X38110Y21111D01*
X38107Y21102D01*
X38105Y21095D01*
Y21090D01*
Y21088D01*
X38103Y21072D01*
X38100Y21058D01*
Y21049D01*
X38098Y21039D01*
X38093Y21028D01*
Y21026D01*
X38089Y21012D01*
X38084Y20998D01*
X38080Y20984D01*
X38077Y20982D01*
Y20979D01*
X38073Y20968D01*
X38068Y20961D01*
X38063Y20949D01*
X38061Y20945D01*
Y20942D01*
Y20940D01*
X38059Y20938D01*
Y20935D01*
Y20933D01*
X38052Y20915D01*
X38045Y20898D01*
X38040Y20887D01*
X38033Y20877D01*
X38031Y20871D01*
X38026Y20866D01*
X38024Y20861D01*
X38010Y20847D01*
X37994Y20840D01*
X37985Y20836D01*
X37971D01*
X37962Y20838D01*
X37955Y20840D01*
X37952D01*
X37936Y20850D01*
X37931Y20852D01*
X37929Y20854D01*
X37920Y20864D01*
X37913Y20873D01*
X37904Y20891D01*
X37899Y20908D01*
Y20910D01*
Y20912D01*
Y20921D01*
X37901Y20935D01*
X37906Y20963D01*
X37908Y20977D01*
X37913Y20989D01*
X37915Y20996D01*
Y20998D01*
X37906Y20993D01*
X37904Y20991D01*
X37901Y20989D01*
X37890Y20982D01*
X37885Y20977D01*
X37883Y20975D01*
X37885Y20961D01*
X37887Y20949D01*
Y20940D01*
Y20938D01*
Y20935D01*
Y20933D01*
Y20931D01*
X37885Y20912D01*
X37883Y20898D01*
X37878Y20884D01*
X37874Y20873D01*
X37869Y20866D01*
X37864Y20859D01*
X37860Y20857D01*
Y20854D01*
X37850Y20847D01*
X37839Y20843D01*
X37830Y20840D01*
X37800D01*
X37783Y20845D01*
X37779Y20847D01*
X37776D01*
X37767Y20852D01*
X37760Y20854D01*
X37758Y20859D01*
X37756D01*
X37744Y20868D01*
X37735Y20880D01*
X37728Y20889D01*
X37726Y20891D01*
X37712Y20882D01*
X37698Y20877D01*
X37688Y20875D01*
X37684D01*
X37665Y20877D01*
X37651Y20882D01*
X37642Y20889D01*
X37640Y20891D01*
X37638Y20894D01*
X37635Y20896D01*
X37631Y20901D01*
X37628Y20905D01*
X37626Y20912D01*
Y20915D01*
Y20917D01*
X37624Y20928D01*
Y20940D01*
X37626Y20947D01*
Y20949D01*
X37614D01*
X37594Y20952D01*
X37580Y20958D01*
X37570Y20963D01*
X37568Y20965D01*
X37566Y20972D01*
X37564Y20975D01*
X37561Y20986D01*
X37559Y20996D01*
X37557Y21002D01*
Y21005D01*
X37559Y21016D01*
X37561Y21028D01*
X37566Y21035D01*
X37568Y21037D01*
X37570Y21039D01*
X37582Y21051D01*
X37591Y21060D01*
X37596Y21063D01*
X37598Y21065D01*
X37589Y21074D01*
X37580Y21081D01*
X37575Y21086D01*
X37573Y21088D01*
X37024Y20771D01*
X37041Y20762D01*
X37048Y20757D01*
X37057D01*
X37061Y20755D01*
X37078D01*
Y20753D01*
X38406D01*
X38420Y20755D01*
X38434Y20757D01*
X38454Y20766D01*
X38468Y20773D01*
X38471Y20778D01*
X38473D01*
X38480Y20787D01*
X38482Y20790D01*
X38487Y20797D01*
X38489Y20801D01*
X38491D01*
X38501Y20824D01*
X38503Y20845D01*
Y20854D01*
X38501Y20861D01*
Y20866D01*
Y20868D01*
X38498Y20880D01*
X38496Y20882D01*
X38494Y20891D01*
X38491Y20894D01*
Y20896D01*
Y20898D01*
X38179Y21437D01*
D02*
G37*
G36*
X37274Y21380D02*
X37272D01*
X36997Y20901D01*
Y20898D01*
X36990Y20884D01*
X36985Y20873D01*
X36983Y20864D01*
Y20859D01*
Y20852D01*
Y20850D01*
Y20840D01*
Y20836D01*
X37485Y21127D01*
X37469Y21137D01*
X37450Y21148D01*
X37418Y21171D01*
X37406Y21183D01*
X37395Y21192D01*
X37388Y21199D01*
X37385Y21201D01*
X37374Y21215D01*
X37369Y21220D01*
X37367Y21222D01*
X37358Y21234D01*
X37353Y21238D01*
Y21241D01*
X37344Y21255D01*
X37337Y21271D01*
X37332Y21285D01*
X37330Y21287D01*
Y21289D01*
X37323Y21310D01*
X37316Y21324D01*
X37314Y21331D01*
X37311Y21333D01*
X37302Y21350D01*
X37293Y21359D01*
X37288Y21366D01*
X37286Y21368D01*
X37277Y21375D01*
X37274Y21380D01*
D02*
G37*
G36*
X42175Y20595D02*
X42171Y20579D01*
X42166Y20565D01*
X42161Y20554D01*
X42159Y20551D01*
Y20549D01*
X42136Y20489D01*
X42212D01*
X42187Y20554D01*
X42182Y20570D01*
X42178Y20581D01*
X42175Y20591D01*
Y20595D01*
D02*
G37*
G36*
X38496Y20595D02*
X38491Y20579D01*
X38487Y20565D01*
X38482Y20554D01*
X38480Y20551D01*
Y20549D01*
X38457Y20489D01*
X38533D01*
X38508Y20554D01*
X38503Y20570D01*
X38498Y20581D01*
X38496Y20591D01*
Y20595D01*
D02*
G37*
G36*
X40891Y20598D02*
X40886D01*
X40873Y20595D01*
X40859Y20593D01*
X40849Y20588D01*
X40847Y20586D01*
X40836Y20577D01*
X40826Y20565D01*
X40822Y20558D01*
X40819Y20554D01*
X40815Y20537D01*
X40810Y20523D01*
Y20512D01*
Y20510D01*
Y20507D01*
X40815Y20479D01*
X40822Y20459D01*
X40829Y20445D01*
X40833Y20442D01*
Y20440D01*
X40849Y20426D01*
X40868Y20419D01*
X40882Y20417D01*
X40886D01*
X40910Y20422D01*
X40926Y20429D01*
X40937Y20436D01*
X40942Y20440D01*
X40954Y20461D01*
X40960Y20482D01*
Y20491D01*
X40963Y20498D01*
Y20503D01*
Y20505D01*
Y20521D01*
X40958Y20537D01*
X40956Y20549D01*
X40951Y20558D01*
X40944Y20572D01*
X40940Y20577D01*
X40923Y20588D01*
X40905Y20595D01*
X40891Y20598D01*
D02*
G37*
G36*
X37212D02*
X37207D01*
X37193Y20595D01*
X37179Y20593D01*
X37170Y20588D01*
X37168Y20586D01*
X37156Y20577D01*
X37147Y20565D01*
X37142Y20558D01*
X37140Y20554D01*
X37135Y20537D01*
X37131Y20523D01*
Y20512D01*
Y20510D01*
Y20507D01*
X37135Y20479D01*
X37142Y20459D01*
X37149Y20445D01*
X37154Y20442D01*
Y20440D01*
X37170Y20426D01*
X37189Y20419D01*
X37203Y20417D01*
X37207D01*
X37230Y20422D01*
X37247Y20429D01*
X37258Y20436D01*
X37263Y20440D01*
X37274Y20461D01*
X37281Y20482D01*
Y20491D01*
X37284Y20498D01*
Y20503D01*
Y20505D01*
Y20521D01*
X37279Y20537D01*
X37277Y20549D01*
X37272Y20558D01*
X37265Y20572D01*
X37260Y20577D01*
X37244Y20588D01*
X37226Y20595D01*
X37212Y20598D01*
D02*
G37*
G36*
X37834Y20350D02*
X37793D01*
X37788Y20348D01*
X37783Y20345D01*
Y20343D01*
X37779Y20338D01*
X37776Y20336D01*
Y20334D01*
Y20331D01*
Y20324D01*
X37779Y20322D01*
X37786Y20318D01*
X37788Y20315D01*
X37800Y20313D01*
X37834D01*
Y20350D01*
D02*
G37*
G36*
X37395D02*
X37390Y20336D01*
X37385Y20329D01*
Y20327D01*
X37374Y20297D01*
X37413D01*
X37399Y20329D01*
X37395Y20343D01*
Y20348D01*
Y20350D01*
D02*
G37*
G36*
X37700D02*
X37691D01*
X37677Y20348D01*
X37672Y20345D01*
X37670D01*
X37663Y20341D01*
X37658Y20336D01*
X37656Y20331D01*
Y20329D01*
X37651Y20313D01*
Y20308D01*
Y20306D01*
X37654Y20292D01*
X37656Y20283D01*
X37661Y20276D01*
X37663Y20274D01*
X37672Y20269D01*
X37682Y20267D01*
X37688Y20264D01*
X37691D01*
X37702Y20267D01*
X37709Y20269D01*
X37714Y20271D01*
X37716D01*
X37723Y20280D01*
X37726Y20292D01*
X37728Y20301D01*
Y20304D01*
X37726Y20320D01*
X37721Y20331D01*
X37719Y20338D01*
X37716Y20341D01*
X37709Y20345D01*
X37700Y20350D01*
D02*
G37*
G36*
X37568Y20199D02*
X37531D01*
X37527Y20197D01*
X37520Y20195D01*
X37515Y20190D01*
X37510Y20188D01*
Y20186D01*
X37508Y20176D01*
X37506Y20169D01*
Y20160D01*
Y20158D01*
X37508Y20144D01*
X37510Y20139D01*
Y20137D01*
X37515Y20128D01*
X37517Y20125D01*
Y20123D01*
X37522Y20121D01*
X37524Y20119D01*
X37527D01*
X37538Y20116D01*
X37568D01*
Y20199D01*
D02*
G37*
%LPD*%
D15*
X22750Y24550D02*
X24150D01*
X22750Y29650D02*
X25050D01*
X22750Y26600D02*
X25050D01*
D16*
X23351Y32350D02*
X23401Y32400D01*
X23500D01*
X23550Y32350D01*
Y32150D01*
X23500Y32100D01*
X23401D01*
X23351Y32150D01*
Y32250D01*
X23451D01*
X23251Y32100D02*
Y32400D01*
X23051Y32100D01*
Y32400D01*
X22951D02*
Y32100D01*
X22801D01*
X22751Y32150D01*
Y32350D01*
X22801Y32400D01*
X22951D01*
X23351Y31344D02*
X23401Y31394D01*
X23500D01*
X23550Y31344D01*
Y31144D01*
X23500Y31094D01*
X23401D01*
X23351Y31144D01*
Y31244D01*
X23451D01*
X23251Y31094D02*
Y31394D01*
X23051Y31094D01*
Y31394D01*
X22951D02*
Y31094D01*
X22801D01*
X22751Y31144D01*
Y31344D01*
X22801Y31394D01*
X22951D01*
X24150Y30139D02*
Y30439D01*
X24000D01*
X23950Y30389D01*
Y30289D01*
X24000Y30239D01*
X24150D01*
X23850Y30439D02*
Y30139D01*
X23750Y30239D01*
X23650Y30139D01*
Y30439D01*
X23550Y30139D02*
Y30439D01*
X23451Y30339D01*
X23351Y30439D01*
Y30139D01*
X23251Y30089D02*
X23051D01*
X22951Y30439D02*
Y30139D01*
X22801D01*
X22751Y30189D01*
Y30389D01*
X22801Y30439D01*
X22951D01*
X25050Y29150D02*
Y29450D01*
X24900D01*
X24850Y29400D01*
Y29300D01*
X24900Y29250D01*
X25050D01*
X24950D02*
X24850Y29150D01*
X24550Y29450D02*
X24750D01*
Y29150D01*
X24550D01*
X24750Y29300D02*
X24650D01*
X24250Y29400D02*
X24300Y29450D01*
X24400D01*
X24450Y29400D01*
Y29350D01*
X24400Y29300D01*
X24300D01*
X24250Y29250D01*
Y29200D01*
X24300Y29150D01*
X24400D01*
X24450Y29200D01*
X23950Y29450D02*
X24150D01*
Y29150D01*
X23950D01*
X24150Y29300D02*
X24050D01*
X23850Y29450D02*
X23650D01*
X23750D01*
Y29150D01*
X23550Y29100D02*
X23351D01*
X23051Y29400D02*
X23101Y29450D01*
X23201D01*
X23251Y29400D01*
Y29200D01*
X23201Y29150D01*
X23101D01*
X23051Y29200D01*
X22951Y29450D02*
Y29150D01*
X22801D01*
X22751Y29200D01*
Y29400D01*
X22801Y29450D01*
X22951D01*
X24150Y28128D02*
Y28428D01*
X24000D01*
X23950Y28378D01*
Y28278D01*
X24000Y28228D01*
X24150D01*
X23850Y28428D02*
Y28128D01*
X23750Y28228D01*
X23650Y28128D01*
Y28428D01*
X23550Y28128D02*
Y28428D01*
X23451Y28328D01*
X23351Y28428D01*
Y28128D01*
X23251Y28078D02*
X23051D01*
X22751Y28378D02*
X22801Y28428D01*
X22901D01*
X22951Y28378D01*
Y28178D01*
X22901Y28128D01*
X22801D01*
X22751Y28178D01*
X24150Y27122D02*
Y27422D01*
X24000D01*
X23950Y27372D01*
Y27272D01*
X24000Y27222D01*
X24150D01*
X23850Y27422D02*
Y27122D01*
X23750Y27222D01*
X23650Y27122D01*
Y27422D01*
X23550Y27122D02*
Y27422D01*
X23451Y27322D01*
X23351Y27422D01*
Y27122D01*
X23251Y27072D02*
X23051D01*
X22951Y27422D02*
Y27122D01*
X22801D01*
X22751Y27172D01*
Y27222D01*
X22801Y27272D01*
X22951D01*
X22801D01*
X22751Y27322D01*
Y27372D01*
X22801Y27422D01*
X22951D01*
X25050Y26117D02*
Y26417D01*
X24900D01*
X24850Y26367D01*
Y26267D01*
X24900Y26217D01*
X25050D01*
X24950D02*
X24850Y26117D01*
X24550Y26417D02*
X24750D01*
Y26117D01*
X24550D01*
X24750Y26267D02*
X24650D01*
X24250Y26367D02*
X24300Y26417D01*
X24400D01*
X24450Y26367D01*
Y26317D01*
X24400Y26267D01*
X24300D01*
X24250Y26217D01*
Y26167D01*
X24300Y26117D01*
X24400D01*
X24450Y26167D01*
X23950Y26417D02*
X24150D01*
Y26117D01*
X23950D01*
X24150Y26267D02*
X24050D01*
X23850Y26417D02*
X23650D01*
X23750D01*
Y26117D01*
X23550Y26067D02*
X23351D01*
X23251Y26117D02*
Y26317D01*
X23151Y26417D01*
X23051Y26317D01*
Y26117D01*
Y26267D01*
X23251D01*
X22951Y26417D02*
Y26117D01*
X22801D01*
X22751Y26167D01*
Y26217D01*
X22801Y26267D01*
X22951D01*
X22801D01*
X22751Y26317D01*
Y26367D01*
X22801Y26417D01*
X22951D01*
X24150Y25111D02*
Y25411D01*
X24000D01*
X23950Y25361D01*
Y25261D01*
X24000Y25211D01*
X24150D01*
X23850Y25411D02*
Y25111D01*
X23750Y25211D01*
X23650Y25111D01*
Y25411D01*
X23550Y25111D02*
Y25411D01*
X23451Y25311D01*
X23351Y25411D01*
Y25111D01*
X23251Y25061D02*
X23051D01*
X22951Y25111D02*
Y25311D01*
X22851Y25411D01*
X22751Y25311D01*
Y25111D01*
Y25261D01*
X22951D01*
X23950Y24355D02*
X24150D01*
Y24206D01*
X24050D01*
X24150D01*
Y24056D01*
X23850D02*
Y24255D01*
X23750Y24355D01*
X23650Y24255D01*
Y24056D01*
Y24206D01*
X23850D01*
X23550Y24355D02*
Y24106D01*
X23500Y24056D01*
X23401D01*
X23351Y24106D01*
Y24355D01*
X23251D02*
Y24056D01*
X23051D01*
X22951Y24355D02*
X22751D01*
X22851D01*
Y24056D01*
X23401Y23350D02*
X23500D01*
X23550Y23300D01*
Y23100D01*
X23500Y23050D01*
X23401D01*
X23351Y23100D01*
Y23300D01*
X23401Y23350D01*
X23251D02*
X23051D01*
X23151D01*
Y23050D01*
X22951Y23350D02*
Y23050D01*
X22851Y23150D01*
X22751Y23050D01*
Y23350D01*
X45900Y26250D02*
Y26550D01*
X45750D01*
X45700Y26500D01*
Y26400D01*
X45750Y26350D01*
X45900D01*
X45600Y26550D02*
Y26350D01*
X45500Y26250D01*
X45400Y26350D01*
Y26550D01*
X45300D02*
Y26250D01*
X45150D01*
X45100Y26300D01*
Y26500D01*
X45150Y26550D01*
X45300D01*
X45000D02*
Y26250D01*
X44850D01*
X44800Y26300D01*
Y26500D01*
X44850Y26550D01*
X45000D01*
X44251Y26250D02*
X44400Y26400D01*
X44251Y26550D01*
X43601D02*
X43801D01*
Y26400D01*
X43701Y26450D01*
X43651D01*
X43601Y26400D01*
Y26300D01*
X43651Y26250D01*
X43751D01*
X43801Y26300D01*
X43501Y26500D02*
X43451Y26550D01*
X43351D01*
X43301Y26500D01*
Y26300D01*
X43351Y26250D01*
X43451D01*
X43501Y26300D01*
Y26500D01*
X43201Y26550D02*
Y26350D01*
X43101Y26250D01*
X43001Y26350D01*
Y26550D01*
X45750Y24350D02*
X45850D01*
X45900Y24300D01*
Y24100D01*
X45850Y24050D01*
X45750D01*
X45700Y24100D01*
Y24300D01*
X45750Y24350D01*
X45600D02*
Y24100D01*
X45550Y24050D01*
X45450D01*
X45400Y24100D01*
Y24350D01*
X45300D02*
X45100D01*
X45200D01*
Y24050D01*
X45000Y24000D02*
X44800D01*
X44700Y24350D02*
Y24050D01*
X44550D01*
X44500Y24100D01*
Y24150D01*
X44550Y24200D01*
X44700D01*
X44550D01*
X44500Y24250D01*
Y24300D01*
X44550Y24350D01*
X44700D01*
X45750Y22800D02*
X45850D01*
X45900Y22750D01*
Y22550D01*
X45850Y22500D01*
X45750D01*
X45700Y22550D01*
Y22750D01*
X45750Y22800D01*
X45600D02*
Y22550D01*
X45550Y22500D01*
X45450D01*
X45400Y22550D01*
Y22800D01*
X45300D02*
X45100D01*
X45200D01*
Y22500D01*
X45000Y22450D02*
X44800D01*
X44700Y22500D02*
Y22700D01*
X44600Y22800D01*
X44500Y22700D01*
Y22500D01*
Y22650D01*
X44700D01*
X45900Y27200D02*
Y27000D01*
X45800Y26900D01*
X45700Y27000D01*
Y27200D01*
X45600Y27050D02*
X45400D01*
X45500Y27150D02*
Y26950D01*
X45750Y31350D02*
X45850D01*
X45900Y31300D01*
Y31100D01*
X45850Y31050D01*
X45750D01*
X45700Y31100D01*
Y31300D01*
X45750Y31350D01*
X45600D02*
Y31100D01*
X45550Y31050D01*
X45450D01*
X45400Y31100D01*
Y31350D01*
X45300D02*
X45100D01*
X45200D01*
Y31050D01*
X45000Y31000D02*
X44800D01*
X44500Y31300D02*
X44550Y31350D01*
X44650D01*
X44700Y31300D01*
Y31100D01*
X44650Y31050D01*
X44550D01*
X44500Y31100D01*
X45900Y28650D02*
Y28450D01*
X45800Y28350D01*
X45700Y28450D01*
Y28650D01*
X45600Y28500D02*
X45400D01*
X45750Y32900D02*
X45850D01*
X45900Y32850D01*
Y32650D01*
X45850Y32600D01*
X45750D01*
X45700Y32650D01*
Y32850D01*
X45750Y32900D01*
X45600D02*
Y32650D01*
X45550Y32600D01*
X45450D01*
X45400Y32650D01*
Y32900D01*
X45300D02*
X45100D01*
X45200D01*
Y32600D01*
X45000Y32550D02*
X44800D01*
X44700Y32900D02*
Y32600D01*
X44550D01*
X44500Y32650D01*
Y32850D01*
X44550Y32900D01*
X44700D01*
X25950Y35200D02*
Y35000D01*
X25850Y34900D01*
X25750Y35000D01*
Y35200D01*
X25650Y35050D02*
X25450D01*
X25550Y35150D02*
Y34950D01*
X24600Y35200D02*
Y35000D01*
X24500Y34900D01*
X24400Y35000D01*
Y35200D01*
X24300Y35050D02*
X24100D01*
X26300Y33350D02*
X26350Y33400D01*
X26450D01*
X26500Y33350D01*
Y33150D01*
X26450Y33100D01*
X26350D01*
X26300Y33150D01*
Y33250D01*
X26400D01*
X26200Y33400D02*
Y33200D01*
X26100Y33100D01*
X26000Y33200D01*
Y33400D01*
X25900D02*
Y33100D01*
X25750D01*
X25700Y33150D01*
Y33350D01*
X25750Y33400D01*
X25900D01*
X25600D02*
Y33100D01*
X25450D01*
X25400Y33150D01*
Y33350D01*
X25450Y33400D01*
X25600D01*
X25000Y33200D02*
X24801D01*
X25000Y33300D02*
X24801D01*
X24401Y33100D02*
X24301D01*
X24351D01*
Y33400D01*
X24401Y33350D01*
X23951Y33100D02*
X24151D01*
X23951Y33300D01*
Y33350D01*
X24001Y33400D01*
X24101D01*
X24151Y33350D01*
X23851Y33400D02*
Y33200D01*
X23751Y33100D01*
X23651Y33200D01*
Y33400D01*
M02*
