G04*
G04 #@! TF.GenerationSoftware,Altium Limited,Altium Designer,20.2.7 (254)*
G04*
G04 Layer_Color=16711935*
%FSLAX24Y24*%
%MOIN*%
G70*
G04*
G04 #@! TF.SameCoordinates,73111772-9855-4169-A750-BE6C64973626*
G04*
G04*
G04 #@! TF.FilePolarity,Negative*
G04*
G01*
G75*
%ADD28R,0.0630X0.0630*%
%ADD29C,0.0630*%
%ADD30R,0.0630X0.0630*%
%ADD31R,0.0984X0.0787*%
%ADD32C,0.0900*%
%ADD33R,0.0900X0.0900*%
%ADD34C,0.0591*%
%ADD35R,0.0591X0.0591*%
%ADD36R,0.0591X0.0591*%
%ADD37R,0.0787X0.0984*%
%ADD38C,0.1380*%
%ADD39C,0.0277*%
D28*
X26000Y25700D02*
D03*
Y29000D02*
D03*
Y32300D02*
D03*
D29*
Y24700D02*
D03*
Y23700D02*
D03*
Y28000D02*
D03*
Y27000D02*
D03*
Y31300D02*
D03*
Y30300D02*
D03*
X31496Y34775D02*
D03*
D30*
X30496D02*
D03*
D31*
X47396Y33275D02*
D03*
Y31275D02*
D03*
Y24875D02*
D03*
Y22875D02*
D03*
Y29075D02*
D03*
Y27075D02*
D03*
D32*
X41446D02*
D03*
D33*
Y29075D02*
D03*
D34*
X21718Y32600D02*
D03*
Y31600D02*
D03*
Y30600D02*
D03*
Y28600D02*
D03*
Y26600D02*
D03*
Y24600D02*
D03*
Y25600D02*
D03*
Y27600D02*
D03*
Y29600D02*
D03*
X23064Y21018D02*
D03*
D35*
X21718Y23600D02*
D03*
D36*
X24064Y21018D02*
D03*
D37*
X23896Y35575D02*
D03*
X25896D02*
D03*
D38*
X20946Y35875D02*
D03*
Y20025D02*
D03*
X48146Y35875D02*
D03*
Y20025D02*
D03*
D39*
X33196Y26976D02*
D03*
X32763D02*
D03*
X32330D02*
D03*
X31896D02*
D03*
X33196Y27409D02*
D03*
X32763D02*
D03*
X32330D02*
D03*
X31896D02*
D03*
X33196Y27842D02*
D03*
X32763D02*
D03*
X32330D02*
D03*
X31896D02*
D03*
X33196Y28275D02*
D03*
X32763D02*
D03*
X32330D02*
D03*
X31896D02*
D03*
X33196Y28708D02*
D03*
X32763D02*
D03*
X32330D02*
D03*
X31896D02*
D03*
X33196Y29141D02*
D03*
X32763D02*
D03*
X32330D02*
D03*
X31896D02*
D03*
X33196Y29574D02*
D03*
X32763D02*
D03*
X32330D02*
D03*
X31896D02*
D03*
M02*
