G04*
G04 #@! TF.GenerationSoftware,Altium Limited,Altium Designer,20.2.7 (254)*
G04*
G04 Layer_Color=16711935*
%FSLAX24Y24*%
%MOIN*%
G70*
G04*
G04 #@! TF.SameCoordinates,1EA883F8-83C0-4C25-9ED1-4D81CC3EECC2*
G04*
G04*
G04 #@! TF.FilePolarity,Negative*
G04*
G01*
G75*
%ADD30C,0.1460*%
%ADD31C,0.0980*%
%ADD32R,0.0980X0.0980*%
%ADD33C,0.0880*%
%ADD34R,0.0880X0.0880*%
%ADD35O,0.0830X0.0730*%
%ADD36R,0.0830X0.0730*%
%ADD37C,0.0671*%
%ADD38R,0.0671X0.0671*%
%ADD39R,0.0880X0.0880*%
%ADD40C,0.0277*%
D30*
X21400Y21000D02*
D03*
X47650D02*
D03*
Y34600D02*
D03*
X21400D02*
D03*
D31*
X41800Y27650D02*
D03*
D32*
X43800D02*
D03*
D33*
X24372Y34100D02*
D03*
X47300Y28478D02*
D03*
Y24228D02*
D03*
Y32728D02*
D03*
D34*
X25750Y34100D02*
D03*
D35*
X28150Y32960D02*
D03*
D36*
Y31950D02*
D03*
D37*
X21900Y32150D02*
D03*
Y31150D02*
D03*
Y30150D02*
D03*
Y28150D02*
D03*
Y26150D02*
D03*
Y24150D02*
D03*
Y25150D02*
D03*
Y27150D02*
D03*
Y29150D02*
D03*
D38*
Y23150D02*
D03*
D39*
X47300Y27100D02*
D03*
Y22850D02*
D03*
Y31350D02*
D03*
D40*
X31646Y26426D02*
D03*
X31213D02*
D03*
X30780D02*
D03*
X30346D02*
D03*
X31646Y26859D02*
D03*
X31213D02*
D03*
X30780D02*
D03*
X30346D02*
D03*
X31646Y27292D02*
D03*
X31213D02*
D03*
X30780D02*
D03*
X30346D02*
D03*
X31646Y27725D02*
D03*
X31213D02*
D03*
X30780D02*
D03*
X30346D02*
D03*
X31646Y28158D02*
D03*
X31213D02*
D03*
X30780D02*
D03*
X30346D02*
D03*
X31646Y28591D02*
D03*
X31213D02*
D03*
X30780D02*
D03*
X30346D02*
D03*
X31646Y29024D02*
D03*
X31213D02*
D03*
X30780D02*
D03*
X30346D02*
D03*
M02*
