G04*
G04 #@! TF.GenerationSoftware,Altium Limited,Altium Designer,20.2.7 (254)*
G04*
G04 Layer_Color=8388736*
%FSLAX24Y24*%
%MOIN*%
G70*
G04*
G04 #@! TF.SameCoordinates,A2DF4F17-84A0-47B6-94FA-DBA5B2F971EF*
G04*
G04*
G04 #@! TF.FilePolarity,Negative*
G04*
G01*
G75*
%ADD24R,0.0454X0.0395*%
%ADD25R,0.0395X0.0454*%
%ADD26R,0.0395X0.0395*%
%ADD27R,0.1320X0.0710*%
%ADD28R,0.1777X0.3332*%
%ADD29O,0.0631X0.0237*%
%ADD30C,0.1460*%
%ADD31C,0.0980*%
%ADD32R,0.0980X0.0980*%
%ADD33C,0.0880*%
%ADD34R,0.0880X0.0880*%
%ADD35O,0.0830X0.0730*%
%ADD36R,0.0830X0.0730*%
%ADD37C,0.0671*%
%ADD38R,0.0671X0.0671*%
%ADD39R,0.0880X0.0880*%
%ADD40C,0.0277*%
D24*
X36000Y26699D02*
D03*
Y27250D02*
D03*
Y28776D02*
D03*
Y28224D02*
D03*
Y25374D02*
D03*
Y25926D02*
D03*
Y30076D02*
D03*
Y29524D02*
D03*
X38000Y27401D02*
D03*
Y26850D02*
D03*
Y28551D02*
D03*
Y28000D02*
D03*
X33300Y23924D02*
D03*
Y24476D02*
D03*
X28450Y27657D02*
D03*
Y28208D02*
D03*
X27750Y28206D02*
D03*
Y27654D02*
D03*
X27050Y28206D02*
D03*
Y27654D02*
D03*
X33300Y30974D02*
D03*
Y31526D02*
D03*
X27200Y30976D02*
D03*
Y30424D02*
D03*
D25*
X29474Y24450D02*
D03*
X30026D02*
D03*
X28149Y34900D02*
D03*
X28700D02*
D03*
X28149Y34250D02*
D03*
X28700D02*
D03*
X32500Y31000D02*
D03*
X31949D02*
D03*
X29474D02*
D03*
X30026D02*
D03*
X32526Y24450D02*
D03*
X31974D02*
D03*
D26*
X30015Y34900D02*
D03*
X29385D02*
D03*
X30015Y34250D02*
D03*
X29385D02*
D03*
D27*
X26000Y31000D02*
D03*
X24071D02*
D03*
D28*
X30996Y27725D02*
D03*
D29*
X32492Y25100D02*
D03*
Y25350D02*
D03*
Y25600D02*
D03*
Y25850D02*
D03*
Y26100D02*
D03*
Y26350D02*
D03*
Y26600D02*
D03*
Y26850D02*
D03*
Y27100D02*
D03*
Y27350D02*
D03*
Y27600D02*
D03*
Y27850D02*
D03*
Y28100D02*
D03*
Y28350D02*
D03*
Y28600D02*
D03*
Y28850D02*
D03*
Y29100D02*
D03*
Y29350D02*
D03*
Y29600D02*
D03*
Y29850D02*
D03*
Y30100D02*
D03*
Y30350D02*
D03*
X29500Y25100D02*
D03*
Y25350D02*
D03*
Y25600D02*
D03*
Y25850D02*
D03*
Y26100D02*
D03*
Y26350D02*
D03*
Y26600D02*
D03*
Y26850D02*
D03*
Y27100D02*
D03*
Y27350D02*
D03*
Y27600D02*
D03*
Y27850D02*
D03*
Y28100D02*
D03*
Y28350D02*
D03*
Y28600D02*
D03*
Y28850D02*
D03*
Y29100D02*
D03*
Y29350D02*
D03*
Y29600D02*
D03*
Y29850D02*
D03*
Y30100D02*
D03*
Y30350D02*
D03*
D30*
X21400Y21000D02*
D03*
X47650D02*
D03*
Y34600D02*
D03*
X21400D02*
D03*
D31*
X41800Y27650D02*
D03*
D32*
X43800D02*
D03*
D33*
X24372Y34100D02*
D03*
X47300Y28478D02*
D03*
Y24228D02*
D03*
Y32728D02*
D03*
D34*
X25750Y34100D02*
D03*
D35*
X28150Y32960D02*
D03*
D36*
Y31950D02*
D03*
D37*
X21900Y32150D02*
D03*
Y31150D02*
D03*
Y30150D02*
D03*
Y28150D02*
D03*
Y26150D02*
D03*
Y24150D02*
D03*
Y25150D02*
D03*
Y27150D02*
D03*
Y29150D02*
D03*
D38*
Y23150D02*
D03*
D39*
X47300Y27100D02*
D03*
Y22850D02*
D03*
Y31350D02*
D03*
D40*
X31646Y26426D02*
D03*
X31213D02*
D03*
X30780D02*
D03*
X30346D02*
D03*
X31646Y26859D02*
D03*
X31213D02*
D03*
X30780D02*
D03*
X30346D02*
D03*
X31646Y27292D02*
D03*
X31213D02*
D03*
X30780D02*
D03*
X30346D02*
D03*
X31646Y27725D02*
D03*
X31213D02*
D03*
X30780D02*
D03*
X30346D02*
D03*
X31646Y28158D02*
D03*
X31213D02*
D03*
X30780D02*
D03*
X30346D02*
D03*
X31646Y28591D02*
D03*
X31213D02*
D03*
X30780D02*
D03*
X30346D02*
D03*
X31646Y29024D02*
D03*
X31213D02*
D03*
X30780D02*
D03*
X30346D02*
D03*
M02*
