G04*
G04 #@! TF.GenerationSoftware,Altium Limited,Altium Designer,20.2.7 (254)*
G04*
G04 Layer_Color=65535*
%FSLAX24Y24*%
%MOIN*%
G70*
G04*
G04 #@! TF.SameCoordinates,A2DF4F17-84A0-47B6-94FA-DBA5B2F971EF*
G04*
G04*
G04 #@! TF.FilePolarity,Positive*
G04*
G01*
G75*
%ADD10C,0.0070*%
%ADD11C,0.0098*%
%ADD12C,0.0236*%
%ADD13R,0.0100X0.0100*%
%ADD14C,0.0079*%
%ADD15C,0.0100*%
%ADD16C,0.0050*%
%ADD17C,0.0079*%
G36*
X26230Y35620D02*
X26243Y35590D01*
Y35090D01*
X26230Y35060D01*
X26200Y35047D01*
X25200D01*
X25170Y35060D01*
X25157Y35090D01*
Y35590D01*
X25170Y35620D01*
X25200Y35633D01*
X26200D01*
X26230Y35620D01*
D02*
G37*
G36*
X24878Y35618D02*
X24894Y35580D01*
Y35080D01*
X24878Y35042D01*
X24840Y35026D01*
X23840D01*
X23802Y35042D01*
X23786Y35080D01*
Y35580D01*
X23802Y35618D01*
X23840Y35634D01*
X24840D01*
X24878Y35618D01*
D02*
G37*
G36*
X48818Y33298D02*
X48834Y33260D01*
Y32260D01*
X48818Y32222D01*
X48780Y32206D01*
X48280D01*
X48242Y32222D01*
X48226Y32260D01*
Y33260D01*
X48242Y33298D01*
X48280Y33314D01*
X48780D01*
X48818Y33298D01*
D02*
G37*
G36*
X28960Y31700D02*
X28710Y31950D01*
X28960Y32200D01*
Y31700D01*
D02*
G37*
G36*
X48820Y31930D02*
X48833Y31900D01*
Y30900D01*
X48820Y30870D01*
X48790Y30857D01*
X48290D01*
X48260Y30870D01*
X48247Y30900D01*
Y31900D01*
X48260Y31930D01*
X48290Y31943D01*
X48790D01*
X48820Y31930D01*
D02*
G37*
G36*
X40990Y25910D02*
X40590Y26490D01*
X40390Y26950D01*
X40320Y27310D01*
X40300Y27650D01*
X40310Y27940D01*
X40460Y28550D01*
X40620Y28890D01*
X40790Y29160D01*
X40800Y29140D01*
X40990Y29400D01*
Y25910D01*
D02*
G37*
G36*
X48818Y29048D02*
X48834Y29010D01*
Y28010D01*
X48818Y27972D01*
X48780Y27956D01*
X48280D01*
X48242Y27972D01*
X48226Y28010D01*
Y29010D01*
X48242Y29048D01*
X48280Y29064D01*
X48780D01*
X48818Y29048D01*
D02*
G37*
G36*
X48820Y27680D02*
X48833Y27650D01*
Y26650D01*
X48820Y26620D01*
X48790Y26607D01*
X48290D01*
X48260Y26620D01*
X48247Y26650D01*
Y27650D01*
X48260Y27680D01*
X48290Y27693D01*
X48790D01*
X48820Y27680D01*
D02*
G37*
G36*
X48818Y24798D02*
X48834Y24760D01*
Y23760D01*
X48818Y23722D01*
X48780Y23706D01*
X48280D01*
X48242Y23722D01*
X48226Y23760D01*
Y24760D01*
X48242Y24798D01*
X48280Y24814D01*
X48780D01*
X48818Y24798D01*
D02*
G37*
G36*
X40437Y22928D02*
X40438Y22929D01*
X40438Y22929D01*
X40438Y22930D01*
X40440Y22930D01*
X40442Y22930D01*
X40496Y22921D01*
X40496Y22920D01*
X40497Y22920D01*
X40579Y22889D01*
X40580Y22888D01*
X40580Y22888D01*
X40625Y22860D01*
X40625Y22860D01*
X40625Y22859D01*
X40660Y22831D01*
X40660Y22830D01*
X40661Y22830D01*
X40718Y22741D01*
X40718Y22740D01*
X40718Y22740D01*
X40763Y22639D01*
X40763Y22638D01*
X40763Y22637D01*
Y22570D01*
X40763Y22570D01*
X40763Y22569D01*
X40762Y22568D01*
X40761Y22567D01*
X40761Y22566D01*
X40760Y22566D01*
X40726Y22547D01*
X40725Y22547D01*
X40725Y22546D01*
X40687Y22530D01*
X40686Y22530D01*
X40686Y22530D01*
X40641Y22524D01*
X40641Y22524D01*
X40641Y22524D01*
X40587Y22517D01*
X40587Y22517D01*
X40587Y22517D01*
X40479D01*
X40478Y22518D01*
X40477Y22518D01*
X40439Y22530D01*
X40439Y22531D01*
X40438Y22531D01*
X40378Y22562D01*
X40378Y22563D01*
X40377Y22563D01*
X40308Y22630D01*
X40307Y22630D01*
X40307Y22631D01*
X40281Y22672D01*
X40281Y22672D01*
X40281Y22672D01*
X40262Y22704D01*
X40262Y22704D01*
X40262Y22704D01*
X40227Y22787D01*
X40227Y22787D01*
X40227Y22787D01*
X40208Y22841D01*
X40208Y22842D01*
X40208Y22843D01*
X40208Y22844D01*
X40208Y22845D01*
X40209Y22846D01*
X40210Y22847D01*
X40267Y22891D01*
X40268Y22892D01*
X40268Y22892D01*
X40316Y22908D01*
X40316Y22908D01*
X40316Y22908D01*
X40367Y22924D01*
X40367Y22924D01*
X40368Y22924D01*
X40415Y22930D01*
X40416Y22930D01*
X40416Y22930D01*
X40437Y22928D01*
D02*
G37*
G36*
X41268Y22924D02*
X41269Y22924D01*
X41332Y22908D01*
X41333Y22908D01*
X41333Y22908D01*
X41381Y22886D01*
X41381Y22886D01*
X41381Y22886D01*
X41402Y22875D01*
X41434Y22859D01*
X41435Y22858D01*
X41436Y22857D01*
X41436Y22856D01*
X41436Y22856D01*
X41436Y22855D01*
X41437Y22855D01*
X41437Y22854D01*
X41437Y22854D01*
X41437Y22852D01*
X41438Y22851D01*
X41425Y22803D01*
X41425Y22803D01*
Y22803D01*
X41402Y22749D01*
X41402Y22748D01*
X41402Y22748D01*
X41374Y22703D01*
X41373Y22703D01*
X41373Y22703D01*
X41329Y22646D01*
X41328Y22646D01*
X41328Y22645D01*
X41271Y22595D01*
X41271Y22594D01*
X41270Y22594D01*
X41194Y22556D01*
X41194Y22556D01*
X41194Y22556D01*
X41143Y22537D01*
X41142Y22537D01*
X41141Y22536D01*
X41048Y22529D01*
X41048Y22529D01*
X41048Y22529D01*
X41010D01*
X41009Y22529D01*
X41009Y22529D01*
X40962Y22539D01*
X40962Y22539D01*
X40961Y22539D01*
X40920Y22548D01*
X40920Y22548D01*
X40920Y22548D01*
X40867Y22564D01*
X40845Y22567D01*
X40844Y22568D01*
X40842Y22568D01*
X40827Y22577D01*
X40827Y22578D01*
X40826Y22578D01*
X40825Y22579D01*
X40824Y22581D01*
X40824Y22581D01*
X40824Y22581D01*
X40818Y22638D01*
X40818Y22639D01*
X40818Y22639D01*
X40818Y22640D01*
X40819Y22642D01*
X40838Y22673D01*
X40838Y22674D01*
X40838Y22674D01*
X40860Y22705D01*
X40876Y22731D01*
X40876Y22731D01*
X40876Y22731D01*
X40895Y22753D01*
X40911Y22775D01*
X40911Y22776D01*
X40912Y22776D01*
X40930Y22791D01*
X40942Y22807D01*
X40943Y22807D01*
X40943Y22808D01*
X40972Y22830D01*
X40972Y22830D01*
X40972Y22830D01*
X41033Y22869D01*
X41034Y22869D01*
X41034Y22870D01*
X41091Y22898D01*
X41091Y22898D01*
X41092Y22899D01*
X41146Y22914D01*
X41146Y22914D01*
X41146Y22914D01*
X41206Y22924D01*
X41207Y22924D01*
X41207Y22924D01*
X41268D01*
X41268Y22924D01*
D02*
G37*
G36*
X40885Y23522D02*
X40886Y23522D01*
X40887Y23521D01*
X40889Y23520D01*
X40889Y23520D01*
X40889Y23520D01*
X40911Y23482D01*
X40911Y23481D01*
X40912Y23481D01*
X40924Y23453D01*
X40946Y23409D01*
X40946Y23408D01*
X40946Y23408D01*
X40965Y23351D01*
Y23351D01*
D01*
X40965Y23351D01*
X40966Y23351D01*
X40988Y23262D01*
X40988Y23262D01*
X40988Y23261D01*
Y23169D01*
X40988Y23168D01*
X40988Y23168D01*
X40982Y23102D01*
X40982Y23102D01*
X40982Y23101D01*
X40982Y23101D01*
X40963Y23028D01*
X40962Y23028D01*
X40962Y23027D01*
X40940Y22976D01*
X40939Y22976D01*
X40939Y22975D01*
X40922Y22954D01*
X40907Y22937D01*
X40907Y22937D01*
X40907Y22937D01*
X40790Y22798D01*
X40790Y22798D01*
X40790Y22798D01*
X40790Y22797D01*
X40790Y22797D01*
X40788Y22797D01*
X40787Y22796D01*
X40787Y22796D01*
X40786Y22796D01*
X40786Y22796D01*
X40786Y22796D01*
X40785Y22797D01*
X40783Y22797D01*
X40783Y22797D01*
X40783Y22798D01*
X40782Y22798D01*
X40782Y22798D01*
X40754Y22829D01*
X40753Y22830D01*
X40753Y22830D01*
X40725Y22878D01*
X40725Y22878D01*
X40725Y22878D01*
X40693Y22938D01*
X40693Y22938D01*
X40693Y22939D01*
X40664Y23005D01*
X40664Y23006D01*
X40664Y23006D01*
X40645Y23091D01*
X40645Y23092D01*
X40645Y23093D01*
X40648Y23179D01*
X40648Y23179D01*
X40648Y23180D01*
X40670Y23265D01*
X40670Y23265D01*
X40670Y23266D01*
X40696Y23332D01*
X40696Y23333D01*
X40696Y23333D01*
X40731Y23384D01*
X40731Y23384D01*
X40732Y23385D01*
X40773Y23432D01*
X40773Y23432D01*
X40773Y23433D01*
X40805Y23458D01*
X40840Y23489D01*
X40840Y23489D01*
X40840Y23490D01*
X40881Y23521D01*
X40881Y23521D01*
X40882Y23522D01*
X40883Y23522D01*
X40885Y23522D01*
X40885Y23522D01*
D02*
G37*
G36*
X41419Y22508D02*
X41419Y22508D01*
X41485Y22505D01*
X41488D01*
X41489Y22505D01*
X41490Y22505D01*
X41541Y22489D01*
X41541Y22489D01*
X41541Y22489D01*
X41588Y22470D01*
X41589Y22469D01*
X41590Y22469D01*
X41640Y22428D01*
X41641Y22427D01*
X41642Y22426D01*
X41642Y22425D01*
X41642Y22424D01*
X41642Y22423D01*
X41642Y22422D01*
X41623Y22356D01*
X41623Y22355D01*
X41623Y22355D01*
X41604Y22314D01*
X41604Y22314D01*
X41604Y22313D01*
X41578Y22269D01*
X41578Y22269D01*
X41578Y22269D01*
X41553Y22231D01*
X41553Y22231D01*
X41553Y22230D01*
X41524Y22195D01*
X41524Y22195D01*
X41524Y22195D01*
X41495Y22169D01*
X41495Y22169D01*
X41494Y22169D01*
X41431Y22125D01*
X41431Y22125D01*
X41431Y22124D01*
X41386Y22099D01*
X41386Y22099D01*
X41385Y22099D01*
X41322Y22077D01*
X41322Y22077D01*
X41321Y22076D01*
X41271Y22067D01*
X41270Y22067D01*
X41270Y22067D01*
X41203D01*
X41203Y22067D01*
X41203Y22067D01*
X41060Y22086D01*
X41059Y22086D01*
X41058Y22086D01*
X40982Y22121D01*
X40981Y22122D01*
X40980Y22123D01*
X40980Y22124D01*
X40980Y22124D01*
X40980Y22126D01*
X40979Y22127D01*
X40982Y22144D01*
X40948Y22206D01*
X40948Y22207D01*
X40948Y22207D01*
X40948Y22208D01*
X40948Y22208D01*
X40948Y22209D01*
X40948Y22210D01*
X40948Y22211D01*
X40949Y22211D01*
X41006Y22290D01*
X41006Y22291D01*
X41006Y22291D01*
X41066Y22364D01*
X41067Y22364D01*
X41067Y22364D01*
X41098Y22393D01*
X41099Y22393D01*
X41099Y22393D01*
X41131Y22415D01*
X41131Y22415D01*
X41131Y22416D01*
X41166Y22435D01*
X41223Y22469D01*
X41223Y22469D01*
X41223Y22470D01*
X41290Y22495D01*
X41291Y22495D01*
X41291Y22495D01*
X41357Y22508D01*
X41358Y22508D01*
X41358Y22508D01*
X41419D01*
X41419Y22508D01*
D02*
G37*
G36*
X40554Y22410D02*
X40555Y22410D01*
X40555Y22410D01*
X40615Y22400D01*
X40616Y22400D01*
X40616Y22400D01*
X40654Y22387D01*
X40654Y22387D01*
X40654Y22387D01*
X40708Y22365D01*
X40708Y22365D01*
X40708Y22365D01*
X40756Y22343D01*
X40756Y22343D01*
X40756Y22343D01*
X40789Y22323D01*
X40789Y22323D01*
X40791Y22324D01*
X40791Y22324D01*
X40791Y22324D01*
X40793Y22324D01*
X40795Y22324D01*
X40848Y22289D01*
X40849Y22287D01*
X40851Y22286D01*
X40851Y22286D01*
X40851Y22285D01*
X40850Y22284D01*
X40850Y22282D01*
X40850Y22282D01*
X40850Y22281D01*
X40848Y22280D01*
X40847Y22279D01*
X40847Y22279D01*
X40846Y22279D01*
X40845Y22279D01*
X40843Y22280D01*
X40842Y22280D01*
X40862Y22256D01*
X40862Y22256D01*
X40862Y22256D01*
X40863Y22254D01*
X40863Y22252D01*
X40863Y22252D01*
X40863Y22252D01*
X40861Y22236D01*
X40887Y22209D01*
X40888Y22208D01*
X40888Y22207D01*
X40926Y22115D01*
X40926Y22114D01*
X40927Y22113D01*
X40926Y22113D01*
X40926Y22112D01*
X40926Y22111D01*
Y22111D01*
X40926Y22111D01*
X40925Y22110D01*
X40924Y22109D01*
X40924Y22108D01*
X40822Y22058D01*
X40822Y22058D01*
X40822Y22058D01*
X40758Y22035D01*
X40758Y22035D01*
X40758Y22035D01*
X40695Y22016D01*
X40694Y22016D01*
X40694Y22016D01*
X40631Y22010D01*
X40630Y22010D01*
X40630Y22010D01*
X40541Y22013D01*
X40541Y22013D01*
X40540Y22013D01*
X40493Y22022D01*
X40493Y22023D01*
X40492Y22023D01*
X40444Y22042D01*
X40444Y22042D01*
X40444Y22042D01*
X40393Y22064D01*
X40393Y22064D01*
X40393Y22064D01*
X40339Y22096D01*
X40339Y22097D01*
X40338Y22097D01*
X40326Y22109D01*
X40316Y22111D01*
X40314Y22112D01*
X40312Y22113D01*
X40284Y22148D01*
X40259Y22176D01*
X40259Y22176D01*
X40258Y22176D01*
X40233Y22208D01*
X40233Y22208D01*
X40233Y22209D01*
X40217Y22237D01*
X40217Y22238D01*
X40217Y22238D01*
X40201Y22272D01*
X40201Y22274D01*
X40200Y22275D01*
X40201Y22276D01*
X40201Y22277D01*
X40201Y22277D01*
X40202Y22279D01*
X40262Y22336D01*
X40263Y22336D01*
X40263Y22336D01*
X40304Y22368D01*
X40304Y22368D01*
X40305Y22368D01*
X40337Y22381D01*
X40359Y22391D01*
X40359Y22391D01*
X40359Y22391D01*
X40397Y22403D01*
X40398Y22403D01*
X40398Y22404D01*
X40436Y22410D01*
X40436Y22410D01*
X40437Y22410D01*
X40481Y22413D01*
X40481Y22413D01*
X40482Y22413D01*
X40554Y22410D01*
D02*
G37*
G36*
X48820Y23430D02*
X48833Y23400D01*
Y22400D01*
X48820Y22370D01*
X48790Y22357D01*
X48290D01*
X48260Y22370D01*
X48247Y22400D01*
Y23400D01*
X48260Y23430D01*
X48290Y23443D01*
X48790D01*
X48820Y23430D01*
D02*
G37*
D10*
X45300Y27650D02*
G03*
X45300Y27650I-2500J0D01*
G01*
X44750Y27480D02*
Y27790D01*
X44610Y27640D02*
X44900D01*
X23840Y35080D02*
X24840D01*
X23840D02*
Y35580D01*
X24840D01*
Y35080D02*
Y35580D01*
X25200Y35590D02*
X26200D01*
X25200Y35090D02*
Y35590D01*
Y35090D02*
X26200D01*
Y35590D01*
X28650Y31450D02*
Y33450D01*
X27650Y31450D02*
X28650D01*
X27650D02*
Y33450D01*
X28650D01*
X27660Y32400D02*
X28650D01*
X48280Y28010D02*
Y29010D01*
X48780D01*
Y28010D02*
Y29010D01*
X48280Y28010D02*
X48780D01*
X48790Y26650D02*
Y27650D01*
X48290D02*
X48790D01*
X48290Y26650D02*
Y27650D01*
Y26650D02*
X48790D01*
X48280Y23760D02*
Y24760D01*
X48780D01*
Y23760D02*
Y24760D01*
X48280Y23760D02*
X48780D01*
X48790Y22400D02*
Y23400D01*
X48290D02*
X48790D01*
X48290Y22400D02*
Y23400D01*
Y22400D02*
X48790D01*
X48280Y32260D02*
Y33260D01*
X48780D01*
Y32260D02*
Y33260D01*
X48280Y32260D02*
X48780D01*
X48790Y30900D02*
Y31900D01*
X48290D02*
X48790D01*
X48290Y30900D02*
Y31900D01*
Y30900D02*
X48790D01*
D11*
X26591Y30488D02*
G03*
X26591Y30488I-49J0D01*
G01*
X20493Y23150D02*
G03*
X20493Y23150I-49J0D01*
G01*
X29549Y30645D02*
G03*
X29549Y30645I-49J0D01*
G01*
D12*
X30445Y30107D02*
G03*
X30445Y30107I-118J0D01*
G01*
D13*
X41553Y21681D02*
D03*
D14*
X41348Y21758D02*
X41562Y21681D01*
X41298Y21774D02*
X41348Y21758D01*
X41260Y21796D02*
X41298Y21774D01*
X41183Y21840D02*
X41260Y21796D01*
X41122Y21890D02*
X41183Y21840D01*
X41093Y21917D02*
X41122Y21890D01*
X41056Y21959D02*
X41093Y21917D01*
X41029Y21999D02*
X41056Y21959D01*
X41000Y22050D02*
X41029Y21999D01*
X40933Y22175D02*
X41000Y22050D01*
X40893Y22250D02*
X40933Y22175D01*
X40853Y22346D02*
X40893Y22250D01*
X40845Y22373D02*
X40853Y22346D01*
X40816Y22474D02*
X40845Y22373D01*
X40806Y22530D02*
X40816Y22474D01*
X40792Y22624D02*
X40806Y22530D01*
X40787Y22688D02*
X40792Y22624D01*
X40782Y22746D02*
X40787Y22688D01*
X40782Y22746D02*
X40784Y22816D01*
X40790Y22850D01*
X41348Y21758D02*
X41562Y21681D01*
X41298Y21774D02*
X41348Y21758D01*
X41260Y21796D02*
X41298Y21774D01*
X41183Y21840D02*
X41260Y21796D01*
X41122Y21890D02*
X41183Y21840D01*
X41093Y21917D02*
X41122Y21890D01*
X41056Y21959D02*
X41093Y21917D01*
X41029Y21999D02*
X41056Y21959D01*
X41000Y22050D02*
X41029Y21999D01*
X40933Y22175D02*
X41000Y22050D01*
X40893Y22250D02*
X40933Y22175D01*
X40853Y22346D02*
X40893Y22250D01*
X40845Y22373D02*
X40853Y22346D01*
X40816Y22474D02*
X40845Y22373D01*
X40806Y22530D02*
X40816Y22474D01*
X40792Y22624D02*
X40806Y22530D01*
X40787Y22688D02*
X40792Y22624D01*
X40782Y22746D02*
X40787Y22688D01*
X40782Y22746D02*
X40784Y22816D01*
X40790Y22850D01*
D15*
X23600Y33100D02*
X26550D01*
Y32600D02*
Y35600D01*
X23584Y32600D02*
X26550D01*
X23584D02*
Y35600D01*
X26550D01*
X46300Y26300D02*
Y29250D01*
X45800Y26300D02*
X48800D01*
X45800D02*
Y29266D01*
X48800D01*
Y26300D02*
Y29266D01*
X46300Y22050D02*
Y25000D01*
X45800Y22050D02*
X48800D01*
X45800D02*
Y25016D01*
X48800D01*
Y22050D02*
Y25016D01*
X46300Y30550D02*
Y33500D01*
X45800Y30550D02*
X48800D01*
X45800D02*
Y33516D01*
X48800D01*
Y30550D02*
Y33516D01*
D16*
X29100Y34650D02*
Y35150D01*
X30250Y34650D02*
X30350Y34750D01*
X30250Y35150D02*
X30350Y35050D01*
Y34750D02*
Y35050D01*
X29850Y35150D02*
X30250D01*
X29100D02*
X29550D01*
X29850Y34650D02*
X30250D01*
X29100D02*
X29550D01*
X29100Y34000D02*
Y34500D01*
X30250Y34000D02*
X30350Y34100D01*
X30250Y34500D02*
X30350Y34400D01*
Y34100D02*
Y34400D01*
X29850Y34500D02*
X30250D01*
X29100D02*
X29550D01*
X29850Y34000D02*
X30250D01*
X29100D02*
X29550D01*
X36550Y26800D02*
X36500Y26850D01*
X36400D01*
X36350Y26800D01*
Y26600D01*
X36400Y26550D01*
X36500D01*
X36550Y26600D01*
X36650Y26800D02*
X36700Y26850D01*
X36800D01*
X36850Y26800D01*
Y26750D01*
X36800Y26700D01*
X36750D01*
X36800D01*
X36850Y26650D01*
Y26600D01*
X36800Y26550D01*
X36700D01*
X36650Y26600D01*
X36575Y28400D02*
X36525Y28450D01*
X36425D01*
X36375Y28400D01*
Y28200D01*
X36425Y28150D01*
X36525D01*
X36575Y28200D01*
X36675Y28150D02*
X36775D01*
X36725D01*
Y28450D01*
X36675Y28400D01*
X36925Y28150D02*
X37025D01*
X36975D01*
Y28450D01*
X36925Y28400D01*
X36550Y25500D02*
X36500Y25550D01*
X36400D01*
X36350Y25500D01*
Y25300D01*
X36400Y25250D01*
X36500D01*
X36550Y25300D01*
X36650Y25550D02*
X36850D01*
Y25500D01*
X36650Y25300D01*
Y25250D01*
X36575Y29600D02*
X36525Y29650D01*
X36425D01*
X36375Y29600D01*
Y29400D01*
X36425Y29350D01*
X36525D01*
X36575Y29400D01*
X36675Y29350D02*
X36775D01*
X36725D01*
Y29650D01*
X36675Y29600D01*
X36925D02*
X36975Y29650D01*
X37075D01*
X37125Y29600D01*
Y29550D01*
X37075Y29500D01*
X37025D01*
X37075D01*
X37125Y29450D01*
Y29400D01*
X37075Y29350D01*
X36975D01*
X36925Y29400D01*
X40453Y20931D02*
Y21231D01*
X40603D01*
X40653Y21181D01*
Y21081D01*
X40603Y21031D01*
X40453D01*
X40753Y20931D02*
Y21131D01*
X40853Y21231D01*
X40953Y21131D01*
Y20931D01*
Y21081D01*
X40753D01*
X41052Y21231D02*
Y21181D01*
X41152Y21081D01*
X41252Y21181D01*
Y21231D01*
X41152Y21081D02*
Y20931D01*
X41652Y21231D02*
X41752D01*
X41702D01*
Y20931D01*
X41652D01*
X41752D01*
X41902Y21231D02*
X42102D01*
X42002D01*
Y20931D01*
X42702Y21231D02*
X42502D01*
Y21081D01*
X42602D01*
X42502D01*
Y20931D01*
X42952Y21231D02*
X42852D01*
X42802Y21181D01*
Y20981D01*
X42852Y20931D01*
X42952D01*
X43002Y20981D01*
Y21181D01*
X42952Y21231D01*
X43102Y20931D02*
Y21231D01*
X43252D01*
X43302Y21181D01*
Y21081D01*
X43252Y21031D01*
X43102D01*
X43202D02*
X43302Y20931D01*
X43402Y21231D02*
Y20931D01*
X43502Y21031D01*
X43602Y20931D01*
Y21231D01*
X43702Y20931D02*
Y21131D01*
X43802Y21231D01*
X43902Y21131D01*
Y20931D01*
Y21081D01*
X43702D01*
X44002Y20931D02*
Y21231D01*
X44151D01*
X44201Y21181D01*
Y21081D01*
X44151Y21031D01*
X44002D01*
X44101D02*
X44201Y20931D01*
X44301Y21231D02*
Y20931D01*
X44451D01*
X44501Y20981D01*
Y21181D01*
X44451Y21231D01*
X44301D01*
X29450Y33300D02*
X29350D01*
X29400D01*
Y33050D01*
X29350Y33000D01*
X29300D01*
X29250Y33050D01*
X29550Y33300D02*
Y33000D01*
X29700D01*
X29750Y33050D01*
Y33100D01*
X29700Y33150D01*
X29550D01*
X29700D01*
X29750Y33200D01*
Y33250D01*
X29700Y33300D01*
X29550D01*
X29250Y32500D02*
Y32800D01*
X29400D01*
X29450Y32750D01*
Y32650D01*
X29400Y32600D01*
X29250D01*
X29350D02*
X29450Y32500D01*
X29750Y32800D02*
X29550D01*
Y32500D01*
X29750D01*
X29550Y32650D02*
X29650D01*
X29850Y32500D02*
Y32800D01*
X29950Y32700D01*
X30050Y32800D01*
Y32500D01*
X30300Y32800D02*
X30200D01*
X30150Y32750D01*
Y32550D01*
X30200Y32500D01*
X30300D01*
X30350Y32550D01*
Y32750D01*
X30300Y32800D01*
X30450D02*
Y32600D01*
X30550Y32500D01*
X30650Y32600D01*
Y32800D01*
X30949D02*
X30750D01*
Y32500D01*
X30949D01*
X30750Y32650D02*
X30849D01*
X31549Y32800D02*
X31449D01*
X31499D01*
Y32550D01*
X31449Y32500D01*
X31399D01*
X31349Y32550D01*
X31649Y32500D02*
Y32800D01*
X31799D01*
X31849Y32750D01*
Y32650D01*
X31799Y32600D01*
X31649D01*
X32249Y32800D02*
X32349D01*
X32299D01*
Y32500D01*
X32249D01*
X32349D01*
X32699Y32800D02*
X32499D01*
Y32650D01*
X32599D01*
X32499D01*
Y32500D01*
X33099D02*
Y32800D01*
X33249D01*
X33299Y32750D01*
Y32650D01*
X33249Y32600D01*
X33099D01*
X33399Y32800D02*
Y32600D01*
X33499Y32500D01*
X33599Y32600D01*
Y32800D01*
X33699D02*
Y32500D01*
X33849D01*
X33898Y32550D01*
Y32750D01*
X33849Y32800D01*
X33699D01*
X33998D02*
Y32500D01*
X34148D01*
X34198Y32550D01*
Y32750D01*
X34148Y32800D01*
X33998D01*
X34598Y32500D02*
X34748Y32650D01*
X34598Y32800D01*
X35148Y32500D02*
X35248D01*
X35198D01*
Y32800D01*
X35148Y32750D01*
X35598Y32500D02*
X35398D01*
X35598Y32700D01*
Y32750D01*
X35548Y32800D01*
X35448D01*
X35398Y32750D01*
X35698Y32800D02*
Y32600D01*
X35798Y32500D01*
X35898Y32600D01*
Y32800D01*
X35750Y35300D02*
Y35000D01*
Y35150D01*
X35950D01*
Y35300D01*
Y35000D01*
X36050Y34950D02*
X36250D01*
X36350Y35300D02*
Y35000D01*
X36500D01*
X36550Y35050D01*
Y35100D01*
X36500Y35150D01*
X36350D01*
X36500D01*
X36550Y35200D01*
Y35250D01*
X36500Y35300D01*
X36350D01*
X36650Y35000D02*
Y35300D01*
X36800D01*
X36850Y35250D01*
Y35150D01*
X36800Y35100D01*
X36650D01*
X36750D02*
X36850Y35000D01*
X36950Y35300D02*
X37050D01*
X37000D01*
Y35000D01*
X36950D01*
X37050D01*
X37200Y35300D02*
Y35000D01*
X37349D01*
X37399Y35050D01*
Y35250D01*
X37349Y35300D01*
X37200D01*
X37699Y35250D02*
X37649Y35300D01*
X37549D01*
X37499Y35250D01*
Y35050D01*
X37549Y35000D01*
X37649D01*
X37699Y35050D01*
Y35150D01*
X37599D01*
X37999Y35300D02*
X37799D01*
Y35000D01*
X37999D01*
X37799Y35150D02*
X37899D01*
X35750Y34250D02*
Y34050D01*
X35850Y33950D01*
X35950Y34050D01*
Y34250D01*
X36250D02*
X36050D01*
Y33950D01*
X36250D01*
X36050Y34100D02*
X36150D01*
X36350Y33950D02*
Y34250D01*
X36500D01*
X36550Y34200D01*
Y34100D01*
X36500Y34050D01*
X36350D01*
X36450D02*
X36550Y33950D01*
X36650Y34150D02*
X36700D01*
Y34100D01*
X36650D01*
Y34150D01*
Y34000D02*
X36700D01*
Y33950D01*
X36650D01*
Y34000D01*
X37200Y33950D02*
X37299D01*
X37250D01*
Y34250D01*
X37200Y34200D01*
X37449Y33950D02*
Y34000D01*
X37499D01*
Y33950D01*
X37449D01*
X37699Y34200D02*
X37749Y34250D01*
X37849D01*
X37899Y34200D01*
Y34000D01*
X37849Y33950D01*
X37749D01*
X37699Y34000D01*
Y34200D01*
X35750Y34750D02*
Y34450D01*
X35900D01*
X35950Y34500D01*
Y34700D01*
X35900Y34750D01*
X35750D01*
X36050Y34450D02*
Y34750D01*
X36200D01*
X36250Y34700D01*
Y34600D01*
X36200Y34550D01*
X36050D01*
X36150D02*
X36250Y34450D01*
X36350Y34750D02*
Y34550D01*
X36450Y34450D01*
X36550Y34550D01*
Y34750D01*
X36650Y34700D02*
X36700Y34750D01*
X36800D01*
X36850Y34700D01*
Y34650D01*
X36800Y34600D01*
X36850Y34550D01*
Y34500D01*
X36800Y34450D01*
X36700D01*
X36650Y34500D01*
Y34550D01*
X36700Y34600D01*
X36650Y34650D01*
Y34700D01*
X36700Y34600D02*
X36800D01*
X37100Y34450D02*
Y34750D01*
X36950Y34600D01*
X37150D01*
X37250Y34450D02*
X37349D01*
X37299D01*
Y34750D01*
X37250Y34700D01*
X37699Y34450D02*
X37499D01*
X37699Y34650D01*
Y34700D01*
X37649Y34750D01*
X37549D01*
X37499Y34700D01*
X22450Y33800D02*
X22400Y33850D01*
X22300D01*
X22250Y33800D01*
Y33600D01*
X22300Y33550D01*
X22400D01*
X22450Y33600D01*
Y33700D01*
X22350D01*
X22550Y33850D02*
Y33650D01*
X22650Y33550D01*
X22750Y33650D01*
Y33850D01*
X22850D02*
Y33550D01*
X23000D01*
X23050Y33600D01*
Y33800D01*
X23000Y33850D01*
X22850D01*
X23150D02*
Y33550D01*
X23300D01*
X23350Y33600D01*
Y33800D01*
X23300Y33850D01*
X23150D01*
X27350Y34100D02*
Y34400D01*
X27500D01*
X27550Y34350D01*
Y34250D01*
X27500Y34200D01*
X27350D01*
X27450D02*
X27550Y34100D01*
X27800D02*
Y34400D01*
X27650Y34250D01*
X27850D01*
X27350Y34750D02*
Y35050D01*
X27500D01*
X27550Y35000D01*
Y34900D01*
X27500Y34850D01*
X27350D01*
X27450D02*
X27550Y34750D01*
X27650Y35000D02*
X27700Y35050D01*
X27800D01*
X27850Y35000D01*
Y34950D01*
X27800Y34900D01*
X27750D01*
X27800D01*
X27850Y34850D01*
Y34800D01*
X27800Y34750D01*
X27700D01*
X27650Y34800D01*
X30500Y34400D02*
Y34100D01*
X30650D01*
X30700Y34150D01*
Y34350D01*
X30650Y34400D01*
X30500D01*
X31000Y34100D02*
X30800D01*
X31000Y34300D01*
Y34350D01*
X30950Y34400D01*
X30850D01*
X30800Y34350D01*
X30500Y35050D02*
Y34750D01*
X30650D01*
X30700Y34800D01*
Y35000D01*
X30650Y35050D01*
X30500D01*
X30800Y34750D02*
X30900D01*
X30850D01*
Y35050D01*
X30800Y35000D01*
X30750Y31000D02*
Y30750D01*
X30800Y30700D01*
X30900D01*
X30950Y30750D01*
Y31000D01*
X31050Y30700D02*
X31150D01*
X31100D01*
Y31000D01*
X31050Y30950D01*
X26800Y28500D02*
Y28800D01*
X26950D01*
X27000Y28750D01*
Y28650D01*
X26950Y28600D01*
X26800D01*
X26900D02*
X27000Y28500D01*
X27300D02*
X27100D01*
X27300Y28700D01*
Y28750D01*
X27250Y28800D01*
X27150D01*
X27100Y28750D01*
X27550Y28500D02*
Y28800D01*
X27700D01*
X27750Y28750D01*
Y28650D01*
X27700Y28600D01*
X27550D01*
X27650D02*
X27750Y28500D01*
X27850D02*
X27950D01*
X27900D01*
Y28800D01*
X27850Y28750D01*
X20650Y32900D02*
Y33200D01*
X20800D01*
X20850Y33150D01*
Y33050D01*
X20800Y33000D01*
X20650D01*
X21150Y33200D02*
X20950D01*
Y33050D01*
X21050Y33100D01*
X21100D01*
X21150Y33050D01*
Y32950D01*
X21100Y32900D01*
X21000D01*
X20950Y32950D01*
X45800Y33820D02*
Y34120D01*
X45950D01*
X46000Y34070D01*
Y33970D01*
X45950Y33920D01*
X45800D01*
X46250Y33820D02*
Y34120D01*
X46100Y33970D01*
X46300D01*
X45800Y25320D02*
Y25620D01*
X45950D01*
X46000Y25570D01*
Y25470D01*
X45950Y25420D01*
X45800D01*
X46100Y25570D02*
X46150Y25620D01*
X46250D01*
X46300Y25570D01*
Y25520D01*
X46250Y25470D01*
X46200D01*
X46250D01*
X46300Y25420D01*
Y25370D01*
X46250Y25320D01*
X46150D01*
X46100Y25370D01*
X45800Y29570D02*
Y29870D01*
X45950D01*
X46000Y29820D01*
Y29720D01*
X45950Y29670D01*
X45800D01*
X46300Y29570D02*
X46100D01*
X46300Y29770D01*
Y29820D01*
X46250Y29870D01*
X46150D01*
X46100Y29820D01*
X22950Y35200D02*
Y35500D01*
X23100D01*
X23150Y35450D01*
Y35350D01*
X23100Y35300D01*
X22950D01*
X23250Y35200D02*
X23350D01*
X23300D01*
Y35500D01*
X23250Y35450D01*
X31075Y24550D02*
X31025Y24600D01*
X30925D01*
X30875Y24550D01*
Y24350D01*
X30925Y24300D01*
X31025D01*
X31075Y24350D01*
X31175Y24300D02*
X31275D01*
X31225D01*
Y24600D01*
X31175Y24550D01*
X31625Y24600D02*
X31525Y24550D01*
X31425Y24450D01*
Y24350D01*
X31475Y24300D01*
X31575D01*
X31625Y24350D01*
Y24400D01*
X31575Y24450D01*
X31425D01*
X29575Y31650D02*
X29525Y31700D01*
X29425D01*
X29375Y31650D01*
Y31450D01*
X29425Y31400D01*
X29525D01*
X29575Y31450D01*
X29675Y31400D02*
X29775D01*
X29725D01*
Y31700D01*
X29675Y31650D01*
X30125Y31700D02*
X29925D01*
Y31550D01*
X30025Y31600D01*
X30075D01*
X30125Y31550D01*
Y31450D01*
X30075Y31400D01*
X29975D01*
X29925Y31450D01*
X32975Y23550D02*
X32925Y23600D01*
X32825D01*
X32775Y23550D01*
Y23350D01*
X32825Y23300D01*
X32925D01*
X32975Y23350D01*
X33075Y23300D02*
X33175D01*
X33125D01*
Y23600D01*
X33075Y23550D01*
X33475Y23300D02*
Y23600D01*
X33325Y23450D01*
X33525D01*
X38025Y26426D02*
X37975Y26476D01*
X37875D01*
X37825Y26426D01*
Y26226D01*
X37875Y26176D01*
X37975D01*
X38025Y26226D01*
X38125Y26176D02*
X38225D01*
X38175D01*
Y26476D01*
X38125Y26426D01*
X38575Y26176D02*
X38375D01*
X38575Y26376D01*
Y26426D01*
X38525Y26476D01*
X38425D01*
X38375Y26426D01*
X28375Y28750D02*
X28325Y28800D01*
X28225D01*
X28175Y28750D01*
Y28550D01*
X28225Y28500D01*
X28325D01*
X28375Y28550D01*
X28475Y28500D02*
X28575D01*
X28525D01*
Y28800D01*
X28475Y28750D01*
X28725D02*
X28775Y28800D01*
X28875D01*
X28925Y28750D01*
Y28550D01*
X28875Y28500D01*
X28775D01*
X28725Y28550D01*
Y28750D01*
X40550Y30100D02*
X40500Y30150D01*
X40400D01*
X40350Y30100D01*
Y29900D01*
X40400Y29850D01*
X40500D01*
X40550Y29900D01*
X40650D02*
X40700Y29850D01*
X40800D01*
X40850Y29900D01*
Y30100D01*
X40800Y30150D01*
X40700D01*
X40650Y30100D01*
Y30050D01*
X40700Y30000D01*
X40850D01*
X38000Y29176D02*
X37950Y29226D01*
X37850D01*
X37800Y29176D01*
Y28976D01*
X37850Y28926D01*
X37950D01*
X38000Y28976D01*
X38100Y29176D02*
X38150Y29226D01*
X38250D01*
X38300Y29176D01*
Y29126D01*
X38250Y29076D01*
X38300Y29026D01*
Y28976D01*
X38250Y28926D01*
X38150D01*
X38100Y28976D01*
Y29026D01*
X38150Y29076D01*
X38100Y29126D01*
Y29176D01*
X38150Y29076D02*
X38250D01*
X33300Y32150D02*
X33250Y32200D01*
X33150D01*
X33100Y32150D01*
Y31950D01*
X33150Y31900D01*
X33250D01*
X33300Y31950D01*
X33600Y32200D02*
X33500Y32150D01*
X33400Y32050D01*
Y31950D01*
X33450Y31900D01*
X33550D01*
X33600Y31950D01*
Y32000D01*
X33550Y32050D01*
X33400D01*
X27700Y31050D02*
X27650Y31100D01*
X27550D01*
X27500Y31050D01*
Y30850D01*
X27550Y30800D01*
X27650D01*
X27700Y30850D01*
X28000Y31100D02*
X27800D01*
Y30950D01*
X27900Y31000D01*
X27950D01*
X28000Y30950D01*
Y30850D01*
X27950Y30800D01*
X27850D01*
X27800Y30850D01*
X23950Y29450D02*
X23900Y29500D01*
X23800D01*
X23750Y29450D01*
Y29250D01*
X23800Y29200D01*
X23900D01*
X23950Y29250D01*
X24200Y29200D02*
Y29500D01*
X24050Y29350D01*
X24250D01*
X28750Y24550D02*
X28700Y24600D01*
X28600D01*
X28550Y24550D01*
Y24350D01*
X28600Y24300D01*
X28700D01*
X28750Y24350D01*
X29050Y24300D02*
X28850D01*
X29050Y24500D01*
Y24550D01*
X29000Y24600D01*
X28900D01*
X28850Y24550D01*
X32000Y31650D02*
X31950Y31700D01*
X31850D01*
X31800Y31650D01*
Y31450D01*
X31850Y31400D01*
X31950D01*
X32000Y31450D01*
X32100Y31400D02*
X32200D01*
X32150D01*
Y31700D01*
X32100Y31650D01*
D17*
X25744Y32299D02*
X26335Y31709D01*
X25744Y29701D02*
X26335Y30291D01*
X23736Y29701D02*
Y30508D01*
Y31453D02*
Y32299D01*
Y29701D02*
X25744D01*
X23736Y32299D02*
X25744D01*
X26335Y30291D02*
Y30547D01*
Y31453D02*
Y31709D01*
X20611Y22583D02*
Y32717D01*
Y22583D02*
X22953D01*
Y32717D01*
X20611D02*
X22953D01*
X29933Y24949D02*
X32059D01*
X29933Y30501D02*
X32059D01*
Y24949D02*
Y30501D01*
X29933Y24949D02*
Y30501D01*
M02*
