G04*
G04 #@! TF.GenerationSoftware,Altium Limited,Altium Designer,20.2.7 (254)*
G04*
G04 Layer_Physical_Order=1*
G04 Layer_Color=255*
%FSLAX24Y24*%
%MOIN*%
G70*
G04*
G04 #@! TF.SameCoordinates,A2DF4F17-84A0-47B6-94FA-DBA5B2F971EF*
G04*
G04*
G04 #@! TF.FilePolarity,Positive*
G04*
G01*
G75*
%ADD15C,0.0100*%
%ADD18R,0.0374X0.0315*%
%ADD19R,0.0315X0.0374*%
%ADD20R,0.0315X0.0315*%
%ADD21R,0.1240X0.0630*%
%ADD22R,0.1697X0.3252*%
%ADD23O,0.0551X0.0157*%
%ADD41C,0.0060*%
%ADD42C,0.0300*%
%ADD43C,0.1380*%
%ADD44C,0.0900*%
%ADD45R,0.0900X0.0900*%
%ADD46C,0.0800*%
%ADD47R,0.0800X0.0800*%
%ADD48O,0.0750X0.0650*%
%ADD49R,0.0750X0.0650*%
%ADD50C,0.0591*%
%ADD51R,0.0591X0.0591*%
%ADD52R,0.0800X0.0800*%
%ADD53C,0.0177*%
%ADD54C,0.0197*%
G36*
X49238Y20012D02*
X19962D01*
Y35688D01*
X49238D01*
Y20012D01*
D02*
G37*
%LPC*%
G36*
X28366Y35147D02*
X27931D01*
Y35018D01*
X27931Y35018D01*
X27921Y35016D01*
X27908Y35015D01*
X27891Y35015D01*
X27885Y35012D01*
X26550D01*
X26550Y35012D01*
X26507Y35004D01*
X26471Y34979D01*
X26471Y34979D01*
X26111Y34619D01*
X26105Y34617D01*
X26066Y34582D01*
X26052Y34570D01*
X26040Y34562D01*
X26037Y34560D01*
X26014D01*
X26007Y34563D01*
X26002Y34560D01*
X25997Y34562D01*
X25994Y34560D01*
X25290D01*
Y33640D01*
X25437D01*
X25443Y33637D01*
X25464Y33634D01*
X25475Y33631D01*
X25484Y33624D01*
X25494Y33614D01*
X25504Y33597D01*
X25514Y33572D01*
X25523Y33540D01*
X25530Y33501D01*
X25534Y33454D01*
X25535Y33399D01*
X25536Y33398D01*
Y31617D01*
X25535Y31615D01*
X25534Y31560D01*
X25530Y31514D01*
X25523Y31475D01*
X25514Y31443D01*
X25504Y31418D01*
X25494Y31401D01*
X25484Y31391D01*
X25475Y31384D01*
X25464Y31381D01*
X25443Y31378D01*
X25437Y31375D01*
X25320D01*
Y30625D01*
X26680D01*
Y30689D01*
X26682Y30693D01*
X26684Y30714D01*
X26688Y30725D01*
X26695Y30734D01*
X26705Y30744D01*
X26722Y30754D01*
X26747Y30764D01*
X26779Y30773D01*
X26819Y30780D01*
X26853Y30783D01*
X26864Y30782D01*
X26933Y30778D01*
X26953Y30775D01*
X26953Y30758D01*
X26994Y30757D01*
X27002Y30758D01*
X27003Y30758D01*
X27005D01*
X27014Y30754D01*
X27023Y30758D01*
X27374D01*
X27381Y30755D01*
X27386Y30756D01*
X27391Y30755D01*
X27398Y30758D01*
X27447D01*
Y30808D01*
X27451Y30815D01*
X27452Y30842D01*
X27457Y30867D01*
X27466Y30895D01*
X27478Y30924D01*
X27495Y30956D01*
X27516Y30989D01*
X27541Y31024D01*
X27606Y31100D01*
X27645Y31141D01*
X27645Y31143D01*
X27763Y31261D01*
X27765Y31261D01*
X27844Y31338D01*
X27982Y31459D01*
X28040Y31504D01*
X28092Y31538D01*
X28136Y31561D01*
X28146Y31565D01*
X28246D01*
X28258Y31562D01*
X28264Y31565D01*
X28270Y31564D01*
X28271Y31565D01*
X28585D01*
Y31832D01*
X28586Y31832D01*
X28595Y31834D01*
X28608Y31835D01*
X28625Y31835D01*
X28632Y31838D01*
X29335D01*
X29337Y31836D01*
X29339Y31837D01*
X29384Y31812D01*
X29384Y31812D01*
X29385Y31797D01*
X29388Y31791D01*
Y31294D01*
X29385Y31288D01*
X29385Y31270D01*
X29384Y31257D01*
X29382Y31248D01*
X29382Y31247D01*
X29257D01*
Y30753D01*
X29382D01*
X29382Y30752D01*
X29384Y30743D01*
X29385Y30730D01*
X29385Y30712D01*
X29388Y30706D01*
Y30537D01*
X29385Y30531D01*
X29385Y30514D01*
X29384Y30501D01*
X29382Y30491D01*
X29303D01*
X29249Y30481D01*
X29203Y30450D01*
X29172Y30404D01*
X29162Y30350D01*
X29172Y30296D01*
X29198Y30257D01*
X29203Y30234D01*
Y30216D01*
X29198Y30193D01*
X29172Y30154D01*
X29162Y30100D01*
X29172Y30046D01*
X29198Y30007D01*
X29203Y29984D01*
Y29966D01*
X29198Y29943D01*
X29172Y29904D01*
X29162Y29850D01*
X29172Y29796D01*
X29198Y29757D01*
X29203Y29734D01*
Y29716D01*
X29198Y29693D01*
X29172Y29654D01*
X29162Y29600D01*
X29172Y29546D01*
X29191Y29518D01*
X29171Y29467D01*
X29170Y29466D01*
X29159Y29465D01*
X29142Y29465D01*
X29136Y29462D01*
X22996D01*
X22319Y30139D01*
X22283Y30164D01*
X22256Y30169D01*
X22246Y30243D01*
X22210Y30329D01*
X22153Y30403D01*
X22079Y30460D01*
X21993Y30496D01*
X21900Y30508D01*
X21807Y30496D01*
X21721Y30460D01*
X21647Y30403D01*
X21590Y30329D01*
X21554Y30243D01*
X21542Y30150D01*
X21554Y30057D01*
X21590Y29971D01*
X21647Y29897D01*
X21721Y29840D01*
X21807Y29804D01*
X21900Y29792D01*
X21993Y29804D01*
X22079Y29840D01*
X22153Y29897D01*
X22163Y29909D01*
X22229Y29913D01*
X22871Y29271D01*
X22871Y29271D01*
X22883Y29262D01*
X22868Y29212D01*
X22386D01*
X22384Y29214D01*
X22380Y29213D01*
X22377Y29215D01*
X22359Y29216D01*
X22345Y29219D01*
X22330Y29225D01*
X22314Y29233D01*
X22297Y29245D01*
X22278Y29259D01*
X22259Y29278D01*
X22238Y29300D01*
X22218Y29326D01*
X22195Y29356D01*
X22184Y29363D01*
X22153Y29403D01*
X22079Y29460D01*
X21993Y29496D01*
X21900Y29508D01*
X21807Y29496D01*
X21721Y29460D01*
X21647Y29403D01*
X21590Y29329D01*
X21554Y29243D01*
X21542Y29150D01*
X21554Y29057D01*
X21590Y28971D01*
X21647Y28897D01*
X21721Y28840D01*
X21807Y28804D01*
X21900Y28792D01*
X21993Y28804D01*
X22079Y28840D01*
X22099Y28855D01*
X22110Y28857D01*
X22182Y28906D01*
X22212Y28926D01*
X22269Y28957D01*
X22293Y28968D01*
X22313Y28976D01*
X22331Y28981D01*
X22345Y28984D01*
X22360Y28985D01*
X22365Y28988D01*
X22518D01*
X22533Y28938D01*
X22521Y28929D01*
X22521Y28929D01*
X22159Y28567D01*
X22153Y28566D01*
X22140Y28555D01*
X22128Y28547D01*
X22113Y28539D01*
X22093Y28532D01*
X22070Y28525D01*
X22044Y28520D01*
X22015Y28515D01*
X21943Y28510D01*
X21902Y28510D01*
X21897Y28508D01*
X21807Y28496D01*
X21721Y28460D01*
X21647Y28403D01*
X21590Y28329D01*
X21554Y28243D01*
X21542Y28150D01*
X21554Y28057D01*
X21590Y27971D01*
X21647Y27897D01*
X21721Y27840D01*
X21807Y27804D01*
X21900Y27792D01*
X21993Y27804D01*
X22079Y27840D01*
X22153Y27897D01*
X22210Y27971D01*
X22246Y28057D01*
X22258Y28147D01*
X22260Y28152D01*
X22260Y28193D01*
X22265Y28265D01*
X22270Y28294D01*
X22275Y28320D01*
X22282Y28343D01*
X22289Y28363D01*
X22297Y28378D01*
X22305Y28390D01*
X22316Y28403D01*
X22317Y28409D01*
X22646Y28738D01*
X29135D01*
X29142Y28735D01*
X29170Y28734D01*
X29173Y28731D01*
X29182Y28719D01*
X29191Y28696D01*
X29191Y28682D01*
X29172Y28654D01*
X29162Y28600D01*
X29172Y28546D01*
X29198Y28507D01*
X29203Y28484D01*
Y28466D01*
X29198Y28443D01*
X29172Y28404D01*
X29162Y28350D01*
X29172Y28296D01*
X29191Y28268D01*
X29171Y28217D01*
X29170Y28216D01*
X29159Y28215D01*
X29142Y28215D01*
X29136Y28212D01*
X28744D01*
X28737Y28215D01*
X28720Y28215D01*
X28707Y28216D01*
X28698Y28218D01*
X28697Y28218D01*
Y28425D01*
X28203D01*
Y28218D01*
X28202Y28218D01*
X28192Y28216D01*
X28179Y28215D01*
X28162Y28215D01*
X28156Y28212D01*
X28044D01*
X28038Y28215D01*
X28020Y28215D01*
X28008Y28216D01*
X27998Y28218D01*
X27997Y28218D01*
Y28423D01*
X27503D01*
Y28218D01*
X27502Y28218D01*
X27492Y28216D01*
X27480Y28215D01*
X27462Y28215D01*
X27456Y28212D01*
X27344D01*
X27338Y28215D01*
X27320Y28215D01*
X27308Y28216D01*
X27298Y28218D01*
X27297Y28218D01*
Y28423D01*
X26803D01*
Y27988D01*
X27154D01*
X27156Y27988D01*
X27228D01*
X27236Y27984D01*
X27336Y27985D01*
X27343Y27988D01*
X27457D01*
X27464Y27985D01*
X27559Y27985D01*
X27561Y27985D01*
X27562Y27985D01*
X27564Y27984D01*
X27572Y27988D01*
X27928D01*
X27936Y27984D01*
X28036Y27985D01*
X28043Y27988D01*
X28157D01*
X28164Y27985D01*
X28165Y27985D01*
X28165Y27985D01*
X28265Y27987D01*
X28268Y27988D01*
X28632D01*
X28635Y27987D01*
X28735Y27985D01*
X28735Y27985D01*
X28736Y27985D01*
X28742Y27988D01*
X28868D01*
X28883Y27938D01*
X28871Y27929D01*
X28871Y27929D01*
X28743Y27802D01*
X28697Y27821D01*
Y27874D01*
X28203D01*
Y27439D01*
X28697D01*
Y27511D01*
X28702Y27512D01*
X28714Y27513D01*
X28730Y27513D01*
X28742Y27519D01*
X28771Y27525D01*
X28808Y27549D01*
X28996Y27738D01*
X29135D01*
X29142Y27735D01*
X29170Y27734D01*
X29173Y27731D01*
X29182Y27719D01*
X29191Y27696D01*
X29191Y27682D01*
X29172Y27654D01*
X29162Y27600D01*
X29172Y27546D01*
X29203Y27500D01*
X29249Y27469D01*
X29303Y27459D01*
X29697D01*
X29751Y27469D01*
X29797Y27500D01*
X29828Y27546D01*
X29830Y27559D01*
X29850Y27579D01*
X29854Y27582D01*
X29988Y27715D01*
X29988Y27715D01*
X30012Y27752D01*
X30021Y27795D01*
Y27941D01*
X30021Y27941D01*
X30012Y27984D01*
X29988Y28021D01*
X29926Y28083D01*
X29923Y28090D01*
X29866Y28145D01*
X29864Y28146D01*
X29863Y28147D01*
X29848Y28160D01*
X29840Y28168D01*
X29834Y28173D01*
X29834Y28173D01*
X29824Y28180D01*
X29821Y28181D01*
X29821Y28181D01*
X29819Y28184D01*
X29812Y28188D01*
X29810Y28188D01*
X29804Y28193D01*
X29798Y28239D01*
X29802Y28257D01*
X29828Y28296D01*
X29838Y28350D01*
X29828Y28404D01*
X29802Y28443D01*
X29797Y28466D01*
Y28484D01*
X29802Y28507D01*
X29828Y28546D01*
X29838Y28600D01*
X29828Y28654D01*
X29802Y28693D01*
X29797Y28716D01*
Y28734D01*
X29802Y28757D01*
X29828Y28796D01*
X29838Y28850D01*
X29828Y28904D01*
X29802Y28943D01*
X29797Y28966D01*
Y28984D01*
X29802Y29007D01*
X29828Y29046D01*
X29838Y29100D01*
X29828Y29154D01*
X29802Y29193D01*
X29797Y29216D01*
Y29234D01*
X29802Y29257D01*
X29828Y29296D01*
X29838Y29350D01*
X29828Y29404D01*
X29802Y29443D01*
X29797Y29466D01*
Y29484D01*
X29802Y29507D01*
X29828Y29546D01*
X29838Y29600D01*
X29828Y29654D01*
X29802Y29693D01*
X29797Y29716D01*
Y29734D01*
X29802Y29757D01*
X29828Y29796D01*
X29838Y29850D01*
X29828Y29904D01*
X29802Y29943D01*
X29797Y29966D01*
Y29984D01*
X29802Y30007D01*
X29828Y30046D01*
X29838Y30100D01*
X29828Y30154D01*
X29802Y30193D01*
X29797Y30216D01*
Y30234D01*
X29802Y30257D01*
X29828Y30296D01*
X29838Y30350D01*
X29828Y30404D01*
X29797Y30450D01*
X29751Y30481D01*
X29697Y30491D01*
X29618D01*
X29616Y30501D01*
X29615Y30514D01*
X29615Y30531D01*
X29612Y30537D01*
Y30706D01*
X29615Y30712D01*
X29615Y30730D01*
X29616Y30743D01*
X29618Y30752D01*
X29618Y30753D01*
X29692D01*
Y31247D01*
X29618D01*
X29618Y31248D01*
X29616Y31257D01*
X29615Y31270D01*
X29615Y31288D01*
X29612Y31294D01*
Y31791D01*
X29615Y31797D01*
X29616Y31812D01*
X29616Y31812D01*
X29661Y31837D01*
X29663Y31836D01*
X29665Y31838D01*
X32154D01*
X32388Y31604D01*
Y31294D01*
X32385Y31288D01*
X32385Y31270D01*
X32384Y31257D01*
X32382Y31248D01*
X32382Y31247D01*
X32283D01*
Y30753D01*
X32382D01*
X32382Y30752D01*
X32384Y30743D01*
X32385Y30730D01*
X32385Y30712D01*
X32388Y30706D01*
Y30537D01*
X32385Y30531D01*
X32385Y30514D01*
X32384Y30501D01*
X32382Y30491D01*
X32295D01*
X32241Y30481D01*
X32195Y30450D01*
X32165Y30404D01*
X32154Y30350D01*
X32165Y30296D01*
X32191Y30257D01*
X32195Y30234D01*
Y30216D01*
X32191Y30193D01*
X32165Y30154D01*
X32154Y30100D01*
X32165Y30046D01*
X32191Y30007D01*
X32195Y29984D01*
Y29966D01*
X32191Y29943D01*
X32165Y29904D01*
X32154Y29850D01*
X32165Y29796D01*
X32168Y29791D01*
X32154Y29746D01*
X32135Y29700D01*
Y29250D01*
X32154Y29204D01*
X32160Y29202D01*
X32141Y29156D01*
Y29044D01*
X32160Y28998D01*
X32204Y28954D01*
X32250Y28935D01*
X33073Y28935D01*
X33254Y28754D01*
X33259Y28752D01*
X33259Y28698D01*
X33254Y28696D01*
X33073Y28515D01*
X32250Y28515D01*
X32204Y28496D01*
X32154Y28446D01*
X32135Y28400D01*
Y28300D01*
X32138Y28293D01*
X32154Y28246D01*
X32135Y28200D01*
Y28000D01*
X32154Y27954D01*
X32168Y27909D01*
X32165Y27904D01*
X32154Y27850D01*
X32165Y27796D01*
X32191Y27757D01*
X32195Y27734D01*
Y27716D01*
X32191Y27693D01*
X32165Y27654D01*
X32154Y27600D01*
X32165Y27546D01*
X32168Y27541D01*
X32154Y27496D01*
X32135Y27450D01*
Y27250D01*
X32154Y27204D01*
X32138Y27157D01*
X32135Y27150D01*
Y27050D01*
X32154Y27004D01*
X32204Y26954D01*
X32250Y26935D01*
X33073Y26935D01*
X33254Y26754D01*
X33259Y26752D01*
X33264Y26722D01*
X33259Y26698D01*
X33254Y26696D01*
X33073Y26515D01*
X32250Y26515D01*
X32204Y26496D01*
X32160Y26452D01*
X32141Y26406D01*
Y26294D01*
X32160Y26248D01*
X32154Y26246D01*
X32135Y26200D01*
Y25750D01*
X32154Y25704D01*
X32168Y25659D01*
X32165Y25654D01*
X32154Y25600D01*
X32165Y25546D01*
X32191Y25507D01*
X32195Y25484D01*
Y25466D01*
X32191Y25443D01*
X32165Y25404D01*
X32154Y25350D01*
X32165Y25296D01*
X32191Y25257D01*
X32195Y25234D01*
Y25216D01*
X32191Y25193D01*
X32165Y25154D01*
X32154Y25100D01*
X32165Y25046D01*
X32195Y25000D01*
X32241Y24969D01*
X32295Y24959D01*
X32408D01*
X32409Y24949D01*
X32410Y24936D01*
X32411Y24919D01*
X32413Y24913D01*
Y24744D01*
X32411Y24738D01*
X32410Y24720D01*
X32409Y24707D01*
X32408Y24698D01*
X32407Y24697D01*
X32308D01*
Y24203D01*
X32407D01*
X32408Y24202D01*
X32409Y24193D01*
X32410Y24180D01*
X32411Y24162D01*
X32413Y24156D01*
Y24072D01*
X32304Y23962D01*
X29634D01*
X29628Y23965D01*
X29615Y23965D01*
X29615Y23969D01*
X29615Y23977D01*
X29612Y23984D01*
Y24156D01*
X29615Y24162D01*
X29615Y24180D01*
X29616Y24193D01*
X29618Y24202D01*
X29618Y24203D01*
X29692D01*
Y24697D01*
X29618D01*
X29618Y24698D01*
X29616Y24707D01*
X29615Y24720D01*
X29615Y24738D01*
X29612Y24744D01*
Y24913D01*
X29615Y24919D01*
X29615Y24936D01*
X29616Y24949D01*
X29618Y24959D01*
X29697D01*
X29751Y24969D01*
X29797Y25000D01*
X29828Y25046D01*
X29838Y25100D01*
X29828Y25154D01*
X29802Y25193D01*
X29797Y25216D01*
Y25234D01*
X29802Y25257D01*
X29828Y25296D01*
X29838Y25350D01*
X29828Y25404D01*
X29802Y25443D01*
X29797Y25466D01*
Y25484D01*
X29802Y25507D01*
X29828Y25546D01*
X29838Y25600D01*
X29828Y25654D01*
X29802Y25693D01*
X29797Y25716D01*
Y25734D01*
X29802Y25757D01*
X29828Y25796D01*
X29838Y25850D01*
X29828Y25904D01*
X29802Y25943D01*
X29797Y25966D01*
Y25984D01*
X29802Y26007D01*
X29828Y26046D01*
X29838Y26100D01*
X29828Y26154D01*
X29802Y26193D01*
X29797Y26216D01*
Y26234D01*
X29802Y26257D01*
X29828Y26296D01*
X29838Y26350D01*
X29828Y26404D01*
X29802Y26443D01*
X29797Y26466D01*
Y26484D01*
X29802Y26507D01*
X29828Y26546D01*
X29838Y26600D01*
X29828Y26654D01*
X29802Y26693D01*
X29797Y26716D01*
Y26734D01*
X29802Y26757D01*
X29828Y26796D01*
X29838Y26850D01*
X29828Y26904D01*
X29802Y26943D01*
X29797Y26966D01*
Y26984D01*
X29802Y27007D01*
X29828Y27046D01*
X29838Y27100D01*
X29828Y27154D01*
X29797Y27200D01*
X29751Y27231D01*
X29697Y27241D01*
X29303D01*
X29277Y27236D01*
X29273Y27238D01*
X29261Y27233D01*
X29249Y27231D01*
X29248Y27230D01*
X29240Y27229D01*
X29236Y27226D01*
X29233Y27225D01*
X29229Y27224D01*
X29211Y27220D01*
X29202Y27218D01*
X29159Y27215D01*
X29142Y27215D01*
X29136Y27212D01*
X27651D01*
X27356Y27507D01*
X27354Y27513D01*
X27316Y27553D01*
X27304Y27568D01*
X27297Y27579D01*
Y27593D01*
X27299Y27597D01*
X27298Y27602D01*
X27301Y27607D01*
X27297Y27617D01*
Y27872D01*
X26803D01*
Y27437D01*
X27048D01*
X27052Y27435D01*
X27064Y27437D01*
X27083D01*
X27087Y27435D01*
X27097Y27430D01*
X27110Y27421D01*
X27172Y27369D01*
X27196Y27346D01*
X27199Y27345D01*
X27200Y27343D01*
X27205Y27341D01*
X27525Y27021D01*
X27525Y27021D01*
X27538Y27012D01*
X27523Y26962D01*
X24096D01*
X23829Y27229D01*
X23793Y27254D01*
X23750Y27262D01*
X23750Y27262D01*
X22378D01*
X22373Y27265D01*
X22356Y27266D01*
X22342Y27269D01*
X22325Y27275D01*
X22307Y27283D01*
X22286Y27295D01*
X22263Y27310D01*
X22239Y27327D01*
X22185Y27375D01*
X22156Y27403D01*
X22151Y27405D01*
X22079Y27460D01*
X21993Y27496D01*
X21900Y27508D01*
X21807Y27496D01*
X21721Y27460D01*
X21647Y27403D01*
X21590Y27329D01*
X21554Y27243D01*
X21542Y27150D01*
X21554Y27057D01*
X21590Y26971D01*
X21647Y26897D01*
X21721Y26840D01*
X21807Y26804D01*
X21900Y26792D01*
X21993Y26804D01*
X22079Y26840D01*
X22151Y26895D01*
X22156Y26897D01*
X22185Y26925D01*
X22239Y26973D01*
X22263Y26990D01*
X22286Y27005D01*
X22307Y27017D01*
X22325Y27025D01*
X22342Y27031D01*
X22356Y27034D01*
X22373Y27035D01*
X22378Y27038D01*
X23704D01*
X23971Y26771D01*
X23998Y26753D01*
X24002Y26730D01*
Y26720D01*
X23998Y26697D01*
X23971Y26679D01*
X23971Y26679D01*
X23554Y26262D01*
X22378D01*
X22373Y26265D01*
X22356Y26266D01*
X22342Y26269D01*
X22325Y26275D01*
X22307Y26283D01*
X22286Y26295D01*
X22263Y26310D01*
X22239Y26327D01*
X22185Y26375D01*
X22156Y26403D01*
X22151Y26405D01*
X22079Y26460D01*
X21993Y26496D01*
X21900Y26508D01*
X21807Y26496D01*
X21721Y26460D01*
X21647Y26403D01*
X21590Y26329D01*
X21554Y26243D01*
X21542Y26150D01*
X21554Y26057D01*
X21590Y25971D01*
X21647Y25897D01*
X21721Y25840D01*
X21807Y25804D01*
X21900Y25792D01*
X21993Y25804D01*
X22079Y25840D01*
X22151Y25895D01*
X22156Y25897D01*
X22185Y25925D01*
X22239Y25973D01*
X22263Y25990D01*
X22286Y26005D01*
X22307Y26017D01*
X22325Y26025D01*
X22342Y26031D01*
X22356Y26034D01*
X22373Y26035D01*
X22378Y26038D01*
X23600D01*
X23600Y26038D01*
X23643Y26046D01*
X23679Y26071D01*
X24073Y26465D01*
X24083Y26462D01*
X24098Y26407D01*
X22954Y25262D01*
X22378D01*
X22373Y25265D01*
X22356Y25266D01*
X22342Y25269D01*
X22325Y25275D01*
X22307Y25283D01*
X22286Y25295D01*
X22263Y25310D01*
X22239Y25327D01*
X22185Y25375D01*
X22156Y25403D01*
X22151Y25405D01*
X22079Y25460D01*
X21993Y25496D01*
X21900Y25508D01*
X21807Y25496D01*
X21721Y25460D01*
X21647Y25403D01*
X21590Y25329D01*
X21554Y25243D01*
X21542Y25150D01*
X21554Y25057D01*
X21590Y24971D01*
X21647Y24897D01*
X21721Y24840D01*
X21807Y24804D01*
X21900Y24792D01*
X21993Y24804D01*
X22079Y24840D01*
X22151Y24895D01*
X22156Y24897D01*
X22185Y24925D01*
X22239Y24973D01*
X22263Y24990D01*
X22286Y25005D01*
X22307Y25017D01*
X22325Y25025D01*
X22342Y25031D01*
X22356Y25034D01*
X22373Y25035D01*
X22378Y25038D01*
X23000D01*
X23000Y25038D01*
X23043Y25046D01*
X23079Y25071D01*
X24246Y26238D01*
X25018D01*
X25033Y26188D01*
X25021Y26179D01*
X25021Y26179D01*
X23104Y24262D01*
X22378D01*
X22373Y24265D01*
X22356Y24266D01*
X22342Y24269D01*
X22325Y24275D01*
X22307Y24283D01*
X22286Y24295D01*
X22263Y24310D01*
X22239Y24327D01*
X22185Y24375D01*
X22156Y24403D01*
X22151Y24405D01*
X22079Y24460D01*
X21993Y24496D01*
X21900Y24508D01*
X21807Y24496D01*
X21721Y24460D01*
X21647Y24403D01*
X21590Y24329D01*
X21554Y24243D01*
X21542Y24150D01*
X21554Y24057D01*
X21590Y23971D01*
X21647Y23897D01*
X21721Y23840D01*
X21807Y23804D01*
X21900Y23792D01*
X21993Y23804D01*
X22079Y23840D01*
X22151Y23895D01*
X22156Y23897D01*
X22185Y23925D01*
X22239Y23973D01*
X22263Y23990D01*
X22286Y24005D01*
X22307Y24017D01*
X22325Y24025D01*
X22342Y24031D01*
X22356Y24034D01*
X22373Y24035D01*
X22378Y24038D01*
X23150D01*
X23150Y24038D01*
X23193Y24046D01*
X23229Y24071D01*
X25146Y25988D01*
X29135D01*
X29142Y25985D01*
X29170Y25984D01*
X29173Y25981D01*
X29182Y25969D01*
X29191Y25946D01*
X29191Y25932D01*
X29172Y25904D01*
X29162Y25850D01*
X29172Y25796D01*
X29198Y25757D01*
X29203Y25734D01*
Y25716D01*
X29198Y25693D01*
X29172Y25654D01*
X29162Y25600D01*
X29172Y25546D01*
X29191Y25518D01*
X29171Y25467D01*
X29170Y25466D01*
X29159Y25465D01*
X29142Y25465D01*
X29136Y25462D01*
X25100D01*
X25100Y25462D01*
X25057Y25454D01*
X25021Y25429D01*
X25021Y25429D01*
X22854Y23262D01*
X22302D01*
X22296Y23265D01*
X22279Y23265D01*
X22266Y23266D01*
X22256Y23268D01*
X22255Y23268D01*
Y23505D01*
X21545D01*
Y22795D01*
X22255D01*
Y23032D01*
X22256Y23032D01*
X22266Y23034D01*
X22279Y23035D01*
X22296Y23035D01*
X22302Y23038D01*
X22900D01*
X22900Y23038D01*
X22943Y23046D01*
X22979Y23071D01*
X25146Y25238D01*
X29135D01*
X29142Y25235D01*
X29170Y25234D01*
X29173Y25231D01*
X29182Y25219D01*
X29191Y25196D01*
X29191Y25182D01*
X29172Y25154D01*
X29162Y25100D01*
X29172Y25046D01*
X29203Y25000D01*
X29249Y24969D01*
X29303Y24959D01*
X29382D01*
X29384Y24949D01*
X29385Y24936D01*
X29385Y24919D01*
X29388Y24913D01*
Y24744D01*
X29385Y24738D01*
X29385Y24720D01*
X29384Y24707D01*
X29382Y24698D01*
X29382Y24697D01*
X29257D01*
Y24203D01*
X29382D01*
X29382Y24202D01*
X29384Y24193D01*
X29385Y24180D01*
X29385Y24162D01*
X29388Y24156D01*
Y23984D01*
X29385Y23978D01*
X29385Y23961D01*
X29384Y23950D01*
X29383Y23947D01*
X29383Y23946D01*
X29382Y23944D01*
X29382Y23944D01*
X29382Y23943D01*
X29382Y23941D01*
X29360Y23908D01*
X29349Y23850D01*
X29360Y23792D01*
X29393Y23743D01*
X29442Y23710D01*
X29500Y23699D01*
X29558Y23710D01*
X29591Y23732D01*
X29593Y23732D01*
X29594Y23732D01*
X29595Y23732D01*
X29596Y23733D01*
X29597Y23733D01*
X29599Y23734D01*
X29619Y23735D01*
X29627Y23735D01*
X29634Y23738D01*
X32350D01*
X32350Y23738D01*
X32393Y23746D01*
X32429Y23771D01*
X32605Y23946D01*
X32605Y23946D01*
X32629Y23983D01*
X32638Y24026D01*
X32638Y24026D01*
Y24156D01*
X32641Y24162D01*
X32641Y24180D01*
X32642Y24193D01*
X32644Y24202D01*
X32644Y24203D01*
X32743D01*
Y24697D01*
X32644D01*
X32644Y24698D01*
X32642Y24707D01*
X32641Y24720D01*
X32641Y24738D01*
X32638Y24744D01*
Y24913D01*
X32641Y24919D01*
X32641Y24936D01*
X32642Y24949D01*
X32644Y24959D01*
X32689D01*
X32743Y24969D01*
X32789Y25000D01*
X32820Y25046D01*
X32830Y25100D01*
X32820Y25154D01*
X32801Y25182D01*
X32821Y25233D01*
X32822Y25234D01*
X32833Y25235D01*
X32850Y25235D01*
X32856Y25238D01*
X33054D01*
X33188Y25104D01*
Y24740D01*
X33185Y24734D01*
X33185Y24716D01*
X33184Y24704D01*
X33182Y24694D01*
X33182Y24693D01*
X33053D01*
Y24258D01*
X33547D01*
Y24693D01*
X33418D01*
X33418Y24694D01*
X33416Y24704D01*
X33415Y24716D01*
X33415Y24734D01*
X33412Y24740D01*
Y25150D01*
X33412Y25150D01*
X33404Y25193D01*
X33379Y25229D01*
X33379Y25229D01*
X33179Y25429D01*
X33143Y25454D01*
X33100Y25462D01*
X33100Y25462D01*
X32857D01*
X32850Y25465D01*
X32822Y25466D01*
X32819Y25469D01*
X32811Y25481D01*
X32802Y25504D01*
X32801Y25518D01*
X32820Y25546D01*
X32830Y25600D01*
X32823Y25635D01*
X32855Y25685D01*
X47600Y25685D01*
X47646Y25704D01*
X47946Y26004D01*
X47965Y26050D01*
X47965Y27700D01*
X47946Y27746D01*
X47696Y27996D01*
X47650Y28015D01*
X46427D01*
X44696Y29746D01*
X44650Y29765D01*
X32855Y29765D01*
X32823Y29815D01*
X32830Y29850D01*
X32820Y29904D01*
X32801Y29932D01*
X32821Y29983D01*
X32822Y29984D01*
X32833Y29985D01*
X32850Y29985D01*
X32856Y29988D01*
X33100D01*
X33100Y29988D01*
X33143Y29996D01*
X33179Y30021D01*
X33379Y30221D01*
X33379Y30221D01*
X33404Y30257D01*
X33412Y30300D01*
X33412Y30300D01*
Y30710D01*
X33415Y30716D01*
X33415Y30733D01*
X33416Y30746D01*
X33418Y30755D01*
X33418Y30757D01*
X33547D01*
Y31192D01*
X33053D01*
Y30757D01*
X33182D01*
X33182Y30755D01*
X33184Y30746D01*
X33185Y30733D01*
X33185Y30716D01*
X33188Y30710D01*
Y30346D01*
X33054Y30212D01*
X32857D01*
X32850Y30215D01*
X32822Y30216D01*
X32819Y30219D01*
X32811Y30231D01*
X32802Y30254D01*
X32801Y30268D01*
X32820Y30296D01*
X32830Y30350D01*
X32820Y30404D01*
X32789Y30450D01*
X32743Y30481D01*
X32689Y30491D01*
X32618D01*
X32616Y30501D01*
X32615Y30514D01*
X32615Y30531D01*
X32612Y30537D01*
Y30706D01*
X32615Y30712D01*
X32615Y30730D01*
X32616Y30743D01*
X32618Y30752D01*
X32618Y30753D01*
X32717D01*
Y31247D01*
X32618D01*
X32618Y31248D01*
X32616Y31257D01*
X32615Y31270D01*
X32615Y31288D01*
X32612Y31294D01*
Y31650D01*
X32612Y31650D01*
X32604Y31693D01*
X32579Y31729D01*
X32579Y31729D01*
X32279Y32029D01*
X32243Y32054D01*
X32200Y32062D01*
X32200Y32062D01*
X29515D01*
X29513Y32064D01*
X29505Y32062D01*
X29495D01*
X29487Y32064D01*
X29485Y32062D01*
X28632D01*
X28625Y32065D01*
X28608Y32065D01*
X28595Y32066D01*
X28586Y32068D01*
X28585Y32068D01*
Y32335D01*
X27715D01*
Y32011D01*
X27711Y32003D01*
X27713Y31998D01*
X27712Y31993D01*
X27715Y31987D01*
Y31861D01*
X27702Y31838D01*
X27671Y31793D01*
X27578Y31684D01*
X27517Y31621D01*
X27517Y31619D01*
X27288Y31391D01*
X27287Y31391D01*
X27246Y31351D01*
X27209Y31317D01*
X27140Y31260D01*
X27110Y31239D01*
X27084Y31222D01*
X27068Y31214D01*
X26922D01*
X26921Y31215D01*
X26865Y31216D01*
X26819Y31220D01*
X26779Y31227D01*
X26747Y31236D01*
X26722Y31246D01*
X26705Y31256D01*
X26695Y31266D01*
X26688Y31275D01*
X26684Y31286D01*
X26682Y31307D01*
X26680Y31311D01*
Y31375D01*
X26063D01*
X26057Y31378D01*
X26036Y31381D01*
X26025Y31384D01*
X26016Y31391D01*
X26006Y31401D01*
X25996Y31418D01*
X25986Y31443D01*
X25977Y31475D01*
X25970Y31514D01*
X25966Y31560D01*
X25965Y31615D01*
X25964Y31617D01*
Y33398D01*
X25965Y33399D01*
X25966Y33454D01*
X25970Y33501D01*
X25977Y33540D01*
X25986Y33572D01*
X25996Y33597D01*
X26006Y33614D01*
X26016Y33624D01*
X26025Y33631D01*
X26036Y33634D01*
X26057Y33637D01*
X26063Y33640D01*
X26210D01*
Y34344D01*
X26212Y34347D01*
X26210Y34352D01*
X26213Y34357D01*
X26210Y34364D01*
Y34387D01*
X26212Y34390D01*
X26220Y34402D01*
X26248Y34435D01*
X26266Y34454D01*
X26269Y34460D01*
X26596Y34788D01*
X27885D01*
X27891Y34785D01*
X27908Y34785D01*
X27921Y34784D01*
X27930Y34782D01*
X27931Y34782D01*
Y34653D01*
X28366D01*
Y35147D01*
D02*
G37*
G36*
X28917D02*
X28483D01*
Y34653D01*
X28917D01*
Y34782D01*
X28919Y34782D01*
X28928Y34784D01*
X28941Y34785D01*
X28958Y34785D01*
X28964Y34788D01*
X29121D01*
X29127Y34785D01*
X29144Y34785D01*
X29157Y34784D01*
X29166Y34782D01*
X29168Y34782D01*
Y34683D01*
X29603D01*
Y35117D01*
X29168D01*
Y35018D01*
X29166Y35018D01*
X29157Y35016D01*
X29144Y35015D01*
X29127Y35015D01*
X29121Y35012D01*
X28964D01*
X28958Y35015D01*
X28941Y35015D01*
X28928Y35016D01*
X28919Y35018D01*
X28917Y35018D01*
Y35147D01*
D02*
G37*
G36*
Y34497D02*
X28483D01*
Y34003D01*
X28917D01*
Y34132D01*
X28919Y34132D01*
X28928Y34134D01*
X28941Y34135D01*
X28958Y34135D01*
X28964Y34138D01*
X29121D01*
X29127Y34135D01*
X29144Y34135D01*
X29157Y34134D01*
X29166Y34132D01*
X29168Y34132D01*
Y34033D01*
X29603D01*
Y34467D01*
X29168D01*
Y34368D01*
X29166Y34368D01*
X29157Y34366D01*
X29144Y34365D01*
X29127Y34365D01*
X29121Y34362D01*
X28964D01*
X28958Y34365D01*
X28941Y34365D01*
X28928Y34366D01*
X28919Y34368D01*
X28917Y34368D01*
Y34497D01*
D02*
G37*
G36*
X47650Y35354D02*
X47503Y35339D01*
X47362Y35296D01*
X47231Y35227D01*
X47117Y35133D01*
X47023Y35019D01*
X46954Y34888D01*
X46911Y34747D01*
X46896Y34600D01*
X46911Y34453D01*
X46954Y34312D01*
X47023Y34181D01*
X47117Y34067D01*
X47231Y33973D01*
X47362Y33904D01*
X47503Y33861D01*
X47650Y33846D01*
X47797Y33861D01*
X47938Y33904D01*
X48069Y33973D01*
X48183Y34067D01*
X48277Y34181D01*
X48346Y34312D01*
X48389Y34453D01*
X48404Y34600D01*
X48389Y34747D01*
X48346Y34888D01*
X48277Y35019D01*
X48183Y35133D01*
X48069Y35227D01*
X47938Y35296D01*
X47797Y35339D01*
X47650Y35354D01*
D02*
G37*
G36*
X21400D02*
X21253Y35339D01*
X21112Y35296D01*
X20981Y35227D01*
X20867Y35133D01*
X20773Y35019D01*
X20704Y34888D01*
X20661Y34747D01*
X20646Y34600D01*
X20661Y34453D01*
X20704Y34312D01*
X20773Y34181D01*
X20867Y34067D01*
X20981Y33973D01*
X21112Y33904D01*
X21253Y33861D01*
X21400Y33846D01*
X21547Y33861D01*
X21688Y33904D01*
X21819Y33973D01*
X21933Y34067D01*
X22027Y34181D01*
X22096Y34312D01*
X22139Y34453D01*
X22154Y34600D01*
X22139Y34747D01*
X22096Y34888D01*
X22027Y35019D01*
X21933Y35133D01*
X21819Y35227D01*
X21688Y35296D01*
X21547Y35339D01*
X21400Y35354D01*
D02*
G37*
G36*
X28366Y34497D02*
X27931D01*
Y34003D01*
X28031D01*
X28031Y34002D01*
X28032Y33993D01*
X28033Y33980D01*
X28034Y33963D01*
X28037Y33956D01*
Y33393D01*
X28034Y33387D01*
X28033Y33369D01*
X28032Y33355D01*
X28031Y33344D01*
X28029Y33339D01*
X27999Y33335D01*
X27906Y33296D01*
X27825Y33235D01*
X27764Y33154D01*
X27725Y33061D01*
X27712Y32960D01*
X27725Y32859D01*
X27764Y32766D01*
X27825Y32685D01*
X27906Y32624D01*
X27999Y32585D01*
X28100Y32572D01*
X28200D01*
X28300Y32585D01*
X28394Y32624D01*
X28475Y32685D01*
X28536Y32766D01*
X28575Y32859D01*
X28588Y32960D01*
X28575Y33061D01*
X28536Y33154D01*
X28475Y33235D01*
X28394Y33296D01*
X28300Y33335D01*
X28268Y33339D01*
X28267Y33344D01*
X28265Y33355D01*
X28264Y33369D01*
X28264Y33387D01*
X28261Y33393D01*
Y33956D01*
X28264Y33963D01*
X28264Y33980D01*
X28265Y33993D01*
X28267Y34002D01*
X28267Y34003D01*
X28366D01*
Y34497D01*
D02*
G37*
G36*
X47750Y33565D02*
X35750D01*
X35704Y33546D01*
X33796Y31638D01*
X33594D01*
X33588Y31641D01*
X33570Y31641D01*
X33557Y31642D01*
X33548Y31644D01*
X33547Y31644D01*
Y31743D01*
X33053D01*
Y31308D01*
X33547D01*
Y31407D01*
X33548Y31408D01*
X33557Y31409D01*
X33570Y31410D01*
X33588Y31411D01*
X33594Y31413D01*
X33685D01*
Y30750D01*
X33704Y30704D01*
X33750Y30685D01*
X35050D01*
X35096Y30704D01*
X35115Y30750D01*
Y30773D01*
X36527Y32185D01*
X47750D01*
X47796Y32204D01*
X48046Y32454D01*
X48065Y32500D01*
Y33250D01*
X48046Y33296D01*
X47796Y33546D01*
X47750Y33565D01*
D02*
G37*
G36*
Y32065D02*
X38750D01*
X38704Y32046D01*
X38454Y31796D01*
X38435Y31750D01*
X38435Y30487D01*
X38454Y30441D01*
X38500Y30422D01*
X40313Y30422D01*
X47737D01*
X47782Y30441D01*
X48046Y30704D01*
X48065Y30750D01*
Y31750D01*
X48046Y31796D01*
X47796Y32046D01*
X47750Y32065D01*
D02*
G37*
G36*
X35050Y24765D02*
X33750D01*
X33704Y24746D01*
X33685Y24700D01*
Y24037D01*
X33594D01*
X33588Y24039D01*
X33570Y24040D01*
X33557Y24041D01*
X33548Y24042D01*
X33547Y24043D01*
Y24142D01*
X33053D01*
Y23707D01*
X33547D01*
Y23806D01*
X33548Y23806D01*
X33557Y23808D01*
X33570Y23809D01*
X33588Y23809D01*
X33594Y23812D01*
X33796D01*
X35704Y21904D01*
X35750Y21885D01*
X47750D01*
X47796Y21904D01*
X48046Y22154D01*
X48065Y22200D01*
Y22950D01*
X48046Y22996D01*
X47796Y23246D01*
X47760Y23261D01*
Y23310D01*
X46840D01*
Y23265D01*
X36527D01*
X35115Y24677D01*
Y24700D01*
X35096Y24746D01*
X35050Y24765D01*
D02*
G37*
G36*
X47737Y25028D02*
X40313Y25028D01*
X38500D01*
X38454Y25009D01*
X38435Y24963D01*
X38435Y23700D01*
X38454Y23654D01*
X38704Y23404D01*
X38750Y23385D01*
X47750D01*
X47796Y23404D01*
X48046Y23654D01*
X48065Y23700D01*
Y24700D01*
X48046Y24746D01*
X47782Y25009D01*
X47737Y25028D01*
D02*
G37*
G36*
X47650Y21754D02*
X47503Y21739D01*
X47362Y21696D01*
X47231Y21627D01*
X47117Y21533D01*
X47023Y21419D01*
X46954Y21288D01*
X46911Y21147D01*
X46896Y21000D01*
X46911Y20853D01*
X46954Y20712D01*
X47023Y20581D01*
X47117Y20467D01*
X47231Y20373D01*
X47362Y20304D01*
X47503Y20261D01*
X47650Y20246D01*
X47797Y20261D01*
X47938Y20304D01*
X48069Y20373D01*
X48183Y20467D01*
X48277Y20581D01*
X48346Y20712D01*
X48389Y20853D01*
X48404Y21000D01*
X48389Y21147D01*
X48346Y21288D01*
X48277Y21419D01*
X48183Y21533D01*
X48069Y21627D01*
X47938Y21696D01*
X47797Y21739D01*
X47650Y21754D01*
D02*
G37*
G36*
X21400D02*
X21253Y21739D01*
X21112Y21696D01*
X20981Y21627D01*
X20867Y21533D01*
X20773Y21419D01*
X20704Y21288D01*
X20661Y21147D01*
X20646Y21000D01*
X20661Y20853D01*
X20704Y20712D01*
X20773Y20581D01*
X20867Y20467D01*
X20981Y20373D01*
X21112Y20304D01*
X21253Y20261D01*
X21400Y20246D01*
X21547Y20261D01*
X21688Y20304D01*
X21819Y20373D01*
X21933Y20467D01*
X22027Y20581D01*
X22096Y20712D01*
X22139Y20853D01*
X22154Y21000D01*
X22139Y21147D01*
X22096Y21288D01*
X22027Y21419D01*
X21933Y21533D01*
X21819Y21627D01*
X21688Y21696D01*
X21547Y21739D01*
X21400Y21754D01*
D02*
G37*
%LPD*%
G36*
X27994Y34800D02*
X27993Y34810D01*
X27990Y34818D01*
X27985Y34825D01*
X27978Y34832D01*
X27968Y34838D01*
X27957Y34842D01*
X27944Y34845D01*
X27929Y34848D01*
X27912Y34850D01*
X27893Y34850D01*
Y34950D01*
X27912Y34950D01*
X27929Y34952D01*
X27944Y34955D01*
X27957Y34958D01*
X27968Y34962D01*
X27978Y34968D01*
X27985Y34975D01*
X27990Y34982D01*
X27993Y34990D01*
X27994Y35000D01*
Y34800D01*
D02*
G37*
G36*
X26220Y34499D02*
X26200Y34478D01*
X26168Y34441D01*
X26157Y34425D01*
X26148Y34410D01*
X26142Y34397D01*
X26139Y34385D01*
X26139Y34374D01*
X26142Y34365D01*
X26148Y34357D01*
X26007Y34498D01*
X26015Y34492D01*
X26024Y34489D01*
X26035Y34489D01*
X26047Y34492D01*
X26060Y34498D01*
X26075Y34507D01*
X26091Y34518D01*
X26109Y34532D01*
X26149Y34570D01*
X26220Y34499D01*
D02*
G37*
G36*
X26097Y34377D02*
X26060Y34338D01*
X25949Y34209D01*
X25932Y34182D01*
X25918Y34158D01*
X25908Y34136D01*
X25902Y34117D01*
X25900Y34100D01*
X25750Y34250D01*
X25767Y34252D01*
X25786Y34258D01*
X25808Y34268D01*
X25832Y34282D01*
X25859Y34299D01*
X25888Y34321D01*
X25953Y34376D01*
X26027Y34447D01*
X26097Y34377D01*
D02*
G37*
G36*
X26021Y33698D02*
X25996Y33689D01*
X25973Y33674D01*
X25954Y33653D01*
X25938Y33626D01*
X25924Y33593D01*
X25914Y33554D01*
X25906Y33509D01*
X25902Y33458D01*
X25900Y33401D01*
X25600D01*
X25598Y33458D01*
X25594Y33509D01*
X25587Y33554D01*
X25576Y33593D01*
X25563Y33626D01*
X25546Y33653D01*
X25526Y33674D01*
X25504Y33689D01*
X25478Y33698D01*
X25450Y33701D01*
X26050D01*
X26021Y33698D01*
D02*
G37*
G36*
X28269Y32045D02*
X28287Y32036D01*
X28310Y32028D01*
X28337Y32020D01*
X28368Y32014D01*
X28404Y32009D01*
X28489Y32002D01*
X28523Y32002D01*
Y32050D01*
X28524Y32041D01*
X28527Y32032D01*
X28532Y32025D01*
X28539Y32018D01*
X28548Y32013D01*
X28559Y32008D01*
X28572Y32004D01*
X28587Y32002D01*
X28605Y32001D01*
X28624Y32000D01*
Y31900D01*
X28605Y31899D01*
X28587Y31898D01*
X28572Y31895D01*
X28559Y31892D01*
X28548Y31888D01*
X28539Y31882D01*
X28532Y31876D01*
X28527Y31868D01*
X28524Y31860D01*
X28523Y31850D01*
Y31898D01*
X28368Y31886D01*
X28337Y31880D01*
X28310Y31872D01*
X28287Y31864D01*
X28269Y31855D01*
X28256Y31844D01*
Y32056D01*
X28269Y32045D01*
D02*
G37*
G36*
X29650Y31900D02*
X29631Y31899D01*
X29614Y31896D01*
X29599Y31891D01*
X29586Y31884D01*
X29575Y31875D01*
X29566Y31864D01*
X29559Y31851D01*
X29554Y31836D01*
X29551Y31819D01*
X29550Y31800D01*
X29450D01*
X29449Y31819D01*
X29446Y31836D01*
X29441Y31851D01*
X29434Y31864D01*
X29425Y31875D01*
X29414Y31884D01*
X29401Y31891D01*
X29386Y31896D01*
X29369Y31899D01*
X29350Y31900D01*
X29500Y32000D01*
X29650Y31900D01*
D02*
G37*
G36*
X28250Y31626D02*
X28224Y31640D01*
X28191Y31643D01*
X28153Y31637D01*
X28109Y31620D01*
X28059Y31593D01*
X28003Y31557D01*
X27941Y31510D01*
X27800Y31385D01*
X27720Y31308D01*
X27564Y31576D01*
X27626Y31640D01*
X27722Y31753D01*
X27757Y31803D01*
X27782Y31848D01*
X27799Y31888D01*
X27807Y31923D01*
X27806Y31954D01*
X27795Y31979D01*
X27776Y32000D01*
X28250Y31626D01*
D02*
G37*
G36*
X25902Y31557D02*
X25906Y31506D01*
X25914Y31461D01*
X25924Y31422D01*
X25938Y31389D01*
X25954Y31362D01*
X25973Y31341D01*
X25996Y31326D01*
X26021Y31317D01*
X26050Y31314D01*
X25450D01*
X25478Y31317D01*
X25504Y31326D01*
X25526Y31341D01*
X25546Y31362D01*
X25563Y31389D01*
X25576Y31422D01*
X25587Y31461D01*
X25594Y31506D01*
X25598Y31557D01*
X25600Y31614D01*
X25900D01*
X25902Y31557D01*
D02*
G37*
G36*
X32550Y31267D02*
X32552Y31249D01*
X32555Y31234D01*
X32558Y31221D01*
X32562Y31210D01*
X32568Y31201D01*
X32575Y31194D01*
X32582Y31189D01*
X32590Y31186D01*
X32600Y31185D01*
X32400D01*
X32410Y31186D01*
X32418Y31189D01*
X32425Y31194D01*
X32432Y31201D01*
X32438Y31210D01*
X32442Y31221D01*
X32445Y31234D01*
X32448Y31249D01*
X32450Y31267D01*
X32450Y31286D01*
X32550D01*
X32550Y31267D01*
D02*
G37*
G36*
X29550D02*
X29552Y31249D01*
X29555Y31234D01*
X29558Y31221D01*
X29562Y31210D01*
X29568Y31201D01*
X29574Y31194D01*
X29582Y31189D01*
X29590Y31186D01*
X29600Y31185D01*
X29400D01*
X29409Y31186D01*
X29418Y31189D01*
X29425Y31194D01*
X29432Y31201D01*
X29437Y31210D01*
X29442Y31221D01*
X29446Y31234D01*
X29448Y31249D01*
X29450Y31267D01*
X29450Y31286D01*
X29550D01*
X29550Y31267D01*
D02*
G37*
G36*
X27598Y31186D02*
X27558Y31144D01*
X27490Y31064D01*
X27462Y31025D01*
X27439Y30988D01*
X27420Y30952D01*
X27405Y30917D01*
X27394Y30883D01*
X27388Y30851D01*
X27386Y30819D01*
X27014Y31132D01*
X27036Y31134D01*
X27061Y31140D01*
X27087Y31151D01*
X27116Y31166D01*
X27146Y31185D01*
X27179Y31208D01*
X27251Y31268D01*
X27291Y31304D01*
X27332Y31344D01*
X27598Y31186D01*
D02*
G37*
G36*
X26621Y31272D02*
X26630Y31246D01*
X26645Y31223D01*
X26666Y31204D01*
X26693Y31188D01*
X26726Y31174D01*
X26765Y31163D01*
X26810Y31156D01*
X26862Y31151D01*
X26919Y31150D01*
Y31138D01*
X27014Y31132D01*
Y30819D01*
X27011Y30825D01*
X27002Y30830D01*
X26987Y30835D01*
X26966Y30839D01*
X26939Y30842D01*
X26867Y30847D01*
X26851Y30848D01*
X26810Y30844D01*
X26765Y30837D01*
X26726Y30826D01*
X26693Y30812D01*
X26666Y30796D01*
X26645Y30777D01*
X26630Y30754D01*
X26621Y30728D01*
X26618Y30700D01*
Y31300D01*
X26621Y31272D01*
D02*
G37*
G36*
X33391Y30817D02*
X33382Y30814D01*
X33375Y30809D01*
X33368Y30802D01*
X33363Y30793D01*
X33358Y30782D01*
X33354Y30769D01*
X33352Y30754D01*
X33351Y30737D01*
X33350Y30718D01*
X33250D01*
X33249Y30737D01*
X33248Y30754D01*
X33245Y30769D01*
X33242Y30782D01*
X33238Y30793D01*
X33232Y30802D01*
X33226Y30809D01*
X33218Y30814D01*
X33210Y30817D01*
X33200Y30818D01*
X33400D01*
X33391Y30817D01*
D02*
G37*
G36*
X32590Y30814D02*
X32582Y30811D01*
X32575Y30806D01*
X32568Y30799D01*
X32562Y30790D01*
X32558Y30779D01*
X32555Y30766D01*
X32552Y30751D01*
X32550Y30733D01*
X32550Y30714D01*
X32450D01*
X32450Y30733D01*
X32448Y30751D01*
X32445Y30766D01*
X32442Y30779D01*
X32438Y30790D01*
X32432Y30799D01*
X32425Y30806D01*
X32418Y30811D01*
X32410Y30814D01*
X32400Y30815D01*
X32600D01*
X32590Y30814D01*
D02*
G37*
G36*
X29590D02*
X29582Y30811D01*
X29574Y30806D01*
X29568Y30799D01*
X29562Y30790D01*
X29558Y30779D01*
X29555Y30766D01*
X29552Y30751D01*
X29550Y30733D01*
X29550Y30714D01*
X29450D01*
X29450Y30733D01*
X29448Y30751D01*
X29446Y30766D01*
X29442Y30779D01*
X29437Y30790D01*
X29432Y30799D01*
X29425Y30806D01*
X29418Y30811D01*
X29409Y30814D01*
X29400Y30815D01*
X29600D01*
X29590Y30814D01*
D02*
G37*
G36*
X32550Y30510D02*
X32552Y30493D01*
X32555Y30477D01*
X32558Y30464D01*
X32562Y30453D01*
X32568Y30444D01*
X32575Y30437D01*
X32582Y30432D01*
X32590Y30429D01*
X32600Y30428D01*
X32400D01*
X32410Y30429D01*
X32418Y30432D01*
X32425Y30437D01*
X32432Y30444D01*
X32438Y30453D01*
X32442Y30464D01*
X32445Y30477D01*
X32448Y30493D01*
X32450Y30510D01*
X32450Y30529D01*
X32550D01*
X32550Y30510D01*
D02*
G37*
G36*
X29550D02*
X29552Y30493D01*
X29555Y30477D01*
X29558Y30464D01*
X29562Y30453D01*
X29568Y30444D01*
X29574Y30437D01*
X29582Y30432D01*
X29590Y30429D01*
X29600Y30428D01*
X29400D01*
X29409Y30429D01*
X29418Y30432D01*
X29425Y30437D01*
X29432Y30444D01*
X29437Y30453D01*
X29442Y30464D01*
X29446Y30477D01*
X29448Y30493D01*
X29450Y30510D01*
X29450Y30529D01*
X29550D01*
X29550Y30510D01*
D02*
G37*
G36*
X29550Y30272D02*
X29600D01*
X29590Y30271D01*
X29582Y30268D01*
X29574Y30263D01*
X29568Y30256D01*
X29562Y30247D01*
X29558Y30236D01*
X29555Y30225D01*
X29558Y30214D01*
X29562Y30203D01*
X29568Y30194D01*
X29574Y30187D01*
X29582Y30182D01*
X29590Y30179D01*
X29600Y30178D01*
X29550D01*
X29550Y30171D01*
X29450D01*
X29450Y30178D01*
X29400D01*
X29409Y30179D01*
X29418Y30182D01*
X29425Y30187D01*
X29432Y30194D01*
X29437Y30203D01*
X29442Y30214D01*
X29445Y30225D01*
X29442Y30236D01*
X29437Y30247D01*
X29432Y30256D01*
X29425Y30263D01*
X29418Y30268D01*
X29409Y30271D01*
X29400Y30272D01*
X29450D01*
X29450Y30279D01*
X29550D01*
X29550Y30272D01*
D02*
G37*
G36*
X32727Y30169D02*
X32735Y30165D01*
X32745Y30161D01*
X32757Y30158D01*
X32769Y30156D01*
X32797Y30152D01*
X32813Y30151D01*
X32849Y30150D01*
Y30050D01*
X32830Y30050D01*
X32782Y30046D01*
X32769Y30044D01*
X32745Y30039D01*
X32735Y30035D01*
X32727Y30031D01*
X32719Y30027D01*
Y30173D01*
X32727Y30169D01*
D02*
G37*
G36*
X22195Y30124D02*
X22196Y30121D01*
X22198Y30119D01*
X22201Y30116D01*
X22205Y30115D01*
X22210Y30113D01*
X22216Y30112D01*
X22223Y30111D01*
X22231Y30110D01*
X22240Y30110D01*
Y30010D01*
X22225Y30010D01*
X22178Y30007D01*
X22170Y30006D01*
X22164Y30004D01*
X22159Y30002D01*
X22155Y30000D01*
X22153Y29997D01*
X22194Y30128D01*
X22195Y30124D01*
D02*
G37*
G36*
X29273Y29277D02*
X29265Y29281D01*
X29257Y29285D01*
X29247Y29289D01*
X29236Y29292D01*
X29223Y29294D01*
X29195Y29298D01*
X29179Y29299D01*
X29143Y29300D01*
Y29400D01*
X29162Y29400D01*
X29210Y29404D01*
X29223Y29406D01*
X29247Y29411D01*
X29257Y29415D01*
X29265Y29419D01*
X29273Y29423D01*
Y29277D01*
D02*
G37*
G36*
Y29027D02*
X29265Y29031D01*
X29257Y29035D01*
X29247Y29039D01*
X29236Y29042D01*
X29223Y29044D01*
X29195Y29048D01*
X29179Y29049D01*
X29143Y29050D01*
Y29150D01*
X29162Y29150D01*
X29210Y29154D01*
X29223Y29156D01*
X29247Y29161D01*
X29257Y29165D01*
X29265Y29169D01*
X29273Y29173D01*
Y29027D01*
D02*
G37*
G36*
X22166Y29286D02*
X22189Y29258D01*
X22212Y29232D01*
X22235Y29210D01*
X22258Y29192D01*
X22281Y29177D01*
X22304Y29165D01*
X22327Y29157D01*
X22350Y29152D01*
X22372Y29150D01*
X22355Y29050D01*
X22336Y29049D01*
X22315Y29044D01*
X22292Y29037D01*
X22267Y29028D01*
X22240Y29015D01*
X22179Y28982D01*
X22146Y28961D01*
X22073Y28911D01*
X22143Y29318D01*
X22166Y29286D01*
D02*
G37*
G36*
X35050Y28800D02*
X33300D01*
X33100Y29000D01*
X32250Y29000D01*
X32206Y29044D01*
Y29156D01*
X32235Y29185D01*
X35050D01*
Y28800D01*
D02*
G37*
G36*
X29273Y28777D02*
X29265Y28781D01*
X29257Y28785D01*
X29247Y28789D01*
X29236Y28792D01*
X29223Y28794D01*
X29195Y28798D01*
X29179Y28799D01*
X29143Y28800D01*
Y28900D01*
X29162Y28900D01*
X29210Y28904D01*
X29223Y28906D01*
X29247Y28911D01*
X29257Y28915D01*
X29265Y28919D01*
X29273Y28923D01*
Y28777D01*
D02*
G37*
G36*
X38186Y28669D02*
X38189Y28660D01*
X38194Y28653D01*
X38201Y28646D01*
X38210Y28641D01*
X38221Y28636D01*
X38234Y28633D01*
X38249Y28630D01*
X38264Y28629D01*
X38280Y28630D01*
X38287Y28631D01*
X38293Y28633D01*
X38298Y28634D01*
X38302Y28636D01*
X38306Y28638D01*
X38308Y28640D01*
Y28516D01*
X38306Y28519D01*
X38302Y28521D01*
X38298Y28523D01*
X38293Y28524D01*
X38287Y28525D01*
X38280Y28527D01*
X38265Y28528D01*
X38249Y28526D01*
X38234Y28524D01*
X38221Y28520D01*
X38210Y28516D01*
X38201Y28510D01*
X38194Y28504D01*
X38189Y28496D01*
X38186Y28488D01*
X38185Y28478D01*
Y28678D01*
X38186Y28669D01*
D02*
G37*
G36*
X36885Y28465D02*
X35385Y28465D01*
X35339Y28446D01*
X35165Y28272D01*
X35115Y28281D01*
Y28650D01*
X35096Y28696D01*
X35091Y28698D01*
Y28752D01*
X35096Y28754D01*
X35115Y28800D01*
Y29185D01*
X36885D01*
Y28465D01*
D02*
G37*
G36*
X35050Y28650D02*
Y28265D01*
X32235Y28265D01*
X32200Y28300D01*
Y28400D01*
X32250Y28450D01*
X33100Y28450D01*
X33300Y28650D01*
X35050Y28650D01*
D02*
G37*
G36*
X42785Y28173D02*
Y27277D01*
X42173Y26665D01*
X38474Y26665D01*
X38467Y26684D01*
X38465Y26715D01*
X38507Y26743D01*
X38540Y26792D01*
X38551Y26850D01*
X38540Y26908D01*
X38507Y26957D01*
X38458Y26990D01*
X38400Y27001D01*
X38342Y26990D01*
X38309Y26968D01*
X38307Y26968D01*
X38306Y26968D01*
X38305Y26968D01*
X38304Y26967D01*
X38303Y26967D01*
X38301Y26966D01*
X38296Y26966D01*
X38247Y26999D01*
Y27067D01*
X37765D01*
X37715Y27096D01*
X37715Y27155D01*
X37753Y27184D01*
X38247D01*
Y27619D01*
X37952D01*
X37897Y27667D01*
X37882Y27681D01*
X37869Y27687D01*
X37858Y27694D01*
X37863Y27746D01*
X37900Y27771D01*
X37912Y27783D01*
X38247D01*
Y28217D01*
X37753D01*
X37715Y28246D01*
X37715Y28305D01*
X37765Y28334D01*
X38247D01*
Y28420D01*
X38253Y28430D01*
X38297Y28450D01*
X38314Y28438D01*
X38372Y28427D01*
X38430Y28438D01*
X38479Y28471D01*
X38512Y28520D01*
X38523Y28578D01*
X38512Y28636D01*
X38479Y28686D01*
X38495Y28735D01*
X42223D01*
X42785Y28173D01*
D02*
G37*
G36*
X29550Y28522D02*
X29600D01*
X29590Y28521D01*
X29582Y28518D01*
X29574Y28513D01*
X29568Y28506D01*
X29562Y28497D01*
X29558Y28486D01*
X29555Y28475D01*
X29558Y28464D01*
X29562Y28453D01*
X29568Y28444D01*
X29574Y28437D01*
X29582Y28432D01*
X29590Y28429D01*
X29600Y28428D01*
X29550D01*
X29550Y28421D01*
X29450D01*
X29450Y28428D01*
X29400D01*
X29409Y28429D01*
X29418Y28432D01*
X29425Y28437D01*
X29432Y28444D01*
X29437Y28453D01*
X29442Y28464D01*
X29445Y28475D01*
X29442Y28486D01*
X29437Y28497D01*
X29432Y28506D01*
X29425Y28513D01*
X29418Y28518D01*
X29409Y28521D01*
X29400Y28522D01*
X29450D01*
X29450Y28529D01*
X29550D01*
X29550Y28522D01*
D02*
G37*
G36*
Y28272D02*
X29600D01*
X29590Y28271D01*
X29582Y28268D01*
X29574Y28263D01*
X29568Y28256D01*
X29562Y28247D01*
X29558Y28236D01*
X29555Y28225D01*
X29558Y28214D01*
X29562Y28203D01*
X29568Y28194D01*
X29574Y28187D01*
X29582Y28182D01*
X29590Y28179D01*
X29600Y28178D01*
X29550D01*
X29550Y28171D01*
X29450D01*
X29450Y28178D01*
X29400D01*
X29409Y28179D01*
X29418Y28182D01*
X29425Y28187D01*
X29432Y28194D01*
X29437Y28203D01*
X29442Y28214D01*
X29445Y28225D01*
X29442Y28236D01*
X29437Y28247D01*
X29432Y28256D01*
X29425Y28263D01*
X29418Y28268D01*
X29409Y28271D01*
X29400Y28272D01*
X29450D01*
X29450Y28279D01*
X29550D01*
X29550Y28272D01*
D02*
G37*
G36*
X22266Y28446D02*
X22252Y28430D01*
X22240Y28411D01*
X22229Y28389D01*
X22220Y28364D01*
X22212Y28336D01*
X22206Y28305D01*
X22201Y28271D01*
X22196Y28195D01*
X22195Y28153D01*
X21903Y28445D01*
X21945Y28446D01*
X22021Y28451D01*
X22055Y28456D01*
X22086Y28462D01*
X22114Y28470D01*
X22139Y28479D01*
X22161Y28490D01*
X22180Y28502D01*
X22196Y28516D01*
X22266Y28446D01*
D02*
G37*
G36*
X28635Y28191D02*
X28639Y28182D01*
X28644Y28175D01*
X28651Y28168D01*
X28660Y28163D01*
X28671Y28158D01*
X28684Y28154D01*
X28699Y28152D01*
X28716Y28150D01*
X28736Y28150D01*
Y28050D01*
X28636Y28052D01*
X28634Y28200D01*
X28635Y28191D01*
D02*
G37*
G36*
X28264Y28052D02*
X28164Y28050D01*
Y28150D01*
X28183Y28150D01*
X28200Y28152D01*
X28215Y28154D01*
X28229Y28158D01*
X28240Y28163D01*
X28249Y28168D01*
X28256Y28175D01*
X28261Y28182D01*
X28264Y28191D01*
X28265Y28200D01*
X28264Y28052D01*
D02*
G37*
G36*
X27936Y28191D02*
X27939Y28182D01*
X27944Y28175D01*
X27951Y28168D01*
X27960Y28163D01*
X27971Y28158D01*
X27984Y28154D01*
X27999Y28152D01*
X28017Y28150D01*
X28036Y28150D01*
Y28050D01*
X27936Y28049D01*
X27935Y28200D01*
X27936Y28191D01*
D02*
G37*
G36*
X27564Y28049D02*
X27563Y28049D01*
X27560Y28050D01*
X27464Y28050D01*
Y28150D01*
X27483Y28150D01*
X27501Y28152D01*
X27516Y28154D01*
X27529Y28158D01*
X27540Y28163D01*
X27549Y28168D01*
X27556Y28175D01*
X27561Y28182D01*
X27564Y28191D01*
X27565Y28200D01*
X27564Y28049D01*
D02*
G37*
G36*
X27236Y28191D02*
X27239Y28182D01*
X27244Y28175D01*
X27251Y28168D01*
X27260Y28163D01*
X27271Y28158D01*
X27284Y28154D01*
X27299Y28152D01*
X27317Y28150D01*
X27336Y28150D01*
Y28050D01*
X27236Y28049D01*
X27235Y28200D01*
X27236Y28191D01*
D02*
G37*
G36*
X29273Y28027D02*
X29265Y28031D01*
X29257Y28035D01*
X29247Y28039D01*
X29236Y28042D01*
X29223Y28044D01*
X29195Y28048D01*
X29179Y28049D01*
X29143Y28050D01*
Y28150D01*
X29162Y28150D01*
X29210Y28154D01*
X29223Y28156D01*
X29247Y28161D01*
X29257Y28165D01*
X29265Y28169D01*
X29273Y28173D01*
Y28027D01*
D02*
G37*
G36*
X29777Y28133D02*
X29785Y28129D01*
X29794Y28121D01*
X29821Y28098D01*
X29878Y28043D01*
X29813Y27966D01*
X29795Y27984D01*
X29762Y28011D01*
X29747Y28021D01*
X29734Y28028D01*
X29722Y28032D01*
X29712Y28034D01*
X29702Y28033D01*
X29694Y28029D01*
X29688Y28022D01*
X29770Y28130D01*
X29770Y28134D01*
X29773Y28135D01*
X29777Y28133D01*
D02*
G37*
G36*
X37814Y27844D02*
X37813Y27835D01*
X37810Y27828D01*
X37805Y27821D01*
X37798Y27816D01*
X37789Y27811D01*
X37778Y27807D01*
X37765Y27804D01*
X37750Y27802D01*
X37733Y27800D01*
X37714Y27800D01*
Y27900D01*
X37733Y27901D01*
X37750Y27902D01*
X37766Y27905D01*
X37779Y27908D01*
X37790Y27912D01*
X37799Y27918D01*
X37806Y27924D01*
X37811Y27932D01*
X37814Y27940D01*
X37815Y27950D01*
X37814Y27844D01*
D02*
G37*
G36*
X32727Y27919D02*
X32735Y27915D01*
X32745Y27911D01*
X32757Y27908D01*
X32769Y27906D01*
X32797Y27902D01*
X32813Y27901D01*
X32849Y27900D01*
Y27800D01*
X32830Y27800D01*
X32782Y27796D01*
X32769Y27794D01*
X32745Y27789D01*
X32735Y27785D01*
X32727Y27781D01*
X32719Y27777D01*
Y27923D01*
X32727Y27919D01*
D02*
G37*
G36*
X29273Y27777D02*
X29265Y27781D01*
X29257Y27785D01*
X29247Y27789D01*
X29236Y27792D01*
X29223Y27794D01*
X29195Y27798D01*
X29179Y27799D01*
X29143Y27800D01*
Y27900D01*
X29162Y27900D01*
X29210Y27904D01*
X29223Y27906D01*
X29247Y27911D01*
X29257Y27915D01*
X29265Y27919D01*
X29273Y27923D01*
Y27777D01*
D02*
G37*
G36*
X28635Y27713D02*
X28638Y27706D01*
X28643Y27699D01*
X28649Y27694D01*
X28658Y27689D01*
X28668Y27685D01*
X28680Y27682D01*
X28694Y27680D01*
X28710Y27679D01*
X28728Y27678D01*
Y27578D01*
X28710Y27578D01*
X28694Y27577D01*
X28680Y27574D01*
X28668Y27571D01*
X28658Y27568D01*
X28649Y27563D01*
X28643Y27557D01*
X28638Y27551D01*
X28635Y27544D01*
X28634Y27536D01*
Y27721D01*
X28635Y27713D01*
D02*
G37*
G36*
X32727Y27669D02*
X32735Y27665D01*
X32745Y27661D01*
X32757Y27658D01*
X32769Y27656D01*
X32797Y27652D01*
X32813Y27651D01*
X32849Y27650D01*
Y27550D01*
X32830Y27550D01*
X32782Y27546D01*
X32769Y27544D01*
X32745Y27539D01*
X32735Y27535D01*
X32727Y27531D01*
X32719Y27527D01*
Y27673D01*
X32727Y27669D01*
D02*
G37*
G36*
X37852Y27620D02*
X37922Y27559D01*
X37926Y27557D01*
X37929Y27557D01*
X37814Y27502D01*
X37815Y27503D01*
X37815Y27506D01*
X37814Y27510D01*
X37811Y27514D01*
X37807Y27520D01*
X37801Y27527D01*
X37777Y27554D01*
X37766Y27565D01*
X37837Y27635D01*
X37852Y27620D01*
D02*
G37*
G36*
X27229Y27604D02*
X27225Y27595D01*
X27224Y27586D01*
X27227Y27574D01*
X27232Y27561D01*
X27241Y27546D01*
X27253Y27529D01*
X27267Y27511D01*
X27307Y27469D01*
X27242Y27392D01*
X27216Y27417D01*
X27149Y27473D01*
X27130Y27486D01*
X27114Y27495D01*
X27099Y27500D01*
X27086Y27503D01*
X27074Y27502D01*
X27065Y27498D01*
X27236Y27610D01*
X27229Y27604D01*
D02*
G37*
G36*
X29273Y27027D02*
X29265Y27031D01*
X29257Y27035D01*
X29247Y27039D01*
X29236Y27042D01*
X29223Y27044D01*
X29195Y27048D01*
X29179Y27049D01*
X29143Y27050D01*
Y27150D01*
X29162Y27150D01*
X29210Y27154D01*
X29223Y27156D01*
X29247Y27161D01*
X29257Y27165D01*
X29265Y27169D01*
X29273Y27173D01*
Y27027D01*
D02*
G37*
G36*
X22141Y27327D02*
X22199Y27277D01*
X22226Y27256D01*
X22252Y27239D01*
X22277Y27225D01*
X22301Y27214D01*
X22325Y27206D01*
X22347Y27202D01*
X22368Y27200D01*
Y27100D01*
X22347Y27098D01*
X22325Y27094D01*
X22301Y27086D01*
X22277Y27075D01*
X22252Y27061D01*
X22226Y27044D01*
X22199Y27023D01*
X22141Y26973D01*
X22111Y26943D01*
Y27357D01*
X22141Y27327D01*
D02*
G37*
G36*
X35050Y26800D02*
X33300Y26800D01*
X33100Y27000D01*
X32250Y27000D01*
X32200Y27050D01*
Y27150D01*
X32235Y27185D01*
X35050Y27185D01*
X35050Y26800D01*
D02*
G37*
G36*
X38186Y26941D02*
X38189Y26932D01*
X38194Y26925D01*
X38201Y26918D01*
X38210Y26913D01*
X38221Y26908D01*
X38234Y26904D01*
X38249Y26902D01*
X38267Y26900D01*
X38282Y26900D01*
X38284Y26900D01*
X38308Y26902D01*
X38315Y26903D01*
X38321Y26904D01*
X38326Y26906D01*
X38330Y26908D01*
X38334Y26910D01*
X38337Y26912D01*
Y26788D01*
X38334Y26790D01*
X38330Y26792D01*
X38326Y26794D01*
X38321Y26796D01*
X38315Y26797D01*
X38308Y26798D01*
X38293Y26800D01*
X38280Y26800D01*
X38267Y26799D01*
X38249Y26798D01*
X38234Y26795D01*
X38221Y26792D01*
X38210Y26788D01*
X38201Y26782D01*
X38194Y26776D01*
X38189Y26768D01*
X38186Y26760D01*
X38185Y26750D01*
Y26950D01*
X38186Y26941D01*
D02*
G37*
G36*
X29273Y26777D02*
X29265Y26781D01*
X29257Y26785D01*
X29247Y26789D01*
X29236Y26792D01*
X29223Y26794D01*
X29195Y26798D01*
X29179Y26799D01*
X29143Y26800D01*
Y26900D01*
X29162Y26900D01*
X29210Y26904D01*
X29223Y26906D01*
X29247Y26911D01*
X29257Y26915D01*
X29265Y26919D01*
X29273Y26923D01*
Y26777D01*
D02*
G37*
G36*
X46400Y27950D02*
X47650D01*
X47900Y27700D01*
X47900Y26050D01*
X47600Y25750D01*
X32200Y25750D01*
Y26200D01*
X36950Y26200D01*
X36950Y27050D01*
X35385Y27050D01*
X35185Y27250D01*
X32200Y27250D01*
Y27450D01*
X37542D01*
X37650Y27342D01*
X37650Y26700D01*
X37750Y26600D01*
X42200Y26600D01*
X42850Y27250D01*
Y28200D01*
X42250Y28800D01*
X37754D01*
X37650Y28696D01*
X37650Y28108D01*
X37542Y28000D01*
X32200Y28000D01*
Y28200D01*
X35185Y28200D01*
X35385Y28400D01*
X36950Y28400D01*
Y29250D01*
X32200D01*
Y29700D01*
X44650Y29700D01*
X46400Y27950D01*
D02*
G37*
G36*
X29273Y26527D02*
X29265Y26531D01*
X29257Y26535D01*
X29247Y26539D01*
X29236Y26542D01*
X29223Y26544D01*
X29195Y26548D01*
X29179Y26549D01*
X29143Y26550D01*
Y26650D01*
X29162Y26650D01*
X29210Y26654D01*
X29223Y26656D01*
X29247Y26661D01*
X29257Y26665D01*
X29265Y26669D01*
X29273Y26673D01*
Y26527D01*
D02*
G37*
G36*
X35050Y26650D02*
X35050Y26265D01*
X32235Y26265D01*
X32206Y26294D01*
Y26406D01*
X32250Y26450D01*
X33100Y26450D01*
X33300Y26650D01*
X35050Y26650D01*
D02*
G37*
G36*
X29273Y26277D02*
X29265Y26281D01*
X29257Y26285D01*
X29247Y26289D01*
X29236Y26292D01*
X29223Y26294D01*
X29195Y26298D01*
X29179Y26299D01*
X29143Y26300D01*
Y26400D01*
X29162Y26400D01*
X29210Y26404D01*
X29223Y26406D01*
X29247Y26411D01*
X29257Y26415D01*
X29265Y26419D01*
X29273Y26423D01*
Y26277D01*
D02*
G37*
G36*
X35339Y27004D02*
X35385Y26985D01*
X36885Y26985D01*
X36885Y26265D01*
X35115D01*
X35115Y26650D01*
X35096Y26696D01*
X35091Y26698D01*
Y26752D01*
X35096Y26754D01*
X35115Y26800D01*
X35115Y27150D01*
X35123Y27158D01*
X35183Y27160D01*
X35339Y27004D01*
D02*
G37*
G36*
X29273Y26027D02*
X29265Y26031D01*
X29257Y26035D01*
X29247Y26039D01*
X29236Y26042D01*
X29223Y26044D01*
X29195Y26048D01*
X29179Y26049D01*
X29143Y26050D01*
Y26150D01*
X29162Y26150D01*
X29210Y26154D01*
X29223Y26156D01*
X29247Y26161D01*
X29257Y26165D01*
X29265Y26169D01*
X29273Y26173D01*
Y26027D01*
D02*
G37*
G36*
X22141Y26327D02*
X22199Y26277D01*
X22226Y26256D01*
X22252Y26239D01*
X22277Y26225D01*
X22301Y26214D01*
X22325Y26206D01*
X22347Y26202D01*
X22368Y26200D01*
Y26100D01*
X22347Y26098D01*
X22325Y26094D01*
X22301Y26086D01*
X22277Y26075D01*
X22252Y26061D01*
X22226Y26044D01*
X22199Y26023D01*
X22141Y25973D01*
X22111Y25943D01*
Y26357D01*
X22141Y26327D01*
D02*
G37*
G36*
X32727Y25419D02*
X32735Y25415D01*
X32745Y25411D01*
X32757Y25408D01*
X32769Y25406D01*
X32797Y25402D01*
X32813Y25401D01*
X32849Y25400D01*
Y25300D01*
X32830Y25300D01*
X32782Y25296D01*
X32769Y25294D01*
X32745Y25289D01*
X32735Y25285D01*
X32727Y25281D01*
X32719Y25277D01*
Y25423D01*
X32727Y25419D01*
D02*
G37*
G36*
X29273Y25277D02*
X29265Y25281D01*
X29257Y25285D01*
X29247Y25289D01*
X29236Y25292D01*
X29223Y25294D01*
X29195Y25298D01*
X29179Y25299D01*
X29143Y25300D01*
Y25400D01*
X29162Y25400D01*
X29210Y25404D01*
X29223Y25406D01*
X29247Y25411D01*
X29257Y25415D01*
X29265Y25419D01*
X29273Y25423D01*
Y25277D01*
D02*
G37*
G36*
X22141Y25327D02*
X22199Y25277D01*
X22226Y25256D01*
X22252Y25239D01*
X22277Y25225D01*
X22301Y25214D01*
X22325Y25206D01*
X22347Y25202D01*
X22368Y25200D01*
Y25100D01*
X22347Y25098D01*
X22325Y25094D01*
X22301Y25086D01*
X22277Y25075D01*
X22252Y25061D01*
X22226Y25044D01*
X22199Y25023D01*
X22141Y24973D01*
X22111Y24943D01*
Y25357D01*
X22141Y25327D01*
D02*
G37*
G36*
X32616Y25021D02*
X32608Y25018D01*
X32600Y25013D01*
X32594Y25006D01*
X32588Y24997D01*
X32584Y24986D01*
X32580Y24973D01*
X32578Y24957D01*
X32576Y24940D01*
X32576Y24921D01*
X32476D01*
X32475Y24940D01*
X32474Y24957D01*
X32471Y24973D01*
X32468Y24986D01*
X32463Y24997D01*
X32458Y25006D01*
X32451Y25013D01*
X32444Y25018D01*
X32435Y25021D01*
X32426Y25022D01*
X32626D01*
X32616Y25021D01*
D02*
G37*
G36*
X29590D02*
X29582Y25018D01*
X29574Y25013D01*
X29568Y25006D01*
X29562Y24997D01*
X29558Y24986D01*
X29555Y24973D01*
X29552Y24957D01*
X29550Y24940D01*
X29550Y24921D01*
X29450D01*
X29450Y24940D01*
X29448Y24957D01*
X29446Y24973D01*
X29442Y24986D01*
X29437Y24997D01*
X29432Y25006D01*
X29425Y25013D01*
X29418Y25018D01*
X29409Y25021D01*
X29400Y25022D01*
X29600D01*
X29590Y25021D01*
D02*
G37*
G36*
X32576Y24717D02*
X32578Y24699D01*
X32580Y24684D01*
X32584Y24671D01*
X32588Y24660D01*
X32594Y24651D01*
X32600Y24644D01*
X32608Y24639D01*
X32616Y24636D01*
X32626Y24635D01*
X32426D01*
X32435Y24636D01*
X32444Y24639D01*
X32451Y24644D01*
X32458Y24651D01*
X32463Y24660D01*
X32468Y24671D01*
X32471Y24684D01*
X32474Y24699D01*
X32475Y24717D01*
X32476Y24736D01*
X32576D01*
X32576Y24717D01*
D02*
G37*
G36*
X29550D02*
X29552Y24699D01*
X29555Y24684D01*
X29558Y24671D01*
X29562Y24660D01*
X29568Y24651D01*
X29574Y24644D01*
X29582Y24639D01*
X29590Y24636D01*
X29600Y24635D01*
X29400D01*
X29409Y24636D01*
X29418Y24639D01*
X29425Y24644D01*
X29432Y24651D01*
X29437Y24660D01*
X29442Y24671D01*
X29446Y24684D01*
X29448Y24699D01*
X29450Y24717D01*
X29450Y24736D01*
X29550D01*
X29550Y24717D01*
D02*
G37*
G36*
X33351Y24713D02*
X33352Y24695D01*
X33354Y24680D01*
X33358Y24667D01*
X33363Y24656D01*
X33368Y24647D01*
X33375Y24640D01*
X33382Y24635D01*
X33391Y24632D01*
X33400Y24631D01*
X33200D01*
X33210Y24632D01*
X33218Y24635D01*
X33226Y24640D01*
X33232Y24647D01*
X33238Y24656D01*
X33242Y24667D01*
X33245Y24680D01*
X33248Y24695D01*
X33249Y24713D01*
X33250Y24732D01*
X33350D01*
X33351Y24713D01*
D02*
G37*
G36*
X32616Y24264D02*
X32608Y24261D01*
X32600Y24256D01*
X32594Y24249D01*
X32588Y24240D01*
X32584Y24229D01*
X32580Y24216D01*
X32578Y24201D01*
X32576Y24183D01*
X32576Y24164D01*
X32476D01*
X32475Y24183D01*
X32474Y24201D01*
X32471Y24216D01*
X32468Y24229D01*
X32463Y24240D01*
X32458Y24249D01*
X32451Y24256D01*
X32444Y24261D01*
X32435Y24264D01*
X32426Y24265D01*
X32626D01*
X32616Y24264D01*
D02*
G37*
G36*
X29590D02*
X29582Y24261D01*
X29574Y24256D01*
X29568Y24249D01*
X29562Y24240D01*
X29558Y24229D01*
X29555Y24216D01*
X29552Y24201D01*
X29550Y24183D01*
X29550Y24164D01*
X29450D01*
X29450Y24183D01*
X29448Y24201D01*
X29446Y24216D01*
X29442Y24229D01*
X29437Y24240D01*
X29432Y24249D01*
X29425Y24256D01*
X29418Y24261D01*
X29409Y24264D01*
X29400Y24265D01*
X29600D01*
X29590Y24264D01*
D02*
G37*
G36*
X22141Y24327D02*
X22199Y24277D01*
X22226Y24256D01*
X22252Y24239D01*
X22277Y24225D01*
X22301Y24214D01*
X22325Y24206D01*
X22347Y24202D01*
X22368Y24200D01*
Y24100D01*
X22347Y24098D01*
X22325Y24094D01*
X22301Y24086D01*
X22277Y24075D01*
X22252Y24061D01*
X22226Y24044D01*
X22199Y24023D01*
X22141Y23973D01*
X22111Y23943D01*
Y24357D01*
X22141Y24327D01*
D02*
G37*
G36*
X29550Y23966D02*
X29552Y23942D01*
X29553Y23935D01*
X29554Y23929D01*
X29556Y23924D01*
X29558Y23920D01*
X29560Y23916D01*
X29562Y23913D01*
X29438D01*
X29440Y23916D01*
X29442Y23920D01*
X29444Y23924D01*
X29446Y23929D01*
X29447Y23935D01*
X29448Y23942D01*
X29450Y23957D01*
X29450Y23976D01*
X29550D01*
X29550Y23966D01*
D02*
G37*
G36*
X29566Y23910D02*
X29570Y23908D01*
X29574Y23906D01*
X29579Y23904D01*
X29585Y23903D01*
X29592Y23902D01*
X29607Y23900D01*
X29626Y23900D01*
Y23800D01*
X29616Y23800D01*
X29592Y23798D01*
X29585Y23797D01*
X29579Y23796D01*
X29574Y23794D01*
X29570Y23792D01*
X29566Y23790D01*
X29563Y23788D01*
Y23912D01*
X29566Y23910D01*
D02*
G37*
G36*
X22194Y23240D02*
X22197Y23232D01*
X22202Y23224D01*
X22209Y23218D01*
X22218Y23212D01*
X22229Y23208D01*
X22242Y23205D01*
X22258Y23202D01*
X22275Y23201D01*
X22294Y23200D01*
Y23100D01*
X22275Y23100D01*
X22258Y23098D01*
X22242Y23096D01*
X22229Y23092D01*
X22218Y23087D01*
X22209Y23082D01*
X22202Y23075D01*
X22197Y23068D01*
X22194Y23059D01*
X22193Y23050D01*
Y23250D01*
X22194Y23240D01*
D02*
G37*
G36*
X29229Y34800D02*
X29228Y34810D01*
X29225Y34818D01*
X29220Y34825D01*
X29213Y34832D01*
X29204Y34838D01*
X29193Y34842D01*
X29180Y34845D01*
X29165Y34848D01*
X29148Y34850D01*
X29129Y34850D01*
Y34950D01*
X29148Y34950D01*
X29165Y34952D01*
X29180Y34955D01*
X29193Y34958D01*
X29204Y34962D01*
X29213Y34968D01*
X29220Y34975D01*
X29225Y34982D01*
X29228Y34990D01*
X29229Y35000D01*
Y34800D01*
D02*
G37*
G36*
X28857Y34990D02*
X28860Y34982D01*
X28865Y34975D01*
X28872Y34968D01*
X28881Y34962D01*
X28892Y34958D01*
X28905Y34955D01*
X28920Y34952D01*
X28937Y34950D01*
X28956Y34950D01*
Y34850D01*
X28937Y34850D01*
X28920Y34848D01*
X28905Y34845D01*
X28892Y34842D01*
X28881Y34838D01*
X28872Y34832D01*
X28865Y34825D01*
X28860Y34818D01*
X28857Y34810D01*
X28856Y34800D01*
Y35000D01*
X28857Y34990D01*
D02*
G37*
G36*
X29229Y34150D02*
X29228Y34160D01*
X29225Y34168D01*
X29220Y34176D01*
X29213Y34182D01*
X29204Y34188D01*
X29193Y34192D01*
X29180Y34195D01*
X29165Y34198D01*
X29148Y34200D01*
X29129Y34200D01*
Y34300D01*
X29148Y34300D01*
X29165Y34302D01*
X29180Y34304D01*
X29193Y34308D01*
X29204Y34313D01*
X29213Y34318D01*
X29220Y34325D01*
X29225Y34332D01*
X29228Y34341D01*
X29229Y34350D01*
Y34150D01*
D02*
G37*
G36*
X28857Y34341D02*
X28860Y34332D01*
X28865Y34325D01*
X28872Y34318D01*
X28881Y34313D01*
X28892Y34308D01*
X28905Y34304D01*
X28920Y34302D01*
X28937Y34300D01*
X28956Y34300D01*
Y34200D01*
X28937Y34200D01*
X28920Y34198D01*
X28905Y34195D01*
X28892Y34192D01*
X28881Y34188D01*
X28872Y34182D01*
X28865Y34176D01*
X28860Y34168D01*
X28857Y34160D01*
X28856Y34150D01*
Y34350D01*
X28857Y34341D01*
D02*
G37*
G36*
X28239Y34064D02*
X28231Y34061D01*
X28223Y34056D01*
X28217Y34049D01*
X28211Y34040D01*
X28207Y34029D01*
X28203Y34016D01*
X28201Y34001D01*
X28199Y33983D01*
X28199Y33964D01*
X28099D01*
X28098Y33983D01*
X28097Y34001D01*
X28094Y34016D01*
X28091Y34029D01*
X28086Y34040D01*
X28081Y34049D01*
X28074Y34056D01*
X28067Y34061D01*
X28058Y34064D01*
X28049Y34065D01*
X28249D01*
X28239Y34064D01*
D02*
G37*
G36*
X28199Y33365D02*
X28201Y33347D01*
X28203Y33331D01*
X28207Y33317D01*
X28211Y33306D01*
X28217Y33296D01*
X28223Y33289D01*
X28231Y33284D01*
X28239Y33280D01*
X28249Y33279D01*
X28049Y33279D01*
X28058Y33280D01*
X28067Y33283D01*
X28074Y33289D01*
X28081Y33296D01*
X28086Y33306D01*
X28091Y33317D01*
X28094Y33331D01*
X28097Y33347D01*
X28098Y33365D01*
X28099Y33385D01*
X28199Y33385D01*
X28199Y33365D01*
D02*
G37*
G36*
X33486Y31616D02*
X33489Y31608D01*
X33494Y31600D01*
X33501Y31594D01*
X33510Y31588D01*
X33521Y31584D01*
X33534Y31580D01*
X33549Y31578D01*
X33567Y31576D01*
X33586Y31576D01*
Y31476D01*
X33567Y31475D01*
X33549Y31474D01*
X33534Y31471D01*
X33521Y31468D01*
X33510Y31463D01*
X33501Y31458D01*
X33494Y31451D01*
X33489Y31444D01*
X33486Y31435D01*
X33485Y31426D01*
Y31626D01*
X33486Y31616D01*
D02*
G37*
G36*
X48000Y33250D02*
Y32500D01*
X47750Y32250D01*
X36500D01*
X35050Y30800D01*
Y30750D01*
X33750D01*
Y31500D01*
X35750Y33500D01*
X47750D01*
X48000Y33250D01*
D02*
G37*
G36*
Y31750D02*
Y30750D01*
X47737Y30487D01*
X40313D01*
X38500Y30487D01*
X38500Y31750D01*
X38750Y32000D01*
X47750D01*
X48000Y31750D01*
D02*
G37*
G36*
X33486Y24015D02*
X33489Y24006D01*
X33494Y23999D01*
X33501Y23992D01*
X33510Y23987D01*
X33521Y23982D01*
X33534Y23979D01*
X33549Y23976D01*
X33567Y23975D01*
X33586Y23974D01*
Y23874D01*
X33567Y23874D01*
X33549Y23872D01*
X33534Y23870D01*
X33521Y23866D01*
X33510Y23862D01*
X33501Y23856D01*
X33494Y23850D01*
X33489Y23842D01*
X33486Y23834D01*
X33485Y23824D01*
Y24024D01*
X33486Y24015D01*
D02*
G37*
G36*
X35050Y24650D02*
X36500Y23200D01*
X47750D01*
X48000Y22950D01*
Y22200D01*
X47750Y21950D01*
X35750D01*
X33750Y23950D01*
Y24700D01*
X35050D01*
Y24650D01*
D02*
G37*
G36*
X48000Y24700D02*
Y23700D01*
X47750Y23450D01*
X38750D01*
X38500Y23700D01*
X38500Y24963D01*
X40313D01*
X47737Y24963D01*
X48000Y24700D01*
D02*
G37*
D15*
X38027Y28578D02*
X38372D01*
X38000Y28551D02*
X38027Y28578D01*
X38000Y26850D02*
X38400D01*
X32492Y27850D02*
X37820D01*
X37970Y28000D01*
X38000D01*
X32492Y27600D02*
X37801D01*
X37863Y27538D01*
Y27509D02*
Y27538D01*
Y27509D02*
X37970Y27401D01*
X38000D01*
X36304Y29050D02*
X36600D01*
X36000Y28776D02*
X36030D01*
X36304Y29050D01*
X36000Y26699D02*
X36301D01*
X36600Y26400D01*
X27156Y28100D02*
X29500D01*
X29761Y28089D02*
X29909Y27941D01*
X29500Y27600D02*
X29712D01*
X29774Y27661D01*
X29775D01*
X29909Y27795D01*
Y27941D01*
X29500Y28100D02*
X29511Y28089D01*
X29761D01*
X29500Y28350D02*
Y28600D01*
Y28100D02*
Y28350D01*
X24372Y34100D02*
X25622Y35350D01*
X29565D02*
X30015Y34900D01*
X25622Y35350D02*
X29565D01*
X30015Y34250D02*
Y34900D01*
X28700Y34250D02*
X29385D01*
X28700Y34900D02*
X29385D01*
X25750Y34100D02*
X26550Y34900D01*
X28149D01*
Y32961D02*
Y34250D01*
Y32961D02*
X28150Y32960D01*
X22600Y28850D02*
X29500D01*
X21900Y28150D02*
X22600Y28850D01*
X21900Y29150D02*
X21950Y29100D01*
X29500D01*
X22240Y30060D02*
X22950Y29350D01*
X29500D01*
X37700Y24750D02*
Y25324D01*
X29474Y24450D02*
X29500Y24476D01*
Y25100D01*
X29474Y24450D02*
X29500Y24424D01*
Y23850D02*
Y24424D01*
Y23850D02*
X32350D01*
X32526Y24026D01*
X21900Y30150D02*
X21990Y30060D01*
X22240D01*
X32526Y24026D02*
Y24450D01*
X29500Y30350D02*
Y30974D01*
Y30100D02*
Y30350D01*
X29474Y31000D02*
X29500Y31026D01*
Y31950D02*
X32200D01*
X29500Y31026D02*
Y31950D01*
X28150D02*
X29500D01*
X32500Y30358D02*
Y31000D01*
Y31650D01*
X29474Y31000D02*
X29500Y30974D01*
Y27350D02*
X30288D01*
X30346Y27292D01*
X33300Y31526D02*
X34004D01*
X34029Y31500D01*
X34050D01*
X33300Y23924D02*
X33954D01*
X33979Y23950D01*
X34000D01*
X32492Y25350D02*
X33100D01*
X33300Y24476D02*
Y25150D01*
X33100Y25350D02*
X33300Y25150D01*
Y30300D02*
Y30974D01*
X32492Y30100D02*
X33100D01*
X33300Y30300D01*
X32200Y31950D02*
X32500Y31650D01*
X32492Y28600D02*
Y28850D01*
X30987Y27866D02*
Y31000D01*
X31655Y28600D02*
X31730D01*
X30996Y27866D02*
X31683Y28554D01*
X31655Y26850D02*
X32492D01*
X31646Y26859D02*
X31655Y26850D01*
X32492Y26600D02*
Y26850D01*
X31000Y24450D02*
X31974D01*
X30026D02*
X31000D01*
X30996Y27725D02*
X31000Y27721D01*
Y24450D02*
Y27721D01*
X32526Y24450D02*
Y25073D01*
X32499Y25100D02*
X32526Y25073D01*
X32492Y25100D02*
X32499D01*
X31730Y28600D02*
X32492D01*
X31730D02*
X31794Y28665D01*
X31646Y28591D02*
X31655Y28600D01*
X30996Y27725D02*
Y27866D01*
X30987Y31000D02*
X31949D01*
X30026D02*
X30987D01*
X32492Y30350D02*
X32500Y30358D01*
X25100Y25350D02*
X29500D01*
X22900Y23150D02*
X25100Y25350D01*
X21900Y23150D02*
X22900D01*
X25100Y26100D02*
X29500D01*
X23150Y24150D02*
X25100Y26100D01*
X21900Y24150D02*
X23150D01*
X24200Y26350D02*
X29500D01*
X23000Y25150D02*
X24200Y26350D01*
X21900Y25150D02*
X23000D01*
X24050Y26600D02*
X29500D01*
X23600Y26150D02*
X24050Y26600D01*
X21900Y26150D02*
X23600D01*
X24050Y26850D02*
X29500D01*
X23750Y27150D02*
X24050Y26850D01*
X27604Y27100D02*
X29500D01*
X27187Y27517D02*
X27604Y27100D01*
X21900Y27150D02*
X23750D01*
X27080Y27654D02*
X27187Y27547D01*
Y27517D02*
Y27547D01*
X27050Y27654D02*
X27080D01*
X27887Y27517D02*
X28054Y27350D01*
X29500D01*
X27750Y27654D02*
X27780D01*
X27887Y27547D01*
Y27517D02*
Y27547D01*
X27050Y28206D02*
X27156Y28100D01*
X28950Y27850D02*
X29500D01*
X28450Y27557D02*
X28521Y27628D01*
X28728D01*
X28950Y27850D01*
D18*
X36000Y26699D02*
D03*
Y27250D02*
D03*
Y28776D02*
D03*
Y28224D02*
D03*
Y25374D02*
D03*
Y25926D02*
D03*
Y30076D02*
D03*
Y29524D02*
D03*
X38000Y27401D02*
D03*
Y26850D02*
D03*
Y28551D02*
D03*
Y28000D02*
D03*
X33300Y23924D02*
D03*
Y24476D02*
D03*
X28450Y27657D02*
D03*
Y28208D02*
D03*
X27750Y28206D02*
D03*
Y27654D02*
D03*
X27050Y28206D02*
D03*
Y27654D02*
D03*
X33300Y30974D02*
D03*
Y31526D02*
D03*
X27200Y30976D02*
D03*
Y30424D02*
D03*
D19*
X29474Y24450D02*
D03*
X30026D02*
D03*
X28149Y34900D02*
D03*
X28700D02*
D03*
X28149Y34250D02*
D03*
X28700D02*
D03*
X32500Y31000D02*
D03*
X31949D02*
D03*
X29474D02*
D03*
X30026D02*
D03*
X32526Y24450D02*
D03*
X31974D02*
D03*
D20*
X30015Y34900D02*
D03*
X29385D02*
D03*
X30015Y34250D02*
D03*
X29385D02*
D03*
D21*
X26000Y31000D02*
D03*
X24071D02*
D03*
D22*
X30996Y27725D02*
D03*
D23*
X32492Y25100D02*
D03*
Y25350D02*
D03*
Y25600D02*
D03*
Y25850D02*
D03*
Y26100D02*
D03*
Y26350D02*
D03*
Y26600D02*
D03*
Y26850D02*
D03*
Y27100D02*
D03*
Y27350D02*
D03*
Y27600D02*
D03*
Y27850D02*
D03*
Y28100D02*
D03*
Y28350D02*
D03*
Y28600D02*
D03*
Y28850D02*
D03*
Y29100D02*
D03*
Y29350D02*
D03*
Y29600D02*
D03*
Y29850D02*
D03*
Y30100D02*
D03*
Y30350D02*
D03*
X29500Y25100D02*
D03*
Y25350D02*
D03*
Y25600D02*
D03*
Y25850D02*
D03*
Y26100D02*
D03*
Y26350D02*
D03*
Y26600D02*
D03*
Y26850D02*
D03*
Y27100D02*
D03*
Y27350D02*
D03*
Y27600D02*
D03*
Y27850D02*
D03*
Y28100D02*
D03*
Y28350D02*
D03*
Y28600D02*
D03*
Y28850D02*
D03*
Y29100D02*
D03*
Y29350D02*
D03*
Y29600D02*
D03*
Y29850D02*
D03*
Y30100D02*
D03*
Y30350D02*
D03*
D41*
X37150Y30050D02*
X45728D01*
X47300Y28478D01*
D42*
X25750Y31165D02*
Y34100D01*
Y31165D02*
X25915Y31000D01*
X26000D01*
X27200Y30000D02*
Y30424D01*
X26950Y29750D02*
X27200Y30000D01*
X24600Y29750D02*
X26950D01*
X24071Y30279D02*
X24600Y29750D01*
X24071Y30279D02*
Y31000D01*
X26000D02*
X27146D01*
X27170Y30976D01*
X27200D01*
Y31000D02*
X27925Y31725D01*
Y31775D01*
X28100Y31950D01*
X28150D01*
X21900Y31150D02*
X23921D01*
X24071Y31000D01*
X24372Y33975D02*
Y34100D01*
X24071Y33674D02*
X24372Y33975D01*
X24071Y31000D02*
Y33674D01*
X21900Y31150D02*
Y32150D01*
D43*
X21400Y21000D02*
D03*
X47650D02*
D03*
Y34600D02*
D03*
X21400D02*
D03*
D44*
X41800Y27650D02*
D03*
D45*
X43800D02*
D03*
D46*
X24372Y34100D02*
D03*
X47300Y28478D02*
D03*
Y24228D02*
D03*
Y32728D02*
D03*
D47*
X25750Y34100D02*
D03*
D48*
X28150Y32960D02*
D03*
D49*
Y31950D02*
D03*
D50*
X21900Y32150D02*
D03*
Y31150D02*
D03*
Y30150D02*
D03*
Y28150D02*
D03*
Y26150D02*
D03*
Y24150D02*
D03*
Y25150D02*
D03*
Y27150D02*
D03*
Y29150D02*
D03*
D51*
Y23150D02*
D03*
D52*
X47300Y27100D02*
D03*
Y22850D02*
D03*
Y31350D02*
D03*
D53*
X48500Y34000D02*
D03*
Y32000D02*
D03*
Y30000D02*
D03*
X48000Y29000D02*
D03*
X48500Y28000D02*
D03*
Y26000D02*
D03*
X48000Y25000D02*
D03*
X48500Y24000D02*
D03*
Y22000D02*
D03*
X47500Y30000D02*
D03*
X47000Y29000D02*
D03*
X46000Y35000D02*
D03*
X46500Y34000D02*
D03*
Y30000D02*
D03*
X46000Y29000D02*
D03*
Y21000D02*
D03*
X45000Y35000D02*
D03*
X45500Y34000D02*
D03*
Y30000D02*
D03*
X45000Y21000D02*
D03*
X44000Y35000D02*
D03*
X44500Y34000D02*
D03*
Y30000D02*
D03*
X44000Y21000D02*
D03*
X43000Y35000D02*
D03*
X43500Y34000D02*
D03*
Y30000D02*
D03*
X43000Y21000D02*
D03*
X42000Y35000D02*
D03*
X42500Y34000D02*
D03*
Y30000D02*
D03*
Y28000D02*
D03*
X42000Y27000D02*
D03*
Y21000D02*
D03*
X41000Y35000D02*
D03*
X41500Y34000D02*
D03*
Y30000D02*
D03*
X41000Y27000D02*
D03*
Y21000D02*
D03*
X40000Y35000D02*
D03*
X40500Y34000D02*
D03*
Y30000D02*
D03*
Y28000D02*
D03*
X40000Y21000D02*
D03*
X39000Y35000D02*
D03*
X39500Y34000D02*
D03*
Y28000D02*
D03*
X39000Y21000D02*
D03*
X38000Y35000D02*
D03*
X38500Y34000D02*
D03*
Y32000D02*
D03*
X38000Y31000D02*
D03*
X38500Y28000D02*
D03*
X38000Y25000D02*
D03*
Y21000D02*
D03*
X37000Y35000D02*
D03*
X37500Y34000D02*
D03*
Y32000D02*
D03*
X37000Y31000D02*
D03*
X37500Y30000D02*
D03*
X37000Y25000D02*
D03*
X37500Y24000D02*
D03*
X37000Y21000D02*
D03*
X36000Y35000D02*
D03*
X36500Y34000D02*
D03*
Y32000D02*
D03*
X36000Y31000D02*
D03*
X36500Y30000D02*
D03*
X36000Y25000D02*
D03*
X36500Y24000D02*
D03*
X36000Y21000D02*
D03*
X35000Y35000D02*
D03*
X35500Y34000D02*
D03*
X35000Y21000D02*
D03*
X34000Y35000D02*
D03*
X34500Y34000D02*
D03*
X34000Y23000D02*
D03*
X34500Y22000D02*
D03*
X34000Y21000D02*
D03*
X33000Y35000D02*
D03*
X33500Y34000D02*
D03*
Y32000D02*
D03*
X33000Y23000D02*
D03*
X33500Y22000D02*
D03*
X33000Y21000D02*
D03*
X32000Y35000D02*
D03*
X32500Y34000D02*
D03*
Y32000D02*
D03*
X32000Y29000D02*
D03*
Y27000D02*
D03*
Y25000D02*
D03*
Y23000D02*
D03*
X32500Y22000D02*
D03*
X32000Y21000D02*
D03*
X31000Y35000D02*
D03*
X31500Y34000D02*
D03*
X31000Y31000D02*
D03*
X31500Y30000D02*
D03*
X31000Y25000D02*
D03*
Y23000D02*
D03*
X31500Y22000D02*
D03*
X31000Y21000D02*
D03*
X30500Y34000D02*
D03*
Y30000D02*
D03*
X30000Y29000D02*
D03*
Y27000D02*
D03*
Y25000D02*
D03*
Y23000D02*
D03*
X30500Y22000D02*
D03*
X30000Y21000D02*
D03*
X29000Y31000D02*
D03*
Y25000D02*
D03*
Y23000D02*
D03*
X29500Y22000D02*
D03*
X29000Y21000D02*
D03*
X28500Y30000D02*
D03*
X28000Y23000D02*
D03*
X28500Y22000D02*
D03*
X28000Y21000D02*
D03*
X27500Y34000D02*
D03*
X27000Y33000D02*
D03*
X27500Y32000D02*
D03*
Y30000D02*
D03*
X27000Y25000D02*
D03*
X27500Y24000D02*
D03*
X27000Y23000D02*
D03*
X27500Y22000D02*
D03*
X27000Y21000D02*
D03*
X26000Y35000D02*
D03*
X26500Y34000D02*
D03*
Y32000D02*
D03*
Y30000D02*
D03*
Y28000D02*
D03*
X26000Y25000D02*
D03*
X26500Y24000D02*
D03*
X26000Y23000D02*
D03*
X26500Y22000D02*
D03*
X26000Y21000D02*
D03*
X25000Y35000D02*
D03*
Y33000D02*
D03*
Y31000D02*
D03*
X25500Y30000D02*
D03*
Y28000D02*
D03*
Y24000D02*
D03*
X25000Y23000D02*
D03*
X25500Y22000D02*
D03*
X25000Y21000D02*
D03*
X24000Y35000D02*
D03*
Y33000D02*
D03*
X24500Y32000D02*
D03*
Y30000D02*
D03*
Y28000D02*
D03*
Y26000D02*
D03*
Y24000D02*
D03*
X24000Y23000D02*
D03*
X24500Y22000D02*
D03*
X24000Y21000D02*
D03*
X23000Y35000D02*
D03*
X23500Y34000D02*
D03*
X23000Y33000D02*
D03*
X23500Y32000D02*
D03*
X23000Y31000D02*
D03*
X23500Y30000D02*
D03*
Y28000D02*
D03*
Y22000D02*
D03*
X23000Y21000D02*
D03*
X22500Y34000D02*
D03*
X22000Y33000D02*
D03*
X22500Y32000D02*
D03*
Y28000D02*
D03*
Y22000D02*
D03*
X21000Y33000D02*
D03*
Y31000D02*
D03*
Y29000D02*
D03*
Y27000D02*
D03*
Y25000D02*
D03*
Y23000D02*
D03*
X21500Y22000D02*
D03*
X38372Y28578D02*
D03*
X36600Y29050D02*
D03*
X34860Y31080D02*
D03*
X37150Y30050D02*
D03*
X35650Y29500D02*
D03*
X36600Y26400D02*
D03*
X37700Y24750D02*
D03*
X29500Y23850D02*
D03*
X38650Y23750D02*
D03*
X38950D02*
D03*
X39250D02*
D03*
X39550D02*
D03*
X39850D02*
D03*
X40150D02*
D03*
Y24050D02*
D03*
X39850D02*
D03*
X39550D02*
D03*
X39250D02*
D03*
X38950D02*
D03*
X38650D02*
D03*
Y31700D02*
D03*
X38950D02*
D03*
X39250D02*
D03*
X39550D02*
D03*
X39850D02*
D03*
X40150D02*
D03*
Y31400D02*
D03*
X39850D02*
D03*
X39550D02*
D03*
X39250D02*
D03*
X38950D02*
D03*
X38650D02*
D03*
X34000Y24550D02*
D03*
X34300D02*
D03*
X34600D02*
D03*
Y24250D02*
D03*
X34300D02*
D03*
X34000D02*
D03*
X34600Y23950D02*
D03*
X34300D02*
D03*
X34050Y30900D02*
D03*
X34350D02*
D03*
X34650D02*
D03*
X34050Y31200D02*
D03*
X34350D02*
D03*
X34650D02*
D03*
Y31500D02*
D03*
X34350D02*
D03*
X38650Y24650D02*
D03*
X38950D02*
D03*
X39250D02*
D03*
X39550D02*
D03*
X39850D02*
D03*
X40150D02*
D03*
Y24350D02*
D03*
X39850D02*
D03*
X39550D02*
D03*
X39250D02*
D03*
X38950D02*
D03*
X38650D02*
D03*
X38400Y26850D02*
D03*
X38650Y30800D02*
D03*
X38950D02*
D03*
X39250D02*
D03*
X39550D02*
D03*
X39850D02*
D03*
X40150D02*
D03*
Y31100D02*
D03*
X39850D02*
D03*
X39550D02*
D03*
X39250D02*
D03*
X38950D02*
D03*
X38650D02*
D03*
X34050Y31500D02*
D03*
X34000Y23950D02*
D03*
X33350Y26450D02*
D03*
X33650D02*
D03*
X33950D02*
D03*
X34250D02*
D03*
X34550D02*
D03*
X34850D02*
D03*
Y27000D02*
D03*
X34550D02*
D03*
X34250D02*
D03*
X33950D02*
D03*
X33650D02*
D03*
X33350D02*
D03*
X34850Y28450D02*
D03*
X34550D02*
D03*
X34250D02*
D03*
X33950D02*
D03*
X33650D02*
D03*
X33350D02*
D03*
X34850Y29000D02*
D03*
X34550D02*
D03*
X34250D02*
D03*
X33950D02*
D03*
X33650D02*
D03*
X33350D02*
D03*
D54*
X31646Y26426D02*
D03*
X31213D02*
D03*
X30780D02*
D03*
X30346D02*
D03*
X31646Y26859D02*
D03*
X31213D02*
D03*
X30780D02*
D03*
X30346D02*
D03*
X31646Y27292D02*
D03*
X31213D02*
D03*
X30780D02*
D03*
X30346D02*
D03*
X31646Y27725D02*
D03*
X31213D02*
D03*
X30780D02*
D03*
X30346D02*
D03*
X31646Y28158D02*
D03*
X31213D02*
D03*
X30780D02*
D03*
X30346D02*
D03*
X31646Y28591D02*
D03*
X31213D02*
D03*
X30780D02*
D03*
X30346D02*
D03*
X31646Y29024D02*
D03*
X31213D02*
D03*
X30780D02*
D03*
X30346D02*
D03*
M02*
