G04*
G04 #@! TF.GenerationSoftware,Altium Limited,Altium Designer,20.2.7 (254)*
G04*
G04 Layer_Color=32896*
%FSLAX24Y24*%
%MOIN*%
G70*
G04*
G04 #@! TF.SameCoordinates,1D9E715C-10D3-4175-9A43-98333D612143*
G04*
G04*
G04 #@! TF.FilePolarity,Positive*
G04*
G01*
G75*
%ADD15C,0.0050*%
G36*
X38145Y27572D02*
X37742D01*
X37455Y28067D01*
X37173Y27572D01*
X36765D01*
X37455Y28766D01*
X38145Y27572D01*
D02*
G37*
G36*
X39196Y26975D02*
X35710Y26975D01*
X35914Y27322D01*
X38599Y27322D01*
X37455Y29290D01*
X36988Y28479D01*
X36687Y28655D01*
X37455Y29993D01*
X39196Y26975D01*
D02*
G37*
G36*
X36439Y22108D02*
X35970Y21619D01*
X35956Y21486D01*
X35926Y21166D01*
X35903Y20936D01*
X36406Y20416D01*
X36373Y20383D01*
X35898Y20869D01*
X35870Y20572D01*
X35856D01*
Y20458D01*
X35751D01*
Y20572D01*
X35423D01*
X35412Y20550D01*
X35395Y20527D01*
X35373Y20502D01*
X35342Y20480D01*
X35306Y20469D01*
X35273Y20466D01*
X35240D01*
X35215Y20475D01*
X35184Y20486D01*
X35159Y20502D01*
X35140Y20522D01*
X35120Y20550D01*
X35106Y20580D01*
X35098Y20608D01*
X35095Y20633D01*
X35098Y20661D01*
X35104Y20683D01*
X35112Y20705D01*
X35123Y20727D01*
X35137Y20747D01*
X35156Y20766D01*
X35179Y20780D01*
X35198Y20789D01*
X35195Y20814D01*
X34779Y20383D01*
X34745Y20419D01*
X35190Y20880D01*
X35154Y21283D01*
X35129Y21574D01*
X34995D01*
Y21760D01*
X35031D01*
X34693Y22108D01*
X34729Y22141D01*
X35045Y21813D01*
Y21838D01*
X35040Y21844D01*
X35031Y21849D01*
X35023Y21858D01*
X35015Y21866D01*
X35009Y21880D01*
X35006Y21891D01*
X35004Y21905D01*
X35006Y21922D01*
X35012Y21933D01*
X35023Y21952D01*
X35037Y21963D01*
X35056Y21972D01*
X35076Y21974D01*
X35095Y21972D01*
X35112Y21966D01*
X35126Y21958D01*
X35131Y21949D01*
X35145Y21960D01*
X35165Y21974D01*
X35190Y21985D01*
X35226Y21999D01*
X35265Y22010D01*
X35304Y22019D01*
X35345Y22027D01*
X35379Y22030D01*
Y22071D01*
X35645D01*
Y22035D01*
X35667D01*
X35701Y22033D01*
X35737Y22027D01*
X35773Y22021D01*
Y22044D01*
X35887D01*
Y21991D01*
X35901Y21983D01*
X35920Y21974D01*
X35940Y21963D01*
X35956Y21952D01*
X35973Y21938D01*
X35984Y21927D01*
X35990Y21919D01*
X35995Y21908D01*
X35992Y21888D01*
X36059D01*
Y21802D01*
X35987D01*
X35976Y21694D01*
X36406Y22141D01*
X36439Y22108D01*
D02*
G37*
G36*
X42835Y21958D02*
X42854Y21955D01*
X42871Y21949D01*
X42882Y21944D01*
X42893Y21938D01*
X42899Y21935D01*
X42901Y21933D01*
X42913Y21927D01*
X42918Y21924D01*
X42943Y21902D01*
X42965Y21877D01*
X42976Y21860D01*
X42982Y21855D01*
Y21852D01*
X43818Y20403D01*
X43821D01*
Y20400D01*
Y20397D01*
X43826Y20386D01*
X43832Y20378D01*
X43835Y20372D01*
Y20369D01*
X43837Y20361D01*
X43840Y20350D01*
X43843Y20341D01*
Y20339D01*
X43846Y20308D01*
Y20280D01*
X43843Y20255D01*
X43837Y20233D01*
X43829Y20214D01*
X43823Y20200D01*
X43821Y20191D01*
X43818Y20189D01*
X43807Y20169D01*
X43804Y20164D01*
X43801Y20161D01*
X43787Y20147D01*
X43782Y20141D01*
X43779Y20139D01*
X43754Y20119D01*
X43729Y20105D01*
X43704Y20094D01*
X43679Y20089D01*
X43660Y20083D01*
X43643Y20080D01*
X41952D01*
X41938Y20083D01*
X41927D01*
X41924Y20086D01*
X41913D01*
X41902Y20089D01*
X41893Y20091D01*
X41891D01*
X41863Y20103D01*
X41838Y20116D01*
X41818Y20133D01*
X41802Y20150D01*
X41788Y20164D01*
X41780Y20178D01*
X41774Y20186D01*
X41771Y20189D01*
X41768D01*
X41763Y20203D01*
X41757Y20211D01*
X41755Y20216D01*
Y20219D01*
X41752Y20230D01*
X41749Y20241D01*
X41746Y20247D01*
Y20250D01*
X41743Y20280D01*
Y20308D01*
X41746Y20336D01*
X41752Y20358D01*
X41760Y20378D01*
X41766Y20394D01*
X41768Y20403D01*
X41771Y20405D01*
X42610Y21858D01*
X42621Y21874D01*
X42624Y21880D01*
X42627Y21883D01*
X42640Y21897D01*
X42646Y21902D01*
X42649Y21905D01*
X42674Y21924D01*
X42696Y21938D01*
X42721Y21949D01*
X42743Y21955D01*
X42763Y21960D01*
X42779Y21963D01*
X42815D01*
X42835Y21958D01*
D02*
G37*
G36*
X40252Y21958D02*
X40272Y21955D01*
X40288Y21949D01*
X40299Y21944D01*
X40311Y21938D01*
X40316Y21935D01*
X40319Y21933D01*
X40330Y21927D01*
X40336Y21924D01*
X40361Y21902D01*
X40383Y21877D01*
X40394Y21860D01*
X40399Y21855D01*
Y21852D01*
X41235Y20403D01*
X41238D01*
Y20400D01*
Y20397D01*
X41244Y20386D01*
X41249Y20378D01*
X41252Y20372D01*
Y20369D01*
X41255Y20361D01*
X41258Y20350D01*
X41260Y20341D01*
Y20339D01*
X41263Y20308D01*
Y20280D01*
X41260Y20255D01*
X41255Y20233D01*
X41246Y20214D01*
X41241Y20200D01*
X41238Y20191D01*
X41235Y20189D01*
X41224Y20169D01*
X41221Y20164D01*
X41219Y20161D01*
X41205Y20147D01*
X41199Y20141D01*
X41196Y20139D01*
X41171Y20119D01*
X41146Y20105D01*
X41121Y20094D01*
X41096Y20089D01*
X41077Y20083D01*
X41060Y20080D01*
X39369Y20080D01*
X39355Y20083D01*
X39344D01*
X39341Y20086D01*
X39330D01*
X39319Y20089D01*
X39311Y20091D01*
X39308D01*
X39280Y20103D01*
X39255Y20116D01*
X39236Y20133D01*
X39219Y20150D01*
X39205Y20164D01*
X39197Y20178D01*
X39191Y20186D01*
X39189Y20189D01*
X39186D01*
X39180Y20203D01*
X39175Y20211D01*
X39172Y20216D01*
Y20219D01*
X39169Y20230D01*
X39166Y20241D01*
X39164Y20247D01*
Y20250D01*
X39161Y20280D01*
Y20308D01*
X39164Y20336D01*
X39169Y20358D01*
X39178Y20378D01*
X39183Y20394D01*
X39186Y20403D01*
X39189Y20405D01*
X40027Y21858D01*
X40038Y21874D01*
X40041Y21880D01*
X40044Y21883D01*
X40058Y21897D01*
X40063Y21902D01*
X40066Y21905D01*
X40091Y21924D01*
X40113Y21938D01*
X40138Y21949D01*
X40161Y21955D01*
X40180Y21960D01*
X40197Y21963D01*
X40233D01*
X40252Y21958D01*
D02*
G37*
G36*
X37670D02*
X37689Y21955D01*
X37706Y21949D01*
X37717Y21944D01*
X37728Y21938D01*
X37733Y21935D01*
X37736Y21933D01*
X37747Y21927D01*
X37753Y21924D01*
X37778Y21902D01*
X37800Y21877D01*
X37811Y21860D01*
X37817Y21855D01*
Y21852D01*
X38653Y20403D01*
X38655D01*
Y20400D01*
Y20397D01*
X38661Y20386D01*
X38667Y20378D01*
X38669Y20372D01*
Y20369D01*
X38672Y20361D01*
X38675Y20350D01*
X38678Y20341D01*
Y20339D01*
X38680Y20308D01*
Y20280D01*
X38678Y20255D01*
X38672Y20233D01*
X38664Y20214D01*
X38658Y20200D01*
X38655Y20191D01*
X38653Y20189D01*
X38642Y20169D01*
X38639Y20164D01*
X38636Y20161D01*
X38622Y20147D01*
X38617Y20141D01*
X38614Y20139D01*
X38589Y20119D01*
X38564Y20105D01*
X38539Y20094D01*
X38514Y20089D01*
X38494Y20083D01*
X38478Y20080D01*
X36787D01*
X36773Y20083D01*
X36762D01*
X36759Y20086D01*
X36748D01*
X36737Y20089D01*
X36728Y20091D01*
X36725D01*
X36698Y20103D01*
X36673Y20116D01*
X36653Y20133D01*
X36637Y20150D01*
X36623Y20164D01*
X36614Y20178D01*
X36609Y20186D01*
X36606Y20189D01*
X36603D01*
X36598Y20203D01*
X36592Y20211D01*
X36589Y20216D01*
Y20219D01*
X36587Y20230D01*
X36584Y20241D01*
X36581Y20247D01*
Y20250D01*
X36578Y20280D01*
Y20308D01*
X36581Y20336D01*
X36587Y20358D01*
X36595Y20378D01*
X36600Y20394D01*
X36603Y20403D01*
X36606Y20405D01*
X37445Y21858D01*
X37456Y21874D01*
X37459Y21880D01*
X37461Y21883D01*
X37475Y21897D01*
X37481Y21902D01*
X37484Y21905D01*
X37509Y21924D01*
X37531Y21938D01*
X37556Y21949D01*
X37578Y21955D01*
X37597Y21960D01*
X37614Y21963D01*
X37650D01*
X37670Y21958D01*
D02*
G37*
G36*
X33254Y21958D02*
X33274Y21955D01*
X33290Y21949D01*
X33301Y21944D01*
X33313Y21938D01*
X33318Y21935D01*
X33321Y21933D01*
X33332Y21927D01*
X33338Y21924D01*
X33362Y21902D01*
X33385Y21877D01*
X33396Y21860D01*
X33401Y21855D01*
Y21852D01*
X34237Y20403D01*
X34240D01*
Y20400D01*
Y20397D01*
X34246Y20386D01*
X34251Y20378D01*
X34254Y20372D01*
Y20369D01*
X34257Y20361D01*
X34259Y20350D01*
X34262Y20341D01*
Y20339D01*
X34265Y20308D01*
Y20280D01*
X34262Y20255D01*
X34257Y20233D01*
X34248Y20214D01*
X34243Y20200D01*
X34240Y20191D01*
X34237Y20189D01*
X34226Y20169D01*
X34223Y20164D01*
X34221Y20161D01*
X34207Y20147D01*
X34201Y20141D01*
X34198Y20139D01*
X34173Y20119D01*
X34148Y20105D01*
X34123Y20094D01*
X34098Y20089D01*
X34079Y20083D01*
X34062Y20080D01*
X32371D01*
X32357Y20083D01*
X32346D01*
X32343Y20086D01*
X32332D01*
X32321Y20089D01*
X32313Y20091D01*
X32310D01*
X32282Y20103D01*
X32257Y20116D01*
X32238Y20133D01*
X32221Y20150D01*
X32207Y20164D01*
X32199Y20178D01*
X32193Y20186D01*
X32191Y20189D01*
X32188D01*
X32182Y20203D01*
X32177Y20211D01*
X32174Y20216D01*
Y20219D01*
X32171Y20230D01*
X32168Y20241D01*
X32166Y20247D01*
Y20250D01*
X32163Y20280D01*
Y20308D01*
X32166Y20336D01*
X32171Y20358D01*
X32179Y20378D01*
X32185Y20394D01*
X32188Y20403D01*
X32191Y20405D01*
X33029Y21858D01*
X33040Y21874D01*
X33043Y21880D01*
X33046Y21883D01*
X33060Y21897D01*
X33065Y21902D01*
X33068Y21905D01*
X33093Y21924D01*
X33115Y21938D01*
X33140Y21949D01*
X33163Y21955D01*
X33182Y21960D01*
X33199Y21963D01*
X33235D01*
X33254Y21958D01*
D02*
G37*
G36*
X42868Y19780D02*
X42835D01*
Y19992D01*
X42693Y19780D01*
X42657D01*
Y20047D01*
X42690D01*
Y19839D01*
X42832Y20047D01*
X42868D01*
Y19780D01*
D02*
G37*
G36*
X41980D02*
X41946D01*
Y19992D01*
X41807Y19780D01*
X41771D01*
Y20047D01*
X41805D01*
Y19839D01*
X41943Y20047D01*
X41980D01*
Y19780D01*
D02*
G37*
G36*
X37703Y19780D02*
X37670D01*
Y19992D01*
X37528Y19780D01*
X37492D01*
Y20047D01*
X37525D01*
Y19839D01*
X37667Y20047D01*
X37703D01*
Y19780D01*
D02*
G37*
G36*
X36814D02*
X36781D01*
Y19992D01*
X36642Y19780D01*
X36606D01*
Y20047D01*
X36639D01*
Y19839D01*
X36778Y20047D01*
X36814D01*
Y19780D01*
D02*
G37*
G36*
X33288Y19780D02*
X33254D01*
Y19992D01*
X33113Y19780D01*
X33076D01*
Y20047D01*
X33110D01*
Y19839D01*
X33251Y20047D01*
X33288D01*
Y19780D01*
D02*
G37*
G36*
X32399D02*
X32366D01*
Y19992D01*
X32227Y19780D01*
X32191D01*
Y20047D01*
X32224D01*
Y19839D01*
X32363Y20047D01*
X32399D01*
Y19780D01*
D02*
G37*
G36*
X43818Y19780D02*
X43782D01*
X43751Y19861D01*
X43640D01*
X43610Y19780D01*
X43571D01*
X43679Y20047D01*
X43718D01*
X43818Y19780D01*
D02*
G37*
G36*
X43590Y20017D02*
X43501D01*
Y19780D01*
X43465D01*
Y20017D01*
X43379D01*
Y20047D01*
X43590D01*
Y20017D01*
D02*
G37*
G36*
X43362D02*
X43274D01*
Y19780D01*
X43240D01*
Y20017D01*
X43151D01*
Y20047D01*
X43362D01*
Y20017D01*
D02*
G37*
G36*
X43115Y19780D02*
X42915D01*
Y19811D01*
X43079D01*
Y19903D01*
X42932D01*
Y19933D01*
X43079D01*
Y20017D01*
X42921D01*
Y20047D01*
X43115D01*
Y19780D01*
D02*
G37*
G36*
X42618Y20017D02*
X42532D01*
Y19780D01*
X42496D01*
Y20017D01*
X42407D01*
Y20047D01*
X42618D01*
Y20017D01*
D02*
G37*
G36*
X42366Y19780D02*
X42329D01*
Y20047D01*
X42366D01*
Y19780D01*
D02*
G37*
G36*
X38653Y19780D02*
X38617D01*
X38586Y19861D01*
X38475D01*
X38444Y19780D01*
X38406D01*
X38514Y20047D01*
X38553D01*
X38653Y19780D01*
D02*
G37*
G36*
X38425Y20017D02*
X38336D01*
Y19780D01*
X38300D01*
Y20017D01*
X38214D01*
Y20047D01*
X38425D01*
Y20017D01*
D02*
G37*
G36*
X38197D02*
X38108D01*
Y19780D01*
X38075D01*
Y20017D01*
X37986D01*
Y20047D01*
X38197D01*
Y20017D01*
D02*
G37*
G36*
X37950Y19780D02*
X37750D01*
Y19811D01*
X37914D01*
Y19903D01*
X37767D01*
Y19933D01*
X37914D01*
Y20017D01*
X37756D01*
Y20047D01*
X37950D01*
Y19780D01*
D02*
G37*
G36*
X37453Y20017D02*
X37367D01*
Y19780D01*
X37331D01*
Y20017D01*
X37242D01*
Y20047D01*
X37453D01*
Y20017D01*
D02*
G37*
G36*
X37200Y19780D02*
X37164D01*
Y20047D01*
X37200D01*
Y19780D01*
D02*
G37*
G36*
X34237Y19780D02*
X34201D01*
X34171Y19861D01*
X34060D01*
X34029Y19780D01*
X33990D01*
X34098Y20047D01*
X34137D01*
X34237Y19780D01*
D02*
G37*
G36*
X34010Y20017D02*
X33921D01*
Y19780D01*
X33885D01*
Y20017D01*
X33798D01*
Y20047D01*
X34010D01*
Y20017D01*
D02*
G37*
G36*
X33782D02*
X33693D01*
Y19780D01*
X33660D01*
Y20017D01*
X33571D01*
Y20047D01*
X33782D01*
Y20017D01*
D02*
G37*
G36*
X33535Y19780D02*
X33335D01*
Y19811D01*
X33499D01*
Y19903D01*
X33351D01*
Y19933D01*
X33499D01*
Y20017D01*
X33340D01*
Y20047D01*
X33535D01*
Y19780D01*
D02*
G37*
G36*
X33038Y20017D02*
X32952D01*
Y19780D01*
X32915D01*
Y20017D01*
X32827D01*
Y20047D01*
X33038D01*
Y20017D01*
D02*
G37*
G36*
X32785Y19780D02*
X32749D01*
Y20047D01*
X32785D01*
Y19780D01*
D02*
G37*
G36*
X42171Y20050D02*
X42191Y20047D01*
X42218Y20033D01*
X42229Y20025D01*
X42238Y20019D01*
X42241Y20017D01*
X42243Y20014D01*
X42254Y20000D01*
X42263Y19983D01*
X42274Y19950D01*
X42277Y19933D01*
X42279Y19922D01*
Y19914D01*
Y19911D01*
X42277Y19886D01*
X42271Y19864D01*
X42268Y19850D01*
X42266Y19847D01*
Y19844D01*
X42252Y19822D01*
X42235Y19808D01*
X42224Y19797D01*
X42218Y19794D01*
X42196Y19786D01*
X42174Y19780D01*
X42157Y19778D01*
X42152D01*
X42127Y19780D01*
X42107Y19786D01*
X42093Y19792D01*
X42088Y19794D01*
X42068Y19808D01*
X42052Y19822D01*
X42043Y19836D01*
X42041Y19842D01*
X42030Y19867D01*
X42027Y19889D01*
X42024Y19908D01*
Y19911D01*
Y19914D01*
X42027Y19942D01*
X42032Y19964D01*
X42038Y19980D01*
X42041Y19983D01*
Y19986D01*
X42055Y20005D01*
X42068Y20022D01*
X42080Y20030D01*
X42085Y20033D01*
X42107Y20044D01*
X42129Y20050D01*
X42146Y20053D01*
X42152D01*
X42171Y20050D01*
D02*
G37*
G36*
X37006Y20050D02*
X37025Y20047D01*
X37053Y20033D01*
X37064Y20025D01*
X37073Y20019D01*
X37075Y20017D01*
X37078Y20014D01*
X37089Y20000D01*
X37098Y19983D01*
X37109Y19950D01*
X37111Y19933D01*
X37114Y19922D01*
Y19914D01*
Y19911D01*
X37111Y19886D01*
X37106Y19864D01*
X37103Y19850D01*
X37100Y19847D01*
Y19844D01*
X37086Y19822D01*
X37070Y19808D01*
X37059Y19797D01*
X37053Y19794D01*
X37031Y19786D01*
X37009Y19780D01*
X36992Y19778D01*
X36986D01*
X36961Y19780D01*
X36942Y19786D01*
X36928Y19792D01*
X36923Y19794D01*
X36903Y19808D01*
X36887Y19822D01*
X36878Y19836D01*
X36875Y19842D01*
X36864Y19867D01*
X36862Y19889D01*
X36859Y19908D01*
Y19911D01*
Y19914D01*
X36862Y19942D01*
X36867Y19964D01*
X36873Y19980D01*
X36875Y19983D01*
Y19986D01*
X36889Y20005D01*
X36903Y20022D01*
X36914Y20030D01*
X36920Y20033D01*
X36942Y20044D01*
X36964Y20050D01*
X36981Y20053D01*
X36986D01*
X37006Y20050D01*
D02*
G37*
G36*
X32590Y20050D02*
X32610Y20047D01*
X32638Y20033D01*
X32649Y20025D01*
X32657Y20019D01*
X32660Y20017D01*
X32663Y20014D01*
X32674Y20000D01*
X32682Y19983D01*
X32693Y19950D01*
X32696Y19933D01*
X32699Y19922D01*
Y19914D01*
Y19911D01*
X32696Y19886D01*
X32690Y19864D01*
X32688Y19850D01*
X32685Y19847D01*
Y19844D01*
X32671Y19822D01*
X32654Y19808D01*
X32643Y19797D01*
X32638Y19794D01*
X32615Y19786D01*
X32593Y19780D01*
X32577Y19778D01*
X32571D01*
X32546Y19780D01*
X32527Y19786D01*
X32513Y19792D01*
X32507Y19794D01*
X32488Y19808D01*
X32471Y19822D01*
X32463Y19836D01*
X32460Y19842D01*
X32449Y19867D01*
X32446Y19889D01*
X32443Y19908D01*
Y19911D01*
Y19914D01*
X32446Y19942D01*
X32452Y19964D01*
X32457Y19980D01*
X32460Y19983D01*
Y19986D01*
X32474Y20005D01*
X32488Y20022D01*
X32499Y20030D01*
X32504Y20033D01*
X32527Y20044D01*
X32549Y20050D01*
X32566Y20053D01*
X32571D01*
X32590Y20050D01*
D02*
G37*
G36*
X33846Y19608D02*
X33829D01*
Y19669D01*
X33760D01*
Y19608D01*
X33740D01*
Y19739D01*
X33760D01*
Y19683D01*
X33829D01*
Y19739D01*
X33846D01*
Y19608D01*
D02*
G37*
G36*
X37972Y19739D02*
X37978Y19736D01*
X37981Y19733D01*
X37989Y19725D01*
X37997Y19717D01*
X38000Y19711D01*
X38003Y19708D01*
X38008Y19697D01*
X38011Y19686D01*
Y19675D01*
Y19672D01*
Y19658D01*
X38008Y19647D01*
X38006Y19639D01*
Y19636D01*
X37997Y19628D01*
X37992Y19622D01*
X37986Y19617D01*
X37983D01*
X37972Y19611D01*
X37961Y19608D01*
X37950Y19605D01*
X37947D01*
X37936Y19608D01*
X37925Y19614D01*
X37917Y19617D01*
X37914Y19619D01*
X37906Y19625D01*
X37900Y19636D01*
X37895Y19644D01*
Y19647D01*
X37911Y19653D01*
X37917Y19642D01*
X37920Y19633D01*
X37922Y19628D01*
X37925D01*
X37933Y19625D01*
X37942Y19622D01*
X37950D01*
X37964Y19625D01*
X37972D01*
X37981Y19631D01*
X37983Y19636D01*
X37989Y19642D01*
Y19644D01*
X37995Y19664D01*
Y19669D01*
Y19672D01*
X37992Y19689D01*
X37989Y19694D01*
Y19697D01*
X37981Y19714D01*
X37975Y19717D01*
Y19719D01*
X37956Y19725D01*
X37947D01*
X37933Y19722D01*
X37928Y19719D01*
X37920Y19714D01*
X37917Y19705D01*
X37914Y19700D01*
Y19697D01*
X37897Y19703D01*
X37903Y19714D01*
X37908Y19722D01*
X37911Y19728D01*
X37914Y19730D01*
X37925Y19736D01*
X37936Y19742D01*
X37961D01*
X37972Y19739D01*
D02*
G37*
G36*
X36945D02*
X36953Y19736D01*
X36956Y19733D01*
X36964Y19725D01*
X36973Y19717D01*
X36975Y19711D01*
X36978Y19708D01*
X36984Y19697D01*
X36986Y19686D01*
Y19675D01*
Y19672D01*
X36984Y19658D01*
X36981Y19647D01*
X36978Y19639D01*
Y19636D01*
X36973Y19628D01*
X36967Y19622D01*
X36961Y19617D01*
X36959D01*
X36948Y19611D01*
X36936Y19608D01*
X36925Y19605D01*
X36923D01*
X36909Y19608D01*
X36898Y19614D01*
X36892Y19617D01*
X36889Y19619D01*
X36878Y19625D01*
X36873Y19636D01*
X36867Y19644D01*
Y19647D01*
X36887Y19653D01*
X36889Y19642D01*
X36895Y19633D01*
X36898Y19631D01*
X36900Y19628D01*
X36909Y19625D01*
X36917Y19622D01*
X36925D01*
X36939Y19625D01*
X36948D01*
X36956Y19631D01*
X36959Y19636D01*
X36964Y19642D01*
Y19644D01*
X36967Y19664D01*
Y19669D01*
Y19672D01*
X36964Y19689D01*
Y19694D01*
Y19697D01*
X36956Y19714D01*
X36950Y19717D01*
Y19719D01*
X36931Y19725D01*
X36923D01*
X36906Y19722D01*
X36903Y19719D01*
X36900D01*
X36895Y19714D01*
X36889Y19705D01*
X36887Y19700D01*
Y19697D01*
X36870Y19703D01*
X36875Y19714D01*
X36881Y19722D01*
X36887Y19728D01*
X36889Y19730D01*
X36900Y19736D01*
X36911Y19742D01*
X36934D01*
X36945Y19739D01*
D02*
G37*
G36*
X36339Y20000D02*
Y19994D01*
Y19983D01*
Y19972D01*
Y19961D01*
Y19950D01*
Y19944D01*
Y19942D01*
Y19897D01*
Y19855D01*
Y19836D01*
Y19822D01*
Y19814D01*
Y19811D01*
Y19761D01*
Y19739D01*
Y19719D01*
Y19703D01*
Y19692D01*
Y19683D01*
Y19680D01*
Y19661D01*
Y19647D01*
Y19636D01*
Y19631D01*
Y19622D01*
X34820Y19622D01*
Y19625D01*
Y19631D01*
Y19653D01*
Y19672D01*
Y19678D01*
Y19680D01*
Y19725D01*
Y19767D01*
Y19786D01*
Y19800D01*
Y19808D01*
Y19811D01*
Y19861D01*
Y19883D01*
Y19903D01*
Y19919D01*
Y19930D01*
Y19939D01*
Y19942D01*
Y19961D01*
Y19978D01*
Y19989D01*
Y19994D01*
Y20000D01*
Y20003D01*
X36339Y20003D01*
Y20000D01*
D02*
G37*
G36*
X33282Y19661D02*
Y19647D01*
X33279Y19636D01*
X33276Y19631D01*
Y19628D01*
X33265Y19617D01*
X33263Y19614D01*
X33260D01*
X33251Y19608D01*
X33240Y19605D01*
X33229D01*
X33215Y19608D01*
X33207Y19611D01*
X33201Y19614D01*
X33199D01*
X33190Y19619D01*
X33185Y19625D01*
X33182Y19631D01*
X33179Y19639D01*
X33176Y19650D01*
Y19658D01*
Y19661D01*
Y19739D01*
X33193D01*
Y19661D01*
Y19644D01*
X33196Y19636D01*
X33199Y19631D01*
X33201Y19628D01*
X33210Y19625D01*
X33218Y19622D01*
X33249D01*
X33257Y19631D01*
X33260Y19636D01*
X33263Y19642D01*
Y19650D01*
Y19658D01*
Y19661D01*
Y19739D01*
X33282D01*
Y19661D01*
D02*
G37*
G36*
X32752Y19739D02*
X32757Y19736D01*
X32760Y19733D01*
X32771Y19725D01*
X32777Y19717D01*
X32782Y19711D01*
Y19708D01*
X32788Y19697D01*
X32790Y19686D01*
Y19675D01*
Y19672D01*
Y19658D01*
X32788Y19647D01*
X32785Y19639D01*
Y19636D01*
X32777Y19628D01*
X32771Y19622D01*
X32765Y19617D01*
X32763D01*
X32752Y19611D01*
X32740Y19608D01*
X32729Y19605D01*
X32727D01*
X32713Y19608D01*
X32702Y19614D01*
X32696Y19617D01*
X32693Y19619D01*
X32685Y19625D01*
X32679Y19636D01*
X32674Y19644D01*
Y19647D01*
X32690Y19653D01*
X32693Y19642D01*
X32699Y19633D01*
X32702Y19631D01*
X32704Y19628D01*
X32721Y19622D01*
X32729D01*
X32743Y19625D01*
X32752D01*
X32760Y19631D01*
X32763Y19636D01*
X32768Y19642D01*
Y19644D01*
X32774Y19664D01*
Y19669D01*
Y19672D01*
X32771Y19689D01*
X32768Y19694D01*
Y19697D01*
X32760Y19714D01*
X32754Y19717D01*
Y19719D01*
X32735Y19725D01*
X32727D01*
X32713Y19722D01*
X32707Y19719D01*
X32696Y19705D01*
X32693Y19700D01*
Y19697D01*
X32677Y19703D01*
X32682Y19714D01*
X32688Y19722D01*
X32690Y19728D01*
X32693Y19730D01*
X32704Y19736D01*
X32715Y19742D01*
X32740D01*
X32752Y19739D01*
D02*
G37*
G36*
X38358Y19608D02*
X38258D01*
Y19622D01*
X38339D01*
Y19667D01*
X38267D01*
Y19683D01*
X38339D01*
Y19722D01*
X38261D01*
Y19739D01*
X38358D01*
Y19608D01*
D02*
G37*
G36*
X38233D02*
X38150D01*
Y19622D01*
X38217D01*
Y19739D01*
X38233D01*
Y19608D01*
D02*
G37*
G36*
X38131D02*
X38031D01*
Y19622D01*
X38111D01*
Y19667D01*
X38039D01*
Y19683D01*
X38111D01*
Y19722D01*
X38033D01*
Y19739D01*
X38131D01*
Y19608D01*
D02*
G37*
G36*
X37881Y19722D02*
X37839D01*
Y19608D01*
X37820D01*
Y19722D01*
X37775D01*
Y19739D01*
X37881D01*
Y19722D01*
D02*
G37*
G36*
X37758Y19608D02*
X37739D01*
Y19664D01*
X37711D01*
X37706Y19661D01*
X37703D01*
X37697Y19655D01*
X37695Y19653D01*
X37689Y19647D01*
X37686Y19642D01*
X37681Y19636D01*
Y19633D01*
X37664Y19608D01*
X37642D01*
X37664Y19642D01*
X37675Y19655D01*
X37678Y19658D01*
X37686Y19664D01*
X37689Y19667D01*
X37675Y19669D01*
X37667Y19672D01*
X37664Y19678D01*
X37661D01*
X37656Y19686D01*
X37653Y19694D01*
Y19700D01*
Y19703D01*
X37656Y19717D01*
X37659Y19719D01*
Y19722D01*
X37661Y19728D01*
X37667Y19733D01*
X37670Y19736D01*
X37672D01*
X37689Y19739D01*
X37758D01*
Y19608D01*
D02*
G37*
G36*
X37367Y19722D02*
X37322D01*
Y19608D01*
X37306D01*
Y19722D01*
X37261D01*
Y19739D01*
X37367D01*
Y19722D01*
D02*
G37*
G36*
X37270Y19608D02*
X37253D01*
X37236Y19644D01*
X37181D01*
X37167Y19608D01*
X37145D01*
X37200Y19739D01*
X37220D01*
X37270Y19608D01*
D02*
G37*
G36*
X37156Y19722D02*
X37111D01*
Y19608D01*
X37095D01*
Y19722D01*
X37050D01*
Y19739D01*
X37156D01*
Y19722D01*
D02*
G37*
G36*
X37031Y19608D02*
X37011D01*
Y19739D01*
X37031D01*
Y19608D01*
D02*
G37*
G36*
X33576Y19722D02*
X33532D01*
Y19608D01*
X33515D01*
Y19722D01*
X33471D01*
Y19739D01*
X33576D01*
Y19722D01*
D02*
G37*
G36*
X33146Y19608D02*
X33129D01*
Y19664D01*
X33099D01*
X33093Y19661D01*
X33090D01*
X33085Y19655D01*
X33082Y19653D01*
X33079Y19647D01*
X33074Y19642D01*
X33071Y19636D01*
X33068Y19633D01*
X33051Y19608D01*
X33029D01*
X33051Y19642D01*
X33063Y19655D01*
X33068Y19658D01*
X33074Y19664D01*
X33076Y19667D01*
X33065Y19669D01*
X33057Y19672D01*
X33051Y19678D01*
X33049D01*
X33043Y19686D01*
X33040Y19694D01*
Y19700D01*
Y19703D01*
X33043Y19717D01*
X33046Y19719D01*
Y19722D01*
X33054Y19733D01*
X33057Y19736D01*
X33060D01*
X33076Y19739D01*
X33146D01*
Y19608D01*
D02*
G37*
G36*
X33013D02*
X32996D01*
Y19667D01*
X32932D01*
Y19680D01*
X32996D01*
Y19722D01*
X32924D01*
Y19739D01*
X33013D01*
Y19608D01*
D02*
G37*
G36*
X32924D02*
X32904D01*
X32890Y19644D01*
X32835D01*
X32821Y19608D01*
X32799D01*
X32854Y19739D01*
X32874D01*
X32924Y19608D01*
D02*
G37*
G36*
X32652D02*
X32552D01*
Y19622D01*
X32632D01*
Y19667D01*
X32560D01*
Y19683D01*
X32632D01*
Y19722D01*
X32554D01*
Y19739D01*
X32652D01*
Y19608D01*
D02*
G37*
G36*
X37586Y19739D02*
X37600Y19733D01*
X37609Y19725D01*
X37611Y19722D01*
X37620Y19705D01*
X37625Y19689D01*
X37628Y19675D01*
Y19672D01*
Y19669D01*
Y19655D01*
X37625Y19644D01*
X37622Y19639D01*
Y19636D01*
X37617Y19628D01*
X37609Y19622D01*
X37603Y19617D01*
X37600D01*
X37589Y19611D01*
X37578Y19608D01*
X37570Y19605D01*
X37567D01*
X37553Y19608D01*
X37542Y19611D01*
X37536Y19614D01*
X37534D01*
X37517Y19628D01*
X37514Y19633D01*
X37511Y19636D01*
X37506Y19647D01*
X37503Y19658D01*
Y19669D01*
Y19672D01*
Y19686D01*
X37506Y19697D01*
X37509Y19705D01*
X37511Y19708D01*
X37517Y19719D01*
X37525Y19725D01*
X37531Y19730D01*
X37534D01*
X37545Y19736D01*
X37556Y19742D01*
X37567D01*
X37586Y19739D01*
D02*
G37*
G36*
X37450D02*
X37456Y19736D01*
X37459D01*
X37470Y19728D01*
X37475Y19725D01*
Y19722D01*
X37481Y19708D01*
Y19705D01*
Y19703D01*
X37478Y19692D01*
X37475Y19689D01*
X37472Y19683D01*
X37467Y19678D01*
X37464Y19675D01*
X37461D01*
X37456Y19672D01*
X37447Y19669D01*
X37439Y19667D01*
X37436D01*
X37425Y19664D01*
X37417Y19661D01*
X37411D01*
X37403Y19655D01*
X37400Y19653D01*
X37397Y19644D01*
Y19642D01*
Y19633D01*
X37400Y19631D01*
X37409Y19625D01*
X37411Y19622D01*
X37450D01*
X37456Y19628D01*
X37461Y19631D01*
X37464Y19633D01*
X37470Y19644D01*
Y19650D01*
X37486Y19647D01*
X37484Y19639D01*
X37481Y19631D01*
X37478Y19628D01*
Y19625D01*
X37464Y19614D01*
X37461Y19611D01*
X37459D01*
X37450Y19608D01*
X37439Y19605D01*
X37428D01*
X37411Y19608D01*
X37406Y19611D01*
X37403D01*
X37392Y19619D01*
X37386Y19622D01*
X37381Y19636D01*
Y19642D01*
X37384Y19655D01*
X37386Y19661D01*
X37397Y19672D01*
X37400Y19675D01*
X37403D01*
X37411Y19678D01*
X37420Y19680D01*
X37428Y19683D01*
X37431D01*
X37445Y19686D01*
X37453Y19689D01*
X37459Y19692D01*
X37464Y19700D01*
Y19705D01*
X37461Y19711D01*
X37459Y19717D01*
X37456Y19719D01*
X37450Y19722D01*
X37442Y19725D01*
X37422D01*
X37417Y19722D01*
X37411Y19719D01*
X37406Y19714D01*
X37403Y19708D01*
X37400Y19703D01*
Y19700D01*
X37384D01*
X37386Y19717D01*
X37389Y19719D01*
Y19722D01*
X37403Y19733D01*
X37406Y19736D01*
X37409D01*
X37425Y19742D01*
X37434D01*
X37450Y19739D01*
D02*
G37*
G36*
X33674Y19739D02*
X33687Y19733D01*
X33696Y19725D01*
X33699Y19722D01*
X33710Y19705D01*
X33715Y19689D01*
X33718Y19675D01*
Y19672D01*
Y19669D01*
X33715Y19658D01*
X33712Y19647D01*
X33710Y19639D01*
Y19636D01*
X33701Y19628D01*
X33696Y19622D01*
X33690Y19617D01*
X33687D01*
X33676Y19611D01*
X33665Y19608D01*
X33657Y19605D01*
X33654D01*
X33643Y19608D01*
X33632Y19611D01*
X33624Y19614D01*
X33621D01*
X33604Y19628D01*
X33601Y19633D01*
X33599Y19636D01*
X33593Y19647D01*
X33590Y19658D01*
Y19669D01*
Y19672D01*
Y19686D01*
X33593Y19697D01*
X33596Y19705D01*
Y19708D01*
X33604Y19719D01*
X33612Y19725D01*
X33618Y19730D01*
X33621D01*
X33632Y19736D01*
X33643Y19742D01*
X33654D01*
X33674Y19739D01*
D02*
G37*
G36*
X33376D02*
X33382Y19736D01*
X33385D01*
X33396Y19728D01*
X33401Y19725D01*
Y19722D01*
X33407Y19708D01*
Y19705D01*
Y19703D01*
X33404Y19692D01*
X33401Y19689D01*
X33393Y19678D01*
X33387Y19675D01*
X33379Y19672D01*
X33371Y19669D01*
X33365Y19667D01*
X33362D01*
X33349Y19664D01*
X33340Y19661D01*
X33338D01*
X33329Y19655D01*
X33326Y19653D01*
X33321Y19644D01*
Y19642D01*
X33324Y19633D01*
X33326Y19631D01*
X33332Y19625D01*
X33335Y19622D01*
X33376D01*
X33385Y19631D01*
X33387Y19633D01*
X33393Y19644D01*
Y19650D01*
X33412Y19647D01*
X33407Y19631D01*
X33404Y19628D01*
Y19625D01*
X33390Y19614D01*
X33387Y19611D01*
X33385D01*
X33365Y19605D01*
X33354D01*
X33338Y19608D01*
X33332Y19611D01*
X33329D01*
X33315Y19619D01*
X33313Y19622D01*
X33307Y19628D01*
X33304Y19636D01*
Y19639D01*
Y19642D01*
X33307Y19655D01*
X33310Y19661D01*
X33315Y19667D01*
X33321Y19672D01*
X33326Y19675D01*
X33329D01*
X33335Y19678D01*
X33346Y19680D01*
X33354Y19683D01*
X33357D01*
X33371Y19686D01*
X33379Y19689D01*
X33385Y19692D01*
X33387Y19700D01*
Y19705D01*
X33385Y19717D01*
X33382Y19719D01*
X33374Y19722D01*
X33365Y19725D01*
X33357D01*
X33340Y19722D01*
X33338Y19719D01*
X33335D01*
X33329Y19714D01*
X33326Y19708D01*
Y19703D01*
Y19700D01*
X33310D01*
X33313Y19717D01*
X33315Y19719D01*
Y19722D01*
X33326Y19733D01*
X33329Y19736D01*
X33332D01*
X33349Y19742D01*
X33360D01*
X33376Y19739D01*
D02*
G37*
G36*
X38211Y19428D02*
X38194D01*
Y19533D01*
X38125Y19428D01*
X38106D01*
Y19561D01*
X38122D01*
Y19456D01*
X38194Y19561D01*
X38211D01*
Y19428D01*
D02*
G37*
G36*
X37697D02*
X37681D01*
X37628Y19561D01*
X37647D01*
X37681Y19464D01*
X37686Y19450D01*
X37689Y19444D01*
Y19442D01*
X37692Y19453D01*
X37695Y19461D01*
X37697Y19464D01*
X37731Y19561D01*
X37750D01*
X37697Y19428D01*
D02*
G37*
G36*
X37139D02*
X37123D01*
X37070Y19561D01*
X37089D01*
X37125Y19464D01*
X37131Y19450D01*
Y19444D01*
Y19442D01*
X37136Y19456D01*
X37139Y19461D01*
Y19464D01*
X37173Y19561D01*
X37192D01*
X37139Y19428D01*
D02*
G37*
G36*
X36970Y19561D02*
X36975Y19558D01*
X36978Y19556D01*
X36986Y19547D01*
X36995Y19539D01*
X36998Y19533D01*
X37000Y19531D01*
X37006Y19519D01*
X37009Y19508D01*
Y19497D01*
Y19494D01*
X37006Y19481D01*
X37003Y19469D01*
X37000Y19464D01*
Y19461D01*
X36995Y19450D01*
X36989Y19442D01*
X36984Y19436D01*
X36981Y19433D01*
X36970Y19428D01*
X36959Y19425D01*
X36945D01*
X36931Y19428D01*
X36920Y19431D01*
X36914Y19433D01*
X36911Y19436D01*
X36903Y19447D01*
X36898Y19458D01*
X36892Y19467D01*
Y19469D01*
X36909Y19475D01*
X36911Y19464D01*
X36917Y19456D01*
X36920Y19453D01*
X36923Y19450D01*
X36931Y19444D01*
X36939Y19442D01*
X36948D01*
X36961Y19444D01*
X36967Y19447D01*
X36970D01*
X36975Y19453D01*
X36981Y19458D01*
X36984Y19464D01*
Y19467D01*
X36989Y19486D01*
Y19492D01*
Y19494D01*
X36986Y19514D01*
Y19519D01*
Y19522D01*
X36984Y19531D01*
X36978Y19536D01*
X36973Y19542D01*
X36970D01*
X36961Y19547D01*
X36953Y19550D01*
X36936D01*
X36928Y19547D01*
X36925Y19544D01*
X36923Y19542D01*
X36917Y19536D01*
X36911Y19528D01*
X36909Y19522D01*
Y19519D01*
X36892Y19525D01*
X36898Y19539D01*
X36903Y19547D01*
X36909Y19550D01*
X36911Y19553D01*
X36923Y19558D01*
X36934Y19564D01*
X36959D01*
X36970Y19561D01*
D02*
G37*
G36*
X38333Y19428D02*
X38236D01*
Y19444D01*
X38317D01*
Y19489D01*
X38244D01*
Y19506D01*
X38317D01*
Y19544D01*
X38239D01*
Y19561D01*
X38333D01*
Y19428D01*
D02*
G37*
G36*
X37950D02*
X37933D01*
Y19561D01*
X37950D01*
Y19428D01*
D02*
G37*
G36*
X37911Y19544D02*
X37867D01*
Y19428D01*
X37850D01*
Y19544D01*
X37806D01*
Y19561D01*
X37911D01*
Y19544D01*
D02*
G37*
G36*
X37786Y19428D02*
X37767D01*
Y19561D01*
X37786D01*
Y19428D01*
D02*
G37*
G36*
X37611D02*
X37514D01*
Y19444D01*
X37595D01*
Y19489D01*
X37522D01*
Y19506D01*
X37595D01*
Y19544D01*
X37517D01*
Y19561D01*
X37611D01*
Y19428D01*
D02*
G37*
G36*
X37436D02*
X37389D01*
X37372Y19431D01*
X37367D01*
X37356Y19433D01*
X37350Y19436D01*
X37345Y19444D01*
X37339Y19450D01*
X37334Y19464D01*
X37331Y19467D01*
Y19469D01*
X37328Y19478D01*
Y19486D01*
Y19492D01*
Y19494D01*
Y19508D01*
Y19519D01*
X37331Y19525D01*
Y19528D01*
X37342Y19544D01*
X37345Y19547D01*
X37347Y19550D01*
X37361Y19556D01*
X37364Y19558D01*
X37367D01*
X37384Y19561D01*
X37436D01*
Y19428D01*
D02*
G37*
G36*
X37303D02*
X37203D01*
Y19444D01*
X37284D01*
Y19489D01*
X37211D01*
Y19506D01*
X37284D01*
Y19544D01*
X37206D01*
Y19561D01*
X37303D01*
Y19428D01*
D02*
G37*
G36*
X37050D02*
X37034D01*
Y19561D01*
X37050D01*
Y19428D01*
D02*
G37*
G36*
X36867D02*
X36770D01*
Y19444D01*
X36850D01*
Y19489D01*
X36778D01*
Y19506D01*
X36850D01*
Y19544D01*
X36773D01*
Y19561D01*
X36867D01*
Y19428D01*
D02*
G37*
G36*
X38428Y19561D02*
X38433Y19558D01*
X38436D01*
X38444Y19556D01*
X38450Y19550D01*
X38453Y19547D01*
X38456Y19544D01*
X38461Y19533D01*
Y19531D01*
Y19528D01*
X38458Y19517D01*
X38456Y19511D01*
X38447Y19500D01*
X38442Y19497D01*
X38433Y19494D01*
X38425Y19492D01*
X38419Y19489D01*
X38417D01*
X38400Y19486D01*
X38394Y19483D01*
X38392D01*
X38383Y19478D01*
X38381Y19475D01*
X38375Y19467D01*
Y19464D01*
X38378Y19456D01*
X38381Y19453D01*
X38386Y19447D01*
X38389Y19444D01*
X38392D01*
X38403Y19442D01*
X38408D01*
X38422Y19444D01*
X38431D01*
X38439Y19453D01*
X38442Y19456D01*
X38447Y19467D01*
Y19469D01*
Y19472D01*
X38464D01*
X38461Y19456D01*
X38458Y19450D01*
Y19447D01*
X38444Y19436D01*
X38442Y19431D01*
X38439D01*
X38419Y19425D01*
X38408D01*
X38392Y19428D01*
X38386Y19431D01*
X38383D01*
X38369Y19439D01*
X38364Y19444D01*
X38358Y19461D01*
Y19464D01*
Y19467D01*
X38361Y19481D01*
X38364Y19483D01*
X38369Y19492D01*
X38378Y19494D01*
X38381Y19497D01*
X38383D01*
X38400Y19503D01*
X38408Y19506D01*
X38411D01*
X38425Y19511D01*
X38433Y19514D01*
X38439Y19517D01*
X38444Y19525D01*
Y19528D01*
X38442Y19533D01*
X38439Y19539D01*
X38436Y19542D01*
X38431Y19544D01*
X38422Y19547D01*
X38403D01*
X38394Y19544D01*
X38392Y19542D01*
X38389D01*
X38383Y19536D01*
X38381Y19531D01*
Y19525D01*
Y19522D01*
X38364D01*
X38367Y19539D01*
X38369Y19542D01*
Y19544D01*
X38381Y19556D01*
X38383Y19558D01*
X38386D01*
X38406Y19564D01*
X38414D01*
X38428Y19561D01*
D02*
G37*
G36*
X38047D02*
X38053Y19558D01*
X38056D01*
X38064Y19556D01*
X38067Y19550D01*
X38072Y19547D01*
Y19544D01*
X38078Y19533D01*
Y19531D01*
Y19528D01*
X38075Y19517D01*
X38072Y19511D01*
X38070Y19506D01*
X38064Y19500D01*
X38061Y19497D01*
X38058D01*
X38053Y19494D01*
X38045Y19492D01*
X38036Y19489D01*
X38033D01*
X38017Y19486D01*
X38014Y19483D01*
X38011D01*
X38000Y19478D01*
X37997Y19475D01*
X37995Y19469D01*
Y19467D01*
Y19464D01*
Y19456D01*
X37997Y19453D01*
X38006Y19447D01*
X38008Y19444D01*
X38022Y19442D01*
X38028D01*
X38042Y19444D01*
X38047D01*
X38053Y19450D01*
X38058Y19453D01*
X38061Y19456D01*
X38067Y19467D01*
Y19472D01*
X38083D01*
X38081Y19464D01*
X38078Y19456D01*
X38075Y19450D01*
Y19447D01*
X38070Y19439D01*
X38064Y19436D01*
X38058Y19431D01*
X38056D01*
X38047Y19428D01*
X38036Y19425D01*
X38025D01*
X38008Y19428D01*
X38003Y19431D01*
X38000D01*
X37986Y19439D01*
X37983Y19444D01*
X37978Y19461D01*
Y19464D01*
Y19467D01*
X37981Y19481D01*
X37983Y19483D01*
X37989Y19492D01*
X37995Y19494D01*
X37997Y19497D01*
X38000D01*
X38020Y19503D01*
X38025Y19506D01*
X38028D01*
X38042Y19511D01*
X38050Y19514D01*
X38056Y19517D01*
X38061Y19522D01*
Y19528D01*
X38058Y19533D01*
X38056Y19539D01*
X38053Y19542D01*
X38047Y19544D01*
X38039Y19547D01*
X38031D01*
X38014Y19544D01*
X38011Y19542D01*
X38008D01*
X38003Y19536D01*
X38000Y19531D01*
X37997Y19525D01*
Y19522D01*
X37981D01*
X37983Y19539D01*
X37986Y19542D01*
Y19544D01*
X38000Y19556D01*
X38003Y19558D01*
X38006D01*
X38022Y19564D01*
X38031D01*
X38047Y19561D01*
D02*
G37*
%LPC*%
G36*
X35595Y22024D02*
X35426D01*
Y21997D01*
X35595D01*
Y22024D01*
D02*
G37*
G36*
X35645Y21985D02*
Y21949D01*
X35379D01*
Y21980D01*
X35323Y21972D01*
X35273Y21960D01*
X35231Y21949D01*
X35198Y21933D01*
X35173Y21919D01*
X35154Y21899D01*
Y21888D01*
X35773Y21888D01*
Y21969D01*
X35734Y21977D01*
X35692Y21983D01*
X35645Y21985D01*
D02*
G37*
G36*
X35840Y21997D02*
X35820D01*
Y21933D01*
X35840D01*
Y21997D01*
D02*
G37*
G36*
X35887Y21935D02*
Y21888D01*
X35945D01*
Y21897D01*
X35931Y21910D01*
X35915Y21922D01*
X35887Y21935D01*
D02*
G37*
G36*
X35081Y21927D02*
X35079D01*
X35065Y21924D01*
X35056Y21916D01*
X35054Y21905D01*
Y21902D01*
X35056Y21888D01*
X35065Y21883D01*
X35076Y21880D01*
X35079D01*
X35093Y21883D01*
X35098Y21891D01*
X35101Y21899D01*
Y21902D01*
X35098Y21916D01*
X35090Y21924D01*
X35081Y21927D01*
D02*
G37*
G36*
X35137Y21713D02*
X35045D01*
Y21622D01*
X35137D01*
Y21713D01*
D02*
G37*
G36*
X35604Y21505D02*
X35354D01*
Y21488D01*
X35604D01*
Y21505D01*
D02*
G37*
G36*
X35937Y21802D02*
X35159Y21802D01*
X35165Y21760D01*
X35184D01*
Y21672D01*
X35301Y21552D01*
X35651D01*
Y21441D01*
X35409D01*
X35570Y21274D01*
X35923Y21641D01*
X35937Y21802D01*
D02*
G37*
G36*
X35915Y21563D02*
X35604Y21241D01*
X35859Y20977D01*
X35915Y21563D01*
D02*
G37*
G36*
X35184Y21602D02*
Y21574D01*
X35179D01*
X35234Y20927D01*
X35537Y21241D01*
X35342Y21441D01*
X35301D01*
Y21483D01*
X35184Y21602D01*
D02*
G37*
G36*
X35570Y21205D02*
X35240Y20863D01*
X35245Y20802D01*
X35268Y20805D01*
X35293Y20802D01*
X35323Y20794D01*
X35354Y20780D01*
X35376Y20764D01*
X35395Y20744D01*
X35415Y20716D01*
X35429Y20683D01*
X35437Y20647D01*
X35434Y20622D01*
X35826D01*
X35853Y20913D01*
X35570Y21205D01*
D02*
G37*
G36*
X35281Y20719D02*
X35268Y20719D01*
X35240Y20716D01*
X35220Y20705D01*
X35204Y20694D01*
X35195Y20677D01*
X35190Y20664D01*
X35184Y20650D01*
Y20639D01*
Y20636D01*
X35187Y20608D01*
X35198Y20589D01*
X35209Y20572D01*
X35226Y20564D01*
X35240Y20558D01*
X35254Y20555D01*
X35265Y20552D01*
X35268D01*
X35295Y20555D01*
X35315Y20566D01*
X35331Y20580D01*
X35340Y20594D01*
X35345Y20611D01*
X35348Y20622D01*
X35351Y20633D01*
Y20636D01*
X35348Y20664D01*
X35337Y20683D01*
X35323Y20700D01*
X35309Y20708D01*
X35293Y20714D01*
X35281Y20719D01*
D02*
G37*
G36*
X35809Y20572D02*
X35798D01*
Y20505D01*
X35809D01*
Y20572D01*
D02*
G37*
%LPD*%
G36*
X35287Y20689D02*
X35301Y20683D01*
X35309Y20675D01*
X35315Y20664D01*
X35323Y20644D01*
Y20639D01*
Y20636D01*
X35320Y20616D01*
X35315Y20602D01*
X35306Y20594D01*
X35295Y20589D01*
X35276Y20580D01*
X35268D01*
X35248Y20583D01*
X35234Y20589D01*
X35226Y20597D01*
X35218Y20608D01*
X35212Y20627D01*
Y20633D01*
Y20636D01*
X35215Y20655D01*
X35220Y20669D01*
X35229Y20677D01*
X35240Y20686D01*
X35259Y20691D01*
X35268D01*
X35287Y20689D01*
D02*
G37*
%LPC*%
G36*
X35270Y20644D02*
X35262D01*
X35259Y20641D01*
Y20639D01*
Y20636D01*
Y20630D01*
X35262Y20627D01*
X35268D01*
X35273Y20630D01*
X35276Y20633D01*
Y20636D01*
X35273Y20641D01*
X35270Y20644D01*
D02*
G37*
G36*
X42799Y21822D02*
X42793D01*
Y21819D01*
X42777D01*
X42763Y21813D01*
X42738Y21805D01*
X42721Y21794D01*
X42718Y21791D01*
X42715Y21788D01*
X42710Y21783D01*
X42704Y21780D01*
Y21777D01*
X42699Y21766D01*
X42696Y21763D01*
X42693D01*
X41899Y20386D01*
Y20383D01*
X41891Y20366D01*
X41885Y20353D01*
X41882Y20341D01*
Y20336D01*
Y20328D01*
Y20325D01*
X41885Y20303D01*
X41888Y20283D01*
X41893Y20272D01*
X41896Y20266D01*
X41918Y20241D01*
X41938Y20225D01*
X41955Y20216D01*
X41960Y20214D01*
X41971D01*
X41977Y20211D01*
X41996D01*
Y20208D01*
X43590D01*
X43607Y20211D01*
X43624Y20214D01*
X43649Y20225D01*
X43665Y20233D01*
X43668Y20239D01*
X43671D01*
X43679Y20250D01*
X43682Y20253D01*
X43687Y20261D01*
X43690Y20266D01*
X43693D01*
X43704Y20294D01*
X43707Y20319D01*
Y20330D01*
X43704Y20339D01*
Y20344D01*
Y20347D01*
X43701Y20361D01*
X43698Y20364D01*
X43696Y20375D01*
X43693Y20378D01*
Y20380D01*
Y20383D01*
X42896Y21760D01*
X42885Y21777D01*
X42874Y21788D01*
X42865Y21797D01*
X42863Y21799D01*
X42860D01*
X42857Y21802D01*
X42854Y21805D01*
X42832Y21816D01*
X42813Y21819D01*
X42799Y21822D01*
D02*
G37*
%LPD*%
G36*
X42907Y21488D02*
Y21463D01*
Y21444D01*
Y21424D01*
Y21411D01*
Y21402D01*
Y21399D01*
X42904Y21349D01*
Y21324D01*
Y21305D01*
Y21286D01*
Y21272D01*
Y21263D01*
Y21261D01*
X42901Y21238D01*
Y21225D01*
Y21216D01*
Y21213D01*
X42899Y21200D01*
Y21183D01*
X42896Y21169D01*
Y21166D01*
Y21163D01*
Y21161D01*
X42893Y21155D01*
Y21144D01*
X42890Y21133D01*
X42888Y21102D01*
X42885Y21069D01*
X42879Y21036D01*
X42877Y21005D01*
Y20994D01*
X42874Y20986D01*
Y20980D01*
Y20977D01*
X42871Y20947D01*
X42865Y20916D01*
X42863Y20894D01*
X42860Y20872D01*
X42857Y20852D01*
Y20838D01*
X42852Y20814D01*
Y20800D01*
X42849Y20791D01*
Y20786D01*
X42746D01*
X42743Y20791D01*
X42740Y20797D01*
X42735Y20819D01*
X42732Y20838D01*
Y20844D01*
Y20847D01*
X42729Y20866D01*
Y20880D01*
X42727Y20891D01*
Y20902D01*
Y20911D01*
Y20913D01*
X42721Y20955D01*
X42715Y20994D01*
X42713Y21030D01*
X42707Y21061D01*
X42704Y21086D01*
X42702Y21111D01*
X42699Y21130D01*
X42696Y21150D01*
Y21163D01*
X42693Y21175D01*
X42690Y21194D01*
Y21202D01*
Y21205D01*
X42688Y21225D01*
Y21238D01*
X42685Y21249D01*
Y21258D01*
X42682Y21263D01*
Y21266D01*
Y21316D01*
Y21338D01*
Y21358D01*
Y21374D01*
Y21388D01*
Y21397D01*
Y21399D01*
Y21449D01*
Y21474D01*
Y21494D01*
Y21513D01*
Y21527D01*
Y21536D01*
Y21538D01*
X42907D01*
Y21488D01*
D02*
G37*
G36*
Y20658D02*
Y20625D01*
Y20611D01*
Y20600D01*
Y20594D01*
Y20591D01*
Y20555D01*
Y20522D01*
Y20511D01*
Y20500D01*
Y20494D01*
Y20491D01*
X42696D01*
Y20527D01*
Y20561D01*
Y20572D01*
Y20583D01*
Y20589D01*
Y20591D01*
Y20630D01*
Y20664D01*
Y20677D01*
Y20689D01*
Y20694D01*
Y20697D01*
X42907D01*
Y20658D01*
D02*
G37*
%LPC*%
G36*
X40216Y21822D02*
X40211D01*
Y21819D01*
X40194D01*
X40180Y21813D01*
X40155Y21805D01*
X40138Y21794D01*
X40136Y21791D01*
X40133Y21788D01*
X40124Y21780D01*
X40122Y21777D01*
X40116Y21769D01*
X40113Y21766D01*
Y21763D01*
X39316Y20386D01*
Y20383D01*
X39308Y20366D01*
X39302Y20353D01*
X39300Y20341D01*
Y20336D01*
Y20328D01*
Y20325D01*
X39302Y20303D01*
X39305Y20283D01*
X39311Y20272D01*
X39314Y20266D01*
X39336Y20241D01*
X39355Y20225D01*
X39372Y20216D01*
X39377Y20214D01*
X39380D01*
X39377Y20216D01*
X39383Y20214D01*
X39391Y20211D01*
X39414D01*
Y20208D01*
X41008Y20208D01*
X41024Y20211D01*
X41041Y20214D01*
X41066Y20225D01*
X41083Y20233D01*
X41085Y20239D01*
X41088D01*
X41096Y20250D01*
X41099Y20253D01*
X41108Y20261D01*
X41110Y20266D01*
X41116Y20280D01*
X41121Y20294D01*
X41124Y20322D01*
Y20333D01*
X41121Y20339D01*
Y20344D01*
Y20347D01*
X41119Y20358D01*
X41116Y20361D01*
Y20364D01*
X41113Y20375D01*
X41110Y20378D01*
Y20380D01*
Y20383D01*
X40313Y21760D01*
X40302Y21777D01*
X40291Y21788D01*
X40283Y21797D01*
X40280Y21799D01*
X40274D01*
X40272Y21802D01*
Y21805D01*
X40249Y21816D01*
X40230Y21819D01*
X40216Y21822D01*
D02*
G37*
%LPD*%
G36*
X40288Y21658D02*
X40547Y20766D01*
X40144Y20963D01*
X40269Y20489D01*
X40355Y20555D01*
X40313Y20289D01*
X40122Y20511D01*
X40238Y20483D01*
X39919Y21144D01*
X40441Y20875D01*
X40100Y21663D01*
X40288Y21658D01*
D02*
G37*
%LPC*%
G36*
X37634Y21822D02*
X37628D01*
Y21819D01*
X37611D01*
X37597Y21813D01*
X37572Y21805D01*
X37556Y21794D01*
X37553Y21791D01*
X37550Y21788D01*
X37545Y21783D01*
X37539Y21780D01*
Y21777D01*
X37534Y21766D01*
X37531Y21763D01*
X37528D01*
X37256Y21291D01*
X37350Y21252D01*
X37381Y21244D01*
X37406Y21238D01*
X37417Y21236D01*
X37467D01*
X37492Y21238D01*
X37542D01*
X37556Y21241D01*
X37589D01*
X37617Y21238D01*
X37642Y21236D01*
X37661Y21233D01*
X37678Y21230D01*
X37692Y21225D01*
X37700Y21222D01*
X37703D01*
X37725Y21213D01*
X37747Y21202D01*
X37789Y21177D01*
X37808Y21166D01*
X37822Y21158D01*
X37831Y21152D01*
X37833Y21150D01*
X37842Y21144D01*
X37856Y21136D01*
X37867Y21127D01*
X37870Y21125D01*
X37872D01*
X37881Y21119D01*
X37883Y21116D01*
X37886D01*
X37895Y21111D01*
X37897Y21108D01*
X37917Y21097D01*
X37931Y21086D01*
X37942Y21080D01*
X37945Y21077D01*
X37961Y21063D01*
X37975Y21052D01*
X37981Y21044D01*
X37983Y21041D01*
X38106Y21111D01*
X37731Y21760D01*
X37720Y21777D01*
X37708Y21788D01*
X37700Y21797D01*
X37697Y21799D01*
X37695D01*
X37692Y21802D01*
X37689Y21805D01*
X37667Y21816D01*
X37647Y21819D01*
X37634Y21822D01*
D02*
G37*
G36*
X37242Y21263D02*
X37081Y20986D01*
X37095Y20975D01*
X37100Y20972D01*
X37103Y20969D01*
X37117Y20952D01*
X37128Y20938D01*
X37136Y20927D01*
X37139Y20922D01*
X37148Y20902D01*
X37153Y20886D01*
X37159Y20869D01*
X37161Y20866D01*
Y20863D01*
X37173Y20838D01*
X37181Y20822D01*
X37184Y20814D01*
X37186Y20811D01*
X37198Y20797D01*
X37200Y20794D01*
X37203Y20791D01*
X37217Y20775D01*
X37220Y20772D01*
X37223Y20769D01*
X37250Y20744D01*
X37275Y20722D01*
X37297Y20705D01*
X37317Y20694D01*
X37334Y20686D01*
X37345Y20680D01*
X37353Y20677D01*
X37356D01*
X37956Y21025D01*
X37945Y21036D01*
X37936Y21044D01*
X37928Y21050D01*
X37925Y21052D01*
X37908Y21063D01*
X37895Y21075D01*
X37883Y21080D01*
X37881Y21083D01*
X37870Y21091D01*
X37861Y21094D01*
X37856Y21097D01*
X37836Y21111D01*
X37825Y21119D01*
X37817Y21122D01*
X37814Y21125D01*
X37789Y21141D01*
X37767Y21158D01*
X37745Y21169D01*
X37728Y21177D01*
X37711Y21186D01*
X37700Y21191D01*
X37695Y21194D01*
X37692D01*
X37650Y21202D01*
X37609Y21208D01*
X37522D01*
X37486Y21205D01*
X37459Y21202D01*
X37428D01*
X37395Y21208D01*
X37367Y21213D01*
X37356Y21219D01*
X37347Y21222D01*
X37342Y21225D01*
X37339D01*
X37242Y21263D01*
D02*
G37*
G36*
X37672Y20752D02*
X37597Y20711D01*
X37614Y20697D01*
X37631Y20683D01*
X37645Y20675D01*
X37647Y20669D01*
X37650D01*
X37656Y20677D01*
X37661Y20689D01*
X37664Y20697D01*
X37667Y20700D01*
X37670Y20705D01*
Y20708D01*
X37675Y20725D01*
Y20730D01*
Y20733D01*
Y20739D01*
X37672Y20744D01*
Y20750D01*
Y20752D01*
D02*
G37*
G36*
X37753Y20800D02*
X37700Y20769D01*
X37703Y20755D01*
X37706Y20741D01*
Y20733D01*
Y20730D01*
X37703Y20716D01*
X37700Y20705D01*
X37697Y20697D01*
Y20694D01*
X37695Y20689D01*
X37686Y20672D01*
X37678Y20658D01*
X37675Y20652D01*
X37672Y20650D01*
X37692Y20633D01*
X37708Y20616D01*
X37720Y20605D01*
X37725Y20600D01*
X37728Y20597D01*
X37731Y20594D01*
X37733Y20591D01*
Y20589D01*
X37745Y20605D01*
X37750Y20619D01*
X37756Y20627D01*
Y20630D01*
X37758Y20636D01*
X37761Y20641D01*
X37764Y20650D01*
Y20652D01*
X37767Y20666D01*
X37770Y20680D01*
Y20691D01*
Y20697D01*
Y20700D01*
Y20705D01*
Y20722D01*
Y20739D01*
Y20744D01*
Y20747D01*
Y20758D01*
X37767Y20769D01*
Y20775D01*
Y20777D01*
X37758Y20794D01*
X37753Y20797D01*
Y20800D01*
D02*
G37*
G36*
X37828Y20841D02*
X37781Y20816D01*
X37792Y20797D01*
X37797Y20789D01*
Y20786D01*
X37800Y20772D01*
Y20761D01*
Y20750D01*
Y20747D01*
Y20727D01*
Y20722D01*
Y20719D01*
Y20705D01*
Y20700D01*
Y20697D01*
Y20675D01*
X37797Y20658D01*
X37795Y20650D01*
Y20647D01*
Y20644D01*
X37792Y20636D01*
Y20633D01*
Y20630D01*
X37789D01*
X37786Y20625D01*
X37783Y20619D01*
Y20616D01*
X37775Y20597D01*
X37764Y20580D01*
X37758Y20569D01*
X37756Y20564D01*
X37770Y20541D01*
X37778Y20525D01*
X37783Y20514D01*
X37786Y20508D01*
X37797Y20514D01*
X37800Y20519D01*
X37803D01*
X37814Y20525D01*
X37820Y20530D01*
X37822Y20533D01*
X37828Y20539D01*
X37831Y20541D01*
X37833D01*
X37839Y20547D01*
X37845Y20550D01*
X37847Y20552D01*
X37850D01*
X37853Y20555D01*
Y20561D01*
Y20583D01*
X37850Y20602D01*
X37847Y20614D01*
Y20619D01*
Y20627D01*
Y20636D01*
X37853Y20661D01*
X37856Y20672D01*
X37858Y20680D01*
X37861Y20686D01*
Y20689D01*
X37867Y20705D01*
X37870Y20719D01*
X37872Y20736D01*
Y20747D01*
Y20750D01*
X37870Y20761D01*
X37861Y20775D01*
X37856Y20786D01*
X37853Y20789D01*
X37839Y20811D01*
X37831Y20827D01*
X37828Y20838D01*
Y20841D01*
D02*
G37*
G36*
X37484Y20566D02*
X37481D01*
X37475Y20561D01*
X37461Y20550D01*
X37453Y20539D01*
X37447Y20536D01*
Y20533D01*
Y20530D01*
X37445D01*
Y20527D01*
X37439Y20522D01*
Y20516D01*
Y20514D01*
Y20511D01*
Y20505D01*
X37442Y20497D01*
X37445Y20489D01*
Y20486D01*
Y20483D01*
X37453Y20477D01*
X37464Y20475D01*
X37478D01*
X37500Y20477D01*
X37517Y20480D01*
X37528Y20483D01*
X37534D01*
X37547Y20491D01*
X37550Y20494D01*
X37553D01*
Y20497D01*
X37550Y20500D01*
Y20502D01*
X37539Y20519D01*
X37528Y20533D01*
X37520Y20541D01*
X37517Y20544D01*
X37509Y20550D01*
X37497Y20558D01*
X37486Y20564D01*
X37484Y20566D01*
D02*
G37*
G36*
X38014Y20952D02*
X37856Y20861D01*
X37858Y20844D01*
X37867Y20825D01*
X37875Y20811D01*
X37878Y20808D01*
Y20805D01*
X37892Y20786D01*
X37900Y20769D01*
X37906Y20758D01*
Y20755D01*
Y20747D01*
X37903Y20733D01*
X37897Y20708D01*
X37895Y20697D01*
X37892Y20686D01*
X37889Y20680D01*
Y20677D01*
X37883Y20664D01*
X37881Y20652D01*
X37878Y20636D01*
Y20630D01*
Y20627D01*
X37883Y20602D01*
Y20583D01*
Y20566D01*
Y20564D01*
Y20561D01*
Y20552D01*
Y20550D01*
X37881Y20544D01*
Y20541D01*
X37878Y20533D01*
Y20527D01*
X37875Y20525D01*
X37872Y20514D01*
Y20508D01*
X37870Y20505D01*
X37861Y20477D01*
X37856Y20455D01*
X37850Y20436D01*
Y20422D01*
X37847Y20414D01*
Y20408D01*
Y20403D01*
X37853Y20383D01*
X37861Y20369D01*
X37870Y20358D01*
X37872Y20355D01*
X37878Y20353D01*
X37881Y20350D01*
Y20353D01*
Y20358D01*
Y20361D01*
Y20364D01*
Y20375D01*
Y20380D01*
X37889Y20400D01*
X37892Y20405D01*
X37895Y20408D01*
X37900Y20414D01*
X37903Y20419D01*
X37914Y20433D01*
X37922Y20444D01*
X37933Y20450D01*
X37945Y20455D01*
X37961Y20461D01*
X37978D01*
X37981Y20458D01*
X37986D01*
X37992Y20469D01*
X37995Y20480D01*
X37997Y20491D01*
X38000Y20494D01*
X38008Y20514D01*
X38017Y20530D01*
X38020Y20541D01*
X38022Y20547D01*
X38028Y20569D01*
X38031Y20589D01*
X38033Y20608D01*
Y20611D01*
Y20614D01*
X38039Y20650D01*
X38045Y20675D01*
X38047Y20689D01*
Y20694D01*
Y20697D01*
X38050Y20705D01*
X38053Y20714D01*
X38056Y20722D01*
Y20725D01*
X38061Y20747D01*
X38067Y20766D01*
Y20780D01*
X38070Y20794D01*
Y20802D01*
X38067Y20808D01*
Y20814D01*
X38061Y20827D01*
X38056Y20847D01*
X38047Y20863D01*
X38045Y20866D01*
Y20869D01*
X38028Y20902D01*
X38020Y20930D01*
X38014Y20947D01*
Y20950D01*
Y20952D01*
D02*
G37*
G36*
X37567Y20694D02*
X37453Y20627D01*
X37467Y20616D01*
X37481Y20605D01*
X37495Y20594D01*
X37497Y20591D01*
X37500D01*
X37517Y20580D01*
X37528Y20572D01*
X37534Y20566D01*
X37536D01*
X37553Y20550D01*
X37567Y20533D01*
X37575Y20522D01*
X37578Y20519D01*
Y20516D01*
X37584Y20505D01*
X37586Y20494D01*
X37589Y20491D01*
Y20489D01*
X37592Y20480D01*
X37595Y20477D01*
Y20475D01*
X37611Y20480D01*
X37620D01*
X37631Y20483D01*
X37634Y20486D01*
X37672D01*
X37689Y20483D01*
X37695D01*
X37700Y20480D01*
X37703D01*
X37706Y20477D01*
X37714D01*
X37717Y20475D01*
X37720D01*
X37736Y20466D01*
X37750Y20458D01*
X37758Y20452D01*
X37761Y20450D01*
X37764Y20447D01*
X37767Y20441D01*
X37769Y20439D01*
X37767Y20461D01*
X37758Y20486D01*
X37747Y20511D01*
X37733Y20533D01*
X37722Y20552D01*
X37711Y20566D01*
X37703Y20577D01*
X37700Y20580D01*
X37678Y20605D01*
X37656Y20625D01*
X37639Y20639D01*
X37636Y20644D01*
X37634D01*
X37606Y20664D01*
X37586Y20680D01*
X37572Y20691D01*
X37567Y20694D01*
D02*
G37*
G36*
X37769Y20439D02*
X37770Y20436D01*
Y20439D01*
X37769Y20439D01*
D02*
G37*
G36*
X37564Y20464D02*
X37559Y20461D01*
X37550Y20458D01*
X37545Y20455D01*
X37542D01*
X37539Y20452D01*
X37534D01*
X37531Y20450D01*
X37528D01*
X37520Y20436D01*
Y20425D01*
Y20416D01*
Y20414D01*
Y20408D01*
X37522Y20405D01*
Y20400D01*
X37525Y20397D01*
X37528D01*
X37536Y20391D01*
X37545Y20389D01*
X37556D01*
X37570Y20391D01*
X37581Y20394D01*
X37586Y20397D01*
X37589Y20400D01*
X37578Y20419D01*
X37572Y20436D01*
X37567Y20447D01*
Y20450D01*
X37564Y20461D01*
Y20464D01*
D02*
G37*
G36*
X37645Y20472D02*
X37636D01*
X37620Y20466D01*
X37606Y20464D01*
X37600Y20461D01*
X37597Y20458D01*
X37603Y20441D01*
X37611Y20425D01*
X37622Y20411D01*
X37625Y20408D01*
Y20405D01*
X37642Y20383D01*
X37653Y20372D01*
X37661Y20364D01*
X37664Y20361D01*
X37672Y20355D01*
X37678Y20353D01*
X37684Y20350D01*
X37695Y20344D01*
X37728D01*
X37739Y20347D01*
X37745Y20350D01*
X37750Y20353D01*
X37758Y20364D01*
X37764Y20378D01*
X37770Y20389D01*
Y20394D01*
X37767Y20408D01*
X37764Y20411D01*
X37758Y20425D01*
X37753Y20433D01*
X37750Y20439D01*
X37739Y20447D01*
X37728Y20455D01*
X37720Y20458D01*
X37717Y20461D01*
X37711D01*
X37708Y20464D01*
X37697D01*
X37686Y20466D01*
X37672Y20469D01*
X37661D01*
X37645Y20472D01*
D02*
G37*
G36*
X37970Y20447D02*
X37956D01*
X37947Y20441D01*
X37931Y20430D01*
X37920Y20419D01*
X37917Y20416D01*
Y20414D01*
X37914Y20408D01*
X37911Y20405D01*
X37908Y20403D01*
Y20400D01*
X37900Y20383D01*
X37897Y20378D01*
Y20375D01*
X37895Y20372D01*
Y20369D01*
Y20366D01*
Y20364D01*
Y20355D01*
X37897Y20353D01*
Y20350D01*
Y20344D01*
Y20341D01*
X37900Y20339D01*
X37911D01*
X37925Y20344D01*
X37936Y20350D01*
X37942Y20355D01*
X37945Y20358D01*
X37950Y20366D01*
X37956Y20378D01*
X37967Y20403D01*
X37970Y20414D01*
X37975Y20425D01*
X37978Y20430D01*
Y20433D01*
X37981Y20444D01*
X37978D01*
X37970Y20447D01*
D02*
G37*
G36*
X38153Y21030D02*
X38045Y20969D01*
X38050Y20941D01*
X38058Y20911D01*
X38064Y20900D01*
X38070Y20888D01*
X38072Y20883D01*
Y20880D01*
X38083Y20855D01*
X38092Y20836D01*
X38097Y20825D01*
Y20822D01*
X38100Y20808D01*
Y20791D01*
X38094Y20758D01*
X38092Y20741D01*
X38089Y20727D01*
X38086Y20719D01*
Y20716D01*
X38083Y20705D01*
X38081Y20694D01*
X38078Y20691D01*
Y20689D01*
Y20686D01*
X38072Y20664D01*
X38070Y20639D01*
X38067Y20627D01*
X38064Y20619D01*
Y20614D01*
Y20611D01*
X38061Y20591D01*
X38058Y20575D01*
Y20564D01*
X38056Y20552D01*
X38050Y20539D01*
Y20536D01*
X38045Y20519D01*
X38039Y20502D01*
X38033Y20486D01*
X38031Y20483D01*
Y20480D01*
X38025Y20466D01*
X38020Y20458D01*
X38014Y20444D01*
X38011Y20439D01*
Y20436D01*
Y20433D01*
X38008Y20430D01*
Y20427D01*
Y20425D01*
X38000Y20403D01*
X37992Y20383D01*
X37986Y20369D01*
X37978Y20358D01*
X37975Y20350D01*
X37970Y20344D01*
X37967Y20339D01*
X37950Y20322D01*
X37931Y20314D01*
X37920Y20308D01*
X37903D01*
X37892Y20311D01*
X37883Y20314D01*
X37881D01*
X37861Y20325D01*
X37856Y20328D01*
X37853Y20330D01*
X37842Y20341D01*
X37833Y20353D01*
X37822Y20375D01*
X37817Y20394D01*
Y20397D01*
Y20400D01*
Y20411D01*
X37820Y20427D01*
X37825Y20461D01*
X37828Y20477D01*
X37833Y20491D01*
X37836Y20500D01*
Y20502D01*
X37825Y20497D01*
X37822Y20494D01*
X37820Y20491D01*
X37806Y20483D01*
X37800Y20477D01*
X37797Y20475D01*
X37800Y20458D01*
X37803Y20444D01*
Y20433D01*
Y20430D01*
Y20427D01*
Y20425D01*
Y20422D01*
X37800Y20400D01*
X37797Y20383D01*
X37792Y20366D01*
X37786Y20353D01*
X37781Y20344D01*
X37775Y20336D01*
X37770Y20333D01*
Y20330D01*
X37758Y20322D01*
X37745Y20316D01*
X37733Y20314D01*
X37697D01*
X37678Y20319D01*
X37672Y20322D01*
X37670D01*
X37659Y20328D01*
X37650Y20330D01*
X37647Y20336D01*
X37645D01*
X37631Y20347D01*
X37620Y20361D01*
X37611Y20372D01*
X37609Y20375D01*
X37592Y20364D01*
X37575Y20358D01*
X37564Y20355D01*
X37559D01*
X37536Y20358D01*
X37520Y20364D01*
X37509Y20372D01*
X37506Y20375D01*
X37503Y20378D01*
X37500Y20380D01*
X37495Y20386D01*
X37492Y20391D01*
X37489Y20400D01*
Y20403D01*
Y20405D01*
X37486Y20419D01*
Y20433D01*
X37489Y20441D01*
Y20444D01*
X37475D01*
X37450Y20447D01*
X37434Y20455D01*
X37422Y20461D01*
X37420Y20464D01*
X37417Y20472D01*
X37414Y20475D01*
X37411Y20489D01*
X37409Y20500D01*
X37406Y20508D01*
Y20511D01*
X37409Y20525D01*
X37411Y20539D01*
X37417Y20547D01*
X37420Y20550D01*
X37422Y20552D01*
X37436Y20566D01*
X37447Y20577D01*
X37453Y20580D01*
X37456Y20583D01*
X37445Y20594D01*
X37434Y20602D01*
X37428Y20608D01*
X37425Y20611D01*
X36767Y20230D01*
X36787Y20219D01*
X36795Y20214D01*
X36806D01*
X36812Y20211D01*
X36831D01*
Y20208D01*
X38425D01*
X38442Y20211D01*
X38458Y20214D01*
X38483Y20225D01*
X38500Y20233D01*
X38503Y20239D01*
X38505D01*
X38514Y20250D01*
X38517Y20253D01*
X38522Y20261D01*
X38525Y20266D01*
X38528D01*
X38539Y20294D01*
X38542Y20319D01*
Y20330D01*
X38539Y20339D01*
Y20344D01*
Y20347D01*
X38536Y20361D01*
X38533Y20364D01*
X38530Y20375D01*
X38528Y20378D01*
Y20380D01*
Y20383D01*
X38153Y21030D01*
D02*
G37*
G36*
X37067Y20961D02*
X37064D01*
X36734Y20386D01*
Y20383D01*
X36725Y20366D01*
X36720Y20353D01*
X36717Y20341D01*
Y20336D01*
Y20328D01*
Y20325D01*
Y20314D01*
Y20308D01*
X37320Y20658D01*
X37300Y20669D01*
X37278Y20683D01*
X37239Y20711D01*
X37225Y20725D01*
X37211Y20736D01*
X37203Y20744D01*
X37200Y20747D01*
X37186Y20764D01*
X37181Y20769D01*
X37178Y20772D01*
X37167Y20786D01*
X37161Y20791D01*
Y20794D01*
X37150Y20811D01*
X37142Y20830D01*
X37136Y20847D01*
X37134Y20850D01*
Y20852D01*
X37125Y20877D01*
X37117Y20894D01*
X37114Y20902D01*
X37111Y20905D01*
X37100Y20925D01*
X37089Y20936D01*
X37084Y20944D01*
X37081Y20947D01*
X37070Y20955D01*
X37067Y20961D01*
D02*
G37*
G36*
X33218Y21822D02*
X33213D01*
Y21819D01*
X33196D01*
X33182Y21813D01*
X33157Y21805D01*
X33140Y21794D01*
X33138Y21791D01*
X33135Y21788D01*
X33129Y21783D01*
X33124Y21780D01*
Y21777D01*
X33118Y21766D01*
X33115Y21763D01*
X33113D01*
X32318Y20386D01*
Y20383D01*
X32310Y20366D01*
X32304Y20353D01*
X32302Y20341D01*
Y20336D01*
Y20328D01*
Y20325D01*
X32304Y20303D01*
X32307Y20283D01*
X32313Y20272D01*
X32316Y20266D01*
X32338Y20241D01*
X32357Y20225D01*
X32374Y20216D01*
X32379Y20214D01*
X32391D01*
X32396Y20211D01*
X32416D01*
Y20208D01*
X34010D01*
X34026Y20211D01*
X34043Y20214D01*
X34068Y20225D01*
X34085Y20233D01*
X34087Y20239D01*
X34090D01*
X34098Y20250D01*
X34101Y20253D01*
X34107Y20261D01*
X34110Y20266D01*
X34112D01*
X34123Y20294D01*
X34126Y20319D01*
Y20330D01*
X34123Y20339D01*
Y20344D01*
Y20347D01*
X34121Y20361D01*
X34118Y20364D01*
X34115Y20375D01*
X34112Y20378D01*
Y20380D01*
Y20383D01*
X33315Y21760D01*
X33304Y21777D01*
X33293Y21788D01*
X33285Y21797D01*
X33282Y21799D01*
X33279D01*
X33276Y21802D01*
X33274Y21805D01*
X33251Y21816D01*
X33232Y21819D01*
X33218Y21822D01*
D02*
G37*
%LPD*%
G36*
X33368Y21374D02*
X33385Y21361D01*
X33393Y21352D01*
X33399Y21347D01*
X33412Y21330D01*
X33424Y21316D01*
X33432Y21305D01*
X33435Y21299D01*
X33449Y21274D01*
X33460Y21247D01*
X33471Y21222D01*
X33476Y21200D01*
X33482Y21180D01*
X33485Y21163D01*
X33487Y21152D01*
Y21150D01*
X33490Y21119D01*
X33487Y21088D01*
X33482Y21061D01*
X33476Y21036D01*
X33471Y21013D01*
X33462Y20997D01*
X33460Y20986D01*
X33457Y20983D01*
X33446Y20961D01*
X33432Y20938D01*
X33421Y20922D01*
X33415Y20919D01*
Y20916D01*
X33401Y20894D01*
X33387Y20875D01*
X33379Y20855D01*
X33374Y20838D01*
X33368Y20825D01*
Y20814D01*
X33365Y20808D01*
Y20805D01*
Y20789D01*
Y20786D01*
Y20783D01*
Y20769D01*
X33368Y20764D01*
Y20761D01*
X33374Y20736D01*
X33379Y20719D01*
X33385Y20702D01*
X33390Y20694D01*
X33399Y20686D01*
X33401Y20683D01*
X33407Y20680D01*
X33387Y20622D01*
X33365Y20633D01*
X33349Y20650D01*
X33335Y20672D01*
X33324Y20694D01*
X33315Y20716D01*
X33310Y20736D01*
X33307Y20747D01*
Y20752D01*
X33304Y20761D01*
Y20772D01*
Y20780D01*
Y20783D01*
Y20791D01*
Y20800D01*
Y20808D01*
Y20811D01*
X33310Y20847D01*
X33318Y20872D01*
X33326Y20888D01*
X33329Y20894D01*
X33343Y20916D01*
X33354Y20936D01*
X33362Y20950D01*
X33365Y20955D01*
X33382Y20980D01*
X33393Y20997D01*
X33399Y21008D01*
X33401Y21011D01*
X33412Y21036D01*
X33418Y21058D01*
X33426Y21105D01*
X33424Y21147D01*
X33415Y21186D01*
X33404Y21216D01*
X33393Y21241D01*
X33385Y21258D01*
X33382Y21263D01*
X33371Y21280D01*
X33362Y21294D01*
X33354Y21302D01*
X33351Y21305D01*
X33340Y21316D01*
X33329Y21327D01*
X33321Y21333D01*
X33318Y21336D01*
X33315D01*
X33338Y21363D01*
X33354Y21386D01*
X33368Y21374D01*
D02*
G37*
G36*
X33215Y21372D02*
X33229Y21361D01*
X33240Y21349D01*
X33243Y21347D01*
X33257Y21330D01*
X33268Y21316D01*
X33276Y21305D01*
X33279Y21299D01*
X33304Y21247D01*
X33315Y21222D01*
X33324Y21200D01*
X33329Y21180D01*
X33332Y21163D01*
X33335Y21152D01*
Y21150D01*
X33338Y21119D01*
X33335Y21088D01*
X33329Y21061D01*
X33321Y21036D01*
X33315Y21013D01*
X33307Y20997D01*
X33304Y20986D01*
X33301Y20983D01*
X33290Y20963D01*
X33276Y20941D01*
X33265Y20925D01*
X33260Y20919D01*
Y20916D01*
X33246Y20894D01*
X33235Y20875D01*
X33226Y20855D01*
X33218Y20838D01*
X33215Y20825D01*
X33213Y20814D01*
Y20808D01*
Y20805D01*
Y20791D01*
Y20786D01*
Y20783D01*
Y20769D01*
Y20764D01*
Y20761D01*
X33218Y20736D01*
X33224Y20719D01*
X33229Y20702D01*
X33235Y20694D01*
X33243Y20686D01*
X33246Y20683D01*
X33251Y20680D01*
X33232Y20622D01*
X33210Y20633D01*
X33193Y20650D01*
X33179Y20672D01*
X33168Y20694D01*
X33160Y20716D01*
X33154Y20736D01*
X33151Y20747D01*
Y20752D01*
Y20761D01*
X33149Y20772D01*
Y20780D01*
Y20783D01*
Y20797D01*
Y20805D01*
Y20808D01*
Y20811D01*
X33154Y20847D01*
X33163Y20872D01*
X33171Y20888D01*
X33174Y20894D01*
X33188Y20916D01*
X33199Y20936D01*
X33207Y20950D01*
X33210Y20955D01*
X33226Y20977D01*
X33238Y20997D01*
X33243Y21008D01*
X33246Y21011D01*
X33257Y21036D01*
X33263Y21058D01*
X33271Y21105D01*
X33268Y21147D01*
X33260Y21186D01*
X33249Y21216D01*
X33238Y21241D01*
X33229Y21258D01*
X33226Y21263D01*
X33215Y21280D01*
X33207Y21294D01*
X33201Y21302D01*
X33199Y21305D01*
X33185Y21316D01*
X33174Y21327D01*
X33165Y21333D01*
X33163Y21336D01*
X33182Y21363D01*
X33199Y21386D01*
X33215Y21372D01*
D02*
G37*
G36*
X33060D02*
X33074Y21358D01*
X33085Y21349D01*
X33088Y21347D01*
X33101Y21330D01*
X33113Y21316D01*
X33121Y21305D01*
X33124Y21299D01*
X33138Y21274D01*
X33151Y21247D01*
X33160Y21222D01*
X33168Y21200D01*
X33174Y21180D01*
X33176Y21163D01*
X33179Y21152D01*
Y21150D01*
X33182Y21119D01*
X33179Y21088D01*
X33174Y21061D01*
X33168Y21036D01*
X33163Y21013D01*
X33154Y20997D01*
X33151Y20986D01*
X33149Y20983D01*
X33138Y20961D01*
X33124Y20938D01*
X33113Y20922D01*
X33107Y20919D01*
Y20916D01*
X33093Y20894D01*
X33079Y20875D01*
X33071Y20855D01*
X33065Y20838D01*
X33060Y20825D01*
Y20814D01*
X33057Y20808D01*
Y20805D01*
Y20800D01*
Y20791D01*
Y20786D01*
Y20783D01*
Y20777D01*
Y20769D01*
Y20764D01*
Y20761D01*
X33063Y20736D01*
X33068Y20719D01*
X33076Y20702D01*
X33082Y20694D01*
X33088Y20686D01*
X33090Y20683D01*
X33096Y20680D01*
X33076Y20622D01*
X33054Y20633D01*
X33038Y20650D01*
X33024Y20672D01*
X33013Y20694D01*
X33007Y20716D01*
X33001Y20736D01*
X32999Y20747D01*
Y20752D01*
X32996Y20761D01*
Y20772D01*
Y20780D01*
Y20783D01*
Y20802D01*
Y20808D01*
Y20811D01*
X33001Y20847D01*
X33007Y20872D01*
X33015Y20888D01*
X33018Y20894D01*
X33032Y20916D01*
X33043Y20936D01*
X33054Y20950D01*
X33057Y20955D01*
X33074Y20980D01*
X33085Y20997D01*
X33090Y21008D01*
X33093Y21011D01*
X33104Y21036D01*
X33110Y21058D01*
X33118Y21105D01*
X33115Y21147D01*
X33107Y21186D01*
X33096Y21216D01*
X33085Y21241D01*
X33076Y21258D01*
X33074Y21263D01*
X33063Y21280D01*
X33051Y21294D01*
X33046Y21302D01*
X33043Y21305D01*
X33029Y21319D01*
X33018Y21327D01*
X33010Y21333D01*
X33007Y21336D01*
X33029Y21363D01*
X33043Y21386D01*
X33060Y21372D01*
D02*
G37*
G36*
X33679Y20472D02*
X32749D01*
Y20550D01*
X33679D01*
Y20472D01*
D02*
G37*
%LPC*%
G36*
X43698Y20019D02*
X43693Y20000D01*
X43687Y19983D01*
X43682Y19969D01*
X43679Y19967D01*
Y19964D01*
X43651Y19892D01*
X43743D01*
X43712Y19969D01*
X43707Y19989D01*
X43701Y20003D01*
X43698Y20014D01*
Y20019D01*
D02*
G37*
G36*
X38533Y20019D02*
X38528Y20000D01*
X38522Y19983D01*
X38517Y19969D01*
X38514Y19967D01*
Y19964D01*
X38486Y19892D01*
X38578D01*
X38547Y19969D01*
X38542Y19989D01*
X38536Y20003D01*
X38533Y20014D01*
Y20019D01*
D02*
G37*
G36*
X34118Y20019D02*
X34112Y20000D01*
X34107Y19983D01*
X34101Y19969D01*
X34098Y19967D01*
Y19964D01*
X34071Y19892D01*
X34162D01*
X34132Y19969D01*
X34126Y19989D01*
X34121Y20003D01*
X34118Y20014D01*
Y20019D01*
D02*
G37*
G36*
X42157Y20022D02*
X42152D01*
X42135Y20019D01*
X42118Y20017D01*
X42107Y20011D01*
X42104Y20008D01*
X42091Y19997D01*
X42080Y19983D01*
X42074Y19975D01*
X42071Y19969D01*
X42066Y19950D01*
X42060Y19933D01*
Y19919D01*
Y19917D01*
Y19914D01*
X42066Y19880D01*
X42074Y19855D01*
X42082Y19839D01*
X42088Y19836D01*
Y19833D01*
X42107Y19817D01*
X42129Y19808D01*
X42146Y19805D01*
X42152D01*
X42179Y19811D01*
X42199Y19819D01*
X42213Y19828D01*
X42218Y19833D01*
X42232Y19858D01*
X42241Y19883D01*
Y19894D01*
X42243Y19903D01*
Y19908D01*
Y19911D01*
Y19930D01*
X42238Y19950D01*
X42235Y19964D01*
X42229Y19975D01*
X42221Y19992D01*
X42216Y19997D01*
X42196Y20011D01*
X42174Y20019D01*
X42157Y20022D01*
D02*
G37*
G36*
X36992Y20022D02*
X36986D01*
X36970Y20019D01*
X36953Y20017D01*
X36942Y20011D01*
X36939Y20008D01*
X36925Y19997D01*
X36914Y19983D01*
X36909Y19975D01*
X36906Y19969D01*
X36900Y19950D01*
X36895Y19933D01*
Y19919D01*
Y19917D01*
Y19914D01*
X36900Y19880D01*
X36909Y19855D01*
X36917Y19839D01*
X36923Y19836D01*
Y19833D01*
X36942Y19817D01*
X36964Y19808D01*
X36981Y19805D01*
X36986D01*
X37014Y19811D01*
X37034Y19819D01*
X37048Y19828D01*
X37053Y19833D01*
X37067Y19858D01*
X37075Y19883D01*
Y19894D01*
X37078Y19903D01*
Y19908D01*
Y19911D01*
Y19930D01*
X37073Y19950D01*
X37070Y19964D01*
X37064Y19975D01*
X37056Y19992D01*
X37050Y19997D01*
X37031Y20011D01*
X37009Y20019D01*
X36992Y20022D01*
D02*
G37*
G36*
X32577Y20022D02*
X32571D01*
X32554Y20019D01*
X32538Y20017D01*
X32527Y20011D01*
X32524Y20008D01*
X32510Y19997D01*
X32499Y19983D01*
X32493Y19975D01*
X32491Y19969D01*
X32485Y19950D01*
X32479Y19933D01*
Y19919D01*
Y19917D01*
Y19914D01*
X32485Y19880D01*
X32493Y19855D01*
X32502Y19839D01*
X32507Y19836D01*
Y19833D01*
X32527Y19817D01*
X32549Y19808D01*
X32566Y19805D01*
X32571D01*
X32599Y19811D01*
X32618Y19819D01*
X32632Y19828D01*
X32638Y19833D01*
X32652Y19858D01*
X32660Y19883D01*
Y19894D01*
X32663Y19903D01*
Y19908D01*
Y19911D01*
Y19930D01*
X32657Y19950D01*
X32654Y19964D01*
X32649Y19975D01*
X32640Y19992D01*
X32635Y19997D01*
X32615Y20011D01*
X32593Y20019D01*
X32577Y20022D01*
D02*
G37*
G36*
X37739Y19725D02*
X37689D01*
X37684Y19722D01*
X37678Y19719D01*
Y19717D01*
X37672Y19711D01*
X37670Y19708D01*
Y19705D01*
Y19703D01*
Y19694D01*
X37672Y19692D01*
X37681Y19686D01*
X37684Y19683D01*
X37697Y19680D01*
X37739D01*
Y19725D01*
D02*
G37*
G36*
X37211D02*
X37206Y19708D01*
X37200Y19700D01*
Y19697D01*
X37186Y19661D01*
X37234D01*
X37217Y19700D01*
X37211Y19717D01*
Y19722D01*
Y19725D01*
D02*
G37*
G36*
X33129Y19725D02*
X33079D01*
X33071Y19722D01*
X33068Y19719D01*
X33065Y19717D01*
X33060Y19708D01*
Y19705D01*
Y19703D01*
Y19694D01*
X33063Y19692D01*
X33068Y19686D01*
X33071Y19683D01*
X33074D01*
X33085Y19680D01*
X33129D01*
Y19725D01*
D02*
G37*
G36*
X32865D02*
X32860Y19708D01*
X32854Y19700D01*
Y19697D01*
X32840Y19661D01*
X32885D01*
X32871Y19700D01*
X32865Y19717D01*
Y19722D01*
Y19725D01*
D02*
G37*
G36*
X37578Y19725D02*
X37567D01*
X37550Y19722D01*
X37545Y19719D01*
X37542D01*
X37534Y19714D01*
X37528Y19708D01*
X37525Y19703D01*
Y19700D01*
X37520Y19680D01*
Y19675D01*
Y19672D01*
X37522Y19655D01*
X37525Y19644D01*
X37531Y19636D01*
X37534Y19633D01*
X37545Y19628D01*
X37556Y19625D01*
X37564Y19622D01*
X37567D01*
X37581Y19625D01*
X37589Y19628D01*
X37595Y19631D01*
X37597D01*
X37606Y19642D01*
X37609Y19655D01*
X37611Y19667D01*
Y19669D01*
X37609Y19689D01*
X37603Y19703D01*
X37600Y19711D01*
X37597Y19714D01*
X37589Y19719D01*
X37578Y19725D01*
D02*
G37*
G36*
X33665Y19725D02*
X33654D01*
X33637Y19722D01*
X33632Y19719D01*
X33629D01*
X33615Y19705D01*
X33612Y19703D01*
Y19700D01*
X33607Y19683D01*
Y19675D01*
Y19672D01*
X33610Y19655D01*
X33612Y19644D01*
X33618Y19636D01*
X33621Y19633D01*
X33632Y19628D01*
X33640Y19625D01*
X33651Y19622D01*
X33654D01*
X33668Y19625D01*
X33676Y19628D01*
X33682Y19631D01*
X33685D01*
X33693Y19642D01*
X33696Y19655D01*
X33699Y19667D01*
Y19669D01*
X33696Y19689D01*
X33690Y19703D01*
X33687Y19711D01*
X33685Y19714D01*
X33674Y19719D01*
X33665Y19725D01*
D02*
G37*
G36*
X37420Y19544D02*
X37375D01*
X37370Y19542D01*
X37361Y19539D01*
X37356Y19533D01*
X37350Y19531D01*
Y19528D01*
X37347Y19517D01*
X37345Y19508D01*
Y19497D01*
Y19494D01*
X37347Y19478D01*
X37350Y19472D01*
Y19469D01*
X37356Y19458D01*
X37359Y19456D01*
Y19453D01*
X37364Y19450D01*
X37367Y19447D01*
X37370D01*
X37384Y19444D01*
X37420D01*
Y19544D01*
D02*
G37*
%LPD*%
D15*
X24496Y23525D02*
X24596D01*
X24646Y23475D01*
Y23275D01*
X24596Y23225D01*
X24496D01*
X24446Y23275D01*
Y23475D01*
X24496Y23525D01*
X24346D02*
X24146D01*
X24246D01*
Y23225D01*
X24046Y23525D02*
Y23225D01*
X23946Y23325D01*
X23846Y23225D01*
Y23525D01*
X24096Y36725D02*
Y36525D01*
X23996Y36425D01*
X23896Y36525D01*
Y36725D01*
X23796Y36575D02*
X23596D01*
X26096Y36725D02*
Y36525D01*
X25996Y36425D01*
X25896Y36525D01*
Y36725D01*
X25796Y36575D02*
X25596D01*
X25696Y36675D02*
Y36475D01*
X26046Y34375D02*
X26096Y34425D01*
X26196D01*
X26246Y34375D01*
Y34175D01*
X26196Y34125D01*
X26096D01*
X26046Y34175D01*
Y34275D01*
X26146D01*
X25946Y34425D02*
Y34225D01*
X25846Y34125D01*
X25746Y34225D01*
Y34425D01*
X25646D02*
Y34125D01*
X25496D01*
X25446Y34175D01*
Y34375D01*
X25496Y34425D01*
X25646D01*
X25346D02*
Y34125D01*
X25196D01*
X25146Y34175D01*
Y34375D01*
X25196Y34425D01*
X25346D01*
X24746Y34225D02*
X24546D01*
X24746Y34325D02*
X24546D01*
X24146Y34125D02*
X24046D01*
X24096D01*
Y34425D01*
X24146Y34375D01*
X23696Y34125D02*
X23896D01*
X23696Y34325D01*
Y34375D01*
X23746Y34425D01*
X23846D01*
X23896Y34375D01*
X23597Y34425D02*
Y34225D01*
X23497Y34125D01*
X23397Y34225D01*
Y34425D01*
X46446Y27925D02*
X46346D01*
X46396D01*
Y28225D01*
X46446Y28175D01*
X45996Y27925D02*
X46196D01*
X45996Y28125D01*
Y28175D01*
X46046Y28225D01*
X46146D01*
X46196Y28175D01*
X45896Y28225D02*
Y28025D01*
X45796Y27925D01*
X45696Y28025D01*
Y28225D01*
X45146Y27925D02*
X45296Y28075D01*
X45146Y28225D01*
X44696Y27925D02*
Y28225D01*
X44546D01*
X44496Y28175D01*
Y28075D01*
X44546Y28025D01*
X44696D01*
X44396Y28225D02*
Y28025D01*
X44296Y27925D01*
X44196Y28025D01*
Y28225D01*
X44096D02*
Y27925D01*
X43946D01*
X43896Y27975D01*
Y28175D01*
X43946Y28225D01*
X44096D01*
X43797D02*
Y27925D01*
X43647D01*
X43597Y27975D01*
Y28175D01*
X43647Y28225D01*
X43797D01*
X43047Y27925D02*
X43197Y28075D01*
X43047Y28225D01*
X42397D02*
X42597D01*
Y28075D01*
X42497Y28125D01*
X42447D01*
X42397Y28075D01*
Y27975D01*
X42447Y27925D01*
X42547D01*
X42597Y27975D01*
X42297Y28175D02*
X42247Y28225D01*
X42147D01*
X42097Y28175D01*
Y27975D01*
X42147Y27925D01*
X42247D01*
X42297Y27975D01*
Y28175D01*
X41997Y28225D02*
Y28025D01*
X41897Y27925D01*
X41797Y28025D01*
Y28225D01*
X46446Y28975D02*
Y29275D01*
X46296D01*
X46246Y29225D01*
Y29125D01*
X46296Y29075D01*
X46446D01*
X46146Y29275D02*
Y29075D01*
X46046Y28975D01*
X45946Y29075D01*
Y29275D01*
X45846D02*
Y28975D01*
X45696D01*
X45646Y29025D01*
Y29225D01*
X45696Y29275D01*
X45846D01*
X45546D02*
Y28975D01*
X45396D01*
X45346Y29025D01*
Y29225D01*
X45396Y29275D01*
X45546D01*
X46246Y27125D02*
X46296Y27175D01*
X46396D01*
X46446Y27125D01*
Y26925D01*
X46396Y26875D01*
X46296D01*
X46246Y26925D01*
Y27025D01*
X46346D01*
X46146Y26875D02*
Y27175D01*
X45946Y26875D01*
Y27175D01*
X45846D02*
Y26875D01*
X45696D01*
X45646Y26925D01*
Y27125D01*
X45696Y27175D01*
X45846D01*
X46296Y25075D02*
X46396D01*
X46446Y25025D01*
Y24825D01*
X46396Y24775D01*
X46296D01*
X46246Y24825D01*
Y25025D01*
X46296Y25075D01*
X46146D02*
Y24825D01*
X46096Y24775D01*
X45996D01*
X45946Y24825D01*
Y25075D01*
X45846D02*
X45646D01*
X45746D01*
Y24775D01*
X45546Y24725D02*
X45346D01*
X45246Y24775D02*
Y24975D01*
X45146Y25075D01*
X45046Y24975D01*
Y24775D01*
Y24925D01*
X45246D01*
X46296Y22975D02*
X46396D01*
X46446Y22925D01*
Y22725D01*
X46396Y22675D01*
X46296D01*
X46246Y22725D01*
Y22925D01*
X46296Y22975D01*
X46146D02*
Y22725D01*
X46096Y22675D01*
X45996D01*
X45946Y22725D01*
Y22975D01*
X45846D02*
X45646D01*
X45746D01*
Y22675D01*
X45546Y22625D02*
X45346D01*
X45246Y22975D02*
Y22675D01*
X45096D01*
X45046Y22725D01*
Y22775D01*
X45096Y22825D01*
X45246D01*
X45096D01*
X45046Y22875D01*
Y22925D01*
X45096Y22975D01*
X45246D01*
X46296Y31375D02*
X46396D01*
X46446Y31325D01*
Y31125D01*
X46396Y31075D01*
X46296D01*
X46246Y31125D01*
Y31325D01*
X46296Y31375D01*
X46146D02*
Y31125D01*
X46096Y31075D01*
X45996D01*
X45946Y31125D01*
Y31375D01*
X45846D02*
X45646D01*
X45746D01*
Y31075D01*
X45546Y31025D02*
X45346D01*
X45246Y31375D02*
Y31075D01*
X45096D01*
X45046Y31125D01*
Y31325D01*
X45096Y31375D01*
X45246D01*
X46296Y33475D02*
X46396D01*
X46446Y33425D01*
Y33225D01*
X46396Y33175D01*
X46296D01*
X46246Y33225D01*
Y33425D01*
X46296Y33475D01*
X46146D02*
Y33225D01*
X46096Y33175D01*
X45996D01*
X45946Y33225D01*
Y33475D01*
X45846D02*
X45646D01*
X45746D01*
Y33175D01*
X45546Y33125D02*
X45346D01*
X45046Y33425D02*
X45096Y33475D01*
X45196D01*
X45246Y33425D01*
Y33225D01*
X45196Y33175D01*
X45096D01*
X45046Y33225D01*
X24446Y32725D02*
X24496Y32775D01*
X24596D01*
X24646Y32725D01*
Y32525D01*
X24596Y32475D01*
X24496D01*
X24446Y32525D01*
Y32625D01*
X24546D01*
X24346Y32475D02*
Y32775D01*
X24146Y32475D01*
Y32775D01*
X24046D02*
Y32475D01*
X23896D01*
X23846Y32525D01*
Y32725D01*
X23896Y32775D01*
X24046D01*
X24446Y31675D02*
X24496Y31725D01*
X24596D01*
X24646Y31675D01*
Y31475D01*
X24596Y31425D01*
X24496D01*
X24446Y31475D01*
Y31575D01*
X24546D01*
X24346Y31425D02*
Y31725D01*
X24146Y31425D01*
Y31725D01*
X24046D02*
Y31425D01*
X23896D01*
X23846Y31475D01*
Y31675D01*
X23896Y31725D01*
X24046D01*
X24646Y30425D02*
Y30725D01*
X24496D01*
X24446Y30675D01*
Y30575D01*
X24496Y30525D01*
X24646D01*
X24346Y30725D02*
Y30425D01*
X24246Y30525D01*
X24146Y30425D01*
Y30725D01*
X24046Y30425D02*
Y30725D01*
X23946Y30625D01*
X23846Y30725D01*
Y30425D01*
X23746Y30375D02*
X23546D01*
X23446Y30725D02*
Y30425D01*
X23296D01*
X23246Y30475D01*
Y30675D01*
X23296Y30725D01*
X23446D01*
X24646Y29475D02*
Y29775D01*
X24496D01*
X24446Y29725D01*
Y29625D01*
X24496Y29575D01*
X24646D01*
X24546D02*
X24446Y29475D01*
X24146Y29725D02*
X24196Y29775D01*
X24296D01*
X24346Y29725D01*
Y29675D01*
X24296Y29625D01*
X24196D01*
X24146Y29575D01*
Y29525D01*
X24196Y29475D01*
X24296D01*
X24346Y29525D01*
X24046Y29775D02*
X23846D01*
X23946D01*
Y29475D01*
X23746Y29425D02*
X23546D01*
X23246Y29725D02*
X23296Y29775D01*
X23396D01*
X23446Y29725D01*
Y29525D01*
X23396Y29475D01*
X23296D01*
X23246Y29525D01*
X23146Y29775D02*
Y29475D01*
X22996D01*
X22946Y29525D01*
Y29725D01*
X22996Y29775D01*
X23146D01*
X24646Y28475D02*
Y28775D01*
X24496D01*
X24446Y28725D01*
Y28625D01*
X24496Y28575D01*
X24646D01*
X24346Y28775D02*
Y28475D01*
X24246Y28575D01*
X24146Y28475D01*
Y28775D01*
X24046Y28475D02*
Y28775D01*
X23946Y28675D01*
X23846Y28775D01*
Y28475D01*
X23746Y28425D02*
X23546D01*
X23246Y28725D02*
X23296Y28775D01*
X23396D01*
X23446Y28725D01*
Y28525D01*
X23396Y28475D01*
X23296D01*
X23246Y28525D01*
X24646Y27425D02*
Y27725D01*
X24496D01*
X24446Y27675D01*
Y27575D01*
X24496Y27525D01*
X24646D01*
X24346Y27725D02*
Y27425D01*
X24246Y27525D01*
X24146Y27425D01*
Y27725D01*
X24046Y27425D02*
Y27725D01*
X23946Y27625D01*
X23846Y27725D01*
Y27425D01*
X23746Y27375D02*
X23546D01*
X23446Y27725D02*
Y27425D01*
X23296D01*
X23246Y27475D01*
Y27525D01*
X23296Y27575D01*
X23446D01*
X23296D01*
X23246Y27625D01*
Y27675D01*
X23296Y27725D01*
X23446D01*
X24646Y26425D02*
Y26725D01*
X24496D01*
X24446Y26675D01*
Y26575D01*
X24496Y26525D01*
X24646D01*
X24546D02*
X24446Y26425D01*
X24146Y26675D02*
X24196Y26725D01*
X24296D01*
X24346Y26675D01*
Y26625D01*
X24296Y26575D01*
X24196D01*
X24146Y26525D01*
Y26475D01*
X24196Y26425D01*
X24296D01*
X24346Y26475D01*
X24046Y26725D02*
X23846D01*
X23946D01*
Y26425D01*
X23746Y26375D02*
X23546D01*
X23446Y26425D02*
Y26625D01*
X23346Y26725D01*
X23246Y26625D01*
Y26425D01*
Y26575D01*
X23446D01*
X23146Y26725D02*
Y26425D01*
X22996D01*
X22946Y26475D01*
Y26525D01*
X22996Y26575D01*
X23146D01*
X22996D01*
X22946Y26625D01*
Y26675D01*
X22996Y26725D01*
X23146D01*
X24646Y25475D02*
Y25775D01*
X24496D01*
X24446Y25725D01*
Y25625D01*
X24496Y25575D01*
X24646D01*
X24346Y25775D02*
Y25475D01*
X24246Y25575D01*
X24146Y25475D01*
Y25775D01*
X24046Y25475D02*
Y25775D01*
X23946Y25675D01*
X23846Y25775D01*
Y25475D01*
X23746Y25425D02*
X23546D01*
X23446Y25475D02*
Y25675D01*
X23346Y25775D01*
X23246Y25675D01*
Y25475D01*
Y25625D01*
X23446D01*
X24446Y24675D02*
X24646D01*
Y24525D01*
X24546D01*
X24646D01*
Y24375D01*
X24346D02*
Y24575D01*
X24246Y24675D01*
X24146Y24575D01*
Y24375D01*
Y24525D01*
X24346D01*
X24046Y24675D02*
Y24425D01*
X23996Y24375D01*
X23896D01*
X23846Y24425D01*
Y24675D01*
X23746D02*
Y24375D01*
X23546D01*
X23446Y24675D02*
X23246D01*
X23346D01*
Y24375D01*
M02*
