G04*
G04 #@! TF.GenerationSoftware,Altium Limited,Altium Designer,20.2.7 (254)*
G04*
G04 Layer_Physical_Order=2*
G04 Layer_Color=16711680*
%FSLAX24Y24*%
%MOIN*%
G70*
G04*
G04 #@! TF.SameCoordinates,73111772-9855-4169-A750-BE6C64973626*
G04*
G04*
G04 #@! TF.FilePolarity,Positive*
G04*
G01*
G75*
%ADD17C,0.0100*%
%ADD28R,0.0630X0.0630*%
%ADD29C,0.0630*%
%ADD30R,0.0630X0.0630*%
%ADD31R,0.0984X0.0787*%
%ADD32C,0.0900*%
%ADD33R,0.0900X0.0900*%
%ADD34C,0.0591*%
%ADD35R,0.0591X0.0591*%
%ADD36R,0.0591X0.0591*%
%ADD37R,0.0787X0.0984*%
%ADD38C,0.1380*%
%ADD40C,0.0200*%
%ADD42C,0.0060*%
%ADD43C,0.0177*%
%ADD44C,0.0197*%
G36*
X49334Y19187D02*
X19958D01*
Y35775D01*
Y37063D01*
X49334D01*
Y19187D01*
D02*
G37*
%LPC*%
G36*
X24389Y36167D02*
X23996D01*
Y35675D01*
X24389D01*
Y36167D01*
D02*
G37*
G36*
X23796D02*
X23402D01*
Y35675D01*
X23796D01*
Y36167D01*
D02*
G37*
G36*
X48146Y36629D02*
X47999Y36614D01*
X47857Y36571D01*
X47727Y36502D01*
X47613Y36408D01*
X47519Y36294D01*
X47449Y36163D01*
X47407Y36022D01*
X47392Y35875D01*
X47407Y35728D01*
X47449Y35587D01*
X47519Y35456D01*
X47613Y35342D01*
X47727Y35248D01*
X47857Y35179D01*
X47999Y35136D01*
X48146Y35121D01*
X48293Y35136D01*
X48434Y35179D01*
X48564Y35248D01*
X48679Y35342D01*
X48772Y35456D01*
X48842Y35587D01*
X48885Y35728D01*
X48899Y35875D01*
X48885Y36022D01*
X48842Y36163D01*
X48772Y36294D01*
X48679Y36408D01*
X48564Y36502D01*
X48434Y36571D01*
X48293Y36614D01*
X48146Y36629D01*
D02*
G37*
G36*
X20946D02*
X20799Y36614D01*
X20657Y36571D01*
X20527Y36502D01*
X20413Y36408D01*
X20319Y36294D01*
X20249Y36163D01*
X20207Y36022D01*
X20192Y35875D01*
X20207Y35728D01*
X20249Y35587D01*
X20319Y35456D01*
X20413Y35342D01*
X20527Y35248D01*
X20657Y35179D01*
X20799Y35136D01*
X20946Y35121D01*
X21093Y35136D01*
X21234Y35179D01*
X21364Y35248D01*
X21479Y35342D01*
X21572Y35456D01*
X21642Y35587D01*
X21685Y35728D01*
X21699Y35875D01*
X21685Y36022D01*
X21642Y36163D01*
X21572Y36294D01*
X21479Y36408D01*
X21364Y36502D01*
X21234Y36571D01*
X21093Y36614D01*
X20946Y36629D01*
D02*
G37*
G36*
X26349Y36127D02*
X25442D01*
Y35023D01*
X26349D01*
Y36127D01*
D02*
G37*
G36*
X24389Y35475D02*
X23996D01*
Y34983D01*
X24389D01*
Y35475D01*
D02*
G37*
G36*
X23796D02*
X23402D01*
Y34983D01*
X23796D01*
Y35475D01*
D02*
G37*
G36*
X31496Y35153D02*
X31398Y35140D01*
X31307Y35103D01*
X31228Y35042D01*
X31168Y34964D01*
X31130Y34873D01*
X31117Y34775D01*
X31130Y34677D01*
X31168Y34586D01*
X31228Y34508D01*
X31307Y34447D01*
X31398Y34410D01*
X31496Y34397D01*
X31594Y34410D01*
X31685Y34447D01*
X31763Y34508D01*
X31823Y34586D01*
X31861Y34677D01*
X31874Y34775D01*
X31861Y34873D01*
X31823Y34964D01*
X31763Y35042D01*
X31685Y35103D01*
X31594Y35140D01*
X31496Y35153D01*
D02*
G37*
G36*
X47948Y33729D02*
X46844D01*
Y32821D01*
X47948D01*
Y33729D01*
D02*
G37*
G36*
X21818Y32986D02*
Y32700D01*
X22104D01*
X22103Y32703D01*
X22063Y32799D01*
X22000Y32882D01*
X21917Y32945D01*
X21821Y32985D01*
X21818Y32986D01*
D02*
G37*
G36*
X21618D02*
X21615Y32985D01*
X21519Y32945D01*
X21436Y32882D01*
X21373Y32799D01*
X21333Y32703D01*
X21333Y32700D01*
X21618D01*
Y32986D01*
D02*
G37*
G36*
X22104Y32500D02*
X21818D01*
Y32214D01*
X21821Y32215D01*
X21917Y32255D01*
X22000Y32318D01*
X22063Y32401D01*
X22103Y32497D01*
X22104Y32500D01*
D02*
G37*
G36*
X21618D02*
X21333D01*
X21333Y32497D01*
X21373Y32401D01*
X21436Y32318D01*
X21519Y32255D01*
X21615Y32215D01*
X21618Y32214D01*
Y32500D01*
D02*
G37*
G36*
X21818Y31986D02*
Y31700D01*
X22104D01*
X22103Y31703D01*
X22063Y31799D01*
X22000Y31882D01*
X21917Y31945D01*
X21821Y31985D01*
X21818Y31986D01*
D02*
G37*
G36*
X21618D02*
X21615Y31985D01*
X21519Y31945D01*
X21436Y31882D01*
X21373Y31799D01*
X21333Y31703D01*
X21333Y31700D01*
X21618D01*
Y31986D01*
D02*
G37*
G36*
X22104Y31500D02*
X21818D01*
Y31214D01*
X21821Y31215D01*
X21917Y31255D01*
X22000Y31318D01*
X22063Y31401D01*
X22103Y31497D01*
X22104Y31500D01*
D02*
G37*
G36*
X21618D02*
X21333D01*
X21333Y31497D01*
X21373Y31401D01*
X21436Y31318D01*
X21519Y31255D01*
X21615Y31215D01*
X21618Y31214D01*
Y31500D01*
D02*
G37*
G36*
X47948Y31729D02*
X46844D01*
Y30821D01*
X47948D01*
Y31729D01*
D02*
G37*
G36*
X21718Y30958D02*
X21625Y30946D01*
X21539Y30910D01*
X21465Y30853D01*
X21408Y30779D01*
X21372Y30693D01*
X21360Y30600D01*
X21372Y30507D01*
X21408Y30421D01*
X21465Y30347D01*
X21539Y30290D01*
X21625Y30254D01*
X21718Y30242D01*
X21811Y30254D01*
X21897Y30290D01*
X21971Y30347D01*
X22028Y30421D01*
X22064Y30507D01*
X22076Y30600D01*
X22064Y30693D01*
X22028Y30779D01*
X21971Y30853D01*
X21897Y30910D01*
X21811Y30946D01*
X21718Y30958D01*
D02*
G37*
G36*
X26375Y32675D02*
X25625D01*
Y32055D01*
X24931Y31361D01*
X24911Y31331D01*
X24904Y31296D01*
Y29142D01*
X24889Y29132D01*
X24856Y29083D01*
X24844Y29025D01*
X24856Y28967D01*
X24889Y28918D01*
X24904Y28908D01*
Y25842D01*
X24889Y25832D01*
X24856Y25783D01*
X24844Y25725D01*
X24856Y25667D01*
X24889Y25618D01*
X24938Y25585D01*
X24996Y25574D01*
X25054Y25585D01*
X25084Y25605D01*
X25134Y25581D01*
Y24454D01*
X25134Y24454D01*
X25142Y24411D01*
X25166Y24375D01*
X25667Y23875D01*
X25635Y23798D01*
X25622Y23700D01*
X25635Y23602D01*
X25672Y23511D01*
X25733Y23433D01*
X25811Y23372D01*
X25902Y23335D01*
X26000Y23322D01*
X26098Y23335D01*
X26189Y23372D01*
X26267Y23433D01*
X26328Y23511D01*
X26365Y23602D01*
X26378Y23700D01*
X26365Y23798D01*
X26328Y23889D01*
X26267Y23967D01*
X26189Y24028D01*
X26098Y24065D01*
X26000Y24078D01*
X25902Y24065D01*
X25825Y24033D01*
X25358Y24501D01*
Y26888D01*
X25641D01*
X25672Y26811D01*
X25733Y26733D01*
X25811Y26672D01*
X25902Y26635D01*
X26000Y26622D01*
X26098Y26635D01*
X26189Y26672D01*
X26267Y26733D01*
X26328Y26811D01*
X26359Y26888D01*
X27771D01*
X27771Y26888D01*
X27814Y26896D01*
X27850Y26921D01*
X28525Y27596D01*
X28525Y27596D01*
X28549Y27632D01*
X28558Y27675D01*
X28558Y27675D01*
Y27825D01*
X28586Y27867D01*
X28597Y27925D01*
X28586Y27983D01*
X28553Y28032D01*
X28504Y28065D01*
X28446Y28076D01*
X28388Y28065D01*
X28339Y28032D01*
X28306Y27983D01*
X28294Y27925D01*
X28306Y27867D01*
X28334Y27825D01*
Y27721D01*
X27724Y27112D01*
X26359D01*
X26328Y27189D01*
X26267Y27267D01*
X26189Y27328D01*
X26098Y27365D01*
X26000Y27378D01*
X25902Y27365D01*
X25811Y27328D01*
X25733Y27267D01*
X25672Y27189D01*
X25641Y27112D01*
X25358D01*
Y29629D01*
X25749Y30020D01*
X25811Y29972D01*
X25902Y29935D01*
X26000Y29922D01*
X26098Y29935D01*
X26189Y29972D01*
X26267Y30033D01*
X26328Y30111D01*
X26365Y30202D01*
X26378Y30300D01*
X26365Y30398D01*
X26328Y30489D01*
X26267Y30567D01*
X26189Y30628D01*
X26098Y30665D01*
X26000Y30678D01*
X25902Y30665D01*
X25811Y30628D01*
X25733Y30567D01*
X25672Y30489D01*
X25635Y30398D01*
X25622Y30300D01*
X25632Y30220D01*
X25166Y29754D01*
X25142Y29718D01*
X25137Y29695D01*
X25087Y29700D01*
Y31258D01*
X25755Y31925D01*
X26375D01*
Y32675D01*
D02*
G37*
G36*
X39596Y33390D02*
X37846D01*
X37800Y33371D01*
X37781Y33325D01*
X37781Y31002D01*
X37519Y30740D01*
X36546D01*
X36500Y30721D01*
X36450Y30671D01*
X36431Y30625D01*
Y29652D01*
X36169Y29390D01*
X36046D01*
X36011Y29425D01*
X36011Y29575D01*
X36011Y29775D01*
Y30448D01*
X36473Y30910D01*
X36946D01*
X36992Y30929D01*
X37011Y30975D01*
X37011Y32125D01*
X36992Y32171D01*
X36946Y32190D01*
X35596Y32190D01*
X35550Y32171D01*
X34400Y31021D01*
X34381Y30975D01*
X34381Y29775D01*
Y29525D01*
X34400Y29479D01*
X34550Y29329D01*
X34576Y29318D01*
X34593Y29264D01*
X34350Y29021D01*
X34331Y28975D01*
Y28967D01*
X34320Y28914D01*
X34331Y28860D01*
Y28825D01*
X34350Y28779D01*
X34396Y28760D01*
X34696D01*
X39096Y28760D01*
X39142Y28779D01*
X39642Y29279D01*
X39661Y29325D01*
X39661Y33325D01*
X39642Y33371D01*
X39596Y33390D01*
D02*
G37*
G36*
X21718Y29958D02*
X21625Y29946D01*
X21539Y29910D01*
X21465Y29853D01*
X21408Y29779D01*
X21372Y29693D01*
X21360Y29600D01*
X21372Y29507D01*
X21408Y29421D01*
X21465Y29347D01*
X21539Y29290D01*
X21625Y29254D01*
X21718Y29242D01*
X21811Y29254D01*
X21897Y29290D01*
X21971Y29347D01*
X22028Y29421D01*
X22064Y29507D01*
X22076Y29600D01*
X22064Y29693D01*
X22028Y29779D01*
X21971Y29853D01*
X21897Y29910D01*
X21811Y29946D01*
X21718Y29958D01*
D02*
G37*
G36*
X26000Y31678D02*
X25902Y31665D01*
X25811Y31628D01*
X25733Y31567D01*
X25672Y31489D01*
X25635Y31398D01*
X25622Y31300D01*
X25635Y31202D01*
X25672Y31111D01*
X25733Y31033D01*
X25811Y30972D01*
X25902Y30935D01*
X26000Y30922D01*
X26098Y30935D01*
X26189Y30972D01*
X26267Y31033D01*
X26328Y31111D01*
X26365Y31202D01*
X26366Y31208D01*
X27083D01*
X28998Y29293D01*
X28994Y29275D01*
X29006Y29217D01*
X29006Y29217D01*
X28979Y29167D01*
X26375D01*
Y29375D01*
X25625D01*
Y28625D01*
X26375D01*
Y28983D01*
X28979D01*
X29006Y28933D01*
X29006Y28933D01*
X28994Y28875D01*
X29006Y28817D01*
X29039Y28768D01*
X29054Y28758D01*
Y27884D01*
X26194Y25024D01*
X26189Y25028D01*
X26098Y25065D01*
X26000Y25078D01*
X25902Y25065D01*
X25811Y25028D01*
X25733Y24967D01*
X25672Y24889D01*
X25635Y24798D01*
X25622Y24700D01*
X25635Y24602D01*
X25672Y24511D01*
X25733Y24433D01*
X25811Y24372D01*
X25902Y24335D01*
X26000Y24322D01*
X26098Y24335D01*
X26189Y24372D01*
X26267Y24433D01*
X26328Y24511D01*
X26365Y24602D01*
X26378Y24700D01*
X26365Y24798D01*
X26328Y24889D01*
X26324Y24894D01*
X29211Y27781D01*
X29230Y27811D01*
X29237Y27846D01*
Y28758D01*
X29253Y28768D01*
X29286Y28817D01*
X29297Y28875D01*
X29286Y28933D01*
X29285Y28933D01*
X29312Y28983D01*
X29908D01*
X29952Y28939D01*
X29949Y28889D01*
X29939Y28882D01*
X29906Y28833D01*
X29894Y28775D01*
X29906Y28717D01*
X29939Y28668D01*
X29988Y28635D01*
X30046Y28624D01*
X30104Y28635D01*
X30153Y28668D01*
X30186Y28717D01*
X30197Y28775D01*
X30186Y28833D01*
X30153Y28882D01*
X30137Y28892D01*
Y28975D01*
X30130Y29010D01*
X30111Y29040D01*
X30011Y29140D01*
X29981Y29160D01*
X29946Y29167D01*
X29312D01*
X29285Y29217D01*
X29286Y29217D01*
X29297Y29275D01*
X29286Y29333D01*
X29253Y29382D01*
X29204Y29415D01*
X29146Y29426D01*
X29128Y29423D01*
X27186Y31365D01*
X27156Y31385D01*
X27121Y31392D01*
X26366D01*
X26365Y31398D01*
X26328Y31489D01*
X26267Y31567D01*
X26189Y31628D01*
X26098Y31665D01*
X26000Y31678D01*
D02*
G37*
G36*
X47948Y29529D02*
X46844D01*
Y28621D01*
X47948D01*
Y29529D01*
D02*
G37*
G36*
X41956Y29585D02*
X40936D01*
Y28565D01*
X41956D01*
Y29585D01*
D02*
G37*
G36*
X21718Y28958D02*
X21625Y28946D01*
X21539Y28910D01*
X21465Y28853D01*
X21408Y28779D01*
X21372Y28693D01*
X21360Y28600D01*
X21372Y28507D01*
X21408Y28421D01*
X21465Y28347D01*
X21539Y28290D01*
X21625Y28254D01*
X21718Y28242D01*
X21811Y28254D01*
X21897Y28290D01*
X21971Y28347D01*
X22028Y28421D01*
X22064Y28507D01*
X22076Y28600D01*
X22064Y28693D01*
X22028Y28779D01*
X21971Y28853D01*
X21897Y28910D01*
X21811Y28946D01*
X21718Y28958D01*
D02*
G37*
G36*
X26000Y28378D02*
X25902Y28365D01*
X25811Y28328D01*
X25733Y28267D01*
X25672Y28189D01*
X25635Y28098D01*
X25622Y28000D01*
X25635Y27902D01*
X25672Y27811D01*
X25733Y27733D01*
X25811Y27672D01*
X25902Y27635D01*
X26000Y27622D01*
X26098Y27635D01*
X26189Y27672D01*
X26267Y27733D01*
X26328Y27811D01*
X26365Y27902D01*
X26378Y28000D01*
X26365Y28098D01*
X26328Y28189D01*
X26267Y28267D01*
X26189Y28328D01*
X26098Y28365D01*
X26000Y28378D01*
D02*
G37*
G36*
X21718Y27958D02*
X21625Y27946D01*
X21539Y27910D01*
X21465Y27853D01*
X21408Y27779D01*
X21372Y27693D01*
X21360Y27600D01*
X21372Y27507D01*
X21408Y27421D01*
X21465Y27347D01*
X21539Y27290D01*
X21625Y27254D01*
X21718Y27242D01*
X21811Y27254D01*
X21897Y27290D01*
X21971Y27347D01*
X22028Y27421D01*
X22064Y27507D01*
X22076Y27600D01*
X22064Y27693D01*
X22028Y27779D01*
X21971Y27853D01*
X21897Y27910D01*
X21811Y27946D01*
X21718Y27958D01*
D02*
G37*
G36*
X47988Y27569D02*
X47496D01*
Y27175D01*
X47988D01*
Y27569D01*
D02*
G37*
G36*
X41546Y27617D02*
Y27175D01*
X41987D01*
X41982Y27219D01*
X41926Y27352D01*
X41838Y27467D01*
X41723Y27555D01*
X41589Y27611D01*
X41546Y27617D01*
D02*
G37*
G36*
X41346Y27617D02*
X41302Y27611D01*
X41168Y27555D01*
X41053Y27467D01*
X40965Y27352D01*
X40910Y27219D01*
X40904Y27175D01*
X41346D01*
Y27617D01*
D02*
G37*
G36*
X47296Y27569D02*
X46804D01*
Y27175D01*
X47296D01*
Y27569D01*
D02*
G37*
G36*
X47988Y26975D02*
X47496D01*
Y26581D01*
X47988D01*
Y26975D01*
D02*
G37*
G36*
X47296D02*
X46804D01*
Y26581D01*
X47296D01*
Y26975D01*
D02*
G37*
G36*
X41346D02*
X40904D01*
X40910Y26931D01*
X40965Y26798D01*
X41053Y26683D01*
X41168Y26595D01*
X41302Y26539D01*
X41346Y26533D01*
Y26975D01*
D02*
G37*
G36*
X41987D02*
X41546D01*
Y26533D01*
X41589Y26539D01*
X41723Y26595D01*
X41838Y26683D01*
X41926Y26798D01*
X41982Y26931D01*
X41987Y26975D01*
D02*
G37*
G36*
X21718Y26958D02*
X21625Y26946D01*
X21539Y26910D01*
X21465Y26853D01*
X21408Y26779D01*
X21372Y26693D01*
X21360Y26600D01*
X21372Y26507D01*
X21408Y26421D01*
X21465Y26347D01*
X21539Y26290D01*
X21625Y26254D01*
X21718Y26242D01*
X21811Y26254D01*
X21897Y26290D01*
X21971Y26347D01*
X22028Y26421D01*
X22064Y26507D01*
X22076Y26600D01*
X22064Y26693D01*
X22028Y26779D01*
X21971Y26853D01*
X21897Y26910D01*
X21811Y26946D01*
X21718Y26958D01*
D02*
G37*
G36*
X26375Y26075D02*
X25625D01*
Y25325D01*
X26375D01*
Y26075D01*
D02*
G37*
G36*
X21718Y25958D02*
X21625Y25946D01*
X21539Y25910D01*
X21465Y25853D01*
X21408Y25779D01*
X21372Y25693D01*
X21360Y25600D01*
X21372Y25507D01*
X21408Y25421D01*
X21465Y25347D01*
X21539Y25290D01*
X21625Y25254D01*
X21718Y25242D01*
X21811Y25254D01*
X21897Y25290D01*
X21971Y25347D01*
X22028Y25421D01*
X22064Y25507D01*
X22076Y25600D01*
X22064Y25693D01*
X22028Y25779D01*
X21971Y25853D01*
X21897Y25910D01*
X21811Y25946D01*
X21718Y25958D01*
D02*
G37*
G36*
X29497Y25425D02*
X29439Y25414D01*
X29390Y25381D01*
X29357Y25332D01*
X29345Y25274D01*
X29357Y25216D01*
X29390Y25167D01*
X29439Y25134D01*
X29497Y25122D01*
X29555Y25134D01*
X29604Y25167D01*
X29637Y25216D01*
X29648Y25274D01*
X29637Y25332D01*
X29604Y25381D01*
X29555Y25414D01*
X29497Y25425D01*
D02*
G37*
G36*
X30871Y35150D02*
X30121D01*
Y34400D01*
X30318D01*
Y24990D01*
X30330Y24927D01*
X30366Y24875D01*
X30418Y24839D01*
X30481Y24827D01*
X30543Y24839D01*
X30596Y24875D01*
X30632Y24927D01*
X30644Y24990D01*
Y34400D01*
X30871D01*
Y35150D01*
D02*
G37*
G36*
X47948Y25329D02*
X46844D01*
Y24421D01*
X47948D01*
Y25329D01*
D02*
G37*
G36*
X21718Y24958D02*
X21625Y24946D01*
X21539Y24910D01*
X21465Y24853D01*
X21408Y24779D01*
X21372Y24693D01*
X21360Y24600D01*
X21372Y24507D01*
X21408Y24421D01*
X21465Y24347D01*
X21539Y24290D01*
X21625Y24254D01*
X21718Y24242D01*
X21811Y24254D01*
X21897Y24290D01*
X21971Y24347D01*
X22028Y24421D01*
X22064Y24507D01*
X22076Y24600D01*
X22064Y24693D01*
X22028Y24779D01*
X21971Y24853D01*
X21897Y24910D01*
X21811Y24946D01*
X21718Y24958D01*
D02*
G37*
G36*
X29069Y25253D02*
X29011Y25241D01*
X28962Y25208D01*
X28929Y25159D01*
X28918Y25101D01*
X28929Y25043D01*
X28962Y24994D01*
X29011Y24961D01*
X29069Y24950D01*
X29088Y24953D01*
X30298Y23743D01*
X30294Y23725D01*
X30306Y23667D01*
X30339Y23618D01*
X30388Y23585D01*
X30446Y23574D01*
X30504Y23585D01*
X30553Y23618D01*
X30586Y23667D01*
X30597Y23725D01*
X30586Y23783D01*
X30553Y23832D01*
X30504Y23865D01*
X30446Y23876D01*
X30428Y23873D01*
X29217Y25083D01*
X29221Y25101D01*
X29209Y25159D01*
X29177Y25208D01*
X29127Y25241D01*
X29069Y25253D01*
D02*
G37*
G36*
X22073Y23955D02*
X21363D01*
Y23245D01*
X22073D01*
Y23955D01*
D02*
G37*
G36*
X34696Y27790D02*
X34396D01*
X34350Y27771D01*
X34331Y27725D01*
Y27690D01*
X34320Y27636D01*
X34331Y27583D01*
Y27575D01*
X34350Y27529D01*
X34593Y27286D01*
X34576Y27232D01*
X34550Y27221D01*
X34400Y27071D01*
X34381Y27025D01*
Y26775D01*
X34381Y25575D01*
X34400Y25529D01*
X35550Y24379D01*
X35596Y24360D01*
X36946Y24360D01*
X36992Y24379D01*
X37011Y24425D01*
X37011Y25575D01*
X36992Y25621D01*
X36946Y25640D01*
X36473D01*
X36011Y26102D01*
Y26775D01*
X36011Y26975D01*
X36011Y27125D01*
X36046Y27160D01*
X36169D01*
X36431Y26898D01*
Y25925D01*
X36450Y25879D01*
X36500Y25829D01*
X36546Y25810D01*
X37519D01*
X37781Y25548D01*
X37781Y23225D01*
X37800Y23179D01*
X37846Y23160D01*
X39596D01*
X39642Y23179D01*
X39661Y23225D01*
X39661Y27225D01*
X39642Y27271D01*
X39142Y27771D01*
X39096Y27790D01*
X34696Y27790D01*
D02*
G37*
G36*
X47948Y23329D02*
X46844D01*
Y22421D01*
X47948D01*
Y23329D01*
D02*
G37*
G36*
X23164Y21404D02*
Y21118D01*
X23449D01*
X23449Y21121D01*
X23409Y21218D01*
X23345Y21300D01*
X23263Y21364D01*
X23167Y21403D01*
X23164Y21404D01*
D02*
G37*
G36*
X22964D02*
X22960Y21403D01*
X22864Y21364D01*
X22782Y21300D01*
X22718Y21218D01*
X22678Y21121D01*
X22678Y21118D01*
X22964D01*
Y21404D01*
D02*
G37*
G36*
X24419Y21374D02*
X23708D01*
Y20663D01*
X24419D01*
Y21374D01*
D02*
G37*
G36*
X23449Y20918D02*
X23164D01*
Y20633D01*
X23167Y20633D01*
X23263Y20673D01*
X23345Y20736D01*
X23409Y20819D01*
X23449Y20915D01*
X23449Y20918D01*
D02*
G37*
G36*
X22964D02*
X22678D01*
X22678Y20915D01*
X22718Y20819D01*
X22782Y20736D01*
X22864Y20673D01*
X22960Y20633D01*
X22964Y20633D01*
Y20918D01*
D02*
G37*
G36*
X48146Y20779D02*
X47999Y20764D01*
X47857Y20721D01*
X47727Y20652D01*
X47613Y20558D01*
X47519Y20444D01*
X47449Y20313D01*
X47407Y20172D01*
X47392Y20025D01*
X47407Y19878D01*
X47449Y19737D01*
X47519Y19606D01*
X47613Y19492D01*
X47727Y19398D01*
X47857Y19329D01*
X47999Y19286D01*
X48146Y19271D01*
X48293Y19286D01*
X48434Y19329D01*
X48564Y19398D01*
X48679Y19492D01*
X48772Y19606D01*
X48842Y19737D01*
X48885Y19878D01*
X48899Y20025D01*
X48885Y20172D01*
X48842Y20313D01*
X48772Y20444D01*
X48679Y20558D01*
X48564Y20652D01*
X48434Y20721D01*
X48293Y20764D01*
X48146Y20779D01*
D02*
G37*
G36*
X20946D02*
X20799Y20764D01*
X20657Y20721D01*
X20527Y20652D01*
X20413Y20558D01*
X20319Y20444D01*
X20249Y20313D01*
X20207Y20172D01*
X20192Y20025D01*
X20207Y19878D01*
X20249Y19737D01*
X20319Y19606D01*
X20413Y19492D01*
X20527Y19398D01*
X20657Y19329D01*
X20799Y19286D01*
X20946Y19271D01*
X21093Y19286D01*
X21234Y19329D01*
X21364Y19398D01*
X21479Y19492D01*
X21572Y19606D01*
X21642Y19737D01*
X21685Y19878D01*
X21699Y20025D01*
X21685Y20172D01*
X21642Y20313D01*
X21572Y20444D01*
X21479Y20558D01*
X21364Y20652D01*
X21234Y20721D01*
X21093Y20764D01*
X20946Y20779D01*
D02*
G37*
%LPD*%
G36*
X36946Y32125D02*
X36946Y30975D01*
X36446D01*
X35946Y30475D01*
Y29775D01*
X35946Y29575D01*
X35946Y29375D01*
X34596Y29375D01*
X34446Y29525D01*
Y29775D01*
X34446Y30975D01*
X35596Y32125D01*
X36946Y32125D01*
D02*
G37*
G36*
X39596Y29325D02*
X39096Y28825D01*
X34696Y28825D01*
X34396D01*
Y28975D01*
X34731Y29310D01*
X35946Y29310D01*
X35982Y29325D01*
X36196D01*
X36496Y29625D01*
Y30625D01*
X36546Y30675D01*
X37546D01*
X37846Y30975D01*
X37846Y33325D01*
X39596D01*
X39596Y29325D01*
D02*
G37*
G36*
X35946Y26975D02*
X35946Y26775D01*
Y26075D01*
X36446Y25575D01*
X36946D01*
X36946Y24425D01*
X35596Y24425D01*
X34446Y25575D01*
X34446Y26775D01*
Y27025D01*
X34596Y27175D01*
X35946Y27175D01*
X35946Y26975D01*
D02*
G37*
G36*
X39096Y27725D02*
X39596Y27225D01*
X39596Y23225D01*
X37846D01*
X37846Y25575D01*
X37546Y25875D01*
X36546D01*
X36496Y25925D01*
Y26925D01*
X36196Y27225D01*
X35982D01*
X35946Y27240D01*
X34731Y27240D01*
X34396Y27575D01*
Y27725D01*
X34696D01*
X39096Y27725D01*
D02*
G37*
D17*
X35196Y22475D02*
Y23375D01*
Y22475D02*
X35396Y22275D01*
X40237Y22266D02*
X41446Y23475D01*
X40154Y22266D02*
X40237D01*
X40146Y22275D02*
X40154Y22266D01*
X35396Y22275D02*
X40146D01*
X41446Y23475D02*
Y27075D01*
X44696Y30325D02*
Y34125D01*
Y27075D02*
Y30325D01*
Y27075D02*
X47396D01*
X41446D02*
X44696D01*
X32330Y29574D02*
Y31691D01*
X31046Y32625D02*
X31396D01*
X32330Y31691D01*
X24796Y36475D02*
X30696D01*
X23896Y35575D02*
Y35673D01*
X24239Y36017D01*
X24338D01*
X24796Y36475D01*
X30696D02*
X31046Y36125D01*
Y32625D02*
Y36125D01*
X28446Y27675D02*
Y27925D01*
X27771Y27000D02*
X28446Y27675D01*
X26000Y27000D02*
X27771D01*
X25246Y26975D02*
Y29675D01*
Y24454D02*
Y26975D01*
X25271Y27000D02*
X26000D01*
X25246Y26975D02*
X25271Y27000D01*
X25871Y30300D02*
X26000D01*
X25246Y29675D02*
X25871Y30300D01*
X25246Y24454D02*
X26000Y23700D01*
X34946Y30075D02*
X36296Y31425D01*
X36196Y29625D02*
Y30525D01*
X35196Y23958D02*
X37029D01*
X33713D02*
X35196D01*
Y23375D02*
Y23958D01*
X33446Y24225D02*
X33713Y23958D01*
X33246Y24425D02*
X33446Y24225D01*
X33196Y26950D02*
Y26976D01*
Y26950D02*
X33246Y26900D01*
Y24425D02*
Y26900D01*
X37029Y23958D02*
X37346Y24275D01*
X36496Y25725D02*
X37287D01*
X37346Y25666D01*
Y24275D02*
Y25666D01*
X36196Y26025D02*
X36496Y25725D01*
X36196Y26025D02*
Y26925D01*
X33196Y29574D02*
Y29600D01*
X33246Y29650D01*
Y33275D01*
X33596Y33625D01*
X36146D02*
X37396Y32375D01*
X33596Y33625D02*
X36146D01*
X37396Y30925D02*
Y32375D01*
X37296Y30825D02*
X37396Y30925D01*
X36196Y30525D02*
X36496Y30825D01*
X37296D01*
X34946Y29675D02*
Y30075D01*
X38593Y29074D02*
Y32572D01*
X38596Y32575D01*
X38583Y29066D02*
X38592Y29075D01*
X35072Y29066D02*
X38583D01*
X38592Y29075D02*
X38593Y29074D01*
X34946Y26475D02*
X36296Y25125D01*
X34946Y26475D02*
Y26875D01*
X38593Y23978D02*
Y27476D01*
Y23978D02*
X38596Y23975D01*
X38583Y27484D02*
X38592Y27475D01*
X35072Y27484D02*
X38583D01*
X38592Y27475D02*
X38593Y27476D01*
D28*
X26000Y25700D02*
D03*
Y29000D02*
D03*
Y32300D02*
D03*
D29*
Y24700D02*
D03*
Y23700D02*
D03*
Y28000D02*
D03*
Y27000D02*
D03*
Y31300D02*
D03*
Y30300D02*
D03*
X31496Y34775D02*
D03*
D30*
X30496D02*
D03*
D31*
X47396Y33275D02*
D03*
Y31275D02*
D03*
Y24875D02*
D03*
Y22875D02*
D03*
Y29075D02*
D03*
Y27075D02*
D03*
D32*
X41446D02*
D03*
D33*
Y29075D02*
D03*
D34*
X21718Y32600D02*
D03*
Y31600D02*
D03*
Y30600D02*
D03*
Y28600D02*
D03*
Y26600D02*
D03*
Y24600D02*
D03*
Y25600D02*
D03*
Y27600D02*
D03*
Y29600D02*
D03*
X23064Y21018D02*
D03*
D35*
X21718Y23600D02*
D03*
D36*
X24064Y21018D02*
D03*
D37*
X23896Y35575D02*
D03*
X25896D02*
D03*
D38*
X20946Y35875D02*
D03*
Y20025D02*
D03*
X48146Y35875D02*
D03*
Y20025D02*
D03*
D40*
X30481Y34760D02*
X30496Y34775D01*
X30481Y24990D02*
Y34760D01*
D42*
X29069Y25101D02*
X30446Y23725D01*
X30256Y28596D02*
X30291Y28561D01*
X30671Y24911D02*
Y28740D01*
X30706Y28775D02*
X31530D01*
X29972Y28596D02*
X30256D01*
X30402Y24800D02*
X30560D01*
X30671Y24911D01*
Y28740D02*
X30706Y28775D01*
X31530D02*
X31896Y29141D01*
X29793Y28775D02*
X29972Y28596D01*
X29396Y28775D02*
X29793D01*
X30291Y24911D02*
Y28561D01*
Y24911D02*
X30402Y24800D01*
X24996Y29025D02*
Y31296D01*
Y25725D02*
Y29025D01*
Y31296D02*
X26000Y32300D01*
Y29000D02*
X26075Y29075D01*
X29946D01*
X30046Y28775D02*
Y28975D01*
X29946Y29075D02*
X30046Y28975D01*
X31346Y24325D02*
X31896D01*
X31896Y26976D02*
X32096Y26777D01*
Y24525D02*
Y26777D01*
X31896Y24325D02*
X32096Y24525D01*
X26000Y31300D02*
X27121D01*
X29146Y29275D01*
X26000Y24700D02*
X29146Y27846D01*
Y28875D01*
D43*
X38593Y27476D02*
D03*
X48500Y33000D02*
D03*
Y31000D02*
D03*
X48000Y30000D02*
D03*
X48500Y27000D02*
D03*
X48000Y26000D02*
D03*
X48500Y25000D02*
D03*
X48000Y24000D02*
D03*
X48500Y23000D02*
D03*
X48000Y22000D02*
D03*
X48500Y21000D02*
D03*
X47000Y36000D02*
D03*
Y30000D02*
D03*
Y26000D02*
D03*
Y22000D02*
D03*
X47500Y21000D02*
D03*
X47000Y20000D02*
D03*
X46000Y36000D02*
D03*
Y30000D02*
D03*
X46500Y27000D02*
D03*
X46000Y26000D02*
D03*
Y22000D02*
D03*
X46500Y21000D02*
D03*
X46000Y20000D02*
D03*
X45000Y36000D02*
D03*
X45500Y27000D02*
D03*
Y21000D02*
D03*
X45000Y20000D02*
D03*
X44000Y36000D02*
D03*
Y34000D02*
D03*
X44500Y27000D02*
D03*
X44000Y26000D02*
D03*
Y22000D02*
D03*
X44500Y21000D02*
D03*
X44000Y20000D02*
D03*
X43000Y36000D02*
D03*
Y34000D02*
D03*
X43500Y27000D02*
D03*
X43000Y26000D02*
D03*
Y22000D02*
D03*
X43500Y21000D02*
D03*
X43000Y20000D02*
D03*
X42000Y36000D02*
D03*
Y34000D02*
D03*
X42500Y27000D02*
D03*
X42000Y26000D02*
D03*
Y22000D02*
D03*
X42500Y21000D02*
D03*
X42000Y20000D02*
D03*
X41000Y36000D02*
D03*
Y34000D02*
D03*
Y26000D02*
D03*
Y22000D02*
D03*
X41500Y21000D02*
D03*
X41000Y20000D02*
D03*
X40000Y36000D02*
D03*
Y34000D02*
D03*
Y26000D02*
D03*
Y22000D02*
D03*
X40500Y21000D02*
D03*
X40000Y20000D02*
D03*
X39000Y36000D02*
D03*
Y34000D02*
D03*
Y22000D02*
D03*
X39500Y21000D02*
D03*
X39000Y20000D02*
D03*
X38000Y36000D02*
D03*
Y34000D02*
D03*
Y22000D02*
D03*
X38500Y21000D02*
D03*
X38000Y20000D02*
D03*
X37000Y36000D02*
D03*
Y34000D02*
D03*
X37500Y33000D02*
D03*
X37000Y24000D02*
D03*
X37500Y23000D02*
D03*
X37000Y22000D02*
D03*
X37500Y21000D02*
D03*
X37000Y20000D02*
D03*
X36000Y36000D02*
D03*
Y34000D02*
D03*
X36500Y33000D02*
D03*
X36000Y24000D02*
D03*
X36500Y23000D02*
D03*
X36000Y22000D02*
D03*
X36500Y21000D02*
D03*
X36000Y20000D02*
D03*
X35000Y36000D02*
D03*
Y34000D02*
D03*
X35500Y33000D02*
D03*
X35000Y32000D02*
D03*
Y22000D02*
D03*
X35500Y21000D02*
D03*
X35000Y20000D02*
D03*
X34000Y36000D02*
D03*
Y34000D02*
D03*
X34500Y33000D02*
D03*
Y25000D02*
D03*
X34000Y22000D02*
D03*
X34500Y21000D02*
D03*
X34000Y20000D02*
D03*
X33000Y36000D02*
D03*
Y34000D02*
D03*
X33500Y33000D02*
D03*
X33000Y32000D02*
D03*
X33500Y31000D02*
D03*
X33000Y26000D02*
D03*
Y22000D02*
D03*
X33500Y21000D02*
D03*
X33000Y20000D02*
D03*
X32000Y36000D02*
D03*
Y34000D02*
D03*
X32500Y33000D02*
D03*
X32000Y32000D02*
D03*
X32500Y31000D02*
D03*
X32000Y26000D02*
D03*
Y24000D02*
D03*
X32500Y21000D02*
D03*
X32000Y20000D02*
D03*
X31000Y36000D02*
D03*
Y34000D02*
D03*
X31500Y33000D02*
D03*
Y31000D02*
D03*
Y29000D02*
D03*
Y27000D02*
D03*
Y21000D02*
D03*
X31000Y20000D02*
D03*
X30000Y34000D02*
D03*
Y32000D02*
D03*
Y22000D02*
D03*
X30500Y21000D02*
D03*
X30000Y20000D02*
D03*
X29500Y35000D02*
D03*
Y33000D02*
D03*
X29000Y32000D02*
D03*
X29500Y31000D02*
D03*
Y27000D02*
D03*
Y25000D02*
D03*
X29000Y24000D02*
D03*
X29500Y23000D02*
D03*
X29000Y20000D02*
D03*
X28500Y35000D02*
D03*
Y33000D02*
D03*
X28000Y32000D02*
D03*
X28500Y31000D02*
D03*
X28000Y28000D02*
D03*
X28500Y25000D02*
D03*
Y23000D02*
D03*
X27500Y35000D02*
D03*
X27000Y34000D02*
D03*
X27500Y33000D02*
D03*
X27000Y32000D02*
D03*
Y28000D02*
D03*
X27500Y25000D02*
D03*
X27000Y24000D02*
D03*
X27500Y23000D02*
D03*
X27000Y22000D02*
D03*
Y20000D02*
D03*
X26500Y35000D02*
D03*
X26000Y34000D02*
D03*
X26500Y33000D02*
D03*
Y31000D02*
D03*
X26000Y22000D02*
D03*
Y20000D02*
D03*
X25000Y36000D02*
D03*
Y34000D02*
D03*
X25500Y33000D02*
D03*
X25000Y32000D02*
D03*
X25500Y31000D02*
D03*
Y25000D02*
D03*
X25000Y24000D02*
D03*
Y22000D02*
D03*
Y20000D02*
D03*
X24500Y35000D02*
D03*
X24000Y34000D02*
D03*
X24500Y33000D02*
D03*
X24000Y32000D02*
D03*
X24500Y31000D02*
D03*
Y29000D02*
D03*
X24000Y28000D02*
D03*
X24500Y27000D02*
D03*
Y25000D02*
D03*
X24000Y24000D02*
D03*
Y22000D02*
D03*
Y20000D02*
D03*
X23000Y36000D02*
D03*
Y34000D02*
D03*
X23500Y33000D02*
D03*
X23000Y32000D02*
D03*
X23500Y31000D02*
D03*
Y29000D02*
D03*
X23000Y28000D02*
D03*
X23500Y27000D02*
D03*
Y25000D02*
D03*
X23000Y24000D02*
D03*
Y22000D02*
D03*
X23500Y21000D02*
D03*
X23000Y20000D02*
D03*
X22000Y36000D02*
D03*
X22500Y35000D02*
D03*
X22000Y34000D02*
D03*
X22500Y33000D02*
D03*
X22000Y32000D02*
D03*
X22500Y31000D02*
D03*
X22000Y30000D02*
D03*
X22500Y29000D02*
D03*
X22000Y28000D02*
D03*
X22500Y25000D02*
D03*
X22000Y22000D02*
D03*
X22500Y21000D02*
D03*
X22000Y20000D02*
D03*
X21500Y35000D02*
D03*
X21000Y34000D02*
D03*
Y32000D02*
D03*
X21500Y31000D02*
D03*
X21000Y30000D02*
D03*
X21500Y29000D02*
D03*
X21000Y28000D02*
D03*
X21500Y27000D02*
D03*
X21000Y26000D02*
D03*
X21500Y25000D02*
D03*
X21000Y24000D02*
D03*
X21500Y23000D02*
D03*
X21000Y22000D02*
D03*
X21500Y21000D02*
D03*
X39096Y23475D02*
D03*
X38596D02*
D03*
X38346D02*
D03*
X38846D02*
D03*
X38096D02*
D03*
X44696Y30325D02*
D03*
Y34125D02*
D03*
X29069Y25101D02*
D03*
X29497Y25274D02*
D03*
X24996Y29025D02*
D03*
Y25725D02*
D03*
X30046Y28775D02*
D03*
X31346Y24325D02*
D03*
X29396Y28775D02*
D03*
X31046Y32625D02*
D03*
X30446Y23725D02*
D03*
X28446Y27925D02*
D03*
X35096Y29475D02*
D03*
X35716Y29673D02*
D03*
X35246Y29675D02*
D03*
X35846Y29475D02*
D03*
X35474Y29673D02*
D03*
X34946Y29675D02*
D03*
X35596Y29475D02*
D03*
X35346D02*
D03*
X36196Y29625D02*
D03*
X35196Y23375D02*
D03*
X33446Y24225D02*
D03*
X29146Y29275D02*
D03*
Y28875D02*
D03*
X30481Y24990D02*
D03*
X36546Y25425D02*
D03*
X36796D02*
D03*
X39346Y33075D02*
D03*
X39096D02*
D03*
X38846D02*
D03*
X38596D02*
D03*
X38346D02*
D03*
X38096D02*
D03*
Y32825D02*
D03*
X38346D02*
D03*
X38096Y32575D02*
D03*
X38346D02*
D03*
X38596Y32825D02*
D03*
X38846D02*
D03*
X39096D02*
D03*
X39346D02*
D03*
Y32575D02*
D03*
X39096D02*
D03*
X38846D02*
D03*
X36046Y32025D02*
D03*
Y31725D02*
D03*
Y31425D02*
D03*
Y31125D02*
D03*
X36296Y32025D02*
D03*
Y31725D02*
D03*
Y31425D02*
D03*
Y31125D02*
D03*
X36546D02*
D03*
Y31425D02*
D03*
Y31725D02*
D03*
Y32025D02*
D03*
X36796D02*
D03*
Y31725D02*
D03*
Y31425D02*
D03*
Y31125D02*
D03*
X38596Y32575D02*
D03*
X34710Y28960D02*
D03*
X34472Y28914D02*
D03*
X35072Y29066D02*
D03*
X34887Y29217D02*
D03*
X35386Y29063D02*
D03*
X35630Y29063D02*
D03*
X35857D02*
D03*
X35240Y29219D02*
D03*
X34869Y29467D02*
D03*
X34646Y29475D02*
D03*
X38593Y29074D02*
D03*
X39346Y23475D02*
D03*
X38096Y23725D02*
D03*
X38346D02*
D03*
X38096Y23975D02*
D03*
X38346D02*
D03*
X38596Y23725D02*
D03*
X38846D02*
D03*
X39096D02*
D03*
X39346D02*
D03*
Y23975D02*
D03*
X39096D02*
D03*
X38846D02*
D03*
X36046Y24525D02*
D03*
Y24825D02*
D03*
Y25125D02*
D03*
Y25425D02*
D03*
X36296Y24525D02*
D03*
Y24825D02*
D03*
Y25125D02*
D03*
Y25425D02*
D03*
X36546Y25125D02*
D03*
Y24825D02*
D03*
Y24525D02*
D03*
X36796D02*
D03*
Y24825D02*
D03*
Y25125D02*
D03*
X36196Y26925D02*
D03*
X38596Y23975D02*
D03*
X34710Y27590D02*
D03*
X34472Y27636D02*
D03*
X35072Y27484D02*
D03*
X34887Y27333D02*
D03*
X35386Y27487D02*
D03*
X35630Y27487D02*
D03*
X35857D02*
D03*
X35240Y27331D02*
D03*
X34869Y27083D02*
D03*
X35474Y26877D02*
D03*
X35716D02*
D03*
X35246Y26875D02*
D03*
X35096Y27075D02*
D03*
X35346D02*
D03*
X35596D02*
D03*
X35846D02*
D03*
X34646D02*
D03*
X34946Y26875D02*
D03*
D44*
X33196Y26976D02*
D03*
X32763D02*
D03*
X32330D02*
D03*
X31896D02*
D03*
X33196Y27409D02*
D03*
X32763D02*
D03*
X32330D02*
D03*
X31896D02*
D03*
X33196Y27842D02*
D03*
X32763D02*
D03*
X32330D02*
D03*
X31896D02*
D03*
X33196Y28275D02*
D03*
X32763D02*
D03*
X32330D02*
D03*
X31896D02*
D03*
X33196Y28708D02*
D03*
X32763D02*
D03*
X32330D02*
D03*
X31896D02*
D03*
X33196Y29141D02*
D03*
X32763D02*
D03*
X32330D02*
D03*
X31896D02*
D03*
X33196Y29574D02*
D03*
X32763D02*
D03*
X32330D02*
D03*
X31896D02*
D03*
M02*
