G04*
G04 #@! TF.GenerationSoftware,Altium Limited,Altium Designer,20.2.7 (254)*
G04*
G04 Layer_Color=65535*
%FSLAX25Y25*%
%MOIN*%
G70*
G04*
G04 #@! TF.SameCoordinates,ECD674B8-324E-4609-97E5-6B7B15D5A4BB*
G04*
G04*
G04 #@! TF.FilePolarity,Positive*
G04*
G01*
G75*
%ADD10C,0.00700*%
%ADD11C,0.02362*%
%ADD12C,0.00984*%
%ADD13R,0.01000X0.01000*%
%ADD14C,0.00787*%
%ADD15C,0.00600*%
%ADD16C,0.01000*%
%ADD17C,0.00500*%
%ADD18C,0.00400*%
%ADD19C,0.00787*%
G36*
X93500Y-23000D02*
X88900Y-25000D01*
X85300Y-25700D01*
X81900Y-25900D01*
X79000Y-25800D01*
X72900Y-24300D01*
X69500Y-22700D01*
X66800Y-21000D01*
X67000Y-20900D01*
X64400Y-19000D01*
X99300D01*
X93500Y-23000D01*
D02*
G37*
G36*
X47644Y-77328D02*
X47652Y-77316D01*
X47655Y-77315D01*
X47656Y-77313D01*
X47675Y-77311D01*
X47693Y-77307D01*
X48233Y-77403D01*
X48237Y-77406D01*
X48243Y-77406D01*
X49066Y-77723D01*
X49070Y-77727D01*
X49076Y-77728D01*
X49519Y-78011D01*
X49521Y-78014D01*
X49525Y-78015D01*
X49871Y-78302D01*
X49875Y-78309D01*
X49882Y-78314D01*
X50452Y-79201D01*
X50453Y-79205D01*
X50456Y-79208D01*
X50900Y-80222D01*
X50900Y-80233D01*
X50904Y-80243D01*
Y-80907D01*
X50901Y-80914D01*
X50902Y-80922D01*
X50893Y-80932D01*
X50888Y-80945D01*
X50881Y-80948D01*
X50876Y-80954D01*
X50529Y-81144D01*
X50526Y-81144D01*
X50524Y-81147D01*
X50144Y-81307D01*
X50137Y-81307D01*
X50131Y-81310D01*
X49688Y-81374D01*
X49687Y-81373D01*
X49686Y-81374D01*
X49146Y-81437D01*
X49143Y-81436D01*
X49140Y-81437D01*
X48063D01*
X48055Y-81434D01*
X48046Y-81435D01*
X47666Y-81308D01*
X47663Y-81305D01*
X47658Y-81305D01*
X47058Y-80988D01*
X47053Y-80982D01*
X47046Y-80979D01*
X46349Y-80312D01*
X46346Y-80306D01*
X46341Y-80302D01*
X46087Y-79892D01*
X46087Y-79891D01*
X46087Y-79891D01*
X45897Y-79575D01*
X45896Y-79571D01*
X45893Y-79568D01*
X45544Y-78745D01*
X45544Y-78743D01*
X45542Y-78741D01*
X45352Y-78201D01*
X45353Y-78189D01*
X45350Y-78177D01*
X45354Y-78169D01*
X45355Y-78160D01*
X45364Y-78152D01*
X45370Y-78141D01*
X45940Y-77697D01*
X45949Y-77695D01*
X45956Y-77689D01*
X46433Y-77532D01*
X46433Y-77532D01*
X46434Y-77532D01*
X46940Y-77372D01*
X46945Y-77372D01*
X46949Y-77370D01*
X47423Y-77306D01*
X47429Y-77308D01*
X47436Y-77306D01*
X47644Y-77328D01*
D02*
G37*
G36*
X55956Y-77372D02*
X55963Y-77371D01*
X56597Y-77531D01*
X56601Y-77534D01*
X56606Y-77534D01*
X57079Y-77754D01*
X57080Y-77755D01*
X57081Y-77755D01*
X57294Y-77861D01*
X57611Y-78018D01*
X57623Y-78032D01*
X57636Y-78045D01*
X57636Y-78047D01*
X57638Y-78049D01*
X57637Y-78058D01*
X57644Y-78063D01*
X57644Y-78069D01*
X57648Y-78073D01*
X57647Y-78089D01*
X57649Y-78104D01*
X57522Y-78577D01*
X57520Y-78580D01*
Y-78584D01*
X57297Y-79124D01*
X57293Y-79128D01*
X57292Y-79132D01*
X57009Y-79576D01*
X57007Y-79577D01*
X57006Y-79580D01*
X56563Y-80150D01*
X56558Y-80152D01*
X56556Y-80157D01*
X55986Y-80664D01*
X55979Y-80666D01*
X55974Y-80672D01*
X55214Y-81052D01*
X55211Y-81052D01*
X55209Y-81054D01*
X54702Y-81244D01*
X54694Y-81244D01*
X54688Y-81247D01*
X53758Y-81321D01*
X53755Y-81320D01*
X53753Y-81321D01*
X53373D01*
X53368Y-81319D01*
X53363Y-81320D01*
X52889Y-81223D01*
X52889Y-81223D01*
X52888Y-81223D01*
X52475Y-81129D01*
X52473Y-81128D01*
X52471Y-81129D01*
X51939Y-80970D01*
X51719Y-80940D01*
X51710Y-80935D01*
X51698Y-80933D01*
X51542Y-80836D01*
X51539Y-80833D01*
X51536Y-80832D01*
X51528Y-80817D01*
X51517Y-80803D01*
X51518Y-80799D01*
X51516Y-80796D01*
X51453Y-80226D01*
X51454Y-80223D01*
X51452Y-80220D01*
X51458Y-80207D01*
X51460Y-80192D01*
X51650Y-79875D01*
X51652Y-79874D01*
X51652Y-79873D01*
X51872Y-79557D01*
X52031Y-79304D01*
X52034Y-79302D01*
X52036Y-79298D01*
X52224Y-79080D01*
X52379Y-78859D01*
X52385Y-78855D01*
X52389Y-78848D01*
X52574Y-78695D01*
X52698Y-78540D01*
X52704Y-78536D01*
X52707Y-78530D01*
X52994Y-78310D01*
X52996Y-78310D01*
X52997Y-78308D01*
X53607Y-77918D01*
X53610Y-77917D01*
X53612Y-77915D01*
X54182Y-77628D01*
X54188Y-77628D01*
X54192Y-77625D01*
X54732Y-77468D01*
X54735Y-77468D01*
X54738Y-77467D01*
X55338Y-77370D01*
X55343Y-77371D01*
X55347Y-77369D01*
X55950D01*
X55956Y-77372D01*
D02*
G37*
G36*
X52127Y-71388D02*
X52130Y-71388D01*
X52144Y-71398D01*
X52160Y-71407D01*
X52160Y-71410D01*
X52163Y-71413D01*
X52387Y-71793D01*
X52387Y-71796D01*
X52389Y-71798D01*
X52516Y-72080D01*
X52735Y-72523D01*
X52735Y-72527D01*
X52738Y-72530D01*
X52928Y-73099D01*
Y-73100D01*
D01*
X52928Y-73102D01*
X52929Y-73103D01*
X53153Y-73987D01*
X53152Y-73994D01*
X53154Y-74000D01*
Y-74923D01*
X53153Y-74926D01*
X53154Y-74928D01*
X53091Y-75592D01*
X53089Y-75594D01*
X53088Y-75596D01*
X53089Y-75600D01*
X52899Y-76330D01*
X52896Y-76334D01*
X52896Y-76338D01*
X52673Y-76845D01*
X52667Y-76850D01*
X52665Y-76858D01*
X52492Y-77065D01*
X52348Y-77238D01*
X52348Y-77238D01*
X52348Y-77238D01*
X51178Y-78632D01*
X51176Y-78633D01*
X51175Y-78635D01*
X51174Y-78636D01*
X51173Y-78637D01*
X51157Y-78643D01*
X51141Y-78651D01*
X51139Y-78650D01*
X51137Y-78651D01*
X51135Y-78650D01*
X51134Y-78651D01*
X51118Y-78643D01*
X51102Y-78638D01*
X51101Y-78636D01*
X51098Y-78635D01*
X51098Y-78634D01*
X51097Y-78633D01*
X50810Y-78316D01*
X50808Y-78311D01*
X50804Y-78308D01*
X50520Y-77831D01*
X50520Y-77829D01*
X50519Y-77829D01*
X50202Y-77229D01*
X50202Y-77226D01*
X50200Y-77225D01*
X49914Y-76558D01*
X49913Y-76553D01*
X49911Y-76548D01*
X49720Y-75695D01*
X49722Y-75688D01*
X49719Y-75681D01*
X49753Y-74825D01*
X49755Y-74819D01*
X49754Y-74813D01*
X49974Y-73960D01*
X49976Y-73957D01*
X49976Y-73954D01*
X50229Y-73287D01*
X50234Y-73282D01*
X50235Y-73276D01*
X50586Y-72769D01*
X50588Y-72768D01*
X50589Y-72765D01*
X50999Y-72291D01*
X51004Y-72289D01*
X51006Y-72284D01*
X51322Y-72032D01*
X51670Y-71716D01*
X51673Y-71716D01*
X51674Y-71714D01*
X52084Y-71397D01*
X52087Y-71396D01*
X52089Y-71393D01*
X52107Y-71391D01*
X52124Y-71386D01*
X52127Y-71388D01*
D02*
G37*
G36*
X57461Y-81530D02*
X57462Y-81529D01*
X58125Y-81559D01*
X58157D01*
X58165Y-81563D01*
X58173Y-81562D01*
X58680Y-81722D01*
X58681Y-81723D01*
X58684Y-81723D01*
X59157Y-81913D01*
X59163Y-81919D01*
X59171Y-81921D01*
X59677Y-82331D01*
X59682Y-82341D01*
X59691Y-82347D01*
X59692Y-82358D01*
X59697Y-82368D01*
X59694Y-82378D01*
X59695Y-82388D01*
X59505Y-83055D01*
X59503Y-83058D01*
X59502Y-83063D01*
X59312Y-83473D01*
X59311Y-83474D01*
X59310Y-83477D01*
X59057Y-83920D01*
X59055Y-83921D01*
X59055Y-83923D01*
X58802Y-84303D01*
X58799Y-84305D01*
X58799Y-84307D01*
X58515Y-84657D01*
X58511Y-84660D01*
X58509Y-84664D01*
X58223Y-84917D01*
X58219Y-84918D01*
X58218Y-84921D01*
X57584Y-85364D01*
X57582Y-85365D01*
X57580Y-85367D01*
X57137Y-85620D01*
X57132Y-85621D01*
X57128Y-85624D01*
X56494Y-85844D01*
X56490Y-85844D01*
X56487Y-85847D01*
X55980Y-85943D01*
X55975Y-85942D01*
X55970Y-85944D01*
X55307D01*
X55303Y-85943D01*
X55300Y-85944D01*
X53873Y-85754D01*
X53866Y-85750D01*
X53857Y-85749D01*
X53097Y-85399D01*
X53088Y-85389D01*
X53076Y-85381D01*
X53074Y-85374D01*
X53069Y-85369D01*
X53070Y-85355D01*
X53067Y-85341D01*
X53097Y-85170D01*
X52756Y-84553D01*
X52755Y-84543D01*
X52750Y-84535D01*
X52751Y-84531D01*
X52749Y-84527D01*
X52752Y-84519D01*
X52751Y-84512D01*
X52757Y-84504D01*
X52759Y-84495D01*
X53329Y-83705D01*
X53331Y-83704D01*
X53332Y-83702D01*
X53935Y-82972D01*
X53939Y-82970D01*
X53941Y-82966D01*
X54257Y-82683D01*
X54260Y-82682D01*
X54262Y-82679D01*
X54579Y-82456D01*
X54582Y-82455D01*
X54584Y-82452D01*
X54930Y-82263D01*
X55499Y-81917D01*
X55504Y-81916D01*
X55507Y-81913D01*
X56174Y-81659D01*
X56179Y-81660D01*
X56183Y-81657D01*
X56846Y-81530D01*
X56852Y-81531D01*
X56857Y-81529D01*
X57460D01*
X57461Y-81530D01*
D02*
G37*
G36*
X48816Y-82509D02*
X48819Y-82511D01*
X48822Y-82510D01*
X49425Y-82607D01*
X49429Y-82609D01*
X49434Y-82609D01*
X49814Y-82735D01*
X49815Y-82737D01*
X49817Y-82737D01*
X50354Y-82957D01*
X50355Y-82958D01*
X50356Y-82958D01*
X50833Y-83181D01*
X50835Y-83183D01*
X50838Y-83184D01*
X51163Y-83378D01*
X51164Y-83377D01*
X51179Y-83367D01*
X51182Y-83368D01*
X51185Y-83366D01*
X51202Y-83371D01*
X51219Y-83375D01*
X51756Y-83721D01*
X51767Y-83737D01*
X51779Y-83752D01*
X51779Y-83754D01*
X51780Y-83755D01*
X51776Y-83774D01*
X51774Y-83793D01*
X51772Y-83794D01*
X51772Y-83796D01*
X51756Y-83807D01*
X51741Y-83819D01*
X51739Y-83819D01*
X51738Y-83820D01*
X51719Y-83816D01*
X51700Y-83814D01*
X51698Y-83813D01*
X51895Y-84049D01*
X51895Y-84051D01*
X51897Y-84052D01*
X51902Y-84070D01*
X51907Y-84088D01*
X51906Y-84090D01*
X51907Y-84092D01*
X51881Y-84255D01*
X52145Y-84522D01*
X52149Y-84532D01*
X52157Y-84539D01*
X52537Y-85456D01*
X52537Y-85467D01*
X52541Y-85477D01*
X52537Y-85485D01*
X52538Y-85494D01*
X52537Y-85495D01*
Y-85497D01*
X52529Y-85505D01*
X52525Y-85515D01*
X52517Y-85518D01*
X52511Y-85525D01*
X51498Y-86032D01*
X51494Y-86032D01*
X51491Y-86034D01*
X50858Y-86258D01*
X50857Y-86258D01*
X50855Y-86259D01*
X50222Y-86449D01*
X50217Y-86448D01*
X50212Y-86450D01*
X49579Y-86514D01*
X49575Y-86513D01*
X49571Y-86514D01*
X48685Y-86481D01*
X48681Y-86479D01*
X48676Y-86480D01*
X48203Y-86386D01*
X48199Y-86383D01*
X48193Y-86384D01*
X47717Y-86194D01*
X47716Y-86193D01*
X47715Y-86193D01*
X47208Y-85970D01*
X47206Y-85967D01*
X47203Y-85967D01*
X46666Y-85650D01*
X46662Y-85645D01*
X46655Y-85642D01*
X46530Y-85519D01*
X46430Y-85500D01*
X46415Y-85490D01*
X46398Y-85481D01*
X46112Y-85132D01*
X45860Y-84849D01*
X45859Y-84848D01*
X45858Y-84847D01*
X45604Y-84531D01*
X45603Y-84526D01*
X45599Y-84523D01*
X45443Y-84236D01*
X45442Y-84234D01*
X45441Y-84233D01*
X45281Y-83886D01*
X45280Y-83873D01*
X45276Y-83862D01*
X45280Y-83854D01*
X45279Y-83845D01*
X45288Y-83835D01*
X45293Y-83824D01*
X45896Y-83254D01*
X45899Y-83253D01*
X45900Y-83250D01*
X46310Y-82934D01*
X46318Y-82932D01*
X46323Y-82926D01*
X46639Y-82800D01*
X46862Y-82704D01*
X46864Y-82704D01*
X46866Y-82702D01*
X47246Y-82575D01*
X47251Y-82576D01*
X47254Y-82573D01*
X47634Y-82510D01*
X47637Y-82511D01*
X47640Y-82509D01*
X48083Y-82479D01*
X48086Y-82480D01*
X48089Y-82479D01*
X48816Y-82509D01*
D02*
G37*
D10*
X106900Y-900D02*
G03*
X106900Y-900I-25000J0D01*
G01*
X82000Y17200D02*
Y20100D01*
X80500Y18600D02*
X83600D01*
X61700Y-91300D02*
Y-87551D01*
X63574D01*
X64199Y-88176D01*
Y-89426D01*
X63574Y-90050D01*
X61700D01*
X65449Y-91300D02*
Y-88801D01*
X66698Y-87551D01*
X67948Y-88801D01*
Y-91300D01*
Y-89426D01*
X65449D01*
X69198Y-87551D02*
Y-88176D01*
X70447Y-89426D01*
X71697Y-88176D01*
Y-87551D01*
X70447Y-89426D02*
Y-91300D01*
X76695Y-87551D02*
X77945D01*
X77320D01*
Y-91300D01*
X76695D01*
X77945D01*
X79819Y-87551D02*
X82318D01*
X81069D01*
Y-91300D01*
X89816Y-87551D02*
X87317D01*
Y-89426D01*
X88566D01*
X87317D01*
Y-91300D01*
X92940Y-87551D02*
X91690D01*
X91066Y-88176D01*
Y-90675D01*
X91690Y-91300D01*
X92940D01*
X93565Y-90675D01*
Y-88176D01*
X92940Y-87551D01*
X94814Y-91300D02*
Y-87551D01*
X96689D01*
X97313Y-88176D01*
Y-89426D01*
X96689Y-90050D01*
X94814D01*
X96064D02*
X97313Y-91300D01*
X98563Y-87551D02*
Y-91300D01*
X99813Y-90050D01*
X101062Y-91300D01*
Y-87551D01*
X102312Y-91300D02*
Y-88801D01*
X103561Y-87551D01*
X104811Y-88801D01*
Y-91300D01*
Y-89426D01*
X102312D01*
X106061Y-91300D02*
Y-87551D01*
X107935D01*
X108560Y-88176D01*
Y-89426D01*
X107935Y-90050D01*
X106061D01*
X107310D02*
X108560Y-91300D01*
X109810Y-87551D02*
Y-91300D01*
X111684D01*
X112309Y-90675D01*
Y-88176D01*
X111684Y-87551D01*
X109810D01*
D11*
X-44557Y27559D02*
G03*
X-44557Y27559I-1181J0D01*
G01*
D12*
X-54794Y24902D02*
G03*
X-54794Y24902I-492J0D01*
G01*
X-129497Y-84017D02*
G03*
X-129497Y-84017I-492J0D01*
G01*
X-159275Y-83700D02*
G03*
X-159275Y-83700I-492J0D01*
G01*
X-159375Y-51900D02*
G03*
X-159375Y-51900I-492J0D01*
G01*
X-106490Y85559D02*
G03*
X-106490Y85559I-492J0D01*
G01*
D13*
X58800Y-89800D02*
D03*
D14*
X51117Y-78453D02*
X51170Y-78107D01*
X51090Y-79147D02*
X51117Y-78453D01*
X51090Y-79147D02*
X51143Y-79733D01*
X51197Y-80373D01*
X51330Y-81307D01*
X51437Y-81867D01*
X51727Y-82883D01*
X51807Y-83150D01*
X52207Y-84110D01*
X52607Y-84857D01*
X53273Y-86110D01*
X53567Y-86617D01*
X53833Y-87017D01*
X54207Y-87443D01*
X54497Y-87713D01*
X55103Y-88210D01*
X55873Y-88650D01*
X56257Y-88870D01*
X56753Y-89033D01*
X58897Y-89803D01*
X51117Y-78453D02*
X51170Y-78107D01*
X51090Y-79147D02*
X51117Y-78453D01*
X51090Y-79147D02*
X51143Y-79733D01*
X51197Y-80373D01*
X51330Y-81307D01*
X51437Y-81867D01*
X51727Y-82883D01*
X51807Y-83150D01*
X52207Y-84110D01*
X52607Y-84857D01*
X53273Y-86110D01*
X53567Y-86617D01*
X53833Y-87017D01*
X54207Y-87443D01*
X54497Y-87713D01*
X55103Y-88210D01*
X55873Y-88650D01*
X56257Y-88870D01*
X56753Y-89033D01*
X58897Y-89803D01*
D15*
X-160700Y79300D02*
Y82300D01*
Y79300D02*
Y80800D01*
X-159800D01*
X-161500D02*
X-159800D01*
X-160400Y57900D02*
Y63200D01*
X-71850Y58100D02*
X-71350D01*
X-71850Y54600D02*
Y58100D01*
Y53500D02*
Y54600D01*
Y53500D02*
X-60850D01*
Y58100D01*
X-71350D02*
X-60850D01*
X-71901Y51097D02*
X-71401D01*
X-71901Y47597D02*
Y51097D01*
Y46497D02*
Y47597D01*
Y46497D02*
X-60901D01*
Y51097D01*
X-71401D02*
X-60901D01*
X-73525Y-36604D02*
Y-26504D01*
X-68325D01*
Y-36604D02*
Y-26504D01*
X-73525Y-36604D02*
X-68325D01*
X-67300Y-36600D02*
Y-26500D01*
X-62100D01*
Y-36600D02*
Y-26500D01*
X-67300Y-36600D02*
X-62100D01*
X-67100Y31000D02*
Y41100D01*
X-61900D01*
Y31000D02*
Y41100D01*
X-67100Y31000D02*
X-61900D01*
X10700Y17900D02*
Y28000D01*
X15900D01*
Y17900D02*
Y28000D01*
X10700Y17900D02*
X15900D01*
X10800Y-28300D02*
Y-18200D01*
X16000D01*
Y-28300D02*
Y-18200D01*
X10800Y-28300D02*
X16000D01*
X47400Y2800D02*
Y12900D01*
X52600D01*
Y2800D02*
Y12900D01*
X47400Y2800D02*
X52600D01*
X47500Y-12900D02*
Y-2800D01*
X52700D01*
Y-12900D02*
Y-2800D01*
X47500Y-12900D02*
X52700D01*
X40000Y-27400D02*
X50100D01*
Y-32600D02*
Y-27400D01*
X40000Y-32600D02*
X50100D01*
X40000D02*
Y-27400D01*
X40100Y32500D02*
X50200D01*
Y27300D02*
Y32500D01*
X40100Y27300D02*
X50200D01*
X40100D02*
Y32500D01*
X12500Y42000D02*
X22600D01*
Y36800D02*
Y42000D01*
X12500Y36800D02*
X22600D01*
X12500D02*
Y42000D01*
X6500Y35000D02*
X16600D01*
Y29800D02*
Y35000D01*
X6500Y29800D02*
X16600D01*
X6500D02*
Y35000D01*
X12600Y-37000D02*
X22700D01*
Y-42200D02*
Y-37000D01*
X12600Y-42200D02*
X22700D01*
X12600D02*
Y-37000D01*
X6700Y-30000D02*
X16800D01*
Y-35200D02*
Y-30000D01*
X6700Y-35200D02*
X16800D01*
X6700D02*
Y-30000D01*
X-25101Y-58200D02*
X-14601D01*
X-25101D02*
Y-53600D01*
X-14101D01*
Y-54700D02*
Y-53600D01*
Y-58200D02*
Y-54700D01*
X-14601Y-58200D02*
X-14101D01*
X-52050D02*
X-41550D01*
X-52050D02*
Y-53600D01*
X-41050D01*
Y-54700D02*
Y-53600D01*
Y-58200D02*
Y-54700D01*
X-41550Y-58200D02*
X-41050D01*
X-95350Y-77400D02*
Y-66900D01*
X-101400Y-77400D02*
Y-66900D01*
Y-77400D02*
X-89300D01*
Y-66900D01*
X-101400D02*
X-89300D01*
X-81400Y-12300D02*
Y-7100D01*
Y-12300D02*
X-71300D01*
Y-7100D01*
X-81400D02*
X-71300D01*
X-81400Y1100D02*
X-81000D01*
X-81400Y-4100D02*
Y1100D01*
Y-4100D02*
X-71200D01*
Y1100D01*
X-81000D02*
X-71200D01*
X-81400Y7600D02*
X-81000D01*
X-81400Y2400D02*
Y7600D01*
Y2400D02*
X-71200D01*
Y7600D01*
X-81000D02*
X-71200D01*
X-52601Y50199D02*
X-53101Y50699D01*
X-54100D01*
X-54600Y50199D01*
Y48200D01*
X-54100Y47700D01*
X-53101D01*
X-52601Y48200D01*
Y49200D01*
X-53600D01*
X-51601Y50699D02*
Y48700D01*
X-50601Y47700D01*
X-49602Y48700D01*
Y50699D01*
X-48602D02*
Y47700D01*
X-47102D01*
X-46603Y48200D01*
Y50199D01*
X-47102Y50699D01*
X-48602D01*
X-45603D02*
Y47700D01*
X-44103D01*
X-43604Y48200D01*
Y50199D01*
X-44103Y50699D01*
X-45603D01*
X-54700Y54300D02*
Y57299D01*
X-53201D01*
X-52701Y56799D01*
Y55800D01*
X-53201Y55300D01*
X-54700D01*
X-51701Y57299D02*
Y55300D01*
X-50701Y54300D01*
X-49702Y55300D01*
Y57299D01*
X-48702D02*
Y54300D01*
X-47202D01*
X-46703Y54800D01*
Y56799D01*
X-47202Y57299D01*
X-48702D01*
X-45703D02*
Y54300D01*
X-44203D01*
X-43704Y54800D01*
Y56799D01*
X-44203Y57299D01*
X-45703D01*
X-60700Y63200D02*
Y66199D01*
X-59201D01*
X-58701Y65699D01*
Y64700D01*
X-59201Y64200D01*
X-60700D01*
X-59700D02*
X-58701Y63200D01*
X-55702Y66199D02*
X-57701D01*
Y63200D01*
X-55702D01*
X-57701Y64700D02*
X-56701D01*
X-54702Y63200D02*
Y66199D01*
X-53702Y65199D01*
X-52703Y66199D01*
Y63200D01*
X-50203Y66199D02*
X-51203D01*
X-51703Y65699D01*
Y63700D01*
X-51203Y63200D01*
X-50203D01*
X-49704Y63700D01*
Y65699D01*
X-50203Y66199D01*
X-48704D02*
Y64200D01*
X-47704Y63200D01*
X-46705Y64200D01*
Y66199D01*
X-43705D02*
X-45705D01*
Y63200D01*
X-43705D01*
X-45705Y64700D02*
X-44705D01*
X-39707Y63200D02*
Y66199D01*
X-38207D01*
X-37707Y65699D01*
Y64700D01*
X-38207Y64200D01*
X-39707D01*
X-36708Y66199D02*
X-34708D01*
Y65699D01*
X-36708Y63700D01*
Y63200D01*
X-30710Y66199D02*
X-29710D01*
X-30210D01*
Y63200D01*
X-30710D01*
X-29710D01*
X-26211Y66199D02*
X-28210D01*
Y64700D01*
X-27211D01*
X-28210D01*
Y63200D01*
X-22212D02*
Y66199D01*
X-20713D01*
X-20213Y65699D01*
Y64700D01*
X-20713Y64200D01*
X-22212D01*
X-19213Y66199D02*
Y64200D01*
X-18214Y63200D01*
X-17214Y64200D01*
Y66199D01*
X-16214D02*
Y63200D01*
X-14715D01*
X-14215Y63700D01*
Y65699D01*
X-14715Y66199D01*
X-16214D01*
X-13215D02*
Y63200D01*
X-11716D01*
X-11216Y63700D01*
Y65699D01*
X-11716Y66199D01*
X-13215D01*
X-7217Y63200D02*
X-5718Y64700D01*
X-7217Y66199D01*
X-1719Y63200D02*
X-719D01*
X-1219D01*
Y66199D01*
X-1719Y65699D01*
X2780Y63200D02*
X780D01*
X2780Y65199D01*
Y65699D01*
X2280Y66199D01*
X1280D01*
X780Y65699D01*
X3779Y66199D02*
Y64200D01*
X4779Y63200D01*
X5779Y64200D01*
Y66199D01*
X-51501Y-59401D02*
X-53500D01*
Y-60900D01*
X-52500D01*
X-53500D01*
Y-62400D01*
X-50501D02*
Y-60401D01*
X-49501Y-59401D01*
X-48502Y-60401D01*
Y-62400D01*
Y-60900D01*
X-50501D01*
X-47502Y-59401D02*
Y-61900D01*
X-47002Y-62400D01*
X-46002D01*
X-45503Y-61900D01*
Y-59401D01*
X-44503D02*
Y-62400D01*
X-42504D01*
X-41504Y-59401D02*
X-39505D01*
X-40504D01*
Y-62400D01*
X-22200Y-59301D02*
X-23200D01*
X-23700Y-59801D01*
Y-61800D01*
X-23200Y-62300D01*
X-22200D01*
X-21701Y-61800D01*
Y-59801D01*
X-22200Y-59301D01*
X-20701D02*
X-18702D01*
X-19701D01*
Y-62300D01*
X-17702Y-59301D02*
Y-62300D01*
X-16702Y-61300D01*
X-15703Y-62300D01*
Y-59301D01*
X-129201Y39699D02*
X-129701Y40199D01*
X-130700D01*
X-131200Y39699D01*
Y37700D01*
X-130700Y37200D01*
X-129701D01*
X-129201Y37700D01*
Y38699D01*
X-130200D01*
X-128201Y37200D02*
Y40199D01*
X-126202Y37200D01*
Y40199D01*
X-125202D02*
Y37200D01*
X-123702D01*
X-123203Y37700D01*
Y39699D01*
X-123702Y40199D01*
X-125202D01*
X-129201Y29655D02*
X-129701Y30155D01*
X-130700D01*
X-131200Y29655D01*
Y27655D01*
X-130700Y27156D01*
X-129701D01*
X-129201Y27655D01*
Y28655D01*
X-130200D01*
X-128201Y27156D02*
Y30155D01*
X-126202Y27156D01*
Y30155D01*
X-125202D02*
Y27156D01*
X-123702D01*
X-123203Y27655D01*
Y29655D01*
X-123702Y30155D01*
X-125202D01*
X-129701Y20110D02*
X-130700D01*
X-131200Y19610D01*
Y17611D01*
X-130700Y17111D01*
X-129701D01*
X-129201Y17611D01*
Y19610D01*
X-129701Y20110D01*
X-128201D02*
X-126202D01*
X-127201D01*
Y17111D01*
X-125202Y20110D02*
Y17111D01*
X-124202Y18111D01*
X-123203Y17111D01*
Y20110D01*
X-129201Y10066D02*
X-131200D01*
Y8566D01*
X-130200D01*
X-131200D01*
Y7067D01*
X-128201D02*
Y9066D01*
X-127201Y10066D01*
X-126202Y9066D01*
Y7067D01*
Y8566D01*
X-128201D01*
X-125202Y10066D02*
Y7566D01*
X-124702Y7067D01*
X-123702D01*
X-123203Y7566D01*
Y10066D01*
X-122203D02*
Y7067D01*
X-120204D01*
X-119204Y10066D02*
X-117204D01*
X-118204D01*
Y7067D01*
X-131200Y-2478D02*
Y521D01*
X-129701D01*
X-129201Y21D01*
Y-978D01*
X-129701Y-1478D01*
X-131200D01*
X-128201Y521D02*
Y-2478D01*
X-127201Y-1478D01*
X-126202Y-2478D01*
Y521D01*
X-125202Y-2478D02*
Y521D01*
X-124202Y-479D01*
X-123203Y521D01*
Y-2478D01*
X-122203Y-2978D02*
X-120204D01*
X-119204Y-2478D02*
Y-479D01*
X-118204Y521D01*
X-117204Y-479D01*
Y-2478D01*
Y-978D01*
X-119204D01*
X-131200Y-12522D02*
Y-9523D01*
X-129701D01*
X-129201Y-10023D01*
Y-11023D01*
X-129701Y-11523D01*
X-131200D01*
X-130200D02*
X-129201Y-12522D01*
X-126202Y-9523D02*
X-128201D01*
Y-12522D01*
X-126202D01*
X-128201Y-11023D02*
X-127201D01*
X-123203Y-10023D02*
X-123702Y-9523D01*
X-124702D01*
X-125202Y-10023D01*
Y-10523D01*
X-124702Y-11023D01*
X-123702D01*
X-123203Y-11523D01*
Y-12023D01*
X-123702Y-12522D01*
X-124702D01*
X-125202Y-12023D01*
X-120204Y-9523D02*
X-122203D01*
Y-12522D01*
X-120204D01*
X-122203Y-11023D02*
X-121203D01*
X-119204Y-9523D02*
X-117204D01*
X-118204D01*
Y-12522D01*
X-116205Y-13022D02*
X-114206D01*
X-113206Y-12522D02*
Y-10523D01*
X-112206Y-9523D01*
X-111206Y-10523D01*
Y-12522D01*
Y-11023D01*
X-113206D01*
X-110207Y-9523D02*
Y-12522D01*
X-108707D01*
X-108207Y-12023D01*
Y-11523D01*
X-108707Y-11023D01*
X-110207D01*
X-108707D01*
X-108207Y-10523D01*
Y-10023D01*
X-108707Y-9523D01*
X-110207D01*
X-131200Y-22567D02*
Y-19568D01*
X-129701D01*
X-129201Y-20068D01*
Y-21067D01*
X-129701Y-21567D01*
X-131200D01*
X-128201Y-19568D02*
Y-22567D01*
X-127201Y-21567D01*
X-126202Y-22567D01*
Y-19568D01*
X-125202Y-22567D02*
Y-19568D01*
X-124202Y-20568D01*
X-123203Y-19568D01*
Y-22567D01*
X-122203Y-23067D02*
X-120204D01*
X-119204Y-19568D02*
Y-22567D01*
X-117704D01*
X-117204Y-22067D01*
Y-21567D01*
X-117704Y-21067D01*
X-119204D01*
X-117704D01*
X-117204Y-20568D01*
Y-20068D01*
X-117704Y-19568D01*
X-119204D01*
X-131200Y-32611D02*
Y-29612D01*
X-129701D01*
X-129201Y-30112D01*
Y-31112D01*
X-129701Y-31612D01*
X-131200D01*
X-128201Y-29612D02*
Y-32611D01*
X-127201Y-31612D01*
X-126202Y-32611D01*
Y-29612D01*
X-125202Y-32611D02*
Y-29612D01*
X-124202Y-30612D01*
X-123203Y-29612D01*
Y-32611D01*
X-122203Y-33111D02*
X-120204D01*
X-117204Y-30112D02*
X-117704Y-29612D01*
X-118704D01*
X-119204Y-30112D01*
Y-32111D01*
X-118704Y-32611D01*
X-117704D01*
X-117204Y-32111D01*
X-131200Y-42656D02*
Y-39657D01*
X-129701D01*
X-129201Y-40156D01*
Y-41156D01*
X-129701Y-41656D01*
X-131200D01*
X-130200D02*
X-129201Y-42656D01*
X-126202Y-39657D02*
X-128201D01*
Y-42656D01*
X-126202D01*
X-128201Y-41156D02*
X-127201D01*
X-123203Y-40156D02*
X-123702Y-39657D01*
X-124702D01*
X-125202Y-40156D01*
Y-40656D01*
X-124702Y-41156D01*
X-123702D01*
X-123203Y-41656D01*
Y-42156D01*
X-123702Y-42656D01*
X-124702D01*
X-125202Y-42156D01*
X-120204Y-39657D02*
X-122203D01*
Y-42656D01*
X-120204D01*
X-122203Y-41156D02*
X-121203D01*
X-119204Y-39657D02*
X-117204D01*
X-118204D01*
Y-42656D01*
X-116205Y-43156D02*
X-114206D01*
X-111206Y-40156D02*
X-111706Y-39657D01*
X-112706D01*
X-113206Y-40156D01*
Y-42156D01*
X-112706Y-42656D01*
X-111706D01*
X-111206Y-42156D01*
X-110207Y-39657D02*
Y-42656D01*
X-108707D01*
X-108207Y-42156D01*
Y-40156D01*
X-108707Y-39657D01*
X-110207D01*
X-131200Y-52700D02*
Y-49701D01*
X-129701D01*
X-129201Y-50201D01*
Y-51201D01*
X-129701Y-51701D01*
X-131200D01*
X-128201Y-49701D02*
Y-52700D01*
X-127201Y-51701D01*
X-126202Y-52700D01*
Y-49701D01*
X-125202Y-52700D02*
Y-49701D01*
X-124202Y-50701D01*
X-123203Y-49701D01*
Y-52700D01*
X-122203Y-53200D02*
X-120204D01*
X-119204Y-49701D02*
Y-52700D01*
X-117704D01*
X-117204Y-52200D01*
Y-50201D01*
X-117704Y-49701D01*
X-119204D01*
X12300Y-13749D02*
X11801Y-14249D01*
Y-15249D01*
X12300Y-15749D01*
X14300D01*
X14799Y-15249D01*
Y-14249D01*
X14300Y-13749D01*
X14799Y-12750D02*
Y-11750D01*
Y-12250D01*
X11801D01*
X12300Y-12750D01*
Y-10251D02*
X11801Y-9751D01*
Y-8751D01*
X12300Y-8251D01*
X12800D01*
X13300Y-8751D01*
X13800Y-8251D01*
X14300D01*
X14799Y-8751D01*
Y-9751D01*
X14300Y-10251D01*
X13800D01*
X13300Y-9751D01*
X12800Y-10251D01*
X12300D01*
X13300Y-9751D02*
Y-8751D01*
X26800Y40300D02*
X26300Y40799D01*
X25301D01*
X24801Y40300D01*
Y38300D01*
X25301Y37800D01*
X26300D01*
X26800Y38300D01*
X29299Y37800D02*
Y40799D01*
X27800Y39300D01*
X29799D01*
X12400Y12300D02*
X11901Y11800D01*
Y10801D01*
X12400Y10301D01*
X14400D01*
X14899Y10801D01*
Y11800D01*
X14400Y12300D01*
X11901Y15299D02*
Y13300D01*
X13400D01*
X12900Y14299D01*
Y14799D01*
X13400Y15299D01*
X14400D01*
X14899Y14799D01*
Y13800D01*
X14400Y13300D01*
X20800Y32900D02*
X20300Y33400D01*
X19301D01*
X18801Y32900D01*
Y30900D01*
X19301Y30400D01*
X20300D01*
X20800Y30900D01*
X21800Y32900D02*
X22300Y33400D01*
X23299D01*
X23799Y32900D01*
Y32400D01*
X23299Y31900D01*
X22799D01*
X23299D01*
X23799Y31400D01*
Y30900D01*
X23299Y30400D01*
X22300D01*
X21800Y30900D01*
X117200Y-37599D02*
X114200D01*
Y-36100D01*
X114700Y-35600D01*
X115700D01*
X116200Y-36100D01*
Y-37599D01*
X117200Y-33101D02*
X114200D01*
X115700Y-34600D01*
Y-32601D01*
X100300Y-68149D02*
X99800Y-68649D01*
Y-69649D01*
X100300Y-70149D01*
X102300D01*
X102799Y-69649D01*
Y-68649D01*
X102300Y-68149D01*
X102799Y-67150D02*
Y-66150D01*
Y-66650D01*
X99800D01*
X100300Y-67150D01*
X102799Y-62651D02*
Y-64651D01*
X100800Y-62651D01*
X100300D01*
X99800Y-63151D01*
Y-64151D01*
X100300Y-64651D01*
X100700Y-38300D02*
X100200Y-38800D01*
Y-39799D01*
X100700Y-40299D01*
X102700D01*
X103200Y-39799D01*
Y-38800D01*
X102700Y-38300D01*
X100200Y-35301D02*
X100700Y-36301D01*
X101700Y-37300D01*
X102700D01*
X103200Y-36800D01*
Y-35801D01*
X102700Y-35301D01*
X102200D01*
X101700Y-35801D01*
Y-37300D01*
X117200Y14801D02*
X114200D01*
Y16300D01*
X114700Y16800D01*
X115700D01*
X116200Y16300D01*
Y14801D01*
X114700Y17800D02*
X114200Y18300D01*
Y19299D01*
X114700Y19799D01*
X115200D01*
X115700Y19299D01*
Y18800D01*
Y19299D01*
X116200Y19799D01*
X116700D01*
X117200Y19299D01*
Y18300D01*
X116700Y17800D01*
X117499Y66001D02*
X114500D01*
Y67500D01*
X115000Y68000D01*
X116000D01*
X116500Y67500D01*
Y66001D01*
X114500Y70999D02*
Y69000D01*
X116000D01*
X115500Y69999D01*
Y70499D01*
X116000Y70999D01*
X117000D01*
X117499Y70499D01*
Y69500D01*
X117000Y69000D01*
X100800Y66500D02*
X100301Y66000D01*
Y65001D01*
X100800Y64501D01*
X102800D01*
X103299Y65001D01*
Y66000D01*
X102800Y66500D01*
X100301Y67500D02*
Y69499D01*
X100800D01*
X102800Y67500D01*
X103299D01*
X100800Y35751D02*
X100301Y35251D01*
Y34251D01*
X100800Y33751D01*
X102800D01*
X103299Y34251D01*
Y35251D01*
X102800Y35751D01*
X103299Y36750D02*
Y37750D01*
Y37250D01*
X100301D01*
X100800Y36750D01*
Y39249D02*
X100301Y39749D01*
Y40749D01*
X100800Y41249D01*
X101300D01*
X101800Y40749D01*
Y40249D01*
Y40749D01*
X102300Y41249D01*
X102800D01*
X103299Y40749D01*
Y39749D01*
X102800Y39249D01*
X72300Y29300D02*
X71800Y29800D01*
X70801D01*
X70301Y29300D01*
Y27300D01*
X70801Y26801D01*
X71800D01*
X72300Y27300D01*
X73300Y29300D02*
X73800Y29800D01*
X74799D01*
X75299Y29300D01*
Y28800D01*
X74799Y28300D01*
X75299Y27800D01*
Y27300D01*
X74799Y26801D01*
X73800D01*
X73300Y27300D01*
Y27800D01*
X73800Y28300D01*
X73300Y28800D01*
Y29300D01*
X73800Y28300D02*
X74799D01*
X53900Y30000D02*
X53400Y30500D01*
X52401D01*
X51901Y30000D01*
Y28000D01*
X52401Y27501D01*
X53400D01*
X53900Y28000D01*
X54900D02*
X55400Y27501D01*
X56399D01*
X56899Y28000D01*
Y30000D01*
X56399Y30500D01*
X55400D01*
X54900Y30000D01*
Y29500D01*
X55400Y29000D01*
X56899D01*
X53951Y-29300D02*
X53451Y-28800D01*
X52451D01*
X51951Y-29300D01*
Y-31300D01*
X52451Y-31800D01*
X53451D01*
X53951Y-31300D01*
X54950Y-31800D02*
X55950D01*
X55450D01*
Y-28800D01*
X54950Y-29300D01*
X59449Y-28800D02*
X57449D01*
Y-30300D01*
X58449Y-29800D01*
X58949D01*
X59449Y-30300D01*
Y-31300D01*
X58949Y-31800D01*
X57949D01*
X57449Y-31300D01*
X49600Y-20049D02*
X49101Y-20549D01*
Y-21549D01*
X49600Y-22049D01*
X51600D01*
X52100Y-21549D01*
Y-20549D01*
X51600Y-20049D01*
X52100Y-19050D02*
Y-18050D01*
Y-18550D01*
X49101D01*
X49600Y-19050D01*
X52100Y-15051D02*
X49101D01*
X50600Y-16551D01*
Y-14551D01*
X48800Y16951D02*
X48300Y16451D01*
Y15451D01*
X48800Y14951D01*
X50800D01*
X51300Y15451D01*
Y16451D01*
X50800Y16951D01*
X51300Y17950D02*
Y18950D01*
Y18450D01*
X48300D01*
X48800Y17950D01*
Y20449D02*
X48300Y20949D01*
Y21949D01*
X48800Y22449D01*
X50800D01*
X51300Y21949D01*
Y20949D01*
X50800Y20449D01*
X48800D01*
X-78499Y56899D02*
Y53900D01*
X-77000D01*
X-76500Y54400D01*
Y56400D01*
X-77000Y56899D01*
X-78499D01*
X-73501Y53900D02*
X-75500D01*
X-73501Y55900D01*
Y56400D01*
X-74001Y56899D01*
X-75000D01*
X-75500Y56400D01*
X-78399Y49999D02*
Y47001D01*
X-76900D01*
X-76400Y47500D01*
Y49500D01*
X-76900Y49999D01*
X-78399D01*
X-75400Y47001D02*
X-74401D01*
X-74901D01*
Y49999D01*
X-75400Y49500D01*
X-60200Y33400D02*
X-60699Y32900D01*
Y31901D01*
X-60200Y31401D01*
X-58200D01*
X-57701Y31901D01*
Y32900D01*
X-58200Y33400D01*
X-57701Y36399D02*
Y34400D01*
X-59700Y36399D01*
X-60200D01*
X-60699Y35899D01*
Y34900D01*
X-60200Y34400D01*
X-49299Y36799D02*
Y34300D01*
X-48799Y33801D01*
X-47800D01*
X-47300Y34300D01*
Y36799D01*
X-46300Y33801D02*
X-45301D01*
X-45801D01*
Y36799D01*
X-46300Y36300D01*
X-82901Y-19999D02*
X-85900D01*
Y-18500D01*
X-85400Y-18000D01*
X-84400D01*
X-83900Y-18500D01*
Y-19999D01*
X-83400Y-17000D02*
X-82901Y-16500D01*
Y-15501D01*
X-83400Y-15001D01*
X-85400D01*
X-85900Y-15501D01*
Y-16500D01*
X-85400Y-17000D01*
X-84900D01*
X-84400Y-16500D01*
Y-15001D01*
X-65600Y-22649D02*
X-66100Y-23149D01*
Y-24149D01*
X-65600Y-24649D01*
X-63600D01*
X-63100Y-24149D01*
Y-23149D01*
X-63600Y-22649D01*
X-63100Y-21650D02*
Y-20650D01*
Y-21150D01*
X-66100D01*
X-65600Y-21650D01*
X-63600Y-19151D02*
X-63100Y-18651D01*
Y-17651D01*
X-63600Y-17151D01*
X-65600D01*
X-66100Y-17651D01*
Y-18651D01*
X-65600Y-19151D01*
X-65100D01*
X-64600Y-18651D01*
Y-17151D01*
X-71900Y-22649D02*
X-72399Y-23149D01*
Y-24149D01*
X-71900Y-24649D01*
X-69900D01*
X-69401Y-24149D01*
Y-23149D01*
X-69900Y-22649D01*
X-69401Y-21650D02*
Y-20650D01*
Y-21150D01*
X-72399D01*
X-71900Y-21650D01*
X-72399Y-17151D02*
X-71900Y-18151D01*
X-70900Y-19151D01*
X-69900D01*
X-69401Y-18651D01*
Y-17651D01*
X-69900Y-17151D01*
X-70400D01*
X-70900Y-17651D01*
Y-19151D01*
X26851Y-38500D02*
X26351Y-38001D01*
X25351D01*
X24851Y-38500D01*
Y-40500D01*
X25351Y-40999D01*
X26351D01*
X26851Y-40500D01*
X27850Y-40999D02*
X28850D01*
X28350D01*
Y-38001D01*
X27850Y-38500D01*
X30349Y-38001D02*
X32349D01*
Y-38500D01*
X30349Y-40500D01*
Y-40999D01*
X20901Y-31400D02*
X20401Y-30900D01*
X19401D01*
X18901Y-31400D01*
Y-33400D01*
X19401Y-33900D01*
X20401D01*
X20901Y-33400D01*
X23900Y-33900D02*
X21900D01*
X23900Y-31900D01*
Y-31400D01*
X23400Y-30900D01*
X22400D01*
X21900Y-31400D01*
X24899D02*
X25399Y-30900D01*
X26399D01*
X26899Y-31400D01*
Y-33400D01*
X26399Y-33900D01*
X25399D01*
X24899Y-33400D01*
Y-31400D01*
X-24999Y-48700D02*
Y-51700D01*
X-23500D01*
X-23000Y-51200D01*
Y-49200D01*
X-23500Y-48700D01*
X-24999D01*
X-20501Y-51700D02*
Y-48700D01*
X-22000Y-50200D01*
X-20001D01*
X-51799Y-48801D02*
Y-51799D01*
X-50300D01*
X-49800Y-51300D01*
Y-49300D01*
X-50300Y-48801D01*
X-51799D01*
X-48800Y-49300D02*
X-48300Y-48801D01*
X-47301D01*
X-46801Y-49300D01*
Y-49800D01*
X-47301Y-50300D01*
X-47800D01*
X-47301D01*
X-46801Y-50800D01*
Y-51300D01*
X-47301Y-51799D01*
X-48300D01*
X-48800Y-51300D01*
X-82801Y-53599D02*
X-85799D01*
Y-52100D01*
X-85300Y-51600D01*
X-84300D01*
X-83800Y-52100D01*
Y-53599D01*
X-85300Y-50600D02*
X-85799Y-50100D01*
Y-49101D01*
X-85300Y-48601D01*
X-84800D01*
X-84300Y-49101D01*
X-83800Y-48601D01*
X-83300D01*
X-82801Y-49101D01*
Y-50100D01*
X-83300Y-50600D01*
X-83800D01*
X-84300Y-50100D01*
X-84800Y-50600D01*
X-85300D01*
X-84300Y-50100D02*
Y-49101D01*
X-99500Y-63099D02*
X-99999Y-63599D01*
Y-64599D01*
X-99500Y-65099D01*
X-97500D01*
X-97000Y-64599D01*
Y-63599D01*
X-97500Y-63099D01*
X-97000Y-60100D02*
Y-62100D01*
X-99000Y-60100D01*
X-99500D01*
X-99999Y-60600D01*
Y-61600D01*
X-99500Y-62100D01*
X-97000Y-57101D02*
Y-59101D01*
X-99000Y-57101D01*
X-99500D01*
X-99999Y-57601D01*
Y-58601D01*
X-99500Y-59101D01*
X-67325Y-8549D02*
X-67825Y-8049D01*
X-68824D01*
X-69324Y-8549D01*
Y-10548D01*
X-68824Y-11048D01*
X-67825D01*
X-67325Y-10548D01*
X-66325Y-11048D02*
X-65326D01*
X-65825D01*
Y-8049D01*
X-66325Y-8549D01*
X-63826Y-11048D02*
X-62826D01*
X-63326D01*
Y-8049D01*
X-63826Y-8549D01*
X-69319Y-3918D02*
Y-918D01*
X-67819D01*
X-67319Y-1418D01*
Y-2418D01*
X-67819Y-2918D01*
X-69319D01*
X-68319D02*
X-67319Y-3918D01*
X-64320D02*
X-66320D01*
X-64320Y-1918D01*
Y-1418D01*
X-64820Y-918D01*
X-65820D01*
X-66320Y-1418D01*
X-69592Y2276D02*
Y5275D01*
X-68093D01*
X-67593Y4775D01*
Y3775D01*
X-68093Y3276D01*
X-69592D01*
X-68592D02*
X-67593Y2276D01*
X-66593D02*
X-65593D01*
X-66093D01*
Y5275D01*
X-66593Y4775D01*
X-82901Y13151D02*
X-85900D01*
Y14651D01*
X-85400Y15151D01*
X-84400D01*
X-83900Y14651D01*
Y13151D01*
X-82901Y16150D02*
Y17150D01*
Y16650D01*
X-85900D01*
X-85400Y16150D01*
Y18649D02*
X-85900Y19149D01*
Y20149D01*
X-85400Y20649D01*
X-83400D01*
X-82901Y20149D01*
Y19149D01*
X-83400Y18649D01*
X-85400D01*
X-84399Y74501D02*
Y77500D01*
X-82900D01*
X-82400Y77000D01*
Y76000D01*
X-82900Y75500D01*
X-84399D01*
X-81400Y77500D02*
X-79401D01*
Y77000D01*
X-81400Y75000D01*
Y74501D01*
X-93400Y-62999D02*
X-93900Y-63499D01*
Y-64499D01*
X-93400Y-64999D01*
X-91400D01*
X-90900Y-64499D01*
Y-63499D01*
X-91400Y-62999D01*
X-90900Y-60000D02*
Y-62000D01*
X-92900Y-60000D01*
X-93400D01*
X-93900Y-60500D01*
Y-61500D01*
X-93400Y-62000D01*
X-90900Y-59001D02*
Y-58001D01*
Y-58501D01*
X-93900D01*
X-93400Y-59001D01*
X-100749Y-86001D02*
X-99749D01*
X-100249D01*
Y-88999D01*
X-100749D01*
X-99749D01*
X-96250Y-86500D02*
X-96750Y-86001D01*
X-97750D01*
X-98250Y-86500D01*
Y-88500D01*
X-97750Y-88999D01*
X-96750D01*
X-96250Y-88500D01*
X-95251Y-88999D02*
X-94251D01*
X-94751D01*
Y-86001D01*
X-95251Y-86500D01*
X-129800Y-93499D02*
X-132799D01*
Y-92000D01*
X-132300Y-91500D01*
X-131300D01*
X-130800Y-92000D01*
Y-93499D01*
X-132799Y-88501D02*
X-132300Y-89500D01*
X-131300Y-90500D01*
X-130300D01*
X-129800Y-90000D01*
Y-89001D01*
X-130300Y-88501D01*
X-130800D01*
X-131300Y-89001D01*
Y-90500D01*
X-155201Y-64899D02*
X-158200D01*
Y-63400D01*
X-157700Y-62900D01*
X-156700D01*
X-156200Y-63400D01*
Y-64899D01*
X-155201Y-59901D02*
Y-61900D01*
X-157200Y-59901D01*
X-157700D01*
X-158200Y-60401D01*
Y-61400D01*
X-157700Y-61900D01*
X-95400Y60100D02*
X-95900Y60599D01*
X-96899D01*
X-97399Y60100D01*
Y58100D01*
X-96899Y57600D01*
X-95900D01*
X-95400Y58100D01*
X-94400Y57600D02*
X-93401D01*
X-93901D01*
Y60599D01*
X-94400Y60100D01*
X-127299Y50301D02*
Y53299D01*
X-125800D01*
X-125300Y52800D01*
Y51800D01*
X-125800Y51300D01*
X-127299D01*
X-124300Y50301D02*
X-123301D01*
X-123801D01*
Y53299D01*
X-124300Y52800D01*
D16*
X119550Y-71700D02*
Y-31700D01*
X149100D01*
X119550Y-71700D02*
X149100D01*
Y-31700D01*
X142750Y-51650D02*
X144750Y-53650D01*
X142750Y-51650D02*
X144750Y-49650D01*
X142750Y-51650D02*
X148900D01*
X119550Y-20000D02*
Y20000D01*
X149100D01*
X119550Y-20000D02*
X149100D01*
Y20000D01*
X142750Y50D02*
X144750Y-1950D01*
X142750Y50D02*
X144750Y2050D01*
X142750Y50D02*
X148900D01*
X119550Y31700D02*
Y71700D01*
X149100D01*
X119550Y31700D02*
X149100D01*
Y71700D01*
X142750Y51750D02*
X144750Y49750D01*
X142750Y51750D02*
X144750Y53750D01*
X142750Y51750D02*
X148900D01*
X-129250Y50600D02*
Y90600D01*
X-158800Y50600D02*
X-129250D01*
X-158800Y90600D02*
X-129250D01*
X-158800Y50600D02*
Y90600D01*
X-154450Y72550D02*
X-152450Y70550D01*
X-154450Y68550D02*
X-152450Y70550D01*
X-158600D02*
X-152450D01*
D17*
X105400Y-74500D02*
X112100D01*
X105400D02*
Y-59200D01*
X112100D01*
Y-74500D02*
Y-59200D01*
Y-45200D02*
Y-29900D01*
X105400D02*
X112100D01*
X105400Y-45200D02*
Y-29900D01*
Y-45200D02*
X112100D01*
Y58700D02*
Y74000D01*
X105400D02*
X112100D01*
X105400Y58700D02*
Y74000D01*
Y58700D02*
X112100D01*
X105400Y29500D02*
X112100D01*
X105400D02*
Y44800D01*
X112100D01*
Y29500D02*
Y44800D01*
X-52301Y-72001D02*
X-53300D01*
X-53800Y-72501D01*
Y-74500D01*
X-53300Y-75000D01*
X-52301D01*
X-51801Y-74500D01*
Y-72501D01*
X-52301Y-72001D01*
X-50801D02*
X-48802D01*
X-49801D01*
Y-75000D01*
X-47802Y-72001D02*
Y-75000D01*
X-46802Y-74000D01*
X-45803Y-75000D01*
Y-72001D01*
X-41804Y-74000D02*
X-39805D01*
X-41804Y-73001D02*
X-39805D01*
X-35806Y-75000D02*
X-34806D01*
X-35306D01*
Y-72001D01*
X-35806Y-72501D01*
X-33307Y-73001D02*
X-32807D01*
Y-73501D01*
X-33307D01*
Y-73001D01*
Y-74500D02*
X-32807D01*
Y-75000D01*
X-33307D01*
Y-74500D01*
X-26309Y-72001D02*
X-27309D01*
X-27808Y-72501D01*
Y-74500D01*
X-27309Y-75000D01*
X-26309D01*
X-25809Y-74500D01*
Y-72501D01*
X-26309Y-72001D01*
X-24809D02*
Y-74000D01*
X-23810Y-75000D01*
X-22810Y-74000D01*
Y-72001D01*
X-19811D02*
X-21810D01*
Y-75000D01*
X-19811D01*
X-21810Y-73501D02*
X-20811D01*
X-18811Y-75000D02*
Y-72001D01*
X-17312D01*
X-16812Y-72501D01*
Y-73501D01*
X-17312Y-74000D01*
X-18811D01*
X-17812D02*
X-16812Y-75000D01*
X-10814Y-72501D02*
X-11314Y-72001D01*
X-12313D01*
X-12813Y-72501D01*
Y-74500D01*
X-12313Y-75000D01*
X-11314D01*
X-10814Y-74500D01*
X-9814Y-72001D02*
Y-74500D01*
X-9314Y-75000D01*
X-8315D01*
X-7815Y-74500D01*
Y-72001D01*
X-6815Y-75000D02*
Y-72001D01*
X-5316D01*
X-4816Y-72501D01*
Y-73501D01*
X-5316Y-74000D01*
X-6815D01*
X-5816D02*
X-4816Y-75000D01*
X-3816D02*
Y-72001D01*
X-2317D01*
X-1817Y-72501D01*
Y-73501D01*
X-2317Y-74000D01*
X-3816D01*
X-2816D02*
X-1817Y-75000D01*
X1182Y-72001D02*
X-817D01*
Y-75000D01*
X1182D01*
X-817Y-73501D02*
X183D01*
X2182Y-75000D02*
Y-72001D01*
X4181Y-75000D01*
Y-72001D01*
X5181D02*
X7180D01*
X6181D01*
Y-75000D01*
X-51801Y-67501D02*
X-53800D01*
Y-69001D01*
X-52800D01*
X-53800D01*
Y-70500D01*
X-50801D02*
Y-68501D01*
X-49801Y-67501D01*
X-48802Y-68501D01*
Y-70500D01*
Y-69001D01*
X-50801D01*
X-47802Y-67501D02*
Y-70000D01*
X-47302Y-70500D01*
X-46302D01*
X-45803Y-70000D01*
Y-67501D01*
X-44803D02*
Y-70500D01*
X-42804D01*
X-41804Y-67501D02*
X-39805D01*
X-40804D01*
Y-70500D01*
X-35806Y-69500D02*
X-33806D01*
X-35806Y-68501D02*
X-33806D01*
X-29808Y-70500D02*
X-28808D01*
X-29308D01*
Y-67501D01*
X-29808Y-68001D01*
X-27309Y-68501D02*
X-26809D01*
Y-69001D01*
X-27309D01*
Y-68501D01*
Y-70000D02*
X-26809D01*
Y-70500D01*
X-27309D01*
Y-70000D01*
X-20311Y-67501D02*
X-21310D01*
X-21810Y-68001D01*
Y-70000D01*
X-21310Y-70500D01*
X-20311D01*
X-19811Y-70000D01*
Y-68001D01*
X-20311Y-67501D01*
X-18811D02*
Y-69500D01*
X-17812Y-70500D01*
X-16812Y-69500D01*
Y-67501D01*
X-13813D02*
X-15812D01*
Y-70500D01*
X-13813D01*
X-15812Y-69001D02*
X-14813D01*
X-12813Y-70500D02*
Y-67501D01*
X-11314D01*
X-10814Y-68001D01*
Y-69001D01*
X-11314Y-69500D01*
X-12813D01*
X-11814D02*
X-10814Y-70500D01*
X-6815Y-67501D02*
X-4816D01*
X-5816D01*
Y-70500D01*
X-1817Y-67501D02*
X-3816D01*
Y-70500D01*
X-1817D01*
X-3816Y-69001D02*
X-2816D01*
X-817Y-70500D02*
Y-67501D01*
X183Y-68501D01*
X1182Y-67501D01*
Y-70500D01*
X2182D02*
Y-67501D01*
X3681D01*
X4181Y-68001D01*
Y-69001D01*
X3681Y-69500D01*
X2182D01*
X7180Y-67501D02*
X5181D01*
Y-70500D01*
X7180D01*
X5181Y-69001D02*
X6181D01*
X8180Y-70500D02*
Y-67501D01*
X9680D01*
X10179Y-68001D01*
Y-69001D01*
X9680Y-69500D01*
X8180D01*
X9180D02*
X10179Y-70500D01*
X11179D02*
Y-68501D01*
X12179Y-67501D01*
X13178Y-68501D01*
Y-70500D01*
Y-69001D01*
X11179D01*
X14178Y-67501D02*
X16177D01*
X15178D01*
Y-70500D01*
X17177Y-67501D02*
Y-70000D01*
X17677Y-70500D01*
X18677D01*
X19176Y-70000D01*
Y-67501D01*
X20176Y-70500D02*
Y-67501D01*
X21676D01*
X22175Y-68001D01*
Y-69001D01*
X21676Y-69500D01*
X20176D01*
X21176D02*
X22175Y-70500D01*
X25174Y-67501D02*
X23175D01*
Y-70500D01*
X25174D01*
X23175Y-69001D02*
X24175D01*
X53200Y73999D02*
Y72000D01*
X54200Y71000D01*
X55199Y72000D01*
Y73999D01*
X58198D02*
X56199D01*
Y71000D01*
X58198D01*
X56199Y72500D02*
X57199D01*
X59198Y71000D02*
Y73999D01*
X60698D01*
X61197Y73499D01*
Y72500D01*
X60698Y72000D01*
X59198D01*
X60198D02*
X61197Y71000D01*
X62197Y72999D02*
X62697D01*
Y72500D01*
X62197D01*
Y72999D01*
Y71500D02*
X62697D01*
Y71000D01*
X62197D01*
Y71500D01*
X67695Y71000D02*
X68695D01*
X68195D01*
Y73999D01*
X67695Y73499D01*
X70195Y71000D02*
Y71500D01*
X70694D01*
Y71000D01*
X70195D01*
X72694D02*
X73693D01*
X73194D01*
Y73999D01*
X72694Y73499D01*
X53200Y79749D02*
Y76750D01*
X54699D01*
X55199Y77250D01*
Y79249D01*
X54699Y79749D01*
X53200D01*
X56199Y76750D02*
Y79749D01*
X57699D01*
X58198Y79249D01*
Y78250D01*
X57699Y77750D01*
X56199D01*
X57199D02*
X58198Y76750D01*
X59198Y79749D02*
Y77750D01*
X60198Y76750D01*
X61197Y77750D01*
Y79749D01*
X62197Y79249D02*
X62697Y79749D01*
X63697D01*
X64196Y79249D01*
Y78749D01*
X63697Y78250D01*
X64196Y77750D01*
Y77250D01*
X63697Y76750D01*
X62697D01*
X62197Y77250D01*
Y77750D01*
X62697Y78250D01*
X62197Y78749D01*
Y79249D01*
X62697Y78250D02*
X63697D01*
X66696Y76750D02*
Y79749D01*
X65196Y78250D01*
X67195D01*
X68195Y79249D02*
X68695Y79749D01*
X69695D01*
X70195Y79249D01*
Y78749D01*
X69695Y78250D01*
X69195D01*
X69695D01*
X70195Y77750D01*
Y77250D01*
X69695Y76750D01*
X68695D01*
X68195Y77250D01*
X73194Y76750D02*
X71194D01*
X73194Y78749D01*
Y79249D01*
X72694Y79749D01*
X71694D01*
X71194Y79249D01*
X53200Y85999D02*
Y83000D01*
Y84499D01*
X55199D01*
Y85999D01*
Y83000D01*
X56199Y82500D02*
X58198D01*
X59198Y85999D02*
Y83000D01*
X60698D01*
X61197Y83500D01*
Y84000D01*
X60698Y84499D01*
X59198D01*
X60698D01*
X61197Y84999D01*
Y85499D01*
X60698Y85999D01*
X59198D01*
X62197Y83000D02*
Y85999D01*
X63697D01*
X64196Y85499D01*
Y84499D01*
X63697Y84000D01*
X62197D01*
X63197D02*
X64196Y83000D01*
X65196Y85999D02*
X66196D01*
X65696D01*
Y83000D01*
X65196D01*
X66196D01*
X67695Y85999D02*
Y83000D01*
X69195D01*
X69695Y83500D01*
Y85499D01*
X69195Y85999D01*
X67695D01*
X72694Y85499D02*
X72194Y85999D01*
X71194D01*
X70694Y85499D01*
Y83500D01*
X71194Y83000D01*
X72194D01*
X72694Y83500D01*
Y84499D01*
X71694D01*
X75693Y85999D02*
X73693D01*
Y83000D01*
X75693D01*
X73693Y84499D02*
X74693D01*
X-59921Y56085D02*
X-57350D01*
X-58636Y54800D02*
Y57371D01*
X-59972Y49082D02*
X-57401D01*
X-58686Y47797D02*
Y50367D01*
X-26030Y-56185D02*
X-28601D01*
X-27315Y-54900D02*
Y-57471D01*
X-52979Y-56185D02*
X-55550D01*
X-54265Y-54900D02*
Y-57471D01*
D18*
X111200Y-68500D02*
Y-65100D01*
X106200Y-68500D02*
Y-65100D01*
Y-39200D02*
Y-35800D01*
X111200Y-39200D02*
Y-35800D01*
X106200Y64700D02*
Y68100D01*
X111200Y64700D02*
Y68100D01*
Y35500D02*
Y38900D01*
X106200Y35500D02*
Y38900D01*
D19*
X-49676Y-31496D02*
X-9124D01*
X-49676Y31496D02*
X-9124D01*
Y-31496D02*
Y31496D01*
X-49676Y-31496D02*
Y31496D01*
X-87705Y-20391D02*
Y10791D01*
X-98295Y-20391D02*
X-87705D01*
X-98295D02*
Y10791D01*
X-87705D01*
X-98295Y-22510D02*
X-87705D01*
X-98295Y-53690D02*
Y-22510D01*
Y-53690D02*
X-87705D01*
Y-22510D01*
Y13010D02*
Y44191D01*
X-98295Y13010D02*
X-87705D01*
X-98295D02*
Y44191D01*
X-87705D01*
X-84690Y62505D02*
X-63510D01*
X-84690D02*
Y73095D01*
X-63510D01*
Y62505D02*
Y73095D01*
X-103611Y-78112D02*
Y-67088D01*
X-129989Y-78112D02*
Y-67088D01*
X-103611D01*
X-129989Y-78112D02*
X-103611D01*
X-158094Y-89369D02*
Y-68031D01*
Y-89369D02*
X-134669D01*
Y-68031D01*
X-158094D02*
X-134669D01*
X-158194Y43769D02*
X-134768D01*
Y-57569D02*
Y43769D01*
X-158194Y-57569D02*
X-134768D01*
X-158194D02*
Y43769D01*
X-119187Y83492D02*
X-116628D01*
X-107572D02*
X-105013D01*
X-125092Y57508D02*
Y77587D01*
X-99108Y57508D02*
Y77587D01*
X-125092Y57508D02*
X-116628D01*
X-107179D02*
X-99108D01*
X-105013Y83492D02*
X-99108Y77587D01*
X-125092D02*
X-119187Y83492D01*
M02*
