G04*
G04 #@! TF.GenerationSoftware,Altium Limited,Altium Designer,20.2.7 (254)*
G04*
G04 Layer_Color=32896*
%FSLAX25Y25*%
%MOIN*%
G70*
G04*
G04 #@! TF.SameCoordinates,ECD674B8-324E-4609-97E5-6B7B15D5A4BB*
G04*
G04*
G04 #@! TF.FilePolarity,Positive*
G04*
G01*
G75*
%ADD15C,0.00600*%
G36*
X18969Y-66930D02*
X14276Y-71817D01*
X14137Y-73150D01*
X13831Y-76344D01*
X13609Y-78648D01*
X18635Y-83841D01*
X18302Y-84175D01*
X13554Y-79315D01*
X13276Y-82286D01*
X13137D01*
Y-83425D01*
X12082D01*
Y-82286D01*
X8805D01*
X8694Y-82508D01*
X8527Y-82731D01*
X8305Y-82981D01*
X7999Y-83203D01*
X7638Y-83314D01*
X7305Y-83342D01*
X6972D01*
X6722Y-83258D01*
X6417Y-83147D01*
X6167Y-82981D01*
X5972Y-82786D01*
X5778Y-82508D01*
X5639Y-82203D01*
X5556Y-81925D01*
X5528Y-81675D01*
X5556Y-81398D01*
X5611Y-81176D01*
X5695Y-80953D01*
X5806Y-80731D01*
X5945Y-80537D01*
X6139Y-80342D01*
X6361Y-80204D01*
X6555Y-80120D01*
X6528Y-79870D01*
X2362Y-84175D01*
X2029Y-83814D01*
X6472Y-79204D01*
X6111Y-75177D01*
X5861Y-72261D01*
X4528D01*
Y-70401D01*
X4889D01*
X1501Y-66930D01*
X1862Y-66596D01*
X5028Y-69873D01*
Y-69623D01*
X4973Y-69568D01*
X4889Y-69512D01*
X4806Y-69429D01*
X4723Y-69345D01*
X4667Y-69207D01*
X4639Y-69096D01*
X4612Y-68957D01*
X4639Y-68790D01*
X4695Y-68679D01*
X4806Y-68485D01*
X4945Y-68374D01*
X5139Y-68290D01*
X5334Y-68262D01*
X5528Y-68290D01*
X5695Y-68346D01*
X5833Y-68429D01*
X5889Y-68512D01*
X6028Y-68401D01*
X6222Y-68262D01*
X6472Y-68151D01*
X6833Y-68012D01*
X7222Y-67901D01*
X7611Y-67818D01*
X8027Y-67735D01*
X8360Y-67707D01*
Y-67291D01*
X11026D01*
Y-67651D01*
X11249D01*
X11582Y-67679D01*
X11943Y-67735D01*
X12304Y-67790D01*
Y-67568D01*
X13442D01*
Y-68096D01*
X13581Y-68179D01*
X13776Y-68262D01*
X13970Y-68374D01*
X14137Y-68485D01*
X14303Y-68624D01*
X14414Y-68735D01*
X14470Y-68818D01*
X14525Y-68929D01*
X14498Y-69123D01*
X15164D01*
Y-69984D01*
X14442D01*
X14331Y-71067D01*
X18635Y-66596D01*
X18969Y-66930D01*
D02*
G37*
G36*
X82923Y-68429D02*
X83117Y-68457D01*
X83284Y-68512D01*
X83395Y-68568D01*
X83506Y-68624D01*
X83562Y-68651D01*
X83589Y-68679D01*
X83701Y-68735D01*
X83756Y-68762D01*
X84006Y-68985D01*
X84228Y-69234D01*
X84339Y-69401D01*
X84395Y-69457D01*
Y-69484D01*
X92753Y-83980D01*
X92781D01*
Y-84008D01*
Y-84036D01*
X92837Y-84147D01*
X92892Y-84230D01*
X92920Y-84286D01*
Y-84313D01*
X92948Y-84397D01*
X92976Y-84508D01*
X93003Y-84591D01*
Y-84619D01*
X93031Y-84924D01*
Y-85202D01*
X93003Y-85452D01*
X92948Y-85674D01*
X92865Y-85869D01*
X92809Y-86007D01*
X92781Y-86091D01*
X92753Y-86119D01*
X92642Y-86313D01*
X92615Y-86369D01*
X92587Y-86396D01*
X92448Y-86535D01*
X92392Y-86591D01*
X92365Y-86618D01*
X92115Y-86813D01*
X91865Y-86952D01*
X91615Y-87063D01*
X91365Y-87118D01*
X91171Y-87174D01*
X91004Y-87202D01*
X74092D01*
X73953Y-87174D01*
X73842D01*
X73814Y-87146D01*
X73703D01*
X73592Y-87118D01*
X73509Y-87090D01*
X73481D01*
X73203Y-86979D01*
X72953Y-86841D01*
X72759Y-86674D01*
X72593Y-86507D01*
X72454Y-86369D01*
X72370Y-86230D01*
X72315Y-86146D01*
X72287Y-86119D01*
X72259D01*
X72204Y-85980D01*
X72148Y-85896D01*
X72120Y-85841D01*
Y-85813D01*
X72093Y-85702D01*
X72065Y-85591D01*
X72037Y-85535D01*
Y-85508D01*
X72009Y-85202D01*
Y-84924D01*
X72037Y-84647D01*
X72093Y-84425D01*
X72176Y-84230D01*
X72232Y-84064D01*
X72259Y-83980D01*
X72287Y-83952D01*
X80674Y-69429D01*
X80785Y-69262D01*
X80813Y-69207D01*
X80840Y-69179D01*
X80979Y-69040D01*
X81035Y-68985D01*
X81062Y-68957D01*
X81312Y-68762D01*
X81534Y-68624D01*
X81784Y-68512D01*
X82007Y-68457D01*
X82201Y-68401D01*
X82368Y-68374D01*
X82729D01*
X82923Y-68429D01*
D02*
G37*
G36*
X57097Y-68429D02*
X57291Y-68457D01*
X57458Y-68512D01*
X57569Y-68568D01*
X57680Y-68624D01*
X57736Y-68651D01*
X57763Y-68679D01*
X57874Y-68735D01*
X57930Y-68762D01*
X58180Y-68985D01*
X58402Y-69234D01*
X58513Y-69401D01*
X58569Y-69457D01*
Y-69484D01*
X66927Y-83980D01*
X66955D01*
Y-84008D01*
Y-84036D01*
X67011Y-84147D01*
X67066Y-84230D01*
X67094Y-84286D01*
Y-84313D01*
X67122Y-84397D01*
X67150Y-84508D01*
X67177Y-84591D01*
Y-84619D01*
X67205Y-84924D01*
Y-85202D01*
X67177Y-85452D01*
X67122Y-85674D01*
X67039Y-85869D01*
X66983Y-86007D01*
X66955Y-86091D01*
X66927Y-86119D01*
X66816Y-86313D01*
X66789Y-86369D01*
X66761Y-86396D01*
X66622Y-86535D01*
X66566Y-86591D01*
X66539Y-86618D01*
X66289Y-86813D01*
X66039Y-86952D01*
X65789Y-87063D01*
X65539Y-87118D01*
X65345Y-87174D01*
X65178Y-87202D01*
X48266Y-87202D01*
X48127Y-87174D01*
X48016D01*
X47988Y-87146D01*
X47877D01*
X47766Y-87118D01*
X47683Y-87090D01*
X47655D01*
X47377Y-86979D01*
X47127Y-86841D01*
X46933Y-86674D01*
X46766Y-86507D01*
X46628Y-86369D01*
X46544Y-86230D01*
X46489Y-86146D01*
X46461Y-86119D01*
X46433D01*
X46378Y-85980D01*
X46322Y-85896D01*
X46294Y-85841D01*
Y-85813D01*
X46267Y-85702D01*
X46239Y-85591D01*
X46211Y-85535D01*
Y-85508D01*
X46183Y-85202D01*
Y-84925D01*
X46211Y-84647D01*
X46267Y-84425D01*
X46350Y-84230D01*
X46405Y-84064D01*
X46433Y-83980D01*
X46461Y-83952D01*
X54848Y-69429D01*
X54959Y-69262D01*
X54986Y-69207D01*
X55014Y-69179D01*
X55153Y-69040D01*
X55208Y-68985D01*
X55236Y-68957D01*
X55486Y-68762D01*
X55708Y-68624D01*
X55958Y-68512D01*
X56181Y-68457D01*
X56375Y-68401D01*
X56542Y-68374D01*
X56902D01*
X57097Y-68429D01*
D02*
G37*
G36*
X31271D02*
X31465Y-68457D01*
X31632Y-68512D01*
X31743Y-68568D01*
X31854Y-68624D01*
X31909Y-68651D01*
X31937Y-68679D01*
X32048Y-68735D01*
X32104Y-68762D01*
X32354Y-68985D01*
X32576Y-69234D01*
X32687Y-69401D01*
X32743Y-69457D01*
Y-69484D01*
X41101Y-83980D01*
X41129D01*
Y-84008D01*
Y-84036D01*
X41185Y-84147D01*
X41240Y-84230D01*
X41268Y-84286D01*
Y-84313D01*
X41296Y-84397D01*
X41324Y-84508D01*
X41351Y-84591D01*
Y-84619D01*
X41379Y-84925D01*
Y-85202D01*
X41351Y-85452D01*
X41296Y-85674D01*
X41212Y-85869D01*
X41157Y-86007D01*
X41129Y-86091D01*
X41101Y-86119D01*
X40990Y-86313D01*
X40962Y-86369D01*
X40935Y-86396D01*
X40796Y-86535D01*
X40740Y-86591D01*
X40713Y-86618D01*
X40463Y-86813D01*
X40213Y-86952D01*
X39963Y-87063D01*
X39713Y-87118D01*
X39518Y-87174D01*
X39352Y-87202D01*
X22440D01*
X22301Y-87174D01*
X22190D01*
X22162Y-87146D01*
X22051D01*
X21940Y-87118D01*
X21857Y-87090D01*
X21829D01*
X21551Y-86979D01*
X21301Y-86841D01*
X21107Y-86674D01*
X20940Y-86507D01*
X20801Y-86369D01*
X20718Y-86230D01*
X20663Y-86146D01*
X20635Y-86119D01*
X20607D01*
X20552Y-85980D01*
X20496Y-85896D01*
X20468Y-85841D01*
Y-85813D01*
X20440Y-85702D01*
X20413Y-85591D01*
X20385Y-85535D01*
Y-85508D01*
X20357Y-85202D01*
Y-84925D01*
X20385Y-84647D01*
X20440Y-84425D01*
X20524Y-84230D01*
X20579Y-84064D01*
X20607Y-83980D01*
X20635Y-83952D01*
X29021Y-69429D01*
X29133Y-69262D01*
X29160Y-69207D01*
X29188Y-69179D01*
X29327Y-69040D01*
X29382Y-68985D01*
X29410Y-68957D01*
X29660Y-68762D01*
X29882Y-68624D01*
X30132Y-68512D01*
X30354Y-68457D01*
X30549Y-68401D01*
X30715Y-68374D01*
X31076D01*
X31271Y-68429D01*
D02*
G37*
G36*
X-12883Y-68429D02*
X-12689Y-68457D01*
X-12522Y-68512D01*
X-12411Y-68568D01*
X-12300Y-68624D01*
X-12245Y-68651D01*
X-12217Y-68679D01*
X-12106Y-68735D01*
X-12050Y-68762D01*
X-11801Y-68985D01*
X-11578Y-69234D01*
X-11467Y-69401D01*
X-11412Y-69457D01*
Y-69484D01*
X-3053Y-83980D01*
X-3025D01*
Y-84008D01*
Y-84036D01*
X-2970Y-84147D01*
X-2914Y-84230D01*
X-2886Y-84286D01*
Y-84313D01*
X-2859Y-84397D01*
X-2831Y-84508D01*
X-2803Y-84591D01*
Y-84619D01*
X-2775Y-84925D01*
Y-85202D01*
X-2803Y-85452D01*
X-2859Y-85674D01*
X-2942Y-85869D01*
X-2997Y-86007D01*
X-3025Y-86091D01*
X-3053Y-86119D01*
X-3164Y-86313D01*
X-3192Y-86369D01*
X-3220Y-86396D01*
X-3358Y-86535D01*
X-3414Y-86591D01*
X-3442Y-86618D01*
X-3692Y-86813D01*
X-3942Y-86952D01*
X-4191Y-87063D01*
X-4441Y-87118D01*
X-4636Y-87174D01*
X-4803Y-87202D01*
X-21714D01*
X-21853Y-87174D01*
X-21964D01*
X-21992Y-87146D01*
X-22103D01*
X-22214Y-87118D01*
X-22298Y-87090D01*
X-22325D01*
X-22603Y-86979D01*
X-22853Y-86841D01*
X-23047Y-86674D01*
X-23214Y-86507D01*
X-23353Y-86369D01*
X-23436Y-86230D01*
X-23492Y-86146D01*
X-23519Y-86119D01*
X-23547D01*
X-23603Y-85980D01*
X-23658Y-85896D01*
X-23686Y-85841D01*
Y-85813D01*
X-23714Y-85702D01*
X-23742Y-85591D01*
X-23769Y-85535D01*
Y-85508D01*
X-23797Y-85202D01*
Y-84925D01*
X-23769Y-84647D01*
X-23714Y-84425D01*
X-23630Y-84230D01*
X-23575Y-84064D01*
X-23547Y-83980D01*
X-23519Y-83952D01*
X-15133Y-69429D01*
X-15022Y-69262D01*
X-14994Y-69207D01*
X-14966Y-69179D01*
X-14827Y-69040D01*
X-14772Y-68985D01*
X-14744Y-68957D01*
X-14494Y-68762D01*
X-14272Y-68624D01*
X-14022Y-68512D01*
X-13800Y-68457D01*
X-13605Y-68401D01*
X-13439Y-68374D01*
X-13078D01*
X-12883Y-68429D01*
D02*
G37*
G36*
X83256Y-90201D02*
X82923D01*
Y-88090D01*
X81507Y-90201D01*
X81146D01*
Y-87535D01*
X81479D01*
Y-89618D01*
X82895Y-87535D01*
X83256D01*
Y-90201D01*
D02*
G37*
G36*
X74370D02*
X74037D01*
Y-88090D01*
X72648Y-90201D01*
X72287D01*
Y-87535D01*
X72620D01*
Y-89618D01*
X74009Y-87535D01*
X74370D01*
Y-90201D01*
D02*
G37*
G36*
X31604Y-90201D02*
X31271D01*
Y-88090D01*
X29855Y-90201D01*
X29493D01*
Y-87535D01*
X29827D01*
Y-89618D01*
X31243Y-87535D01*
X31604D01*
Y-90201D01*
D02*
G37*
G36*
X22718D02*
X22384D01*
Y-88090D01*
X20996Y-90201D01*
X20635D01*
Y-87535D01*
X20968D01*
Y-89618D01*
X22357Y-87535D01*
X22718D01*
Y-90201D01*
D02*
G37*
G36*
X-12550Y-90201D02*
X-12883D01*
Y-88090D01*
X-14300Y-90201D01*
X-14661D01*
Y-87535D01*
X-14328D01*
Y-89618D01*
X-12911Y-87535D01*
X-12550D01*
Y-90201D01*
D02*
G37*
G36*
X-21437D02*
X-21770D01*
Y-88090D01*
X-23158Y-90201D01*
X-23519D01*
Y-87535D01*
X-23186D01*
Y-89618D01*
X-21798Y-87535D01*
X-21437D01*
Y-90201D01*
D02*
G37*
G36*
X92753Y-90201D02*
X92392D01*
X92087Y-89395D01*
X90976D01*
X90671Y-90201D01*
X90282D01*
X91365Y-87535D01*
X91754D01*
X92753Y-90201D01*
D02*
G37*
G36*
X90476Y-87840D02*
X89588D01*
Y-90201D01*
X89227D01*
Y-87840D01*
X88366D01*
Y-87535D01*
X90476D01*
Y-87840D01*
D02*
G37*
G36*
X88199D02*
X87311D01*
Y-90201D01*
X86977D01*
Y-87840D01*
X86089D01*
Y-87535D01*
X88199D01*
Y-87840D01*
D02*
G37*
G36*
X85728Y-90201D02*
X83728D01*
Y-89895D01*
X85367D01*
Y-88979D01*
X83895D01*
Y-88673D01*
X85367D01*
Y-87840D01*
X83784D01*
Y-87535D01*
X85728D01*
Y-90201D01*
D02*
G37*
G36*
X80757Y-87840D02*
X79896D01*
Y-90201D01*
X79535D01*
Y-87840D01*
X78646D01*
Y-87535D01*
X80757D01*
Y-87840D01*
D02*
G37*
G36*
X78230Y-90201D02*
X77869D01*
Y-87535D01*
X78230D01*
Y-90201D01*
D02*
G37*
G36*
X41101Y-90201D02*
X40740D01*
X40435Y-89395D01*
X39324D01*
X39019Y-90201D01*
X38630D01*
X39713Y-87535D01*
X40102D01*
X41101Y-90201D01*
D02*
G37*
G36*
X38824Y-87840D02*
X37936D01*
Y-90201D01*
X37575D01*
Y-87840D01*
X36714D01*
Y-87535D01*
X38824D01*
Y-87840D01*
D02*
G37*
G36*
X36547D02*
X35658D01*
Y-90201D01*
X35325D01*
Y-87840D01*
X34437D01*
Y-87535D01*
X36547D01*
Y-87840D01*
D02*
G37*
G36*
X34075Y-90201D02*
X32076D01*
Y-89895D01*
X33715D01*
Y-88979D01*
X32243D01*
Y-88673D01*
X33715D01*
Y-87840D01*
X32132D01*
Y-87535D01*
X34075D01*
Y-90201D01*
D02*
G37*
G36*
X29105Y-87840D02*
X28244D01*
Y-90201D01*
X27883D01*
Y-87840D01*
X26994D01*
Y-87535D01*
X29105D01*
Y-87840D01*
D02*
G37*
G36*
X26578Y-90201D02*
X26217D01*
Y-87535D01*
X26578D01*
Y-90201D01*
D02*
G37*
G36*
X-3053Y-90201D02*
X-3414D01*
X-3719Y-89395D01*
X-4830D01*
X-5136Y-90201D01*
X-5525D01*
X-4441Y-87535D01*
X-4053D01*
X-3053Y-90201D01*
D02*
G37*
G36*
X-5330Y-87840D02*
X-6219D01*
Y-90201D01*
X-6580D01*
Y-87840D01*
X-7441D01*
Y-87535D01*
X-5330D01*
Y-87840D01*
D02*
G37*
G36*
X-7607D02*
X-8496D01*
Y-90201D01*
X-8829D01*
Y-87840D01*
X-9718D01*
Y-87535D01*
X-7607D01*
Y-87840D01*
D02*
G37*
G36*
X-10079Y-90201D02*
X-12078D01*
Y-89895D01*
X-10440D01*
Y-88979D01*
X-11912D01*
Y-88673D01*
X-10440D01*
Y-87840D01*
X-12023D01*
Y-87535D01*
X-10079D01*
Y-90201D01*
D02*
G37*
G36*
X-15050Y-87840D02*
X-15911D01*
Y-90201D01*
X-16272D01*
Y-87840D01*
X-17160D01*
Y-87535D01*
X-15050D01*
Y-87840D01*
D02*
G37*
G36*
X-17577Y-90201D02*
X-17938D01*
Y-87535D01*
X-17577D01*
Y-90201D01*
D02*
G37*
G36*
X76286Y-87507D02*
X76480Y-87535D01*
X76758Y-87674D01*
X76869Y-87757D01*
X76952Y-87813D01*
X76980Y-87840D01*
X77008Y-87868D01*
X77119Y-88007D01*
X77202Y-88174D01*
X77313Y-88507D01*
X77341Y-88673D01*
X77369Y-88784D01*
Y-88868D01*
Y-88896D01*
X77341Y-89145D01*
X77286Y-89368D01*
X77258Y-89507D01*
X77230Y-89534D01*
Y-89562D01*
X77091Y-89784D01*
X76925Y-89923D01*
X76814Y-90034D01*
X76758Y-90062D01*
X76536Y-90145D01*
X76314Y-90201D01*
X76147Y-90228D01*
X76091D01*
X75842Y-90201D01*
X75647Y-90145D01*
X75508Y-90090D01*
X75453Y-90062D01*
X75258Y-89923D01*
X75092Y-89784D01*
X75008Y-89645D01*
X74981Y-89590D01*
X74870Y-89340D01*
X74842Y-89118D01*
X74814Y-88923D01*
Y-88896D01*
Y-88868D01*
X74842Y-88590D01*
X74897Y-88368D01*
X74953Y-88201D01*
X74981Y-88174D01*
Y-88146D01*
X75120Y-87951D01*
X75258Y-87785D01*
X75370Y-87701D01*
X75425Y-87674D01*
X75647Y-87563D01*
X75869Y-87507D01*
X76036Y-87479D01*
X76091D01*
X76286Y-87507D01*
D02*
G37*
G36*
X24634Y-87507D02*
X24828Y-87535D01*
X25106Y-87674D01*
X25217Y-87757D01*
X25300Y-87813D01*
X25328Y-87840D01*
X25356Y-87868D01*
X25467Y-88007D01*
X25550Y-88174D01*
X25661Y-88507D01*
X25689Y-88673D01*
X25717Y-88784D01*
Y-88868D01*
Y-88896D01*
X25689Y-89145D01*
X25633Y-89368D01*
X25606Y-89507D01*
X25578Y-89534D01*
Y-89562D01*
X25439Y-89784D01*
X25273Y-89923D01*
X25161Y-90034D01*
X25106Y-90062D01*
X24884Y-90145D01*
X24661Y-90201D01*
X24495Y-90228D01*
X24439D01*
X24189Y-90201D01*
X23995Y-90145D01*
X23856Y-90090D01*
X23801Y-90062D01*
X23606Y-89923D01*
X23440Y-89784D01*
X23356Y-89645D01*
X23329Y-89590D01*
X23217Y-89340D01*
X23190Y-89118D01*
X23162Y-88923D01*
Y-88896D01*
Y-88868D01*
X23190Y-88590D01*
X23245Y-88368D01*
X23301Y-88201D01*
X23329Y-88174D01*
Y-88146D01*
X23467Y-87951D01*
X23606Y-87785D01*
X23717Y-87701D01*
X23773Y-87674D01*
X23995Y-87563D01*
X24217Y-87507D01*
X24384Y-87479D01*
X24439D01*
X24634Y-87507D01*
D02*
G37*
G36*
X-19521Y-87507D02*
X-19326Y-87535D01*
X-19049Y-87674D01*
X-18937Y-87757D01*
X-18854Y-87813D01*
X-18826Y-87840D01*
X-18799Y-87868D01*
X-18688Y-88007D01*
X-18604Y-88174D01*
X-18493Y-88507D01*
X-18465Y-88673D01*
X-18438Y-88784D01*
Y-88868D01*
Y-88896D01*
X-18465Y-89145D01*
X-18521Y-89368D01*
X-18549Y-89507D01*
X-18576Y-89534D01*
Y-89562D01*
X-18715Y-89784D01*
X-18882Y-89923D01*
X-18993Y-90034D01*
X-19049Y-90062D01*
X-19271Y-90145D01*
X-19493Y-90201D01*
X-19659Y-90228D01*
X-19715D01*
X-19965Y-90201D01*
X-20159Y-90145D01*
X-20298Y-90090D01*
X-20354Y-90062D01*
X-20548Y-89923D01*
X-20715Y-89784D01*
X-20798Y-89645D01*
X-20826Y-89590D01*
X-20937Y-89340D01*
X-20965Y-89118D01*
X-20992Y-88923D01*
Y-88896D01*
Y-88868D01*
X-20965Y-88590D01*
X-20909Y-88368D01*
X-20854Y-88201D01*
X-20826Y-88174D01*
Y-88146D01*
X-20687Y-87951D01*
X-20548Y-87785D01*
X-20437Y-87701D01*
X-20381Y-87674D01*
X-20159Y-87563D01*
X-19937Y-87507D01*
X-19771Y-87479D01*
X-19715D01*
X-19521Y-87507D01*
D02*
G37*
G36*
X-6968Y-91922D02*
X-7135D01*
Y-91312D01*
X-7829D01*
Y-91922D01*
X-8024D01*
Y-90617D01*
X-7829D01*
Y-91173D01*
X-7135D01*
Y-90617D01*
X-6968D01*
Y-91922D01*
D02*
G37*
G36*
X34298Y-90617D02*
X34353Y-90645D01*
X34381Y-90673D01*
X34464Y-90756D01*
X34548Y-90839D01*
X34575Y-90895D01*
X34603Y-90923D01*
X34659Y-91034D01*
X34686Y-91145D01*
Y-91256D01*
Y-91284D01*
Y-91423D01*
X34659Y-91534D01*
X34631Y-91617D01*
Y-91645D01*
X34548Y-91728D01*
X34492Y-91784D01*
X34437Y-91839D01*
X34409D01*
X34298Y-91895D01*
X34187Y-91922D01*
X34075Y-91950D01*
X34048D01*
X33937Y-91922D01*
X33826Y-91867D01*
X33742Y-91839D01*
X33715Y-91811D01*
X33631Y-91756D01*
X33576Y-91645D01*
X33520Y-91562D01*
Y-91534D01*
X33687Y-91478D01*
X33742Y-91589D01*
X33770Y-91673D01*
X33798Y-91728D01*
X33826D01*
X33909Y-91756D01*
X33992Y-91784D01*
X34075D01*
X34214Y-91756D01*
X34298D01*
X34381Y-91700D01*
X34409Y-91645D01*
X34464Y-91589D01*
Y-91562D01*
X34520Y-91367D01*
Y-91312D01*
Y-91284D01*
X34492Y-91117D01*
X34464Y-91062D01*
Y-91034D01*
X34381Y-90867D01*
X34326Y-90839D01*
Y-90812D01*
X34131Y-90756D01*
X34048D01*
X33909Y-90784D01*
X33853Y-90812D01*
X33770Y-90867D01*
X33742Y-90951D01*
X33715Y-91006D01*
Y-91034D01*
X33548Y-90978D01*
X33603Y-90867D01*
X33659Y-90784D01*
X33687Y-90728D01*
X33715Y-90701D01*
X33826Y-90645D01*
X33937Y-90589D01*
X34187D01*
X34298Y-90617D01*
D02*
G37*
G36*
X24023D02*
X24106Y-90645D01*
X24134Y-90673D01*
X24217Y-90756D01*
X24300Y-90839D01*
X24328Y-90895D01*
X24356Y-90923D01*
X24412Y-91034D01*
X24439Y-91145D01*
Y-91256D01*
Y-91284D01*
X24412Y-91423D01*
X24384Y-91534D01*
X24356Y-91617D01*
Y-91645D01*
X24300Y-91728D01*
X24245Y-91784D01*
X24189Y-91839D01*
X24162D01*
X24051Y-91895D01*
X23939Y-91922D01*
X23828Y-91950D01*
X23801D01*
X23662Y-91922D01*
X23551Y-91867D01*
X23495Y-91839D01*
X23467Y-91811D01*
X23356Y-91756D01*
X23301Y-91645D01*
X23245Y-91562D01*
Y-91534D01*
X23440Y-91478D01*
X23467Y-91589D01*
X23523Y-91673D01*
X23551Y-91700D01*
X23578Y-91728D01*
X23662Y-91756D01*
X23745Y-91784D01*
X23828D01*
X23967Y-91756D01*
X24051D01*
X24134Y-91700D01*
X24162Y-91645D01*
X24217Y-91589D01*
Y-91562D01*
X24245Y-91367D01*
Y-91312D01*
Y-91284D01*
X24217Y-91117D01*
Y-91062D01*
Y-91034D01*
X24134Y-90867D01*
X24078Y-90839D01*
Y-90812D01*
X23884Y-90756D01*
X23801D01*
X23634Y-90784D01*
X23606Y-90812D01*
X23578D01*
X23523Y-90867D01*
X23467Y-90951D01*
X23440Y-91006D01*
Y-91034D01*
X23273Y-90978D01*
X23329Y-90867D01*
X23384Y-90784D01*
X23440Y-90728D01*
X23467Y-90701D01*
X23578Y-90645D01*
X23690Y-90589D01*
X23912D01*
X24023Y-90617D01*
D02*
G37*
G36*
X17969Y-88007D02*
Y-88063D01*
Y-88174D01*
Y-88285D01*
Y-88396D01*
Y-88507D01*
Y-88562D01*
Y-88590D01*
Y-89034D01*
Y-89451D01*
Y-89645D01*
Y-89784D01*
Y-89868D01*
Y-89895D01*
Y-90395D01*
Y-90617D01*
Y-90812D01*
Y-90978D01*
Y-91089D01*
Y-91173D01*
Y-91201D01*
Y-91395D01*
Y-91534D01*
Y-91645D01*
Y-91700D01*
Y-91784D01*
X2779Y-91784D01*
Y-91756D01*
Y-91700D01*
Y-91478D01*
Y-91284D01*
Y-91228D01*
Y-91201D01*
Y-90756D01*
Y-90340D01*
Y-90145D01*
Y-90006D01*
Y-89923D01*
Y-89895D01*
Y-89395D01*
Y-89173D01*
Y-88979D01*
Y-88812D01*
Y-88701D01*
Y-88618D01*
Y-88590D01*
Y-88396D01*
Y-88229D01*
Y-88118D01*
Y-88063D01*
Y-88007D01*
Y-87979D01*
X17969Y-87979D01*
Y-88007D01*
D02*
G37*
G36*
X-12606Y-91395D02*
Y-91534D01*
X-12634Y-91645D01*
X-12661Y-91700D01*
Y-91728D01*
X-12773Y-91839D01*
X-12800Y-91867D01*
X-12828D01*
X-12911Y-91922D01*
X-13022Y-91950D01*
X-13134D01*
X-13272Y-91922D01*
X-13356Y-91895D01*
X-13411Y-91867D01*
X-13439D01*
X-13522Y-91811D01*
X-13578Y-91756D01*
X-13605Y-91700D01*
X-13633Y-91617D01*
X-13661Y-91506D01*
Y-91423D01*
Y-91395D01*
Y-90617D01*
X-13495D01*
Y-91395D01*
Y-91562D01*
X-13467Y-91645D01*
X-13439Y-91700D01*
X-13411Y-91728D01*
X-13328Y-91756D01*
X-13244Y-91784D01*
X-12939D01*
X-12856Y-91700D01*
X-12828Y-91645D01*
X-12800Y-91589D01*
Y-91506D01*
Y-91423D01*
Y-91395D01*
Y-90617D01*
X-12606D01*
Y-91395D01*
D02*
G37*
G36*
X-17910Y-90617D02*
X-17854Y-90645D01*
X-17827Y-90673D01*
X-17716Y-90756D01*
X-17660Y-90839D01*
X-17604Y-90895D01*
Y-90923D01*
X-17549Y-91034D01*
X-17521Y-91145D01*
Y-91256D01*
Y-91284D01*
Y-91423D01*
X-17549Y-91534D01*
X-17577Y-91617D01*
Y-91645D01*
X-17660Y-91728D01*
X-17716Y-91784D01*
X-17771Y-91839D01*
X-17799D01*
X-17910Y-91895D01*
X-18021Y-91922D01*
X-18132Y-91950D01*
X-18160D01*
X-18299Y-91922D01*
X-18410Y-91867D01*
X-18465Y-91839D01*
X-18493Y-91811D01*
X-18576Y-91756D01*
X-18632Y-91645D01*
X-18688Y-91562D01*
Y-91534D01*
X-18521Y-91478D01*
X-18493Y-91589D01*
X-18438Y-91673D01*
X-18410Y-91700D01*
X-18382Y-91728D01*
X-18215Y-91784D01*
X-18132D01*
X-17993Y-91756D01*
X-17910D01*
X-17827Y-91700D01*
X-17799Y-91645D01*
X-17743Y-91589D01*
Y-91562D01*
X-17688Y-91367D01*
Y-91312D01*
Y-91284D01*
X-17716Y-91117D01*
X-17743Y-91062D01*
Y-91034D01*
X-17827Y-90867D01*
X-17882Y-90839D01*
Y-90812D01*
X-18077Y-90756D01*
X-18160D01*
X-18299Y-90784D01*
X-18354Y-90812D01*
X-18465Y-90951D01*
X-18493Y-91006D01*
Y-91034D01*
X-18660Y-90978D01*
X-18604Y-90867D01*
X-18549Y-90784D01*
X-18521Y-90728D01*
X-18493Y-90701D01*
X-18382Y-90645D01*
X-18271Y-90589D01*
X-18021D01*
X-17910Y-90617D01*
D02*
G37*
G36*
X38158Y-91922D02*
X37158D01*
Y-91784D01*
X37963D01*
Y-91339D01*
X37241D01*
Y-91173D01*
X37963D01*
Y-90784D01*
X37186D01*
Y-90617D01*
X38158D01*
Y-91922D01*
D02*
G37*
G36*
X36908D02*
X36075D01*
Y-91784D01*
X36742D01*
Y-90617D01*
X36908D01*
Y-91922D01*
D02*
G37*
G36*
X35881D02*
X34881D01*
Y-91784D01*
X35686D01*
Y-91339D01*
X34964D01*
Y-91173D01*
X35686D01*
Y-90784D01*
X34909D01*
Y-90617D01*
X35881D01*
Y-91922D01*
D02*
G37*
G36*
X33381Y-90784D02*
X32965D01*
Y-91922D01*
X32770D01*
Y-90784D01*
X32326D01*
Y-90617D01*
X33381D01*
Y-90784D01*
D02*
G37*
G36*
X32159Y-91922D02*
X31965D01*
Y-91367D01*
X31687D01*
X31632Y-91395D01*
X31604D01*
X31549Y-91450D01*
X31521Y-91478D01*
X31465Y-91534D01*
X31437Y-91589D01*
X31382Y-91645D01*
Y-91673D01*
X31215Y-91922D01*
X30993D01*
X31215Y-91589D01*
X31326Y-91450D01*
X31354Y-91423D01*
X31437Y-91367D01*
X31465Y-91339D01*
X31326Y-91312D01*
X31243Y-91284D01*
X31215Y-91228D01*
X31187D01*
X31132Y-91145D01*
X31104Y-91062D01*
Y-91006D01*
Y-90978D01*
X31132Y-90839D01*
X31160Y-90812D01*
Y-90784D01*
X31187Y-90728D01*
X31243Y-90673D01*
X31271Y-90645D01*
X31299D01*
X31465Y-90617D01*
X32159D01*
Y-91922D01*
D02*
G37*
G36*
X28244Y-90784D02*
X27799D01*
Y-91922D01*
X27633D01*
Y-90784D01*
X27189D01*
Y-90617D01*
X28244D01*
Y-90784D01*
D02*
G37*
G36*
X27272Y-91922D02*
X27105D01*
X26939Y-91562D01*
X26383D01*
X26244Y-91922D01*
X26022D01*
X26578Y-90617D01*
X26772D01*
X27272Y-91922D01*
D02*
G37*
G36*
X26133Y-90784D02*
X25689D01*
Y-91922D01*
X25522D01*
Y-90784D01*
X25078D01*
Y-90617D01*
X26133D01*
Y-90784D01*
D02*
G37*
G36*
X24884Y-91922D02*
X24689D01*
Y-90617D01*
X24884D01*
Y-91922D01*
D02*
G37*
G36*
X-9662Y-90784D02*
X-10107D01*
Y-91922D01*
X-10273D01*
Y-90784D01*
X-10718D01*
Y-90617D01*
X-9662D01*
Y-90784D01*
D02*
G37*
G36*
X-13967Y-91922D02*
X-14133D01*
Y-91367D01*
X-14439D01*
X-14494Y-91395D01*
X-14522D01*
X-14578Y-91450D01*
X-14605Y-91478D01*
X-14633Y-91534D01*
X-14689Y-91589D01*
X-14716Y-91645D01*
X-14744Y-91673D01*
X-14911Y-91922D01*
X-15133D01*
X-14911Y-91589D01*
X-14800Y-91450D01*
X-14744Y-91423D01*
X-14689Y-91367D01*
X-14661Y-91339D01*
X-14772Y-91312D01*
X-14855Y-91284D01*
X-14911Y-91228D01*
X-14939D01*
X-14994Y-91145D01*
X-15022Y-91062D01*
Y-91006D01*
Y-90978D01*
X-14994Y-90839D01*
X-14966Y-90812D01*
Y-90784D01*
X-14883Y-90673D01*
X-14855Y-90645D01*
X-14827D01*
X-14661Y-90617D01*
X-13967D01*
Y-91922D01*
D02*
G37*
G36*
X-15300D02*
X-15466D01*
Y-91339D01*
X-16105D01*
Y-91201D01*
X-15466D01*
Y-90784D01*
X-16188D01*
Y-90617D01*
X-15300D01*
Y-91922D01*
D02*
G37*
G36*
X-16188D02*
X-16383D01*
X-16521Y-91562D01*
X-17077D01*
X-17216Y-91922D01*
X-17438D01*
X-16882Y-90617D01*
X-16688D01*
X-16188Y-91922D01*
D02*
G37*
G36*
X-18910D02*
X-19909D01*
Y-91784D01*
X-19104D01*
Y-91339D01*
X-19826D01*
Y-91173D01*
X-19104D01*
Y-90784D01*
X-19882D01*
Y-90617D01*
X-18910D01*
Y-91922D01*
D02*
G37*
G36*
X30438Y-90617D02*
X30577Y-90673D01*
X30660Y-90756D01*
X30688Y-90784D01*
X30771Y-90951D01*
X30826Y-91117D01*
X30854Y-91256D01*
Y-91284D01*
Y-91312D01*
Y-91450D01*
X30826Y-91562D01*
X30799Y-91617D01*
Y-91645D01*
X30743Y-91728D01*
X30660Y-91784D01*
X30604Y-91839D01*
X30577D01*
X30465Y-91895D01*
X30354Y-91922D01*
X30271Y-91950D01*
X30243D01*
X30104Y-91922D01*
X29993Y-91895D01*
X29938Y-91867D01*
X29910D01*
X29743Y-91728D01*
X29716Y-91673D01*
X29688Y-91645D01*
X29632Y-91534D01*
X29605Y-91423D01*
Y-91312D01*
Y-91284D01*
Y-91145D01*
X29632Y-91034D01*
X29660Y-90951D01*
X29688Y-90923D01*
X29743Y-90812D01*
X29827Y-90756D01*
X29882Y-90701D01*
X29910D01*
X30021Y-90645D01*
X30132Y-90589D01*
X30243D01*
X30438Y-90617D01*
D02*
G37*
G36*
X29077D02*
X29133Y-90645D01*
X29160D01*
X29271Y-90728D01*
X29327Y-90756D01*
Y-90784D01*
X29382Y-90923D01*
Y-90951D01*
Y-90978D01*
X29355Y-91089D01*
X29327Y-91117D01*
X29299Y-91173D01*
X29244Y-91228D01*
X29216Y-91256D01*
X29188D01*
X29133Y-91284D01*
X29049Y-91312D01*
X28966Y-91339D01*
X28938D01*
X28827Y-91367D01*
X28744Y-91395D01*
X28688D01*
X28605Y-91450D01*
X28577Y-91478D01*
X28549Y-91562D01*
Y-91589D01*
Y-91673D01*
X28577Y-91700D01*
X28660Y-91756D01*
X28688Y-91784D01*
X29077D01*
X29133Y-91728D01*
X29188Y-91700D01*
X29216Y-91673D01*
X29271Y-91562D01*
Y-91506D01*
X29438Y-91534D01*
X29410Y-91617D01*
X29382Y-91700D01*
X29355Y-91728D01*
Y-91756D01*
X29216Y-91867D01*
X29188Y-91895D01*
X29160D01*
X29077Y-91922D01*
X28966Y-91950D01*
X28855D01*
X28688Y-91922D01*
X28633Y-91895D01*
X28605D01*
X28494Y-91811D01*
X28438Y-91784D01*
X28383Y-91645D01*
Y-91589D01*
X28411Y-91450D01*
X28438Y-91395D01*
X28549Y-91284D01*
X28577Y-91256D01*
X28605D01*
X28688Y-91228D01*
X28771Y-91201D01*
X28855Y-91173D01*
X28883D01*
X29021Y-91145D01*
X29105Y-91117D01*
X29160Y-91089D01*
X29216Y-91006D01*
Y-90951D01*
X29188Y-90895D01*
X29160Y-90839D01*
X29133Y-90812D01*
X29077Y-90784D01*
X28994Y-90756D01*
X28799D01*
X28744Y-90784D01*
X28688Y-90812D01*
X28633Y-90867D01*
X28605Y-90923D01*
X28577Y-90978D01*
Y-91006D01*
X28411D01*
X28438Y-90839D01*
X28466Y-90812D01*
Y-90784D01*
X28605Y-90673D01*
X28633Y-90645D01*
X28660D01*
X28827Y-90589D01*
X28910D01*
X29077Y-90617D01*
D02*
G37*
G36*
X-8690Y-90617D02*
X-8551Y-90673D01*
X-8468Y-90756D01*
X-8440Y-90784D01*
X-8329Y-90951D01*
X-8274Y-91117D01*
X-8246Y-91256D01*
Y-91284D01*
Y-91312D01*
X-8274Y-91423D01*
X-8302Y-91534D01*
X-8329Y-91617D01*
Y-91645D01*
X-8413Y-91728D01*
X-8468Y-91784D01*
X-8524Y-91839D01*
X-8551D01*
X-8663Y-91895D01*
X-8774Y-91922D01*
X-8857Y-91950D01*
X-8885D01*
X-8996Y-91922D01*
X-9107Y-91895D01*
X-9190Y-91867D01*
X-9218D01*
X-9385Y-91728D01*
X-9412Y-91673D01*
X-9440Y-91645D01*
X-9496Y-91534D01*
X-9523Y-91423D01*
Y-91312D01*
Y-91284D01*
Y-91145D01*
X-9496Y-91034D01*
X-9468Y-90951D01*
Y-90923D01*
X-9385Y-90812D01*
X-9301Y-90756D01*
X-9246Y-90701D01*
X-9218D01*
X-9107Y-90645D01*
X-8996Y-90589D01*
X-8885D01*
X-8690Y-90617D01*
D02*
G37*
G36*
X-11662D02*
X-11606Y-90645D01*
X-11578D01*
X-11467Y-90728D01*
X-11412Y-90756D01*
Y-90784D01*
X-11356Y-90923D01*
Y-90951D01*
Y-90978D01*
X-11384Y-91089D01*
X-11412Y-91117D01*
X-11495Y-91228D01*
X-11551Y-91256D01*
X-11634Y-91284D01*
X-11717Y-91312D01*
X-11773Y-91339D01*
X-11801D01*
X-11939Y-91367D01*
X-12023Y-91395D01*
X-12050D01*
X-12134Y-91450D01*
X-12162Y-91478D01*
X-12217Y-91562D01*
Y-91589D01*
X-12189Y-91673D01*
X-12162Y-91700D01*
X-12106Y-91756D01*
X-12078Y-91784D01*
X-11662D01*
X-11578Y-91700D01*
X-11551Y-91673D01*
X-11495Y-91562D01*
Y-91506D01*
X-11301Y-91534D01*
X-11356Y-91700D01*
X-11384Y-91728D01*
Y-91756D01*
X-11523Y-91867D01*
X-11551Y-91895D01*
X-11578D01*
X-11773Y-91950D01*
X-11884D01*
X-12050Y-91922D01*
X-12106Y-91895D01*
X-12134D01*
X-12273Y-91811D01*
X-12300Y-91784D01*
X-12356Y-91728D01*
X-12384Y-91645D01*
Y-91617D01*
Y-91589D01*
X-12356Y-91450D01*
X-12328Y-91395D01*
X-12273Y-91339D01*
X-12217Y-91284D01*
X-12162Y-91256D01*
X-12134D01*
X-12078Y-91228D01*
X-11967Y-91201D01*
X-11884Y-91173D01*
X-11856D01*
X-11717Y-91145D01*
X-11634Y-91117D01*
X-11578Y-91089D01*
X-11551Y-91006D01*
Y-90951D01*
X-11578Y-90839D01*
X-11606Y-90812D01*
X-11689Y-90784D01*
X-11773Y-90756D01*
X-11856D01*
X-12023Y-90784D01*
X-12050Y-90812D01*
X-12078D01*
X-12134Y-90867D01*
X-12162Y-90923D01*
Y-90978D01*
Y-91006D01*
X-12328D01*
X-12300Y-90839D01*
X-12273Y-90812D01*
Y-90784D01*
X-12162Y-90673D01*
X-12134Y-90645D01*
X-12106D01*
X-11939Y-90589D01*
X-11828D01*
X-11662Y-90617D01*
D02*
G37*
G36*
X36686Y-93727D02*
X36519D01*
Y-92672D01*
X35825Y-93727D01*
X35631D01*
Y-92395D01*
X35797D01*
Y-93450D01*
X36519Y-92395D01*
X36686D01*
Y-93727D01*
D02*
G37*
G36*
X31549D02*
X31382D01*
X30854Y-92395D01*
X31049D01*
X31382Y-93366D01*
X31437Y-93505D01*
X31465Y-93561D01*
Y-93589D01*
X31493Y-93478D01*
X31521Y-93394D01*
X31549Y-93366D01*
X31882Y-92395D01*
X32076D01*
X31549Y-93727D01*
D02*
G37*
G36*
X25967D02*
X25800D01*
X25273Y-92395D01*
X25467D01*
X25828Y-93366D01*
X25883Y-93505D01*
Y-93561D01*
Y-93589D01*
X25939Y-93450D01*
X25967Y-93394D01*
Y-93366D01*
X26300Y-92395D01*
X26494D01*
X25967Y-93727D01*
D02*
G37*
G36*
X24273Y-92395D02*
X24328Y-92422D01*
X24356Y-92450D01*
X24439Y-92533D01*
X24523Y-92617D01*
X24550Y-92672D01*
X24578Y-92700D01*
X24634Y-92811D01*
X24661Y-92922D01*
Y-93033D01*
Y-93061D01*
X24634Y-93200D01*
X24606Y-93311D01*
X24578Y-93366D01*
Y-93394D01*
X24523Y-93505D01*
X24467Y-93589D01*
X24412Y-93644D01*
X24384Y-93672D01*
X24273Y-93727D01*
X24162Y-93755D01*
X24023D01*
X23884Y-93727D01*
X23773Y-93700D01*
X23717Y-93672D01*
X23690Y-93644D01*
X23606Y-93533D01*
X23551Y-93422D01*
X23495Y-93339D01*
Y-93311D01*
X23662Y-93255D01*
X23690Y-93366D01*
X23745Y-93450D01*
X23773Y-93478D01*
X23801Y-93505D01*
X23884Y-93561D01*
X23967Y-93589D01*
X24051D01*
X24189Y-93561D01*
X24245Y-93533D01*
X24273D01*
X24328Y-93478D01*
X24384Y-93422D01*
X24412Y-93366D01*
Y-93339D01*
X24467Y-93144D01*
Y-93089D01*
Y-93061D01*
X24439Y-92867D01*
Y-92811D01*
Y-92783D01*
X24412Y-92700D01*
X24356Y-92645D01*
X24300Y-92589D01*
X24273D01*
X24189Y-92533D01*
X24106Y-92506D01*
X23939D01*
X23856Y-92533D01*
X23828Y-92561D01*
X23801Y-92589D01*
X23745Y-92645D01*
X23690Y-92728D01*
X23662Y-92783D01*
Y-92811D01*
X23495Y-92756D01*
X23551Y-92617D01*
X23606Y-92533D01*
X23662Y-92506D01*
X23690Y-92478D01*
X23801Y-92422D01*
X23912Y-92367D01*
X24162D01*
X24273Y-92395D01*
D02*
G37*
G36*
X37908Y-93727D02*
X36936D01*
Y-93561D01*
X37741D01*
Y-93117D01*
X37019D01*
Y-92950D01*
X37741D01*
Y-92561D01*
X36964D01*
Y-92395D01*
X37908D01*
Y-93727D01*
D02*
G37*
G36*
X34075D02*
X33909D01*
Y-92395D01*
X34075D01*
Y-93727D01*
D02*
G37*
G36*
X33687Y-92561D02*
X33242D01*
Y-93727D01*
X33076D01*
Y-92561D01*
X32631D01*
Y-92395D01*
X33687D01*
Y-92561D01*
D02*
G37*
G36*
X32437Y-93727D02*
X32243D01*
Y-92395D01*
X32437D01*
Y-93727D01*
D02*
G37*
G36*
X30688D02*
X29716D01*
Y-93561D01*
X30521D01*
Y-93117D01*
X29799D01*
Y-92950D01*
X30521D01*
Y-92561D01*
X29743D01*
Y-92395D01*
X30688D01*
Y-93727D01*
D02*
G37*
G36*
X28938D02*
X28466D01*
X28299Y-93700D01*
X28244D01*
X28133Y-93672D01*
X28077Y-93644D01*
X28022Y-93561D01*
X27966Y-93505D01*
X27911Y-93366D01*
X27883Y-93339D01*
Y-93311D01*
X27855Y-93228D01*
Y-93144D01*
Y-93089D01*
Y-93061D01*
Y-92922D01*
Y-92811D01*
X27883Y-92756D01*
Y-92728D01*
X27994Y-92561D01*
X28022Y-92533D01*
X28049Y-92506D01*
X28188Y-92450D01*
X28216Y-92422D01*
X28244D01*
X28411Y-92395D01*
X28938D01*
Y-93727D01*
D02*
G37*
G36*
X27605D02*
X26605D01*
Y-93561D01*
X27411D01*
Y-93117D01*
X26689D01*
Y-92950D01*
X27411D01*
Y-92561D01*
X26633D01*
Y-92395D01*
X27605D01*
Y-93727D01*
D02*
G37*
G36*
X25078D02*
X24911D01*
Y-92395D01*
X25078D01*
Y-93727D01*
D02*
G37*
G36*
X23245D02*
X22273D01*
Y-93561D01*
X23079D01*
Y-93117D01*
X22357D01*
Y-92950D01*
X23079D01*
Y-92561D01*
X22301D01*
Y-92395D01*
X23245D01*
Y-93727D01*
D02*
G37*
G36*
X38852Y-92395D02*
X38908Y-92422D01*
X38935D01*
X39019Y-92450D01*
X39074Y-92506D01*
X39102Y-92533D01*
X39130Y-92561D01*
X39185Y-92672D01*
Y-92700D01*
Y-92728D01*
X39158Y-92839D01*
X39130Y-92894D01*
X39046Y-93006D01*
X38991Y-93033D01*
X38908Y-93061D01*
X38824Y-93089D01*
X38769Y-93117D01*
X38741D01*
X38574Y-93144D01*
X38519Y-93172D01*
X38491D01*
X38408Y-93228D01*
X38380Y-93255D01*
X38324Y-93339D01*
Y-93366D01*
X38352Y-93450D01*
X38380Y-93478D01*
X38435Y-93533D01*
X38463Y-93561D01*
X38491D01*
X38602Y-93589D01*
X38658D01*
X38796Y-93561D01*
X38880D01*
X38963Y-93478D01*
X38991Y-93450D01*
X39046Y-93339D01*
Y-93311D01*
Y-93283D01*
X39213D01*
X39185Y-93450D01*
X39158Y-93505D01*
Y-93533D01*
X39019Y-93644D01*
X38991Y-93700D01*
X38963D01*
X38769Y-93755D01*
X38658D01*
X38491Y-93727D01*
X38435Y-93700D01*
X38408D01*
X38269Y-93616D01*
X38213Y-93561D01*
X38158Y-93394D01*
Y-93366D01*
Y-93339D01*
X38186Y-93200D01*
X38213Y-93172D01*
X38269Y-93089D01*
X38352Y-93061D01*
X38380Y-93033D01*
X38408D01*
X38574Y-92978D01*
X38658Y-92950D01*
X38685D01*
X38824Y-92894D01*
X38908Y-92867D01*
X38963Y-92839D01*
X39019Y-92756D01*
Y-92728D01*
X38991Y-92672D01*
X38963Y-92617D01*
X38935Y-92589D01*
X38880Y-92561D01*
X38796Y-92533D01*
X38602D01*
X38519Y-92561D01*
X38491Y-92589D01*
X38463D01*
X38408Y-92645D01*
X38380Y-92700D01*
Y-92756D01*
Y-92783D01*
X38213D01*
X38241Y-92617D01*
X38269Y-92589D01*
Y-92561D01*
X38380Y-92450D01*
X38408Y-92422D01*
X38435D01*
X38630Y-92367D01*
X38713D01*
X38852Y-92395D01*
D02*
G37*
G36*
X35048D02*
X35103Y-92422D01*
X35131D01*
X35214Y-92450D01*
X35242Y-92506D01*
X35297Y-92533D01*
Y-92561D01*
X35353Y-92672D01*
Y-92700D01*
Y-92728D01*
X35325Y-92839D01*
X35297Y-92894D01*
X35270Y-92950D01*
X35214Y-93006D01*
X35186Y-93033D01*
X35159D01*
X35103Y-93061D01*
X35020Y-93089D01*
X34936Y-93117D01*
X34909D01*
X34742Y-93144D01*
X34714Y-93172D01*
X34686D01*
X34575Y-93228D01*
X34548Y-93255D01*
X34520Y-93311D01*
Y-93339D01*
Y-93366D01*
Y-93450D01*
X34548Y-93478D01*
X34631Y-93533D01*
X34659Y-93561D01*
X34798Y-93589D01*
X34853D01*
X34992Y-93561D01*
X35048D01*
X35103Y-93505D01*
X35159Y-93478D01*
X35186Y-93450D01*
X35242Y-93339D01*
Y-93283D01*
X35408D01*
X35381Y-93366D01*
X35353Y-93450D01*
X35325Y-93505D01*
Y-93533D01*
X35270Y-93616D01*
X35214Y-93644D01*
X35159Y-93700D01*
X35131D01*
X35048Y-93727D01*
X34936Y-93755D01*
X34825D01*
X34659Y-93727D01*
X34603Y-93700D01*
X34575D01*
X34437Y-93616D01*
X34409Y-93561D01*
X34353Y-93394D01*
Y-93366D01*
Y-93339D01*
X34381Y-93200D01*
X34409Y-93172D01*
X34464Y-93089D01*
X34520Y-93061D01*
X34548Y-93033D01*
X34575D01*
X34770Y-92978D01*
X34825Y-92950D01*
X34853D01*
X34992Y-92894D01*
X35075Y-92867D01*
X35131Y-92839D01*
X35186Y-92783D01*
Y-92728D01*
X35159Y-92672D01*
X35131Y-92617D01*
X35103Y-92589D01*
X35048Y-92561D01*
X34964Y-92533D01*
X34881D01*
X34714Y-92561D01*
X34686Y-92589D01*
X34659D01*
X34603Y-92645D01*
X34575Y-92700D01*
X34548Y-92756D01*
Y-92783D01*
X34381D01*
X34409Y-92617D01*
X34437Y-92589D01*
Y-92561D01*
X34575Y-92450D01*
X34603Y-92422D01*
X34631D01*
X34798Y-92367D01*
X34881D01*
X35048Y-92395D01*
D02*
G37*
%LPC*%
G36*
X10527Y-67763D02*
X8833D01*
Y-68040D01*
X10527D01*
Y-67763D01*
D02*
G37*
G36*
X11026Y-68151D02*
Y-68512D01*
X8360D01*
Y-68207D01*
X7805Y-68290D01*
X7305Y-68401D01*
X6889Y-68512D01*
X6555Y-68679D01*
X6306Y-68818D01*
X6111Y-69012D01*
Y-69123D01*
X12304Y-69123D01*
Y-68318D01*
X11915Y-68235D01*
X11498Y-68179D01*
X11026Y-68151D01*
D02*
G37*
G36*
X12970Y-68040D02*
X12776D01*
Y-68679D01*
X12970D01*
Y-68040D01*
D02*
G37*
G36*
X13442Y-68651D02*
Y-69123D01*
X14026D01*
Y-69040D01*
X13887Y-68901D01*
X13720Y-68790D01*
X13442Y-68651D01*
D02*
G37*
G36*
X5389Y-68735D02*
X5361D01*
X5223Y-68762D01*
X5139Y-68846D01*
X5111Y-68957D01*
Y-68985D01*
X5139Y-69123D01*
X5223Y-69179D01*
X5334Y-69207D01*
X5361D01*
X5500Y-69179D01*
X5556Y-69096D01*
X5584Y-69012D01*
Y-68985D01*
X5556Y-68846D01*
X5472Y-68762D01*
X5389Y-68735D01*
D02*
G37*
G36*
X5945Y-70873D02*
X5028D01*
Y-71789D01*
X5945D01*
Y-70873D01*
D02*
G37*
G36*
X10610Y-72956D02*
X8111D01*
Y-73122D01*
X10610D01*
Y-72956D01*
D02*
G37*
G36*
X13942Y-69984D02*
X6167Y-69984D01*
X6222Y-70401D01*
X6417D01*
Y-71289D01*
X7583Y-72483D01*
X11082D01*
Y-73594D01*
X8666D01*
X10277Y-75261D01*
X13803Y-71595D01*
X13942Y-69984D01*
D02*
G37*
G36*
X13720Y-72372D02*
X10610Y-75594D01*
X13165Y-78232D01*
X13720Y-72372D01*
D02*
G37*
G36*
X6417Y-71984D02*
Y-72261D01*
X6361D01*
X6916Y-78732D01*
X9943Y-75594D01*
X7999Y-73594D01*
X7583D01*
Y-73178D01*
X6417Y-71984D01*
D02*
G37*
G36*
X10277Y-75955D02*
X6972Y-79370D01*
X7028Y-79981D01*
X7250Y-79954D01*
X7500Y-79981D01*
X7805Y-80065D01*
X8111Y-80203D01*
X8333Y-80370D01*
X8527Y-80565D01*
X8721Y-80842D01*
X8860Y-81176D01*
X8944Y-81537D01*
X8916Y-81786D01*
X12832D01*
X13109Y-78871D01*
X10277Y-75955D01*
D02*
G37*
G36*
X7389Y-80814D02*
X7250Y-80814D01*
X6972Y-80842D01*
X6778Y-80953D01*
X6611Y-81064D01*
X6528Y-81231D01*
X6472Y-81370D01*
X6417Y-81509D01*
Y-81620D01*
Y-81648D01*
X6444Y-81925D01*
X6555Y-82120D01*
X6667Y-82286D01*
X6833Y-82370D01*
X6972Y-82425D01*
X7111Y-82453D01*
X7222Y-82481D01*
X7250D01*
X7527Y-82453D01*
X7722Y-82342D01*
X7888Y-82203D01*
X7972Y-82064D01*
X8027Y-81897D01*
X8055Y-81786D01*
X8083Y-81675D01*
Y-81648D01*
X8055Y-81370D01*
X7944Y-81176D01*
X7805Y-81009D01*
X7666Y-80926D01*
X7500Y-80870D01*
X7389Y-80814D01*
D02*
G37*
G36*
X12665Y-82286D02*
X12554D01*
Y-82953D01*
X12665D01*
Y-82286D01*
D02*
G37*
%LPD*%
G36*
X7444Y-81120D02*
X7583Y-81176D01*
X7666Y-81259D01*
X7722Y-81370D01*
X7805Y-81564D01*
Y-81620D01*
Y-81648D01*
X7777Y-81842D01*
X7722Y-81981D01*
X7638Y-82064D01*
X7527Y-82120D01*
X7333Y-82203D01*
X7250D01*
X7055Y-82175D01*
X6916Y-82120D01*
X6833Y-82036D01*
X6750Y-81925D01*
X6694Y-81731D01*
Y-81675D01*
Y-81648D01*
X6722Y-81453D01*
X6778Y-81314D01*
X6861Y-81231D01*
X6972Y-81148D01*
X7166Y-81092D01*
X7250D01*
X7444Y-81120D01*
D02*
G37*
%LPC*%
G36*
X7277Y-81564D02*
X7194D01*
X7166Y-81592D01*
Y-81620D01*
Y-81648D01*
Y-81703D01*
X7194Y-81731D01*
X7250D01*
X7305Y-81703D01*
X7333Y-81675D01*
Y-81648D01*
X7305Y-81592D01*
X7277Y-81564D01*
D02*
G37*
G36*
X82562Y-69790D02*
X82506D01*
Y-69818D01*
X82340D01*
X82201Y-69873D01*
X81951Y-69956D01*
X81784Y-70068D01*
X81757Y-70095D01*
X81729Y-70123D01*
X81673Y-70179D01*
X81618Y-70206D01*
Y-70234D01*
X81562Y-70345D01*
X81534Y-70373D01*
X81507D01*
X73564Y-84147D01*
Y-84175D01*
X73481Y-84341D01*
X73426Y-84480D01*
X73398Y-84591D01*
Y-84647D01*
Y-84730D01*
Y-84758D01*
X73426Y-84980D01*
X73453Y-85174D01*
X73509Y-85286D01*
X73537Y-85341D01*
X73759Y-85591D01*
X73953Y-85757D01*
X74120Y-85841D01*
X74175Y-85869D01*
X74287D01*
X74342Y-85896D01*
X74536D01*
Y-85924D01*
X90476D01*
X90643Y-85896D01*
X90810Y-85869D01*
X91060Y-85757D01*
X91226Y-85674D01*
X91254Y-85619D01*
X91282D01*
X91365Y-85508D01*
X91393Y-85480D01*
X91448Y-85396D01*
X91476Y-85341D01*
X91504D01*
X91615Y-85063D01*
X91643Y-84813D01*
Y-84702D01*
X91615Y-84619D01*
Y-84563D01*
Y-84536D01*
X91587Y-84397D01*
X91559Y-84369D01*
X91532Y-84258D01*
X91504Y-84230D01*
Y-84202D01*
Y-84175D01*
X83534Y-70401D01*
X83423Y-70234D01*
X83312Y-70123D01*
X83228Y-70040D01*
X83201Y-70012D01*
X83173D01*
X83145Y-69984D01*
X83117Y-69956D01*
X82895Y-69845D01*
X82701Y-69818D01*
X82562Y-69790D01*
D02*
G37*
%LPD*%
G36*
X83645Y-73122D02*
Y-73372D01*
Y-73567D01*
Y-73761D01*
Y-73900D01*
Y-73983D01*
Y-74011D01*
X83617Y-74511D01*
Y-74761D01*
Y-74955D01*
Y-75149D01*
Y-75288D01*
Y-75372D01*
Y-75399D01*
X83589Y-75621D01*
Y-75760D01*
Y-75844D01*
Y-75871D01*
X83562Y-76010D01*
Y-76177D01*
X83534Y-76316D01*
Y-76344D01*
Y-76371D01*
Y-76399D01*
X83506Y-76455D01*
Y-76566D01*
X83478Y-76677D01*
X83451Y-76982D01*
X83423Y-77315D01*
X83367Y-77649D01*
X83340Y-77954D01*
Y-78065D01*
X83312Y-78149D01*
Y-78204D01*
Y-78232D01*
X83284Y-78537D01*
X83228Y-78843D01*
X83201Y-79065D01*
X83173Y-79287D01*
X83145Y-79482D01*
Y-79620D01*
X83090Y-79870D01*
Y-80009D01*
X83062Y-80093D01*
Y-80148D01*
X82034D01*
X82007Y-80093D01*
X81979Y-80037D01*
X81923Y-79815D01*
X81896Y-79620D01*
Y-79565D01*
Y-79537D01*
X81868Y-79343D01*
Y-79204D01*
X81840Y-79093D01*
Y-78982D01*
Y-78898D01*
Y-78871D01*
X81784Y-78454D01*
X81729Y-78065D01*
X81701Y-77704D01*
X81646Y-77399D01*
X81618Y-77149D01*
X81590Y-76899D01*
X81562Y-76705D01*
X81534Y-76510D01*
Y-76371D01*
X81507Y-76260D01*
X81479Y-76066D01*
Y-75982D01*
Y-75955D01*
X81451Y-75760D01*
Y-75621D01*
X81423Y-75510D01*
Y-75427D01*
X81396Y-75372D01*
Y-75344D01*
Y-74844D01*
Y-74622D01*
Y-74427D01*
Y-74261D01*
Y-74122D01*
Y-74039D01*
Y-74011D01*
Y-73511D01*
Y-73261D01*
Y-73067D01*
Y-72872D01*
Y-72733D01*
Y-72650D01*
Y-72622D01*
X83645D01*
Y-73122D01*
D02*
G37*
G36*
Y-81425D02*
Y-81759D01*
Y-81897D01*
Y-82009D01*
Y-82064D01*
Y-82092D01*
Y-82453D01*
Y-82786D01*
Y-82897D01*
Y-83008D01*
Y-83064D01*
Y-83092D01*
X81534D01*
Y-82731D01*
Y-82397D01*
Y-82286D01*
Y-82175D01*
Y-82120D01*
Y-82092D01*
Y-81703D01*
Y-81370D01*
Y-81231D01*
Y-81120D01*
Y-81064D01*
Y-81037D01*
X83645D01*
Y-81425D01*
D02*
G37*
%LPC*%
G36*
X56736Y-69790D02*
X56680D01*
Y-69818D01*
X56514D01*
X56375Y-69873D01*
X56125Y-69956D01*
X55958Y-70068D01*
X55931Y-70095D01*
X55903Y-70123D01*
X55819Y-70206D01*
X55792Y-70234D01*
X55736Y-70317D01*
X55708Y-70345D01*
Y-70373D01*
X47738Y-84147D01*
Y-84175D01*
X47655Y-84341D01*
X47600Y-84480D01*
X47572Y-84591D01*
Y-84647D01*
Y-84730D01*
Y-84758D01*
X47600Y-84980D01*
X47627Y-85174D01*
X47683Y-85286D01*
X47711Y-85341D01*
X47933Y-85591D01*
X48127Y-85758D01*
X48294Y-85841D01*
X48349Y-85869D01*
X48377D01*
X48349Y-85841D01*
X48405Y-85869D01*
X48488Y-85896D01*
X48710D01*
Y-85924D01*
X64650Y-85924D01*
X64817Y-85896D01*
X64984Y-85869D01*
X65233Y-85757D01*
X65400Y-85674D01*
X65428Y-85619D01*
X65456D01*
X65539Y-85508D01*
X65567Y-85480D01*
X65650Y-85396D01*
X65678Y-85341D01*
X65733Y-85202D01*
X65789Y-85063D01*
X65817Y-84786D01*
Y-84675D01*
X65789Y-84619D01*
Y-84563D01*
Y-84536D01*
X65761Y-84425D01*
X65733Y-84397D01*
Y-84369D01*
X65706Y-84258D01*
X65678Y-84230D01*
Y-84202D01*
Y-84175D01*
X57708Y-70401D01*
X57597Y-70234D01*
X57486Y-70123D01*
X57402Y-70040D01*
X57375Y-70012D01*
X57319D01*
X57291Y-69984D01*
Y-69956D01*
X57069Y-69845D01*
X56875Y-69818D01*
X56736Y-69790D01*
D02*
G37*
%LPD*%
G36*
X57458Y-71428D02*
X60040Y-80342D01*
X56014Y-78371D01*
X57263Y-83119D01*
X58124Y-82453D01*
X57708Y-85119D01*
X55792Y-82897D01*
X56958Y-83175D01*
X53764Y-76566D01*
X58985Y-79259D01*
X55569Y-71373D01*
X57458Y-71428D01*
D02*
G37*
%LPC*%
G36*
X30910Y-69790D02*
X30854D01*
Y-69818D01*
X30688D01*
X30549Y-69873D01*
X30299Y-69956D01*
X30132Y-70068D01*
X30104Y-70095D01*
X30077Y-70123D01*
X30021Y-70179D01*
X29966Y-70206D01*
Y-70234D01*
X29910Y-70345D01*
X29882Y-70373D01*
X29855D01*
X27133Y-75094D01*
X28077Y-75483D01*
X28383Y-75566D01*
X28633Y-75621D01*
X28744Y-75649D01*
X29244D01*
X29493Y-75621D01*
X29993D01*
X30132Y-75594D01*
X30465D01*
X30743Y-75621D01*
X30993Y-75649D01*
X31187Y-75677D01*
X31354Y-75705D01*
X31493Y-75760D01*
X31576Y-75788D01*
X31604D01*
X31826Y-75871D01*
X32048Y-75982D01*
X32465Y-76232D01*
X32659Y-76344D01*
X32798Y-76427D01*
X32881Y-76482D01*
X32909Y-76510D01*
X32993Y-76566D01*
X33131Y-76649D01*
X33242Y-76732D01*
X33270Y-76760D01*
X33298D01*
X33381Y-76816D01*
X33409Y-76843D01*
X33437D01*
X33520Y-76899D01*
X33548Y-76927D01*
X33742Y-77038D01*
X33881Y-77149D01*
X33992Y-77204D01*
X34020Y-77232D01*
X34187Y-77371D01*
X34326Y-77482D01*
X34381Y-77565D01*
X34409Y-77593D01*
X35631Y-76899D01*
X31882Y-70401D01*
X31771Y-70234D01*
X31660Y-70123D01*
X31576Y-70040D01*
X31549Y-70012D01*
X31521D01*
X31493Y-69984D01*
X31465Y-69956D01*
X31243Y-69845D01*
X31049Y-69818D01*
X30910Y-69790D01*
D02*
G37*
G36*
X26994Y-75372D02*
X25383Y-78149D01*
X25522Y-78260D01*
X25578Y-78287D01*
X25606Y-78315D01*
X25745Y-78482D01*
X25856Y-78621D01*
X25939Y-78732D01*
X25967Y-78787D01*
X26050Y-78982D01*
X26105Y-79148D01*
X26161Y-79315D01*
X26189Y-79343D01*
Y-79370D01*
X26300Y-79620D01*
X26383Y-79787D01*
X26411Y-79870D01*
X26439Y-79898D01*
X26550Y-80037D01*
X26578Y-80065D01*
X26605Y-80093D01*
X26744Y-80259D01*
X26772Y-80287D01*
X26800Y-80315D01*
X27077Y-80565D01*
X27327Y-80787D01*
X27550Y-80953D01*
X27744Y-81064D01*
X27911Y-81148D01*
X28022Y-81203D01*
X28105Y-81231D01*
X28133D01*
X34131Y-77760D01*
X34020Y-77649D01*
X33937Y-77565D01*
X33853Y-77510D01*
X33826Y-77482D01*
X33659Y-77371D01*
X33520Y-77260D01*
X33409Y-77204D01*
X33381Y-77177D01*
X33270Y-77093D01*
X33187Y-77065D01*
X33131Y-77038D01*
X32937Y-76899D01*
X32826Y-76816D01*
X32743Y-76788D01*
X32715Y-76760D01*
X32465Y-76593D01*
X32243Y-76427D01*
X32021Y-76316D01*
X31854Y-76232D01*
X31687Y-76149D01*
X31576Y-76094D01*
X31521Y-76066D01*
X31493D01*
X31076Y-75982D01*
X30660Y-75927D01*
X29799D01*
X29438Y-75955D01*
X29160Y-75982D01*
X28855D01*
X28521Y-75927D01*
X28244Y-75871D01*
X28133Y-75816D01*
X28049Y-75788D01*
X27994Y-75760D01*
X27966D01*
X26994Y-75372D01*
D02*
G37*
G36*
X31299Y-80481D02*
X30549Y-80898D01*
X30715Y-81037D01*
X30882Y-81176D01*
X31021Y-81259D01*
X31049Y-81314D01*
X31076D01*
X31132Y-81231D01*
X31187Y-81120D01*
X31215Y-81037D01*
X31243Y-81009D01*
X31271Y-80953D01*
Y-80926D01*
X31326Y-80759D01*
Y-80703D01*
Y-80676D01*
Y-80620D01*
X31299Y-80565D01*
Y-80509D01*
Y-80481D01*
D02*
G37*
G36*
X32104Y-80009D02*
X31576Y-80315D01*
X31604Y-80453D01*
X31632Y-80592D01*
Y-80676D01*
Y-80703D01*
X31604Y-80842D01*
X31576Y-80953D01*
X31549Y-81037D01*
Y-81064D01*
X31521Y-81120D01*
X31437Y-81287D01*
X31354Y-81425D01*
X31326Y-81481D01*
X31299Y-81509D01*
X31493Y-81675D01*
X31660Y-81842D01*
X31771Y-81953D01*
X31826Y-82009D01*
X31854Y-82036D01*
X31882Y-82064D01*
X31909Y-82092D01*
Y-82120D01*
X32021Y-81953D01*
X32076Y-81814D01*
X32132Y-81731D01*
Y-81703D01*
X32159Y-81648D01*
X32187Y-81592D01*
X32215Y-81509D01*
Y-81481D01*
X32243Y-81342D01*
X32271Y-81203D01*
Y-81092D01*
Y-81037D01*
Y-81009D01*
Y-80953D01*
Y-80787D01*
Y-80620D01*
Y-80565D01*
Y-80537D01*
Y-80426D01*
X32243Y-80315D01*
Y-80259D01*
Y-80231D01*
X32159Y-80065D01*
X32104Y-80037D01*
Y-80009D01*
D02*
G37*
G36*
X32854Y-79593D02*
X32382Y-79843D01*
X32493Y-80037D01*
X32548Y-80120D01*
Y-80148D01*
X32576Y-80287D01*
Y-80398D01*
Y-80509D01*
Y-80537D01*
Y-80731D01*
Y-80787D01*
Y-80814D01*
Y-80953D01*
Y-81009D01*
Y-81037D01*
Y-81259D01*
X32548Y-81425D01*
X32520Y-81509D01*
Y-81537D01*
Y-81564D01*
X32493Y-81648D01*
Y-81675D01*
Y-81703D01*
X32465D01*
X32437Y-81759D01*
X32409Y-81814D01*
Y-81842D01*
X32326Y-82036D01*
X32215Y-82203D01*
X32159Y-82314D01*
X32132Y-82370D01*
X32271Y-82592D01*
X32354Y-82758D01*
X32409Y-82869D01*
X32437Y-82925D01*
X32548Y-82869D01*
X32576Y-82814D01*
X32604D01*
X32715Y-82758D01*
X32770Y-82703D01*
X32798Y-82675D01*
X32854Y-82620D01*
X32881Y-82592D01*
X32909D01*
X32965Y-82536D01*
X33020Y-82508D01*
X33048Y-82481D01*
X33076D01*
X33104Y-82453D01*
Y-82397D01*
Y-82175D01*
X33076Y-81981D01*
X33048Y-81870D01*
Y-81814D01*
Y-81731D01*
Y-81648D01*
X33104Y-81398D01*
X33131Y-81287D01*
X33159Y-81203D01*
X33187Y-81148D01*
Y-81120D01*
X33242Y-80953D01*
X33270Y-80814D01*
X33298Y-80648D01*
Y-80537D01*
Y-80509D01*
X33270Y-80398D01*
X33187Y-80259D01*
X33131Y-80148D01*
X33104Y-80120D01*
X32965Y-79898D01*
X32881Y-79732D01*
X32854Y-79620D01*
Y-79593D01*
D02*
G37*
G36*
X29410Y-82342D02*
X29382D01*
X29327Y-82397D01*
X29188Y-82508D01*
X29105Y-82620D01*
X29049Y-82647D01*
Y-82675D01*
Y-82703D01*
X29021D01*
Y-82731D01*
X28966Y-82786D01*
Y-82842D01*
Y-82869D01*
Y-82897D01*
Y-82953D01*
X28994Y-83036D01*
X29021Y-83119D01*
Y-83147D01*
Y-83175D01*
X29105Y-83231D01*
X29216Y-83258D01*
X29355D01*
X29577Y-83231D01*
X29743Y-83203D01*
X29855Y-83175D01*
X29910D01*
X30049Y-83092D01*
X30077Y-83064D01*
X30104D01*
Y-83036D01*
X30077Y-83008D01*
Y-82981D01*
X29966Y-82814D01*
X29855Y-82675D01*
X29771Y-82592D01*
X29743Y-82564D01*
X29660Y-82508D01*
X29549Y-82425D01*
X29438Y-82370D01*
X29410Y-82342D01*
D02*
G37*
G36*
X34714Y-78482D02*
X33131Y-79398D01*
X33159Y-79565D01*
X33242Y-79759D01*
X33326Y-79898D01*
X33353Y-79926D01*
Y-79954D01*
X33492Y-80148D01*
X33576Y-80315D01*
X33631Y-80426D01*
Y-80453D01*
Y-80537D01*
X33603Y-80676D01*
X33548Y-80926D01*
X33520Y-81037D01*
X33492Y-81148D01*
X33465Y-81203D01*
Y-81231D01*
X33409Y-81370D01*
X33381Y-81481D01*
X33353Y-81648D01*
Y-81703D01*
Y-81731D01*
X33409Y-81981D01*
Y-82175D01*
Y-82342D01*
Y-82370D01*
Y-82397D01*
Y-82481D01*
Y-82508D01*
X33381Y-82564D01*
Y-82592D01*
X33353Y-82675D01*
Y-82731D01*
X33326Y-82758D01*
X33298Y-82869D01*
Y-82925D01*
X33270Y-82953D01*
X33187Y-83231D01*
X33131Y-83453D01*
X33076Y-83647D01*
Y-83786D01*
X33048Y-83869D01*
Y-83925D01*
Y-83980D01*
X33104Y-84175D01*
X33187Y-84313D01*
X33270Y-84425D01*
X33298Y-84452D01*
X33353Y-84480D01*
X33381Y-84508D01*
Y-84480D01*
Y-84425D01*
Y-84397D01*
Y-84369D01*
Y-84258D01*
Y-84202D01*
X33465Y-84008D01*
X33492Y-83952D01*
X33520Y-83925D01*
X33576Y-83869D01*
X33603Y-83814D01*
X33715Y-83675D01*
X33798Y-83564D01*
X33909Y-83508D01*
X34020Y-83453D01*
X34187Y-83397D01*
X34353D01*
X34381Y-83425D01*
X34437D01*
X34492Y-83314D01*
X34520Y-83203D01*
X34548Y-83092D01*
X34575Y-83064D01*
X34659Y-82869D01*
X34742Y-82703D01*
X34770Y-82592D01*
X34798Y-82536D01*
X34853Y-82314D01*
X34881Y-82120D01*
X34909Y-81925D01*
Y-81897D01*
Y-81870D01*
X34964Y-81509D01*
X35020Y-81259D01*
X35048Y-81120D01*
Y-81064D01*
Y-81037D01*
X35075Y-80953D01*
X35103Y-80870D01*
X35131Y-80787D01*
Y-80759D01*
X35186Y-80537D01*
X35242Y-80342D01*
Y-80203D01*
X35270Y-80065D01*
Y-79981D01*
X35242Y-79926D01*
Y-79870D01*
X35186Y-79732D01*
X35131Y-79537D01*
X35048Y-79370D01*
X35020Y-79343D01*
Y-79315D01*
X34853Y-78982D01*
X34770Y-78704D01*
X34714Y-78537D01*
Y-78510D01*
Y-78482D01*
D02*
G37*
G36*
X30243Y-81064D02*
X29105Y-81731D01*
X29244Y-81842D01*
X29382Y-81953D01*
X29521Y-82064D01*
X29549Y-82092D01*
X29577D01*
X29743Y-82203D01*
X29855Y-82286D01*
X29910Y-82342D01*
X29938D01*
X30104Y-82508D01*
X30243Y-82675D01*
X30327Y-82786D01*
X30354Y-82814D01*
Y-82842D01*
X30410Y-82953D01*
X30438Y-83064D01*
X30465Y-83092D01*
Y-83119D01*
X30493Y-83203D01*
X30521Y-83231D01*
Y-83258D01*
X30688Y-83203D01*
X30771D01*
X30882Y-83175D01*
X30910Y-83147D01*
X31299D01*
X31465Y-83175D01*
X31521D01*
X31576Y-83203D01*
X31604D01*
X31632Y-83231D01*
X31715D01*
X31743Y-83258D01*
X31771D01*
X31937Y-83342D01*
X32076Y-83425D01*
X32159Y-83480D01*
X32187Y-83508D01*
X32215Y-83536D01*
X32243Y-83592D01*
X32267Y-83616D01*
X32271Y-83647D01*
Y-83619D01*
X32267Y-83616D01*
X32243Y-83397D01*
X32159Y-83147D01*
X32048Y-82897D01*
X31909Y-82675D01*
X31798Y-82481D01*
X31687Y-82342D01*
X31604Y-82231D01*
X31576Y-82203D01*
X31354Y-81953D01*
X31132Y-81759D01*
X30965Y-81620D01*
X30937Y-81564D01*
X30910D01*
X30632Y-81370D01*
X30438Y-81203D01*
X30299Y-81092D01*
X30243Y-81064D01*
D02*
G37*
G36*
X30215Y-83369D02*
X30160Y-83397D01*
X30077Y-83425D01*
X30021Y-83453D01*
X29993D01*
X29966Y-83480D01*
X29910D01*
X29882Y-83508D01*
X29855D01*
X29771Y-83647D01*
Y-83758D01*
Y-83841D01*
Y-83869D01*
Y-83925D01*
X29799Y-83952D01*
Y-84008D01*
X29827Y-84036D01*
X29855D01*
X29938Y-84091D01*
X30021Y-84119D01*
X30132D01*
X30271Y-84091D01*
X30382Y-84064D01*
X30438Y-84036D01*
X30465Y-84008D01*
X30354Y-83814D01*
X30299Y-83647D01*
X30243Y-83536D01*
Y-83508D01*
X30215Y-83397D01*
Y-83369D01*
D02*
G37*
G36*
X31021Y-83286D02*
X30937D01*
X30771Y-83342D01*
X30632Y-83369D01*
X30577Y-83397D01*
X30549Y-83425D01*
X30604Y-83592D01*
X30688Y-83758D01*
X30799Y-83897D01*
X30826Y-83925D01*
Y-83952D01*
X30993Y-84175D01*
X31104Y-84286D01*
X31187Y-84369D01*
X31215Y-84397D01*
X31299Y-84452D01*
X31354Y-84480D01*
X31410Y-84508D01*
X31521Y-84563D01*
X31854D01*
X31965Y-84536D01*
X32021Y-84508D01*
X32076Y-84480D01*
X32159Y-84369D01*
X32215Y-84230D01*
X32271Y-84119D01*
Y-84064D01*
X32243Y-83925D01*
X32215Y-83897D01*
X32159Y-83758D01*
X32104Y-83675D01*
X32076Y-83619D01*
X31965Y-83536D01*
X31854Y-83453D01*
X31771Y-83425D01*
X31743Y-83397D01*
X31687D01*
X31660Y-83369D01*
X31549D01*
X31437Y-83342D01*
X31299Y-83314D01*
X31187D01*
X31021Y-83286D01*
D02*
G37*
G36*
X34270Y-83536D02*
X34131D01*
X34048Y-83592D01*
X33881Y-83703D01*
X33770Y-83814D01*
X33742Y-83841D01*
Y-83869D01*
X33715Y-83925D01*
X33687Y-83952D01*
X33659Y-83980D01*
Y-84008D01*
X33576Y-84175D01*
X33548Y-84230D01*
Y-84258D01*
X33520Y-84286D01*
Y-84313D01*
Y-84341D01*
Y-84369D01*
Y-84452D01*
X33548Y-84480D01*
Y-84508D01*
Y-84563D01*
Y-84591D01*
X33576Y-84619D01*
X33687D01*
X33826Y-84563D01*
X33937Y-84508D01*
X33992Y-84452D01*
X34020Y-84425D01*
X34075Y-84341D01*
X34131Y-84230D01*
X34242Y-83980D01*
X34270Y-83869D01*
X34326Y-83758D01*
X34353Y-83703D01*
Y-83675D01*
X34381Y-83564D01*
X34353D01*
X34270Y-83536D01*
D02*
G37*
G36*
X36103Y-77704D02*
X35020Y-78315D01*
X35075Y-78593D01*
X35159Y-78898D01*
X35214Y-79009D01*
X35270Y-79120D01*
X35297Y-79176D01*
Y-79204D01*
X35408Y-79454D01*
X35492Y-79648D01*
X35547Y-79759D01*
Y-79787D01*
X35575Y-79926D01*
Y-80093D01*
X35520Y-80426D01*
X35492Y-80592D01*
X35464Y-80731D01*
X35436Y-80814D01*
Y-80842D01*
X35408Y-80953D01*
X35381Y-81064D01*
X35353Y-81092D01*
Y-81120D01*
Y-81148D01*
X35297Y-81370D01*
X35270Y-81620D01*
X35242Y-81731D01*
X35214Y-81814D01*
Y-81870D01*
Y-81897D01*
X35186Y-82092D01*
X35159Y-82258D01*
Y-82370D01*
X35131Y-82481D01*
X35075Y-82620D01*
Y-82647D01*
X35020Y-82814D01*
X34964Y-82981D01*
X34909Y-83147D01*
X34881Y-83175D01*
Y-83203D01*
X34825Y-83342D01*
X34770Y-83425D01*
X34714Y-83564D01*
X34686Y-83619D01*
Y-83647D01*
Y-83675D01*
X34659Y-83703D01*
Y-83730D01*
Y-83758D01*
X34575Y-83980D01*
X34492Y-84175D01*
X34437Y-84313D01*
X34353Y-84425D01*
X34326Y-84508D01*
X34270Y-84563D01*
X34242Y-84619D01*
X34075Y-84786D01*
X33881Y-84869D01*
X33770Y-84925D01*
X33603D01*
X33492Y-84897D01*
X33409Y-84869D01*
X33381D01*
X33187Y-84758D01*
X33131Y-84730D01*
X33104Y-84702D01*
X32993Y-84591D01*
X32909Y-84480D01*
X32798Y-84258D01*
X32743Y-84064D01*
Y-84036D01*
Y-84008D01*
Y-83897D01*
X32770Y-83730D01*
X32826Y-83397D01*
X32854Y-83231D01*
X32909Y-83092D01*
X32937Y-83008D01*
Y-82981D01*
X32826Y-83036D01*
X32798Y-83064D01*
X32770Y-83092D01*
X32631Y-83175D01*
X32576Y-83231D01*
X32548Y-83258D01*
X32576Y-83425D01*
X32604Y-83564D01*
Y-83675D01*
Y-83703D01*
Y-83730D01*
Y-83758D01*
Y-83786D01*
X32576Y-84008D01*
X32548Y-84175D01*
X32493Y-84341D01*
X32437Y-84480D01*
X32382Y-84563D01*
X32326Y-84647D01*
X32271Y-84675D01*
Y-84702D01*
X32159Y-84786D01*
X32021Y-84841D01*
X31909Y-84869D01*
X31549D01*
X31354Y-84813D01*
X31299Y-84786D01*
X31271D01*
X31160Y-84730D01*
X31076Y-84702D01*
X31049Y-84647D01*
X31021D01*
X30882Y-84536D01*
X30771Y-84397D01*
X30688Y-84286D01*
X30660Y-84258D01*
X30493Y-84369D01*
X30327Y-84425D01*
X30215Y-84452D01*
X30160D01*
X29938Y-84425D01*
X29771Y-84369D01*
X29660Y-84286D01*
X29632Y-84258D01*
X29605Y-84230D01*
X29577Y-84202D01*
X29521Y-84147D01*
X29493Y-84091D01*
X29466Y-84008D01*
Y-83980D01*
Y-83952D01*
X29438Y-83814D01*
Y-83675D01*
X29466Y-83592D01*
Y-83564D01*
X29327D01*
X29077Y-83536D01*
X28910Y-83453D01*
X28799Y-83397D01*
X28771Y-83369D01*
X28744Y-83286D01*
X28716Y-83258D01*
X28688Y-83119D01*
X28660Y-83008D01*
X28633Y-82925D01*
Y-82897D01*
X28660Y-82758D01*
X28688Y-82620D01*
X28744Y-82536D01*
X28771Y-82508D01*
X28799Y-82481D01*
X28938Y-82342D01*
X29049Y-82231D01*
X29105Y-82203D01*
X29133Y-82175D01*
X29021Y-82064D01*
X28910Y-81981D01*
X28855Y-81925D01*
X28827Y-81897D01*
X22245Y-85702D01*
X22440Y-85813D01*
X22523Y-85869D01*
X22634D01*
X22690Y-85896D01*
X22884D01*
Y-85924D01*
X38824D01*
X38991Y-85896D01*
X39158Y-85869D01*
X39407Y-85758D01*
X39574Y-85674D01*
X39602Y-85619D01*
X39630D01*
X39713Y-85508D01*
X39741Y-85480D01*
X39796Y-85396D01*
X39824Y-85341D01*
X39852D01*
X39963Y-85063D01*
X39991Y-84813D01*
Y-84702D01*
X39963Y-84619D01*
Y-84563D01*
Y-84536D01*
X39935Y-84397D01*
X39907Y-84369D01*
X39880Y-84258D01*
X39852Y-84230D01*
Y-84202D01*
Y-84175D01*
X36103Y-77704D01*
D02*
G37*
G36*
X25245Y-78399D02*
X25217D01*
X21912Y-84147D01*
Y-84175D01*
X21829Y-84341D01*
X21773Y-84480D01*
X21746Y-84591D01*
Y-84647D01*
Y-84730D01*
Y-84758D01*
Y-84869D01*
Y-84925D01*
X27772Y-81425D01*
X27577Y-81314D01*
X27355Y-81176D01*
X26966Y-80898D01*
X26828Y-80759D01*
X26689Y-80648D01*
X26605Y-80565D01*
X26578Y-80537D01*
X26439Y-80370D01*
X26383Y-80315D01*
X26355Y-80287D01*
X26244Y-80148D01*
X26189Y-80093D01*
Y-80065D01*
X26078Y-79898D01*
X25995Y-79704D01*
X25939Y-79537D01*
X25911Y-79509D01*
Y-79482D01*
X25828Y-79232D01*
X25745Y-79065D01*
X25717Y-78982D01*
X25689Y-78954D01*
X25578Y-78759D01*
X25467Y-78648D01*
X25411Y-78565D01*
X25383Y-78537D01*
X25273Y-78454D01*
X25245Y-78399D01*
D02*
G37*
G36*
X-13244Y-69790D02*
X-13300D01*
Y-69818D01*
X-13467D01*
X-13605Y-69873D01*
X-13856Y-69956D01*
X-14022Y-70068D01*
X-14050Y-70095D01*
X-14078Y-70123D01*
X-14133Y-70179D01*
X-14189Y-70206D01*
Y-70234D01*
X-14244Y-70345D01*
X-14272Y-70373D01*
X-14300D01*
X-22242Y-84147D01*
Y-84175D01*
X-22325Y-84341D01*
X-22381Y-84480D01*
X-22409Y-84591D01*
Y-84647D01*
Y-84730D01*
Y-84758D01*
X-22381Y-84980D01*
X-22353Y-85174D01*
X-22298Y-85286D01*
X-22270Y-85341D01*
X-22048Y-85591D01*
X-21853Y-85758D01*
X-21687Y-85841D01*
X-21631Y-85869D01*
X-21520D01*
X-21464Y-85896D01*
X-21270D01*
Y-85924D01*
X-5330D01*
X-5164Y-85896D01*
X-4997Y-85869D01*
X-4747Y-85758D01*
X-4580Y-85674D01*
X-4552Y-85619D01*
X-4525D01*
X-4441Y-85508D01*
X-4414Y-85480D01*
X-4358Y-85397D01*
X-4330Y-85341D01*
X-4303D01*
X-4191Y-85063D01*
X-4164Y-84813D01*
Y-84702D01*
X-4191Y-84619D01*
Y-84563D01*
Y-84536D01*
X-4219Y-84397D01*
X-4247Y-84369D01*
X-4275Y-84258D01*
X-4303Y-84230D01*
Y-84202D01*
Y-84175D01*
X-12273Y-70401D01*
X-12384Y-70234D01*
X-12495Y-70123D01*
X-12578Y-70040D01*
X-12606Y-70012D01*
X-12634D01*
X-12661Y-69984D01*
X-12689Y-69956D01*
X-12911Y-69845D01*
X-13106Y-69818D01*
X-13244Y-69790D01*
D02*
G37*
%LPD*%
G36*
X-11745Y-74261D02*
X-11578Y-74400D01*
X-11495Y-74483D01*
X-11440Y-74538D01*
X-11301Y-74705D01*
X-11190Y-74844D01*
X-11106Y-74955D01*
X-11079Y-75011D01*
X-10940Y-75261D01*
X-10829Y-75538D01*
X-10718Y-75788D01*
X-10662Y-76010D01*
X-10606Y-76205D01*
X-10579Y-76371D01*
X-10551Y-76482D01*
Y-76510D01*
X-10523Y-76816D01*
X-10551Y-77121D01*
X-10606Y-77399D01*
X-10662Y-77649D01*
X-10718Y-77871D01*
X-10801Y-78038D01*
X-10829Y-78149D01*
X-10856Y-78176D01*
X-10967Y-78399D01*
X-11106Y-78621D01*
X-11217Y-78787D01*
X-11273Y-78815D01*
Y-78843D01*
X-11412Y-79065D01*
X-11551Y-79259D01*
X-11634Y-79454D01*
X-11689Y-79620D01*
X-11745Y-79759D01*
Y-79870D01*
X-11773Y-79926D01*
Y-79954D01*
Y-80120D01*
Y-80148D01*
Y-80176D01*
Y-80315D01*
X-11745Y-80370D01*
Y-80398D01*
X-11689Y-80648D01*
X-11634Y-80814D01*
X-11578Y-80981D01*
X-11523Y-81064D01*
X-11440Y-81148D01*
X-11412Y-81176D01*
X-11356Y-81203D01*
X-11551Y-81787D01*
X-11773Y-81675D01*
X-11939Y-81509D01*
X-12078Y-81287D01*
X-12189Y-81064D01*
X-12273Y-80842D01*
X-12328Y-80648D01*
X-12356Y-80537D01*
Y-80481D01*
X-12384Y-80398D01*
Y-80287D01*
Y-80204D01*
Y-80176D01*
Y-80093D01*
Y-80009D01*
Y-79926D01*
Y-79898D01*
X-12328Y-79537D01*
X-12245Y-79287D01*
X-12162Y-79120D01*
X-12134Y-79065D01*
X-11995Y-78843D01*
X-11884Y-78648D01*
X-11801Y-78510D01*
X-11773Y-78454D01*
X-11606Y-78204D01*
X-11495Y-78038D01*
X-11440Y-77926D01*
X-11412Y-77899D01*
X-11301Y-77649D01*
X-11245Y-77427D01*
X-11162Y-76955D01*
X-11190Y-76538D01*
X-11273Y-76149D01*
X-11384Y-75844D01*
X-11495Y-75594D01*
X-11578Y-75427D01*
X-11606Y-75372D01*
X-11717Y-75205D01*
X-11801Y-75066D01*
X-11884Y-74983D01*
X-11912Y-74955D01*
X-12023Y-74844D01*
X-12134Y-74733D01*
X-12217Y-74677D01*
X-12245Y-74650D01*
X-12273D01*
X-12050Y-74372D01*
X-11884Y-74150D01*
X-11745Y-74261D01*
D02*
G37*
G36*
X-13272Y-74288D02*
X-13134Y-74400D01*
X-13022Y-74511D01*
X-12995Y-74538D01*
X-12856Y-74705D01*
X-12745Y-74844D01*
X-12661Y-74955D01*
X-12634Y-75011D01*
X-12384Y-75538D01*
X-12273Y-75788D01*
X-12189Y-76010D01*
X-12134Y-76205D01*
X-12106Y-76371D01*
X-12078Y-76482D01*
Y-76510D01*
X-12050Y-76816D01*
X-12078Y-77121D01*
X-12134Y-77399D01*
X-12217Y-77649D01*
X-12273Y-77871D01*
X-12356Y-78038D01*
X-12384Y-78149D01*
X-12411Y-78176D01*
X-12522Y-78371D01*
X-12661Y-78593D01*
X-12773Y-78759D01*
X-12828Y-78815D01*
Y-78843D01*
X-12967Y-79065D01*
X-13078Y-79259D01*
X-13161Y-79454D01*
X-13244Y-79620D01*
X-13272Y-79759D01*
X-13300Y-79870D01*
Y-79926D01*
Y-79954D01*
Y-80093D01*
Y-80148D01*
Y-80176D01*
Y-80315D01*
Y-80370D01*
Y-80398D01*
X-13244Y-80648D01*
X-13189Y-80814D01*
X-13134Y-80981D01*
X-13078Y-81064D01*
X-12995Y-81148D01*
X-12967Y-81176D01*
X-12911Y-81203D01*
X-13106Y-81787D01*
X-13328Y-81675D01*
X-13495Y-81509D01*
X-13633Y-81287D01*
X-13744Y-81064D01*
X-13828Y-80842D01*
X-13883Y-80648D01*
X-13911Y-80537D01*
Y-80481D01*
Y-80398D01*
X-13939Y-80287D01*
Y-80204D01*
Y-80176D01*
Y-80037D01*
Y-79954D01*
Y-79926D01*
Y-79898D01*
X-13883Y-79537D01*
X-13800Y-79287D01*
X-13717Y-79120D01*
X-13689Y-79065D01*
X-13550Y-78843D01*
X-13439Y-78648D01*
X-13356Y-78510D01*
X-13328Y-78454D01*
X-13161Y-78232D01*
X-13050Y-78038D01*
X-12995Y-77926D01*
X-12967Y-77899D01*
X-12856Y-77649D01*
X-12800Y-77427D01*
X-12717Y-76955D01*
X-12745Y-76538D01*
X-12828Y-76149D01*
X-12939Y-75844D01*
X-13050Y-75594D01*
X-13134Y-75427D01*
X-13161Y-75372D01*
X-13272Y-75205D01*
X-13356Y-75066D01*
X-13411Y-74983D01*
X-13439Y-74955D01*
X-13578Y-74844D01*
X-13689Y-74733D01*
X-13772Y-74677D01*
X-13800Y-74650D01*
X-13605Y-74372D01*
X-13439Y-74150D01*
X-13272Y-74288D01*
D02*
G37*
G36*
X-14827D02*
X-14689Y-74427D01*
X-14578Y-74511D01*
X-14550Y-74538D01*
X-14411Y-74705D01*
X-14300Y-74844D01*
X-14217Y-74955D01*
X-14189Y-75011D01*
X-14050Y-75261D01*
X-13911Y-75538D01*
X-13828Y-75788D01*
X-13744Y-76010D01*
X-13689Y-76205D01*
X-13661Y-76371D01*
X-13633Y-76482D01*
Y-76510D01*
X-13605Y-76816D01*
X-13633Y-77121D01*
X-13689Y-77399D01*
X-13744Y-77649D01*
X-13800Y-77871D01*
X-13883Y-78038D01*
X-13911Y-78149D01*
X-13939Y-78176D01*
X-14050Y-78399D01*
X-14189Y-78621D01*
X-14300Y-78787D01*
X-14355Y-78815D01*
Y-78843D01*
X-14494Y-79065D01*
X-14633Y-79259D01*
X-14716Y-79454D01*
X-14772Y-79620D01*
X-14827Y-79759D01*
Y-79870D01*
X-14855Y-79926D01*
Y-79954D01*
Y-80009D01*
Y-80093D01*
Y-80148D01*
Y-80176D01*
Y-80231D01*
Y-80315D01*
Y-80370D01*
Y-80398D01*
X-14800Y-80648D01*
X-14744Y-80814D01*
X-14661Y-80981D01*
X-14605Y-81064D01*
X-14550Y-81148D01*
X-14522Y-81176D01*
X-14466Y-81203D01*
X-14661Y-81787D01*
X-14883Y-81675D01*
X-15050Y-81509D01*
X-15188Y-81287D01*
X-15300Y-81064D01*
X-15355Y-80842D01*
X-15411Y-80648D01*
X-15438Y-80537D01*
Y-80481D01*
X-15466Y-80398D01*
Y-80287D01*
Y-80204D01*
Y-80176D01*
Y-79981D01*
Y-79926D01*
Y-79898D01*
X-15411Y-79537D01*
X-15355Y-79287D01*
X-15272Y-79120D01*
X-15244Y-79065D01*
X-15105Y-78843D01*
X-14994Y-78648D01*
X-14883Y-78510D01*
X-14855Y-78454D01*
X-14689Y-78204D01*
X-14578Y-78038D01*
X-14522Y-77926D01*
X-14494Y-77899D01*
X-14383Y-77649D01*
X-14328Y-77427D01*
X-14244Y-76955D01*
X-14272Y-76538D01*
X-14355Y-76149D01*
X-14466Y-75844D01*
X-14578Y-75594D01*
X-14661Y-75427D01*
X-14689Y-75372D01*
X-14800Y-75205D01*
X-14911Y-75066D01*
X-14966Y-74983D01*
X-14994Y-74955D01*
X-15133Y-74816D01*
X-15244Y-74733D01*
X-15327Y-74677D01*
X-15355Y-74650D01*
X-15133Y-74372D01*
X-14994Y-74150D01*
X-14827Y-74288D01*
D02*
G37*
G36*
X-8635Y-83286D02*
X-17938D01*
Y-82508D01*
X-8635D01*
Y-83286D01*
D02*
G37*
%LPC*%
G36*
X91559Y-87813D02*
X91504Y-88007D01*
X91448Y-88174D01*
X91393Y-88312D01*
X91365Y-88340D01*
Y-88368D01*
X91087Y-89090D01*
X92004D01*
X91698Y-88312D01*
X91643Y-88118D01*
X91587Y-87979D01*
X91559Y-87868D01*
Y-87813D01*
D02*
G37*
G36*
X39907Y-87813D02*
X39852Y-88007D01*
X39796Y-88174D01*
X39741Y-88312D01*
X39713Y-88340D01*
Y-88368D01*
X39435Y-89090D01*
X40352D01*
X40046Y-88312D01*
X39991Y-88118D01*
X39935Y-87979D01*
X39907Y-87868D01*
Y-87813D01*
D02*
G37*
G36*
X-4247Y-87813D02*
X-4303Y-88007D01*
X-4358Y-88174D01*
X-4414Y-88312D01*
X-4441Y-88340D01*
Y-88368D01*
X-4719Y-89090D01*
X-3803D01*
X-4108Y-88312D01*
X-4164Y-88118D01*
X-4219Y-87979D01*
X-4247Y-87868D01*
Y-87813D01*
D02*
G37*
G36*
X76147Y-87785D02*
X76091D01*
X75925Y-87813D01*
X75758Y-87840D01*
X75647Y-87896D01*
X75620Y-87924D01*
X75481Y-88035D01*
X75370Y-88174D01*
X75314Y-88257D01*
X75286Y-88312D01*
X75231Y-88507D01*
X75175Y-88673D01*
Y-88812D01*
Y-88840D01*
Y-88868D01*
X75231Y-89201D01*
X75314Y-89451D01*
X75397Y-89618D01*
X75453Y-89645D01*
Y-89673D01*
X75647Y-89840D01*
X75869Y-89923D01*
X76036Y-89951D01*
X76091D01*
X76369Y-89895D01*
X76564Y-89812D01*
X76702Y-89729D01*
X76758Y-89673D01*
X76897Y-89423D01*
X76980Y-89173D01*
Y-89062D01*
X77008Y-88979D01*
Y-88923D01*
Y-88896D01*
Y-88701D01*
X76952Y-88507D01*
X76925Y-88368D01*
X76869Y-88257D01*
X76786Y-88090D01*
X76730Y-88035D01*
X76536Y-87896D01*
X76314Y-87813D01*
X76147Y-87785D01*
D02*
G37*
G36*
X24495Y-87785D02*
X24439D01*
X24273Y-87813D01*
X24106Y-87840D01*
X23995Y-87896D01*
X23967Y-87924D01*
X23828Y-88035D01*
X23717Y-88174D01*
X23662Y-88257D01*
X23634Y-88312D01*
X23578Y-88507D01*
X23523Y-88673D01*
Y-88812D01*
Y-88840D01*
Y-88868D01*
X23578Y-89201D01*
X23662Y-89451D01*
X23745Y-89618D01*
X23801Y-89645D01*
Y-89673D01*
X23995Y-89840D01*
X24217Y-89923D01*
X24384Y-89951D01*
X24439D01*
X24717Y-89895D01*
X24911Y-89812D01*
X25050Y-89729D01*
X25106Y-89673D01*
X25245Y-89423D01*
X25328Y-89173D01*
Y-89062D01*
X25356Y-88979D01*
Y-88923D01*
Y-88896D01*
Y-88701D01*
X25300Y-88507D01*
X25273Y-88368D01*
X25217Y-88257D01*
X25134Y-88090D01*
X25078Y-88035D01*
X24884Y-87896D01*
X24661Y-87813D01*
X24495Y-87785D01*
D02*
G37*
G36*
X-19659Y-87785D02*
X-19715D01*
X-19882Y-87813D01*
X-20048Y-87840D01*
X-20159Y-87896D01*
X-20187Y-87924D01*
X-20326Y-88035D01*
X-20437Y-88174D01*
X-20493Y-88257D01*
X-20520Y-88312D01*
X-20576Y-88507D01*
X-20631Y-88673D01*
Y-88812D01*
Y-88840D01*
Y-88868D01*
X-20576Y-89201D01*
X-20493Y-89451D01*
X-20409Y-89618D01*
X-20354Y-89645D01*
Y-89673D01*
X-20159Y-89840D01*
X-19937Y-89923D01*
X-19771Y-89951D01*
X-19715D01*
X-19437Y-89895D01*
X-19243Y-89812D01*
X-19104Y-89729D01*
X-19049Y-89673D01*
X-18910Y-89423D01*
X-18826Y-89173D01*
Y-89062D01*
X-18799Y-88979D01*
Y-88923D01*
Y-88896D01*
Y-88701D01*
X-18854Y-88507D01*
X-18882Y-88368D01*
X-18937Y-88257D01*
X-19021Y-88090D01*
X-19076Y-88035D01*
X-19271Y-87896D01*
X-19493Y-87813D01*
X-19659Y-87785D01*
D02*
G37*
G36*
X31965Y-90756D02*
X31465D01*
X31410Y-90784D01*
X31354Y-90812D01*
Y-90839D01*
X31299Y-90895D01*
X31271Y-90923D01*
Y-90951D01*
Y-90978D01*
Y-91062D01*
X31299Y-91089D01*
X31382Y-91145D01*
X31410Y-91173D01*
X31549Y-91201D01*
X31965D01*
Y-90756D01*
D02*
G37*
G36*
X26689D02*
X26633Y-90923D01*
X26578Y-91006D01*
Y-91034D01*
X26439Y-91395D01*
X26911D01*
X26744Y-91006D01*
X26689Y-90839D01*
Y-90784D01*
Y-90756D01*
D02*
G37*
G36*
X-14133Y-90756D02*
X-14633D01*
X-14716Y-90784D01*
X-14744Y-90812D01*
X-14772Y-90839D01*
X-14827Y-90923D01*
Y-90951D01*
Y-90978D01*
Y-91062D01*
X-14800Y-91089D01*
X-14744Y-91145D01*
X-14716Y-91173D01*
X-14689D01*
X-14578Y-91201D01*
X-14133D01*
Y-90756D01*
D02*
G37*
G36*
X-16771D02*
X-16827Y-90923D01*
X-16882Y-91006D01*
Y-91034D01*
X-17021Y-91395D01*
X-16577D01*
X-16716Y-91006D01*
X-16771Y-90839D01*
Y-90784D01*
Y-90756D01*
D02*
G37*
G36*
X30354Y-90756D02*
X30243D01*
X30077Y-90784D01*
X30021Y-90812D01*
X29993D01*
X29910Y-90867D01*
X29855Y-90923D01*
X29827Y-90978D01*
Y-91006D01*
X29771Y-91201D01*
Y-91256D01*
Y-91284D01*
X29799Y-91450D01*
X29827Y-91562D01*
X29882Y-91645D01*
X29910Y-91673D01*
X30021Y-91728D01*
X30132Y-91756D01*
X30215Y-91784D01*
X30243D01*
X30382Y-91756D01*
X30465Y-91728D01*
X30521Y-91700D01*
X30549D01*
X30632Y-91589D01*
X30660Y-91450D01*
X30688Y-91339D01*
Y-91312D01*
X30660Y-91117D01*
X30604Y-90978D01*
X30577Y-90895D01*
X30549Y-90867D01*
X30465Y-90812D01*
X30354Y-90756D01*
D02*
G37*
G36*
X-8774Y-90756D02*
X-8885D01*
X-9051Y-90784D01*
X-9107Y-90812D01*
X-9135D01*
X-9273Y-90951D01*
X-9301Y-90978D01*
Y-91006D01*
X-9357Y-91173D01*
Y-91256D01*
Y-91284D01*
X-9329Y-91450D01*
X-9301Y-91562D01*
X-9246Y-91645D01*
X-9218Y-91673D01*
X-9107Y-91728D01*
X-9024Y-91756D01*
X-8912Y-91784D01*
X-8885D01*
X-8746Y-91756D01*
X-8663Y-91728D01*
X-8607Y-91700D01*
X-8579D01*
X-8496Y-91589D01*
X-8468Y-91450D01*
X-8440Y-91339D01*
Y-91312D01*
X-8468Y-91117D01*
X-8524Y-90978D01*
X-8551Y-90895D01*
X-8579Y-90867D01*
X-8690Y-90812D01*
X-8774Y-90756D01*
D02*
G37*
G36*
X28771Y-92561D02*
X28327D01*
X28272Y-92589D01*
X28188Y-92617D01*
X28133Y-92672D01*
X28077Y-92700D01*
Y-92728D01*
X28049Y-92839D01*
X28022Y-92922D01*
Y-93033D01*
Y-93061D01*
X28049Y-93228D01*
X28077Y-93283D01*
Y-93311D01*
X28133Y-93422D01*
X28161Y-93450D01*
Y-93478D01*
X28216Y-93505D01*
X28244Y-93533D01*
X28272D01*
X28411Y-93561D01*
X28771D01*
Y-92561D01*
D02*
G37*
%LPD*%
D15*
X-71050Y53400D02*
X-61250D01*
Y58600D01*
X-71450D02*
X-61250D01*
X-71450Y53400D02*
Y58600D01*
Y53400D02*
X-71050D01*
X-71101Y46297D02*
X-61301D01*
Y51497D01*
X-71501D02*
X-61301D01*
X-71501Y46297D02*
Y51497D01*
Y46297D02*
X-71101D01*
X-52350Y-54000D02*
Y-53600D01*
X-47150D01*
Y-63800D02*
Y-53600D01*
X-52350Y-63800D02*
X-47150D01*
X-52350D02*
Y-54000D01*
X-19201D02*
Y-53600D01*
X-14001D01*
Y-63800D02*
Y-53600D01*
X-19201Y-63800D02*
X-14001D01*
X-19201D02*
Y-54000D01*
X-25501D02*
Y-53600D01*
X-20301D01*
Y-63800D02*
Y-53600D01*
X-25501Y-63800D02*
X-20301D01*
X-25501D02*
Y-54000D01*
X-45950D02*
Y-53600D01*
X-40750D01*
Y-63800D02*
Y-53600D01*
X-45950Y-63800D02*
X-40750D01*
X-45950D02*
Y-54000D01*
X-116200Y-12522D02*
Y-9523D01*
X-117700D01*
X-118199Y-10023D01*
Y-11023D01*
X-117700Y-11523D01*
X-116200D01*
X-117200D02*
X-118199Y-12522D01*
X-121198Y-9523D02*
X-119199D01*
Y-12522D01*
X-121198D01*
X-119199Y-11023D02*
X-120199D01*
X-124197Y-10023D02*
X-123698Y-9523D01*
X-122698D01*
X-122198Y-10023D01*
Y-10523D01*
X-122698Y-11023D01*
X-123698D01*
X-124197Y-11523D01*
Y-12023D01*
X-123698Y-12522D01*
X-122698D01*
X-122198Y-12023D01*
X-127196Y-9523D02*
X-125197D01*
Y-12522D01*
X-127196D01*
X-125197Y-11023D02*
X-126197D01*
X-128196Y-9523D02*
X-130195D01*
X-129196D01*
Y-12522D01*
X-131195Y-13022D02*
X-133194D01*
X-134194Y-12522D02*
Y-10523D01*
X-135194Y-9523D01*
X-136194Y-10523D01*
Y-12522D01*
Y-11023D01*
X-134194D01*
X-137193Y-9523D02*
Y-12522D01*
X-138693D01*
X-139193Y-12023D01*
Y-11523D01*
X-138693Y-11023D01*
X-137193D01*
X-138693D01*
X-139193Y-10523D01*
Y-10023D01*
X-138693Y-9523D01*
X-137193D01*
X-116200Y-42656D02*
Y-39657D01*
X-117700D01*
X-118199Y-40156D01*
Y-41156D01*
X-117700Y-41656D01*
X-116200D01*
X-117200D02*
X-118199Y-42656D01*
X-121198Y-39657D02*
X-119199D01*
Y-42656D01*
X-121198D01*
X-119199Y-41156D02*
X-120199D01*
X-124197Y-40156D02*
X-123698Y-39657D01*
X-122698D01*
X-122198Y-40156D01*
Y-40656D01*
X-122698Y-41156D01*
X-123698D01*
X-124197Y-41656D01*
Y-42156D01*
X-123698Y-42656D01*
X-122698D01*
X-122198Y-42156D01*
X-127196Y-39657D02*
X-125197D01*
Y-42656D01*
X-127196D01*
X-125197Y-41156D02*
X-126197D01*
X-128196Y-39657D02*
X-130195D01*
X-129196D01*
Y-42656D01*
X-131195Y-43156D02*
X-133194D01*
X-136194Y-40156D02*
X-135694Y-39657D01*
X-134694D01*
X-134194Y-40156D01*
Y-42156D01*
X-134694Y-42656D01*
X-135694D01*
X-136194Y-42156D01*
X-137193Y-39657D02*
Y-42656D01*
X-138693D01*
X-139193Y-42156D01*
Y-40156D01*
X-138693Y-39657D01*
X-137193D01*
X-122198Y-22567D02*
Y-19568D01*
X-123698D01*
X-124197Y-20068D01*
Y-21067D01*
X-123698Y-21567D01*
X-122198D01*
X-125197Y-19568D02*
Y-22567D01*
X-126197Y-21567D01*
X-127196Y-22567D01*
Y-19568D01*
X-128196Y-22567D02*
Y-19568D01*
X-129196Y-20568D01*
X-130195Y-19568D01*
Y-22567D01*
X-131195Y-23067D02*
X-133194D01*
X-134194Y-19568D02*
Y-22567D01*
X-135694D01*
X-136194Y-22067D01*
Y-21567D01*
X-135694Y-21067D01*
X-134194D01*
X-135694D01*
X-136194Y-20568D01*
Y-20068D01*
X-135694Y-19568D01*
X-134194D01*
X-122198Y-32611D02*
Y-29612D01*
X-123698D01*
X-124197Y-30112D01*
Y-31112D01*
X-123698Y-31612D01*
X-122198D01*
X-125197Y-29612D02*
Y-32611D01*
X-126197Y-31612D01*
X-127196Y-32611D01*
Y-29612D01*
X-128196Y-32611D02*
Y-29612D01*
X-129196Y-30612D01*
X-130195Y-29612D01*
Y-32611D01*
X-131195Y-33111D02*
X-133194D01*
X-136194Y-30112D02*
X-135694Y-29612D01*
X-134694D01*
X-134194Y-30112D01*
Y-32111D01*
X-134694Y-32611D01*
X-135694D01*
X-136194Y-32111D01*
X-124197Y10066D02*
X-122198D01*
Y8566D01*
X-123198D01*
X-122198D01*
Y7067D01*
X-125197D02*
Y9066D01*
X-126197Y10066D01*
X-127196Y9066D01*
Y7067D01*
Y8566D01*
X-125197D01*
X-128196Y10066D02*
Y7566D01*
X-128696Y7067D01*
X-129696D01*
X-130195Y7566D01*
Y10066D01*
X-131195D02*
Y7067D01*
X-133194D01*
X-134194Y10066D02*
X-136194D01*
X-135194D01*
Y7067D01*
X-122198Y-2478D02*
Y521D01*
X-123698D01*
X-124197Y21D01*
Y-978D01*
X-123698Y-1478D01*
X-122198D01*
X-125197Y521D02*
Y-2478D01*
X-126197Y-1478D01*
X-127196Y-2478D01*
Y521D01*
X-128196Y-2478D02*
Y521D01*
X-129196Y-479D01*
X-130195Y521D01*
Y-2478D01*
X-131195Y-2978D02*
X-133194D01*
X-134194Y-2478D02*
Y-479D01*
X-135194Y521D01*
X-136194Y-479D01*
Y-2478D01*
Y-978D01*
X-134194D01*
X-122198Y-52700D02*
Y-49701D01*
X-123698D01*
X-124197Y-50201D01*
Y-51201D01*
X-123698Y-51701D01*
X-122198D01*
X-125197Y-49701D02*
Y-52700D01*
X-126197Y-51701D01*
X-127196Y-52700D01*
Y-49701D01*
X-128196Y-52700D02*
Y-49701D01*
X-129196Y-50701D01*
X-130195Y-49701D01*
Y-52700D01*
X-131195Y-53200D02*
X-133194D01*
X-134194Y-49701D02*
Y-52700D01*
X-135694D01*
X-136194Y-52200D01*
Y-50201D01*
X-135694Y-49701D01*
X-134194D01*
X-127696Y20110D02*
X-126697D01*
X-126197Y19610D01*
Y17611D01*
X-126697Y17111D01*
X-127696D01*
X-128196Y17611D01*
Y19610D01*
X-127696Y20110D01*
X-129196D02*
X-131195D01*
X-130195D01*
Y17111D01*
X-132195Y20110D02*
Y17111D01*
X-133194Y18111D01*
X-134194Y17111D01*
Y20110D01*
X-128196Y39699D02*
X-127696Y40199D01*
X-126697D01*
X-126197Y39699D01*
Y37700D01*
X-126697Y37200D01*
X-127696D01*
X-128196Y37700D01*
Y38699D01*
X-127196D01*
X-129196Y37200D02*
Y40199D01*
X-131195Y37200D01*
Y40199D01*
X-132195D02*
Y37200D01*
X-133694D01*
X-134194Y37700D01*
Y39699D01*
X-133694Y40199D01*
X-132195D01*
X-128196Y29655D02*
X-127696Y30155D01*
X-126697D01*
X-126197Y29655D01*
Y27655D01*
X-126697Y27156D01*
X-127696D01*
X-128196Y27655D01*
Y28655D01*
X-127196D01*
X-129196Y27156D02*
Y30155D01*
X-131195Y27156D01*
Y30155D01*
X-132195D02*
Y27156D01*
X-133694D01*
X-134194Y27655D01*
Y29655D01*
X-133694Y30155D01*
X-132195D01*
X-73801Y54601D02*
Y57600D01*
X-75300D01*
X-75800Y57100D01*
Y56100D01*
X-75300Y55600D01*
X-73801D01*
X-74800D02*
X-75800Y54601D01*
X-78299D02*
Y57600D01*
X-76800Y56100D01*
X-78799D01*
X-73801Y47201D02*
Y50200D01*
X-75300D01*
X-75800Y49700D01*
Y48700D01*
X-75300Y48200D01*
X-73801D01*
X-74800D02*
X-75800Y47201D01*
X-76800Y49700D02*
X-77300Y50200D01*
X-78299D01*
X-78799Y49700D01*
Y49200D01*
X-78299Y48700D01*
X-77799D01*
X-78299D01*
X-78799Y48200D01*
Y47700D01*
X-78299Y47201D01*
X-77300D01*
X-76800Y47700D01*
X-51699Y-51300D02*
X-48700D01*
Y-49800D01*
X-49200Y-49300D01*
X-50199D01*
X-50699Y-49800D01*
Y-51300D01*
Y-50300D02*
X-51699Y-49300D01*
X-48700Y-46301D02*
X-49200Y-47301D01*
X-50199Y-48301D01*
X-51199D01*
X-51699Y-47801D01*
Y-46801D01*
X-51199Y-46301D01*
X-50699D01*
X-50199Y-46801D01*
Y-48301D01*
X-18300Y-51599D02*
X-15301D01*
Y-50100D01*
X-15800Y-49600D01*
X-16800D01*
X-17300Y-50100D01*
Y-51599D01*
Y-50599D02*
X-18300Y-49600D01*
X-15301Y-48600D02*
Y-46601D01*
X-15800D01*
X-17800Y-48600D01*
X-18300D01*
X-24700Y-51499D02*
X-21700D01*
Y-50000D01*
X-22200Y-49500D01*
X-23200D01*
X-23700Y-50000D01*
Y-51499D01*
Y-50499D02*
X-24700Y-49500D01*
X-22200Y-48500D02*
X-21700Y-48000D01*
Y-47001D01*
X-22200Y-46501D01*
X-22700D01*
X-23200Y-47001D01*
X-23700Y-46501D01*
X-24200D01*
X-24700Y-47001D01*
Y-48000D01*
X-24200Y-48500D01*
X-23700D01*
X-23200Y-48000D01*
X-22700Y-48500D01*
X-22200D01*
X-23200Y-48000D02*
Y-47001D01*
X-44800Y-51499D02*
X-41800D01*
Y-50000D01*
X-42300Y-49500D01*
X-43300D01*
X-43800Y-50000D01*
Y-51499D01*
Y-50499D02*
X-44800Y-49500D01*
X-41800Y-46501D02*
Y-48500D01*
X-43300D01*
X-42800Y-47501D01*
Y-47001D01*
X-43300Y-46501D01*
X-44300D01*
X-44800Y-47001D01*
Y-48000D01*
X-44300Y-48500D01*
M02*
