G04*
G04 #@! TF.GenerationSoftware,Altium Limited,Altium Designer,20.2.7 (254)*
G04*
G04 Layer_Color=255*
%FSLAX25Y25*%
%MOIN*%
G70*
G04*
G04 #@! TF.SameCoordinates,ECD674B8-324E-4609-97E5-6B7B15D5A4BB*
G04*
G04*
G04 #@! TF.FilePolarity,Positive*
G04*
G01*
G75*
%ADD20R,0.03740X0.03150*%
%ADD21R,0.03150X0.03740*%
%ADD22R,0.05500X0.05000*%
%ADD23R,0.03150X0.03150*%
%ADD24O,0.08071X0.01968*%
%ADD25R,0.12992X0.09449*%
%ADD26R,0.03937X0.09449*%
%ADD27R,0.06299X0.12402*%
%ADD48R,0.09843X0.07874*%
%ADD49R,0.09000X0.09000*%
%ADD50C,0.09000*%
%ADD51C,0.06299*%
%ADD52R,0.06299X0.06299*%
%ADD53R,0.06299X0.06299*%
%ADD54C,0.05906*%
%ADD55R,0.05906X0.05906*%
%ADD56C,0.13800*%
D20*
X13400Y-25756D02*
D03*
Y-20244D02*
D03*
X13270Y20279D02*
D03*
Y25790D02*
D03*
X50000Y-10756D02*
D03*
Y-5244D02*
D03*
Y5244D02*
D03*
Y10756D02*
D03*
X-64456Y33244D02*
D03*
Y38756D02*
D03*
X-64456Y-28944D02*
D03*
Y-34456D02*
D03*
X-70856D02*
D03*
Y-28944D02*
D03*
X-98494Y-69513D02*
D03*
Y-75025D02*
D03*
X-91953Y-69513D02*
D03*
Y-75025D02*
D03*
D21*
X20512Y39500D02*
D03*
X15000D02*
D03*
X14512Y32500D02*
D03*
X9000D02*
D03*
X42244Y30000D02*
D03*
X47756D02*
D03*
X42244Y-30000D02*
D03*
X47756D02*
D03*
X15038Y-39537D02*
D03*
X20550D02*
D03*
X14550Y-32537D02*
D03*
X9038D02*
D03*
X-73644Y-9700D02*
D03*
X-79156D02*
D03*
X-73544Y-1500D02*
D03*
X-79056D02*
D03*
X-73544Y5000D02*
D03*
X-79056D02*
D03*
D22*
X108700Y-71300D02*
D03*
Y-62300D02*
D03*
Y-33000D02*
D03*
Y-42000D02*
D03*
Y70900D02*
D03*
Y61900D02*
D03*
Y32700D02*
D03*
Y41700D02*
D03*
D23*
X-63201Y55800D02*
D03*
X-69500D02*
D03*
X-63251Y48797D02*
D03*
X-69550D02*
D03*
X-16451Y-55900D02*
D03*
X-22750D02*
D03*
X-43401D02*
D03*
X-49700D02*
D03*
D24*
X-3514Y-21752D02*
D03*
Y-19193D02*
D03*
Y-16634D02*
D03*
Y-14075D02*
D03*
Y-11516D02*
D03*
Y-8957D02*
D03*
Y-6398D02*
D03*
Y-3839D02*
D03*
Y-1280D02*
D03*
Y1280D02*
D03*
Y3839D02*
D03*
Y6398D02*
D03*
Y8957D02*
D03*
Y11516D02*
D03*
Y14075D02*
D03*
Y16634D02*
D03*
Y19193D02*
D03*
Y21752D02*
D03*
X-55286Y-21752D02*
D03*
Y-19193D02*
D03*
Y-16634D02*
D03*
Y-14075D02*
D03*
Y-11516D02*
D03*
Y-8957D02*
D03*
Y-6398D02*
D03*
Y-3839D02*
D03*
Y-1280D02*
D03*
Y1280D02*
D03*
Y3839D02*
D03*
Y6398D02*
D03*
Y8957D02*
D03*
Y11516D02*
D03*
Y14075D02*
D03*
Y16634D02*
D03*
Y19193D02*
D03*
Y21752D02*
D03*
D25*
X-116800Y-61183D02*
D03*
D26*
X-107745Y-84017D02*
D03*
X-116800D02*
D03*
X-125855D02*
D03*
D27*
X-112100Y60854D02*
D03*
Y80146D02*
D03*
D48*
X135600Y-61700D02*
D03*
Y-41700D02*
D03*
Y-10000D02*
D03*
Y10000D02*
D03*
Y41700D02*
D03*
Y61700D02*
D03*
X-145300Y80600D02*
D03*
Y60600D02*
D03*
D49*
X81900Y9100D02*
D03*
D50*
Y-10900D02*
D03*
D51*
X-93000Y5200D02*
D03*
Y-4800D02*
D03*
Y-38100D02*
D03*
Y-28100D02*
D03*
Y38600D02*
D03*
Y28600D02*
D03*
X-69100Y67800D02*
D03*
D52*
X-93000Y-14800D02*
D03*
Y-48100D02*
D03*
Y18600D02*
D03*
D53*
X-79100Y67800D02*
D03*
D54*
X-145200Y-73700D02*
D03*
X-145300Y8100D02*
D03*
Y-11900D02*
D03*
Y-31900D02*
D03*
Y-41900D02*
D03*
Y-21900D02*
D03*
Y-1900D02*
D03*
Y18100D02*
D03*
Y28100D02*
D03*
Y38100D02*
D03*
D55*
X-145200Y-83700D02*
D03*
X-145300Y-51900D02*
D03*
D56*
X-47800Y-85600D02*
D03*
Y83000D02*
D03*
X128600D02*
D03*
X129900Y-85600D02*
D03*
M02*
