G04*
G04 #@! TF.GenerationSoftware,Altium Limited,Altium Designer,20.2.7 (254)*
G04*
G04 Layer_Color=16711935*
%FSLAX25Y25*%
%MOIN*%
G70*
G04*
G04 #@! TF.SameCoordinates,ECD674B8-324E-4609-97E5-6B7B15D5A4BB*
G04*
G04*
G04 #@! TF.FilePolarity,Negative*
G04*
G01*
G75*
%ADD28R,0.04540X0.03950*%
%ADD29R,0.03950X0.04540*%
%ADD36R,0.10642X0.08674*%
%ADD37R,0.09800X0.09800*%
%ADD38C,0.09800*%
%ADD39C,0.07099*%
%ADD40R,0.07099X0.07099*%
%ADD41R,0.07099X0.07099*%
%ADD42C,0.06706*%
%ADD43R,0.06706X0.06706*%
%ADD44C,0.14600*%
D28*
X-49750Y-61456D02*
D03*
Y-55944D02*
D03*
X-16601Y-61456D02*
D03*
Y-55944D02*
D03*
X-22901Y-61456D02*
D03*
Y-55944D02*
D03*
X-43350Y-61456D02*
D03*
Y-55944D02*
D03*
D29*
X-69106Y56000D02*
D03*
X-63595D02*
D03*
X-69157Y48897D02*
D03*
X-63645D02*
D03*
D36*
X135600Y-61700D02*
D03*
Y-41700D02*
D03*
Y-10000D02*
D03*
Y10000D02*
D03*
Y41700D02*
D03*
Y61700D02*
D03*
X-145300Y80600D02*
D03*
Y60600D02*
D03*
D37*
X81900Y9100D02*
D03*
D38*
Y-10900D02*
D03*
D39*
X-93000Y5200D02*
D03*
Y-4800D02*
D03*
Y-38100D02*
D03*
Y-28100D02*
D03*
Y38600D02*
D03*
Y28600D02*
D03*
X-69100Y67800D02*
D03*
D40*
X-93000Y-14800D02*
D03*
Y-48100D02*
D03*
Y18600D02*
D03*
D41*
X-79100Y67800D02*
D03*
D42*
X-145200Y-73700D02*
D03*
X-145300Y8100D02*
D03*
Y-11900D02*
D03*
Y-31900D02*
D03*
Y-41900D02*
D03*
Y-21900D02*
D03*
Y-1900D02*
D03*
Y18100D02*
D03*
Y28100D02*
D03*
Y38100D02*
D03*
D43*
X-145200Y-83700D02*
D03*
X-145300Y-51900D02*
D03*
D44*
X-47800Y-85600D02*
D03*
Y83000D02*
D03*
X128600D02*
D03*
X129900Y-85600D02*
D03*
M02*
