G04*
G04 #@! TF.GenerationSoftware,Altium Limited,Altium Designer,20.2.7 (254)*
G04*
G04 Layer_Color=255*
%FSLAX25Y25*%
%MOIN*%
G70*
G04*
G04 #@! TF.SameCoordinates,ECD674B8-324E-4609-97E5-6B7B15D5A4BB*
G04*
G04*
G04 #@! TF.FilePolarity,Positive*
G04*
G01*
G75*
%ADD20R,0.03740X0.03150*%
%ADD21R,0.03150X0.03740*%
%ADD48R,0.09843X0.07874*%
%ADD49R,0.09000X0.09000*%
%ADD50C,0.09000*%
%ADD51C,0.06299*%
%ADD52R,0.06299X0.06299*%
%ADD53R,0.06299X0.06299*%
%ADD54C,0.05906*%
%ADD55R,0.05906X0.05906*%
%ADD56C,0.13800*%
D20*
X-49750Y-61456D02*
D03*
Y-55944D02*
D03*
X-16601Y-61456D02*
D03*
Y-55944D02*
D03*
X-22901Y-61456D02*
D03*
Y-55944D02*
D03*
X-43350Y-61456D02*
D03*
Y-55944D02*
D03*
D21*
X-69106Y56000D02*
D03*
X-63595D02*
D03*
X-69157Y48897D02*
D03*
X-63645D02*
D03*
D48*
X135600Y-61700D02*
D03*
Y-41700D02*
D03*
Y-10000D02*
D03*
Y10000D02*
D03*
Y41700D02*
D03*
Y61700D02*
D03*
X-145300Y80600D02*
D03*
Y60600D02*
D03*
D49*
X81900Y9100D02*
D03*
D50*
Y-10900D02*
D03*
D51*
X-93000Y5200D02*
D03*
Y-4800D02*
D03*
Y-38100D02*
D03*
Y-28100D02*
D03*
Y38600D02*
D03*
Y28600D02*
D03*
X-69100Y67800D02*
D03*
D52*
X-93000Y-14800D02*
D03*
Y-48100D02*
D03*
Y18600D02*
D03*
D53*
X-79100Y67800D02*
D03*
D54*
X-145200Y-73700D02*
D03*
X-145300Y8100D02*
D03*
Y-11900D02*
D03*
Y-31900D02*
D03*
Y-41900D02*
D03*
Y-21900D02*
D03*
Y-1900D02*
D03*
Y18100D02*
D03*
Y28100D02*
D03*
Y38100D02*
D03*
D55*
X-145200Y-83700D02*
D03*
X-145300Y-51900D02*
D03*
D56*
X-47800Y-85600D02*
D03*
Y83000D02*
D03*
X128600D02*
D03*
X129900Y-85600D02*
D03*
M02*
