G04*
G04 #@! TF.GenerationSoftware,Altium Limited,Altium Designer,20.2.7 (254)*
G04*
G04 Layer_Physical_Order=1*
G04 Layer_Color=255*
%FSLAX25Y25*%
%MOIN*%
G70*
G04*
G04 #@! TF.SameCoordinates,ECD674B8-324E-4609-97E5-6B7B15D5A4BB*
G04*
G04*
G04 #@! TF.FilePolarity,Positive*
G04*
G01*
G75*
%ADD16C,0.01000*%
%ADD20R,0.03740X0.03150*%
%ADD21R,0.03150X0.03740*%
%ADD22R,0.05500X0.05000*%
%ADD23R,0.03150X0.03150*%
%ADD24O,0.08071X0.01968*%
%ADD25R,0.12992X0.09449*%
%ADD26R,0.03937X0.09449*%
%ADD27R,0.06299X0.12402*%
%ADD45C,0.01500*%
%ADD46C,0.05000*%
%ADD47C,0.02000*%
%ADD48R,0.09843X0.07874*%
%ADD49R,0.09000X0.09000*%
%ADD50C,0.09000*%
%ADD51C,0.06299*%
%ADD52R,0.06299X0.06299*%
%ADD53R,0.06299X0.06299*%
%ADD54C,0.05906*%
%ADD55R,0.05906X0.05906*%
%ADD56C,0.13800*%
%ADD57C,0.01772*%
%ADD58C,0.01772*%
G36*
X152775Y-93975D02*
X-120842D01*
X-120994Y-93475D01*
X-120729Y-93298D01*
X-116973Y-89542D01*
X-114032D01*
Y-78493D01*
X-114965D01*
Y-66707D01*
X-109504D01*
Y-63135D01*
X-106700D01*
X-105998Y-62996D01*
X-105402Y-62598D01*
X-105004Y-62002D01*
X-104865Y-61300D01*
X-105004Y-60598D01*
X-105402Y-60002D01*
X-105998Y-59604D01*
X-106700Y-59465D01*
X-109504D01*
Y-55658D01*
X-124096D01*
Y-66707D01*
X-118635D01*
Y-78493D01*
X-119569D01*
Y-86946D01*
X-122403Y-89780D01*
X-122887Y-89557D01*
Y-85017D01*
X-125855D01*
X-128824D01*
Y-89665D01*
X-128824Y-89742D01*
X-129009Y-90165D01*
X-136140D01*
X-141447Y-84857D01*
Y-79947D01*
X-148953D01*
Y-87453D01*
X-144043D01*
X-138198Y-93298D01*
X-137933Y-93475D01*
X-138085Y-93975D01*
X-160975D01*
Y91575D01*
X152775D01*
Y-93975D01*
D02*
G37*
%LPC*%
G36*
X-108150Y87147D02*
X-116050D01*
Y83929D01*
X-139579D01*
Y85337D01*
X-151021D01*
Y75863D01*
X-139579D01*
Y77271D01*
X-116050D01*
Y73145D01*
X-108150D01*
Y76817D01*
X-92824D01*
X-83050Y67042D01*
Y63850D01*
X-75150D01*
Y71750D01*
X-78342D01*
X-89092Y82499D01*
X-89781Y83028D01*
X-90114Y83166D01*
X-90584Y83361D01*
X-91446Y83474D01*
X-108150D01*
Y87147D01*
D02*
G37*
G36*
X128600Y90737D02*
X127091Y90589D01*
X125639Y90148D01*
X124301Y89433D01*
X123129Y88471D01*
X122167Y87299D01*
X121452Y85961D01*
X121011Y84509D01*
X120863Y83000D01*
X121011Y81490D01*
X121452Y80039D01*
X122167Y78701D01*
X123129Y77529D01*
X124301Y76567D01*
X125639Y75852D01*
X127091Y75411D01*
X128600Y75263D01*
X130110Y75411D01*
X131561Y75852D01*
X132899Y76567D01*
X134071Y77529D01*
X135033Y78701D01*
X135748Y80039D01*
X136189Y81490D01*
X136337Y83000D01*
X136189Y84509D01*
X135748Y85961D01*
X135033Y87299D01*
X134071Y88471D01*
X132899Y89433D01*
X131561Y90148D01*
X130110Y90589D01*
X128600Y90737D01*
D02*
G37*
G36*
X-47800D02*
X-49310Y90589D01*
X-50761Y90148D01*
X-52099Y89433D01*
X-53271Y88471D01*
X-54233Y87299D01*
X-54948Y85961D01*
X-55389Y84509D01*
X-55537Y83000D01*
X-55389Y81490D01*
X-54948Y80039D01*
X-54233Y78701D01*
X-53271Y77529D01*
X-52099Y76567D01*
X-50761Y75852D01*
X-49310Y75411D01*
X-47800Y75263D01*
X-46290Y75411D01*
X-44839Y75852D01*
X-43501Y76567D01*
X-42329Y77529D01*
X-41367Y78701D01*
X-40652Y80039D01*
X-40211Y81490D01*
X-40063Y83000D01*
X-40211Y84509D01*
X-40652Y85961D01*
X-41367Y87299D01*
X-42329Y88471D01*
X-43501Y89433D01*
X-44839Y90148D01*
X-46290Y90589D01*
X-47800Y90737D01*
D02*
G37*
G36*
X112450Y74400D02*
X109700D01*
Y71900D01*
X112450D01*
Y74400D01*
D02*
G37*
G36*
X107700D02*
X104950D01*
Y71900D01*
X107700D01*
Y74400D01*
D02*
G37*
G36*
X112450Y69900D02*
X109700D01*
Y67400D01*
X112450D01*
Y69900D01*
D02*
G37*
G36*
X107700D02*
X104950D01*
Y67400D01*
X107700D01*
Y69900D01*
D02*
G37*
G36*
X141321Y66437D02*
X129879D01*
Y66416D01*
X27202Y66416D01*
X27202Y66416D01*
X26889Y66354D01*
X26625Y66177D01*
X26625Y66177D01*
X18325Y57877D01*
X18148Y57612D01*
X18086Y57300D01*
X18086Y57300D01*
X18086Y24580D01*
X17586Y24116D01*
X11100Y24116D01*
X11080Y24112D01*
X10590Y24464D01*
X10580Y24483D01*
Y29830D01*
X11375D01*
Y35170D01*
X6625D01*
Y34680D01*
X-2331D01*
X-2342Y34688D01*
X-3000Y34819D01*
X-3658Y34688D01*
X-4215Y34315D01*
X-4588Y33758D01*
X-4719Y33100D01*
X-4588Y32442D01*
X-4215Y31885D01*
X-3658Y31512D01*
X-3000Y31381D01*
X-2342Y31512D01*
X-2331Y31520D01*
X6625D01*
Y29830D01*
X7420D01*
Y24755D01*
X5997Y23332D01*
X383D01*
X233Y23433D01*
X-463Y23571D01*
X-6565D01*
X-7261Y23433D01*
X-7852Y23038D01*
X-8246Y22448D01*
X-8385Y21752D01*
X-8354Y21599D01*
X-8687Y21139D01*
X-9120Y21532D01*
Y37145D01*
X-8183Y38082D01*
X12625D01*
Y36830D01*
X17375D01*
Y42170D01*
X12625D01*
Y41243D01*
X-8838D01*
X-9442Y41122D01*
X-9955Y40780D01*
X-11817Y38917D01*
X-12160Y38405D01*
X-12280Y37800D01*
Y20500D01*
X-12160Y19895D01*
X-11817Y19383D01*
X-10510Y18075D01*
X-9998Y17733D01*
X-9393Y17613D01*
X-8613D01*
X-8289Y17112D01*
X-8385Y16634D01*
X-8246Y15938D01*
X-7856Y15354D01*
X-8246Y14771D01*
X-8385Y14075D01*
X-8246Y13379D01*
X-7969Y12964D01*
X-7996Y12946D01*
X-8284Y12516D01*
X-7444D01*
X-7262Y12394D01*
X-6565Y12255D01*
X-3514D01*
Y10516D01*
X-8284D01*
X-8097Y10236D01*
X-8284Y9957D01*
X-3514D01*
Y8217D01*
X-6565D01*
X-7262Y8078D01*
X-7444Y7957D01*
X-8284D01*
X-7996Y7526D01*
X-7969Y7508D01*
X-8246Y7094D01*
X-8385Y6398D01*
X-8246Y5702D01*
X-7856Y5118D01*
X-8246Y4535D01*
X-8385Y3839D01*
X-8246Y3142D01*
X-7856Y2559D01*
X-8246Y1976D01*
X-8385Y1280D01*
X-8246Y583D01*
X-7856Y0D01*
X-8246Y-583D01*
X-8385Y-1280D01*
X-8246Y-1976D01*
X-7856Y-2559D01*
X-8246Y-3142D01*
X-8385Y-3839D01*
X-8246Y-4535D01*
X-7856Y-5118D01*
X-8246Y-5702D01*
X-8385Y-6398D01*
X-8246Y-7094D01*
X-7969Y-7508D01*
X-7996Y-7526D01*
X-8284Y-7957D01*
X-7444D01*
X-7262Y-8079D01*
X-6565Y-8217D01*
X-3514D01*
Y-9957D01*
X-8284D01*
X-8097Y-10236D01*
X-8284Y-10516D01*
X-3514D01*
Y-12255D01*
X-6565D01*
X-7262Y-12394D01*
X-7444Y-12516D01*
X-8284D01*
X-7996Y-12946D01*
X-7969Y-12964D01*
X-8246Y-13379D01*
X-8385Y-14075D01*
X-8246Y-14771D01*
X-7856Y-15354D01*
X-8061Y-15661D01*
X-8077Y-15677D01*
X-8077Y-15677D01*
X-8077Y-15677D01*
X-8187Y-15842D01*
X-8254Y-15942D01*
Y-15942D01*
X-8254Y-15942D01*
X-8282Y-16082D01*
X-8316Y-16254D01*
X-8316Y-16254D01*
X-8316Y-16288D01*
X-8385Y-16634D01*
X-8316Y-16980D01*
X-8316Y-17112D01*
X-8698Y-17574D01*
X-8784Y-17613D01*
X-9393D01*
X-9998Y-17733D01*
X-10510Y-18075D01*
X-11817Y-19383D01*
X-12160Y-19895D01*
X-12280Y-20500D01*
Y-37800D01*
X-12160Y-38405D01*
X-11817Y-38917D01*
X-10118Y-40617D01*
X-9605Y-40960D01*
X-9000Y-41080D01*
X12663D01*
Y-42207D01*
X17413D01*
Y-36867D01*
X12663D01*
Y-37920D01*
X-8345D01*
X-9120Y-37145D01*
Y-21532D01*
X-8687Y-21139D01*
X-8354Y-21599D01*
X-8385Y-21752D01*
X-8246Y-22448D01*
X-7852Y-23038D01*
X-7261Y-23433D01*
X-6565Y-23571D01*
X-463D01*
X233Y-23433D01*
X383Y-23332D01*
X5997D01*
X7420Y-24755D01*
Y-29867D01*
X6663D01*
Y-30956D01*
X4033D01*
X4021Y-30949D01*
X3363Y-30818D01*
X2706Y-30949D01*
X2148Y-31321D01*
X1775Y-31879D01*
X1644Y-32537D01*
X1775Y-33194D01*
X2148Y-33752D01*
X2706Y-34125D01*
X3363Y-34255D01*
X4021Y-34125D01*
X4033Y-34117D01*
X6663D01*
Y-35207D01*
X11413D01*
Y-29867D01*
X10580D01*
Y-24450D01*
X10650Y-24360D01*
X11077Y-24091D01*
X11200Y-24116D01*
X11200Y-24116D01*
X18000Y-24116D01*
X18095Y-24194D01*
X18095Y-57306D01*
X18095Y-57306D01*
X18157Y-57618D01*
X18334Y-57883D01*
X18334Y-57883D01*
X26634Y-66183D01*
X26898Y-66360D01*
X27211Y-66422D01*
X27211Y-66422D01*
X129879Y-66422D01*
Y-66437D01*
X141321D01*
Y-65632D01*
X141326Y-65606D01*
X141326Y-52206D01*
X141264Y-51894D01*
X141172Y-51756D01*
X141264Y-51619D01*
X141326Y-51306D01*
X141326Y-37506D01*
X141321Y-37481D01*
Y-36963D01*
X141110D01*
X141087Y-36930D01*
X140823Y-36753D01*
X140511Y-36691D01*
X112871D01*
X112450Y-36500D01*
X112450Y-36191D01*
Y-34000D01*
X108700D01*
X104950D01*
Y-36191D01*
X104950Y-36500D01*
X104529Y-36691D01*
X47049D01*
X45026Y-34668D01*
Y-33020D01*
X45526Y-32670D01*
X50131D01*
Y-27330D01*
X49380D01*
Y-15769D01*
X49388Y-15758D01*
X49519Y-15100D01*
X49388Y-14442D01*
X49015Y-13885D01*
X48458Y-13512D01*
X48100Y-13441D01*
Y-9216D01*
X48100Y-9200D01*
X48138Y-8716D01*
X75555Y-8716D01*
X75555Y-8716D01*
X75867Y-8654D01*
X76132Y-8477D01*
X76132Y-8477D01*
X76606Y-8003D01*
X77030Y-8286D01*
X76542Y-9464D01*
X76484Y-9900D01*
X80900D01*
Y-5484D01*
X80464Y-5542D01*
X79286Y-6030D01*
X79002Y-5606D01*
X79793Y-4816D01*
X129281D01*
X129679Y-5063D01*
X129679Y-5316D01*
Y-9000D01*
X135600D01*
X141521D01*
Y-5316D01*
X141521Y-5063D01*
X141919Y-4816D01*
X142766D01*
X143078Y-4754D01*
X143342Y-4577D01*
X143519Y-4312D01*
X143581Y-4000D01*
X143581Y18069D01*
X143519Y18381D01*
X143342Y18646D01*
X143078Y18823D01*
X142766Y18885D01*
X62469Y18885D01*
X62469Y18885D01*
X62157Y18823D01*
X61892Y18646D01*
X61892Y18646D01*
X51873Y8626D01*
X47500Y8626D01*
Y13135D01*
X47800Y13381D01*
X48458Y13512D01*
X49015Y13885D01*
X49388Y14442D01*
X49519Y15100D01*
X49388Y15758D01*
X49380Y15769D01*
Y27330D01*
X50131D01*
Y32670D01*
X45517D01*
X45017Y32999D01*
Y34662D01*
X47039Y36684D01*
X104912D01*
X104950Y36200D01*
X104950Y36184D01*
Y33700D01*
X108700D01*
X112450D01*
Y36184D01*
X112450Y36200D01*
X112488Y36684D01*
X140502D01*
X140814Y36746D01*
X141078Y36923D01*
X141105Y36963D01*
X141321D01*
Y46437D01*
X141317D01*
X141317Y51300D01*
X141255Y51612D01*
X141163Y51750D01*
X141255Y51888D01*
X141317Y52200D01*
X141317Y56963D01*
X141321D01*
Y66437D01*
D02*
G37*
G36*
X-69100Y71784D02*
X-70131Y71648D01*
X-71092Y71250D01*
X-71917Y70617D01*
X-72550Y69792D01*
X-72948Y68831D01*
X-73084Y67800D01*
X-72948Y66769D01*
X-72550Y65808D01*
X-71917Y64983D01*
X-71092Y64350D01*
X-70131Y63952D01*
X-69100Y63816D01*
X-68069Y63952D01*
X-67108Y64350D01*
X-66283Y64983D01*
X-65650Y65808D01*
X-65252Y66769D01*
X-65116Y67800D01*
X-65252Y68831D01*
X-65650Y69792D01*
X-66283Y70617D01*
X-67108Y71250D01*
X-68069Y71648D01*
X-69100Y71784D01*
D02*
G37*
G36*
X-107950Y68055D02*
X-111100D01*
Y61854D01*
X-107950D01*
Y68055D01*
D02*
G37*
G36*
X-113100D02*
X-116250D01*
Y61854D01*
X-113100D01*
Y68055D01*
D02*
G37*
G36*
X-139379Y65537D02*
X-144300D01*
Y61600D01*
X-139379D01*
Y65537D01*
D02*
G37*
G36*
X-146300D02*
X-151221D01*
Y61600D01*
X-146300D01*
Y65537D01*
D02*
G37*
G36*
X-66925Y58375D02*
X-68500D01*
Y56800D01*
X-66925D01*
Y58375D01*
D02*
G37*
G36*
X-70500D02*
X-72075D01*
Y56800D01*
X-70500D01*
Y58375D01*
D02*
G37*
G36*
X-139379Y59600D02*
X-144300D01*
Y55663D01*
X-139379D01*
Y59600D01*
D02*
G37*
G36*
X-146300D02*
X-151221D01*
Y55663D01*
X-146300D01*
Y59600D01*
D02*
G37*
G36*
X-60826Y58175D02*
X-65576D01*
Y53425D01*
X-60826D01*
Y53969D01*
X-60326Y54276D01*
X-59850Y54181D01*
X-59193Y54312D01*
X-58635Y54685D01*
X-58262Y55242D01*
X-58131Y55900D01*
X-58262Y56558D01*
X-58635Y57115D01*
X-59193Y57488D01*
X-59850Y57619D01*
X-60326Y57524D01*
X-60826Y57831D01*
Y58175D01*
D02*
G37*
G36*
X-107950Y59854D02*
X-111100D01*
Y53654D01*
X-107950D01*
Y59854D01*
D02*
G37*
G36*
X-113100D02*
X-116250D01*
Y53654D01*
X-113100D01*
Y59854D01*
D02*
G37*
G36*
X-66925Y54800D02*
X-68500D01*
Y53225D01*
X-66925D01*
Y54800D01*
D02*
G37*
G36*
X-70500D02*
X-72075D01*
Y53225D01*
X-70500D01*
Y54800D01*
D02*
G37*
G36*
X-66976Y51372D02*
X-68550D01*
Y49797D01*
X-66976D01*
Y51372D01*
D02*
G37*
G36*
X-70550D02*
X-72125D01*
Y49797D01*
X-70550D01*
Y51372D01*
D02*
G37*
G36*
X-60876Y51171D02*
X-65626D01*
Y46422D01*
X-60876D01*
Y47276D01*
X-60376Y47421D01*
X-60059Y47209D01*
X-59401Y47078D01*
X-58743Y47209D01*
X-58185Y47581D01*
X-57813Y48139D01*
X-57682Y48797D01*
X-57813Y49454D01*
X-58185Y50012D01*
X-58743Y50385D01*
X-59401Y50516D01*
X-60059Y50385D01*
X-60376Y50172D01*
X-60876Y50318D01*
Y51171D01*
D02*
G37*
G36*
X-66976Y47797D02*
X-68550D01*
Y46222D01*
X-66976D01*
Y47797D01*
D02*
G37*
G36*
X-70550D02*
X-72125D01*
Y46222D01*
X-70550D01*
Y47797D01*
D02*
G37*
G36*
X-61586Y41331D02*
X-63456D01*
Y39756D01*
X-61586D01*
Y41331D01*
D02*
G37*
G36*
X-65456D02*
X-67326D01*
Y39756D01*
X-65456D01*
Y41331D01*
D02*
G37*
G36*
X-144300Y41955D02*
Y39100D01*
X-141445D01*
X-141449Y39132D01*
X-141847Y40093D01*
X-142481Y40919D01*
X-143307Y41553D01*
X-144268Y41951D01*
X-144300Y41955D01*
D02*
G37*
G36*
X-146300D02*
X-146332Y41951D01*
X-147293Y41553D01*
X-148119Y40919D01*
X-148753Y40093D01*
X-149151Y39132D01*
X-149155Y39100D01*
X-146300D01*
Y41955D01*
D02*
G37*
G36*
X-61586Y37756D02*
X-63456D01*
Y36181D01*
X-61586D01*
Y37756D01*
D02*
G37*
G36*
X-65456D02*
X-67326D01*
Y36181D01*
X-65456D01*
Y37756D01*
D02*
G37*
G36*
X-61786Y35619D02*
X-67126D01*
Y34824D01*
X-78625D01*
X-79100Y34919D01*
X-79758Y34788D01*
X-80315Y34415D01*
X-80688Y33858D01*
X-80819Y33200D01*
X-80688Y32542D01*
X-80315Y31985D01*
X-79758Y31612D01*
X-79100Y31481D01*
X-78442Y31612D01*
X-78365Y31664D01*
X-67126D01*
Y30869D01*
X-66036D01*
Y23856D01*
X-65916Y23251D01*
X-65574Y22739D01*
X-63853Y21018D01*
X-64060Y20518D01*
X-82444D01*
X-86663Y24737D01*
X-87093Y25025D01*
X-87600Y25126D01*
X-90219D01*
X-90389Y25626D01*
X-90183Y25783D01*
X-89550Y26608D01*
X-89233Y27375D01*
X-71551D01*
X-71158Y27112D01*
X-70500Y26981D01*
X-69842Y27112D01*
X-69285Y27485D01*
X-68912Y28042D01*
X-68781Y28700D01*
X-68912Y29358D01*
X-69285Y29915D01*
X-69842Y30288D01*
X-70500Y30419D01*
X-71158Y30288D01*
X-71551Y30026D01*
X-89315D01*
X-89550Y30592D01*
X-90183Y31417D01*
X-91008Y32050D01*
X-91969Y32448D01*
X-93000Y32584D01*
X-94031Y32448D01*
X-94992Y32050D01*
X-95817Y31417D01*
X-96450Y30592D01*
X-96848Y29631D01*
X-96984Y28600D01*
X-96848Y27569D01*
X-96450Y26608D01*
X-95817Y25783D01*
X-95612Y25626D01*
X-95781Y25126D01*
X-139600D01*
X-140107Y25025D01*
X-140537Y24737D01*
X-143753Y21521D01*
X-144320Y21756D01*
X-145300Y21885D01*
X-146280Y21756D01*
X-147193Y21378D01*
X-147977Y20776D01*
X-148578Y19993D01*
X-148956Y19080D01*
X-149085Y18100D01*
X-148956Y17120D01*
X-148578Y16207D01*
X-147977Y15424D01*
X-147193Y14822D01*
X-146280Y14444D01*
X-145300Y14315D01*
X-144320Y14444D01*
X-143407Y14822D01*
X-142623Y15424D01*
X-142022Y16207D01*
X-141644Y17120D01*
X-141515Y18100D01*
X-141644Y19080D01*
X-141879Y19647D01*
X-139051Y22475D01*
X-96950D01*
Y15326D01*
X-139400D01*
X-139907Y15225D01*
X-140337Y14937D01*
X-143753Y11521D01*
X-144320Y11756D01*
X-145300Y11885D01*
X-146280Y11756D01*
X-147193Y11378D01*
X-147977Y10776D01*
X-148578Y9993D01*
X-148956Y9080D01*
X-149085Y8100D01*
X-148956Y7120D01*
X-148578Y6207D01*
X-147977Y5424D01*
X-147193Y4822D01*
X-146280Y4444D01*
X-145300Y4315D01*
X-144320Y4444D01*
X-143407Y4822D01*
X-142623Y5424D01*
X-142022Y6207D01*
X-141644Y7120D01*
X-141515Y8100D01*
X-141644Y9080D01*
X-141879Y9647D01*
X-138851Y12675D01*
X-133253D01*
X-133062Y12213D01*
X-143753Y1521D01*
X-144320Y1756D01*
X-145300Y1885D01*
X-146280Y1756D01*
X-147193Y1378D01*
X-147977Y777D01*
X-148578Y-7D01*
X-148956Y-920D01*
X-149085Y-1900D01*
X-148956Y-2880D01*
X-148578Y-3793D01*
X-147977Y-4577D01*
X-147193Y-5178D01*
X-146280Y-5556D01*
X-145300Y-5685D01*
X-144320Y-5556D01*
X-143407Y-5178D01*
X-142623Y-4577D01*
X-142022Y-3793D01*
X-141644Y-2880D01*
X-141515Y-1900D01*
X-141644Y-920D01*
X-141879Y-353D01*
X-130919Y10606D01*
X-124100D01*
X-123909Y10144D01*
X-142993Y-8940D01*
X-143407Y-8622D01*
X-144320Y-8244D01*
X-145300Y-8115D01*
X-146280Y-8244D01*
X-147193Y-8622D01*
X-147977Y-9223D01*
X-148578Y-10007D01*
X-148956Y-10920D01*
X-149085Y-11900D01*
X-148956Y-12880D01*
X-148578Y-13793D01*
X-147977Y-14577D01*
X-147193Y-15178D01*
X-146280Y-15556D01*
X-145300Y-15685D01*
X-144320Y-15556D01*
X-143407Y-15178D01*
X-142623Y-14577D01*
X-142022Y-13793D01*
X-141644Y-12880D01*
X-141515Y-11900D01*
X-141595Y-11291D01*
X-121930Y8375D01*
X-96121D01*
X-95926Y7875D01*
X-96450Y7192D01*
X-96848Y6231D01*
X-96984Y5200D01*
Y-4800D01*
X-96848Y-5831D01*
X-96450Y-6792D01*
X-95817Y-7617D01*
X-94992Y-8250D01*
X-94031Y-8648D01*
X-93000Y-8784D01*
X-92285Y-8689D01*
X-90586Y-10389D01*
X-90777Y-10850D01*
X-96950D01*
Y-17924D01*
X-142293D01*
X-142800Y-18025D01*
X-143230Y-18312D01*
X-143501Y-18583D01*
X-144320Y-18244D01*
X-145300Y-18115D01*
X-146280Y-18244D01*
X-147193Y-18622D01*
X-147977Y-19223D01*
X-148578Y-20007D01*
X-148956Y-20920D01*
X-149085Y-21900D01*
X-148956Y-22880D01*
X-148578Y-23793D01*
X-147977Y-24577D01*
X-147193Y-25178D01*
X-146280Y-25556D01*
X-145300Y-25685D01*
X-144320Y-25556D01*
X-143407Y-25178D01*
X-142623Y-24577D01*
X-142022Y-23793D01*
X-141644Y-22880D01*
X-141515Y-21900D01*
X-141623Y-21075D01*
X-141386Y-20697D01*
X-141246Y-20575D01*
X-136557D01*
X-136350Y-21075D01*
X-143753Y-28479D01*
X-144320Y-28244D01*
X-145300Y-28115D01*
X-146280Y-28244D01*
X-147193Y-28622D01*
X-147977Y-29223D01*
X-148578Y-30007D01*
X-148956Y-30920D01*
X-149085Y-31900D01*
X-148956Y-32880D01*
X-148578Y-33793D01*
X-147977Y-34576D01*
X-147193Y-35178D01*
X-146280Y-35556D01*
X-145300Y-35685D01*
X-144320Y-35556D01*
X-143407Y-35178D01*
X-142623Y-34576D01*
X-142022Y-33793D01*
X-141644Y-32880D01*
X-141515Y-31900D01*
X-141644Y-30920D01*
X-141879Y-30353D01*
X-134402Y-22876D01*
X-128804D01*
X-128613Y-23338D01*
X-143753Y-38479D01*
X-144320Y-38244D01*
X-145300Y-38115D01*
X-146280Y-38244D01*
X-147193Y-38622D01*
X-147977Y-39224D01*
X-148578Y-40007D01*
X-148956Y-40920D01*
X-149085Y-41900D01*
X-148956Y-42880D01*
X-148578Y-43793D01*
X-147977Y-44576D01*
X-147193Y-45178D01*
X-146280Y-45556D01*
X-145300Y-45685D01*
X-144320Y-45556D01*
X-143407Y-45178D01*
X-142623Y-44576D01*
X-142022Y-43793D01*
X-141644Y-42880D01*
X-141515Y-41900D01*
X-141644Y-40920D01*
X-141879Y-40353D01*
X-126471Y-24946D01*
X-96156D01*
X-95942Y-25446D01*
X-96450Y-26108D01*
X-96848Y-27069D01*
X-96984Y-28100D01*
X-96848Y-29131D01*
X-96450Y-30092D01*
X-95817Y-30917D01*
X-95090Y-31475D01*
X-95175Y-31890D01*
X-95221Y-31975D01*
X-126700D01*
X-127207Y-32075D01*
X-127637Y-32363D01*
X-143422Y-48147D01*
X-149053D01*
Y-55653D01*
X-141547D01*
Y-50022D01*
X-126151Y-34626D01*
X-95781D01*
X-95612Y-35125D01*
X-95817Y-35283D01*
X-96450Y-36108D01*
X-96848Y-37069D01*
X-96984Y-38100D01*
X-96848Y-39131D01*
X-96450Y-40092D01*
X-95817Y-40917D01*
X-94992Y-41550D01*
X-94031Y-41948D01*
X-93000Y-42084D01*
X-91969Y-41948D01*
X-91008Y-41550D01*
X-90183Y-40917D01*
X-89550Y-40092D01*
X-89274Y-39426D01*
X-67451D01*
X-67058Y-39688D01*
X-66400Y-39819D01*
X-65742Y-39688D01*
X-65185Y-39315D01*
X-64812Y-38758D01*
X-64681Y-38100D01*
X-64812Y-37442D01*
X-65185Y-36885D01*
X-65742Y-36512D01*
X-66400Y-36381D01*
X-67058Y-36512D01*
X-67451Y-36775D01*
X-78637D01*
X-79049Y-36561D01*
X-79049Y-36561D01*
X-79049D01*
X-79077Y-36274D01*
X-79042Y-36268D01*
X-78642Y-36188D01*
X-78085Y-35815D01*
X-77712Y-35258D01*
X-77709Y-35244D01*
X-73963Y-31498D01*
X-73526Y-31319D01*
Y-31319D01*
X-73526Y-31319D01*
X-68186D01*
Y-30525D01*
X-67126D01*
Y-31319D01*
X-61786D01*
Y-26569D01*
X-62876D01*
Y-24611D01*
X-61597Y-23332D01*
X-59183D01*
X-59033Y-23433D01*
X-58337Y-23571D01*
X-52235D01*
X-51538Y-23433D01*
X-50948Y-23038D01*
X-50554Y-22448D01*
X-50415Y-21752D01*
X-50554Y-21056D01*
X-50944Y-20472D01*
X-50554Y-19889D01*
X-50415Y-19193D01*
X-50554Y-18497D01*
X-50944Y-17913D01*
X-50554Y-17330D01*
X-50415Y-16634D01*
X-50554Y-15938D01*
X-50944Y-15354D01*
X-50554Y-14771D01*
X-50415Y-14075D01*
X-50554Y-13379D01*
X-50944Y-12795D01*
X-50554Y-12212D01*
X-50415Y-11516D01*
X-50554Y-10820D01*
X-50944Y-10236D01*
X-50554Y-9653D01*
X-50415Y-8957D01*
X-50554Y-8260D01*
X-50944Y-7677D01*
X-50554Y-7094D01*
X-50415Y-6398D01*
X-50554Y-5702D01*
X-50944Y-5118D01*
X-50554Y-4535D01*
X-50415Y-3839D01*
X-50554Y-3142D01*
X-50944Y-2559D01*
X-50554Y-1976D01*
X-50415Y-1280D01*
X-50554Y-583D01*
X-50944Y0D01*
X-50554Y583D01*
X-50415Y1280D01*
X-50554Y1976D01*
X-50831Y2390D01*
X-50804Y2408D01*
X-50516Y2839D01*
X-51356D01*
X-51538Y2960D01*
X-52235Y3099D01*
X-55286D01*
X-58337D01*
X-59033Y2960D01*
X-59216Y2839D01*
X-60305D01*
X-60430Y2605D01*
X-63820D01*
X-64328Y2504D01*
X-64758Y2217D01*
X-71349Y-4374D01*
X-75100D01*
X-75100Y2330D01*
X-71169D01*
Y3675D01*
X-68100D01*
X-67593Y3775D01*
X-67163Y4063D01*
X-66153Y5072D01*
X-60430D01*
X-60305Y4839D01*
X-59216D01*
X-59033Y4717D01*
X-58337Y4578D01*
X-55286D01*
X-52235D01*
X-51538Y4717D01*
X-51356Y4839D01*
X-50516D01*
X-50804Y5269D01*
X-50831Y5287D01*
X-50554Y5702D01*
X-50415Y6398D01*
X-50554Y7094D01*
X-50944Y7677D01*
X-50554Y8260D01*
X-50415Y8957D01*
X-50554Y9653D01*
X-50944Y10236D01*
X-50554Y10820D01*
X-50415Y11516D01*
X-50554Y12212D01*
X-50944Y12795D01*
X-50554Y13379D01*
X-50415Y14075D01*
X-50554Y14771D01*
X-50618Y14867D01*
X-50383Y15308D01*
X-46583D01*
X-44726Y13452D01*
Y-53525D01*
X-45776D01*
Y-58275D01*
X-41026D01*
Y-57326D01*
X-40151D01*
X-39758Y-57588D01*
X-39100Y-57719D01*
X-38442Y-57588D01*
X-37885Y-57215D01*
X-37512Y-56658D01*
X-37381Y-56000D01*
X-37512Y-55342D01*
X-37885Y-54785D01*
X-38442Y-54412D01*
X-39100Y-54281D01*
X-39758Y-54412D01*
X-40151Y-54675D01*
X-41026D01*
Y-53525D01*
X-42075D01*
Y14001D01*
X-42176Y14508D01*
X-42463Y14938D01*
X-44893Y17367D01*
X-44686Y17867D01*
X-27342D01*
X-17777Y8302D01*
Y-53525D01*
X-18826D01*
Y-58275D01*
X-14076D01*
Y-57226D01*
X-13151D01*
X-12758Y-57488D01*
X-12100Y-57619D01*
X-11442Y-57488D01*
X-10885Y-57115D01*
X-10512Y-56558D01*
X-10381Y-55900D01*
X-10512Y-55242D01*
X-10885Y-54685D01*
X-11442Y-54312D01*
X-12100Y-54181D01*
X-12758Y-54312D01*
X-13151Y-54575D01*
X-14076D01*
Y-53525D01*
X-15126D01*
Y8851D01*
X-15227Y9358D01*
X-15514Y9788D01*
X-25856Y20130D01*
X-26286Y20417D01*
X-26793Y20518D01*
X-50383D01*
X-50618Y20959D01*
X-50554Y21056D01*
X-50415Y21752D01*
X-50554Y22448D01*
X-50948Y23038D01*
X-51538Y23433D01*
X-52235Y23571D01*
X-58337D01*
X-59033Y23433D01*
X-59183Y23332D01*
X-61697D01*
X-62876Y24511D01*
Y30869D01*
X-61786D01*
Y35619D01*
D02*
G37*
G36*
X-93000Y42584D02*
X-94031Y42448D01*
X-94992Y42050D01*
X-95817Y41417D01*
X-96450Y40592D01*
X-96848Y39631D01*
X-96984Y38600D01*
X-96848Y37569D01*
X-96450Y36608D01*
X-95817Y35783D01*
X-94992Y35150D01*
X-94031Y34752D01*
X-93000Y34616D01*
X-91969Y34752D01*
X-91008Y35150D01*
X-90183Y35783D01*
X-89550Y36608D01*
X-89152Y37569D01*
X-89016Y38600D01*
X-89152Y39631D01*
X-89550Y40592D01*
X-90183Y41417D01*
X-91008Y42050D01*
X-91969Y42448D01*
X-93000Y42584D01*
D02*
G37*
G36*
X-141445Y37100D02*
X-144300D01*
Y34245D01*
X-144268Y34249D01*
X-143307Y34647D01*
X-142481Y35281D01*
X-141847Y36107D01*
X-141449Y37068D01*
X-141445Y37100D01*
D02*
G37*
G36*
X-146300D02*
X-149155D01*
X-149151Y37068D01*
X-148753Y36107D01*
X-148119Y35281D01*
X-147293Y34647D01*
X-146332Y34249D01*
X-146300Y34245D01*
Y37100D01*
D02*
G37*
G36*
X112450Y31700D02*
X109700D01*
Y29200D01*
X112450D01*
Y31700D01*
D02*
G37*
G36*
X107700D02*
X104950D01*
Y29200D01*
X107700D01*
Y31700D01*
D02*
G37*
G36*
X-144300Y31955D02*
Y29100D01*
X-141445D01*
X-141449Y29132D01*
X-141847Y30093D01*
X-142481Y30919D01*
X-143307Y31553D01*
X-144268Y31951D01*
X-144300Y31955D01*
D02*
G37*
G36*
X-146300D02*
X-146332Y31951D01*
X-147293Y31553D01*
X-148119Y30919D01*
X-148753Y30093D01*
X-149151Y29132D01*
X-149155Y29100D01*
X-146300D01*
Y31955D01*
D02*
G37*
G36*
X-141445Y27100D02*
X-144300D01*
Y24245D01*
X-144268Y24249D01*
X-143307Y24647D01*
X-142481Y25281D01*
X-141847Y26107D01*
X-141449Y27068D01*
X-141445Y27100D01*
D02*
G37*
G36*
X-146300D02*
X-149155D01*
X-149151Y27068D01*
X-148753Y26107D01*
X-148119Y25281D01*
X-147293Y24647D01*
X-146332Y24249D01*
X-146300Y24245D01*
Y27100D01*
D02*
G37*
G36*
X82900Y-5484D02*
Y-9900D01*
X87316D01*
X87258Y-9464D01*
X86704Y-8126D01*
X85823Y-6977D01*
X84674Y-6096D01*
X83336Y-5542D01*
X82900Y-5484D01*
D02*
G37*
G36*
X141521Y-11000D02*
X136600D01*
Y-14937D01*
X141521D01*
Y-11000D01*
D02*
G37*
G36*
X134600D02*
X129679D01*
Y-14937D01*
X134600D01*
Y-11000D01*
D02*
G37*
G36*
X87316Y-11900D02*
X82900D01*
Y-16316D01*
X83336Y-16258D01*
X84674Y-15704D01*
X85823Y-14823D01*
X86704Y-13674D01*
X87258Y-12336D01*
X87316Y-11900D01*
D02*
G37*
G36*
X80900D02*
X76484D01*
X76542Y-12336D01*
X77096Y-13674D01*
X77977Y-14823D01*
X79126Y-15704D01*
X80464Y-16258D01*
X80900Y-16316D01*
Y-11900D01*
D02*
G37*
G36*
X112450Y-29500D02*
X109700D01*
Y-32000D01*
X112450D01*
Y-29500D01*
D02*
G37*
G36*
X107700D02*
X104950D01*
Y-32000D01*
X107700D01*
Y-29500D01*
D02*
G37*
G36*
X-89050Y-44150D02*
X-96950D01*
Y-52050D01*
X-89050D01*
Y-44150D01*
D02*
G37*
G36*
X-20376Y-53525D02*
X-25125D01*
Y-54675D01*
X-25649D01*
X-26042Y-54412D01*
X-26700Y-54281D01*
X-27358Y-54412D01*
X-27915Y-54785D01*
X-28288Y-55342D01*
X-28419Y-56000D01*
X-28288Y-56658D01*
X-27915Y-57215D01*
X-27358Y-57588D01*
X-26700Y-57719D01*
X-26042Y-57588D01*
X-25649Y-57326D01*
X-25125D01*
Y-58275D01*
X-20376D01*
Y-53525D01*
D02*
G37*
G36*
X-47325D02*
X-52075D01*
Y-54675D01*
X-53149D01*
X-53542Y-54412D01*
X-54200Y-54281D01*
X-54858Y-54412D01*
X-55415Y-54785D01*
X-55788Y-55342D01*
X-55919Y-56000D01*
X-55788Y-56658D01*
X-55415Y-57215D01*
X-54858Y-57588D01*
X-54200Y-57719D01*
X-53542Y-57588D01*
X-53149Y-57326D01*
X-52075D01*
Y-58275D01*
X-47325D01*
Y-53525D01*
D02*
G37*
G36*
X-89083Y-66939D02*
X-90953D01*
Y-68513D01*
X-89083D01*
Y-66939D01*
D02*
G37*
G36*
X-92953D02*
X-94824D01*
Y-68513D01*
X-92953D01*
Y-66939D01*
D02*
G37*
G36*
X-95624D02*
X-97494D01*
Y-68513D01*
X-95624D01*
Y-66939D01*
D02*
G37*
G36*
X-99494D02*
X-101364D01*
Y-68513D01*
X-99494D01*
Y-66939D01*
D02*
G37*
G36*
X112450Y-67800D02*
X109700D01*
Y-70300D01*
X112450D01*
Y-67800D01*
D02*
G37*
G36*
X107700D02*
X104950D01*
Y-70300D01*
X107700D01*
Y-67800D01*
D02*
G37*
G36*
X-144200Y-69845D02*
Y-72700D01*
X-141345D01*
X-141349Y-72668D01*
X-141747Y-71707D01*
X-142381Y-70881D01*
X-143207Y-70247D01*
X-144168Y-69849D01*
X-144200Y-69845D01*
D02*
G37*
G36*
X-146200D02*
X-146232Y-69849D01*
X-147193Y-70247D01*
X-148019Y-70881D01*
X-148653Y-71707D01*
X-149051Y-72668D01*
X-149055Y-72700D01*
X-146200D01*
Y-69845D01*
D02*
G37*
G36*
X-79100Y-41481D02*
X-79758Y-41612D01*
X-80315Y-41985D01*
X-80688Y-42542D01*
X-80819Y-43200D01*
X-80688Y-43858D01*
X-80680Y-43869D01*
Y-70745D01*
X-83380Y-73445D01*
X-89001D01*
X-89083Y-73245D01*
Y-70513D01*
X-94824D01*
Y-70521D01*
X-95624D01*
Y-70513D01*
X-101364D01*
Y-72088D01*
Y-73220D01*
X-101447Y-73420D01*
X-104800D01*
X-105405Y-73540D01*
X-105918Y-73883D01*
X-108862Y-76827D01*
X-109205Y-77340D01*
X-109325Y-77945D01*
Y-78493D01*
X-110513D01*
Y-89542D01*
X-104976D01*
Y-78493D01*
X-105405D01*
X-105596Y-78031D01*
X-104145Y-76580D01*
X-101164D01*
Y-77400D01*
X-89284D01*
Y-76606D01*
X-82725D01*
X-82120Y-76485D01*
X-81608Y-76143D01*
X-77982Y-72518D01*
X-77640Y-72005D01*
X-77520Y-71400D01*
Y-43869D01*
X-77512Y-43858D01*
X-77381Y-43200D01*
X-77512Y-42542D01*
X-77885Y-41985D01*
X-78442Y-41612D01*
X-79100Y-41481D01*
D02*
G37*
G36*
X112450Y-72300D02*
X109700D01*
Y-74800D01*
X112450D01*
Y-72300D01*
D02*
G37*
G36*
X107700D02*
X104950D01*
Y-74800D01*
X107700D01*
Y-72300D01*
D02*
G37*
G36*
X-141345Y-74700D02*
X-144200D01*
Y-77555D01*
X-144168Y-77551D01*
X-143207Y-77153D01*
X-142381Y-76519D01*
X-141747Y-75693D01*
X-141349Y-74732D01*
X-141345Y-74700D01*
D02*
G37*
G36*
X-146200D02*
X-149055D01*
X-149051Y-74732D01*
X-148653Y-75693D01*
X-148019Y-76519D01*
X-147193Y-77153D01*
X-146232Y-77551D01*
X-146200Y-77555D01*
Y-74700D01*
D02*
G37*
G36*
X-122887Y-78293D02*
X-124855D01*
Y-83017D01*
X-122887D01*
Y-78293D01*
D02*
G37*
G36*
X-126855D02*
X-128824D01*
Y-83017D01*
X-126855D01*
Y-78293D01*
D02*
G37*
G36*
X129900Y-77863D02*
X128391Y-78011D01*
X126939Y-78452D01*
X125601Y-79167D01*
X124429Y-80129D01*
X123467Y-81301D01*
X122752Y-82639D01*
X122311Y-84091D01*
X122163Y-85600D01*
X122311Y-87110D01*
X122752Y-88561D01*
X123467Y-89899D01*
X124429Y-91071D01*
X125601Y-92033D01*
X126939Y-92748D01*
X128391Y-93189D01*
X129900Y-93337D01*
X131410Y-93189D01*
X132861Y-92748D01*
X134199Y-92033D01*
X135371Y-91071D01*
X136333Y-89899D01*
X137048Y-88561D01*
X137489Y-87110D01*
X137637Y-85600D01*
X137489Y-84091D01*
X137048Y-82639D01*
X136333Y-81301D01*
X135371Y-80129D01*
X134199Y-79167D01*
X132861Y-78452D01*
X131410Y-78011D01*
X129900Y-77863D01*
D02*
G37*
G36*
X-47800D02*
X-49310Y-78011D01*
X-50761Y-78452D01*
X-52099Y-79167D01*
X-53271Y-80129D01*
X-54233Y-81301D01*
X-54948Y-82639D01*
X-55389Y-84091D01*
X-55537Y-85600D01*
X-55389Y-87110D01*
X-54948Y-88561D01*
X-54233Y-89899D01*
X-53271Y-91071D01*
X-52099Y-92033D01*
X-50761Y-92748D01*
X-49310Y-93189D01*
X-47800Y-93337D01*
X-46290Y-93189D01*
X-44839Y-92748D01*
X-43501Y-92033D01*
X-42329Y-91071D01*
X-41367Y-89899D01*
X-40652Y-88561D01*
X-40211Y-87110D01*
X-40063Y-85600D01*
X-40211Y-84091D01*
X-40652Y-82639D01*
X-41367Y-81301D01*
X-42329Y-80129D01*
X-43501Y-79167D01*
X-44839Y-78452D01*
X-46290Y-78011D01*
X-47800Y-77863D01*
D02*
G37*
%LPD*%
G36*
X18000Y23300D02*
Y19600D01*
X14276Y15876D01*
X-371Y15876D01*
X-463Y15894D01*
X-4247D01*
X-4600Y16248D01*
X-4600Y17374D01*
X-463D01*
X-150Y17436D01*
X836D01*
X3200Y19800D01*
X7600Y19800D01*
X11100Y23300D01*
X18000Y23300D01*
D02*
G37*
G36*
X140501Y52200D02*
X38601Y52200D01*
X31102Y44700D01*
Y18100D01*
X23502Y10500D01*
X3401Y10500D01*
X581Y13321D01*
X-391D01*
X-463Y13335D01*
X-5000D01*
Y14815D01*
X-463D01*
X-34Y14900D01*
X14402D01*
X14696Y15194D01*
X14852Y15299D01*
X18577Y19023D01*
X18577Y19023D01*
X18681Y19180D01*
X18902Y19400D01*
X18902Y57300D01*
X27202Y65600D01*
X140502Y65600D01*
X140501Y52200D01*
D02*
G37*
G36*
X140502Y37500D02*
X46702D01*
X44202Y35000D01*
X44201Y10800D01*
X41944Y8542D01*
X41712Y8387D01*
X41712Y8387D01*
X38769Y5444D01*
X346Y5444D01*
X233Y5519D01*
X-463Y5658D01*
X-5300D01*
Y7137D01*
X-463D01*
X233Y7276D01*
X419Y7400D01*
X1001D01*
X3305Y9703D01*
X3401Y9684D01*
X3401Y9684D01*
X23502Y9684D01*
X23502Y9684D01*
X23814Y9746D01*
X24078Y9923D01*
X24078Y9923D01*
X31678Y17523D01*
X31678Y17523D01*
X31784Y17682D01*
X31855Y17788D01*
X31917Y18100D01*
X31917Y18100D01*
Y44362D01*
X38855Y51300D01*
X140501Y51300D01*
X140502Y37500D01*
D02*
G37*
G36*
X142766Y-4000D02*
X79455D01*
X75555Y-7900D01*
X42518Y-7900D01*
X39245Y-4627D01*
X-218D01*
X-463Y-4578D01*
X-5717D01*
Y-3099D01*
X-463D01*
X-151Y-3037D01*
X5563D01*
X6200Y-2400D01*
Y-1395D01*
X6219Y-1300D01*
X6200Y-1205D01*
Y1205D01*
X6219Y1300D01*
X6200Y1395D01*
Y2000D01*
X5778Y2422D01*
X5715Y2515D01*
X5623Y2578D01*
X5200Y3000D01*
X4595D01*
X4500Y3019D01*
X4405Y3000D01*
X33Y3000D01*
X-463Y3099D01*
X-5359D01*
X-5710Y3455D01*
X-5695Y4578D01*
X-463D01*
X-211Y4628D01*
X39107Y4628D01*
X42289Y7811D01*
X52210Y7810D01*
X62469Y18069D01*
X142766Y18069D01*
X142766Y-4000D01*
D02*
G37*
G36*
X14200Y-15900D02*
X18000Y-19700D01*
X18000Y-23300D01*
X11200Y-23300D01*
X7700Y-19800D01*
X3300Y-19800D01*
X904Y-17404D01*
X-310D01*
X-463Y-17374D01*
X-6565D01*
X-6718Y-17404D01*
X-7500D01*
X-7500Y-16254D01*
X-7147Y-15900D01*
X14200Y-15900D01*
D02*
G37*
G36*
X44211Y-10806D02*
X44211Y-35006D01*
X46711Y-37506D01*
X140511D01*
X140511Y-51306D01*
X38864Y-51306D01*
X31926Y-44368D01*
Y-18106D01*
X31926Y-18106D01*
X31864Y-17794D01*
X31793Y-17688D01*
X31687Y-17530D01*
X31687Y-17530D01*
X24087Y-9930D01*
X24087Y-9930D01*
X23823Y-9753D01*
X23511Y-9691D01*
X23510Y-9691D01*
X3410Y-9691D01*
X3410Y-9691D01*
X3314Y-9710D01*
X783Y-7179D01*
X-253D01*
X-463Y-7137D01*
X-4400D01*
Y-5658D01*
X-463D01*
X112Y-5543D01*
X38948Y-5543D01*
X44211Y-10806D01*
D02*
G37*
G36*
X23511Y-10506D02*
X31111Y-18106D01*
Y-44706D01*
X38611Y-52206D01*
X140511Y-52206D01*
X140511Y-65606D01*
X27211Y-65606D01*
X18911Y-57306D01*
X18911Y-19406D01*
X14611Y-15106D01*
X14311D01*
X14200Y-15084D01*
X14200Y-15084D01*
X429Y-15084D01*
X233Y-14953D01*
X-463Y-14815D01*
X-4300D01*
Y-13335D01*
X-463D01*
X233Y-13196D01*
X465Y-13041D01*
X876D01*
X3410Y-10506D01*
X23511Y-10506D01*
D02*
G37*
G36*
X-81431Y2330D02*
X-80381D01*
Y1170D01*
X-81431D01*
Y-4170D01*
X-80381D01*
Y-5700D01*
Y-7030D01*
X-81531D01*
Y-11843D01*
X-85382D01*
X-89934Y-7292D01*
X-89550Y-6792D01*
X-89152Y-5831D01*
X-89016Y-4800D01*
X-89152Y-3769D01*
X-89550Y-2808D01*
X-90183Y-1983D01*
X-91008Y-1350D01*
X-91969Y-952D01*
X-93000Y-816D01*
Y1216D01*
X-91969Y1352D01*
X-91008Y1750D01*
X-90183Y2383D01*
X-89550Y3208D01*
X-89462Y3420D01*
X-81431D01*
Y2330D01*
D02*
G37*
G36*
X-76382Y-25407D02*
X-82949Y-31975D01*
X-90779D01*
X-90825Y-31890D01*
X-90910Y-31475D01*
X-90183Y-30917D01*
X-89550Y-30092D01*
X-89152Y-29131D01*
X-89016Y-28100D01*
X-89152Y-27069D01*
X-89550Y-26108D01*
X-90058Y-25446D01*
X-89844Y-24946D01*
X-76573D01*
X-76382Y-25407D01*
D02*
G37*
D16*
X-16500Y-55900D02*
X-12100D01*
X-43500Y-56000D02*
X-39100D01*
X11193Y-35893D02*
X14550Y-32537D01*
X11193Y-36849D02*
Y-35893D01*
X13414Y-17387D02*
X14097D01*
X16962Y-20252D01*
X13276Y19069D02*
X14062Y19854D01*
X13276Y17206D02*
Y19069D01*
X13816Y20100D02*
X14062Y19854D01*
X-84554Y9700D02*
X-82739Y11516D01*
X-144079Y-11900D02*
X-122479Y9700D01*
X-84554D01*
X-83346Y7849D02*
X-83099Y8221D01*
X-82363Y8957D01*
X-55286D01*
X-84868Y11932D02*
X-82900Y13900D01*
X-55461D01*
X-82739Y11516D02*
X-55286D01*
X-131468Y11932D02*
X-84868D01*
X-86146Y14000D02*
X-83512Y16634D01*
X-139400Y14000D02*
X-86146D01*
X-83512Y16634D02*
X-55286D01*
X-145300Y8100D02*
X-139400Y14000D01*
X9987Y37113D02*
X13230Y33870D01*
X3400Y37113D02*
X9987D01*
X13230Y33870D02*
X13437D01*
X-64398Y-6398D02*
X-55286D01*
X-85931Y-13169D02*
X-71169D01*
X-64398Y-6398D01*
X-73644Y-9700D02*
X-73044Y-9100D01*
X-70386D01*
X-69500Y43800D02*
Y48797D01*
X-25850Y37550D02*
X-13300Y25000D01*
X-64456Y-34456D02*
X-60400D01*
X-51556D01*
X-86500Y-39900D02*
X-72900D01*
X-27056Y38756D02*
X-25850Y37550D01*
X-89300Y-42700D02*
X-86500Y-39900D01*
X-69500Y48797D02*
Y55800D01*
X-101600Y-42700D02*
X-89300D01*
X-83590Y-18378D02*
Y-18091D01*
X-84462Y-19250D02*
X-83590Y-18378D01*
X-142293Y-19250D02*
X-84462D01*
X-145300Y-21900D02*
X-144944D01*
X-142293Y-19250D01*
X-134951Y-21551D02*
X-76570D01*
X-66534Y-11516D01*
X29400Y61700D02*
X135600D01*
X29400Y-61700D02*
X135600D01*
X12924Y-19206D02*
X13998Y-20281D01*
X13400Y-20244D02*
X16732D01*
X-13300Y9100D02*
Y11600D01*
Y-8800D02*
Y9100D01*
X-13157Y8957D02*
X-3514D01*
X-13300Y9100D02*
X-13157Y8957D01*
X-13300Y11600D02*
Y25000D01*
X-13216Y11516D02*
X-3514D01*
X-13300Y11600D02*
X-13216Y11516D01*
X-13300Y-10500D02*
Y-8800D01*
X-13143Y-8957D02*
X-3514D01*
X-13300Y-8800D02*
X-13143Y-8957D01*
X-12284Y-11516D02*
X-3514D01*
X-13300Y-10500D02*
X-12284Y-11516D01*
X13449Y20100D02*
X13816D01*
X13961Y20244D01*
X12886Y19169D02*
X13816Y20100D01*
X-3514Y3839D02*
X48299D01*
X-107046Y55800D02*
X-69500D01*
X-108036Y56791D02*
X-107046Y55800D01*
X-109450Y56791D02*
X-108036D01*
X-112100Y59440D02*
X-109450Y56791D01*
X-112100Y59440D02*
Y60854D01*
X-60400Y-43600D02*
Y-34556D01*
Y-68371D02*
Y-43600D01*
X-69200D02*
X-60400D01*
X-72900Y-39900D02*
X-69200Y-43600D01*
X-106100Y-47200D02*
X-101600Y-42700D01*
X-93000Y-38100D02*
X-66400D01*
X48013Y-3552D02*
X49705Y-5244D01*
X-3514Y-3839D02*
X-3329Y-3653D01*
X407D01*
X508Y-3552D01*
X48013D01*
X16851Y-20363D02*
X16962Y-20252D01*
X16732Y-20244D02*
X16851Y-20363D01*
X13270Y20279D02*
X13449Y20100D01*
X57000Y32700D02*
X108700D01*
X50000Y25700D02*
X57000Y32700D01*
X50000Y10756D02*
Y25700D01*
X14512Y32500D02*
Y32795D01*
X13437Y33870D02*
X14512Y32795D01*
X-64456Y38756D02*
X-27056D01*
X-55286Y3839D02*
X-49439D01*
X-47400Y1800D01*
X-51556Y-34456D02*
X-47400Y-30300D01*
Y1800D01*
X-98494Y-69513D02*
X-91953D01*
X-125855Y-82603D02*
Y-58745D01*
Y-84017D02*
Y-82603D01*
X-98494Y-69513D02*
Y-54806D01*
X-106100Y-47200D02*
X-98494Y-54806D01*
X-118900Y-47200D02*
X-106100D01*
X-125900Y-58700D02*
Y-54200D01*
X-118900Y-47200D01*
X-125900Y-58700D02*
X-125855Y-58745D01*
X-127324Y-81135D02*
X-125855Y-82603D01*
X-128738Y-81135D02*
X-127324D01*
X-136172Y-73700D02*
X-128738Y-81135D01*
X-145200Y-73700D02*
X-136172D01*
X-153100Y-65914D02*
Y20300D01*
X-152400Y-66500D02*
X-145200Y-73700D01*
X-152514Y-66500D02*
X-152400D01*
X-153100Y-65914D02*
X-152514Y-66500D01*
X-153100Y20300D02*
X-145300Y28100D01*
Y38100D02*
Y60600D01*
Y28100D02*
Y38100D01*
X-145046Y60854D02*
X-112100D01*
X-145300Y60600D02*
X-145046Y60854D01*
X-64751Y38756D02*
X-64456D01*
X-65826Y39831D02*
X-64751Y38756D01*
X-65826Y39831D02*
Y40126D01*
X-69500Y43800D02*
X-65826Y40126D01*
X-63251Y48797D02*
X-59401D01*
X-63701Y55900D02*
X-59850D01*
X-26700Y-56000D02*
X-22300D01*
X-49800D02*
X-49700Y-55900D01*
X-54200Y-56000D02*
X-49800D01*
X-55286Y16634D02*
X-46034D01*
X-43401Y-55900D02*
Y14001D01*
X-46034Y16634D02*
X-43401Y14001D01*
X-16451Y-55900D02*
Y8851D01*
X-26793Y19193D02*
X-16451Y8851D01*
X-55286Y19193D02*
X-26793D01*
X-93000Y-14800D02*
X-92000Y-15800D01*
X-74300D01*
X-93000Y-6100D02*
X-85931Y-13169D01*
X-127020Y-23620D02*
X-75897D01*
X-126700Y-33300D02*
X-82400D01*
X-66534Y-11516D02*
X-55286D01*
X-66351Y-14075D02*
X-55286D01*
X-75897Y-23620D02*
X-66351Y-14075D01*
X-93000Y28600D02*
X-92800Y28800D01*
X-92100Y28700D02*
X-70500D01*
X-92800Y28800D02*
X-92400Y28400D01*
X-92100Y28700D01*
X-139600Y23800D02*
X-87600D01*
X-82993Y19193D02*
X-55286D01*
X-87600Y23800D02*
X-82993Y19193D01*
X-70856Y-34456D02*
X-64456D01*
X-145300Y-51900D02*
X-126700Y-33300D01*
X-145300Y-41900D02*
X-127020Y-23620D01*
X-145300Y-31900D02*
X-145300D01*
X-134951Y-21551D01*
X-145300Y-1900D02*
X-131468Y11932D01*
X-145300Y18100D02*
X-139600Y23800D01*
X-70655Y-1500D02*
X-65317Y3839D01*
X-73544Y-1500D02*
X-70655D01*
X-65317Y3839D02*
X-55286D01*
X-93000Y-6100D02*
Y-4800D01*
X-65734Y-16634D02*
X-55286D01*
X-82400Y-33300D02*
X-65734Y-16634D01*
X-93000Y5200D02*
X-92800Y5000D01*
X-79056Y-5700D02*
Y-1500D01*
Y-7900D02*
Y-5700D01*
X-70800D01*
X-63820Y1280D02*
X-55286D01*
X-70800Y-5700D02*
X-63820Y1280D01*
X-70386Y-9100D02*
X-62565Y-1280D01*
X-55286D01*
X-61283Y-3839D02*
X-55286D01*
X-61444Y-4000D02*
X-61283Y-3839D01*
X-61600Y-4000D02*
X-61444D01*
X-55329Y-9000D02*
X-55286Y-8957D01*
X-63300Y-9000D02*
X-55329D01*
X-79056Y-1500D02*
Y5000D01*
X-73544D02*
X-68100D01*
X-66702Y6398D02*
X-55286D01*
X-68100Y5000D02*
X-66702Y6398D01*
X101700Y-10900D02*
X134700D01*
X108500Y-32800D02*
X108700Y-33000D01*
X108500Y-32800D02*
Y-17700D01*
X101700Y-10900D02*
X108500Y-17700D01*
X81900Y-10900D02*
X101700D01*
X50000Y-5244D02*
Y5244D01*
X4479Y-1280D02*
X4500Y-1300D01*
X47700Y-29944D02*
X47756Y-30000D01*
X47700Y-29944D02*
X47800Y-29844D01*
X47700Y29944D02*
X47800Y29844D01*
X47700Y29944D02*
X47756Y30000D01*
X20512Y-52812D02*
Y-39500D01*
Y-52812D02*
X29400Y-61700D01*
X14294Y-32281D02*
Y-25793D01*
Y-32281D02*
X14550Y-32537D01*
X14256Y25756D02*
Y32244D01*
X14512Y32500D01*
X4479Y1280D02*
X4500Y1300D01*
X-3514Y-6398D02*
X33898D01*
X42244Y-14744D01*
Y-30295D02*
Y-14744D01*
X108700Y-41700D02*
X135600D01*
X42244Y-36744D02*
X47200Y-41700D01*
X108700D01*
X42244Y-36744D02*
Y-30000D01*
Y30000D02*
Y36744D01*
X47200Y41700D02*
X108700D01*
X42244Y36744D02*
X47200Y41700D01*
X108700D02*
X135600D01*
X42244Y14744D02*
Y30295D01*
X20550Y16450D02*
Y39537D01*
X20512Y52812D02*
X29400Y61700D01*
X33898Y6398D02*
X42244Y14744D01*
X-3514Y6398D02*
X33898D01*
X20512Y39500D02*
Y52812D01*
X18175Y14075D02*
X20550Y16450D01*
X-3514Y14075D02*
X18175D01*
X-3514Y-14075D02*
X18175D01*
X20550Y-16450D01*
Y-39537D02*
Y-16450D01*
X-3514Y-16634D02*
X10647D01*
X12924Y-18911D01*
Y-19206D02*
Y-18911D01*
X13998Y-20281D02*
X14294D01*
X-3514Y16634D02*
X10646D01*
X12886Y18874D01*
Y19169D01*
X13961Y20244D02*
X14256D01*
X134700Y-10900D02*
X135600Y-10000D01*
X50000Y-10756D02*
X81756D01*
X81900Y-10900D01*
X49705Y-5244D02*
X50000D01*
X49705Y5244D02*
X50000D01*
X48299Y3839D02*
X49705Y5244D01*
X78044D02*
X81900Y9100D01*
X50000Y5244D02*
X78044D01*
X82800Y10000D02*
X135600D01*
X81900Y9100D02*
X82800Y10000D01*
X-145300Y-11900D02*
X-144079D01*
X-55461Y13900D02*
X-55286Y14075D01*
D20*
X13400Y-25756D02*
D03*
Y-20244D02*
D03*
X13270Y20279D02*
D03*
Y25790D02*
D03*
X50000Y-10756D02*
D03*
Y-5244D02*
D03*
Y5244D02*
D03*
Y10756D02*
D03*
X-64456Y33244D02*
D03*
Y38756D02*
D03*
X-64456Y-28944D02*
D03*
Y-34456D02*
D03*
X-70856D02*
D03*
Y-28944D02*
D03*
X-98494Y-69513D02*
D03*
Y-75025D02*
D03*
X-91953Y-69513D02*
D03*
Y-75025D02*
D03*
D21*
X20512Y39500D02*
D03*
X15000D02*
D03*
X14512Y32500D02*
D03*
X9000D02*
D03*
X42244Y30000D02*
D03*
X47756D02*
D03*
X42244Y-30000D02*
D03*
X47756D02*
D03*
X15038Y-39537D02*
D03*
X20550D02*
D03*
X14550Y-32537D02*
D03*
X9038D02*
D03*
X-73644Y-9700D02*
D03*
X-79156D02*
D03*
X-73544Y-1500D02*
D03*
X-79056D02*
D03*
X-73544Y5000D02*
D03*
X-79056D02*
D03*
D22*
X108700Y-71300D02*
D03*
Y-62300D02*
D03*
Y-33000D02*
D03*
Y-42000D02*
D03*
Y70900D02*
D03*
Y61900D02*
D03*
Y32700D02*
D03*
Y41700D02*
D03*
D23*
X-63201Y55800D02*
D03*
X-69500D02*
D03*
X-63251Y48797D02*
D03*
X-69550D02*
D03*
X-16451Y-55900D02*
D03*
X-22750D02*
D03*
X-43401D02*
D03*
X-49700D02*
D03*
D24*
X-3514Y-21752D02*
D03*
Y-19193D02*
D03*
Y-16634D02*
D03*
Y-14075D02*
D03*
Y-11516D02*
D03*
Y-8957D02*
D03*
Y-6398D02*
D03*
Y-3839D02*
D03*
Y-1280D02*
D03*
Y1280D02*
D03*
Y3839D02*
D03*
Y6398D02*
D03*
Y8957D02*
D03*
Y11516D02*
D03*
Y14075D02*
D03*
Y16634D02*
D03*
Y19193D02*
D03*
Y21752D02*
D03*
X-55286Y-21752D02*
D03*
Y-19193D02*
D03*
Y-16634D02*
D03*
Y-14075D02*
D03*
Y-11516D02*
D03*
Y-8957D02*
D03*
Y-6398D02*
D03*
Y-3839D02*
D03*
Y-1280D02*
D03*
Y1280D02*
D03*
Y3839D02*
D03*
Y6398D02*
D03*
Y8957D02*
D03*
Y11516D02*
D03*
Y14075D02*
D03*
Y16634D02*
D03*
Y19193D02*
D03*
Y21752D02*
D03*
D25*
X-116800Y-61183D02*
D03*
D26*
X-107745Y-84017D02*
D03*
X-116800D02*
D03*
X-125855D02*
D03*
D27*
X-112100Y60854D02*
D03*
Y80146D02*
D03*
D45*
X-3000Y33100D02*
X8400D01*
X9000Y32500D01*
X-79100Y-71400D02*
Y-43200D01*
X-82725Y-75025D02*
X-79100Y-71400D01*
X-91953Y-75025D02*
X-82725D01*
X-104800Y-75000D02*
X-98494D01*
X-10700Y37800D02*
X-8838Y39662D01*
X14838D01*
X15000Y39500D01*
X-10700Y-37800D02*
X-9000Y-39500D01*
X15000D01*
X-10700Y-37800D02*
Y-20500D01*
Y20500D02*
Y37800D01*
Y20500D02*
X-9393Y19193D01*
X-3514D01*
X-71276Y-29364D02*
X-70856Y-28944D01*
X-74063Y-29364D02*
X-71276D01*
X-79300Y-34600D02*
X-74063Y-29364D01*
X-98494Y-75025D02*
X-91953D01*
X-79036Y33244D02*
X-64456D01*
X-79080Y33200D02*
X-79036Y33244D01*
X-79100Y33200D02*
X-79080D01*
X3363Y-32537D02*
X9038D01*
X-70856Y-28944D02*
X-64456D01*
X-70856Y-25456D02*
X-64600Y-19200D01*
X-55293D02*
X-55286Y-19193D01*
X-64600Y-19200D02*
X-55293D01*
X-62252Y-21752D02*
X-55286D01*
X-64456Y-23956D02*
X-62252Y-21752D01*
X-64456Y-28944D02*
Y-23956D01*
X-70856Y-28944D02*
Y-25456D01*
X-62352Y21752D02*
X-55286D01*
X-64456Y23856D02*
X-62352Y21752D01*
X-64456Y23856D02*
Y33244D01*
X-92800Y5000D02*
X-79056D01*
X-3514Y-1280D02*
X4479D01*
X47800Y-29844D02*
Y-15100D01*
Y15100D02*
Y29844D01*
X-3514Y1280D02*
X4479D01*
X-9393Y-19193D02*
X-3514D01*
X-10700Y-20500D02*
X-9393Y-19193D01*
X-3514Y-21752D02*
X6652D01*
X9000Y-24100D01*
Y-32500D02*
Y-24100D01*
Y24100D02*
Y32500D01*
X6652Y21752D02*
X9000Y24100D01*
X-3514Y21752D02*
X6652D01*
X-107745Y-84017D02*
Y-77945D01*
X-104800Y-75000D01*
D46*
X-145300Y80600D02*
X-112100D01*
X-57471Y-71300D02*
X8500D01*
X108700D01*
X-60400Y-68371D02*
X-57471Y-71300D01*
X108700Y-33100D02*
X142500D01*
X146300Y-36900D02*
Y35629D01*
X142500Y-33100D02*
X146300Y-36900D01*
Y-68371D02*
Y-36900D01*
X143371Y-71300D02*
X146300Y-68371D01*
X108700Y-71300D02*
X143371D01*
X-91446Y80146D02*
X-79100Y67800D01*
X-112100Y80146D02*
X-91446D01*
X108700Y32700D02*
X143371D01*
X146300Y35629D01*
Y67100D01*
X108700Y70900D02*
X142500D01*
X146300Y67100D01*
D47*
X-116800Y-84017D02*
Y-61200D01*
Y-86773D02*
Y-84017D01*
Y-61200D02*
X-116700Y-61300D01*
X-106700D01*
X-122027Y-92000D02*
X-116800Y-86773D01*
X-136900Y-92000D02*
X-122027D01*
X-145200Y-83700D02*
X-136900Y-92000D01*
D48*
X135600Y-61700D02*
D03*
Y-41700D02*
D03*
Y-10000D02*
D03*
Y10000D02*
D03*
Y41700D02*
D03*
Y61700D02*
D03*
X-145300Y80600D02*
D03*
Y60600D02*
D03*
D49*
X81900Y9100D02*
D03*
D50*
Y-10900D02*
D03*
D51*
X-93000Y5200D02*
D03*
Y-4800D02*
D03*
Y-38100D02*
D03*
Y-28100D02*
D03*
Y38600D02*
D03*
Y28600D02*
D03*
X-69100Y67800D02*
D03*
D52*
X-93000Y-14800D02*
D03*
Y-48100D02*
D03*
Y18600D02*
D03*
D53*
X-79100Y67800D02*
D03*
D54*
X-145200Y-73700D02*
D03*
X-145300Y8100D02*
D03*
Y-11900D02*
D03*
Y-31900D02*
D03*
Y-41900D02*
D03*
Y-21900D02*
D03*
Y-1900D02*
D03*
Y18100D02*
D03*
Y28100D02*
D03*
Y38100D02*
D03*
D55*
X-145200Y-83700D02*
D03*
X-145300Y-51900D02*
D03*
D56*
X-47800Y-85600D02*
D03*
Y83000D02*
D03*
X128600D02*
D03*
X129900Y-85600D02*
D03*
D57*
X-12100Y-55900D02*
D03*
X-39100Y-56000D02*
D03*
X11193Y-36849D02*
D03*
X13414Y-17387D02*
D03*
X13276Y17206D02*
D03*
X-83346Y7849D02*
D03*
X3400Y37113D02*
D03*
X-3000Y33100D02*
D03*
X-25800Y37600D02*
D03*
X-70386Y-9100D02*
D03*
X-83590Y-18091D02*
D03*
X2800Y13800D02*
D03*
X5100Y12000D02*
D03*
X10100D02*
D03*
X7800Y13800D02*
D03*
X7700Y6700D02*
D03*
X10000Y8500D02*
D03*
X5000D02*
D03*
X2700Y6700D02*
D03*
X2800Y-13800D02*
D03*
X5100Y-12000D02*
D03*
X10100D02*
D03*
X7800Y-13800D02*
D03*
X7900Y-6700D02*
D03*
X10200Y-8500D02*
D03*
X5200D02*
D03*
X2900Y-6700D02*
D03*
X16700Y-22000D02*
D03*
X16800Y20800D02*
D03*
X8500Y-71500D02*
D03*
X-66400Y-38100D02*
D03*
X-26700Y-56000D02*
D03*
X-54200D02*
D03*
X-106700Y-61300D02*
D03*
X-74300Y-15800D02*
D03*
X-79100Y33200D02*
D03*
X-79300Y-34600D02*
D03*
X3363Y-32537D02*
D03*
X-70500Y28700D02*
D03*
X-61600Y-4000D02*
D03*
X-63300Y-9000D02*
D03*
X4500Y-1300D02*
D03*
X47800Y-15100D02*
D03*
Y15100D02*
D03*
X4500Y1300D02*
D03*
X-59850Y55900D02*
D03*
X-59401Y48797D02*
D03*
D58*
X148600Y85500D02*
D03*
X146100Y80500D02*
D03*
X148600Y75500D02*
D03*
X146100Y70500D02*
D03*
X148600Y15500D02*
D03*
X146100Y10500D02*
D03*
X148600Y5500D02*
D03*
X146100Y500D02*
D03*
X148600Y-4500D02*
D03*
X146100Y-9500D02*
D03*
X148600Y-14500D02*
D03*
X146100Y-19500D02*
D03*
X148600Y-24500D02*
D03*
X146100Y-29500D02*
D03*
X148600Y-34500D02*
D03*
X146100Y-39500D02*
D03*
X148600Y-44500D02*
D03*
X146100Y-49500D02*
D03*
X148600Y-54500D02*
D03*
X146100Y-59500D02*
D03*
X148600Y-64500D02*
D03*
X146100Y-69500D02*
D03*
X148600Y-74500D02*
D03*
X146100Y-79500D02*
D03*
X148600Y-84500D02*
D03*
X146100Y-89500D02*
D03*
X143600Y85500D02*
D03*
X141100Y80500D02*
D03*
X143600Y75500D02*
D03*
X141100Y70500D02*
D03*
X143600Y55500D02*
D03*
Y45500D02*
D03*
Y35500D02*
D03*
Y25500D02*
D03*
Y-14500D02*
D03*
Y-24500D02*
D03*
Y-34500D02*
D03*
Y-44500D02*
D03*
Y-54500D02*
D03*
Y-64500D02*
D03*
X141100Y-69500D02*
D03*
X143600Y-74500D02*
D03*
X141100Y-79500D02*
D03*
X143600Y-84500D02*
D03*
X141100Y-89500D02*
D03*
X138600Y85500D02*
D03*
Y75500D02*
D03*
X136100Y70500D02*
D03*
X138600Y35500D02*
D03*
X136100Y30500D02*
D03*
X138600Y25500D02*
D03*
X136100Y20500D02*
D03*
Y-19500D02*
D03*
X138600Y-24500D02*
D03*
X136100Y-29500D02*
D03*
X138600Y-34500D02*
D03*
X136100Y-69500D02*
D03*
X138600Y-74500D02*
D03*
X136100Y-79500D02*
D03*
X138600Y-84500D02*
D03*
X133600Y75500D02*
D03*
X131100Y70500D02*
D03*
X133600Y35500D02*
D03*
X131100Y30500D02*
D03*
X133600Y25500D02*
D03*
X131100Y20500D02*
D03*
Y-19500D02*
D03*
X133600Y-24500D02*
D03*
X131100Y-29500D02*
D03*
X133600Y-34500D02*
D03*
X131100Y-69500D02*
D03*
X133600Y-74500D02*
D03*
X126100Y70500D02*
D03*
X128600Y35500D02*
D03*
X126100Y30500D02*
D03*
X128600Y25500D02*
D03*
X126100Y20500D02*
D03*
Y-9500D02*
D03*
X128600Y-14500D02*
D03*
X126100Y-19500D02*
D03*
X128600Y-24500D02*
D03*
X126100Y-29500D02*
D03*
X128600Y-34500D02*
D03*
X126100Y-69500D02*
D03*
X128600Y-74500D02*
D03*
X123600Y75500D02*
D03*
X121100Y70500D02*
D03*
X123600Y35500D02*
D03*
X121100Y30500D02*
D03*
X123600Y25500D02*
D03*
X121100Y20500D02*
D03*
Y-9500D02*
D03*
X123600Y-14500D02*
D03*
X121100Y-19500D02*
D03*
X123600Y-24500D02*
D03*
X121100Y-29500D02*
D03*
X123600Y-34500D02*
D03*
X121100Y-69500D02*
D03*
X123600Y-74500D02*
D03*
X121100Y-79500D02*
D03*
Y-89500D02*
D03*
X118600Y85500D02*
D03*
X116100Y80500D02*
D03*
X118600Y75500D02*
D03*
X116100Y70500D02*
D03*
X118600Y35500D02*
D03*
X116100Y30500D02*
D03*
X118600Y25500D02*
D03*
X116100Y20500D02*
D03*
Y-9500D02*
D03*
X118600Y-14500D02*
D03*
X116100Y-19500D02*
D03*
X118600Y-24500D02*
D03*
X116100Y-29500D02*
D03*
X118600Y-34500D02*
D03*
X116100Y-69500D02*
D03*
X118600Y-74500D02*
D03*
X116100Y-79500D02*
D03*
X118600Y-84500D02*
D03*
X116100Y-89500D02*
D03*
X113600Y85500D02*
D03*
X111100Y80500D02*
D03*
X113600Y75500D02*
D03*
Y35500D02*
D03*
Y25500D02*
D03*
X111100Y20500D02*
D03*
Y-9500D02*
D03*
X113600Y-14500D02*
D03*
X111100Y-19500D02*
D03*
X113600Y-24500D02*
D03*
Y-34500D02*
D03*
Y-74500D02*
D03*
X111100Y-79500D02*
D03*
X113600Y-84500D02*
D03*
X111100Y-89500D02*
D03*
X108600Y85500D02*
D03*
X106100Y80500D02*
D03*
X108600Y75500D02*
D03*
Y25500D02*
D03*
X106100Y20500D02*
D03*
Y-9500D02*
D03*
X108600Y-14500D02*
D03*
X106100Y-19500D02*
D03*
X108600Y-24500D02*
D03*
X106100Y-79500D02*
D03*
X108600Y-84500D02*
D03*
X106100Y-89500D02*
D03*
X103600Y85500D02*
D03*
X101100Y80500D02*
D03*
X103600Y75500D02*
D03*
X101100Y70500D02*
D03*
X103600Y35500D02*
D03*
X101100Y30500D02*
D03*
X103600Y25500D02*
D03*
X101100Y20500D02*
D03*
Y-9500D02*
D03*
X103600Y-14500D02*
D03*
X101100Y-19500D02*
D03*
X103600Y-24500D02*
D03*
X101100Y-29500D02*
D03*
X103600Y-34500D02*
D03*
X101100Y-69500D02*
D03*
X103600Y-74500D02*
D03*
X101100Y-79500D02*
D03*
X103600Y-84500D02*
D03*
X101100Y-89500D02*
D03*
X98600Y85500D02*
D03*
X96100Y80500D02*
D03*
X98600Y75500D02*
D03*
X96100Y70500D02*
D03*
X98600Y35500D02*
D03*
X96100Y30500D02*
D03*
X98600Y25500D02*
D03*
X96100Y20500D02*
D03*
Y-9500D02*
D03*
X98600Y-14500D02*
D03*
X96100Y-19500D02*
D03*
X98600Y-24500D02*
D03*
X96100Y-29500D02*
D03*
X98600Y-34500D02*
D03*
X96100Y-69500D02*
D03*
X98600Y-74500D02*
D03*
X96100Y-79500D02*
D03*
X98600Y-84500D02*
D03*
X96100Y-89500D02*
D03*
X93600Y85500D02*
D03*
X91100Y80500D02*
D03*
X93600Y75500D02*
D03*
X91100Y70500D02*
D03*
X93600Y35500D02*
D03*
X91100Y30500D02*
D03*
X93600Y25500D02*
D03*
X91100Y20500D02*
D03*
Y-9500D02*
D03*
X93600Y-14500D02*
D03*
X91100Y-19500D02*
D03*
X93600Y-24500D02*
D03*
X91100Y-29500D02*
D03*
X93600Y-34500D02*
D03*
X91100Y-69500D02*
D03*
X93600Y-74500D02*
D03*
X91100Y-79500D02*
D03*
X93600Y-84500D02*
D03*
X91100Y-89500D02*
D03*
X88600Y85500D02*
D03*
X86100Y80500D02*
D03*
X88600Y75500D02*
D03*
X86100Y70500D02*
D03*
X88600Y35500D02*
D03*
X86100Y30500D02*
D03*
X88600Y25500D02*
D03*
X86100Y20500D02*
D03*
X88600Y-14500D02*
D03*
X86100Y-19500D02*
D03*
X88600Y-24500D02*
D03*
X86100Y-29500D02*
D03*
X88600Y-34500D02*
D03*
X86100Y-69500D02*
D03*
X88600Y-74500D02*
D03*
X86100Y-79500D02*
D03*
X88600Y-84500D02*
D03*
X86100Y-89500D02*
D03*
X83600Y85500D02*
D03*
X81100Y80500D02*
D03*
X83600Y75500D02*
D03*
X81100Y70500D02*
D03*
X83600Y35500D02*
D03*
X81100Y30500D02*
D03*
X83600Y25500D02*
D03*
X81100Y20500D02*
D03*
Y-19500D02*
D03*
X83600Y-24500D02*
D03*
X81100Y-29500D02*
D03*
X83600Y-34500D02*
D03*
X81100Y-69500D02*
D03*
X83600Y-74500D02*
D03*
X81100Y-79500D02*
D03*
X83600Y-84500D02*
D03*
X81100Y-89500D02*
D03*
X78600Y85500D02*
D03*
X76100Y80500D02*
D03*
X78600Y75500D02*
D03*
X76100Y70500D02*
D03*
X78600Y35500D02*
D03*
X76100Y30500D02*
D03*
X78600Y25500D02*
D03*
X76100Y-19500D02*
D03*
X78600Y-24500D02*
D03*
X76100Y-29500D02*
D03*
X78600Y-34500D02*
D03*
X76100Y-69500D02*
D03*
X78600Y-74500D02*
D03*
X76100Y-79500D02*
D03*
X78600Y-84500D02*
D03*
X76100Y-89500D02*
D03*
X73600Y85500D02*
D03*
X71100Y80500D02*
D03*
X73600Y75500D02*
D03*
X71100Y70500D02*
D03*
X73600Y35500D02*
D03*
X71100Y30500D02*
D03*
X73600Y25500D02*
D03*
X71100Y20500D02*
D03*
X73600Y-14500D02*
D03*
X71100Y-19500D02*
D03*
X73600Y-24500D02*
D03*
X71100Y-29500D02*
D03*
X73600Y-34500D02*
D03*
X71100Y-69500D02*
D03*
X73600Y-74500D02*
D03*
X71100Y-79500D02*
D03*
X73600Y-84500D02*
D03*
X71100Y-89500D02*
D03*
X68600Y85500D02*
D03*
X66100Y80500D02*
D03*
X68600Y75500D02*
D03*
X66100Y70500D02*
D03*
X68600Y35500D02*
D03*
X66100Y30500D02*
D03*
X68600Y25500D02*
D03*
X66100Y20500D02*
D03*
X68600Y-14500D02*
D03*
X66100Y-19500D02*
D03*
X68600Y-24500D02*
D03*
X66100Y-29500D02*
D03*
X68600Y-34500D02*
D03*
X66100Y-69500D02*
D03*
X68600Y-74500D02*
D03*
X66100Y-79500D02*
D03*
X68600Y-84500D02*
D03*
X66100Y-89500D02*
D03*
X63600Y85500D02*
D03*
X61100Y80500D02*
D03*
X63600Y75500D02*
D03*
X61100Y70500D02*
D03*
X63600Y35500D02*
D03*
X61100Y30500D02*
D03*
X63600Y25500D02*
D03*
X61100Y20500D02*
D03*
X63600Y-14500D02*
D03*
X61100Y-19500D02*
D03*
X63600Y-24500D02*
D03*
X61100Y-29500D02*
D03*
X63600Y-34500D02*
D03*
X61100Y-69500D02*
D03*
X63600Y-74500D02*
D03*
X61100Y-79500D02*
D03*
X63600Y-84500D02*
D03*
X61100Y-89500D02*
D03*
X58600Y85500D02*
D03*
X56100Y80500D02*
D03*
X58600Y75500D02*
D03*
X56100Y70500D02*
D03*
X58600Y35500D02*
D03*
X56100Y30500D02*
D03*
X58600Y25500D02*
D03*
X56100Y20500D02*
D03*
X58600Y-14500D02*
D03*
X56100Y-19500D02*
D03*
X58600Y-24500D02*
D03*
X56100Y-29500D02*
D03*
X58600Y-34500D02*
D03*
X56100Y-69500D02*
D03*
X58600Y-74500D02*
D03*
X56100Y-79500D02*
D03*
X58600Y-84500D02*
D03*
X56100Y-89500D02*
D03*
X53600Y85500D02*
D03*
X51100Y80500D02*
D03*
X53600Y75500D02*
D03*
X51100Y70500D02*
D03*
X53600Y35500D02*
D03*
X51100Y30500D02*
D03*
X53600Y25500D02*
D03*
X51100Y20500D02*
D03*
X53600Y15500D02*
D03*
Y-14500D02*
D03*
X51100Y-19500D02*
D03*
X53600Y-24500D02*
D03*
X51100Y-29500D02*
D03*
X53600Y-34500D02*
D03*
X51100Y-69500D02*
D03*
X53600Y-74500D02*
D03*
X51100Y-79500D02*
D03*
X53600Y-84500D02*
D03*
X51100Y-89500D02*
D03*
X48600Y85500D02*
D03*
X46100Y80500D02*
D03*
X48600Y75500D02*
D03*
X46100Y70500D02*
D03*
Y-69500D02*
D03*
X48600Y-74500D02*
D03*
X46100Y-79500D02*
D03*
X48600Y-84500D02*
D03*
X46100Y-89500D02*
D03*
X43600Y85500D02*
D03*
X41100Y80500D02*
D03*
X43600Y75500D02*
D03*
X41100Y70500D02*
D03*
Y-69500D02*
D03*
X43600Y-74500D02*
D03*
X41100Y-79500D02*
D03*
X43600Y-84500D02*
D03*
X41100Y-89500D02*
D03*
X38600Y85500D02*
D03*
X36100Y80500D02*
D03*
X38600Y75500D02*
D03*
X36100Y70500D02*
D03*
Y-69500D02*
D03*
X38600Y-74500D02*
D03*
X36100Y-79500D02*
D03*
X38600Y-84500D02*
D03*
X36100Y-89500D02*
D03*
X33600Y85500D02*
D03*
X31100Y80500D02*
D03*
X33600Y75500D02*
D03*
X31100Y70500D02*
D03*
Y-69500D02*
D03*
X33600Y-74500D02*
D03*
X31100Y-79500D02*
D03*
X33600Y-84500D02*
D03*
X31100Y-89500D02*
D03*
X28600Y85500D02*
D03*
X26100Y80500D02*
D03*
X28600Y75500D02*
D03*
X26100Y70500D02*
D03*
Y-69500D02*
D03*
X28600Y-74500D02*
D03*
X26100Y-79500D02*
D03*
X28600Y-84500D02*
D03*
X26100Y-89500D02*
D03*
X23600Y85500D02*
D03*
X21100Y80500D02*
D03*
X23600Y75500D02*
D03*
X21100Y70500D02*
D03*
X23600Y-64500D02*
D03*
X21100Y-69500D02*
D03*
X23600Y-74500D02*
D03*
X21100Y-79500D02*
D03*
X23600Y-84500D02*
D03*
X21100Y-89500D02*
D03*
X18600Y85500D02*
D03*
X16100Y80500D02*
D03*
X18600Y75500D02*
D03*
X16100Y70500D02*
D03*
Y60500D02*
D03*
Y50500D02*
D03*
Y-49500D02*
D03*
Y-59500D02*
D03*
X18600Y-64500D02*
D03*
X16100Y-69500D02*
D03*
X18600Y-74500D02*
D03*
X16100Y-79500D02*
D03*
X18600Y-84500D02*
D03*
X16100Y-89500D02*
D03*
X13600Y85500D02*
D03*
X11100Y80500D02*
D03*
X13600Y75500D02*
D03*
X11100Y70500D02*
D03*
Y60500D02*
D03*
X13600Y55500D02*
D03*
X11100Y50500D02*
D03*
X13600Y45500D02*
D03*
Y-44500D02*
D03*
X11100Y-49500D02*
D03*
X13600Y-54500D02*
D03*
X11100Y-59500D02*
D03*
X13600Y-64500D02*
D03*
X11100Y-69500D02*
D03*
X13600Y-74500D02*
D03*
X11100Y-79500D02*
D03*
X13600Y-84500D02*
D03*
X11100Y-89500D02*
D03*
X8600Y85500D02*
D03*
X6100Y80500D02*
D03*
X8600Y75500D02*
D03*
X6100Y70500D02*
D03*
Y60500D02*
D03*
X8600Y55500D02*
D03*
X6100Y50500D02*
D03*
X8600Y45500D02*
D03*
Y-44500D02*
D03*
X6100Y-49500D02*
D03*
X8600Y-54500D02*
D03*
X6100Y-59500D02*
D03*
X8600Y-64500D02*
D03*
X6100Y-69500D02*
D03*
X8600Y-74500D02*
D03*
X6100Y-79500D02*
D03*
X8600Y-84500D02*
D03*
X6100Y-89500D02*
D03*
X3600Y85500D02*
D03*
X1100Y80500D02*
D03*
X3600Y75500D02*
D03*
X1100Y70500D02*
D03*
Y60500D02*
D03*
X3600Y55500D02*
D03*
X1100Y50500D02*
D03*
X3600Y45500D02*
D03*
X1100Y30500D02*
D03*
X3600Y25500D02*
D03*
Y-54500D02*
D03*
X1100Y-59500D02*
D03*
X3600Y-64500D02*
D03*
X1100Y-69500D02*
D03*
X3600Y-74500D02*
D03*
X1100Y-79500D02*
D03*
X3600Y-84500D02*
D03*
X1100Y-89500D02*
D03*
X-1400Y85500D02*
D03*
X-3900Y80500D02*
D03*
X-1400Y75500D02*
D03*
X-3900Y70500D02*
D03*
Y60500D02*
D03*
X-1400Y55500D02*
D03*
X-3900Y50500D02*
D03*
X-1400Y45500D02*
D03*
Y25500D02*
D03*
X-3900Y-29500D02*
D03*
X-1400Y-34500D02*
D03*
Y-54500D02*
D03*
X-3900Y-59500D02*
D03*
X-1400Y-64500D02*
D03*
X-3900Y-69500D02*
D03*
X-1400Y-74500D02*
D03*
X-3900Y-79500D02*
D03*
X-1400Y-84500D02*
D03*
X-3900Y-89500D02*
D03*
X-6400Y85500D02*
D03*
X-8900Y80500D02*
D03*
X-6400Y75500D02*
D03*
X-8900Y70500D02*
D03*
Y60500D02*
D03*
X-6400Y55500D02*
D03*
X-8900Y50500D02*
D03*
X-6400Y45500D02*
D03*
Y25500D02*
D03*
Y-34500D02*
D03*
Y-54500D02*
D03*
X-8900Y-59500D02*
D03*
X-6400Y-64500D02*
D03*
X-8900Y-69500D02*
D03*
X-6400Y-74500D02*
D03*
X-8900Y-79500D02*
D03*
X-6400Y-84500D02*
D03*
X-8900Y-89500D02*
D03*
X-11400Y85500D02*
D03*
X-13900Y80500D02*
D03*
X-11400Y75500D02*
D03*
X-13900Y70500D02*
D03*
Y60500D02*
D03*
X-11400Y55500D02*
D03*
X-13900Y50500D02*
D03*
X-11400Y45500D02*
D03*
X-13900Y40500D02*
D03*
Y-29500D02*
D03*
Y-39500D02*
D03*
X-11400Y-64500D02*
D03*
X-13900Y-69500D02*
D03*
X-11400Y-74500D02*
D03*
X-13900Y-79500D02*
D03*
X-11400Y-84500D02*
D03*
X-13900Y-89500D02*
D03*
X-16400Y85500D02*
D03*
X-18900Y80500D02*
D03*
X-16400Y75500D02*
D03*
X-18900Y70500D02*
D03*
Y60500D02*
D03*
X-16400Y55500D02*
D03*
X-18900Y50500D02*
D03*
X-16400Y45500D02*
D03*
X-18900Y40500D02*
D03*
X-16400Y25500D02*
D03*
X-18900Y20500D02*
D03*
Y500D02*
D03*
Y-9500D02*
D03*
Y-19500D02*
D03*
Y-29500D02*
D03*
Y-39500D02*
D03*
Y-69500D02*
D03*
X-16400Y-74500D02*
D03*
X-18900Y-79500D02*
D03*
X-16400Y-84500D02*
D03*
X-18900Y-89500D02*
D03*
X-21400Y85500D02*
D03*
X-23900Y80500D02*
D03*
X-21400Y75500D02*
D03*
X-23900Y70500D02*
D03*
Y60500D02*
D03*
X-21400Y55500D02*
D03*
X-23900Y50500D02*
D03*
X-21400Y45500D02*
D03*
X-23900Y40500D02*
D03*
X-21400Y25500D02*
D03*
X-23900Y20500D02*
D03*
Y10500D02*
D03*
X-21400Y5500D02*
D03*
X-23900Y500D02*
D03*
X-21400Y-4500D02*
D03*
X-23900Y-9500D02*
D03*
X-21400Y-14500D02*
D03*
X-23900Y-19500D02*
D03*
X-21400Y-24500D02*
D03*
X-23900Y-29500D02*
D03*
X-21400Y-34500D02*
D03*
X-23900Y-39500D02*
D03*
Y-69500D02*
D03*
X-21400Y-74500D02*
D03*
X-23900Y-79500D02*
D03*
X-21400Y-84500D02*
D03*
X-23900Y-89500D02*
D03*
X-26400Y85500D02*
D03*
X-28900Y80500D02*
D03*
X-26400Y75500D02*
D03*
X-28900Y70500D02*
D03*
Y60500D02*
D03*
X-26400Y55500D02*
D03*
X-28900Y50500D02*
D03*
X-26400Y45500D02*
D03*
X-28900Y40500D02*
D03*
X-26400Y25500D02*
D03*
Y15500D02*
D03*
X-28900Y10500D02*
D03*
X-26400Y5500D02*
D03*
X-28900Y500D02*
D03*
X-26400Y-4500D02*
D03*
X-28900Y-9500D02*
D03*
X-26400Y-14500D02*
D03*
X-28900Y-19500D02*
D03*
X-26400Y-24500D02*
D03*
X-28900Y-29500D02*
D03*
X-26400Y-34500D02*
D03*
X-28900Y-39500D02*
D03*
X-26400Y-64500D02*
D03*
X-28900Y-69500D02*
D03*
X-26400Y-74500D02*
D03*
X-28900Y-79500D02*
D03*
X-26400Y-84500D02*
D03*
X-28900Y-89500D02*
D03*
X-31400Y85500D02*
D03*
X-33900Y80500D02*
D03*
X-31400Y75500D02*
D03*
X-33900Y70500D02*
D03*
Y60500D02*
D03*
X-31400Y55500D02*
D03*
X-33900Y50500D02*
D03*
X-31400Y45500D02*
D03*
X-33900Y40500D02*
D03*
X-31400Y25500D02*
D03*
Y15500D02*
D03*
X-33900Y10500D02*
D03*
X-31400Y5500D02*
D03*
X-33900Y500D02*
D03*
X-31400Y-4500D02*
D03*
X-33900Y-9500D02*
D03*
X-31400Y-14500D02*
D03*
X-33900Y-19500D02*
D03*
X-31400Y-24500D02*
D03*
X-33900Y-29500D02*
D03*
X-31400Y-34500D02*
D03*
X-33900Y-39500D02*
D03*
X-31400Y-54500D02*
D03*
Y-64500D02*
D03*
X-33900Y-69500D02*
D03*
X-31400Y-74500D02*
D03*
X-33900Y-79500D02*
D03*
X-31400Y-84500D02*
D03*
X-33900Y-89500D02*
D03*
X-36400Y85500D02*
D03*
X-38900Y80500D02*
D03*
X-36400Y75500D02*
D03*
X-38900Y70500D02*
D03*
Y60500D02*
D03*
X-36400Y55500D02*
D03*
X-38900Y50500D02*
D03*
X-36400Y45500D02*
D03*
X-38900Y40500D02*
D03*
X-36400Y25500D02*
D03*
Y15500D02*
D03*
X-38900Y10500D02*
D03*
X-36400Y5500D02*
D03*
X-38900Y500D02*
D03*
X-36400Y-4500D02*
D03*
X-38900Y-9500D02*
D03*
X-36400Y-14500D02*
D03*
X-38900Y-19500D02*
D03*
X-36400Y-24500D02*
D03*
X-38900Y-29500D02*
D03*
X-36400Y-34500D02*
D03*
X-38900Y-39500D02*
D03*
X-36400Y-54500D02*
D03*
Y-64500D02*
D03*
X-38900Y-69500D02*
D03*
X-36400Y-74500D02*
D03*
X-38900Y-79500D02*
D03*
X-36400Y-84500D02*
D03*
X-38900Y-89500D02*
D03*
X-41400Y75500D02*
D03*
X-43900Y70500D02*
D03*
Y60500D02*
D03*
X-41400Y55500D02*
D03*
X-43900Y50500D02*
D03*
X-41400Y45500D02*
D03*
X-43900Y40500D02*
D03*
X-41400Y25500D02*
D03*
X-43900Y-69500D02*
D03*
X-41400Y-74500D02*
D03*
X-48900Y70500D02*
D03*
Y60500D02*
D03*
X-46400Y55500D02*
D03*
X-48900Y50500D02*
D03*
X-46400Y45500D02*
D03*
X-48900Y40500D02*
D03*
X-46400Y25500D02*
D03*
X-48900Y10500D02*
D03*
X-46400Y5500D02*
D03*
X-48900Y500D02*
D03*
X-46400Y-4500D02*
D03*
X-48900Y-9500D02*
D03*
X-46400Y-14500D02*
D03*
X-48900Y-19500D02*
D03*
X-46400Y-24500D02*
D03*
X-48900Y-29500D02*
D03*
X-46400Y-34500D02*
D03*
X-48900Y-39500D02*
D03*
Y-69500D02*
D03*
X-46400Y-74500D02*
D03*
X-53900Y70500D02*
D03*
Y60500D02*
D03*
X-51400Y55500D02*
D03*
X-53900Y50500D02*
D03*
X-51400Y45500D02*
D03*
X-53900Y40500D02*
D03*
X-51400Y25500D02*
D03*
Y-24500D02*
D03*
X-53900Y-29500D02*
D03*
X-51400Y-34500D02*
D03*
X-53900Y-39500D02*
D03*
Y-69500D02*
D03*
X-51400Y-74500D02*
D03*
X-56400Y85500D02*
D03*
X-58900Y80500D02*
D03*
X-56400Y75500D02*
D03*
X-58900Y70500D02*
D03*
Y60500D02*
D03*
X-56400Y55500D02*
D03*
Y45500D02*
D03*
X-58900Y40500D02*
D03*
X-56400Y25500D02*
D03*
Y-24500D02*
D03*
X-58900Y-29500D02*
D03*
X-56400Y-34500D02*
D03*
X-58900Y-39500D02*
D03*
X-56400Y-54500D02*
D03*
Y-64500D02*
D03*
X-58900Y-69500D02*
D03*
X-56400Y-74500D02*
D03*
X-58900Y-79500D02*
D03*
X-56400Y-84500D02*
D03*
X-58900Y-89500D02*
D03*
X-61400Y85500D02*
D03*
X-63900Y80500D02*
D03*
X-61400Y75500D02*
D03*
X-63900Y70500D02*
D03*
Y60500D02*
D03*
X-61400Y25500D02*
D03*
X-63900Y-39500D02*
D03*
X-61400Y-54500D02*
D03*
Y-64500D02*
D03*
X-63900Y-69500D02*
D03*
X-61400Y-74500D02*
D03*
X-63900Y-79500D02*
D03*
X-61400Y-84500D02*
D03*
X-63900Y-89500D02*
D03*
X-66400Y85500D02*
D03*
X-68900Y80500D02*
D03*
X-66400Y75500D02*
D03*
X-68900Y40500D02*
D03*
Y500D02*
D03*
X-66400Y-54500D02*
D03*
Y-64500D02*
D03*
X-68900Y-69500D02*
D03*
X-66400Y-74500D02*
D03*
X-68900Y-79500D02*
D03*
X-66400Y-84500D02*
D03*
X-68900Y-89500D02*
D03*
X-71400Y85500D02*
D03*
X-73900Y80500D02*
D03*
X-71400Y75500D02*
D03*
X-73900Y70500D02*
D03*
Y60500D02*
D03*
Y40500D02*
D03*
X-71400Y-54500D02*
D03*
Y-64500D02*
D03*
X-73900Y-69500D02*
D03*
X-71400Y-74500D02*
D03*
X-73900Y-79500D02*
D03*
X-71400Y-84500D02*
D03*
X-73900Y-89500D02*
D03*
X-76400Y85500D02*
D03*
X-78900Y80500D02*
D03*
X-76400Y75500D02*
D03*
Y-54500D02*
D03*
Y-64500D02*
D03*
Y-74500D02*
D03*
X-78900Y-79500D02*
D03*
X-76400Y-84500D02*
D03*
X-78900Y-89500D02*
D03*
X-81400Y85500D02*
D03*
X-83900Y80500D02*
D03*
Y60500D02*
D03*
Y50500D02*
D03*
Y40500D02*
D03*
Y-29500D02*
D03*
Y-69500D02*
D03*
Y-79500D02*
D03*
X-81400Y-84500D02*
D03*
X-83900Y-89500D02*
D03*
X-86400Y85500D02*
D03*
X-88900Y70500D02*
D03*
X-86400Y65500D02*
D03*
X-88900Y60500D02*
D03*
X-86400Y55500D02*
D03*
X-88900Y50500D02*
D03*
X-86400Y45500D02*
D03*
Y35500D02*
D03*
X-88900Y500D02*
D03*
X-86400Y-54500D02*
D03*
Y-64500D02*
D03*
X-88900Y-79500D02*
D03*
X-86400Y-84500D02*
D03*
X-88900Y-89500D02*
D03*
X-91400Y85500D02*
D03*
X-93900Y70500D02*
D03*
X-91400Y65500D02*
D03*
X-93900Y60500D02*
D03*
X-91400Y55500D02*
D03*
X-93900Y50500D02*
D03*
X-91400Y45500D02*
D03*
Y-54500D02*
D03*
Y-64500D02*
D03*
X-93900Y-79500D02*
D03*
X-91400Y-84500D02*
D03*
X-93900Y-89500D02*
D03*
X-96400Y85500D02*
D03*
Y75500D02*
D03*
X-98900Y70500D02*
D03*
X-96400Y65500D02*
D03*
X-98900Y60500D02*
D03*
X-96400Y55500D02*
D03*
X-98900Y50500D02*
D03*
X-96400Y45500D02*
D03*
X-98900Y40500D02*
D03*
Y-39500D02*
D03*
Y-49500D02*
D03*
X-96400Y-54500D02*
D03*
Y-64500D02*
D03*
X-98900Y-79500D02*
D03*
X-96400Y-84500D02*
D03*
X-98900Y-89500D02*
D03*
X-101400Y85500D02*
D03*
Y75500D02*
D03*
X-103900Y70500D02*
D03*
X-101400Y65500D02*
D03*
X-103900Y60500D02*
D03*
X-101400Y55500D02*
D03*
X-103900Y50500D02*
D03*
X-101400Y45500D02*
D03*
X-103900Y40500D02*
D03*
X-101400Y35500D02*
D03*
X-103900Y30500D02*
D03*
Y20500D02*
D03*
Y500D02*
D03*
X-101400Y-4500D02*
D03*
X-103900Y-9500D02*
D03*
X-101400Y-14500D02*
D03*
X-103900Y-29500D02*
D03*
Y-39500D02*
D03*
X-101400Y-44500D02*
D03*
X-103900Y-49500D02*
D03*
X-101400Y-54500D02*
D03*
Y-64500D02*
D03*
X-103900Y-69500D02*
D03*
Y-79500D02*
D03*
X-101400Y-84500D02*
D03*
X-103900Y-89500D02*
D03*
X-106400Y85500D02*
D03*
Y75500D02*
D03*
X-108900Y70500D02*
D03*
X-106400Y65500D02*
D03*
Y55500D02*
D03*
X-108900Y50500D02*
D03*
X-106400Y45500D02*
D03*
X-108900Y40500D02*
D03*
X-106400Y35500D02*
D03*
X-108900Y30500D02*
D03*
Y20500D02*
D03*
X-106400Y5500D02*
D03*
X-108900Y500D02*
D03*
X-106400Y-4500D02*
D03*
X-108900Y-9500D02*
D03*
X-106400Y-14500D02*
D03*
X-108900Y-29500D02*
D03*
Y-39500D02*
D03*
X-106400Y-44500D02*
D03*
X-108900Y-49500D02*
D03*
X-106400Y-54500D02*
D03*
Y-64500D02*
D03*
X-108900Y-69500D02*
D03*
X-113900Y70500D02*
D03*
Y50500D02*
D03*
X-111400Y45500D02*
D03*
X-113900Y40500D02*
D03*
X-111400Y35500D02*
D03*
X-113900Y30500D02*
D03*
Y20500D02*
D03*
X-111400Y5500D02*
D03*
X-113900Y500D02*
D03*
X-111400Y-4500D02*
D03*
X-113900Y-9500D02*
D03*
X-111400Y-14500D02*
D03*
X-113900Y-29500D02*
D03*
Y-39500D02*
D03*
X-111400Y-44500D02*
D03*
X-113900Y-49500D02*
D03*
X-111400Y-54500D02*
D03*
X-113900Y-69500D02*
D03*
X-111400Y-74500D02*
D03*
X-118900Y70500D02*
D03*
Y60500D02*
D03*
Y50500D02*
D03*
X-116400Y45500D02*
D03*
X-118900Y40500D02*
D03*
X-116400Y35500D02*
D03*
X-118900Y30500D02*
D03*
Y20500D02*
D03*
X-116400Y5500D02*
D03*
X-118900Y500D02*
D03*
X-116400Y-4500D02*
D03*
X-118900Y-9500D02*
D03*
X-116400Y-14500D02*
D03*
X-118900Y-29500D02*
D03*
Y-39500D02*
D03*
X-116400Y-44500D02*
D03*
X-118900Y-49500D02*
D03*
X-116400Y-54500D02*
D03*
X-121400Y85500D02*
D03*
Y75500D02*
D03*
X-123900Y70500D02*
D03*
X-121400Y65500D02*
D03*
X-123900Y60500D02*
D03*
X-121400Y55500D02*
D03*
X-123900Y50500D02*
D03*
X-121400Y45500D02*
D03*
X-123900Y40500D02*
D03*
X-121400Y35500D02*
D03*
X-123900Y30500D02*
D03*
Y20500D02*
D03*
X-121400Y5500D02*
D03*
X-123900Y500D02*
D03*
X-121400Y-4500D02*
D03*
X-123900Y-9500D02*
D03*
X-121400Y-14500D02*
D03*
X-123900Y-29500D02*
D03*
Y-39500D02*
D03*
X-121400Y-44500D02*
D03*
X-123900Y-49500D02*
D03*
X-121400Y-54500D02*
D03*
X-123900Y-69500D02*
D03*
X-121400Y-74500D02*
D03*
Y-84500D02*
D03*
X-126400Y85500D02*
D03*
Y75500D02*
D03*
X-128900Y70500D02*
D03*
X-126400Y65500D02*
D03*
X-128900Y60500D02*
D03*
X-126400Y55500D02*
D03*
X-128900Y50500D02*
D03*
X-126400Y45500D02*
D03*
X-128900Y40500D02*
D03*
X-126400Y35500D02*
D03*
X-128900Y30500D02*
D03*
Y20500D02*
D03*
X-126400Y-4500D02*
D03*
X-128900Y-9500D02*
D03*
X-126400Y-14500D02*
D03*
X-128900Y-29500D02*
D03*
Y-39500D02*
D03*
X-126400Y-44500D02*
D03*
X-128900Y-49500D02*
D03*
X-126400Y-54500D02*
D03*
X-128900Y-59500D02*
D03*
X-126400Y-64500D02*
D03*
X-128900Y-69500D02*
D03*
X-126400Y-74500D02*
D03*
X-131400Y85500D02*
D03*
Y75500D02*
D03*
X-133900Y70500D02*
D03*
X-131400Y65500D02*
D03*
X-133900Y60500D02*
D03*
X-131400Y55500D02*
D03*
X-133900Y50500D02*
D03*
X-131400Y45500D02*
D03*
X-133900Y40500D02*
D03*
X-131400Y35500D02*
D03*
X-133900Y30500D02*
D03*
Y20500D02*
D03*
X-131400Y5500D02*
D03*
Y-4500D02*
D03*
X-133900Y-9500D02*
D03*
X-131400Y-14500D02*
D03*
Y-34500D02*
D03*
Y-44500D02*
D03*
X-133900Y-49500D02*
D03*
X-131400Y-54500D02*
D03*
X-133900Y-59500D02*
D03*
X-131400Y-64500D02*
D03*
X-133900Y-69500D02*
D03*
X-131400Y-74500D02*
D03*
X-133900Y-79500D02*
D03*
X-131400Y-84500D02*
D03*
X-136400Y85500D02*
D03*
Y75500D02*
D03*
X-138900Y70500D02*
D03*
X-136400Y65500D02*
D03*
X-138900Y60500D02*
D03*
X-136400Y55500D02*
D03*
X-138900Y50500D02*
D03*
X-136400Y45500D02*
D03*
X-138900Y40500D02*
D03*
X-136400Y35500D02*
D03*
X-138900Y30500D02*
D03*
Y20500D02*
D03*
Y10500D02*
D03*
Y500D02*
D03*
X-136400Y-14500D02*
D03*
X-138900Y-29500D02*
D03*
Y-39500D02*
D03*
Y-49500D02*
D03*
X-136400Y-54500D02*
D03*
X-138900Y-59500D02*
D03*
X-136400Y-64500D02*
D03*
X-138900Y-69500D02*
D03*
X-136400Y-74500D02*
D03*
X-138900Y-79500D02*
D03*
X-136400Y-84500D02*
D03*
X-143900Y70500D02*
D03*
Y50500D02*
D03*
X-141400Y45500D02*
D03*
Y15500D02*
D03*
Y5500D02*
D03*
Y-4500D02*
D03*
Y-14500D02*
D03*
Y-24500D02*
D03*
Y-34500D02*
D03*
Y-44500D02*
D03*
X-143900Y-59500D02*
D03*
X-141400Y-64500D02*
D03*
X-143900Y-89500D02*
D03*
X-148900Y70500D02*
D03*
Y50500D02*
D03*
X-146400Y45500D02*
D03*
X-148900Y-59500D02*
D03*
X-146400Y-64500D02*
D03*
X-148900Y-69500D02*
D03*
Y-89500D02*
D03*
X-153900Y80500D02*
D03*
Y70500D02*
D03*
Y60500D02*
D03*
Y50500D02*
D03*
X-151400Y45500D02*
D03*
X-153900Y40500D02*
D03*
X-151400Y35500D02*
D03*
X-153900Y30500D02*
D03*
X-151400Y25500D02*
D03*
X-153900Y20500D02*
D03*
X-151400Y15500D02*
D03*
X-153900Y10500D02*
D03*
X-151400Y5500D02*
D03*
X-153900Y500D02*
D03*
X-151400Y-4500D02*
D03*
X-153900Y-9500D02*
D03*
X-151400Y-14500D02*
D03*
X-153900Y-19500D02*
D03*
X-151400Y-24500D02*
D03*
X-153900Y-29500D02*
D03*
X-151400Y-34500D02*
D03*
X-153900Y-39500D02*
D03*
X-151400Y-44500D02*
D03*
X-153900Y-49500D02*
D03*
X-151400Y-54500D02*
D03*
X-153900Y-59500D02*
D03*
X-151400Y-64500D02*
D03*
X-153900Y-69500D02*
D03*
X-151400Y-74500D02*
D03*
X-153900Y-79500D02*
D03*
X-151400Y-84500D02*
D03*
X-153900Y-89500D02*
D03*
X-156400Y85500D02*
D03*
X-158900Y80500D02*
D03*
X-156400Y75500D02*
D03*
X-158900Y70500D02*
D03*
X-156400Y65500D02*
D03*
X-158900Y60500D02*
D03*
X-156400Y55500D02*
D03*
X-158900Y50500D02*
D03*
X-156400Y45500D02*
D03*
X-158900Y40500D02*
D03*
X-156400Y35500D02*
D03*
X-158900Y30500D02*
D03*
X-156400Y25500D02*
D03*
X-158900Y20500D02*
D03*
X-156400Y15500D02*
D03*
X-158900Y10500D02*
D03*
X-156400Y5500D02*
D03*
X-158900Y500D02*
D03*
X-156400Y-4500D02*
D03*
X-158900Y-9500D02*
D03*
X-156400Y-14500D02*
D03*
X-158900Y-19500D02*
D03*
X-156400Y-24500D02*
D03*
X-158900Y-29500D02*
D03*
X-156400Y-34500D02*
D03*
X-158900Y-39500D02*
D03*
X-156400Y-44500D02*
D03*
X-158900Y-49500D02*
D03*
X-156400Y-54500D02*
D03*
X-158900Y-59500D02*
D03*
X-156400Y-64500D02*
D03*
X-158900Y-69500D02*
D03*
X-156400Y-74500D02*
D03*
X-158900Y-79500D02*
D03*
X-156400Y-84500D02*
D03*
X-158900Y-89500D02*
D03*
X138600Y15500D02*
D03*
X136100Y500D02*
D03*
X133600Y15500D02*
D03*
X131100Y500D02*
D03*
X128600Y15500D02*
D03*
X126100Y10500D02*
D03*
X128600Y5500D02*
D03*
X126100Y500D02*
D03*
X123600Y15500D02*
D03*
X121100Y10500D02*
D03*
X123600Y5500D02*
D03*
X121100Y500D02*
D03*
X118600Y15500D02*
D03*
X116100Y10500D02*
D03*
X118600Y5500D02*
D03*
X116100Y500D02*
D03*
X113600Y15500D02*
D03*
X111100Y10500D02*
D03*
X113600Y5500D02*
D03*
X111100Y500D02*
D03*
X108600Y15500D02*
D03*
X106100Y10500D02*
D03*
X108600Y5500D02*
D03*
X106100Y500D02*
D03*
X103600Y15500D02*
D03*
X101100Y10500D02*
D03*
X103600Y5500D02*
D03*
X101100Y500D02*
D03*
X98600Y15500D02*
D03*
X96100Y10500D02*
D03*
X98600Y5500D02*
D03*
X96100Y500D02*
D03*
X93600Y15500D02*
D03*
X91100Y10500D02*
D03*
X93600Y5500D02*
D03*
X91100Y500D02*
D03*
X88600Y15500D02*
D03*
Y5500D02*
D03*
X86100Y500D02*
D03*
X83600Y15500D02*
D03*
X81100Y500D02*
D03*
X78600Y15500D02*
D03*
X76100Y500D02*
D03*
X73600Y15500D02*
D03*
X71100Y10500D02*
D03*
X73600Y5500D02*
D03*
X71100Y500D02*
D03*
X73600Y-4500D02*
D03*
X68600Y15500D02*
D03*
X66100Y10500D02*
D03*
X68600Y5500D02*
D03*
X66100Y500D02*
D03*
X68600Y-4500D02*
D03*
X63600Y15500D02*
D03*
X61100Y10500D02*
D03*
X63600Y5500D02*
D03*
X61100Y500D02*
D03*
X63600Y-4500D02*
D03*
X58600Y5500D02*
D03*
X56100Y500D02*
D03*
X58600Y-4500D02*
D03*
X53600Y5500D02*
D03*
X51100Y500D02*
D03*
X53600Y-4500D02*
D03*
X46100Y500D02*
D03*
X136100Y-54500D02*
D03*
X131100D02*
D03*
X126100D02*
D03*
X128600Y-59500D02*
D03*
X126100Y-64500D02*
D03*
X121100Y-54500D02*
D03*
X123600Y-59500D02*
D03*
X121100Y-64500D02*
D03*
X116100Y-54500D02*
D03*
X118600Y-59500D02*
D03*
X116100Y-64500D02*
D03*
X111100Y-54500D02*
D03*
X113600Y-59500D02*
D03*
X106100Y-54500D02*
D03*
X101100D02*
D03*
X103600Y-59500D02*
D03*
X101100Y-64500D02*
D03*
X96100Y-54500D02*
D03*
X98600Y-59500D02*
D03*
X96100Y-64500D02*
D03*
X91100Y-54500D02*
D03*
X93600Y-59500D02*
D03*
X91100Y-64500D02*
D03*
X86100Y-54500D02*
D03*
X88600Y-59500D02*
D03*
X86100Y-64500D02*
D03*
X81100Y-54500D02*
D03*
X83600Y-59500D02*
D03*
X81100Y-64500D02*
D03*
X76100Y-54500D02*
D03*
X78600Y-59500D02*
D03*
X76100Y-64500D02*
D03*
X71100Y-54500D02*
D03*
X73600Y-59500D02*
D03*
X71100Y-64500D02*
D03*
X66100Y-54500D02*
D03*
X68600Y-59500D02*
D03*
X66100Y-64500D02*
D03*
X61100Y-54500D02*
D03*
X63600Y-59500D02*
D03*
X61100Y-64500D02*
D03*
X56100Y-54500D02*
D03*
X58600Y-59500D02*
D03*
X56100Y-64500D02*
D03*
X51100Y-54500D02*
D03*
X53600Y-59500D02*
D03*
X51100Y-64500D02*
D03*
X46100Y-54500D02*
D03*
X48600Y-59500D02*
D03*
X46100Y-64500D02*
D03*
X41100Y-54500D02*
D03*
X43600Y-59500D02*
D03*
X41100Y-64500D02*
D03*
X36100Y-54500D02*
D03*
X38600Y-59500D02*
D03*
X36100Y-64500D02*
D03*
X33600Y-49500D02*
D03*
X31100Y-54500D02*
D03*
X33600Y-59500D02*
D03*
X31100Y-64500D02*
D03*
X26100Y-14500D02*
D03*
X28600Y-19500D02*
D03*
X26100Y-24500D02*
D03*
X28600Y-29500D02*
D03*
X26100Y-34500D02*
D03*
X28600Y-39500D02*
D03*
X26100Y-44500D02*
D03*
X28600Y-49500D02*
D03*
X26100Y-54500D02*
D03*
X28600Y-59500D02*
D03*
X21100Y-14500D02*
D03*
X23600Y-19500D02*
D03*
X21100Y-24500D02*
D03*
X23600Y-29500D02*
D03*
X21100Y-34500D02*
D03*
X23600Y-39500D02*
D03*
X21100Y-44500D02*
D03*
X23600Y-49500D02*
D03*
X21100Y-54500D02*
D03*
X23600Y-59500D02*
D03*
X16100Y-14500D02*
D03*
X136100Y-49500D02*
D03*
X131100D02*
D03*
X126100Y-39500D02*
D03*
X128600Y-44500D02*
D03*
X126100Y-49500D02*
D03*
X121100Y-39500D02*
D03*
X123600Y-44500D02*
D03*
X121100Y-49500D02*
D03*
X116100Y-39500D02*
D03*
X118600Y-44500D02*
D03*
X116100Y-49500D02*
D03*
X113600Y-44500D02*
D03*
X111100Y-49500D02*
D03*
X106100D02*
D03*
X101100Y-39500D02*
D03*
X103600Y-44500D02*
D03*
X101100Y-49500D02*
D03*
X96100Y-39500D02*
D03*
X98600Y-44500D02*
D03*
X96100Y-49500D02*
D03*
X91100Y-39500D02*
D03*
X93600Y-44500D02*
D03*
X91100Y-49500D02*
D03*
X86100Y-39500D02*
D03*
X88600Y-44500D02*
D03*
X86100Y-49500D02*
D03*
X81100Y-39500D02*
D03*
X83600Y-44500D02*
D03*
X81100Y-49500D02*
D03*
X76100Y-39500D02*
D03*
X78600Y-44500D02*
D03*
X76100Y-49500D02*
D03*
X71100Y-39500D02*
D03*
X73600Y-44500D02*
D03*
X71100Y-49500D02*
D03*
X66100Y-39500D02*
D03*
X68600Y-44500D02*
D03*
X66100Y-49500D02*
D03*
X61100Y-39500D02*
D03*
X63600Y-44500D02*
D03*
X61100Y-49500D02*
D03*
X56100Y-39500D02*
D03*
X58600Y-44500D02*
D03*
X56100Y-49500D02*
D03*
X51100Y-39500D02*
D03*
X53600Y-44500D02*
D03*
X51100Y-49500D02*
D03*
X46100Y-39500D02*
D03*
X48600Y-44500D02*
D03*
X46100Y-49500D02*
D03*
X41100Y-9500D02*
D03*
Y-19500D02*
D03*
Y-39500D02*
D03*
X43600Y-44500D02*
D03*
X41100Y-49500D02*
D03*
X36100Y-9500D02*
D03*
X38600Y-14500D02*
D03*
X36100Y-19500D02*
D03*
X38600Y-24500D02*
D03*
X36100Y-29500D02*
D03*
X38600Y-34500D02*
D03*
X36100Y-39500D02*
D03*
X38600Y-44500D02*
D03*
X31100Y-9500D02*
D03*
X33600Y-14500D02*
D03*
Y-24500D02*
D03*
Y-34500D02*
D03*
Y-44500D02*
D03*
X26100Y-9500D02*
D03*
X128600Y45500D02*
D03*
X126100Y40500D02*
D03*
X123600Y45500D02*
D03*
X121100Y40500D02*
D03*
X118600Y45500D02*
D03*
X116100Y40500D02*
D03*
X113600Y45500D02*
D03*
X103600D02*
D03*
X101100Y40500D02*
D03*
X98600Y45500D02*
D03*
X96100Y40500D02*
D03*
X93600Y45500D02*
D03*
X91100Y40500D02*
D03*
X88600Y45500D02*
D03*
X86100Y40500D02*
D03*
X83600Y45500D02*
D03*
X81100Y40500D02*
D03*
X78600Y45500D02*
D03*
X76100Y40500D02*
D03*
X73600Y45500D02*
D03*
X71100Y40500D02*
D03*
X68600Y45500D02*
D03*
X66100Y40500D02*
D03*
X63600Y45500D02*
D03*
X61100Y40500D02*
D03*
X58600Y45500D02*
D03*
X56100Y40500D02*
D03*
X53600Y45500D02*
D03*
X51100Y40500D02*
D03*
X48600Y45500D02*
D03*
X46100Y40500D02*
D03*
X43600Y45500D02*
D03*
X41100Y40500D02*
D03*
Y20500D02*
D03*
Y10500D02*
D03*
X38600Y45500D02*
D03*
X36100Y40500D02*
D03*
X38600Y35500D02*
D03*
X36100Y30500D02*
D03*
X38600Y25500D02*
D03*
X36100Y20500D02*
D03*
X38600Y15500D02*
D03*
X36100Y10500D02*
D03*
X33600Y35500D02*
D03*
Y25500D02*
D03*
Y15500D02*
D03*
X31100Y10500D02*
D03*
X26100D02*
D03*
X136100Y55500D02*
D03*
X131100D02*
D03*
X128600Y60500D02*
D03*
X126100Y55500D02*
D03*
X123600Y60500D02*
D03*
X121100Y55500D02*
D03*
X118600Y60500D02*
D03*
X116100Y55500D02*
D03*
X113600Y60500D02*
D03*
X111100Y55500D02*
D03*
X106100D02*
D03*
X103600Y60500D02*
D03*
X101100Y55500D02*
D03*
X98600Y60500D02*
D03*
X96100Y55500D02*
D03*
X93600Y60500D02*
D03*
X91100Y55500D02*
D03*
X88600Y60500D02*
D03*
X86100Y55500D02*
D03*
X83600Y60500D02*
D03*
X81100Y55500D02*
D03*
X78600Y60500D02*
D03*
X76100Y55500D02*
D03*
X73600Y60500D02*
D03*
X71100Y55500D02*
D03*
X68600Y60500D02*
D03*
X66100Y55500D02*
D03*
X63600Y60500D02*
D03*
X61100Y55500D02*
D03*
X58600Y60500D02*
D03*
X56100Y55500D02*
D03*
X53600Y60500D02*
D03*
X51100Y55500D02*
D03*
X48600Y60500D02*
D03*
X46100Y55500D02*
D03*
X43600Y60500D02*
D03*
X41100Y55500D02*
D03*
X38600Y60500D02*
D03*
X36100Y55500D02*
D03*
X33600Y60500D02*
D03*
X31100Y55500D02*
D03*
X33600Y50500D02*
D03*
X28600Y60500D02*
D03*
X26100Y55500D02*
D03*
X28600Y50500D02*
D03*
X26100Y45500D02*
D03*
X28600Y40500D02*
D03*
X26100Y35500D02*
D03*
X28600Y30500D02*
D03*
X26100Y25500D02*
D03*
X28600Y20500D02*
D03*
X26100Y15500D02*
D03*
X23600Y60500D02*
D03*
X21100Y55500D02*
D03*
X23600Y50500D02*
D03*
X21100Y45500D02*
D03*
X23600Y40500D02*
D03*
X21100Y35500D02*
D03*
X23600Y30500D02*
D03*
X21100Y25500D02*
D03*
X23600Y20500D02*
D03*
X21100Y15500D02*
D03*
X-72800Y26100D02*
D03*
X-74800Y-35700D02*
D03*
X-60000Y-25600D02*
D03*
X-41900Y16500D02*
D03*
X-47000Y12800D02*
D03*
X47500Y34600D02*
D03*
X-102100Y7400D02*
D03*
X-97900Y-30400D02*
D03*
X-138800Y-21700D02*
D03*
X-131000Y-24000D02*
D03*
X-135700Y11400D02*
D03*
X-127300Y9000D02*
D03*
X-83900Y24800D02*
D03*
X48000Y-34700D02*
D03*
X53900Y12300D02*
D03*
X143100Y63800D02*
D03*
X75300Y22300D02*
D03*
X71500Y24500D02*
D03*
X-79100Y-43200D02*
D03*
M02*
