G04*
G04 #@! TF.GenerationSoftware,Altium Limited,Altium Designer,20.2.7 (254)*
G04*
G04 Layer_Color=8388736*
%FSLAX25Y25*%
%MOIN*%
G70*
G04*
G04 #@! TF.SameCoordinates,ECD674B8-324E-4609-97E5-6B7B15D5A4BB*
G04*
G04*
G04 #@! TF.FilePolarity,Negative*
G04*
G01*
G75*
%ADD28R,0.04540X0.03950*%
%ADD29R,0.03950X0.04540*%
%ADD30R,0.06300X0.05800*%
%ADD31R,0.03950X0.03950*%
%ADD32O,0.08871X0.02769*%
%ADD33R,0.13792X0.10249*%
%ADD34R,0.04737X0.10249*%
%ADD35R,0.07099X0.13202*%
%ADD36R,0.10642X0.08674*%
%ADD37R,0.09800X0.09800*%
%ADD38C,0.09800*%
%ADD39C,0.07099*%
%ADD40R,0.07099X0.07099*%
%ADD41R,0.07099X0.07099*%
%ADD42C,0.06706*%
%ADD43R,0.06706X0.06706*%
%ADD44C,0.14600*%
D28*
X13400Y-25756D02*
D03*
Y-20244D02*
D03*
X13270Y20279D02*
D03*
Y25790D02*
D03*
X50000Y-10756D02*
D03*
Y-5244D02*
D03*
Y5244D02*
D03*
Y10756D02*
D03*
X-64456Y33244D02*
D03*
Y38756D02*
D03*
X-64456Y-28944D02*
D03*
Y-34456D02*
D03*
X-70856D02*
D03*
Y-28944D02*
D03*
X-98494Y-69513D02*
D03*
Y-75025D02*
D03*
X-91953Y-69513D02*
D03*
Y-75025D02*
D03*
D29*
X20512Y39500D02*
D03*
X15000D02*
D03*
X14512Y32500D02*
D03*
X9000D02*
D03*
X42244Y30000D02*
D03*
X47756D02*
D03*
X42244Y-30000D02*
D03*
X47756D02*
D03*
X15038Y-39537D02*
D03*
X20550D02*
D03*
X14550Y-32537D02*
D03*
X9038D02*
D03*
X-73644Y-9700D02*
D03*
X-79156D02*
D03*
X-73544Y-1500D02*
D03*
X-79056D02*
D03*
X-73544Y5000D02*
D03*
X-79056D02*
D03*
D30*
X108700Y-71300D02*
D03*
Y-62300D02*
D03*
Y-33000D02*
D03*
Y-42000D02*
D03*
Y70900D02*
D03*
Y61900D02*
D03*
Y32700D02*
D03*
Y41700D02*
D03*
D31*
X-63201Y55800D02*
D03*
X-69500D02*
D03*
X-63251Y48797D02*
D03*
X-69550D02*
D03*
X-16451Y-55900D02*
D03*
X-22750D02*
D03*
X-43401D02*
D03*
X-49700D02*
D03*
D32*
X-3514Y-21752D02*
D03*
Y-19193D02*
D03*
Y-16634D02*
D03*
Y-14075D02*
D03*
Y-11516D02*
D03*
Y-8957D02*
D03*
Y-6398D02*
D03*
Y-3839D02*
D03*
Y-1280D02*
D03*
Y1280D02*
D03*
Y3839D02*
D03*
Y6398D02*
D03*
Y8957D02*
D03*
Y11516D02*
D03*
Y14075D02*
D03*
Y16634D02*
D03*
Y19193D02*
D03*
Y21752D02*
D03*
X-55286Y-21752D02*
D03*
Y-19193D02*
D03*
Y-16634D02*
D03*
Y-14075D02*
D03*
Y-11516D02*
D03*
Y-8957D02*
D03*
Y-6398D02*
D03*
Y-3839D02*
D03*
Y-1280D02*
D03*
Y1280D02*
D03*
Y3839D02*
D03*
Y6398D02*
D03*
Y8957D02*
D03*
Y11516D02*
D03*
Y14075D02*
D03*
Y16634D02*
D03*
Y19193D02*
D03*
Y21752D02*
D03*
D33*
X-116800Y-61183D02*
D03*
D34*
X-107745Y-84017D02*
D03*
X-116800D02*
D03*
X-125855D02*
D03*
D35*
X-112100Y60854D02*
D03*
Y80146D02*
D03*
D36*
X135600Y-61700D02*
D03*
Y-41700D02*
D03*
Y-10000D02*
D03*
Y10000D02*
D03*
Y41700D02*
D03*
Y61700D02*
D03*
X-145300Y80600D02*
D03*
Y60600D02*
D03*
D37*
X81900Y9100D02*
D03*
D38*
Y-10900D02*
D03*
D39*
X-93000Y5200D02*
D03*
Y-4800D02*
D03*
Y-38100D02*
D03*
Y-28100D02*
D03*
Y38600D02*
D03*
Y28600D02*
D03*
X-69100Y67800D02*
D03*
D40*
X-93000Y-14800D02*
D03*
Y-48100D02*
D03*
Y18600D02*
D03*
D41*
X-79100Y67800D02*
D03*
D42*
X-145200Y-73700D02*
D03*
X-145300Y8100D02*
D03*
Y-11900D02*
D03*
Y-31900D02*
D03*
Y-41900D02*
D03*
Y-21900D02*
D03*
Y-1900D02*
D03*
Y18100D02*
D03*
Y28100D02*
D03*
Y38100D02*
D03*
D43*
X-145200Y-83700D02*
D03*
X-145300Y-51900D02*
D03*
D44*
X-47800Y-85600D02*
D03*
Y83000D02*
D03*
X128600D02*
D03*
X129900Y-85600D02*
D03*
M02*
