G04*
G04 #@! TF.GenerationSoftware,Altium Limited,Altium Designer,20.2.7 (254)*
G04*
G04 Layer_Physical_Order=4*
G04 Layer_Color=16711680*
%FSLAX25Y25*%
%MOIN*%
G70*
G04*
G04 #@! TF.SameCoordinates,ECD674B8-324E-4609-97E5-6B7B15D5A4BB*
G04*
G04*
G04 #@! TF.FilePolarity,Positive*
G04*
G01*
G75*
%ADD16C,0.01000*%
%ADD20R,0.03740X0.03150*%
%ADD21R,0.03150X0.03740*%
%ADD45C,0.01500*%
%ADD46C,0.05000*%
%ADD48R,0.09843X0.07874*%
%ADD49R,0.09000X0.09000*%
%ADD50C,0.09000*%
%ADD51C,0.06299*%
%ADD52R,0.06299X0.06299*%
%ADD53R,0.06299X0.06299*%
%ADD54C,0.05906*%
%ADD55R,0.05906X0.05906*%
%ADD56C,0.13800*%
%ADD57C,0.01772*%
%ADD58C,0.01772*%
G36*
X152775Y-93975D02*
X-160975D01*
Y91575D01*
X152775D01*
Y-93975D01*
D02*
G37*
%LPC*%
G36*
X-139579Y85337D02*
X-151021D01*
Y75863D01*
X-139579D01*
Y85337D01*
D02*
G37*
G36*
X128600Y90737D02*
X127091Y90589D01*
X125639Y90148D01*
X124301Y89433D01*
X123129Y88471D01*
X122167Y87299D01*
X121452Y85961D01*
X121011Y84509D01*
X120863Y83000D01*
X121011Y81490D01*
X121452Y80039D01*
X122167Y78701D01*
X123129Y77529D01*
X124301Y76567D01*
X125639Y75852D01*
X127091Y75411D01*
X128600Y75263D01*
X130110Y75411D01*
X131561Y75852D01*
X132899Y76567D01*
X134071Y77529D01*
X135033Y78701D01*
X135748Y80039D01*
X136189Y81490D01*
X136337Y83000D01*
X136189Y84509D01*
X135748Y85961D01*
X135033Y87299D01*
X134071Y88471D01*
X132899Y89433D01*
X131561Y90148D01*
X130110Y90589D01*
X128600Y90737D01*
D02*
G37*
G36*
X-47800D02*
X-49310Y90589D01*
X-50761Y90148D01*
X-52099Y89433D01*
X-53271Y88471D01*
X-54233Y87299D01*
X-54948Y85961D01*
X-55389Y84509D01*
X-55537Y83000D01*
X-55389Y81490D01*
X-54948Y80039D01*
X-54233Y78701D01*
X-53271Y77529D01*
X-52099Y76567D01*
X-50761Y75852D01*
X-49310Y75411D01*
X-47800Y75263D01*
X-46290Y75411D01*
X-44839Y75852D01*
X-43501Y76567D01*
X-42329Y77529D01*
X-41367Y78701D01*
X-40652Y80039D01*
X-40211Y81490D01*
X-40063Y83000D01*
X-40211Y84509D01*
X-40652Y85961D01*
X-41367Y87299D01*
X-42329Y88471D01*
X-43501Y89433D01*
X-44839Y90148D01*
X-46290Y90589D01*
X-47800Y90737D01*
D02*
G37*
G36*
X-139379Y65537D02*
X-144300D01*
Y61600D01*
X-139379D01*
Y65537D01*
D02*
G37*
G36*
X-146300D02*
X-151221D01*
Y61600D01*
X-146300D01*
Y65537D01*
D02*
G37*
G36*
X-139379Y59600D02*
X-144300D01*
Y55663D01*
X-139379D01*
Y59600D01*
D02*
G37*
G36*
X-146300D02*
X-151221D01*
Y55663D01*
X-146300D01*
Y59600D01*
D02*
G37*
G36*
X-61220Y58670D02*
X-65969D01*
Y53330D01*
X-61220D01*
Y54220D01*
X-60720Y54453D01*
X-60508Y54312D01*
X-59850Y54181D01*
X-59193Y54312D01*
X-58635Y54685D01*
X-58262Y55242D01*
X-58131Y55900D01*
X-58262Y56558D01*
X-58635Y57115D01*
X-59193Y57488D01*
X-59850Y57619D01*
X-60508Y57488D01*
X-60720Y57347D01*
X-61220Y57580D01*
Y58670D01*
D02*
G37*
G36*
X-61270Y51567D02*
X-66020D01*
Y46227D01*
X-61270D01*
Y47471D01*
X-60452D01*
X-60059Y47209D01*
X-59401Y47078D01*
X-58743Y47209D01*
X-58185Y47581D01*
X-57813Y48139D01*
X-57682Y48797D01*
X-57813Y49454D01*
X-58185Y50012D01*
X-58743Y50385D01*
X-59401Y50516D01*
X-60059Y50385D01*
X-60452Y50122D01*
X-61270D01*
Y51567D01*
D02*
G37*
G36*
X-75150Y71750D02*
X-83050D01*
Y63850D01*
X-82328D01*
Y49400D01*
Y33959D01*
X-82428Y33200D01*
X-82328Y32441D01*
Y22584D01*
X-88516D01*
X-89016Y22584D01*
X-89016Y23001D01*
D01*
Y23020D01*
X-89016D01*
Y23223D01*
X-89016Y23223D01*
X-89016D01*
Y38600D01*
X-89152Y39631D01*
X-89550Y40592D01*
X-90183Y41417D01*
X-91008Y42050D01*
X-91969Y42448D01*
X-93000Y42584D01*
X-94031Y42448D01*
X-94992Y42050D01*
X-95817Y41417D01*
X-96450Y40592D01*
X-96848Y39631D01*
X-96984Y38600D01*
X-96848Y37569D01*
X-96678Y37157D01*
X-99818Y34018D01*
X-100160Y33505D01*
X-100280Y32900D01*
Y5250D01*
Y-22400D01*
X-100160Y-23005D01*
X-99818Y-23517D01*
X-96678Y-26658D01*
X-96848Y-27069D01*
X-96984Y-28100D01*
X-96848Y-29131D01*
X-96450Y-30092D01*
X-95817Y-30917D01*
X-94992Y-31550D01*
X-94031Y-31948D01*
X-93000Y-32084D01*
X-91969Y-31948D01*
X-91008Y-31550D01*
X-90183Y-30917D01*
X-89550Y-30092D01*
X-89152Y-29131D01*
X-89016Y-28100D01*
X-89152Y-27069D01*
X-89550Y-26108D01*
X-90183Y-25283D01*
X-91008Y-24650D01*
X-91969Y-24252D01*
X-93000Y-24116D01*
X-94031Y-24252D01*
X-94442Y-24422D01*
X-97120Y-21745D01*
Y-19179D01*
X-96950Y-18750D01*
X-89050D01*
Y-16380D01*
X-87980D01*
Y-46520D01*
X-89050D01*
Y-44150D01*
X-96950D01*
Y-52050D01*
X-89050D01*
Y-49680D01*
X-86794D01*
X-86674Y-49560D01*
X-74700Y-49529D01*
X434D01*
X1296Y-49415D01*
X1766Y-49220D01*
X2099Y-49082D01*
X2788Y-48554D01*
X5717Y-45625D01*
X6246Y-44935D01*
X6578Y-44133D01*
X6692Y-43271D01*
Y-32537D01*
X6578Y-31675D01*
X6246Y-30872D01*
X5717Y-30183D01*
X5028Y-29654D01*
X4225Y-29322D01*
X3363Y-29208D01*
X2502Y-29322D01*
X1699Y-29654D01*
X1010Y-30183D01*
X481Y-30872D01*
X148Y-31675D01*
X35Y-32537D01*
Y-41892D01*
X-944Y-42871D01*
X-73321D01*
X-75671Y-40521D01*
Y-17513D01*
X-75172Y-17245D01*
X-74958Y-17388D01*
X-74300Y-17519D01*
X-73642Y-17388D01*
X-73249Y-17126D01*
X-71800D01*
X-71293Y-17025D01*
X-70863Y-16737D01*
X-69449Y-15323D01*
X-69161Y-14893D01*
X-69060Y-14386D01*
Y-10151D01*
X-68798Y-9758D01*
X-68667Y-9100D01*
X-68798Y-8442D01*
X-69170Y-7885D01*
X-69728Y-7512D01*
X-70386Y-7381D01*
X-71044Y-7512D01*
X-71601Y-7885D01*
X-71974Y-8442D01*
X-72105Y-9100D01*
X-71974Y-9758D01*
X-71711Y-10151D01*
Y-13837D01*
X-72349Y-14475D01*
X-73249D01*
X-73642Y-14212D01*
X-74300Y-14081D01*
X-74958Y-14212D01*
X-75172Y-14355D01*
X-75671Y-14087D01*
Y29871D01*
X-72275D01*
X-72039Y29430D01*
X-72088Y29358D01*
X-72219Y28700D01*
X-72088Y28042D01*
X-71715Y27485D01*
X-71158Y27112D01*
X-70694Y27020D01*
X-62925Y19251D01*
Y-2949D01*
X-63188Y-3342D01*
X-63319Y-4000D01*
X-63188Y-4658D01*
X-62815Y-5215D01*
X-62258Y-5588D01*
X-61600Y-5719D01*
X-60942Y-5588D01*
X-60385Y-5215D01*
X-60012Y-4658D01*
X-59881Y-4000D01*
X-60012Y-3342D01*
X-60274Y-2949D01*
Y19800D01*
X-60375Y20307D01*
X-60663Y20737D01*
X-68820Y28894D01*
X-68912Y29358D01*
X-68961Y29430D01*
X-68725Y29871D01*
X-3100D01*
X-2238Y29985D01*
X-1436Y30318D01*
X-746Y30846D01*
X-218Y31536D01*
X115Y32339D01*
X228Y33200D01*
X115Y34062D01*
X-218Y34864D01*
X-746Y35554D01*
X-1436Y36083D01*
X-2238Y36415D01*
X-3100Y36529D01*
X-75671D01*
Y47316D01*
X-71531D01*
Y46227D01*
X-66782D01*
Y51567D01*
X-71531D01*
Y50477D01*
X-75671D01*
Y63850D01*
X-75150D01*
Y71750D01*
D02*
G37*
G36*
X-144300Y41955D02*
Y39100D01*
X-141445D01*
X-141449Y39132D01*
X-141847Y40093D01*
X-142481Y40919D01*
X-143307Y41553D01*
X-144268Y41951D01*
X-144300Y41955D01*
D02*
G37*
G36*
X-146300D02*
X-146332Y41951D01*
X-147293Y41553D01*
X-148119Y40919D01*
X-148753Y40093D01*
X-149151Y39132D01*
X-149155Y39100D01*
X-146300D01*
Y41955D01*
D02*
G37*
G36*
X-141445Y37100D02*
X-144300D01*
Y34245D01*
X-144268Y34249D01*
X-143307Y34647D01*
X-142481Y35281D01*
X-141847Y36107D01*
X-141449Y37068D01*
X-141445Y37100D01*
D02*
G37*
G36*
X-146300D02*
X-149155D01*
X-149151Y37068D01*
X-148753Y36107D01*
X-148119Y35281D01*
X-147293Y34647D01*
X-146332Y34249D01*
X-146300Y34245D01*
Y37100D01*
D02*
G37*
G36*
X-144300Y31955D02*
Y29100D01*
X-141445D01*
X-141449Y29132D01*
X-141847Y30093D01*
X-142481Y30919D01*
X-143307Y31553D01*
X-144268Y31951D01*
X-144300Y31955D01*
D02*
G37*
G36*
X-146300D02*
X-146332Y31951D01*
X-147293Y31553D01*
X-148119Y30919D01*
X-148753Y30093D01*
X-149151Y29132D01*
X-149155Y29100D01*
X-146300D01*
Y31955D01*
D02*
G37*
G36*
X-141445Y27100D02*
X-144300D01*
Y24245D01*
X-144268Y24249D01*
X-143307Y24647D01*
X-142481Y25281D01*
X-141847Y26107D01*
X-141449Y27068D01*
X-141445Y27100D01*
D02*
G37*
G36*
X-146300D02*
X-149155D01*
X-149151Y27068D01*
X-148753Y26107D01*
X-148119Y25281D01*
X-147293Y24647D01*
X-146332Y24249D01*
X-146300Y24245D01*
Y27100D01*
D02*
G37*
G36*
X-69100Y71784D02*
X-70131Y71648D01*
X-71092Y71250D01*
X-71917Y70617D01*
X-72550Y69792D01*
X-72948Y68831D01*
X-73084Y67800D01*
X-72948Y66769D01*
X-72550Y65808D01*
X-71917Y64983D01*
X-71092Y64350D01*
X-70680Y64180D01*
Y58670D01*
X-71481D01*
Y53330D01*
X-66732D01*
Y58670D01*
X-67520D01*
Y64180D01*
X-67108Y64350D01*
X-66283Y64983D01*
X-65650Y65808D01*
X-65480Y66220D01*
X25959D01*
X26166Y65720D01*
X18323Y57877D01*
X18146Y57612D01*
X18084Y57300D01*
X18084Y57300D01*
X18084Y24525D01*
X17676Y24143D01*
X17584Y24116D01*
X-12700Y24116D01*
X-12700Y24116D01*
X-13012Y24054D01*
X-13277Y23877D01*
X-15977Y21177D01*
X-16154Y20912D01*
X-16216Y20600D01*
X-16216Y20600D01*
X-16216Y-21400D01*
X-16154Y-21712D01*
X-15977Y-21977D01*
X-15977Y-21977D01*
X-14077Y-23877D01*
X-14077Y-23877D01*
X-13812Y-24054D01*
X-13500Y-24116D01*
X-13500Y-24116D01*
X11500Y-24116D01*
X18093Y-24116D01*
X18093Y-57306D01*
X18093Y-57306D01*
X18155Y-57618D01*
X18332Y-57883D01*
X18332Y-57883D01*
X26632Y-66183D01*
X26897Y-66360D01*
X27209Y-66422D01*
X27209Y-66422D01*
X129879Y-66422D01*
Y-66437D01*
X141321D01*
Y-65624D01*
X141325Y-65606D01*
X141325Y-52206D01*
X141263Y-51894D01*
X141171Y-51756D01*
X141263Y-51619D01*
X141325Y-51306D01*
X141325Y-37506D01*
X141321Y-37489D01*
Y-36963D01*
X141108D01*
X141086Y-36930D01*
X140821Y-36753D01*
X140509Y-36691D01*
X47047D01*
X45025Y-34668D01*
X45025Y-10806D01*
X44963Y-10494D01*
X44786Y-10230D01*
X44786Y-10230D01*
X43734Y-9178D01*
X43925Y-8716D01*
X75500D01*
X75812Y-8653D01*
X76077Y-8477D01*
X76077Y-8477D01*
X76687Y-7866D01*
X77096Y-8126D01*
X76542Y-9464D01*
X76484Y-9900D01*
X80900D01*
Y-5484D01*
X80464Y-5542D01*
X79126Y-6096D01*
X78866Y-5687D01*
X79738Y-4816D01*
X129281D01*
X129679Y-5063D01*
X129679Y-5316D01*
Y-9000D01*
X135600D01*
X141521D01*
Y-5316D01*
X141521Y-5063D01*
X141919Y-4816D01*
X142700D01*
X143012Y-4753D01*
X143277Y-4577D01*
X143454Y-4312D01*
X143516Y-4000D01*
Y15681D01*
X147818Y19983D01*
X148160Y20495D01*
X148280Y21100D01*
Y64639D01*
X148160Y65244D01*
X147818Y65757D01*
X144657Y68918D01*
X144144Y69260D01*
X143539Y69380D01*
X-65480D01*
X-65650Y69792D01*
X-66283Y70617D01*
X-67108Y71250D01*
X-68069Y71648D01*
X-69100Y71784D01*
D02*
G37*
G36*
X-145300Y21885D02*
X-146280Y21756D01*
X-147193Y21378D01*
X-147977Y20776D01*
X-148578Y19993D01*
X-148956Y19080D01*
X-149085Y18100D01*
X-148956Y17120D01*
X-148578Y16207D01*
X-147977Y15424D01*
X-147193Y14822D01*
X-146280Y14444D01*
X-145300Y14315D01*
X-144320Y14444D01*
X-143407Y14822D01*
X-142623Y15424D01*
X-142022Y16207D01*
X-141644Y17120D01*
X-141515Y18100D01*
X-141644Y19080D01*
X-142022Y19993D01*
X-142623Y20776D01*
X-143407Y21378D01*
X-144320Y21756D01*
X-145300Y21885D01*
D02*
G37*
G36*
Y11885D02*
X-146280Y11756D01*
X-147193Y11378D01*
X-147977Y10776D01*
X-148578Y9993D01*
X-148956Y9080D01*
X-149085Y8100D01*
X-148956Y7120D01*
X-148578Y6207D01*
X-147977Y5424D01*
X-147193Y4822D01*
X-146280Y4444D01*
X-145300Y4315D01*
X-144320Y4444D01*
X-143407Y4822D01*
X-142623Y5424D01*
X-142022Y6207D01*
X-141644Y7120D01*
X-141515Y8100D01*
X-141644Y9080D01*
X-142022Y9993D01*
X-142623Y10776D01*
X-143407Y11378D01*
X-144320Y11756D01*
X-145300Y11885D01*
D02*
G37*
G36*
Y1885D02*
X-146280Y1756D01*
X-147193Y1378D01*
X-147977Y777D01*
X-148578Y-7D01*
X-148956Y-920D01*
X-149085Y-1900D01*
X-148956Y-2880D01*
X-148578Y-3793D01*
X-147977Y-4577D01*
X-147193Y-5178D01*
X-146280Y-5556D01*
X-145300Y-5685D01*
X-144320Y-5556D01*
X-143407Y-5178D01*
X-142623Y-4577D01*
X-142022Y-3793D01*
X-141644Y-2880D01*
X-141515Y-1900D01*
X-141644Y-920D01*
X-142022Y-7D01*
X-142623Y777D01*
X-143407Y1378D01*
X-144320Y1756D01*
X-145300Y1885D01*
D02*
G37*
G36*
X82900Y-5484D02*
Y-9900D01*
X87316D01*
X87258Y-9464D01*
X86704Y-8126D01*
X85823Y-6977D01*
X84674Y-6096D01*
X83336Y-5542D01*
X82900Y-5484D01*
D02*
G37*
G36*
X141521Y-11000D02*
X136600D01*
Y-14937D01*
X141521D01*
Y-11000D01*
D02*
G37*
G36*
X134600D02*
X129679D01*
Y-14937D01*
X134600D01*
Y-11000D01*
D02*
G37*
G36*
X-145300Y-8115D02*
X-146280Y-8244D01*
X-147193Y-8622D01*
X-147977Y-9223D01*
X-148578Y-10007D01*
X-148956Y-10920D01*
X-149085Y-11900D01*
X-148956Y-12880D01*
X-148578Y-13793D01*
X-147977Y-14577D01*
X-147193Y-15178D01*
X-146280Y-15556D01*
X-145300Y-15685D01*
X-144320Y-15556D01*
X-143407Y-15178D01*
X-142623Y-14577D01*
X-142022Y-13793D01*
X-141644Y-12880D01*
X-141515Y-11900D01*
X-141644Y-10920D01*
X-142022Y-10007D01*
X-142623Y-9223D01*
X-143407Y-8622D01*
X-144320Y-8244D01*
X-145300Y-8115D01*
D02*
G37*
G36*
X87316Y-11900D02*
X82900D01*
Y-16316D01*
X83336Y-16258D01*
X84674Y-15704D01*
X85823Y-14823D01*
X86704Y-13674D01*
X87258Y-12336D01*
X87316Y-11900D01*
D02*
G37*
G36*
X80900D02*
X76484D01*
X76542Y-12336D01*
X77096Y-13674D01*
X77977Y-14823D01*
X79126Y-15704D01*
X80464Y-16258D01*
X80900Y-16316D01*
Y-11900D01*
D02*
G37*
G36*
X47800Y-13381D02*
X47142Y-13512D01*
X46585Y-13885D01*
X46212Y-14442D01*
X46081Y-15100D01*
X46212Y-15758D01*
X46585Y-16315D01*
X47142Y-16688D01*
X47800Y-16819D01*
X48458Y-16688D01*
X49015Y-16315D01*
X49388Y-15758D01*
X49519Y-15100D01*
X49388Y-14442D01*
X49015Y-13885D01*
X48458Y-13512D01*
X47800Y-13381D01*
D02*
G37*
G36*
X-145300Y-18115D02*
X-146280Y-18244D01*
X-147193Y-18622D01*
X-147977Y-19223D01*
X-148578Y-20007D01*
X-148956Y-20920D01*
X-149085Y-21900D01*
X-148956Y-22880D01*
X-148578Y-23793D01*
X-147977Y-24577D01*
X-147193Y-25178D01*
X-146280Y-25556D01*
X-145300Y-25685D01*
X-144320Y-25556D01*
X-143407Y-25178D01*
X-142623Y-24577D01*
X-142022Y-23793D01*
X-141644Y-22880D01*
X-141515Y-21900D01*
X-141644Y-20920D01*
X-142022Y-20007D01*
X-142623Y-19223D01*
X-143407Y-18622D01*
X-144320Y-18244D01*
X-145300Y-18115D01*
D02*
G37*
G36*
Y-28115D02*
X-146280Y-28244D01*
X-147193Y-28622D01*
X-147977Y-29223D01*
X-148578Y-30007D01*
X-148956Y-30920D01*
X-149085Y-31900D01*
X-148956Y-32880D01*
X-148578Y-33793D01*
X-147977Y-34576D01*
X-147193Y-35178D01*
X-146280Y-35556D01*
X-145300Y-35685D01*
X-144320Y-35556D01*
X-143407Y-35178D01*
X-142623Y-34576D01*
X-142022Y-33793D01*
X-141644Y-32880D01*
X-141515Y-31900D01*
X-141644Y-30920D01*
X-142022Y-30007D01*
X-142623Y-29223D01*
X-143407Y-28622D01*
X-144320Y-28244D01*
X-145300Y-28115D01*
D02*
G37*
G36*
X-63300Y-7281D02*
X-63958Y-7412D01*
X-64515Y-7785D01*
X-64888Y-8342D01*
X-65019Y-9000D01*
X-64888Y-9658D01*
X-64626Y-10051D01*
Y-34251D01*
X-66844Y-36469D01*
X-67058Y-36512D01*
X-67615Y-36885D01*
X-67988Y-37442D01*
X-68119Y-38100D01*
X-67988Y-38758D01*
X-67615Y-39315D01*
X-67058Y-39688D01*
X-66400Y-39819D01*
X-65742Y-39688D01*
X-65185Y-39315D01*
X-64812Y-38758D01*
X-64681Y-38100D01*
X-64688Y-38063D01*
X-62363Y-35737D01*
X-62075Y-35307D01*
X-61975Y-34800D01*
Y-10051D01*
X-61712Y-9658D01*
X-61581Y-9000D01*
X-61712Y-8342D01*
X-62085Y-7785D01*
X-62642Y-7412D01*
X-63300Y-7281D01*
D02*
G37*
G36*
X-93000Y-34116D02*
X-94031Y-34252D01*
X-94992Y-34650D01*
X-95817Y-35283D01*
X-96450Y-36108D01*
X-96848Y-37069D01*
X-96984Y-38100D01*
X-96848Y-39131D01*
X-96450Y-40092D01*
X-95817Y-40917D01*
X-94992Y-41550D01*
X-94031Y-41948D01*
X-93000Y-42084D01*
X-91969Y-41948D01*
X-91008Y-41550D01*
X-90183Y-40917D01*
X-89550Y-40092D01*
X-89152Y-39131D01*
X-89016Y-38100D01*
X-89152Y-37069D01*
X-89550Y-36108D01*
X-90183Y-35283D01*
X-91008Y-34650D01*
X-91969Y-34252D01*
X-93000Y-34116D01*
D02*
G37*
G36*
X-145300Y-38115D02*
X-146280Y-38244D01*
X-147193Y-38622D01*
X-147977Y-39224D01*
X-148578Y-40007D01*
X-148956Y-40920D01*
X-149085Y-41900D01*
X-148956Y-42880D01*
X-148578Y-43793D01*
X-147977Y-44576D01*
X-147193Y-45178D01*
X-146280Y-45556D01*
X-145300Y-45685D01*
X-144320Y-45556D01*
X-143407Y-45178D01*
X-142623Y-44576D01*
X-142022Y-43793D01*
X-141644Y-42880D01*
X-141515Y-41900D01*
X-141644Y-40920D01*
X-142022Y-40007D01*
X-142623Y-39224D01*
X-143407Y-38622D01*
X-144320Y-38244D01*
X-145300Y-38115D01*
D02*
G37*
G36*
X-20231Y-53569D02*
X-25571D01*
Y-54126D01*
X-26034Y-54407D01*
X-26071Y-54406D01*
X-26700Y-54281D01*
X-27358Y-54412D01*
X-27915Y-54785D01*
X-28288Y-55342D01*
X-28419Y-56000D01*
X-28288Y-56658D01*
X-27915Y-57215D01*
X-27358Y-57588D01*
X-26700Y-57719D01*
X-26071Y-57594D01*
X-25984Y-57592D01*
X-25571Y-57849D01*
Y-58319D01*
X-20231D01*
Y-53569D01*
D02*
G37*
G36*
X-47080D02*
X-52421D01*
Y-54619D01*
X-53233D01*
X-53542Y-54412D01*
X-54200Y-54281D01*
X-54858Y-54412D01*
X-55415Y-54785D01*
X-55788Y-55342D01*
X-55919Y-56000D01*
X-55788Y-56658D01*
X-55415Y-57215D01*
X-54858Y-57588D01*
X-54200Y-57719D01*
X-53542Y-57588D01*
X-53066Y-57270D01*
X-52421D01*
Y-58319D01*
X-47080D01*
Y-53569D01*
D02*
G37*
G36*
X-141547Y-48147D02*
X-149053D01*
Y-55653D01*
X-141547D01*
Y-48147D01*
D02*
G37*
G36*
X-13931Y-53569D02*
X-19271D01*
Y-58319D01*
X-13931D01*
Y-57281D01*
X-13067D01*
X-12758Y-57488D01*
X-12100Y-57619D01*
X-11442Y-57488D01*
X-10885Y-57115D01*
X-10512Y-56558D01*
X-10381Y-55900D01*
X-10512Y-55242D01*
X-10885Y-54685D01*
X-11442Y-54312D01*
X-12100Y-54181D01*
X-12758Y-54312D01*
X-13234Y-54630D01*
X-13931D01*
Y-53569D01*
D02*
G37*
G36*
X-40680D02*
X-46020D01*
Y-58319D01*
X-40680D01*
Y-57381D01*
X-40067D01*
X-39758Y-57588D01*
X-39100Y-57719D01*
X-38442Y-57588D01*
X-37885Y-57215D01*
X-37512Y-56658D01*
X-37381Y-56000D01*
X-37512Y-55342D01*
X-37885Y-54785D01*
X-38442Y-54412D01*
X-39100Y-54281D01*
X-39758Y-54412D01*
X-40180Y-54694D01*
X-40680Y-54566D01*
Y-53569D01*
D02*
G37*
G36*
X-13931Y-59081D02*
X-19271D01*
Y-59876D01*
X-20231D01*
Y-59081D01*
X-25571D01*
Y-59876D01*
X-40680D01*
Y-59081D01*
X-46020D01*
Y-59876D01*
X-47080D01*
Y-59081D01*
X-52421D01*
Y-59876D01*
X-105797D01*
X-106042Y-59712D01*
X-106700Y-59581D01*
X-107358Y-59712D01*
X-107915Y-60085D01*
X-108288Y-60642D01*
X-108419Y-61300D01*
X-108288Y-61958D01*
X-107915Y-62515D01*
X-107358Y-62888D01*
X-106700Y-63019D01*
X-106588Y-62997D01*
X-106389Y-63036D01*
X-52421D01*
Y-63831D01*
X-47080D01*
Y-63036D01*
X-46020D01*
Y-63831D01*
X-40680D01*
Y-63036D01*
X-25571D01*
Y-63831D01*
X-20231D01*
Y-63036D01*
X-19271D01*
Y-63831D01*
X-13931D01*
Y-59081D01*
D02*
G37*
G36*
X-144200Y-69845D02*
Y-72700D01*
X-141345D01*
X-141349Y-72668D01*
X-141747Y-71707D01*
X-142381Y-70881D01*
X-143207Y-70247D01*
X-144168Y-69849D01*
X-144200Y-69845D01*
D02*
G37*
G36*
X-146200D02*
X-146232Y-69849D01*
X-147193Y-70247D01*
X-148019Y-70881D01*
X-148653Y-71707D01*
X-149051Y-72668D01*
X-149055Y-72700D01*
X-146200D01*
Y-69845D01*
D02*
G37*
G36*
X-141345Y-74700D02*
X-144200D01*
Y-77555D01*
X-144168Y-77551D01*
X-143207Y-77153D01*
X-142381Y-76519D01*
X-141747Y-75693D01*
X-141349Y-74732D01*
X-141345Y-74700D01*
D02*
G37*
G36*
X-146200D02*
X-149055D01*
X-149051Y-74732D01*
X-148653Y-75693D01*
X-148019Y-76519D01*
X-147193Y-77153D01*
X-146232Y-77551D01*
X-146200Y-77555D01*
Y-74700D01*
D02*
G37*
G36*
X-141447Y-79947D02*
X-148953D01*
Y-87453D01*
X-141447D01*
Y-79947D01*
D02*
G37*
G36*
X129900Y-77863D02*
X128391Y-78011D01*
X126939Y-78452D01*
X125601Y-79167D01*
X124429Y-80129D01*
X123467Y-81301D01*
X122752Y-82639D01*
X122311Y-84091D01*
X122163Y-85600D01*
X122311Y-87110D01*
X122752Y-88561D01*
X123467Y-89899D01*
X124429Y-91071D01*
X125601Y-92033D01*
X126939Y-92748D01*
X128391Y-93189D01*
X129900Y-93337D01*
X131410Y-93189D01*
X132861Y-92748D01*
X134199Y-92033D01*
X135371Y-91071D01*
X136333Y-89899D01*
X137048Y-88561D01*
X137489Y-87110D01*
X137637Y-85600D01*
X137489Y-84091D01*
X137048Y-82639D01*
X136333Y-81301D01*
X135371Y-80129D01*
X134199Y-79167D01*
X132861Y-78452D01*
X131410Y-78011D01*
X129900Y-77863D01*
D02*
G37*
G36*
X-47800D02*
X-49310Y-78011D01*
X-50761Y-78452D01*
X-52099Y-79167D01*
X-53271Y-80129D01*
X-54233Y-81301D01*
X-54948Y-82639D01*
X-55389Y-84091D01*
X-55537Y-85600D01*
X-55389Y-87110D01*
X-54948Y-88561D01*
X-54233Y-89899D01*
X-53271Y-91071D01*
X-52099Y-92033D01*
X-50761Y-92748D01*
X-49310Y-93189D01*
X-47800Y-93337D01*
X-46290Y-93189D01*
X-44839Y-92748D01*
X-43501Y-92033D01*
X-42329Y-91071D01*
X-41367Y-89899D01*
X-40652Y-88561D01*
X-40211Y-87110D01*
X-40063Y-85600D01*
X-40211Y-84091D01*
X-40652Y-82639D01*
X-41367Y-81301D01*
X-42329Y-80129D01*
X-43501Y-79167D01*
X-44839Y-78452D01*
X-46290Y-78011D01*
X-47800Y-77863D01*
D02*
G37*
%LPD*%
G36*
X-87980Y11345D02*
Y-13220D01*
X-89050D01*
Y-10850D01*
X-96950D01*
X-97120Y-10421D01*
Y-6482D01*
X-96620Y-6382D01*
X-96450Y-6792D01*
X-95817Y-7617D01*
X-94992Y-8250D01*
X-94031Y-8648D01*
X-93000Y-8784D01*
X-91969Y-8648D01*
X-91008Y-8250D01*
X-90183Y-7617D01*
X-89550Y-6792D01*
X-89152Y-5831D01*
X-89016Y-4800D01*
X-89152Y-3769D01*
X-89550Y-2808D01*
X-90183Y-1983D01*
X-91008Y-1350D01*
X-91969Y-952D01*
X-93000Y-816D01*
X-94031Y-952D01*
X-94992Y-1350D01*
X-95817Y-1983D01*
X-96450Y-2808D01*
X-96620Y-3218D01*
X-97120Y-3118D01*
Y3620D01*
X-96620D01*
X-96450Y3208D01*
X-95817Y2383D01*
X-94992Y1750D01*
X-94031Y1352D01*
X-93000Y1216D01*
X-91969Y1352D01*
X-91008Y1750D01*
X-90183Y2383D01*
X-89550Y3208D01*
X-89152Y4169D01*
X-89016Y5200D01*
X-89152Y6231D01*
X-89550Y7192D01*
X-90183Y8017D01*
X-91008Y8650D01*
X-91969Y9048D01*
X-93000Y9184D01*
X-94031Y9048D01*
X-94992Y8650D01*
X-95817Y8017D01*
X-96450Y7192D01*
X-96620Y6780D01*
X-97120D01*
Y14221D01*
X-96950Y14650D01*
X-91285D01*
X-87980Y11345D01*
D02*
G37*
G36*
X-82328Y-19877D02*
Y-41900D01*
X-82215Y-42761D01*
X-81883Y-43564D01*
X-81354Y-44254D01*
X-81014Y-44514D01*
X-80754Y-44854D01*
X-77054Y-48554D01*
X-76840Y-48717D01*
X-77010Y-49218D01*
X-85508D01*
X-85699Y-48755D01*
X-85282Y-48339D01*
X-84940Y-47826D01*
X-84820Y-47221D01*
Y-19899D01*
X-84320Y-19632D01*
X-84248Y-19680D01*
X-83590Y-19810D01*
X-82932Y-19680D01*
X-82828Y-19610D01*
X-82328Y-19877D01*
D02*
G37*
G36*
X145120Y63985D02*
Y21755D01*
X142281Y18916D01*
X62500D01*
X62500Y18916D01*
X62188Y18854D01*
X61923Y18677D01*
X51862Y8616D01*
X43823D01*
X43631Y9078D01*
X44777Y10223D01*
X44777Y10223D01*
X44954Y10488D01*
X45016Y10800D01*
X45016Y10800D01*
X45016Y34662D01*
X47038Y36684D01*
X140500D01*
X140812Y36746D01*
X141077Y36923D01*
X141103Y36963D01*
X141321D01*
Y46437D01*
X141316D01*
X141316Y51300D01*
X141254Y51612D01*
X141161Y51750D01*
X141254Y51888D01*
X141316Y52200D01*
X141316Y56963D01*
X141321D01*
Y66220D01*
X142885D01*
X145120Y63985D01*
D02*
G37*
G36*
X140500Y52200D02*
X38600Y52200D01*
X31100Y44700D01*
Y18100D01*
X23500Y10500D01*
X3400Y10500D01*
X865Y13035D01*
Y15100D01*
X14600D01*
X18900Y19400D01*
X18900Y57300D01*
X27200Y65600D01*
X140500Y65600D01*
X140500Y52200D01*
D02*
G37*
G36*
X140500Y37500D02*
X46700D01*
X44200Y35000D01*
X44200Y10800D01*
X38800Y5400D01*
X1000Y5400D01*
Y7400D01*
X3254Y9654D01*
X23554D01*
X23605Y9705D01*
X23812Y9746D01*
X24077Y9923D01*
X24077Y9923D01*
X31677Y17523D01*
X31854Y17788D01*
X31916Y18100D01*
X31916Y18100D01*
Y44362D01*
X38853Y51300D01*
X140500Y51300D01*
X140500Y37500D01*
D02*
G37*
G36*
X17646Y23300D02*
X18000Y22946D01*
X18000Y19654D01*
X14262Y15916D01*
X865D01*
X786Y15900D01*
X-8100Y15900D01*
X-8100Y4600D01*
X921D01*
X1000Y4584D01*
X38800Y4584D01*
X38879Y4600D01*
X39100D01*
X39215Y4715D01*
X39377Y4823D01*
X39377Y4823D01*
X42354Y7800D01*
X52200D01*
X62500Y18100D01*
X142700D01*
Y-4000D01*
X79400D01*
X75500Y-7900D01*
X42600D01*
X39400Y-4700D01*
X39192D01*
X39121Y-4653D01*
X38809Y-4591D01*
X38809Y-4591D01*
X2944Y-4591D01*
X2865Y-4606D01*
X2785D01*
X2505Y-4662D01*
X1009D01*
X818Y-4700D01*
X-8100D01*
Y-15900D01*
X763D01*
X874Y-15922D01*
X14222D01*
X18093Y-19793D01*
Y-23300D01*
X11500Y-23300D01*
X-13500Y-23300D01*
X-15400Y-21400D01*
X-15400Y20600D01*
X-12700Y23300D01*
X17646Y23300D01*
D02*
G37*
G36*
X44209Y-10806D02*
X44209Y-35006D01*
X46709Y-37506D01*
X140509D01*
X140509Y-51306D01*
X38863Y-51306D01*
X31925Y-44368D01*
Y-18106D01*
X31925Y-18106D01*
X31863Y-17794D01*
X31792Y-17688D01*
X31686Y-17530D01*
X31686Y-17530D01*
X24086Y-9930D01*
X24086Y-9930D01*
X23821Y-9753D01*
X23509Y-9691D01*
X23509Y-9691D01*
X3409Y-9691D01*
X3409Y-9691D01*
X3312Y-9710D01*
X1009Y-7406D01*
Y-5478D01*
X2586D01*
X2944Y-5406D01*
X38809Y-5406D01*
X44209Y-10806D01*
D02*
G37*
G36*
X23509Y-10506D02*
X31109Y-18106D01*
Y-44706D01*
X38609Y-52206D01*
X140509Y-52206D01*
X140509Y-65606D01*
X27209Y-65606D01*
X18909Y-57306D01*
X18909Y-19406D01*
X14609Y-15106D01*
X874D01*
Y-13041D01*
X3409Y-10506D01*
X23509Y-10506D01*
D02*
G37*
%LPC*%
G36*
X47800Y16819D02*
X47142Y16688D01*
X46585Y16315D01*
X46212Y15758D01*
X46081Y15100D01*
X46212Y14442D01*
X46585Y13885D01*
X47142Y13512D01*
X47800Y13381D01*
X48458Y13512D01*
X49015Y13885D01*
X49388Y14442D01*
X49519Y15100D01*
X49388Y15758D01*
X49015Y16315D01*
X48458Y16688D01*
X47800Y16819D01*
D02*
G37*
G36*
X4500Y3019D02*
X3842Y2888D01*
X3285Y2515D01*
X2912Y1958D01*
X2781Y1300D01*
X2912Y642D01*
X3085Y383D01*
X3249Y0D01*
X3085Y-383D01*
X2912Y-642D01*
X2781Y-1300D01*
X2912Y-1958D01*
X3285Y-2515D01*
X3842Y-2888D01*
X4500Y-3019D01*
X5158Y-2888D01*
X5715Y-2515D01*
X6088Y-1958D01*
X6219Y-1300D01*
X6088Y-642D01*
X5915Y-383D01*
X5751Y0D01*
X5915Y383D01*
X6088Y642D01*
X6219Y1300D01*
X6088Y1958D01*
X5715Y2515D01*
X5158Y2888D01*
X4500Y3019D01*
D02*
G37*
%LPD*%
D16*
X-12156Y-55956D02*
X-12100Y-55900D01*
X-16550Y-55956D02*
X-12156D01*
X-39156Y-56056D02*
X-39100Y-56000D01*
X-43550Y-56056D02*
X-39156D01*
X8500Y-39600D02*
X11251Y-36849D01*
X11193D02*
X11251D01*
X13414Y-17387D02*
Y-17224D01*
X13786Y-16852D01*
X-10014D02*
X13786D01*
X13800Y16700D02*
X14306Y17206D01*
X13276D02*
X14306D01*
X-83468Y7727D02*
X-83346Y7849D01*
X-83468Y-17969D02*
Y7727D01*
X-83590Y-18091D02*
X-83468Y-17969D01*
X3400Y37113D02*
Y37427D01*
X3227Y37600D02*
X3400Y37427D01*
X-25800Y37600D02*
X3227D01*
X-11114Y-15752D02*
Y-5052D01*
Y-15752D02*
X-10014Y-16852D01*
X-11114Y-5052D02*
X-10214Y-4152D01*
X2586D01*
X2686Y-4052D01*
X2600Y4000D02*
X2700Y3900D01*
X-10200Y4000D02*
X2600D01*
X-11100Y4900D02*
X-10200Y4000D01*
X-11100Y15600D02*
X-10000Y16700D01*
X-11100Y4900D02*
Y15600D01*
X-10000Y16700D02*
X13800D01*
X8500Y-71500D02*
Y-39600D01*
X-66600Y-38100D02*
X-63300Y-34800D01*
X-79000Y49400D02*
X-78497Y48897D01*
X-63645D02*
X-63545Y48797D01*
X-59401D01*
X-63994Y55900D02*
X-59850D01*
X-26700Y-56000D02*
X-26644Y-55944D01*
X-22250D01*
X-54144D02*
X-49750D01*
X-54200Y-56000D02*
X-54144Y-55944D01*
X-74300Y-15800D02*
X-71800D01*
X-70386Y-14386D02*
Y-9100D01*
X-71800Y-15800D02*
X-70386Y-14386D01*
X-61600Y-4000D02*
Y19800D01*
X-70500Y28700D02*
X-61600Y19800D01*
X-63300Y-34800D02*
Y-9000D01*
X81586Y9414D02*
X81900Y9100D01*
X81686Y8886D02*
X81900Y9100D01*
D20*
X-49750Y-61456D02*
D03*
Y-55944D02*
D03*
X-16601Y-61456D02*
D03*
Y-55944D02*
D03*
X-22901Y-61456D02*
D03*
Y-55944D02*
D03*
X-43350Y-61456D02*
D03*
Y-55944D02*
D03*
D21*
X-69106Y56000D02*
D03*
X-63595D02*
D03*
X-69157Y48897D02*
D03*
X-63645D02*
D03*
D45*
X-69100Y67800D02*
X143539D01*
X146700Y21100D02*
Y64639D01*
X143539Y67800D02*
X146700Y64639D01*
X140021Y14421D02*
X146700Y21100D01*
X135600Y10000D02*
X136584D01*
X140021Y13437D01*
Y14421D01*
X-78497Y48897D02*
X-69157D01*
X-69100Y56006D02*
Y67800D01*
X-69106Y56000D02*
X-69100Y56006D01*
X-22901Y-61456D02*
X-16601D01*
X-43350D02*
X-22901D01*
X-49750D02*
X-43350D01*
X-106389D02*
X-49750D01*
X-106544Y-61300D02*
X-106389Y-61456D01*
X-106700Y-61300D02*
X-106544D01*
X-86400Y-47221D02*
Y-14800D01*
Y12000D01*
X-93000Y-14800D02*
X-86400D01*
X-87279Y-48100D02*
X-86400Y-47221D01*
X-93000Y-48100D02*
X-87279D01*
X-93000Y18600D02*
X-86400Y12000D01*
X-98650Y5200D02*
X-93000D01*
X-98700Y5250D02*
X-98650Y5200D01*
X-98700Y5250D02*
Y32900D01*
X-93000Y38600D01*
X-98700Y-22400D02*
X-93000Y-28100D01*
X-98700Y-22400D02*
Y5250D01*
D46*
X-79000Y33200D02*
X-3100D01*
X-79000Y-41900D02*
Y33200D01*
X-78400Y-42500D02*
X-74700Y-46200D01*
X434D01*
X3363Y-43271D02*
Y-32537D01*
X434Y-46200D02*
X3363Y-43271D01*
X-79000Y49400D02*
Y67800D01*
Y33200D02*
Y49400D01*
X-79100Y33200D02*
X-79000D01*
D48*
X135600Y-61700D02*
D03*
Y-41700D02*
D03*
Y-10000D02*
D03*
Y10000D02*
D03*
Y41700D02*
D03*
Y61700D02*
D03*
X-145300Y80600D02*
D03*
Y60600D02*
D03*
D49*
X81900Y9100D02*
D03*
D50*
Y-10900D02*
D03*
D51*
X-93000Y5200D02*
D03*
Y-4800D02*
D03*
Y-38100D02*
D03*
Y-28100D02*
D03*
Y38600D02*
D03*
Y28600D02*
D03*
X-69100Y67800D02*
D03*
D52*
X-93000Y-14800D02*
D03*
Y-48100D02*
D03*
Y18600D02*
D03*
D53*
X-79100Y67800D02*
D03*
D54*
X-145200Y-73700D02*
D03*
X-145300Y8100D02*
D03*
Y-11900D02*
D03*
Y-31900D02*
D03*
Y-41900D02*
D03*
Y-21900D02*
D03*
Y-1900D02*
D03*
Y18100D02*
D03*
Y28100D02*
D03*
Y38100D02*
D03*
D55*
X-145200Y-83700D02*
D03*
X-145300Y-51900D02*
D03*
D56*
X-47800Y-85600D02*
D03*
Y83000D02*
D03*
X128600D02*
D03*
X129900Y-85600D02*
D03*
D57*
X-12100Y-55900D02*
D03*
X-39100Y-56000D02*
D03*
X11193Y-36849D02*
D03*
X13414Y-17387D02*
D03*
X13276Y17206D02*
D03*
X-83346Y7849D02*
D03*
X3400Y37113D02*
D03*
X-3000Y33100D02*
D03*
X-25800Y37600D02*
D03*
X-70386Y-9100D02*
D03*
X-83590Y-18091D02*
D03*
X2800Y13800D02*
D03*
X5100Y12000D02*
D03*
X10100D02*
D03*
X7800Y13800D02*
D03*
X7700Y6700D02*
D03*
X10000Y8500D02*
D03*
X5000D02*
D03*
X2700Y6700D02*
D03*
X2800Y-13800D02*
D03*
X5100Y-12000D02*
D03*
X10100D02*
D03*
X7800Y-13800D02*
D03*
X7900Y-6700D02*
D03*
X10200Y-8500D02*
D03*
X5200D02*
D03*
X2900Y-6700D02*
D03*
X16700Y-22000D02*
D03*
X16800Y20800D02*
D03*
X8500Y-71500D02*
D03*
X-66400Y-38100D02*
D03*
X-26700Y-56000D02*
D03*
X-54200D02*
D03*
X-106700Y-61300D02*
D03*
X-74300Y-15800D02*
D03*
X-79100Y33200D02*
D03*
X-79300Y-34600D02*
D03*
X3363Y-32537D02*
D03*
X-70500Y28700D02*
D03*
X-61600Y-4000D02*
D03*
X-63300Y-9000D02*
D03*
X4500Y-1300D02*
D03*
X47800Y-15100D02*
D03*
Y15100D02*
D03*
X4500Y1300D02*
D03*
X-59850Y55900D02*
D03*
X-59401Y48797D02*
D03*
D58*
X148600Y85500D02*
D03*
X146100Y80500D02*
D03*
X148600Y75500D02*
D03*
X146100Y70500D02*
D03*
X148600Y15500D02*
D03*
X146100Y10500D02*
D03*
X148600Y5500D02*
D03*
X146100Y500D02*
D03*
X148600Y-4500D02*
D03*
X146100Y-9500D02*
D03*
X148600Y-14500D02*
D03*
X146100Y-19500D02*
D03*
X148600Y-24500D02*
D03*
X146100Y-29500D02*
D03*
X148600Y-34500D02*
D03*
X146100Y-39500D02*
D03*
X148600Y-44500D02*
D03*
X146100Y-49500D02*
D03*
X148600Y-54500D02*
D03*
X146100Y-59500D02*
D03*
X148600Y-64500D02*
D03*
X146100Y-69500D02*
D03*
X148600Y-74500D02*
D03*
X146100Y-79500D02*
D03*
X148600Y-84500D02*
D03*
X146100Y-89500D02*
D03*
X143600Y85500D02*
D03*
X141100Y80500D02*
D03*
X143600Y75500D02*
D03*
X141100Y70500D02*
D03*
X143600Y55500D02*
D03*
Y45500D02*
D03*
Y35500D02*
D03*
Y25500D02*
D03*
Y-14500D02*
D03*
Y-24500D02*
D03*
Y-34500D02*
D03*
Y-44500D02*
D03*
Y-54500D02*
D03*
Y-64500D02*
D03*
X141100Y-69500D02*
D03*
X143600Y-74500D02*
D03*
X141100Y-79500D02*
D03*
X143600Y-84500D02*
D03*
X141100Y-89500D02*
D03*
X138600Y85500D02*
D03*
Y75500D02*
D03*
X136100Y70500D02*
D03*
X138600Y35500D02*
D03*
X136100Y30500D02*
D03*
X138600Y25500D02*
D03*
X136100Y20500D02*
D03*
Y-19500D02*
D03*
X138600Y-24500D02*
D03*
X136100Y-29500D02*
D03*
X138600Y-34500D02*
D03*
X136100Y-69500D02*
D03*
X138600Y-74500D02*
D03*
X136100Y-79500D02*
D03*
X138600Y-84500D02*
D03*
X133600Y75500D02*
D03*
X131100Y70500D02*
D03*
X133600Y35500D02*
D03*
X131100Y30500D02*
D03*
X133600Y25500D02*
D03*
X131100Y20500D02*
D03*
Y-19500D02*
D03*
X133600Y-24500D02*
D03*
X131100Y-29500D02*
D03*
X133600Y-34500D02*
D03*
X131100Y-69500D02*
D03*
X133600Y-74500D02*
D03*
X126100Y70500D02*
D03*
X128600Y35500D02*
D03*
X126100Y30500D02*
D03*
X128600Y25500D02*
D03*
X126100Y20500D02*
D03*
Y-9500D02*
D03*
X128600Y-14500D02*
D03*
X126100Y-19500D02*
D03*
X128600Y-24500D02*
D03*
X126100Y-29500D02*
D03*
X128600Y-34500D02*
D03*
X126100Y-69500D02*
D03*
X128600Y-74500D02*
D03*
X123600Y75500D02*
D03*
X121100Y70500D02*
D03*
X123600Y35500D02*
D03*
X121100Y30500D02*
D03*
X123600Y25500D02*
D03*
X121100Y20500D02*
D03*
Y-9500D02*
D03*
X123600Y-14500D02*
D03*
X121100Y-19500D02*
D03*
X123600Y-24500D02*
D03*
X121100Y-29500D02*
D03*
X123600Y-34500D02*
D03*
X121100Y-69500D02*
D03*
X123600Y-74500D02*
D03*
X121100Y-79500D02*
D03*
Y-89500D02*
D03*
X118600Y85500D02*
D03*
X116100Y80500D02*
D03*
X118600Y75500D02*
D03*
X116100Y70500D02*
D03*
X118600Y35500D02*
D03*
X116100Y30500D02*
D03*
X118600Y25500D02*
D03*
X116100Y20500D02*
D03*
Y-9500D02*
D03*
X118600Y-14500D02*
D03*
X116100Y-19500D02*
D03*
X118600Y-24500D02*
D03*
X116100Y-29500D02*
D03*
X118600Y-34500D02*
D03*
X116100Y-69500D02*
D03*
X118600Y-74500D02*
D03*
X116100Y-79500D02*
D03*
X118600Y-84500D02*
D03*
X116100Y-89500D02*
D03*
X113600Y85500D02*
D03*
X111100Y80500D02*
D03*
X113600Y75500D02*
D03*
Y35500D02*
D03*
Y25500D02*
D03*
X111100Y20500D02*
D03*
Y-9500D02*
D03*
X113600Y-14500D02*
D03*
X111100Y-19500D02*
D03*
X113600Y-24500D02*
D03*
Y-34500D02*
D03*
Y-74500D02*
D03*
X111100Y-79500D02*
D03*
X113600Y-84500D02*
D03*
X111100Y-89500D02*
D03*
X108600Y85500D02*
D03*
X106100Y80500D02*
D03*
X108600Y75500D02*
D03*
Y25500D02*
D03*
X106100Y20500D02*
D03*
Y-9500D02*
D03*
X108600Y-14500D02*
D03*
X106100Y-19500D02*
D03*
X108600Y-24500D02*
D03*
X106100Y-79500D02*
D03*
X108600Y-84500D02*
D03*
X106100Y-89500D02*
D03*
X103600Y85500D02*
D03*
X101100Y80500D02*
D03*
X103600Y75500D02*
D03*
X101100Y70500D02*
D03*
X103600Y35500D02*
D03*
X101100Y30500D02*
D03*
X103600Y25500D02*
D03*
X101100Y20500D02*
D03*
Y-9500D02*
D03*
X103600Y-14500D02*
D03*
X101100Y-19500D02*
D03*
X103600Y-24500D02*
D03*
X101100Y-29500D02*
D03*
X103600Y-34500D02*
D03*
X101100Y-69500D02*
D03*
X103600Y-74500D02*
D03*
X101100Y-79500D02*
D03*
X103600Y-84500D02*
D03*
X101100Y-89500D02*
D03*
X98600Y85500D02*
D03*
X96100Y80500D02*
D03*
X98600Y75500D02*
D03*
X96100Y70500D02*
D03*
X98600Y35500D02*
D03*
X96100Y30500D02*
D03*
X98600Y25500D02*
D03*
X96100Y20500D02*
D03*
Y-9500D02*
D03*
X98600Y-14500D02*
D03*
X96100Y-19500D02*
D03*
X98600Y-24500D02*
D03*
X96100Y-29500D02*
D03*
X98600Y-34500D02*
D03*
X96100Y-69500D02*
D03*
X98600Y-74500D02*
D03*
X96100Y-79500D02*
D03*
X98600Y-84500D02*
D03*
X96100Y-89500D02*
D03*
X93600Y85500D02*
D03*
X91100Y80500D02*
D03*
X93600Y75500D02*
D03*
X91100Y70500D02*
D03*
X93600Y35500D02*
D03*
X91100Y30500D02*
D03*
X93600Y25500D02*
D03*
X91100Y20500D02*
D03*
Y-9500D02*
D03*
X93600Y-14500D02*
D03*
X91100Y-19500D02*
D03*
X93600Y-24500D02*
D03*
X91100Y-29500D02*
D03*
X93600Y-34500D02*
D03*
X91100Y-69500D02*
D03*
X93600Y-74500D02*
D03*
X91100Y-79500D02*
D03*
X93600Y-84500D02*
D03*
X91100Y-89500D02*
D03*
X88600Y85500D02*
D03*
X86100Y80500D02*
D03*
X88600Y75500D02*
D03*
X86100Y70500D02*
D03*
X88600Y35500D02*
D03*
X86100Y30500D02*
D03*
X88600Y25500D02*
D03*
X86100Y20500D02*
D03*
X88600Y-14500D02*
D03*
X86100Y-19500D02*
D03*
X88600Y-24500D02*
D03*
X86100Y-29500D02*
D03*
X88600Y-34500D02*
D03*
X86100Y-69500D02*
D03*
X88600Y-74500D02*
D03*
X86100Y-79500D02*
D03*
X88600Y-84500D02*
D03*
X86100Y-89500D02*
D03*
X83600Y85500D02*
D03*
X81100Y80500D02*
D03*
X83600Y75500D02*
D03*
X81100Y70500D02*
D03*
X83600Y35500D02*
D03*
X81100Y30500D02*
D03*
X83600Y25500D02*
D03*
X81100Y20500D02*
D03*
Y-19500D02*
D03*
X83600Y-24500D02*
D03*
X81100Y-29500D02*
D03*
X83600Y-34500D02*
D03*
X81100Y-69500D02*
D03*
X83600Y-74500D02*
D03*
X81100Y-79500D02*
D03*
X83600Y-84500D02*
D03*
X81100Y-89500D02*
D03*
X78600Y85500D02*
D03*
X76100Y80500D02*
D03*
X78600Y75500D02*
D03*
X76100Y70500D02*
D03*
X78600Y35500D02*
D03*
X76100Y30500D02*
D03*
X78600Y25500D02*
D03*
X76100Y-19500D02*
D03*
X78600Y-24500D02*
D03*
X76100Y-29500D02*
D03*
X78600Y-34500D02*
D03*
X76100Y-69500D02*
D03*
X78600Y-74500D02*
D03*
X76100Y-79500D02*
D03*
X78600Y-84500D02*
D03*
X76100Y-89500D02*
D03*
X73600Y85500D02*
D03*
X71100Y80500D02*
D03*
X73600Y75500D02*
D03*
X71100Y70500D02*
D03*
X73600Y35500D02*
D03*
X71100Y30500D02*
D03*
X73600Y25500D02*
D03*
X71100Y20500D02*
D03*
X73600Y-14500D02*
D03*
X71100Y-19500D02*
D03*
X73600Y-24500D02*
D03*
X71100Y-29500D02*
D03*
X73600Y-34500D02*
D03*
X71100Y-69500D02*
D03*
X73600Y-74500D02*
D03*
X71100Y-79500D02*
D03*
X73600Y-84500D02*
D03*
X71100Y-89500D02*
D03*
X68600Y85500D02*
D03*
X66100Y80500D02*
D03*
X68600Y75500D02*
D03*
X66100Y70500D02*
D03*
X68600Y35500D02*
D03*
X66100Y30500D02*
D03*
X68600Y25500D02*
D03*
X66100Y20500D02*
D03*
X68600Y-14500D02*
D03*
X66100Y-19500D02*
D03*
X68600Y-24500D02*
D03*
X66100Y-29500D02*
D03*
X68600Y-34500D02*
D03*
X66100Y-69500D02*
D03*
X68600Y-74500D02*
D03*
X66100Y-79500D02*
D03*
X68600Y-84500D02*
D03*
X66100Y-89500D02*
D03*
X63600Y85500D02*
D03*
X61100Y80500D02*
D03*
X63600Y75500D02*
D03*
X61100Y70500D02*
D03*
X63600Y35500D02*
D03*
X61100Y30500D02*
D03*
X63600Y25500D02*
D03*
X61100Y20500D02*
D03*
X63600Y-14500D02*
D03*
X61100Y-19500D02*
D03*
X63600Y-24500D02*
D03*
X61100Y-29500D02*
D03*
X63600Y-34500D02*
D03*
X61100Y-69500D02*
D03*
X63600Y-74500D02*
D03*
X61100Y-79500D02*
D03*
X63600Y-84500D02*
D03*
X61100Y-89500D02*
D03*
X58600Y85500D02*
D03*
X56100Y80500D02*
D03*
X58600Y75500D02*
D03*
X56100Y70500D02*
D03*
X58600Y35500D02*
D03*
X56100Y30500D02*
D03*
X58600Y25500D02*
D03*
X56100Y20500D02*
D03*
X58600Y-14500D02*
D03*
X56100Y-19500D02*
D03*
X58600Y-24500D02*
D03*
X56100Y-29500D02*
D03*
X58600Y-34500D02*
D03*
X56100Y-69500D02*
D03*
X58600Y-74500D02*
D03*
X56100Y-79500D02*
D03*
X58600Y-84500D02*
D03*
X56100Y-89500D02*
D03*
X53600Y85500D02*
D03*
X51100Y80500D02*
D03*
X53600Y75500D02*
D03*
X51100Y70500D02*
D03*
X53600Y35500D02*
D03*
X51100Y30500D02*
D03*
X53600Y25500D02*
D03*
X51100Y20500D02*
D03*
X53600Y15500D02*
D03*
Y-14500D02*
D03*
X51100Y-19500D02*
D03*
X53600Y-24500D02*
D03*
X51100Y-29500D02*
D03*
X53600Y-34500D02*
D03*
X51100Y-69500D02*
D03*
X53600Y-74500D02*
D03*
X51100Y-79500D02*
D03*
X53600Y-84500D02*
D03*
X51100Y-89500D02*
D03*
X48600Y85500D02*
D03*
X46100Y80500D02*
D03*
X48600Y75500D02*
D03*
X46100Y70500D02*
D03*
Y-69500D02*
D03*
X48600Y-74500D02*
D03*
X46100Y-79500D02*
D03*
X48600Y-84500D02*
D03*
X46100Y-89500D02*
D03*
X43600Y85500D02*
D03*
X41100Y80500D02*
D03*
X43600Y75500D02*
D03*
X41100Y70500D02*
D03*
Y-69500D02*
D03*
X43600Y-74500D02*
D03*
X41100Y-79500D02*
D03*
X43600Y-84500D02*
D03*
X41100Y-89500D02*
D03*
X38600Y85500D02*
D03*
X36100Y80500D02*
D03*
X38600Y75500D02*
D03*
X36100Y70500D02*
D03*
Y-69500D02*
D03*
X38600Y-74500D02*
D03*
X36100Y-79500D02*
D03*
X38600Y-84500D02*
D03*
X36100Y-89500D02*
D03*
X33600Y85500D02*
D03*
X31100Y80500D02*
D03*
X33600Y75500D02*
D03*
X31100Y70500D02*
D03*
Y-69500D02*
D03*
X33600Y-74500D02*
D03*
X31100Y-79500D02*
D03*
X33600Y-84500D02*
D03*
X31100Y-89500D02*
D03*
X28600Y85500D02*
D03*
X26100Y80500D02*
D03*
X28600Y75500D02*
D03*
X26100Y70500D02*
D03*
Y-69500D02*
D03*
X28600Y-74500D02*
D03*
X26100Y-79500D02*
D03*
X28600Y-84500D02*
D03*
X26100Y-89500D02*
D03*
X23600Y85500D02*
D03*
X21100Y80500D02*
D03*
X23600Y75500D02*
D03*
X21100Y70500D02*
D03*
X23600Y-64500D02*
D03*
X21100Y-69500D02*
D03*
X23600Y-74500D02*
D03*
X21100Y-79500D02*
D03*
X23600Y-84500D02*
D03*
X21100Y-89500D02*
D03*
X18600Y85500D02*
D03*
X16100Y80500D02*
D03*
X18600Y75500D02*
D03*
X16100Y70500D02*
D03*
Y60500D02*
D03*
Y50500D02*
D03*
Y-49500D02*
D03*
Y-59500D02*
D03*
X18600Y-64500D02*
D03*
X16100Y-69500D02*
D03*
X18600Y-74500D02*
D03*
X16100Y-79500D02*
D03*
X18600Y-84500D02*
D03*
X16100Y-89500D02*
D03*
X13600Y85500D02*
D03*
X11100Y80500D02*
D03*
X13600Y75500D02*
D03*
X11100Y70500D02*
D03*
Y60500D02*
D03*
X13600Y55500D02*
D03*
X11100Y50500D02*
D03*
X13600Y45500D02*
D03*
Y-44500D02*
D03*
X11100Y-49500D02*
D03*
X13600Y-54500D02*
D03*
X11100Y-59500D02*
D03*
X13600Y-64500D02*
D03*
X11100Y-69500D02*
D03*
X13600Y-74500D02*
D03*
X11100Y-79500D02*
D03*
X13600Y-84500D02*
D03*
X11100Y-89500D02*
D03*
X8600Y85500D02*
D03*
X6100Y80500D02*
D03*
X8600Y75500D02*
D03*
X6100Y70500D02*
D03*
Y60500D02*
D03*
X8600Y55500D02*
D03*
X6100Y50500D02*
D03*
X8600Y45500D02*
D03*
Y-44500D02*
D03*
X6100Y-49500D02*
D03*
X8600Y-54500D02*
D03*
X6100Y-59500D02*
D03*
X8600Y-64500D02*
D03*
X6100Y-69500D02*
D03*
X8600Y-74500D02*
D03*
X6100Y-79500D02*
D03*
X8600Y-84500D02*
D03*
X6100Y-89500D02*
D03*
X3600Y85500D02*
D03*
X1100Y80500D02*
D03*
X3600Y75500D02*
D03*
X1100Y70500D02*
D03*
Y60500D02*
D03*
X3600Y55500D02*
D03*
X1100Y50500D02*
D03*
X3600Y45500D02*
D03*
X1100Y30500D02*
D03*
X3600Y25500D02*
D03*
Y-54500D02*
D03*
X1100Y-59500D02*
D03*
X3600Y-64500D02*
D03*
X1100Y-69500D02*
D03*
X3600Y-74500D02*
D03*
X1100Y-79500D02*
D03*
X3600Y-84500D02*
D03*
X1100Y-89500D02*
D03*
X-1400Y85500D02*
D03*
X-3900Y80500D02*
D03*
X-1400Y75500D02*
D03*
X-3900Y70500D02*
D03*
Y60500D02*
D03*
X-1400Y55500D02*
D03*
X-3900Y50500D02*
D03*
X-1400Y45500D02*
D03*
Y25500D02*
D03*
X-3900Y-29500D02*
D03*
X-1400Y-34500D02*
D03*
Y-54500D02*
D03*
X-3900Y-59500D02*
D03*
X-1400Y-64500D02*
D03*
X-3900Y-69500D02*
D03*
X-1400Y-74500D02*
D03*
X-3900Y-79500D02*
D03*
X-1400Y-84500D02*
D03*
X-3900Y-89500D02*
D03*
X-6400Y85500D02*
D03*
X-8900Y80500D02*
D03*
X-6400Y75500D02*
D03*
X-8900Y70500D02*
D03*
Y60500D02*
D03*
X-6400Y55500D02*
D03*
X-8900Y50500D02*
D03*
X-6400Y45500D02*
D03*
Y25500D02*
D03*
Y-34500D02*
D03*
Y-54500D02*
D03*
X-8900Y-59500D02*
D03*
X-6400Y-64500D02*
D03*
X-8900Y-69500D02*
D03*
X-6400Y-74500D02*
D03*
X-8900Y-79500D02*
D03*
X-6400Y-84500D02*
D03*
X-8900Y-89500D02*
D03*
X-11400Y85500D02*
D03*
X-13900Y80500D02*
D03*
X-11400Y75500D02*
D03*
X-13900Y70500D02*
D03*
Y60500D02*
D03*
X-11400Y55500D02*
D03*
X-13900Y50500D02*
D03*
X-11400Y45500D02*
D03*
X-13900Y40500D02*
D03*
Y-29500D02*
D03*
Y-39500D02*
D03*
X-11400Y-64500D02*
D03*
X-13900Y-69500D02*
D03*
X-11400Y-74500D02*
D03*
X-13900Y-79500D02*
D03*
X-11400Y-84500D02*
D03*
X-13900Y-89500D02*
D03*
X-16400Y85500D02*
D03*
X-18900Y80500D02*
D03*
X-16400Y75500D02*
D03*
X-18900Y70500D02*
D03*
Y60500D02*
D03*
X-16400Y55500D02*
D03*
X-18900Y50500D02*
D03*
X-16400Y45500D02*
D03*
X-18900Y40500D02*
D03*
X-16400Y25500D02*
D03*
X-18900Y20500D02*
D03*
Y500D02*
D03*
Y-9500D02*
D03*
Y-19500D02*
D03*
Y-29500D02*
D03*
Y-39500D02*
D03*
Y-69500D02*
D03*
X-16400Y-74500D02*
D03*
X-18900Y-79500D02*
D03*
X-16400Y-84500D02*
D03*
X-18900Y-89500D02*
D03*
X-21400Y85500D02*
D03*
X-23900Y80500D02*
D03*
X-21400Y75500D02*
D03*
X-23900Y70500D02*
D03*
Y60500D02*
D03*
X-21400Y55500D02*
D03*
X-23900Y50500D02*
D03*
X-21400Y45500D02*
D03*
X-23900Y40500D02*
D03*
X-21400Y25500D02*
D03*
X-23900Y20500D02*
D03*
Y10500D02*
D03*
X-21400Y5500D02*
D03*
X-23900Y500D02*
D03*
X-21400Y-4500D02*
D03*
X-23900Y-9500D02*
D03*
X-21400Y-14500D02*
D03*
X-23900Y-19500D02*
D03*
X-21400Y-24500D02*
D03*
X-23900Y-29500D02*
D03*
X-21400Y-34500D02*
D03*
X-23900Y-39500D02*
D03*
Y-69500D02*
D03*
X-21400Y-74500D02*
D03*
X-23900Y-79500D02*
D03*
X-21400Y-84500D02*
D03*
X-23900Y-89500D02*
D03*
X-26400Y85500D02*
D03*
X-28900Y80500D02*
D03*
X-26400Y75500D02*
D03*
X-28900Y70500D02*
D03*
Y60500D02*
D03*
X-26400Y55500D02*
D03*
X-28900Y50500D02*
D03*
X-26400Y45500D02*
D03*
X-28900Y40500D02*
D03*
X-26400Y25500D02*
D03*
Y15500D02*
D03*
X-28900Y10500D02*
D03*
X-26400Y5500D02*
D03*
X-28900Y500D02*
D03*
X-26400Y-4500D02*
D03*
X-28900Y-9500D02*
D03*
X-26400Y-14500D02*
D03*
X-28900Y-19500D02*
D03*
X-26400Y-24500D02*
D03*
X-28900Y-29500D02*
D03*
X-26400Y-34500D02*
D03*
X-28900Y-39500D02*
D03*
X-26400Y-64500D02*
D03*
X-28900Y-69500D02*
D03*
X-26400Y-74500D02*
D03*
X-28900Y-79500D02*
D03*
X-26400Y-84500D02*
D03*
X-28900Y-89500D02*
D03*
X-31400Y85500D02*
D03*
X-33900Y80500D02*
D03*
X-31400Y75500D02*
D03*
X-33900Y70500D02*
D03*
Y60500D02*
D03*
X-31400Y55500D02*
D03*
X-33900Y50500D02*
D03*
X-31400Y45500D02*
D03*
X-33900Y40500D02*
D03*
X-31400Y25500D02*
D03*
Y15500D02*
D03*
X-33900Y10500D02*
D03*
X-31400Y5500D02*
D03*
X-33900Y500D02*
D03*
X-31400Y-4500D02*
D03*
X-33900Y-9500D02*
D03*
X-31400Y-14500D02*
D03*
X-33900Y-19500D02*
D03*
X-31400Y-24500D02*
D03*
X-33900Y-29500D02*
D03*
X-31400Y-34500D02*
D03*
X-33900Y-39500D02*
D03*
X-31400Y-54500D02*
D03*
Y-64500D02*
D03*
X-33900Y-69500D02*
D03*
X-31400Y-74500D02*
D03*
X-33900Y-79500D02*
D03*
X-31400Y-84500D02*
D03*
X-33900Y-89500D02*
D03*
X-36400Y85500D02*
D03*
X-38900Y80500D02*
D03*
X-36400Y75500D02*
D03*
X-38900Y70500D02*
D03*
Y60500D02*
D03*
X-36400Y55500D02*
D03*
X-38900Y50500D02*
D03*
X-36400Y45500D02*
D03*
X-38900Y40500D02*
D03*
X-36400Y25500D02*
D03*
Y15500D02*
D03*
X-38900Y10500D02*
D03*
X-36400Y5500D02*
D03*
X-38900Y500D02*
D03*
X-36400Y-4500D02*
D03*
X-38900Y-9500D02*
D03*
X-36400Y-14500D02*
D03*
X-38900Y-19500D02*
D03*
X-36400Y-24500D02*
D03*
X-38900Y-29500D02*
D03*
X-36400Y-34500D02*
D03*
X-38900Y-39500D02*
D03*
X-36400Y-54500D02*
D03*
Y-64500D02*
D03*
X-38900Y-69500D02*
D03*
X-36400Y-74500D02*
D03*
X-38900Y-79500D02*
D03*
X-36400Y-84500D02*
D03*
X-38900Y-89500D02*
D03*
X-41400Y75500D02*
D03*
X-43900Y70500D02*
D03*
Y60500D02*
D03*
X-41400Y55500D02*
D03*
X-43900Y50500D02*
D03*
X-41400Y45500D02*
D03*
X-43900Y40500D02*
D03*
X-41400Y25500D02*
D03*
X-43900Y-69500D02*
D03*
X-41400Y-74500D02*
D03*
X-48900Y70500D02*
D03*
Y60500D02*
D03*
X-46400Y55500D02*
D03*
X-48900Y50500D02*
D03*
X-46400Y45500D02*
D03*
X-48900Y40500D02*
D03*
X-46400Y25500D02*
D03*
X-48900Y10500D02*
D03*
X-46400Y5500D02*
D03*
X-48900Y500D02*
D03*
X-46400Y-4500D02*
D03*
X-48900Y-9500D02*
D03*
X-46400Y-14500D02*
D03*
X-48900Y-19500D02*
D03*
X-46400Y-24500D02*
D03*
X-48900Y-29500D02*
D03*
X-46400Y-34500D02*
D03*
X-48900Y-39500D02*
D03*
Y-69500D02*
D03*
X-46400Y-74500D02*
D03*
X-53900Y70500D02*
D03*
Y60500D02*
D03*
X-51400Y55500D02*
D03*
X-53900Y50500D02*
D03*
X-51400Y45500D02*
D03*
X-53900Y40500D02*
D03*
X-51400Y25500D02*
D03*
Y-24500D02*
D03*
X-53900Y-29500D02*
D03*
X-51400Y-34500D02*
D03*
X-53900Y-39500D02*
D03*
Y-69500D02*
D03*
X-51400Y-74500D02*
D03*
X-56400Y85500D02*
D03*
X-58900Y80500D02*
D03*
X-56400Y75500D02*
D03*
X-58900Y70500D02*
D03*
Y60500D02*
D03*
X-56400Y55500D02*
D03*
Y45500D02*
D03*
X-58900Y40500D02*
D03*
X-56400Y25500D02*
D03*
Y-24500D02*
D03*
X-58900Y-29500D02*
D03*
X-56400Y-34500D02*
D03*
X-58900Y-39500D02*
D03*
X-56400Y-54500D02*
D03*
Y-64500D02*
D03*
X-58900Y-69500D02*
D03*
X-56400Y-74500D02*
D03*
X-58900Y-79500D02*
D03*
X-56400Y-84500D02*
D03*
X-58900Y-89500D02*
D03*
X-61400Y85500D02*
D03*
X-63900Y80500D02*
D03*
X-61400Y75500D02*
D03*
X-63900Y70500D02*
D03*
Y60500D02*
D03*
X-61400Y25500D02*
D03*
X-63900Y-39500D02*
D03*
X-61400Y-54500D02*
D03*
Y-64500D02*
D03*
X-63900Y-69500D02*
D03*
X-61400Y-74500D02*
D03*
X-63900Y-79500D02*
D03*
X-61400Y-84500D02*
D03*
X-63900Y-89500D02*
D03*
X-66400Y85500D02*
D03*
X-68900Y80500D02*
D03*
X-66400Y75500D02*
D03*
X-68900Y40500D02*
D03*
Y500D02*
D03*
X-66400Y-54500D02*
D03*
Y-64500D02*
D03*
X-68900Y-69500D02*
D03*
X-66400Y-74500D02*
D03*
X-68900Y-79500D02*
D03*
X-66400Y-84500D02*
D03*
X-68900Y-89500D02*
D03*
X-71400Y85500D02*
D03*
X-73900Y80500D02*
D03*
X-71400Y75500D02*
D03*
X-73900Y70500D02*
D03*
Y60500D02*
D03*
Y40500D02*
D03*
X-71400Y-54500D02*
D03*
Y-64500D02*
D03*
X-73900Y-69500D02*
D03*
X-71400Y-74500D02*
D03*
X-73900Y-79500D02*
D03*
X-71400Y-84500D02*
D03*
X-73900Y-89500D02*
D03*
X-76400Y85500D02*
D03*
X-78900Y80500D02*
D03*
X-76400Y75500D02*
D03*
Y-54500D02*
D03*
Y-64500D02*
D03*
Y-74500D02*
D03*
X-78900Y-79500D02*
D03*
X-76400Y-84500D02*
D03*
X-78900Y-89500D02*
D03*
X-81400Y85500D02*
D03*
X-83900Y80500D02*
D03*
Y60500D02*
D03*
Y50500D02*
D03*
Y40500D02*
D03*
Y-29500D02*
D03*
Y-69500D02*
D03*
Y-79500D02*
D03*
X-81400Y-84500D02*
D03*
X-83900Y-89500D02*
D03*
X-86400Y85500D02*
D03*
X-88900Y70500D02*
D03*
X-86400Y65500D02*
D03*
X-88900Y60500D02*
D03*
X-86400Y55500D02*
D03*
X-88900Y50500D02*
D03*
X-86400Y45500D02*
D03*
Y35500D02*
D03*
X-88900Y500D02*
D03*
X-86400Y-54500D02*
D03*
Y-64500D02*
D03*
X-88900Y-79500D02*
D03*
X-86400Y-84500D02*
D03*
X-88900Y-89500D02*
D03*
X-91400Y85500D02*
D03*
X-93900Y70500D02*
D03*
X-91400Y65500D02*
D03*
X-93900Y60500D02*
D03*
X-91400Y55500D02*
D03*
X-93900Y50500D02*
D03*
X-91400Y45500D02*
D03*
Y-54500D02*
D03*
Y-64500D02*
D03*
X-93900Y-79500D02*
D03*
X-91400Y-84500D02*
D03*
X-93900Y-89500D02*
D03*
X-96400Y85500D02*
D03*
Y75500D02*
D03*
X-98900Y70500D02*
D03*
X-96400Y65500D02*
D03*
X-98900Y60500D02*
D03*
X-96400Y55500D02*
D03*
X-98900Y50500D02*
D03*
X-96400Y45500D02*
D03*
X-98900Y40500D02*
D03*
Y-39500D02*
D03*
Y-49500D02*
D03*
X-96400Y-54500D02*
D03*
Y-64500D02*
D03*
X-98900Y-79500D02*
D03*
X-96400Y-84500D02*
D03*
X-98900Y-89500D02*
D03*
X-101400Y85500D02*
D03*
Y75500D02*
D03*
X-103900Y70500D02*
D03*
X-101400Y65500D02*
D03*
X-103900Y60500D02*
D03*
X-101400Y55500D02*
D03*
X-103900Y50500D02*
D03*
X-101400Y45500D02*
D03*
X-103900Y40500D02*
D03*
X-101400Y35500D02*
D03*
X-103900Y30500D02*
D03*
Y20500D02*
D03*
Y500D02*
D03*
X-101400Y-4500D02*
D03*
X-103900Y-9500D02*
D03*
X-101400Y-14500D02*
D03*
X-103900Y-29500D02*
D03*
Y-39500D02*
D03*
X-101400Y-44500D02*
D03*
X-103900Y-49500D02*
D03*
X-101400Y-54500D02*
D03*
Y-64500D02*
D03*
X-103900Y-69500D02*
D03*
Y-79500D02*
D03*
X-101400Y-84500D02*
D03*
X-103900Y-89500D02*
D03*
X-106400Y85500D02*
D03*
Y75500D02*
D03*
X-108900Y70500D02*
D03*
X-106400Y65500D02*
D03*
Y55500D02*
D03*
X-108900Y50500D02*
D03*
X-106400Y45500D02*
D03*
X-108900Y40500D02*
D03*
X-106400Y35500D02*
D03*
X-108900Y30500D02*
D03*
Y20500D02*
D03*
X-106400Y5500D02*
D03*
X-108900Y500D02*
D03*
X-106400Y-4500D02*
D03*
X-108900Y-9500D02*
D03*
X-106400Y-14500D02*
D03*
X-108900Y-29500D02*
D03*
Y-39500D02*
D03*
X-106400Y-44500D02*
D03*
X-108900Y-49500D02*
D03*
X-106400Y-54500D02*
D03*
Y-64500D02*
D03*
X-108900Y-69500D02*
D03*
X-113900Y70500D02*
D03*
Y50500D02*
D03*
X-111400Y45500D02*
D03*
X-113900Y40500D02*
D03*
X-111400Y35500D02*
D03*
X-113900Y30500D02*
D03*
Y20500D02*
D03*
X-111400Y5500D02*
D03*
X-113900Y500D02*
D03*
X-111400Y-4500D02*
D03*
X-113900Y-9500D02*
D03*
X-111400Y-14500D02*
D03*
X-113900Y-29500D02*
D03*
Y-39500D02*
D03*
X-111400Y-44500D02*
D03*
X-113900Y-49500D02*
D03*
X-111400Y-54500D02*
D03*
X-113900Y-69500D02*
D03*
X-111400Y-74500D02*
D03*
X-118900Y70500D02*
D03*
Y60500D02*
D03*
Y50500D02*
D03*
X-116400Y45500D02*
D03*
X-118900Y40500D02*
D03*
X-116400Y35500D02*
D03*
X-118900Y30500D02*
D03*
Y20500D02*
D03*
X-116400Y5500D02*
D03*
X-118900Y500D02*
D03*
X-116400Y-4500D02*
D03*
X-118900Y-9500D02*
D03*
X-116400Y-14500D02*
D03*
X-118900Y-29500D02*
D03*
Y-39500D02*
D03*
X-116400Y-44500D02*
D03*
X-118900Y-49500D02*
D03*
X-116400Y-54500D02*
D03*
X-121400Y85500D02*
D03*
Y75500D02*
D03*
X-123900Y70500D02*
D03*
X-121400Y65500D02*
D03*
X-123900Y60500D02*
D03*
X-121400Y55500D02*
D03*
X-123900Y50500D02*
D03*
X-121400Y45500D02*
D03*
X-123900Y40500D02*
D03*
X-121400Y35500D02*
D03*
X-123900Y30500D02*
D03*
Y20500D02*
D03*
X-121400Y5500D02*
D03*
X-123900Y500D02*
D03*
X-121400Y-4500D02*
D03*
X-123900Y-9500D02*
D03*
X-121400Y-14500D02*
D03*
X-123900Y-29500D02*
D03*
Y-39500D02*
D03*
X-121400Y-44500D02*
D03*
X-123900Y-49500D02*
D03*
X-121400Y-54500D02*
D03*
X-123900Y-69500D02*
D03*
X-121400Y-74500D02*
D03*
Y-84500D02*
D03*
X-126400Y85500D02*
D03*
Y75500D02*
D03*
X-128900Y70500D02*
D03*
X-126400Y65500D02*
D03*
X-128900Y60500D02*
D03*
X-126400Y55500D02*
D03*
X-128900Y50500D02*
D03*
X-126400Y45500D02*
D03*
X-128900Y40500D02*
D03*
X-126400Y35500D02*
D03*
X-128900Y30500D02*
D03*
Y20500D02*
D03*
X-126400Y-4500D02*
D03*
X-128900Y-9500D02*
D03*
X-126400Y-14500D02*
D03*
X-128900Y-29500D02*
D03*
Y-39500D02*
D03*
X-126400Y-44500D02*
D03*
X-128900Y-49500D02*
D03*
X-126400Y-54500D02*
D03*
X-128900Y-59500D02*
D03*
X-126400Y-64500D02*
D03*
X-128900Y-69500D02*
D03*
X-126400Y-74500D02*
D03*
X-131400Y85500D02*
D03*
Y75500D02*
D03*
X-133900Y70500D02*
D03*
X-131400Y65500D02*
D03*
X-133900Y60500D02*
D03*
X-131400Y55500D02*
D03*
X-133900Y50500D02*
D03*
X-131400Y45500D02*
D03*
X-133900Y40500D02*
D03*
X-131400Y35500D02*
D03*
X-133900Y30500D02*
D03*
Y20500D02*
D03*
X-131400Y5500D02*
D03*
Y-4500D02*
D03*
X-133900Y-9500D02*
D03*
X-131400Y-14500D02*
D03*
Y-34500D02*
D03*
Y-44500D02*
D03*
X-133900Y-49500D02*
D03*
X-131400Y-54500D02*
D03*
X-133900Y-59500D02*
D03*
X-131400Y-64500D02*
D03*
X-133900Y-69500D02*
D03*
X-131400Y-74500D02*
D03*
X-133900Y-79500D02*
D03*
X-131400Y-84500D02*
D03*
X-136400Y85500D02*
D03*
Y75500D02*
D03*
X-138900Y70500D02*
D03*
X-136400Y65500D02*
D03*
X-138900Y60500D02*
D03*
X-136400Y55500D02*
D03*
X-138900Y50500D02*
D03*
X-136400Y45500D02*
D03*
X-138900Y40500D02*
D03*
X-136400Y35500D02*
D03*
X-138900Y30500D02*
D03*
Y20500D02*
D03*
Y10500D02*
D03*
Y500D02*
D03*
X-136400Y-14500D02*
D03*
X-138900Y-29500D02*
D03*
Y-39500D02*
D03*
Y-49500D02*
D03*
X-136400Y-54500D02*
D03*
X-138900Y-59500D02*
D03*
X-136400Y-64500D02*
D03*
X-138900Y-69500D02*
D03*
X-136400Y-74500D02*
D03*
X-138900Y-79500D02*
D03*
X-136400Y-84500D02*
D03*
X-143900Y70500D02*
D03*
Y50500D02*
D03*
X-141400Y45500D02*
D03*
Y15500D02*
D03*
Y5500D02*
D03*
Y-4500D02*
D03*
Y-14500D02*
D03*
Y-24500D02*
D03*
Y-34500D02*
D03*
Y-44500D02*
D03*
X-143900Y-59500D02*
D03*
X-141400Y-64500D02*
D03*
X-143900Y-89500D02*
D03*
X-148900Y70500D02*
D03*
Y50500D02*
D03*
X-146400Y45500D02*
D03*
X-148900Y-59500D02*
D03*
X-146400Y-64500D02*
D03*
X-148900Y-69500D02*
D03*
Y-89500D02*
D03*
X-153900Y80500D02*
D03*
Y70500D02*
D03*
Y60500D02*
D03*
Y50500D02*
D03*
X-151400Y45500D02*
D03*
X-153900Y40500D02*
D03*
X-151400Y35500D02*
D03*
X-153900Y30500D02*
D03*
X-151400Y25500D02*
D03*
X-153900Y20500D02*
D03*
X-151400Y15500D02*
D03*
X-153900Y10500D02*
D03*
X-151400Y5500D02*
D03*
X-153900Y500D02*
D03*
X-151400Y-4500D02*
D03*
X-153900Y-9500D02*
D03*
X-151400Y-14500D02*
D03*
X-153900Y-19500D02*
D03*
X-151400Y-24500D02*
D03*
X-153900Y-29500D02*
D03*
X-151400Y-34500D02*
D03*
X-153900Y-39500D02*
D03*
X-151400Y-44500D02*
D03*
X-153900Y-49500D02*
D03*
X-151400Y-54500D02*
D03*
X-153900Y-59500D02*
D03*
X-151400Y-64500D02*
D03*
X-153900Y-69500D02*
D03*
X-151400Y-74500D02*
D03*
X-153900Y-79500D02*
D03*
X-151400Y-84500D02*
D03*
X-153900Y-89500D02*
D03*
X-156400Y85500D02*
D03*
X-158900Y80500D02*
D03*
X-156400Y75500D02*
D03*
X-158900Y70500D02*
D03*
X-156400Y65500D02*
D03*
X-158900Y60500D02*
D03*
X-156400Y55500D02*
D03*
X-158900Y50500D02*
D03*
X-156400Y45500D02*
D03*
X-158900Y40500D02*
D03*
X-156400Y35500D02*
D03*
X-158900Y30500D02*
D03*
X-156400Y25500D02*
D03*
X-158900Y20500D02*
D03*
X-156400Y15500D02*
D03*
X-158900Y10500D02*
D03*
X-156400Y5500D02*
D03*
X-158900Y500D02*
D03*
X-156400Y-4500D02*
D03*
X-158900Y-9500D02*
D03*
X-156400Y-14500D02*
D03*
X-158900Y-19500D02*
D03*
X-156400Y-24500D02*
D03*
X-158900Y-29500D02*
D03*
X-156400Y-34500D02*
D03*
X-158900Y-39500D02*
D03*
X-156400Y-44500D02*
D03*
X-158900Y-49500D02*
D03*
X-156400Y-54500D02*
D03*
X-158900Y-59500D02*
D03*
X-156400Y-64500D02*
D03*
X-158900Y-69500D02*
D03*
X-156400Y-74500D02*
D03*
X-158900Y-79500D02*
D03*
X-156400Y-84500D02*
D03*
X-158900Y-89500D02*
D03*
X138600Y15500D02*
D03*
X136100Y500D02*
D03*
X133600Y15500D02*
D03*
X131100Y500D02*
D03*
X128600Y15500D02*
D03*
X126100Y10500D02*
D03*
X128600Y5500D02*
D03*
X126100Y500D02*
D03*
X123600Y15500D02*
D03*
X121100Y10500D02*
D03*
X123600Y5500D02*
D03*
X121100Y500D02*
D03*
X118600Y15500D02*
D03*
X116100Y10500D02*
D03*
X118600Y5500D02*
D03*
X116100Y500D02*
D03*
X113600Y15500D02*
D03*
X111100Y10500D02*
D03*
X113600Y5500D02*
D03*
X111100Y500D02*
D03*
X108600Y15500D02*
D03*
X106100Y10500D02*
D03*
X108600Y5500D02*
D03*
X106100Y500D02*
D03*
X103600Y15500D02*
D03*
X101100Y10500D02*
D03*
X103600Y5500D02*
D03*
X101100Y500D02*
D03*
X98600Y15500D02*
D03*
X96100Y10500D02*
D03*
X98600Y5500D02*
D03*
X96100Y500D02*
D03*
X93600Y15500D02*
D03*
X91100Y10500D02*
D03*
X93600Y5500D02*
D03*
X91100Y500D02*
D03*
X88600Y15500D02*
D03*
Y5500D02*
D03*
X86100Y500D02*
D03*
X83600Y15500D02*
D03*
X81100Y500D02*
D03*
X78600Y15500D02*
D03*
X76100Y500D02*
D03*
X73600Y15500D02*
D03*
X71100Y10500D02*
D03*
X73600Y5500D02*
D03*
X71100Y500D02*
D03*
X73600Y-4500D02*
D03*
X68600Y15500D02*
D03*
X66100Y10500D02*
D03*
X68600Y5500D02*
D03*
X66100Y500D02*
D03*
X68600Y-4500D02*
D03*
X63600Y15500D02*
D03*
X61100Y10500D02*
D03*
X63600Y5500D02*
D03*
X61100Y500D02*
D03*
X63600Y-4500D02*
D03*
X58600Y5500D02*
D03*
X56100Y500D02*
D03*
X58600Y-4500D02*
D03*
X53600Y5500D02*
D03*
X51100Y500D02*
D03*
X53600Y-4500D02*
D03*
X46100Y500D02*
D03*
X136100Y-54500D02*
D03*
X131100D02*
D03*
X126100D02*
D03*
X128600Y-59500D02*
D03*
X126100Y-64500D02*
D03*
X121100Y-54500D02*
D03*
X123600Y-59500D02*
D03*
X121100Y-64500D02*
D03*
X116100Y-54500D02*
D03*
X118600Y-59500D02*
D03*
X116100Y-64500D02*
D03*
X111100Y-54500D02*
D03*
X113600Y-59500D02*
D03*
X106100Y-54500D02*
D03*
X101100D02*
D03*
X103600Y-59500D02*
D03*
X101100Y-64500D02*
D03*
X96100Y-54500D02*
D03*
X98600Y-59500D02*
D03*
X96100Y-64500D02*
D03*
X91100Y-54500D02*
D03*
X93600Y-59500D02*
D03*
X91100Y-64500D02*
D03*
X86100Y-54500D02*
D03*
X88600Y-59500D02*
D03*
X86100Y-64500D02*
D03*
X81100Y-54500D02*
D03*
X83600Y-59500D02*
D03*
X81100Y-64500D02*
D03*
X76100Y-54500D02*
D03*
X78600Y-59500D02*
D03*
X76100Y-64500D02*
D03*
X71100Y-54500D02*
D03*
X73600Y-59500D02*
D03*
X71100Y-64500D02*
D03*
X66100Y-54500D02*
D03*
X68600Y-59500D02*
D03*
X66100Y-64500D02*
D03*
X61100Y-54500D02*
D03*
X63600Y-59500D02*
D03*
X61100Y-64500D02*
D03*
X56100Y-54500D02*
D03*
X58600Y-59500D02*
D03*
X56100Y-64500D02*
D03*
X51100Y-54500D02*
D03*
X53600Y-59500D02*
D03*
X51100Y-64500D02*
D03*
X46100Y-54500D02*
D03*
X48600Y-59500D02*
D03*
X46100Y-64500D02*
D03*
X41100Y-54500D02*
D03*
X43600Y-59500D02*
D03*
X41100Y-64500D02*
D03*
X36100Y-54500D02*
D03*
X38600Y-59500D02*
D03*
X36100Y-64500D02*
D03*
X33600Y-49500D02*
D03*
X31100Y-54500D02*
D03*
X33600Y-59500D02*
D03*
X31100Y-64500D02*
D03*
X26100Y-14500D02*
D03*
X28600Y-19500D02*
D03*
X26100Y-24500D02*
D03*
X28600Y-29500D02*
D03*
X26100Y-34500D02*
D03*
X28600Y-39500D02*
D03*
X26100Y-44500D02*
D03*
X28600Y-49500D02*
D03*
X26100Y-54500D02*
D03*
X28600Y-59500D02*
D03*
X21100Y-14500D02*
D03*
X23600Y-19500D02*
D03*
X21100Y-24500D02*
D03*
X23600Y-29500D02*
D03*
X21100Y-34500D02*
D03*
X23600Y-39500D02*
D03*
X21100Y-44500D02*
D03*
X23600Y-49500D02*
D03*
X21100Y-54500D02*
D03*
X23600Y-59500D02*
D03*
X16100Y-14500D02*
D03*
X136100Y-49500D02*
D03*
X131100D02*
D03*
X126100Y-39500D02*
D03*
X128600Y-44500D02*
D03*
X126100Y-49500D02*
D03*
X121100Y-39500D02*
D03*
X123600Y-44500D02*
D03*
X121100Y-49500D02*
D03*
X116100Y-39500D02*
D03*
X118600Y-44500D02*
D03*
X116100Y-49500D02*
D03*
X113600Y-44500D02*
D03*
X111100Y-49500D02*
D03*
X106100D02*
D03*
X101100Y-39500D02*
D03*
X103600Y-44500D02*
D03*
X101100Y-49500D02*
D03*
X96100Y-39500D02*
D03*
X98600Y-44500D02*
D03*
X96100Y-49500D02*
D03*
X91100Y-39500D02*
D03*
X93600Y-44500D02*
D03*
X91100Y-49500D02*
D03*
X86100Y-39500D02*
D03*
X88600Y-44500D02*
D03*
X86100Y-49500D02*
D03*
X81100Y-39500D02*
D03*
X83600Y-44500D02*
D03*
X81100Y-49500D02*
D03*
X76100Y-39500D02*
D03*
X78600Y-44500D02*
D03*
X76100Y-49500D02*
D03*
X71100Y-39500D02*
D03*
X73600Y-44500D02*
D03*
X71100Y-49500D02*
D03*
X66100Y-39500D02*
D03*
X68600Y-44500D02*
D03*
X66100Y-49500D02*
D03*
X61100Y-39500D02*
D03*
X63600Y-44500D02*
D03*
X61100Y-49500D02*
D03*
X56100Y-39500D02*
D03*
X58600Y-44500D02*
D03*
X56100Y-49500D02*
D03*
X51100Y-39500D02*
D03*
X53600Y-44500D02*
D03*
X51100Y-49500D02*
D03*
X46100Y-39500D02*
D03*
X48600Y-44500D02*
D03*
X46100Y-49500D02*
D03*
X41100Y-9500D02*
D03*
Y-19500D02*
D03*
Y-39500D02*
D03*
X43600Y-44500D02*
D03*
X41100Y-49500D02*
D03*
X36100Y-9500D02*
D03*
X38600Y-14500D02*
D03*
X36100Y-19500D02*
D03*
X38600Y-24500D02*
D03*
X36100Y-29500D02*
D03*
X38600Y-34500D02*
D03*
X36100Y-39500D02*
D03*
X38600Y-44500D02*
D03*
X31100Y-9500D02*
D03*
X33600Y-14500D02*
D03*
Y-24500D02*
D03*
Y-34500D02*
D03*
Y-44500D02*
D03*
X26100Y-9500D02*
D03*
X128600Y45500D02*
D03*
X126100Y40500D02*
D03*
X123600Y45500D02*
D03*
X121100Y40500D02*
D03*
X118600Y45500D02*
D03*
X116100Y40500D02*
D03*
X113600Y45500D02*
D03*
X103600D02*
D03*
X101100Y40500D02*
D03*
X98600Y45500D02*
D03*
X96100Y40500D02*
D03*
X93600Y45500D02*
D03*
X91100Y40500D02*
D03*
X88600Y45500D02*
D03*
X86100Y40500D02*
D03*
X83600Y45500D02*
D03*
X81100Y40500D02*
D03*
X78600Y45500D02*
D03*
X76100Y40500D02*
D03*
X73600Y45500D02*
D03*
X71100Y40500D02*
D03*
X68600Y45500D02*
D03*
X66100Y40500D02*
D03*
X63600Y45500D02*
D03*
X61100Y40500D02*
D03*
X58600Y45500D02*
D03*
X56100Y40500D02*
D03*
X53600Y45500D02*
D03*
X51100Y40500D02*
D03*
X48600Y45500D02*
D03*
X46100Y40500D02*
D03*
X43600Y45500D02*
D03*
X41100Y40500D02*
D03*
Y20500D02*
D03*
Y10500D02*
D03*
X38600Y45500D02*
D03*
X36100Y40500D02*
D03*
X38600Y35500D02*
D03*
X36100Y30500D02*
D03*
X38600Y25500D02*
D03*
X36100Y20500D02*
D03*
X38600Y15500D02*
D03*
X36100Y10500D02*
D03*
X33600Y35500D02*
D03*
Y25500D02*
D03*
Y15500D02*
D03*
X31100Y10500D02*
D03*
X26100D02*
D03*
X136100Y55500D02*
D03*
X131100D02*
D03*
X128600Y60500D02*
D03*
X126100Y55500D02*
D03*
X123600Y60500D02*
D03*
X121100Y55500D02*
D03*
X118600Y60500D02*
D03*
X116100Y55500D02*
D03*
X113600Y60500D02*
D03*
X111100Y55500D02*
D03*
X106100D02*
D03*
X103600Y60500D02*
D03*
X101100Y55500D02*
D03*
X98600Y60500D02*
D03*
X96100Y55500D02*
D03*
X93600Y60500D02*
D03*
X91100Y55500D02*
D03*
X88600Y60500D02*
D03*
X86100Y55500D02*
D03*
X83600Y60500D02*
D03*
X81100Y55500D02*
D03*
X78600Y60500D02*
D03*
X76100Y55500D02*
D03*
X73600Y60500D02*
D03*
X71100Y55500D02*
D03*
X68600Y60500D02*
D03*
X66100Y55500D02*
D03*
X63600Y60500D02*
D03*
X61100Y55500D02*
D03*
X58600Y60500D02*
D03*
X56100Y55500D02*
D03*
X53600Y60500D02*
D03*
X51100Y55500D02*
D03*
X48600Y60500D02*
D03*
X46100Y55500D02*
D03*
X43600Y60500D02*
D03*
X41100Y55500D02*
D03*
X38600Y60500D02*
D03*
X36100Y55500D02*
D03*
X33600Y60500D02*
D03*
X31100Y55500D02*
D03*
X33600Y50500D02*
D03*
X28600Y60500D02*
D03*
X26100Y55500D02*
D03*
X28600Y50500D02*
D03*
X26100Y45500D02*
D03*
X28600Y40500D02*
D03*
X26100Y35500D02*
D03*
X28600Y30500D02*
D03*
X26100Y25500D02*
D03*
X28600Y20500D02*
D03*
X26100Y15500D02*
D03*
X23600Y60500D02*
D03*
X21100Y55500D02*
D03*
X23600Y50500D02*
D03*
X21100Y45500D02*
D03*
X23600Y40500D02*
D03*
X21100Y35500D02*
D03*
X23600Y30500D02*
D03*
X21100Y25500D02*
D03*
X23600Y20500D02*
D03*
X21100Y15500D02*
D03*
X-72800Y26100D02*
D03*
X-74800Y-35700D02*
D03*
X-60000Y-25600D02*
D03*
X-41900Y16500D02*
D03*
X-47000Y12800D02*
D03*
X47500Y34600D02*
D03*
X-102100Y7400D02*
D03*
X-97900Y-30400D02*
D03*
X-138800Y-21700D02*
D03*
X-131000Y-24000D02*
D03*
X-135700Y11400D02*
D03*
X-127300Y9000D02*
D03*
X-83900Y24800D02*
D03*
X48000Y-34700D02*
D03*
X53900Y12300D02*
D03*
X143100Y63800D02*
D03*
X75300Y22300D02*
D03*
X71500Y24500D02*
D03*
X-79100Y-43200D02*
D03*
M02*
